<svg width="56" height="16" viewBox="0 0 56 16" fill="none" xmlns="http://www.w3.org/2000/svg">
<rect y="16" width="16" height="3.73333" transform="rotate(-90 0 16)" fill="black"/>
<rect x="14.9331" y="16" width="16" height="3.73333" transform="rotate(-90 14.9331 16)" fill="#641A80"/>
<rect x="29.8667" y="16" width="16" height="3.73333" transform="rotate(-90 29.8667 16)" fill="#D0416F"/>
<rect x="3.7334" y="16" width="16" height="3.73333" transform="rotate(-90 3.7334 16)" fill="#120D34"/>
<rect x="18.6665" y="16" width="16" height="3.73333" transform="rotate(-90 18.6665 16)" fill="#7B2282"/>
<rect x="33.6001" y="16" width="16" height="3.73333" transform="rotate(-90 33.6001 16)" fill="#E85361"/>
<rect x="44.7998" y="16" width="16" height="3.73333" transform="rotate(-90 44.7998 16)" fill="#FEB47B"/>
<rect x="7.4668" y="16" width="16" height="3.73333" transform="rotate(-90 7.4668 16)" fill="#2B105F"/>
<rect x="22.3999" y="16" width="16" height="3.73333" transform="rotate(-90 22.3999 16)" fill="#992D80"/>
<rect x="37.3335" y="16" width="16" height="3.73333" transform="rotate(-90 37.3335 16)" fill="#F76E5C"/>
<rect x="48.5332" y="16" width="16" height="3.73333" transform="rotate(-90 48.5332 16)" fill="#FED194"/>
<rect x="11.1997" y="16" width="16" height="3.73333" transform="rotate(-90 11.1997 16)" fill="#481478"/>
<rect x="26.1333" y="16" width="16" height="3.73333" transform="rotate(-90 26.1333 16)" fill="#B4367A"/>
<rect x="41.0664" y="16" width="16" height="3.73333" transform="rotate(-90 41.0664 16)" fill="#FD9166"/>
<rect x="52.2666" y="16" width="16" height="3.73333" transform="rotate(-90 52.2666 16)" fill="#FCFDC4"/>
</svg>
