<svg width="56" height="16" viewBox="0 0 56 16" fill="none" xmlns="http://www.w3.org/2000/svg">
<rect y="16" width="16" height="3.73333" transform="rotate(-90 0 16)" fill="#0A1786"/>
<rect x="14.9331" y="16" width="16" height="3.73333" transform="rotate(-90 14.9331 16)" fill="#9024A3"/>
<rect x="29.8667" y="16" width="16" height="3.73333" transform="rotate(-90 29.8667 16)" fill="#DA5C67"/>
<rect x="3.7334" y="16" width="16" height="3.73333" transform="rotate(-90 3.7334 16)" fill="#3D1D9B"/>
<rect x="18.6665" y="16" width="16" height="3.73333" transform="rotate(-90 18.6665 16)" fill="#A52499"/>
<rect x="33.6001" y="16" width="16" height="3.73333" transform="rotate(-90 33.6001 16)" fill="#E76D5A"/>
<rect x="44.7998" y="16" width="16" height="3.73333" transform="rotate(-90 44.7998 16)" fill="#FDB62B"/>
<rect x="7.4668" y="16" width="16" height="3.73333" transform="rotate(-90 7.4668 16)" fill="#5920A5"/>
<rect x="22.3999" y="16" width="16" height="3.73333" transform="rotate(-90 22.3999 16)" fill="#BA3288"/>
<rect x="37.3335" y="16" width="16" height="3.73333" transform="rotate(-90 37.3335 16)" fill="#F28648"/>
<rect x="48.5332" y="16" width="16" height="3.73333" transform="rotate(-90 48.5332 16)" fill="#FBD323"/>
<rect x="11.1997" y="16" width="16" height="3.73333" transform="rotate(-90 11.1997 16)" fill="#7723A8"/>
<rect x="26.1333" y="16" width="16" height="3.73333" transform="rotate(-90 26.1333 16)" fill="#CA4777"/>
<rect x="41.0664" y="16" width="16" height="3.73333" transform="rotate(-90 41.0664 16)" fill="#F99B3B"/>
<rect x="52.2666" y="16" width="16" height="3.73333" transform="rotate(-90 52.2666 16)" fill="#EFF919"/>
</svg>
