<svg width="56" height="16" viewBox="0 0 56 16" fill="none" xmlns="http://www.w3.org/2000/svg">
<rect y="16" width="16" height="3.73333" transform="rotate(-90 0 16)" fill="#4D004B"/>
<rect x="14.9331" y="16" width="16" height="3.73333" transform="rotate(-90 14.9331 16)" fill="#7E4C7A"/>
<rect x="29.8667" y="16" width="16" height="3.73333" transform="rotate(-90 29.8667 16)" fill="#AE8FAD"/>
<rect x="3.7334" y="16" width="16" height="3.73333" transform="rotate(-90 3.7334 16)" fill="#591857"/>
<rect x="18.6665" y="16" width="16" height="3.73333" transform="rotate(-90 18.6665 16)" fill="#8A5D87"/>
<rect x="33.6001" y="16" width="16" height="3.73333" transform="rotate(-90 33.6001 16)" fill="#BAA1BA"/>
<rect x="44.7998" y="16" width="16" height="3.73333" transform="rotate(-90 44.7998 16)" fill="#DFD7E2"/>
<rect x="7.4668" y="16" width="16" height="3.73333" transform="rotate(-90 7.4668 16)" fill="#652A62"/>
<rect x="22.3999" y="16" width="16" height="3.73333" transform="rotate(-90 22.3999 16)" fill="#966D93"/>
<rect x="37.3335" y="16" width="16" height="3.73333" transform="rotate(-90 37.3335 16)" fill="#C6B3C7"/>
<rect x="48.5332" y="16" width="16" height="3.73333" transform="rotate(-90 48.5332 16)" fill="#EBE9EF"/>
<rect x="11.2002" y="16" width="16" height="3.73333" transform="rotate(-90 11.2002 16)" fill="#723B6E"/>
<rect x="26.1333" y="16" width="16" height="3.73333" transform="rotate(-90 26.1333 16)" fill="#A27EA0"/>
<rect x="41.0669" y="16" width="16" height="3.73333" transform="rotate(-90 41.0669 16)" fill="#D2C5D4"/>
<rect x="52.2666" y="16" width="16" height="3.73333" transform="rotate(-90 52.2666 16)" fill="#F7FCFD"/>
</svg>
