<svg width="56" height="16" viewBox="0 0 56 16" fill="none" xmlns="http://www.w3.org/2000/svg">
<rect width="16" height="3.73333" transform="matrix(0 -1 -1 0 14.9331 16)" fill="#323232"/>
<rect width="16" height="3.73333" transform="matrix(0 -1 -1 0 18.6665 16)" fill="#444444"/>
<rect width="16" height="3.73333" transform="matrix(0 -1 -1 0 37.3335 16)" fill="#989898"/>
<rect width="16" height="3.73333" transform="matrix(0 -1 -1 0 22.3999 16)" fill="#555555"/>
<rect width="16" height="3.73333" transform="matrix(0 -1 -1 0 41.0669 16)" fill="#A9A9A9"/>
<rect width="16" height="3.73333" transform="matrix(0 -1 -1 0 26.1333 16)" fill="#656565"/>
<rect width="16" height="3.73333" transform="matrix(0 -1 -1 0 44.7998 16)" fill="#BABABA"/>
<rect width="16" height="3.73333" transform="matrix(0 -1 -1 0 48.5332 16)" fill="#CBCBCB"/>
<rect width="16" height="3.73333" transform="matrix(0 -1 -1 0 29.8667 16)" fill="#767676"/>
<rect width="16" height="3.73333" transform="matrix(0 -1 -1 0 52.2666 16)" fill="#DCDCDC"/>
<rect width="16" height="3.73333" transform="matrix(0 -1 -1 0 33.6001 16)" fill="#878787"/>
<rect width="16" height="3.73333" transform="matrix(0 -1 -1 0 56 16)" fill="#EDEDED"/>
<rect width="16" height="3.73333" transform="matrix(0 -1 -1 0 11.2002 16)" fill="#222222"/>
<rect width="16" height="3.73333" transform="matrix(0 -1 -1 0 7.4668 16)" fill="#111111"/>
<rect width="16" height="3.73333" transform="matrix(0 -1 -1 0 3.7334 16)" fill="black"/>
</svg>
