<svg width="56" height="16" viewBox="0 0 56 16" fill="none" xmlns="http://www.w3.org/2000/svg">
<rect width="16" height="5.6" transform="matrix(0 -1 -1 0 28 16)" fill="#E6F5D0"/>
<rect width="16" height="5.6" transform="matrix(0 -1 -1 0 5.59961 16)" fill="#276419"/>
<rect width="16" height="5.6" transform="matrix(0 -1 -1 0 33.6006 16)" fill="#FDE0EF"/>
<rect width="16" height="5.6" transform="matrix(0 -1 -1 0 11.2002 16)" fill="#4D9221"/>
<rect width="16" height="5.6" transform="matrix(0 -1 -1 0 39.2002 16)" fill="#F1B6DA"/>
<rect width="16" height="5.6" transform="matrix(0 -1 -1 0 44.7998 16)" fill="#DE77AE"/>
<rect width="16" height="5.6" transform="matrix(0 -1 -1 0 16.7998 16)" fill="#7FBC41"/>
<rect width="16" height="5.6" transform="matrix(0 -1 -1 0 50.4004 16)" fill="#C51B7D"/>
<rect width="16" height="5.6" transform="matrix(0 -1 -1 0 22.4004 16)" fill="#B8E186"/>
<rect width="16" height="5.6" transform="matrix(0 -1 -1 0 56 16)" fill="#8E0152"/>
</svg>
