<svg width="56" height="16" viewBox="0 0 56 16" fill="none" xmlns="http://www.w3.org/2000/svg">
<rect width="16" height="5.6" transform="matrix(0 -1 -1 0 28 16)" fill="#E0F3F8"/>
<rect width="16" height="5.6" transform="matrix(0 -1 -1 0 5.59961 16)" fill="#313695"/>
<rect width="16" height="5.6" transform="matrix(0 -1 -1 0 33.6006 16)" fill="#FEE090"/>
<rect width="16" height="5.6" transform="matrix(0 -1 -1 0 11.2002 16)" fill="#4575B4"/>
<rect width="16" height="5.6" transform="matrix(0 -1 -1 0 39.2002 16)" fill="#FDAE61"/>
<rect width="16" height="5.6" transform="matrix(0 -1 -1 0 44.7998 16)" fill="#F46D43"/>
<rect width="16" height="5.6" transform="matrix(0 -1 -1 0 16.7998 16)" fill="#74ADD1"/>
<rect width="16" height="5.6" transform="matrix(0 -1 -1 0 50.4004 16)" fill="#D73027"/>
<rect width="16" height="5.6" transform="matrix(0 -1 -1 0 22.4004 16)" fill="#ABD9E9"/>
<rect width="16" height="5.6" transform="matrix(0 -1 -1 0 56 16)" fill="#A50026"/>
</svg>
