<svg width="56" height="16" viewBox="0 0 56 16" fill="none" xmlns="http://www.w3.org/2000/svg">
<rect width="16" height="5.6" transform="matrix(0 -1 -1 0 28 16)" fill="#D9F0D3"/>
<rect width="16" height="5.6" transform="matrix(0 -1 -1 0 5.59961 16)" fill="#00441B"/>
<rect width="16" height="5.6" transform="matrix(0 -1 -1 0 33.6006 16)" fill="#E7D4E8"/>
<rect width="16" height="5.6" transform="matrix(0 -1 -1 0 11.2002 16)" fill="#1B7837"/>
<rect width="16" height="5.6" transform="matrix(0 -1 -1 0 39.2002 16)" fill="#C2A5CF"/>
<rect width="16" height="5.6" transform="matrix(0 -1 -1 0 44.7998 16)" fill="#9970AB"/>
<rect width="16" height="5.6" transform="matrix(0 -1 -1 0 16.7998 16)" fill="#5AAE61"/>
<rect width="16" height="5.6" transform="matrix(0 -1 -1 0 50.4004 16)" fill="#762A83"/>
<rect width="16" height="5.6" transform="matrix(0 -1 -1 0 22.4004 16)" fill="#A6DBA0"/>
<rect width="16" height="5.6" transform="matrix(0 -1 -1 0 56 16)" fill="#40004B"/>
</svg>
