<svg width="56" height="16" viewBox="0 0 56 16" fill="none" xmlns="http://www.w3.org/2000/svg">
<rect y="16" width="16" height="3.73333" transform="rotate(-90 0 16)" fill="#3F0750"/>
<rect x="14.9331" y="16" width="16" height="3.73333" transform="rotate(-90 14.9331 16)" fill="#34608D"/>
<rect x="29.8667" y="16" width="16" height="3.73333" transform="rotate(-90 29.8667 16)" fill="#21A187"/>
<rect x="3.7334" y="16" width="16" height="3.73333" transform="rotate(-90 3.7334 16)" fill="#482475"/>
<rect x="18.6665" y="16" width="16" height="3.73333" transform="rotate(-90 18.6665 16)" fill="#2C708E"/>
<rect x="33.6001" y="16" width="16" height="3.73333" transform="rotate(-90 33.6001 16)" fill="#2CB07D"/>
<rect x="44.7998" y="16" width="16" height="3.73333" transform="rotate(-90 44.7998 16)" fill="#94D73F"/>
<rect x="7.4668" y="16" width="16" height="3.73333" transform="rotate(-90 7.4668 16)" fill="#443882"/>
<rect x="22.3999" y="16" width="16" height="3.73333" transform="rotate(-90 22.3999 16)" fill="#287D8E"/>
<rect x="37.3335" y="16" width="16" height="3.73333" transform="rotate(-90 37.3335 16)" fill="#47C06E"/>
<rect x="48.5332" y="16" width="16" height="3.73333" transform="rotate(-90 48.5332 16)" fill="#D0E11A"/>
<rect x="11.1997" y="16" width="16" height="3.73333" transform="rotate(-90 11.1997 16)" fill="#3C4E89"/>
<rect x="26.1333" y="16" width="16" height="3.73333" transform="rotate(-90 26.1333 16)" fill="#23928C"/>
<rect x="41.0664" y="16" width="16" height="3.73333" transform="rotate(-90 41.0664 16)" fill="#69CC5B"/>
<rect x="52.2666" y="16" width="16" height="3.73333" transform="rotate(-90 52.2666 16)" fill="#FCE61E"/>
</svg>
