<svg width="707" height="597" viewBox="0 0 707 597" fill="none" xmlns="http://www.w3.org/2000/svg">
<path d="M655.5 17C655.5 20.5579 652.399 23.5 648.5 23.5C644.601 23.5 641.5 20.5579 641.5 17C641.5 13.4421 644.601 10.5 648.5 10.5C652.399 10.5 655.5 13.4421 655.5 17Z" stroke="#D5D1CE"/>
<path d="M429.5 288.5C429.5 292.399 426.558 295.5 423 295.5C419.442 295.5 416.5 292.399 416.5 288.5C416.5 284.601 419.442 281.5 423 281.5C426.558 281.5 429.5 284.601 429.5 288.5Z" stroke="#D5D1CE"/>
<path d="M672.5 17C672.5 20.6254 669.779 23.5 666.5 23.5C663.221 23.5 660.5 20.6254 660.5 17C660.5 13.3746 663.221 10.5 666.5 10.5C669.779 10.5 672.5 13.3746 672.5 17Z" stroke="#D5D1CE"/>
<path d="M447.5 288.5C447.5 292.399 444.558 295.5 441 295.5C437.442 295.5 434.5 292.399 434.5 288.5C434.5 284.601 437.442 281.5 441 281.5C444.558 281.5 447.5 284.601 447.5 288.5Z" stroke="#D5D1CE"/>
<circle cx="684" cy="17" r="6.5" stroke="#D5D1CE"/>
<path d="M464.5 288.5C464.5 292.436 461.749 295.5 458.5 295.5C455.251 295.5 452.5 292.436 452.5 288.5C452.5 284.564 455.251 281.5 458.5 281.5C461.749 281.5 464.5 284.564 464.5 288.5Z" stroke="#D5D1CE"/>
<path d="M619.5 412C619.5 415.558 616.399 418.5 612.5 418.5C608.601 418.5 605.5 415.558 605.5 412C605.5 408.442 608.601 405.5 612.5 405.5C616.399 405.5 619.5 408.442 619.5 412Z" stroke="#D5D1CE"/>
<path d="M636.5 412C636.5 415.625 633.779 418.5 630.5 418.5C627.221 418.5 624.5 415.625 624.5 412C624.5 408.375 627.221 405.5 630.5 405.5C633.779 405.5 636.5 408.375 636.5 412Z" stroke="#D5D1CE"/>
<circle cx="648" cy="412" r="6.5" stroke="#D5D1CE"/>
<circle cx="277" cy="112" r="6.5" stroke="#D5D1CE"/>
<path d="M300.5 112C300.5 115.625 297.779 118.5 294.5 118.5C291.221 118.5 288.5 115.625 288.5 112C288.5 108.375 291.221 105.5 294.5 105.5C297.779 105.5 300.5 108.375 300.5 112Z" stroke="#D5D1CE"/>
<path d="M318.5 112C318.5 115.625 315.779 118.5 312.5 118.5C309.221 118.5 306.5 115.625 306.5 112C306.5 108.375 309.221 105.5 312.5 105.5C315.779 105.5 318.5 108.375 318.5 112Z" stroke="#D5D1CE"/>
<rect x="-0.5" y="0.5" width="290" height="203" rx="7.5" transform="matrix(-1 0 0 1 668 393)" stroke="#D5D1CE"/>
<rect x="465.5" y="0.5" width="241" height="128" rx="7.5" stroke="#D5D1CE"/>
<rect x="196.5" y="269.5" width="284" height="207" rx="7.5" stroke="#D5D1CE"/>
<rect x="0.5" y="94.5" width="344" height="345" rx="7.5" stroke="#D5D1CE"/>
<path d="M465 306H196" stroke="#D5D1CE"/>
<path d="M319 129L0 129" stroke="#D5D1CE"/>
<path d="M697 33L465 33" stroke="#D5D1CE"/>
<path d="M655 430H379" stroke="#D5D1CE"/>
</svg>
