<svg width="29" height="29" viewBox="0 0 29 29" fill="none" xmlns="http://www.w3.org/2000/svg">
<path fill-rule="evenodd" clip-rule="evenodd" d="M10.3528 5.64785C8.79353 5.64785 7.52948 6.9119 7.52948 8.47118C7.52948 10.0305 8.79353 11.2945 10.3528 11.2945C11.9121 11.2945 13.1761 10.0305 13.1761 8.47118C13.1761 6.9119 11.9121 5.64785 10.3528 5.64785ZM5.64726 9.41229C5.67871 9.41229 5.7098 9.41075 5.74046 9.40773C6.17469 11.5578 8.0747 13.1767 10.3528 13.1767C12.6309 13.1767 14.5309 11.5578 14.9652 9.40773C14.9958 9.41074 15.0269 9.41229 15.0584 9.41229H25.4106C25.9304 9.41229 26.3517 8.99094 26.3517 8.47118C26.3517 7.95142 25.9304 7.53007 25.4106 7.53007H15.0584C15.0269 7.53007 14.9958 7.53162 14.9652 7.53463C14.5309 5.38452 12.6309 3.76562 10.3528 3.76562C8.0747 3.76562 6.17469 5.38452 5.74046 7.53463C5.7098 7.53161 5.67871 7.53007 5.64726 7.53007H2.82392C2.30416 7.53007 1.88281 7.95142 1.88281 8.47118C1.88281 8.99094 2.30416 9.41229 2.82392 9.41229H5.64726ZM22.494 20.7011C22.0598 22.8512 20.1598 24.4701 17.8817 24.4701C15.6036 24.4701 13.7036 22.8512 13.2694 20.7011C13.2387 20.7041 13.2076 20.7056 13.1761 20.7056H2.82392C2.30416 20.7056 1.88281 20.2843 1.88281 19.7645C1.88281 19.2448 2.30416 18.8234 2.82392 18.8234H13.1761C13.2076 18.8234 13.2387 18.8249 13.2694 18.828C13.7036 16.6778 15.6036 15.059 17.8817 15.059C20.1598 15.059 22.0598 16.6778 22.494 18.828C22.5247 18.8249 22.5558 18.8234 22.5873 18.8234H25.4106C25.9304 18.8234 26.3517 19.2448 26.3517 19.7645C26.3517 20.2843 25.9304 20.7056 25.4106 20.7056H22.5873C22.5558 20.7056 22.5247 20.7041 22.494 20.7011ZM15.0584 19.7645C15.0584 18.2052 16.3224 16.9412 17.8817 16.9412C19.441 16.9412 20.705 18.2052 20.705 19.7645C20.705 21.3238 19.441 22.5878 17.8817 22.5878C16.3224 22.5878 15.0584 21.3238 15.0584 19.7645Z" fill="#F2F2F2"/>
</svg>
