<svg width="28" height="28" viewBox="0 0 28 28" fill="none" xmlns="http://www.w3.org/2000/svg">
<path fill-rule="evenodd" clip-rule="evenodd" d="M18.4853 5.25C18.4133 5.52967 18.375 5.82286 18.375 6.125C18.375 6.42714 18.4133 6.72033 18.4853 7L9.51474 7C9.58672 6.72033 9.625 6.42714 9.625 6.125C9.625 5.82286 9.58672 5.52967 9.51474 5.25L18.4853 5.25ZM22.75 9.51474C22.4703 9.58672 22.1771 9.625 21.875 9.625C21.5729 9.625 21.2797 9.58672 21 9.51474L21 18.4853C21.2797 18.4133 21.5729 18.375 21.875 18.375C22.1771 18.375 22.4703 18.4133 22.75 18.4853L22.75 9.51474ZM5.25 18.4853L5.25 9.51474C5.52967 9.58672 5.82286 9.625 6.125 9.625C6.42714 9.625 6.72033 9.58672 7 9.51474L7 18.4853C6.72033 18.4133 6.42714 18.375 6.125 18.375C5.82286 18.375 5.52967 18.4133 5.25 18.4853ZM18.4853 21L9.51474 21C9.58672 21.2797 9.625 21.5729 9.625 21.875C9.625 22.1771 9.58672 22.4703 9.51474 22.75L18.4853 22.75C18.4133 22.4703 18.375 22.1771 18.375 21.875C18.375 21.5729 18.4133 21.2797 18.4853 21Z" fill="#F2F2F2"/>
<path fill-rule="evenodd" clip-rule="evenodd" d="M2.625 21.875C2.625 19.942 4.192 18.375 6.125 18.375C8.058 18.375 9.625 19.942 9.625 21.875C9.625 23.808 8.058 25.375 6.125 25.375C4.192 25.375 2.625 23.808 2.625 21.875Z" fill="#F2F2F2"/>
<path fill-rule="evenodd" clip-rule="evenodd" d="M18.375 21.875C18.375 19.942 19.942 18.375 21.875 18.375C23.808 18.375 25.375 19.942 25.375 21.875C25.375 23.808 23.808 25.375 21.875 25.375C19.942 25.375 18.375 23.808 18.375 21.875Z" fill="#F2F2F2"/>
<path fill-rule="evenodd" clip-rule="evenodd" d="M2.625 6.125C2.625 4.192 4.192 2.625 6.125 2.625C8.058 2.625 9.625 4.192 9.625 6.125C9.625 8.058 8.058 9.625 6.125 9.625C4.192 9.625 2.625 8.058 2.625 6.125Z" fill="#F2F2F2"/>
<path fill-rule="evenodd" clip-rule="evenodd" d="M18.375 6.125C18.375 4.192 19.942 2.625 21.875 2.625C23.808 2.625 25.375 4.192 25.375 6.125C25.375 8.058 23.808 9.625 21.875 9.625C19.942 9.625 18.375 8.058 18.375 6.125Z" fill="#F2F2F2"/>
</svg>
