<svg width="757" height="523" viewBox="0 0 757 523" fill="none" xmlns="http://www.w3.org/2000/svg">
<g filter="url(#filter0_d_1_6160)">
<rect x="345" y="87" width="91.5816" height="55.1459" rx="4" fill="#424241"/>
<rect x="345.5" y="87.5" width="90.5816" height="54.1459" rx="3.5" stroke="#FFFF8D"/>
</g>
<rect x="352.878" y="94.8799" width="14.7712" height="13.7865" rx="2" fill="#FFFF8D"/>
<rect x="352.878" y="110.634" width="18.7102" height="13.7865" rx="2" fill="#FFFF8D"/>
<rect x="373.558" y="110.634" width="22.6492" height="13.7865" rx="2" fill="#FFFF8D"/>
<rect x="369.619" y="94.8799" width="13.7865" height="13.7865" rx="2" fill="#FFFF8D"/>
<rect x="385.374" y="94.8799" width="22.6492" height="13.7865" rx="2" fill="#FFFF8D"/>
<path d="M358.175 104.843C359.305 104.843 360.001 104.154 360.036 103.044L358.947 102.851C358.933 103.603 358.65 103.961 358.195 103.961C357.644 103.961 357.41 103.465 357.41 102.589V101.941C357.41 101.066 357.644 100.597 358.195 100.597C358.643 100.597 358.926 100.963 358.947 101.707L360.036 101.535C359.988 100.294 359.271 99.7148 358.195 99.7148C356.906 99.7148 356.307 100.583 356.307 101.934V102.624C356.307 103.975 356.906 104.843 358.175 104.843Z" fill="#424241"/>
<path d="M364.104 104.726V103.954H363.015V99.7286H361.002V100.501H361.953V103.954H360.912V104.726H364.104Z" fill="#424241"/>
<path d="M358.04 120.603C359.17 120.603 359.867 119.914 359.901 118.804L358.812 118.611C358.798 119.362 358.516 119.721 358.061 119.721C357.509 119.721 357.275 119.225 357.275 118.349V117.701C357.275 116.826 357.509 116.357 358.061 116.357C358.509 116.357 358.791 116.722 358.812 117.467L359.901 117.294C359.853 116.054 359.136 115.475 358.061 115.475C356.772 115.475 356.172 116.343 356.172 117.694V118.384C356.172 119.735 356.772 120.603 358.04 120.603Z" fill="#424241"/>
<path d="M363.755 118.363C363.755 117.405 363.273 116.957 362.253 116.957C361.253 116.957 360.66 117.391 360.591 118.163H361.694C361.715 117.832 361.894 117.667 362.211 117.667C362.528 117.667 362.666 117.839 362.666 118.211V118.363L361.929 118.466C361.425 118.535 361.081 118.652 360.867 118.804C360.619 118.976 360.495 119.238 360.495 119.569C360.495 120.169 360.943 120.569 361.611 120.569C362.184 120.569 362.563 120.314 362.742 119.893C362.749 120.072 362.77 120.259 362.797 120.486H363.845C363.79 120.279 363.755 119.941 363.755 119.528V118.363ZM362.694 119.169C362.694 119.59 362.439 119.866 362.06 119.866C361.777 119.866 361.598 119.707 361.598 119.452C361.598 119.19 361.798 119.045 362.253 118.963L362.694 118.894V119.169Z" fill="#424241"/>
<path d="M366.438 115.592C365.259 115.592 364.549 116.322 364.549 118.094C364.549 119.859 365.259 120.589 366.438 120.589C367.616 120.589 368.326 119.859 368.326 118.094C368.326 116.322 367.616 115.592 366.438 115.592ZM366.438 116.398C366.713 116.398 366.92 116.515 367.051 116.819L365.672 118.687C365.659 118.515 365.645 118.315 365.645 118.094C365.652 116.798 365.921 116.398 366.438 116.398ZM366.438 119.783C366.134 119.783 365.921 119.645 365.79 119.273L367.189 117.384C367.216 117.584 367.23 117.818 367.23 118.094C367.223 119.376 366.955 119.783 366.438 119.783Z" fill="#424241"/>
<path d="M376.705 116.488H378.022V120.479H379.111V116.488H380.434V115.585H376.705V116.488Z" fill="#424241"/>
<path d="M383.441 116.584V115.495H382.227V116.584H383.441ZM384.516 120.479V119.707H383.427V117.032H381.428V117.804H382.365V119.707H381.324V120.479H384.516Z" fill="#424241"/>
<path d="M386.985 115.585C385.806 115.585 385.096 116.315 385.096 118.087C385.096 119.852 385.806 120.582 386.985 120.582C388.163 120.582 388.873 119.852 388.873 118.087C388.873 116.315 388.163 115.585 386.985 115.585ZM386.985 116.391C387.26 116.391 387.467 116.508 387.598 116.812L386.219 118.68C386.206 118.507 386.192 118.308 386.192 118.087C386.199 116.791 386.468 116.391 386.985 116.391ZM386.985 119.776C386.681 119.776 386.468 119.638 386.337 119.266L387.736 117.377C387.763 117.577 387.777 117.811 387.777 118.087C387.77 119.369 387.502 119.776 386.985 119.776Z" fill="#424241"/>
<path d="M392.865 120.479V119.597H390.783C391.273 119.266 391.652 118.956 392.01 118.604C392.541 118.073 392.776 117.604 392.776 117.039C392.776 116.109 392.197 115.585 391.128 115.585C390.101 115.585 389.439 116.171 389.439 117.06C389.439 117.143 389.446 117.218 389.467 117.329L390.563 117.446C390.542 117.336 390.528 117.212 390.528 117.108C390.528 116.701 390.742 116.46 391.107 116.46C391.459 116.46 391.666 116.681 391.666 117.081C391.666 117.508 391.487 117.853 391.045 118.294C390.542 118.79 389.922 119.314 389.419 119.666V120.479H392.865Z" fill="#424241"/>
<path d="M373.254 99.8311V104.725H375.15C376.39 104.725 376.797 103.988 376.797 103.34C376.797 102.692 376.425 102.264 375.791 102.168C376.425 102.016 376.687 101.589 376.687 101.134C376.687 100.555 376.356 99.8311 375.074 99.8311H373.254ZM374.888 100.617C375.439 100.617 375.57 100.941 375.57 101.244C375.57 101.527 375.474 101.871 374.888 101.871H374.336V100.617H374.888ZM374.991 102.575C375.474 102.575 375.68 102.857 375.68 103.236C375.68 103.595 375.501 103.939 374.97 103.939H374.336V102.575H374.991Z" fill="#424241"/>
<path d="M378.7 101.279H377.666V104.725H378.735V103.519C378.735 102.526 379.369 102.133 380.079 102.133C380.396 102.133 380.665 102.182 380.796 102.223V101.286C380.686 101.244 380.506 101.196 380.189 101.196C379.472 101.196 378.921 101.596 378.7 102.271V101.279Z" fill="#424241"/>
<path d="M389.847 99.8311H388.682V104.725H389.64V102.023C389.64 101.803 389.619 101.499 389.578 101.299H389.626C389.66 101.444 389.736 101.768 389.84 102.009L391.005 104.725H392.101V99.8311H391.143V102.375C391.143 102.602 391.163 102.974 391.205 103.202H391.163C391.122 103.016 391.032 102.712 390.929 102.45L389.847 99.8311Z" fill="#424241"/>
<path d="M396.12 102.602C396.12 101.644 395.638 101.196 394.618 101.196C393.618 101.196 393.025 101.63 392.956 102.402H394.059C394.08 102.071 394.259 101.906 394.576 101.906C394.893 101.906 395.031 102.078 395.031 102.45V102.602L394.294 102.706C393.79 102.774 393.446 102.892 393.232 103.043C392.984 103.216 392.86 103.478 392.86 103.808C392.86 104.408 393.308 104.808 393.976 104.808C394.549 104.808 394.928 104.553 395.107 104.132C395.114 104.312 395.135 104.498 395.162 104.725H396.21C396.155 104.518 396.12 104.181 396.12 103.767V102.602ZM395.059 103.409C395.059 103.829 394.804 104.105 394.425 104.105C394.142 104.105 393.963 103.946 393.963 103.691C393.963 103.429 394.163 103.285 394.618 103.202L395.059 103.133V103.409Z" fill="#424241"/>
<path d="M400.478 104.725V103.843H398.396C398.885 103.512 399.264 103.202 399.623 102.85C400.154 102.32 400.388 101.851 400.388 101.286C400.388 100.355 399.809 99.8311 398.74 99.8311C397.713 99.8311 397.052 100.417 397.052 101.306C397.052 101.389 397.059 101.465 397.079 101.575L398.175 101.692C398.155 101.582 398.141 101.458 398.141 101.354C398.141 100.948 398.354 100.706 398.72 100.706C399.071 100.706 399.278 100.927 399.278 101.327C399.278 101.754 399.099 102.099 398.658 102.54C398.155 103.036 397.534 103.56 397.031 103.912V104.725H400.478Z" fill="#424241"/>
<path d="M403.008 99.8311C401.829 99.8311 401.119 100.562 401.119 102.333C401.119 104.098 401.829 104.829 403.008 104.829C404.187 104.829 404.897 104.098 404.897 102.333C404.897 100.562 404.187 99.8311 403.008 99.8311ZM403.008 100.638C403.284 100.638 403.491 100.755 403.622 101.058L402.243 102.926C402.229 102.754 402.215 102.554 402.215 102.333C402.222 101.037 402.491 100.638 403.008 100.638ZM403.008 104.022C402.705 104.022 402.491 103.884 402.36 103.512L403.76 101.623C403.787 101.823 403.801 102.058 403.801 102.333C403.794 103.615 403.525 104.022 403.008 104.022Z" fill="#424241"/>
<path d="M491.844 130L181 281" stroke="#FFFF8D" stroke-dasharray="2 2"/>
<path d="M372 440L181 281" stroke="#FFFF8D" stroke-dasharray="2 2"/>
<path d="M691.32 26.7863C691.32 23.2773 688.476 20.4326 684.967 20.4326H546.32C542.811 20.4326 539.966 23.2772 539.966 26.7863V119.217H691.32V26.7863Z" fill="#424241"/>
<path fill-rule="evenodd" clip-rule="evenodd" d="M546.32 21.7033H684.967C687.774 21.7033 690.05 23.9791 690.05 26.7863V117.946H541.237V26.7863C541.237 23.9791 543.512 21.7033 546.32 21.7033ZM684.967 20.4326C688.476 20.4326 691.32 23.2773 691.32 26.7863V119.217H539.966V26.7863C539.966 23.2772 542.811 20.4326 546.32 20.4326H684.967Z" fill="#F2F2F2"/>
<path d="M521 123.081C521 126.59 523.845 129.435 527.354 129.435L705.403 129.435C708.912 129.435 711.756 126.59 711.756 123.081L711.756 115.809L521 115.809L521 123.081Z" fill="#424241"/>
<path fill-rule="evenodd" clip-rule="evenodd" d="M705.403 128.164L527.354 128.164C524.546 128.164 522.271 125.888 522.271 123.081L522.271 117.08L710.486 117.08L710.486 123.081C710.486 125.888 708.21 128.164 705.403 128.164ZM527.354 129.435C523.845 129.435 521 126.59 521 123.081L521 115.809L711.756 115.809L711.756 123.081C711.756 126.59 708.912 129.435 705.403 129.435L527.354 129.435Z" fill="#F2F2F2"/>
<path d="M756.037 77.882C756.037 74.3729 753.192 71.5283 749.683 71.5283H660.2C656.691 71.5283 653.846 74.373 653.846 77.882V129.437H756.037V77.882Z" fill="#555555"/>
<path fill-rule="evenodd" clip-rule="evenodd" d="M660.2 72.7991H749.683C752.491 72.7991 754.766 75.0748 754.766 77.882V128.166H655.117V77.882C655.117 75.0748 657.393 72.7991 660.2 72.7991ZM749.683 71.5283C753.192 71.5283 756.037 74.3729 756.037 77.882V129.437H653.846V77.882C653.846 74.373 656.691 71.5283 660.2 71.5283H749.683Z" fill="#F2F2F2"/>
<path d="M735.598 32.3605C735.598 50.2327 721.11 64.7209 703.237 64.7209C685.365 64.7209 670.877 50.2327 670.877 32.3605C670.877 14.4883 685.365 0 703.237 0C721.11 0 735.598 14.4883 735.598 32.3605Z" fill="#555555"/>
<path fill-rule="evenodd" clip-rule="evenodd" d="M703.237 63.4502C720.408 63.4502 734.327 49.5309 734.327 32.3605C734.327 15.1901 720.408 1.27073 703.237 1.27073C686.067 1.27073 672.148 15.1901 672.148 32.3605C672.148 49.5309 686.067 63.4502 703.237 63.4502ZM703.237 64.7209C721.11 64.7209 735.598 50.2327 735.598 32.3605C735.598 14.4883 721.11 0 703.237 0C685.365 0 670.877 14.4883 670.877 32.3605C670.877 50.2327 685.365 64.7209 703.237 64.7209Z" fill="#F2F2F2"/>
<path fill-rule="evenodd" clip-rule="evenodd" d="M630.002 120.491H602.751V117.949H630.002V120.491Z" fill="#F2F2F2"/>
<path d="M563.547 39.958V42.298H570.507C571.777 42.298 572.352 43.1111 572.352 44.0828C572.352 45.0149 571.816 45.9271 570.488 45.9271H565.669C564.201 45.9271 563.567 46.5418 563.567 48.049V53.3438H565.907V48.5051C565.907 48.2671 566.026 48.168 566.244 48.168H570.408C573.542 48.168 574.712 45.9866 574.712 43.9638C574.712 41.8221 573.423 39.958 570.408 39.958H563.547Z" fill="#F2F2F2"/>
<path d="M109.449 256.217C109.449 253.962 107.621 252.134 105.366 252.134H16.2702C14.0153 252.134 12.1873 253.962 12.1873 256.217V315.614H109.449V256.217Z" fill="#424241"/>
<path fill-rule="evenodd" clip-rule="evenodd" d="M16.2702 252.95H105.366C107.17 252.95 108.633 254.413 108.633 256.217V314.797H13.0039V256.217C13.0039 254.413 14.4663 252.95 16.2702 252.95ZM105.366 252.134C107.621 252.134 109.449 253.962 109.449 256.217V315.614H12.1873V256.217C12.1873 253.962 14.0153 252.134 16.2702 252.134H105.366Z" fill="#F2F2F2"/>
<path d="M3.56941e-07 318.099C1.59808e-07 320.354 1.82799 322.182 4.08293 322.182L118.499 322.182C120.754 322.182 122.582 320.354 122.582 318.099L122.582 313.426L7.65461e-07 313.426L3.56941e-07 318.099Z" fill="#424241"/>
<path fill-rule="evenodd" clip-rule="evenodd" d="M118.499 321.365L4.08293 321.365C2.27898 321.365 0.816586 319.903 0.816586 318.099L0.816586 314.242L121.766 314.242L121.766 318.099C121.766 319.903 120.303 321.365 118.499 321.365ZM4.08293 322.182C1.82799 322.182 1.59808e-07 320.354 3.56941e-07 318.099L7.65461e-07 313.426L122.582 313.426L122.582 318.099C122.582 320.354 120.754 322.182 118.499 322.182L4.08293 322.182Z" fill="#F2F2F2"/>
<path d="M151.036 289.048C151.036 286.793 149.208 284.965 146.953 284.965H89.4501C87.1951 284.965 85.3671 286.793 85.3671 289.048V322.177H151.036V289.048Z" fill="#555555"/>
<path fill-rule="evenodd" clip-rule="evenodd" d="M89.4501 285.781H146.953C148.757 285.781 150.22 287.244 150.22 289.048V321.361H86.1837V289.048C86.1837 287.244 87.6461 285.781 89.4501 285.781ZM146.953 284.965C149.208 284.965 151.036 286.793 151.036 289.048V322.177H85.3671V289.048C85.3671 286.793 87.1951 284.965 89.4501 284.965H146.953Z" fill="#F2F2F2"/>
<path d="M137.902 259.795C137.902 271.28 128.592 280.59 117.107 280.59C105.622 280.59 96.3115 271.28 96.3115 259.795C96.3115 248.31 105.622 239 117.107 239C128.592 239 137.902 248.31 137.902 259.795Z" fill="#555555"/>
<path fill-rule="evenodd" clip-rule="evenodd" d="M117.107 279.774C128.141 279.774 137.085 270.829 137.085 259.795C137.085 248.761 128.141 239.817 117.107 239.817C106.073 239.817 97.1281 248.761 97.1281 259.795C97.1281 270.829 106.073 279.774 117.107 279.774ZM117.107 280.59C128.592 280.59 137.902 271.28 137.902 259.795C137.902 248.31 128.592 239 117.107 239C105.622 239 96.3115 248.31 96.3115 259.795C96.3115 271.28 105.622 280.59 117.107 280.59Z" fill="#F2F2F2"/>
<path fill-rule="evenodd" clip-rule="evenodd" d="M70.0459 316.431H52.5342V314.798H70.0459V316.431Z" fill="#F2F2F2"/>
<path d="M27.3408 264.68V266.183H31.8138C32.6294 266.183 32.9989 266.706 32.9989 267.33C32.9989 267.929 32.6549 268.515 31.801 268.515H28.7044C27.7614 268.515 27.3536 268.911 27.3536 269.879V273.282H28.8573V270.172C28.8573 270.019 28.9338 269.955 29.0739 269.955H31.7501C33.7635 269.955 34.5154 268.554 34.5154 267.254C34.5154 265.878 33.6871 264.68 31.7501 264.68H27.3408Z" fill="#F2F2F2"/>
<path d="M512.137 443.627C512.137 440.926 509.947 438.735 507.245 438.735H400.495C397.793 438.735 395.603 440.926 395.603 443.627V514.794H512.137V443.627Z" fill="#424241"/>
<path fill-rule="evenodd" clip-rule="evenodd" d="M400.495 439.714H507.245C509.406 439.714 511.158 441.466 511.158 443.627V513.815H396.581V443.627C396.581 441.466 398.333 439.714 400.495 439.714ZM507.245 438.735C509.947 438.735 512.137 440.926 512.137 443.627V514.794H395.603V443.627C395.603 440.926 397.793 438.735 400.495 438.735H507.245Z" fill="#F2F2F2"/>
<path d="M381 517.766C381 520.468 383.19 522.658 385.892 522.658L522.979 522.658C525.681 522.658 527.871 520.468 527.871 517.766L527.871 512.167L381 512.167L381 517.766Z" fill="#424241"/>
<path fill-rule="evenodd" clip-rule="evenodd" d="M522.979 521.68L385.892 521.68C383.731 521.68 381.978 519.928 381.978 517.766L381.978 513.146L526.893 513.146L526.893 517.766C526.893 519.928 525.141 521.68 522.979 521.68ZM385.892 522.658C383.19 522.658 381 520.468 381 517.766L381 512.167L527.871 512.167L527.871 517.766C527.871 520.468 525.681 522.658 522.979 522.658L385.892 522.658Z" fill="#F2F2F2"/>
<path d="M561.963 482.959C561.963 480.258 559.773 478.067 557.071 478.067H488.174C485.472 478.067 483.282 480.258 483.282 482.959V522.653H561.963V482.959Z" fill="#555555"/>
<path fill-rule="evenodd" clip-rule="evenodd" d="M488.174 479.046H557.071C559.232 479.046 560.985 480.798 560.985 482.959V521.675H484.26V482.959C484.26 480.798 486.012 479.046 488.174 479.046ZM557.071 478.067C559.773 478.067 561.963 480.258 561.963 482.959V522.653H483.282V482.959C483.282 480.258 485.472 478.067 488.174 478.067H557.071Z" fill="#F2F2F2"/>
<path d="M546.227 447.916C546.227 461.676 535.072 472.831 521.311 472.831C507.551 472.831 496.396 461.676 496.396 447.916C496.396 434.155 507.551 423 521.311 423C535.072 423 546.227 434.155 546.227 447.916Z" fill="#555555"/>
<path fill-rule="evenodd" clip-rule="evenodd" d="M521.311 471.853C534.531 471.853 545.248 461.136 545.248 447.916C545.248 434.695 534.531 423.978 521.311 423.978C508.091 423.978 497.374 434.695 497.374 447.916C497.374 461.136 508.091 471.853 521.311 471.853ZM521.311 472.831C535.072 472.831 546.227 461.676 546.227 447.916C546.227 434.155 535.072 423 521.311 423C507.551 423 496.396 434.155 496.396 447.916C496.396 461.676 507.551 472.831 521.311 472.831Z" fill="#F2F2F2"/>
<path fill-rule="evenodd" clip-rule="evenodd" d="M464.925 515.771H443.943V513.814H464.925V515.771Z" fill="#F2F2F2"/>
<path d="M413.758 453.767V455.568H419.117C420.094 455.568 420.537 456.194 420.537 456.942C420.537 457.66 420.125 458.362 419.102 458.362H415.392C414.262 458.362 413.773 458.836 413.773 459.996V464.073H415.575V460.347C415.575 460.164 415.666 460.088 415.834 460.088H419.041C421.453 460.088 422.354 458.408 422.354 456.851C422.354 455.202 421.362 453.767 419.041 453.767H413.758Z" fill="#F2F2F2"/>
<circle cx="492" cy="130" r="4" fill="#FFFF8D"/>
<circle cx="181" cy="281" r="4" fill="#FFFF8D"/>
<circle cx="372" cy="440" r="4" fill="#FFFF8D"/>
<path d="M596.249 159.187C598.108 159.187 598.878 158.043 598.878 156.943C598.878 155.436 597.888 154.974 596.843 154.699L595.842 154.435C595.182 154.248 594.643 153.808 594.643 153.115C594.643 152.532 594.973 151.861 596.117 151.861C596.953 151.861 597.745 152.246 597.844 153.478L598.823 153.192C598.669 151.597 597.514 151.003 596.084 151.003C594.566 151.003 593.598 152.048 593.598 153.203C593.598 154.413 594.423 155.073 595.523 155.37L596.568 155.645C597.184 155.81 597.833 156.052 597.833 157.086C597.833 158.076 596.975 158.329 596.238 158.329C595.05 158.329 594.522 157.493 594.346 156.558L593.356 156.756C593.543 158.043 594.368 159.187 596.249 159.187ZM603.147 155.81C605.336 155.81 605.93 154.534 605.93 153.5C605.93 152.466 605.435 151.19 603.334 151.19H600.782V159H601.805V155.81H603.147ZM601.805 152.048H603.279C604.588 152.048 604.852 152.873 604.852 153.511C604.852 154.149 604.566 154.974 603.169 154.974H601.805V152.048ZM607.549 151.19V159H612.191V158.12H608.572V155.425H611.927V154.567H608.572V152.07H612.114V151.19H607.549ZM616.592 159.187C618.396 159.187 619.254 158.01 619.419 156.47L618.407 156.261C618.319 157.548 617.758 158.307 616.669 158.307C615.492 158.307 614.865 157.295 614.865 155.315V154.754C614.865 152.774 615.448 151.883 616.669 151.883C617.747 151.883 618.319 152.642 618.407 153.918L619.43 153.753C619.232 151.894 618.308 151.003 616.68 151.003C614.81 151.003 613.809 152.422 613.809 154.809V155.381C613.809 157.768 614.733 159.187 616.592 159.187ZM620.465 152.07H622.918V159H623.952V152.07H626.405V151.19H620.465V152.07ZM633.182 159L631.279 155.568C632.324 155.293 632.94 154.523 632.94 153.467C632.94 152.015 631.983 151.19 630.3 151.19H627.792V159H628.815V155.733H630.245L632.049 159H633.182ZM630.256 152.048C631.301 152.048 631.862 152.554 631.862 153.489C631.862 154.413 631.301 154.919 630.256 154.919H628.815V152.048H630.256ZM637.089 159.187C638.992 159.187 639.938 157.768 639.938 155.447V154.743C639.938 152.422 638.992 151.003 637.089 151.003C635.186 151.003 634.24 152.422 634.24 154.743V155.447C634.24 157.768 635.186 159.187 637.089 159.187ZM637.089 158.307C635.868 158.307 635.307 157.405 635.307 155.447V154.743C635.307 152.785 635.868 151.883 637.089 151.883C638.31 151.883 638.871 152.785 638.871 154.743V155.447C638.871 157.405 638.31 158.307 637.089 158.307ZM643.998 159.187C645.857 159.187 646.627 158.043 646.627 156.943C646.627 155.436 645.637 154.974 644.592 154.699L643.591 154.435C642.931 154.248 642.392 153.808 642.392 153.115C642.392 152.532 642.722 151.861 643.866 151.861C644.702 151.861 645.494 152.246 645.593 153.478L646.572 153.192C646.418 151.597 645.263 151.003 643.833 151.003C642.315 151.003 641.347 152.048 641.347 153.203C641.347 154.413 642.172 155.073 643.272 155.37L644.317 155.645C644.933 155.81 645.582 156.052 645.582 157.086C645.582 158.076 644.724 158.329 643.987 158.329C642.799 158.329 642.271 157.493 642.095 156.558L641.105 156.756C641.292 158.043 642.117 159.187 643.998 159.187ZM650.698 159.187C652.502 159.187 653.36 158.01 653.525 156.47L652.513 156.261C652.425 157.548 651.864 158.307 650.775 158.307C649.598 158.307 648.971 157.295 648.971 155.315V154.754C648.971 152.774 649.554 151.883 650.775 151.883C651.853 151.883 652.425 152.642 652.513 153.918L653.536 153.753C653.338 151.894 652.414 151.003 650.786 151.003C648.916 151.003 647.915 152.422 647.915 154.809V155.381C647.915 157.768 648.839 159.187 650.698 159.187ZM657.553 159.187C659.456 159.187 660.402 157.768 660.402 155.447V154.743C660.402 152.422 659.456 151.003 657.553 151.003C655.65 151.003 654.704 152.422 654.704 154.743V155.447C654.704 157.768 655.65 159.187 657.553 159.187ZM657.553 158.307C656.332 158.307 655.771 157.405 655.771 155.447V154.743C655.771 152.785 656.332 151.883 657.553 151.883C658.774 151.883 659.335 152.785 659.335 154.743V155.447C659.335 157.405 658.774 158.307 657.553 158.307ZM664.539 155.81C666.728 155.81 667.322 154.534 667.322 153.5C667.322 152.466 666.827 151.19 664.726 151.19H662.174V159H663.197V155.81H664.539ZM663.197 152.048H664.671C665.98 152.048 666.244 152.873 666.244 153.511C666.244 154.149 665.958 154.974 664.561 154.974H663.197V152.048ZM673.659 151.19H668.731V152.015H670.678V158.175H668.731V159H673.659V158.175H671.701V152.015H673.659V151.19ZM678.104 159.187C679.963 159.187 680.733 158.043 680.733 156.943C680.733 155.436 679.743 154.974 678.698 154.699L677.697 154.435C677.037 154.248 676.498 153.808 676.498 153.115C676.498 152.532 676.828 151.861 677.972 151.861C678.808 151.861 679.6 152.246 679.699 153.478L680.678 153.192C680.524 151.597 679.369 151.003 677.939 151.003C676.421 151.003 675.453 152.048 675.453 153.203C675.453 154.413 676.278 155.073 677.378 155.37L678.423 155.645C679.039 155.81 679.688 156.052 679.688 157.086C679.688 158.076 678.83 158.329 678.093 158.329C676.905 158.329 676.377 157.493 676.201 156.558L675.211 156.756C675.398 158.043 676.223 159.187 678.104 159.187ZM681.857 152.07H684.31V159H685.344V152.07H687.797V151.19H681.857V152.07Z" fill="#F2F2F2"/>
<path d="M39.5579 350.81C41.7469 350.81 42.3409 349.534 42.3409 348.5C42.3409 347.466 41.8459 346.19 39.7449 346.19H37.1929V354H38.2159V350.81H39.5579ZM38.2159 347.048H39.6899C40.9989 347.048 41.2629 347.873 41.2629 348.511C41.2629 349.149 40.9769 349.974 39.5799 349.974H38.2159V347.048ZM43.9592 346.19V354H48.6012V353.12H44.9822V350.425H48.3372V349.567H44.9822V347.07H48.5242V346.19H43.9592ZM50.0545 347.07H52.5075V354H53.5415V347.07H55.9945V346.19H50.0545V347.07ZM62.7718 354L60.8688 350.568C61.9138 350.293 62.5298 349.523 62.5298 348.467C62.5298 347.015 61.5728 346.19 59.8898 346.19H57.3818V354H58.4048V350.733H59.8348L61.6388 354H62.7718ZM59.8458 347.048C60.8908 347.048 61.4518 347.554 61.4518 348.489C61.4518 349.413 60.8908 349.919 59.8458 349.919H58.4048V347.048H59.8458ZM66.6781 354.187C68.5811 354.187 69.5271 352.768 69.5271 350.447V349.743C69.5271 347.422 68.5811 346.003 66.6781 346.003C64.7751 346.003 63.8291 347.422 63.8291 349.743V350.447C63.8291 352.768 64.7751 354.187 66.6781 354.187ZM66.6781 353.307C65.4571 353.307 64.8961 352.405 64.8961 350.447V349.743C64.8961 347.785 65.4571 346.883 66.6781 346.883C67.8991 346.883 68.4601 347.785 68.4601 349.743V350.447C68.4601 352.405 67.8991 353.307 66.6781 353.307ZM71.3544 354H76.1174V353.12H72.3774V346.19H71.3544V354ZM80.3206 354.187C82.2236 354.187 83.1696 352.768 83.1696 350.447V349.743C83.1696 347.422 82.2236 346.003 80.3206 346.003C78.4176 346.003 77.4716 347.422 77.4716 349.743V350.447C77.4716 352.768 78.4176 354.187 80.3206 354.187ZM80.3206 353.307C79.0996 353.307 78.5386 352.405 78.5386 350.447V349.743C78.5386 347.785 79.0996 346.883 80.3206 346.883C81.5416 346.883 82.1026 347.785 82.1026 349.743V350.447C82.1026 352.405 81.5416 353.307 80.3206 353.307ZM86.9769 354.187C88.0329 354.187 88.6049 353.637 88.9239 352.856L89.0779 354H89.7819V349.919H86.8889V350.744H88.8469V351.206C88.8469 351.866 88.5389 353.296 87.1309 353.296C85.8879 353.296 85.3929 352.141 85.3929 350.282V349.853C85.3929 347.565 86.0639 346.883 87.1309 346.883C88.2529 346.883 88.6159 347.851 88.6929 348.511L89.6939 348.368C89.5729 347.499 89.1109 346.003 87.1639 346.003C85.3379 346.003 84.3259 347.4 84.3259 349.677V350.447C84.3259 352.614 85.2169 354.187 86.9769 354.187ZM96.4272 346.19H91.4992V347.015H93.4462V353.175H91.4992V354H96.4272V353.175H94.4692V347.015H96.4272V346.19ZM100.873 354.187C102.732 354.187 103.502 353.043 103.502 351.943C103.502 350.436 102.512 349.974 101.467 349.699L100.466 349.435C99.8055 349.248 99.2665 348.808 99.2665 348.115C99.2665 347.532 99.5965 346.861 100.741 346.861C101.577 346.861 102.369 347.246 102.468 348.478L103.447 348.192C103.293 346.597 102.138 346.003 100.708 346.003C99.1895 346.003 98.2215 347.048 98.2215 348.203C98.2215 349.413 99.0465 350.073 100.147 350.37L101.192 350.645C101.808 350.81 102.457 351.052 102.457 352.086C102.457 353.076 101.599 353.329 100.862 353.329C99.6735 353.329 99.1455 352.493 98.9695 351.558L97.9795 351.756C98.1665 353.043 98.9915 354.187 100.873 354.187ZM104.625 347.07H107.078V354H108.112V347.07H110.565V346.19H104.625V347.07Z" fill="#F2F2F2"/>
<g filter="url(#filter1_d_1_6160)">
<rect x="403.092" y="115.156" width="66.7797" height="66.7797" rx="4" fill="#424241"/>
<rect x="403.592" y="115.656" width="65.7797" height="65.7797" rx="3.5" stroke="#FFFF8D"/>
</g>
<circle cx="417.401" cy="129.461" r="2.86199" fill="#FFFF8D"/>
<circle cx="417.401" cy="139.005" r="2.86199" fill="#FFFF8D"/>
<circle cx="417.401" cy="148.543" r="2.86199" fill="#FFFF8D"/>
<circle cx="417.401" cy="158.087" r="2.86199" fill="#FFFF8D"/>
<circle cx="417.401" cy="167.632" r="2.86199" fill="#FFFF8D"/>
<circle cx="426.941" cy="129.461" r="2.86199" fill="#FFFF8D"/>
<circle cx="426.941" cy="139.005" r="2.86199" fill="#FFFF8D"/>
<circle cx="426.941" cy="148.543" r="2.71199" stroke="#FFFF8D" stroke-width="0.3"/>
<circle cx="426.941" cy="158.087" r="2.86199" fill="#FFFF8D"/>
<circle cx="426.941" cy="167.632" r="2.86199" fill="#FFFF8D"/>
<circle cx="436.481" cy="129.461" r="2.86199" fill="#FFFF8D"/>
<circle cx="436.481" cy="139.005" r="2.86199" fill="#FFFF8D"/>
<circle cx="436.481" cy="148.543" r="2.86199" fill="#FFFF8D"/>
<circle cx="436.481" cy="158.087" r="2.86199" fill="#FFFF8D"/>
<circle cx="436.481" cy="167.632" r="2.86199" fill="#FFFF8D"/>
<circle cx="446.021" cy="129.461" r="2.66199" stroke="#FFFF8D" stroke-width="0.4"/>
<circle cx="446.021" cy="139.005" r="2.86199" fill="#FFFF8D"/>
<circle cx="446.021" cy="148.543" r="2.86199" fill="#FFFF8D"/>
<circle cx="446.021" cy="158.087" r="2.71199" stroke="#FFFF8D" stroke-width="0.3"/>
<circle cx="446.021" cy="167.632" r="2.66199" stroke="#FFFF8D" stroke-width="0.4"/>
<circle cx="455.561" cy="129.461" r="2.66199" stroke="#FFFF8D" stroke-width="0.4"/>
<circle cx="455.561" cy="139.005" r="2.71199" stroke="#FFFF8D" stroke-width="0.3"/>
<circle cx="455.561" cy="148.543" r="2.71199" stroke="#FFFF8D" stroke-width="0.3"/>
<circle cx="455.561" cy="158.087" r="2.86199" fill="#FFFF8D"/>
<circle cx="455.561" cy="167.632" r="2.86199" fill="#FFFF8D"/>
<g filter="url(#filter2_d_1_6160)">
<rect x="298" y="378" width="31" height="31" rx="4" fill="#424241"/>
<rect x="298.5" y="378.5" width="30" height="30" rx="3.5" stroke="#FFFF8D"/>
</g>
<path fill-rule="evenodd" clip-rule="evenodd" d="M316.621 387.402C316.751 387.077 316.593 386.709 316.268 386.579C315.944 386.449 315.575 386.607 315.445 386.931L310.379 399.598C310.249 399.923 310.407 400.292 310.731 400.421C311.056 400.551 311.425 400.393 311.555 400.069L316.621 387.402ZM308.881 390.519C309.128 390.766 309.128 391.167 308.881 391.415L306.796 393.5L308.881 395.586C309.128 395.833 309.128 396.234 308.881 396.481C308.634 396.729 308.233 396.729 307.985 396.481L305.452 393.948C305.205 393.701 305.205 393.3 305.452 393.052L307.985 390.519C308.233 390.272 308.634 390.272 308.881 390.519ZM318.119 390.519C318.366 390.272 318.767 390.272 319.014 390.519L321.548 393.052C321.795 393.3 321.795 393.701 321.548 393.948L319.014 396.481C318.767 396.729 318.366 396.729 318.119 396.481C317.871 396.234 317.871 395.833 318.119 395.586L320.204 393.5L318.119 391.415C317.871 391.167 317.871 390.766 318.119 390.519Z" fill="#FFFF8D"/>
<g filter="url(#filter3_d_1_6160)">
<rect x="318" y="389" width="35" height="35" rx="4" fill="#424241"/>
<rect x="318.5" y="389.5" width="34" height="34" rx="3.5" stroke="#FFFF8D"/>
</g>
<path fill-rule="evenodd" clip-rule="evenodd" d="M338.95 399.76C339.094 399.401 338.919 398.994 338.56 398.85C338.201 398.706 337.794 398.881 337.65 399.24L332.05 413.24C331.907 413.599 332.081 414.006 332.44 414.15C332.799 414.293 333.207 414.119 333.35 413.76L338.95 399.76ZM330.395 403.205C330.669 403.478 330.669 403.922 330.395 404.195L328.09 406.5L330.395 408.805C330.669 409.078 330.669 409.522 330.395 409.795C330.122 410.068 329.679 410.068 329.405 409.795L326.605 406.995C326.332 406.722 326.332 406.278 326.605 406.005L329.405 403.205C329.679 402.932 330.122 402.932 330.395 403.205ZM340.605 403.205C340.879 402.932 341.322 402.932 341.595 403.205L344.395 406.005C344.669 406.278 344.669 406.722 344.395 406.995L341.595 409.795C341.322 410.068 340.879 410.068 340.605 409.795C340.332 409.522 340.332 409.078 340.605 408.805L342.91 406.5L340.605 404.195C340.332 403.922 340.332 403.478 340.605 403.205Z" fill="#FFFF8D"/>
<defs>
<filter id="filter0_d_1_6160" x="326" y="78" width="129.582" height="93.1455" filterUnits="userSpaceOnUse" color-interpolation-filters="sRGB">
<feFlood flood-opacity="0" result="BackgroundImageFix"/>
<feColorMatrix in="SourceAlpha" type="matrix" values="0 0 0 0 0 0 0 0 0 0 0 0 0 0 0 0 0 0 127 0" result="hardAlpha"/>
<feOffset dy="10"/>
<feGaussianBlur stdDeviation="9.5"/>
<feComposite in2="hardAlpha" operator="out"/>
<feColorMatrix type="matrix" values="0 0 0 0 0 0 0 0 0 0 0 0 0 0 0 0 0 0 0.2 0"/>
<feBlend mode="normal" in2="BackgroundImageFix" result="effect1_dropShadow_1_6160"/>
<feBlend mode="normal" in="SourceGraphic" in2="effect1_dropShadow_1_6160" result="shape"/>
</filter>
<filter id="filter1_d_1_6160" x="384.092" y="106.156" width="104.779" height="104.779" filterUnits="userSpaceOnUse" color-interpolation-filters="sRGB">
<feFlood flood-opacity="0" result="BackgroundImageFix"/>
<feColorMatrix in="SourceAlpha" type="matrix" values="0 0 0 0 0 0 0 0 0 0 0 0 0 0 0 0 0 0 127 0" result="hardAlpha"/>
<feOffset dy="10"/>
<feGaussianBlur stdDeviation="9.5"/>
<feComposite in2="hardAlpha" operator="out"/>
<feColorMatrix type="matrix" values="0 0 0 0 0 0 0 0 0 0 0 0 0 0 0 0 0 0 0.2 0"/>
<feBlend mode="normal" in2="BackgroundImageFix" result="effect1_dropShadow_1_6160"/>
<feBlend mode="normal" in="SourceGraphic" in2="effect1_dropShadow_1_6160" result="shape"/>
</filter>
<filter id="filter2_d_1_6160" x="279" y="369" width="69" height="69" filterUnits="userSpaceOnUse" color-interpolation-filters="sRGB">
<feFlood flood-opacity="0" result="BackgroundImageFix"/>
<feColorMatrix in="SourceAlpha" type="matrix" values="0 0 0 0 0 0 0 0 0 0 0 0 0 0 0 0 0 0 127 0" result="hardAlpha"/>
<feOffset dy="10"/>
<feGaussianBlur stdDeviation="9.5"/>
<feComposite in2="hardAlpha" operator="out"/>
<feColorMatrix type="matrix" values="0 0 0 0 0 0 0 0 0 0 0 0 0 0 0 0 0 0 0.2 0"/>
<feBlend mode="normal" in2="BackgroundImageFix" result="effect1_dropShadow_1_6160"/>
<feBlend mode="normal" in="SourceGraphic" in2="effect1_dropShadow_1_6160" result="shape"/>
</filter>
<filter id="filter3_d_1_6160" x="299" y="380" width="73" height="73" filterUnits="userSpaceOnUse" color-interpolation-filters="sRGB">
<feFlood flood-opacity="0" result="BackgroundImageFix"/>
<feColorMatrix in="SourceAlpha" type="matrix" values="0 0 0 0 0 0 0 0 0 0 0 0 0 0 0 0 0 0 127 0" result="hardAlpha"/>
<feOffset dy="10"/>
<feGaussianBlur stdDeviation="9.5"/>
<feComposite in2="hardAlpha" operator="out"/>
<feColorMatrix type="matrix" values="0 0 0 0 0 0 0 0 0 0 0 0 0 0 0 0 0 0 0.2 0"/>
<feBlend mode="normal" in2="BackgroundImageFix" result="effect1_dropShadow_1_6160"/>
<feBlend mode="normal" in="SourceGraphic" in2="effect1_dropShadow_1_6160" result="shape"/>
</filter>
</defs>
</svg>
