<svg width="16" height="16" viewBox="0 0 16 16" fill="none" xmlns="http://www.w3.org/2000/svg">
    <path
        d="M6.33333 2L2.66667 2C2.29848 2 2 2.29848 2 2.66667L2 6.33333C2 6.70152 2.29848 7 2.66667 7L6.33333 7C6.70152 7 7 6.70152 7 6.33333L7 2.66667C7 2.29848 6.70152 2 6.33333 2Z"
        fill="#BCBCBC" />
    <path
        d="M13.3333 2L9.66667 2C9.29848 2 9 2.29848 9 2.66667L9 6.33333C9 6.70152 9.29848 7 9.66667 7L13.3333 7C13.7015 7 14 6.70152 14 6.33333V2.66667C14 2.29848 13.7015 2 13.3333 2Z"
        fill="#BCBCBC" />
    <path
        d="M13.3333 9L9.66667 9C9.29848 9 9 9.29848 9 9.66667L9 13.3333C9 13.7015 9.29848 14 9.66667 14H13.3333C13.7015 14 14 13.7015 14 13.3333V9.66667C14 9.29848 13.7015 9 13.3333 9Z"
        fill="#BCBCBC" />
    <path
        d="M6.33333 9L2.66667 9C2.29848 9 2 9.29848 2 9.66667L2 13.3333C2 13.7015 2.29848 14 2.66667 14H6.33333C6.70152 14 7 13.7015 7 13.3333L7 9.66667C7 9.29848 6.70152 9 6.33333 9Z"
        fill="#BCBCBC" />
</svg>