<svg width="16" height="16" viewBox="0 0 16 16" fill="none" xmlns="http://www.w3.org/2000/svg">
    <path
        d="M5.74869 13.332C5.30069 13.332 4.90469 13.244 4.56069 13.068C4.22469 12.892 3.96869 12.644 3.79269 12.324C3.61669 12.012 3.54069 11.636 3.56469 11.196L3.68469 9.372C3.70869 9.044 3.64069 8.796 3.48069 8.628C3.32869 8.46 3.06869 8.376 2.70069 8.376H1.27269V6.996H2.70069C3.06869 6.996 3.32869 6.912 3.48069 6.744C3.64069 6.576 3.70869 6.332 3.68469 6.012L3.56469 4.128C3.54069 3.696 3.61669 3.324 3.79269 3.012C3.96869 2.7 4.22469 2.46 4.56069 2.292C4.90469 2.124 5.30069 2.04 5.74869 2.04H6.57669V3.42H5.96469C5.67669 3.42 5.44869 3.488 5.28069 3.624C5.12069 3.76 5.04869 3.976 5.06469 4.272L5.18469 6.144C5.21669 6.616 5.07669 6.996 4.76469 7.284C4.45269 7.572 4.01669 7.716 3.45669 7.716V7.632C4.00869 7.632 4.44069 7.78 4.75269 8.076C5.07269 8.364 5.21669 8.748 5.18469 9.228L5.06469 11.1C5.05669 11.364 5.13269 11.572 5.29269 11.724C5.46069 11.868 5.68469 11.94 5.96469 11.94H6.57669V13.332H5.74869ZM9.428 13.332V11.94H10.04C10.32 11.94 10.544 11.868 10.712 11.724C10.88 11.572 10.956 11.364 10.94 11.1L10.82 9.228C10.788 8.748 10.928 8.364 11.24 8.076C11.56 7.78 11.996 7.632 12.548 7.632V7.716C11.996 7.716 11.56 7.572 11.24 7.284C10.928 6.996 10.788 6.616 10.82 6.144L10.94 4.272C10.956 3.976 10.88 3.76 10.712 3.624C10.552 3.488 10.328 3.42 10.04 3.42H9.428V2.04H10.256C10.704 2.04 11.096 2.124 11.432 2.292C11.776 2.46 12.036 2.7 12.212 3.012C12.388 3.324 12.464 3.696 12.44 4.128L12.32 6.012C12.296 6.332 12.364 6.576 12.524 6.744C12.684 6.912 12.944 6.996 13.304 6.996H14.732V8.376H13.304C12.944 8.376 12.684 8.46 12.524 8.628C12.364 8.796 12.296 9.044 12.32 9.372L12.44 11.196C12.464 11.636 12.388 12.012 12.212 12.324C12.036 12.644 11.776 12.892 11.432 13.068C11.096 13.244 10.704 13.332 10.256 13.332H9.428Z"
        fill="#BCBCBC" />
</svg>