<svg width="432" height="105" viewBox="0 0 432 105" fill="none" xmlns="http://www.w3.org/2000/svg">
<path d="M356.477 7.8418C356.354 8.89453 355.964 9.70801 355.308 10.2822C354.656 10.8519 353.788 11.1367 352.703 11.1367C351.527 11.1367 350.584 10.7152 349.873 9.87207C349.167 9.02897 348.813 7.90104 348.813 6.48828V5.53125C348.813 4.60612 348.978 3.79264 349.306 3.09082C349.638 2.389 350.108 1.85124 350.714 1.47754C351.32 1.09928 352.022 0.910156 352.819 0.910156C353.877 0.910156 354.724 1.20638 355.362 1.79883C356 2.38672 356.372 3.20247 356.477 4.24609H355.157C355.043 3.45312 354.795 2.87891 354.412 2.52344C354.034 2.16797 353.503 1.99023 352.819 1.99023C351.981 1.99023 351.322 2.30013 350.844 2.91992C350.37 3.53971 350.133 4.42155 350.133 5.56543V6.5293C350.133 7.60938 350.358 8.46842 350.81 9.10645C351.261 9.74447 351.892 10.0635 352.703 10.0635C353.432 10.0635 353.991 9.89941 354.378 9.57129C354.77 9.23861 355.03 8.66211 355.157 7.8418H356.477ZM357.741 7.2334C357.741 6.50879 357.882 5.8571 358.165 5.27832C358.452 4.69954 358.849 4.25293 359.354 3.93848C359.865 3.62402 360.446 3.4668 361.098 3.4668C362.105 3.4668 362.918 3.81543 363.538 4.5127C364.162 5.20996 364.475 6.13737 364.475 7.29492V7.38379C364.475 8.10384 364.336 8.75098 364.058 9.3252C363.784 9.89486 363.39 10.3392 362.875 10.6582C362.365 10.9772 361.777 11.1367 361.111 11.1367C360.109 11.1367 359.295 10.7881 358.671 10.0908C358.051 9.39355 357.741 8.4707 357.741 7.32227V7.2334ZM359.013 7.38379C359.013 8.2041 359.202 8.86263 359.58 9.35938C359.963 9.85612 360.473 10.1045 361.111 10.1045C361.754 10.1045 362.264 9.85384 362.643 9.35254C363.021 8.84668 363.21 8.1403 363.21 7.2334C363.21 6.4222 363.016 5.76595 362.629 5.26465C362.246 4.75879 361.736 4.50586 361.098 4.50586C360.473 4.50586 359.97 4.75423 359.587 5.25098C359.204 5.74772 359.013 6.45866 359.013 7.38379ZM369.636 4.73828C369.444 4.70638 369.237 4.69043 369.014 4.69043C368.184 4.69043 367.621 5.04362 367.325 5.75V11H366.061V3.60352H367.291L367.312 4.45801C367.726 3.7972 368.314 3.4668 369.075 3.4668C369.321 3.4668 369.508 3.4987 369.636 3.5625V4.73828ZM374.38 4.73828C374.188 4.70638 373.981 4.69043 373.758 4.69043C372.928 4.69043 372.366 5.04362 372.069 5.75V11H370.805V3.60352H372.035L372.056 4.45801C372.47 3.7972 373.058 3.4668 373.819 3.4668C374.065 3.4668 374.252 3.4987 374.38 3.5625V4.73828ZM378.481 11.1367C377.479 11.1367 376.663 10.8086 376.034 10.1523C375.405 9.49154 375.091 8.6097 375.091 7.50684V7.27441C375.091 6.54069 375.23 5.88672 375.508 5.3125C375.79 4.73372 376.182 4.28255 376.684 3.95898C377.189 3.63086 377.736 3.4668 378.324 3.4668C379.286 3.4668 380.033 3.78353 380.566 4.41699C381.1 5.05046 381.366 5.95736 381.366 7.1377V7.66406H376.355C376.374 8.39323 376.586 8.9834 376.991 9.43457C377.401 9.88118 377.921 10.1045 378.55 10.1045C378.996 10.1045 379.375 10.0133 379.685 9.83105C379.994 9.64876 380.266 9.40723 380.498 9.10645L381.271 9.70801C380.651 10.6605 379.721 11.1367 378.481 11.1367ZM378.324 4.50586C377.814 4.50586 377.385 4.69271 377.039 5.06641C376.693 5.43555 376.479 5.95508 376.396 6.625H380.102V6.5293C380.065 5.88672 379.892 5.38997 379.582 5.03906C379.272 4.68359 378.853 4.50586 378.324 4.50586ZM384.21 11H382.945V0.5H384.21V11ZM390.807 11C390.734 10.8542 390.674 10.5944 390.629 10.2207C390.041 10.8314 389.339 11.1367 388.523 11.1367C387.794 11.1367 387.195 10.9316 386.726 10.5215C386.261 10.1068 386.028 9.58268 386.028 8.94922C386.028 8.17904 386.32 7.58203 386.903 7.1582C387.491 6.72982 388.316 6.51562 389.378 6.51562H390.608V5.93457C390.608 5.49251 390.476 5.1416 390.212 4.88184C389.948 4.61751 389.558 4.48535 389.043 4.48535C388.592 4.48535 388.214 4.59928 387.908 4.82715C387.603 5.05501 387.45 5.33073 387.45 5.6543H386.179C386.179 5.28516 386.309 4.92969 386.568 4.58789C386.833 4.24154 387.188 3.9681 387.635 3.76758C388.086 3.56706 388.58 3.4668 389.118 3.4668C389.97 3.4668 390.638 3.68099 391.121 4.10938C391.604 4.5332 391.855 5.11882 391.873 5.86621V9.27051C391.873 9.94954 391.96 10.4896 392.133 10.8906V11H390.807ZM388.708 10.0361C389.104 10.0361 389.48 9.93359 389.836 9.72852C390.191 9.52344 390.449 9.25684 390.608 8.92871V7.41113H389.617C388.068 7.41113 387.293 7.86458 387.293 8.77148C387.293 9.16797 387.425 9.47786 387.689 9.70117C387.954 9.92448 388.293 10.0361 388.708 10.0361ZM395.571 1.8125V3.60352H396.952V4.58105H395.571V9.16797C395.571 9.46419 395.633 9.6875 395.756 9.83789C395.879 9.98372 396.089 10.0566 396.385 10.0566C396.531 10.0566 396.731 10.0293 396.986 9.97461V11C396.654 11.0911 396.33 11.1367 396.016 11.1367C395.451 11.1367 395.024 10.9658 394.737 10.624C394.45 10.2822 394.307 9.79688 394.307 9.16797V4.58105H392.96V3.60352H394.307V1.8125H395.571ZM399.81 11H398.545V3.60352H399.81V11ZM398.442 1.6416C398.442 1.43652 398.504 1.26335 398.627 1.12207C398.755 0.980794 398.941 0.910156 399.188 0.910156C399.434 0.910156 399.62 0.980794 399.748 1.12207C399.876 1.26335 399.939 1.43652 399.939 1.6416C399.939 1.84668 399.876 2.01758 399.748 2.1543C399.62 2.29102 399.434 2.35938 399.188 2.35938C398.941 2.35938 398.755 2.29102 398.627 2.1543C398.504 2.01758 398.442 1.84668 398.442 1.6416ZM401.505 7.2334C401.505 6.50879 401.646 5.8571 401.929 5.27832C402.216 4.69954 402.612 4.25293 403.118 3.93848C403.629 3.62402 404.21 3.4668 404.861 3.4668C405.868 3.4668 406.682 3.81543 407.302 4.5127C407.926 5.20996 408.238 6.13737 408.238 7.29492V7.38379C408.238 8.10384 408.099 8.75098 407.821 9.3252C407.548 9.89486 407.154 10.3392 406.639 10.6582C406.128 10.9772 405.54 11.1367 404.875 11.1367C403.872 11.1367 403.059 10.7881 402.435 10.0908C401.815 9.39355 401.505 8.4707 401.505 7.32227V7.2334ZM402.776 7.38379C402.776 8.2041 402.965 8.86263 403.344 9.35938C403.727 9.85612 404.237 10.1045 404.875 10.1045C405.518 10.1045 406.028 9.85384 406.406 9.35254C406.785 8.84668 406.974 8.1403 406.974 7.2334C406.974 6.4222 406.78 5.76595 406.393 5.26465C406.01 4.75879 405.499 4.50586 404.861 4.50586C404.237 4.50586 403.733 4.75423 403.351 5.25098C402.968 5.74772 402.776 6.45866 402.776 7.38379ZM411.021 3.60352L411.062 4.5332C411.627 3.82227 412.365 3.4668 413.276 3.4668C414.84 3.4668 415.628 4.34863 415.642 6.1123V11H414.377V6.10547C414.372 5.57227 414.249 5.17806 414.008 4.92285C413.771 4.66764 413.399 4.54004 412.894 4.54004C412.483 4.54004 412.123 4.64941 411.813 4.86816C411.504 5.08691 411.262 5.37402 411.089 5.72949V11H409.824V3.60352H411.021Z" fill="#BEC0C2"/>
<path d="M235.263 6.39941H230.949V9.92676H235.96V11H229.637V1.04688H235.892V2.12695H230.949V5.32617H235.263V6.39941ZM240.971 4.73828C240.779 4.70638 240.572 4.69043 240.349 4.69043C239.519 4.69043 238.956 5.04362 238.66 5.75V11H237.396V3.60352H238.626L238.646 4.45801C239.061 3.7972 239.649 3.4668 240.41 3.4668C240.656 3.4668 240.843 3.4987 240.971 3.5625V4.73828ZM245.715 4.73828C245.523 4.70638 245.316 4.69043 245.093 4.69043C244.263 4.69043 243.701 5.04362 243.404 5.75V11H242.14V3.60352H243.37L243.391 4.45801C243.805 3.7972 244.393 3.4668 245.154 3.4668C245.4 3.4668 245.587 3.4987 245.715 3.5625V4.73828ZM246.412 7.2334C246.412 6.50879 246.553 5.8571 246.836 5.27832C247.123 4.69954 247.52 4.25293 248.025 3.93848C248.536 3.62402 249.117 3.4668 249.769 3.4668C250.776 3.4668 251.589 3.81543 252.209 4.5127C252.833 5.20996 253.146 6.13737 253.146 7.29492V7.38379C253.146 8.10384 253.007 8.75098 252.729 9.3252C252.455 9.89486 252.061 10.3392 251.546 10.6582C251.035 10.9772 250.448 11.1367 249.782 11.1367C248.78 11.1367 247.966 10.7881 247.342 10.0908C246.722 9.39355 246.412 8.4707 246.412 7.32227V7.2334ZM247.684 7.38379C247.684 8.2041 247.873 8.86263 248.251 9.35938C248.634 9.85612 249.144 10.1045 249.782 10.1045C250.425 10.1045 250.935 9.85384 251.313 9.35254C251.692 8.84668 251.881 8.1403 251.881 7.2334C251.881 6.4222 251.687 5.76595 251.3 5.26465C250.917 4.75879 250.407 4.50586 249.769 4.50586C249.144 4.50586 248.641 4.75423 248.258 5.25098C247.875 5.74772 247.684 6.45866 247.684 7.38379ZM258.307 4.73828C258.115 4.70638 257.908 4.69043 257.685 4.69043C256.855 4.69043 256.292 5.04362 255.996 5.75V11H254.731V3.60352H255.962L255.982 4.45801C256.397 3.7972 256.985 3.4668 257.746 3.4668C257.992 3.4668 258.179 3.4987 258.307 3.5625V4.73828Z" fill="#BEC0C2"/>
<path d="M31.5586 7.8623L31.75 9.1748L32.0303 7.99219L33.999 1.04688H35.1064L37.0273 7.99219L37.3008 9.19531L37.5127 7.85547L39.0576 1.04688H40.377L37.9639 11H36.7676L34.7168 3.74707L34.5596 2.98828L34.4023 3.74707L32.2764 11H31.0801L28.6738 1.04688H29.9863L31.5586 7.8623ZM44.4922 11.1367C43.4896 11.1367 42.6738 10.8086 42.0449 10.1523C41.416 9.49154 41.1016 8.6097 41.1016 7.50684V7.27441C41.1016 6.54069 41.2406 5.88672 41.5186 5.3125C41.8011 4.73372 42.193 4.28255 42.6943 3.95898C43.2002 3.63086 43.7471 3.4668 44.335 3.4668C45.2965 3.4668 46.0439 3.78353 46.5771 4.41699C47.1104 5.05046 47.377 5.95736 47.377 7.1377V7.66406H42.3662C42.3844 8.39323 42.5964 8.9834 43.002 9.43457C43.4121 9.88118 43.9316 10.1045 44.5605 10.1045C45.0072 10.1045 45.3854 10.0133 45.6953 9.83105C46.0052 9.64876 46.2764 9.40723 46.5088 9.10645L47.2812 9.70801C46.6615 10.6605 45.7318 11.1367 44.4922 11.1367ZM44.335 4.50586C43.8245 4.50586 43.3962 4.69271 43.0498 5.06641C42.7035 5.43555 42.4893 5.95508 42.4072 6.625H46.1123V6.5293C46.0758 5.88672 45.9027 5.38997 45.5928 5.03906C45.2829 4.68359 44.8636 4.50586 44.335 4.50586ZM50.2207 11H48.9561V3.60352H50.2207V11ZM48.8535 1.6416C48.8535 1.43652 48.915 1.26335 49.0381 1.12207C49.1657 0.980794 49.3525 0.910156 49.5986 0.910156C49.8447 0.910156 50.0316 0.980794 50.1592 1.12207C50.2868 1.26335 50.3506 1.43652 50.3506 1.6416C50.3506 1.84668 50.2868 2.01758 50.1592 2.1543C50.0316 2.29102 49.8447 2.35938 49.5986 2.35938C49.3525 2.35938 49.1657 2.29102 49.0381 2.1543C48.915 2.01758 48.8535 1.84668 48.8535 1.6416ZM51.9502 7.24023C51.9502 6.08724 52.2168 5.17122 52.75 4.49219C53.2832 3.80859 53.9896 3.4668 54.8691 3.4668C55.7715 3.4668 56.4756 3.78581 56.9814 4.42383L57.043 3.60352H58.1982V10.8223C58.1982 11.7793 57.9134 12.5335 57.3438 13.085C56.7786 13.6364 56.0176 13.9121 55.0605 13.9121C54.5273 13.9121 54.0055 13.7982 53.4951 13.5703C52.9847 13.3424 52.5951 13.0303 52.3262 12.6338L52.9824 11.875C53.5247 12.5449 54.1878 12.8799 54.9717 12.8799C55.5869 12.8799 56.0654 12.7067 56.4072 12.3604C56.7536 12.014 56.9268 11.5264 56.9268 10.8975V10.2617C56.4209 10.8451 55.7305 11.1367 54.8555 11.1367C53.9896 11.1367 53.2878 10.7881 52.75 10.0908C52.2168 9.39355 51.9502 8.44336 51.9502 7.24023ZM53.2217 7.38379C53.2217 8.21777 53.3926 8.87402 53.7344 9.35254C54.0762 9.8265 54.5547 10.0635 55.1699 10.0635C55.9674 10.0635 56.5531 9.70117 56.9268 8.97656V5.59961C56.5394 4.89323 55.9583 4.54004 55.1836 4.54004C54.5684 4.54004 54.0876 4.7793 53.7412 5.25781C53.3949 5.73633 53.2217 6.44499 53.2217 7.38379ZM61.377 4.49902C61.9375 3.81087 62.6667 3.4668 63.5645 3.4668C65.1276 3.4668 65.916 4.34863 65.9297 6.1123V11H64.665V6.10547C64.6605 5.57227 64.5374 5.17806 64.2959 4.92285C64.0589 4.66764 63.6875 4.54004 63.1816 4.54004C62.7715 4.54004 62.4115 4.64941 62.1016 4.86816C61.7917 5.08691 61.5501 5.37402 61.377 5.72949V11H60.1123V0.5H61.377V4.49902ZM69.5391 1.8125V3.60352H70.9199V4.58105H69.5391V9.16797C69.5391 9.46419 69.6006 9.6875 69.7236 9.83789C69.8467 9.98372 70.0563 10.0566 70.3525 10.0566C70.4984 10.0566 70.6989 10.0293 70.9541 9.97461V11C70.6214 11.0911 70.2979 11.1367 69.9834 11.1367C69.4183 11.1367 68.9922 10.9658 68.7051 10.624C68.418 10.2822 68.2744 9.79688 68.2744 9.16797V4.58105H66.9277V3.60352H68.2744V1.8125H69.5391ZM77.3867 7.10352V11H76.0742V1.04688H79.7451C80.8343 1.04688 81.6865 1.32487 82.3018 1.88086C82.9215 2.43685 83.2314 3.17285 83.2314 4.08887C83.2314 5.05501 82.9284 5.80013 82.3223 6.32422C81.7207 6.84375 80.8571 7.10352 79.7314 7.10352H77.3867ZM77.3867 6.03027H79.7451C80.4469 6.03027 80.9847 5.86621 81.3584 5.53809C81.7321 5.2054 81.9189 4.72689 81.9189 4.10254C81.9189 3.51009 81.7321 3.03613 81.3584 2.68066C80.9847 2.3252 80.472 2.14062 79.8203 2.12695H77.3867V6.03027ZM87.6816 11.1367C86.679 11.1367 85.8633 10.8086 85.2344 10.1523C84.6055 9.49154 84.291 8.6097 84.291 7.50684V7.27441C84.291 6.54069 84.43 5.88672 84.708 5.3125C84.9906 4.73372 85.3825 4.28255 85.8838 3.95898C86.3896 3.63086 86.9365 3.4668 87.5244 3.4668C88.486 3.4668 89.2334 3.78353 89.7666 4.41699C90.2998 5.05046 90.5664 5.95736 90.5664 7.1377V7.66406H85.5557C85.5739 8.39323 85.7858 8.9834 86.1914 9.43457C86.6016 9.88118 87.1211 10.1045 87.75 10.1045C88.1966 10.1045 88.5749 10.0133 88.8848 9.83105C89.1947 9.64876 89.4658 9.40723 89.6982 9.10645L90.4707 9.70801C89.8509 10.6605 88.9212 11.1367 87.6816 11.1367ZM87.5244 4.50586C87.014 4.50586 86.5856 4.69271 86.2393 5.06641C85.8929 5.43555 85.6787 5.95508 85.5967 6.625H89.3018V6.5293C89.2653 5.88672 89.0921 5.38997 88.7822 5.03906C88.4723 4.68359 88.0531 4.50586 87.5244 4.50586ZM95.6113 4.73828C95.4199 4.70638 95.2126 4.69043 94.9893 4.69043C94.1598 4.69043 93.597 5.04362 93.3008 5.75V11H92.0361V3.60352H93.2666L93.2871 4.45801C93.7018 3.7972 94.2897 3.4668 95.0508 3.4668C95.2969 3.4668 95.4837 3.4987 95.6113 3.5625V4.73828ZM99.6104 10.1045C100.062 10.1045 100.456 9.96777 100.793 9.69434C101.13 9.4209 101.317 9.0791 101.354 8.66895H102.55C102.527 9.09277 102.381 9.49609 102.112 9.87891C101.843 10.2617 101.483 10.5671 101.032 10.7949C100.586 11.0228 100.112 11.1367 99.6104 11.1367C98.6032 11.1367 97.8011 10.8018 97.2041 10.1318C96.6117 9.45736 96.3154 8.53678 96.3154 7.37012V7.1582C96.3154 6.43815 96.4476 5.79785 96.7119 5.2373C96.9762 4.67676 97.3545 4.24154 97.8467 3.93164C98.3434 3.62174 98.929 3.4668 99.6035 3.4668C100.433 3.4668 101.121 3.71517 101.668 4.21191C102.219 4.70866 102.513 5.35352 102.55 6.14648H101.354C101.317 5.66797 101.135 5.27604 100.807 4.9707C100.483 4.66081 100.082 4.50586 99.6035 4.50586C98.9609 4.50586 98.4619 4.73828 98.1064 5.20312C97.7555 5.66341 97.5801 6.33105 97.5801 7.20605V7.44531C97.5801 8.29753 97.7555 8.95378 98.1064 9.41406C98.4574 9.87435 98.9587 10.1045 99.6104 10.1045ZM107.041 11.1367C106.038 11.1367 105.223 10.8086 104.594 10.1523C103.965 9.49154 103.65 8.6097 103.65 7.50684V7.27441C103.65 6.54069 103.789 5.88672 104.067 5.3125C104.35 4.73372 104.742 4.28255 105.243 3.95898C105.749 3.63086 106.296 3.4668 106.884 3.4668C107.845 3.4668 108.593 3.78353 109.126 4.41699C109.659 5.05046 109.926 5.95736 109.926 7.1377V7.66406H104.915C104.933 8.39323 105.145 8.9834 105.551 9.43457C105.961 9.88118 106.48 10.1045 107.109 10.1045C107.556 10.1045 107.934 10.0133 108.244 9.83105C108.554 9.64876 108.825 9.40723 109.058 9.10645L109.83 9.70801C109.21 10.6605 108.281 11.1367 107.041 11.1367ZM106.884 4.50586C106.373 4.50586 105.945 4.69271 105.599 5.06641C105.252 5.43555 105.038 5.95508 104.956 6.625H108.661V6.5293C108.625 5.88672 108.451 5.38997 108.142 5.03906C107.832 4.68359 107.412 4.50586 106.884 4.50586ZM112.592 3.60352L112.633 4.5332C113.198 3.82227 113.936 3.4668 114.848 3.4668C116.411 3.4668 117.199 4.34863 117.213 6.1123V11H115.948V6.10547C115.944 5.57227 115.821 5.17806 115.579 4.92285C115.342 4.66764 114.971 4.54004 114.465 4.54004C114.055 4.54004 113.695 4.64941 113.385 4.86816C113.075 5.08691 112.833 5.37402 112.66 5.72949V11H111.396V3.60352H112.592ZM120.836 1.8125V3.60352H122.217V4.58105H120.836V9.16797C120.836 9.46419 120.897 9.6875 121.021 9.83789C121.144 9.98372 121.353 10.0566 121.649 10.0566C121.795 10.0566 121.996 10.0293 122.251 9.97461V11C121.918 11.0911 121.595 11.1367 121.28 11.1367C120.715 11.1367 120.289 10.9658 120.002 10.624C119.715 10.2822 119.571 9.79688 119.571 9.16797V4.58105H118.225V3.60352H119.571V1.8125H120.836Z" fill="#BEC0C2"/>
<rect x="336" y="46" width="72" height="10" fill="#C4C4C4"/>
<rect x="336" y="63" width="72" height="8" fill="#C4C4C4"/>
<rect x="336" y="78" width="72" height="5" fill="#C4C4C4"/>
<rect x="336" y="90" width="72" height="3" fill="#C4C4C4"/>
<rect x="336" y="100" width="72" height="1" fill="#C4C4C4"/>
<path d="M10.3633 34.5742C10.3633 35.4206 10.2188 36.0495 9.92969 36.4609C9.64062 36.8724 9.1888 37.0781 8.57422 37.0781C7.96745 37.0781 7.51823 36.8776 7.22656 36.4766C6.9349 36.0729 6.78385 35.4714 6.77344 34.6719V33.707C6.77344 32.8711 6.91797 32.25 7.20703 31.8438C7.49609 31.4375 7.94922 31.2344 8.56641 31.2344C9.17839 31.2344 9.62891 31.431 9.91797 31.8242C10.207 32.2148 10.3555 32.819 10.3633 33.6367V34.5742ZM9.64062 33.5859C9.64062 32.974 9.55469 32.5286 9.38281 32.25C9.21094 31.9688 8.9388 31.8281 8.56641 31.8281C8.19661 31.8281 7.92708 31.9674 7.75781 32.2461C7.58854 32.5247 7.5013 32.9531 7.49609 33.5312V34.6875C7.49609 35.3021 7.58464 35.7565 7.76172 36.0508C7.94141 36.3424 8.21224 36.4883 8.57422 36.4883C8.93099 36.4883 9.19531 36.3503 9.36719 36.0742C9.54167 35.7982 9.63281 35.3633 9.64062 34.7695V33.5859ZM11.2266 32.4062C11.2266 32.0651 11.3346 31.7839 11.5508 31.5625C11.7695 31.3411 12.0495 31.2305 12.3906 31.2305C12.737 31.2305 13.0169 31.3424 13.2305 31.5664C13.4466 31.7878 13.5547 32.0755 13.5547 32.4297V32.707C13.5547 33.0508 13.4453 33.332 13.2266 33.5508C13.0104 33.7669 12.7344 33.875 12.3984 33.875C12.0599 33.875 11.7799 33.7669 11.5586 33.5508C11.3372 33.332 11.2266 33.0417 11.2266 32.6797V32.4062ZM11.7656 32.707C11.7656 32.9102 11.8229 33.0781 11.9375 33.2109C12.0521 33.3411 12.2057 33.4062 12.3984 33.4062C12.5833 33.4062 12.7318 33.3424 12.8438 33.2148C12.9583 33.0872 13.0156 32.9128 13.0156 32.6914V32.4062C13.0156 32.2031 12.9596 32.0352 12.8477 31.9023C12.7357 31.7695 12.5833 31.7031 12.3906 31.7031C12.1979 31.7031 12.0456 31.7695 11.9336 31.9023C11.8216 32.0352 11.7656 32.2083 11.7656 32.4219V32.707ZM13.9961 35.6055C13.9961 35.2643 14.1042 34.9844 14.3203 34.7656C14.5391 34.5443 14.819 34.4336 15.1602 34.4336C15.5013 34.4336 15.7812 34.543 16 34.7617C16.2188 34.9805 16.3281 35.2708 16.3281 35.6328V35.9102C16.3281 36.2513 16.2188 36.5326 16 36.7539C15.7839 36.9727 15.5065 37.082 15.168 37.082C14.8294 37.082 14.5495 36.974 14.3281 36.7578C14.1068 36.5391 13.9961 36.2487 13.9961 35.8867V35.6055ZM14.5352 35.9102C14.5352 36.1159 14.5924 36.2852 14.707 36.418C14.8216 36.5482 14.9753 36.6133 15.168 36.6133C15.3555 36.6133 15.5052 36.5495 15.6172 36.4219C15.7292 36.2917 15.7852 36.1159 15.7852 35.8945V35.6055C15.7852 35.3997 15.7279 35.2318 15.6133 35.1016C15.5013 34.9714 15.3503 34.9062 15.1602 34.9062C14.9753 34.9062 14.8242 34.9714 14.707 35.1016C14.5924 35.2292 14.5352 35.4023 14.5352 35.6211V35.9102ZM12.5625 36.5703L12.1523 36.3125L14.9297 31.8672L15.3398 32.125L12.5625 36.5703Z" fill="#F8F8F8"/>
<path d="M174.68 37H173.953V32.1836L172.496 32.7188V32.0625L174.566 31.2852H174.68V37ZM180.363 34.5742C180.363 35.4206 180.219 36.0495 179.93 36.4609C179.641 36.8724 179.189 37.0781 178.574 37.0781C177.967 37.0781 177.518 36.8776 177.227 36.4766C176.935 36.0729 176.784 35.4714 176.773 34.6719V33.707C176.773 32.8711 176.918 32.25 177.207 31.8438C177.496 31.4375 177.949 31.2344 178.566 31.2344C179.178 31.2344 179.629 31.431 179.918 31.8242C180.207 32.2148 180.355 32.819 180.363 33.6367V34.5742ZM179.641 33.5859C179.641 32.974 179.555 32.5286 179.383 32.25C179.211 31.9688 178.939 31.8281 178.566 31.8281C178.197 31.8281 177.927 31.9674 177.758 32.2461C177.589 32.5247 177.501 32.9531 177.496 33.5312V34.6875C177.496 35.3021 177.585 35.7565 177.762 36.0508C177.941 36.3424 178.212 36.4883 178.574 36.4883C178.931 36.4883 179.195 36.3503 179.367 36.0742C179.542 35.7982 179.633 35.3633 179.641 34.7695V33.5859ZM184.855 34.5742C184.855 35.4206 184.711 36.0495 184.422 36.4609C184.133 36.8724 183.681 37.0781 183.066 37.0781C182.46 37.0781 182.01 36.8776 181.719 36.4766C181.427 36.0729 181.276 35.4714 181.266 34.6719V33.707C181.266 32.8711 181.41 32.25 181.699 31.8438C181.988 31.4375 182.441 31.2344 183.059 31.2344C183.671 31.2344 184.121 31.431 184.41 31.8242C184.699 32.2148 184.848 32.819 184.855 33.6367V34.5742ZM184.133 33.5859C184.133 32.974 184.047 32.5286 183.875 32.25C183.703 31.9688 183.431 31.8281 183.059 31.8281C182.689 31.8281 182.419 31.9674 182.25 32.2461C182.081 32.5247 181.993 32.9531 181.988 33.5312V34.6875C181.988 35.3021 182.077 35.7565 182.254 36.0508C182.434 36.3424 182.704 36.4883 183.066 36.4883C183.423 36.4883 183.688 36.3503 183.859 36.0742C184.034 35.7982 184.125 35.3633 184.133 34.7695V33.5859ZM185.719 32.4062C185.719 32.0651 185.827 31.7839 186.043 31.5625C186.262 31.3411 186.542 31.2305 186.883 31.2305C187.229 31.2305 187.509 31.3424 187.723 31.5664C187.939 31.7878 188.047 32.0755 188.047 32.4297V32.707C188.047 33.0508 187.938 33.332 187.719 33.5508C187.503 33.7669 187.227 33.875 186.891 33.875C186.552 33.875 186.272 33.7669 186.051 33.5508C185.829 33.332 185.719 33.0417 185.719 32.6797V32.4062ZM186.258 32.707C186.258 32.9102 186.315 33.0781 186.43 33.2109C186.544 33.3411 186.698 33.4062 186.891 33.4062C187.076 33.4062 187.224 33.3424 187.336 33.2148C187.451 33.0872 187.508 32.9128 187.508 32.6914V32.4062C187.508 32.2031 187.452 32.0352 187.34 31.9023C187.228 31.7695 187.076 31.7031 186.883 31.7031C186.69 31.7031 186.538 31.7695 186.426 31.9023C186.314 32.0352 186.258 32.2083 186.258 32.4219V32.707ZM188.488 35.6055C188.488 35.2643 188.596 34.9844 188.812 34.7656C189.031 34.5443 189.311 34.4336 189.652 34.4336C189.993 34.4336 190.273 34.543 190.492 34.7617C190.711 34.9805 190.82 35.2708 190.82 35.6328V35.9102C190.82 36.2513 190.711 36.5326 190.492 36.7539C190.276 36.9727 189.999 37.082 189.66 37.082C189.322 37.082 189.042 36.974 188.82 36.7578C188.599 36.5391 188.488 36.2487 188.488 35.8867V35.6055ZM189.027 35.9102C189.027 36.1159 189.085 36.2852 189.199 36.418C189.314 36.5482 189.467 36.6133 189.66 36.6133C189.848 36.6133 189.997 36.5495 190.109 36.4219C190.221 36.2917 190.277 36.1159 190.277 35.8945V35.6055C190.277 35.3997 190.22 35.2318 190.105 35.1016C189.993 34.9714 189.842 34.9062 189.652 34.9062C189.467 34.9062 189.316 34.9714 189.199 35.1016C189.085 35.2292 189.027 35.4023 189.027 35.6211V35.9102ZM187.055 36.5703L186.645 36.3125L189.422 31.8672L189.832 32.125L187.055 36.5703Z" fill="#F8F8F8"/>
<path d="M416.848 104H416.121V99.1836L414.664 99.7188V99.0625L416.734 98.2852H416.848V104ZM422.531 101.574C422.531 102.421 422.387 103.049 422.098 103.461C421.809 103.872 421.357 104.078 420.742 104.078C420.135 104.078 419.686 103.878 419.395 103.477C419.103 103.073 418.952 102.471 418.941 101.672V100.707C418.941 99.8711 419.086 99.25 419.375 98.8438C419.664 98.4375 420.117 98.2344 420.734 98.2344C421.346 98.2344 421.797 98.431 422.086 98.8242C422.375 99.2148 422.523 99.819 422.531 100.637V101.574ZM421.809 100.586C421.809 99.974 421.723 99.5286 421.551 99.25C421.379 98.9688 421.107 98.8281 420.734 98.8281C420.365 98.8281 420.095 98.9674 419.926 99.2461C419.757 99.5247 419.669 99.9531 419.664 100.531V101.688C419.664 102.302 419.753 102.757 419.93 103.051C420.109 103.342 420.38 103.488 420.742 103.488C421.099 103.488 421.363 103.35 421.535 103.074C421.71 102.798 421.801 102.363 421.809 101.77V100.586ZM423.395 99.4062C423.395 99.0651 423.503 98.7839 423.719 98.5625C423.938 98.3411 424.217 98.2305 424.559 98.2305C424.905 98.2305 425.185 98.3424 425.398 98.5664C425.615 98.7878 425.723 99.0755 425.723 99.4297V99.707C425.723 100.051 425.613 100.332 425.395 100.551C425.178 100.767 424.902 100.875 424.566 100.875C424.228 100.875 423.948 100.767 423.727 100.551C423.505 100.332 423.395 100.042 423.395 99.6797V99.4062ZM423.934 99.707C423.934 99.9102 423.991 100.078 424.105 100.211C424.22 100.341 424.374 100.406 424.566 100.406C424.751 100.406 424.9 100.342 425.012 100.215C425.126 100.087 425.184 99.9128 425.184 99.6914V99.4062C425.184 99.2031 425.128 99.0352 425.016 98.9023C424.904 98.7695 424.751 98.7031 424.559 98.7031C424.366 98.7031 424.214 98.7695 424.102 98.9023C423.99 99.0352 423.934 99.2083 423.934 99.4219V99.707ZM426.164 102.605C426.164 102.264 426.272 101.984 426.488 101.766C426.707 101.544 426.987 101.434 427.328 101.434C427.669 101.434 427.949 101.543 428.168 101.762C428.387 101.98 428.496 102.271 428.496 102.633V102.91C428.496 103.251 428.387 103.533 428.168 103.754C427.952 103.973 427.674 104.082 427.336 104.082C426.997 104.082 426.717 103.974 426.496 103.758C426.275 103.539 426.164 103.249 426.164 102.887V102.605ZM426.703 102.91C426.703 103.116 426.76 103.285 426.875 103.418C426.99 103.548 427.143 103.613 427.336 103.613C427.523 103.613 427.673 103.549 427.785 103.422C427.897 103.292 427.953 103.116 427.953 102.895V102.605C427.953 102.4 427.896 102.232 427.781 102.102C427.669 101.971 427.518 101.906 427.328 101.906C427.143 101.906 426.992 101.971 426.875 102.102C426.76 102.229 426.703 102.402 426.703 102.621V102.91ZM424.73 103.57L424.32 103.312L427.098 98.8672L427.508 99.125L424.73 103.57Z" fill="#F8F8F8"/>
<path d="M40.2773 37H36.5508V36.4805L38.5195 34.293C38.8112 33.9622 39.0117 33.694 39.1211 33.4883C39.2331 33.2799 39.2891 33.0651 39.2891 32.8438C39.2891 32.5469 39.1992 32.3034 39.0195 32.1133C38.8398 31.9232 38.6003 31.8281 38.3008 31.8281C37.9414 31.8281 37.6615 31.931 37.4609 32.1367C37.263 32.3398 37.1641 32.6237 37.1641 32.9883H36.4414C36.4414 32.4648 36.6094 32.0417 36.9453 31.7188C37.2839 31.3958 37.7357 31.2344 38.3008 31.2344C38.8294 31.2344 39.2474 31.3737 39.5547 31.6523C39.862 31.9284 40.0156 32.2969 40.0156 32.7578C40.0156 33.3177 39.6589 33.9844 38.9453 34.7578L37.4219 36.4102H40.2773V37ZM41.375 34.1484L41.6641 31.3125H44.5781V31.9805H42.2773L42.1055 33.5312C42.3841 33.3672 42.7005 33.2852 43.0547 33.2852C43.5729 33.2852 43.9844 33.457 44.2891 33.8008C44.5938 34.1419 44.7461 34.6042 44.7461 35.1875C44.7461 35.7734 44.5872 36.2357 44.2695 36.5742C43.9544 36.9102 43.513 37.0781 42.9453 37.0781C42.4427 37.0781 42.0326 36.9388 41.7148 36.6602C41.3971 36.3815 41.2161 35.9961 41.1719 35.5039H41.8555C41.8997 35.8294 42.0156 36.0755 42.2031 36.2422C42.3906 36.4062 42.638 36.4883 42.9453 36.4883C43.2812 36.4883 43.5443 36.3737 43.7344 36.1445C43.9271 35.9154 44.0234 35.599 44.0234 35.1953C44.0234 34.8151 43.9193 34.5104 43.7109 34.2812C43.5052 34.0495 43.2305 33.9336 42.8867 33.9336C42.5716 33.9336 42.3242 34.0026 42.1445 34.1406L41.9531 34.2969L41.375 34.1484ZM45.4727 32.4062C45.4727 32.0651 45.5807 31.7839 45.7969 31.5625C46.0156 31.3411 46.2956 31.2305 46.6367 31.2305C46.9831 31.2305 47.263 31.3424 47.4766 31.5664C47.6927 31.7878 47.8008 32.0755 47.8008 32.4297V32.707C47.8008 33.0508 47.6914 33.332 47.4727 33.5508C47.2565 33.7669 46.9805 33.875 46.6445 33.875C46.306 33.875 46.026 33.7669 45.8047 33.5508C45.5833 33.332 45.4727 33.0417 45.4727 32.6797V32.4062ZM46.0117 32.707C46.0117 32.9102 46.069 33.0781 46.1836 33.2109C46.2982 33.3411 46.4518 33.4062 46.6445 33.4062C46.8294 33.4062 46.9779 33.3424 47.0898 33.2148C47.2044 33.0872 47.2617 32.9128 47.2617 32.6914V32.4062C47.2617 32.2031 47.2057 32.0352 47.0938 31.9023C46.9818 31.7695 46.8294 31.7031 46.6367 31.7031C46.444 31.7031 46.2917 31.7695 46.1797 31.9023C46.0677 32.0352 46.0117 32.2083 46.0117 32.4219V32.707ZM48.2422 35.6055C48.2422 35.2643 48.3503 34.9844 48.5664 34.7656C48.7852 34.5443 49.0651 34.4336 49.4062 34.4336C49.7474 34.4336 50.0273 34.543 50.2461 34.7617C50.4648 34.9805 50.5742 35.2708 50.5742 35.6328V35.9102C50.5742 36.2513 50.4648 36.5326 50.2461 36.7539C50.0299 36.9727 49.7526 37.082 49.4141 37.082C49.0755 37.082 48.7956 36.974 48.5742 36.7578C48.3529 36.5391 48.2422 36.2487 48.2422 35.8867V35.6055ZM48.7812 35.9102C48.7812 36.1159 48.8385 36.2852 48.9531 36.418C49.0677 36.5482 49.2214 36.6133 49.4141 36.6133C49.6016 36.6133 49.7513 36.5495 49.8633 36.4219C49.9753 36.2917 50.0312 36.1159 50.0312 35.8945V35.6055C50.0312 35.3997 49.974 35.2318 49.8594 35.1016C49.7474 34.9714 49.5964 34.9062 49.4062 34.9062C49.2214 34.9062 49.0703 34.9714 48.9531 35.1016C48.8385 35.2292 48.7812 35.4023 48.7812 35.6211V35.9102ZM46.8086 36.5703L46.3984 36.3125L49.1758 31.8672L49.5859 32.125L46.8086 36.5703Z" fill="#F8F8F8"/>
<path d="M210.223 31.7188L207.867 37H207.109L209.457 31.9062H206.379V31.3125H210.223V31.7188ZM211.375 34.1484L211.664 31.3125H214.578V31.9805H212.277L212.105 33.5312C212.384 33.3672 212.701 33.2852 213.055 33.2852C213.573 33.2852 213.984 33.457 214.289 33.8008C214.594 34.1419 214.746 34.6042 214.746 35.1875C214.746 35.7734 214.587 36.2357 214.27 36.5742C213.954 36.9102 213.513 37.0781 212.945 37.0781C212.443 37.0781 212.033 36.9388 211.715 36.6602C211.397 36.3815 211.216 35.9961 211.172 35.5039H211.855C211.9 35.8294 212.016 36.0755 212.203 36.2422C212.391 36.4062 212.638 36.4883 212.945 36.4883C213.281 36.4883 213.544 36.3737 213.734 36.1445C213.927 35.9154 214.023 35.599 214.023 35.1953C214.023 34.8151 213.919 34.5104 213.711 34.2812C213.505 34.0495 213.23 33.9336 212.887 33.9336C212.572 33.9336 212.324 34.0026 212.145 34.1406L211.953 34.2969L211.375 34.1484ZM215.473 32.4062C215.473 32.0651 215.581 31.7839 215.797 31.5625C216.016 31.3411 216.296 31.2305 216.637 31.2305C216.983 31.2305 217.263 31.3424 217.477 31.5664C217.693 31.7878 217.801 32.0755 217.801 32.4297V32.707C217.801 33.0508 217.691 33.332 217.473 33.5508C217.257 33.7669 216.98 33.875 216.645 33.875C216.306 33.875 216.026 33.7669 215.805 33.5508C215.583 33.332 215.473 33.0417 215.473 32.6797V32.4062ZM216.012 32.707C216.012 32.9102 216.069 33.0781 216.184 33.2109C216.298 33.3411 216.452 33.4062 216.645 33.4062C216.829 33.4062 216.978 33.3424 217.09 33.2148C217.204 33.0872 217.262 32.9128 217.262 32.6914V32.4062C217.262 32.2031 217.206 32.0352 217.094 31.9023C216.982 31.7695 216.829 31.7031 216.637 31.7031C216.444 31.7031 216.292 31.7695 216.18 31.9023C216.068 32.0352 216.012 32.2083 216.012 32.4219V32.707ZM218.242 35.6055C218.242 35.2643 218.35 34.9844 218.566 34.7656C218.785 34.5443 219.065 34.4336 219.406 34.4336C219.747 34.4336 220.027 34.543 220.246 34.7617C220.465 34.9805 220.574 35.2708 220.574 35.6328V35.9102C220.574 36.2513 220.465 36.5326 220.246 36.7539C220.03 36.9727 219.753 37.082 219.414 37.082C219.076 37.082 218.796 36.974 218.574 36.7578C218.353 36.5391 218.242 36.2487 218.242 35.8867V35.6055ZM218.781 35.9102C218.781 36.1159 218.839 36.2852 218.953 36.418C219.068 36.5482 219.221 36.6133 219.414 36.6133C219.602 36.6133 219.751 36.5495 219.863 36.4219C219.975 36.2917 220.031 36.1159 220.031 35.8945V35.6055C220.031 35.3997 219.974 35.2318 219.859 35.1016C219.747 34.9714 219.596 34.9062 219.406 34.9062C219.221 34.9062 219.07 34.9714 218.953 35.1016C218.839 35.2292 218.781 35.4023 218.781 35.6211V35.9102ZM216.809 36.5703L216.398 36.3125L219.176 31.8672L219.586 32.125L216.809 36.5703Z" fill="#F8F8F8"/>
<path d="M418.199 94H414.473V93.4805L416.441 91.293C416.733 90.9622 416.934 90.694 417.043 90.4883C417.155 90.2799 417.211 90.0651 417.211 89.8438C417.211 89.5469 417.121 89.3034 416.941 89.1133C416.762 88.9232 416.522 88.8281 416.223 88.8281C415.863 88.8281 415.583 88.931 415.383 89.1367C415.185 89.3398 415.086 89.6237 415.086 89.9883H414.363C414.363 89.4648 414.531 89.0417 414.867 88.7188C415.206 88.3958 415.658 88.2344 416.223 88.2344C416.751 88.2344 417.169 88.3737 417.477 88.6523C417.784 88.9284 417.938 89.2969 417.938 89.7578C417.938 90.3177 417.581 90.9844 416.867 91.7578L415.344 93.4102H418.199V94ZM419.297 91.1484L419.586 88.3125H422.5V88.9805H420.199L420.027 90.5312C420.306 90.3672 420.622 90.2852 420.977 90.2852C421.495 90.2852 421.906 90.457 422.211 90.8008C422.516 91.1419 422.668 91.6042 422.668 92.1875C422.668 92.7734 422.509 93.2357 422.191 93.5742C421.876 93.9102 421.435 94.0781 420.867 94.0781C420.365 94.0781 419.954 93.9388 419.637 93.6602C419.319 93.3815 419.138 92.9961 419.094 92.5039H419.777C419.822 92.8294 419.938 93.0755 420.125 93.2422C420.312 93.4062 420.56 93.4883 420.867 93.4883C421.203 93.4883 421.466 93.3737 421.656 93.1445C421.849 92.9154 421.945 92.599 421.945 92.1953C421.945 91.8151 421.841 91.5104 421.633 91.2812C421.427 91.0495 421.152 90.9336 420.809 90.9336C420.493 90.9336 420.246 91.0026 420.066 91.1406L419.875 91.2969L419.297 91.1484ZM423.395 89.4062C423.395 89.0651 423.503 88.7839 423.719 88.5625C423.938 88.3411 424.217 88.2305 424.559 88.2305C424.905 88.2305 425.185 88.3424 425.398 88.5664C425.615 88.7878 425.723 89.0755 425.723 89.4297V89.707C425.723 90.0508 425.613 90.332 425.395 90.5508C425.178 90.7669 424.902 90.875 424.566 90.875C424.228 90.875 423.948 90.7669 423.727 90.5508C423.505 90.332 423.395 90.0417 423.395 89.6797V89.4062ZM423.934 89.707C423.934 89.9102 423.991 90.0781 424.105 90.2109C424.22 90.3411 424.374 90.4062 424.566 90.4062C424.751 90.4062 424.9 90.3424 425.012 90.2148C425.126 90.0872 425.184 89.9128 425.184 89.6914V89.4062C425.184 89.2031 425.128 89.0352 425.016 88.9023C424.904 88.7695 424.751 88.7031 424.559 88.7031C424.366 88.7031 424.214 88.7695 424.102 88.9023C423.99 89.0352 423.934 89.2083 423.934 89.4219V89.707ZM426.164 92.6055C426.164 92.2643 426.272 91.9844 426.488 91.7656C426.707 91.5443 426.987 91.4336 427.328 91.4336C427.669 91.4336 427.949 91.543 428.168 91.7617C428.387 91.9805 428.496 92.2708 428.496 92.6328V92.9102C428.496 93.2513 428.387 93.5326 428.168 93.7539C427.952 93.9727 427.674 94.082 427.336 94.082C426.997 94.082 426.717 93.974 426.496 93.7578C426.275 93.5391 426.164 93.2487 426.164 92.8867V92.6055ZM426.703 92.9102C426.703 93.1159 426.76 93.2852 426.875 93.418C426.99 93.5482 427.143 93.6133 427.336 93.6133C427.523 93.6133 427.673 93.5495 427.785 93.4219C427.897 93.2917 427.953 93.1159 427.953 92.8945V92.6055C427.953 92.3997 427.896 92.2318 427.781 92.1016C427.669 91.9714 427.518 91.9062 427.328 91.9062C427.143 91.9062 426.992 91.9714 426.875 92.1016C426.76 92.2292 426.703 92.4023 426.703 92.6211V92.9102ZM424.73 93.5703L424.32 93.3125L427.098 88.8672L427.508 89.125L424.73 93.5703Z" fill="#F8F8F8"/>
<path d="M68.8828 34.1484L69.1719 31.3125H72.0859V31.9805H69.7852L69.6133 33.5312C69.8919 33.3672 70.2083 33.2852 70.5625 33.2852C71.0807 33.2852 71.4922 33.457 71.7969 33.8008C72.1016 34.1419 72.2539 34.6042 72.2539 35.1875C72.2539 35.7734 72.0951 36.2357 71.7773 36.5742C71.4622 36.9102 71.0208 37.0781 70.4531 37.0781C69.9505 37.0781 69.5404 36.9388 69.2227 36.6602C68.9049 36.3815 68.724 35.9961 68.6797 35.5039H69.3633C69.4076 35.8294 69.5234 36.0755 69.7109 36.2422C69.8984 36.4062 70.1458 36.4883 70.4531 36.4883C70.7891 36.4883 71.0521 36.3737 71.2422 36.1445C71.4349 35.9154 71.5312 35.599 71.5312 35.1953C71.5312 34.8151 71.4271 34.5104 71.2188 34.2812C71.013 34.0495 70.7383 33.9336 70.3945 33.9336C70.0794 33.9336 69.832 34.0026 69.6523 34.1406L69.4609 34.2969L68.8828 34.1484ZM76.6094 34.5742C76.6094 35.4206 76.4648 36.0495 76.1758 36.4609C75.8867 36.8724 75.4349 37.0781 74.8203 37.0781C74.2135 37.0781 73.7643 36.8776 73.4727 36.4766C73.181 36.0729 73.0299 35.4714 73.0195 34.6719V33.707C73.0195 32.8711 73.1641 32.25 73.4531 31.8438C73.7422 31.4375 74.1953 31.2344 74.8125 31.2344C75.4245 31.2344 75.875 31.431 76.1641 31.8242C76.4531 32.2148 76.6016 32.819 76.6094 33.6367V34.5742ZM75.8867 33.5859C75.8867 32.974 75.8008 32.5286 75.6289 32.25C75.457 31.9688 75.1849 31.8281 74.8125 31.8281C74.4427 31.8281 74.1732 31.9674 74.0039 32.2461C73.8346 32.5247 73.7474 32.9531 73.7422 33.5312V34.6875C73.7422 35.3021 73.8307 35.7565 74.0078 36.0508C74.1875 36.3424 74.4583 36.4883 74.8203 36.4883C75.1771 36.4883 75.4414 36.3503 75.6133 36.0742C75.7878 35.7982 75.8789 35.3633 75.8867 34.7695V33.5859ZM77.4727 32.4062C77.4727 32.0651 77.5807 31.7839 77.7969 31.5625C78.0156 31.3411 78.2956 31.2305 78.6367 31.2305C78.9831 31.2305 79.263 31.3424 79.4766 31.5664C79.6927 31.7878 79.8008 32.0755 79.8008 32.4297V32.707C79.8008 33.0508 79.6914 33.332 79.4727 33.5508C79.2565 33.7669 78.9805 33.875 78.6445 33.875C78.306 33.875 78.026 33.7669 77.8047 33.5508C77.5833 33.332 77.4727 33.0417 77.4727 32.6797V32.4062ZM78.0117 32.707C78.0117 32.9102 78.069 33.0781 78.1836 33.2109C78.2982 33.3411 78.4518 33.4062 78.6445 33.4062C78.8294 33.4062 78.9779 33.3424 79.0898 33.2148C79.2044 33.0872 79.2617 32.9128 79.2617 32.6914V32.4062C79.2617 32.2031 79.2057 32.0352 79.0938 31.9023C78.9818 31.7695 78.8294 31.7031 78.6367 31.7031C78.444 31.7031 78.2917 31.7695 78.1797 31.9023C78.0677 32.0352 78.0117 32.2083 78.0117 32.4219V32.707ZM80.2422 35.6055C80.2422 35.2643 80.3503 34.9844 80.5664 34.7656C80.7852 34.5443 81.0651 34.4336 81.4062 34.4336C81.7474 34.4336 82.0273 34.543 82.2461 34.7617C82.4648 34.9805 82.5742 35.2708 82.5742 35.6328V35.9102C82.5742 36.2513 82.4648 36.5326 82.2461 36.7539C82.0299 36.9727 81.7526 37.082 81.4141 37.082C81.0755 37.082 80.7956 36.974 80.5742 36.7578C80.3529 36.5391 80.2422 36.2487 80.2422 35.8867V35.6055ZM80.7812 35.9102C80.7812 36.1159 80.8385 36.2852 80.9531 36.418C81.0677 36.5482 81.2214 36.6133 81.4141 36.6133C81.6016 36.6133 81.7513 36.5495 81.8633 36.4219C81.9753 36.2917 82.0312 36.1159 82.0312 35.8945V35.6055C82.0312 35.3997 81.974 35.2318 81.8594 35.1016C81.7474 34.9714 81.5964 34.9062 81.4062 34.9062C81.2214 34.9062 81.0703 34.9714 80.9531 35.1016C80.8385 35.2292 80.7812 35.4023 80.7812 35.6211V35.9102ZM78.8086 36.5703L78.3984 36.3125L81.1758 31.8672L81.5859 32.125L78.8086 36.5703Z" fill="#F8F8F8"/>
<path d="M238.883 34.1484L239.172 31.3125H242.086V31.9805H239.785L239.613 33.5312C239.892 33.3672 240.208 33.2852 240.562 33.2852C241.081 33.2852 241.492 33.457 241.797 33.8008C242.102 34.1419 242.254 34.6042 242.254 35.1875C242.254 35.7734 242.095 36.2357 241.777 36.5742C241.462 36.9102 241.021 37.0781 240.453 37.0781C239.951 37.0781 239.54 36.9388 239.223 36.6602C238.905 36.3815 238.724 35.9961 238.68 35.5039H239.363C239.408 35.8294 239.523 36.0755 239.711 36.2422C239.898 36.4062 240.146 36.4883 240.453 36.4883C240.789 36.4883 241.052 36.3737 241.242 36.1445C241.435 35.9154 241.531 35.599 241.531 35.1953C241.531 34.8151 241.427 34.5104 241.219 34.2812C241.013 34.0495 240.738 33.9336 240.395 33.9336C240.079 33.9336 239.832 34.0026 239.652 34.1406L239.461 34.2969L238.883 34.1484ZM246.609 34.5742C246.609 35.4206 246.465 36.0495 246.176 36.4609C245.887 36.8724 245.435 37.0781 244.82 37.0781C244.214 37.0781 243.764 36.8776 243.473 36.4766C243.181 36.0729 243.03 35.4714 243.02 34.6719V33.707C243.02 32.8711 243.164 32.25 243.453 31.8438C243.742 31.4375 244.195 31.2344 244.812 31.2344C245.424 31.2344 245.875 31.431 246.164 31.8242C246.453 32.2148 246.602 32.819 246.609 33.6367V34.5742ZM245.887 33.5859C245.887 32.974 245.801 32.5286 245.629 32.25C245.457 31.9688 245.185 31.8281 244.812 31.8281C244.443 31.8281 244.173 31.9674 244.004 32.2461C243.835 32.5247 243.747 32.9531 243.742 33.5312V34.6875C243.742 35.3021 243.831 35.7565 244.008 36.0508C244.188 36.3424 244.458 36.4883 244.82 36.4883C245.177 36.4883 245.441 36.3503 245.613 36.0742C245.788 35.7982 245.879 35.3633 245.887 34.7695V33.5859ZM247.473 32.4062C247.473 32.0651 247.581 31.7839 247.797 31.5625C248.016 31.3411 248.296 31.2305 248.637 31.2305C248.983 31.2305 249.263 31.3424 249.477 31.5664C249.693 31.7878 249.801 32.0755 249.801 32.4297V32.707C249.801 33.0508 249.691 33.332 249.473 33.5508C249.257 33.7669 248.98 33.875 248.645 33.875C248.306 33.875 248.026 33.7669 247.805 33.5508C247.583 33.332 247.473 33.0417 247.473 32.6797V32.4062ZM248.012 32.707C248.012 32.9102 248.069 33.0781 248.184 33.2109C248.298 33.3411 248.452 33.4062 248.645 33.4062C248.829 33.4062 248.978 33.3424 249.09 33.2148C249.204 33.0872 249.262 32.9128 249.262 32.6914V32.4062C249.262 32.2031 249.206 32.0352 249.094 31.9023C248.982 31.7695 248.829 31.7031 248.637 31.7031C248.444 31.7031 248.292 31.7695 248.18 31.9023C248.068 32.0352 248.012 32.2083 248.012 32.4219V32.707ZM250.242 35.6055C250.242 35.2643 250.35 34.9844 250.566 34.7656C250.785 34.5443 251.065 34.4336 251.406 34.4336C251.747 34.4336 252.027 34.543 252.246 34.7617C252.465 34.9805 252.574 35.2708 252.574 35.6328V35.9102C252.574 36.2513 252.465 36.5326 252.246 36.7539C252.03 36.9727 251.753 37.082 251.414 37.082C251.076 37.082 250.796 36.974 250.574 36.7578C250.353 36.5391 250.242 36.2487 250.242 35.8867V35.6055ZM250.781 35.9102C250.781 36.1159 250.839 36.2852 250.953 36.418C251.068 36.5482 251.221 36.6133 251.414 36.6133C251.602 36.6133 251.751 36.5495 251.863 36.4219C251.975 36.2917 252.031 36.1159 252.031 35.8945V35.6055C252.031 35.3997 251.974 35.2318 251.859 35.1016C251.747 34.9714 251.596 34.9062 251.406 34.9062C251.221 34.9062 251.07 34.9714 250.953 35.1016C250.839 35.2292 250.781 35.4023 250.781 35.6211V35.9102ZM248.809 36.5703L248.398 36.3125L251.176 31.8672L251.586 32.125L248.809 36.5703Z" fill="#F8F8F8"/>
<path d="M414.805 80.1484L415.094 77.3125H418.008V77.9805H415.707L415.535 79.5312C415.814 79.3672 416.13 79.2852 416.484 79.2852C417.003 79.2852 417.414 79.457 417.719 79.8008C418.023 80.1419 418.176 80.6042 418.176 81.1875C418.176 81.7734 418.017 82.2357 417.699 82.5742C417.384 82.9102 416.943 83.0781 416.375 83.0781C415.872 83.0781 415.462 82.9388 415.145 82.6602C414.827 82.3815 414.646 81.9961 414.602 81.5039H415.285C415.329 81.8294 415.445 82.0755 415.633 82.2422C415.82 82.4062 416.068 82.4883 416.375 82.4883C416.711 82.4883 416.974 82.3737 417.164 82.1445C417.357 81.9154 417.453 81.599 417.453 81.1953C417.453 80.8151 417.349 80.5104 417.141 80.2812C416.935 80.0495 416.66 79.9336 416.316 79.9336C416.001 79.9336 415.754 80.0026 415.574 80.1406L415.383 80.2969L414.805 80.1484ZM422.531 80.5742C422.531 81.4206 422.387 82.0495 422.098 82.4609C421.809 82.8724 421.357 83.0781 420.742 83.0781C420.135 83.0781 419.686 82.8776 419.395 82.4766C419.103 82.0729 418.952 81.4714 418.941 80.6719V79.707C418.941 78.8711 419.086 78.25 419.375 77.8438C419.664 77.4375 420.117 77.2344 420.734 77.2344C421.346 77.2344 421.797 77.431 422.086 77.8242C422.375 78.2148 422.523 78.819 422.531 79.6367V80.5742ZM421.809 79.5859C421.809 78.974 421.723 78.5286 421.551 78.25C421.379 77.9688 421.107 77.8281 420.734 77.8281C420.365 77.8281 420.095 77.9674 419.926 78.2461C419.757 78.5247 419.669 78.9531 419.664 79.5312V80.6875C419.664 81.3021 419.753 81.7565 419.93 82.0508C420.109 82.3424 420.38 82.4883 420.742 82.4883C421.099 82.4883 421.363 82.3503 421.535 82.0742C421.71 81.7982 421.801 81.3633 421.809 80.7695V79.5859ZM423.395 78.4062C423.395 78.0651 423.503 77.7839 423.719 77.5625C423.938 77.3411 424.217 77.2305 424.559 77.2305C424.905 77.2305 425.185 77.3424 425.398 77.5664C425.615 77.7878 425.723 78.0755 425.723 78.4297V78.707C425.723 79.0508 425.613 79.332 425.395 79.5508C425.178 79.7669 424.902 79.875 424.566 79.875C424.228 79.875 423.948 79.7669 423.727 79.5508C423.505 79.332 423.395 79.0417 423.395 78.6797V78.4062ZM423.934 78.707C423.934 78.9102 423.991 79.0781 424.105 79.2109C424.22 79.3411 424.374 79.4062 424.566 79.4062C424.751 79.4062 424.9 79.3424 425.012 79.2148C425.126 79.0872 425.184 78.9128 425.184 78.6914V78.4062C425.184 78.2031 425.128 78.0352 425.016 77.9023C424.904 77.7695 424.751 77.7031 424.559 77.7031C424.366 77.7031 424.214 77.7695 424.102 77.9023C423.99 78.0352 423.934 78.2083 423.934 78.4219V78.707ZM426.164 81.6055C426.164 81.2643 426.272 80.9844 426.488 80.7656C426.707 80.5443 426.987 80.4336 427.328 80.4336C427.669 80.4336 427.949 80.543 428.168 80.7617C428.387 80.9805 428.496 81.2708 428.496 81.6328V81.9102C428.496 82.2513 428.387 82.5326 428.168 82.7539C427.952 82.9727 427.674 83.082 427.336 83.082C426.997 83.082 426.717 82.974 426.496 82.7578C426.275 82.5391 426.164 82.2487 426.164 81.8867V81.6055ZM426.703 81.9102C426.703 82.1159 426.76 82.2852 426.875 82.418C426.99 82.5482 427.143 82.6133 427.336 82.6133C427.523 82.6133 427.673 82.5495 427.785 82.4219C427.897 82.2917 427.953 82.1159 427.953 81.8945V81.6055C427.953 81.3997 427.896 81.2318 427.781 81.1016C427.669 80.9714 427.518 80.9062 427.328 80.9062C427.143 80.9062 426.992 80.9714 426.875 81.1016C426.76 81.2292 426.703 81.4023 426.703 81.6211V81.9102ZM424.73 82.5703L424.32 82.3125L427.098 77.8672L427.508 78.125L424.73 82.5703Z" fill="#F8F8F8"/>
<path d="M104.223 31.7188L101.867 37H101.109L103.457 31.9062H100.379V31.3125H104.223V31.7188ZM105.375 34.1484L105.664 31.3125H108.578V31.9805H106.277L106.105 33.5312C106.384 33.3672 106.701 33.2852 107.055 33.2852C107.573 33.2852 107.984 33.457 108.289 33.8008C108.594 34.1419 108.746 34.6042 108.746 35.1875C108.746 35.7734 108.587 36.2357 108.27 36.5742C107.954 36.9102 107.513 37.0781 106.945 37.0781C106.443 37.0781 106.033 36.9388 105.715 36.6602C105.397 36.3815 105.216 35.9961 105.172 35.5039H105.855C105.9 35.8294 106.016 36.0755 106.203 36.2422C106.391 36.4062 106.638 36.4883 106.945 36.4883C107.281 36.4883 107.544 36.3737 107.734 36.1445C107.927 35.9154 108.023 35.599 108.023 35.1953C108.023 34.8151 107.919 34.5104 107.711 34.2812C107.505 34.0495 107.23 33.9336 106.887 33.9336C106.572 33.9336 106.324 34.0026 106.145 34.1406L105.953 34.2969L105.375 34.1484ZM109.473 32.4062C109.473 32.0651 109.581 31.7839 109.797 31.5625C110.016 31.3411 110.296 31.2305 110.637 31.2305C110.983 31.2305 111.263 31.3424 111.477 31.5664C111.693 31.7878 111.801 32.0755 111.801 32.4297V32.707C111.801 33.0508 111.691 33.332 111.473 33.5508C111.257 33.7669 110.98 33.875 110.645 33.875C110.306 33.875 110.026 33.7669 109.805 33.5508C109.583 33.332 109.473 33.0417 109.473 32.6797V32.4062ZM110.012 32.707C110.012 32.9102 110.069 33.0781 110.184 33.2109C110.298 33.3411 110.452 33.4062 110.645 33.4062C110.829 33.4062 110.978 33.3424 111.09 33.2148C111.204 33.0872 111.262 32.9128 111.262 32.6914V32.4062C111.262 32.2031 111.206 32.0352 111.094 31.9023C110.982 31.7695 110.829 31.7031 110.637 31.7031C110.444 31.7031 110.292 31.7695 110.18 31.9023C110.068 32.0352 110.012 32.2083 110.012 32.4219V32.707ZM112.242 35.6055C112.242 35.2643 112.35 34.9844 112.566 34.7656C112.785 34.5443 113.065 34.4336 113.406 34.4336C113.747 34.4336 114.027 34.543 114.246 34.7617C114.465 34.9805 114.574 35.2708 114.574 35.6328V35.9102C114.574 36.2513 114.465 36.5326 114.246 36.7539C114.03 36.9727 113.753 37.082 113.414 37.082C113.076 37.082 112.796 36.974 112.574 36.7578C112.353 36.5391 112.242 36.2487 112.242 35.8867V35.6055ZM112.781 35.9102C112.781 36.1159 112.839 36.2852 112.953 36.418C113.068 36.5482 113.221 36.6133 113.414 36.6133C113.602 36.6133 113.751 36.5495 113.863 36.4219C113.975 36.2917 114.031 36.1159 114.031 35.8945V35.6055C114.031 35.3997 113.974 35.2318 113.859 35.1016C113.747 34.9714 113.596 34.9062 113.406 34.9062C113.221 34.9062 113.07 34.9714 112.953 35.1016C112.839 35.2292 112.781 35.4023 112.781 35.6211V35.9102ZM110.809 36.5703L110.398 36.3125L113.176 31.8672L113.586 32.125L110.809 36.5703Z" fill="#F8F8F8"/>
<path d="M274.277 37H270.551V36.4805L272.52 34.293C272.811 33.9622 273.012 33.694 273.121 33.4883C273.233 33.2799 273.289 33.0651 273.289 32.8438C273.289 32.5469 273.199 32.3034 273.02 32.1133C272.84 31.9232 272.6 31.8281 272.301 31.8281C271.941 31.8281 271.661 31.931 271.461 32.1367C271.263 32.3398 271.164 32.6237 271.164 32.9883H270.441C270.441 32.4648 270.609 32.0417 270.945 31.7188C271.284 31.3958 271.736 31.2344 272.301 31.2344C272.829 31.2344 273.247 31.3737 273.555 31.6523C273.862 31.9284 274.016 32.2969 274.016 32.7578C274.016 33.3177 273.659 33.9844 272.945 34.7578L271.422 36.4102H274.277V37ZM275.375 34.1484L275.664 31.3125H278.578V31.9805H276.277L276.105 33.5312C276.384 33.3672 276.701 33.2852 277.055 33.2852C277.573 33.2852 277.984 33.457 278.289 33.8008C278.594 34.1419 278.746 34.6042 278.746 35.1875C278.746 35.7734 278.587 36.2357 278.27 36.5742C277.954 36.9102 277.513 37.0781 276.945 37.0781C276.443 37.0781 276.033 36.9388 275.715 36.6602C275.397 36.3815 275.216 35.9961 275.172 35.5039H275.855C275.9 35.8294 276.016 36.0755 276.203 36.2422C276.391 36.4062 276.638 36.4883 276.945 36.4883C277.281 36.4883 277.544 36.3737 277.734 36.1445C277.927 35.9154 278.023 35.599 278.023 35.1953C278.023 34.8151 277.919 34.5104 277.711 34.2812C277.505 34.0495 277.23 33.9336 276.887 33.9336C276.572 33.9336 276.324 34.0026 276.145 34.1406L275.953 34.2969L275.375 34.1484ZM279.473 32.4062C279.473 32.0651 279.581 31.7839 279.797 31.5625C280.016 31.3411 280.296 31.2305 280.637 31.2305C280.983 31.2305 281.263 31.3424 281.477 31.5664C281.693 31.7878 281.801 32.0755 281.801 32.4297V32.707C281.801 33.0508 281.691 33.332 281.473 33.5508C281.257 33.7669 280.98 33.875 280.645 33.875C280.306 33.875 280.026 33.7669 279.805 33.5508C279.583 33.332 279.473 33.0417 279.473 32.6797V32.4062ZM280.012 32.707C280.012 32.9102 280.069 33.0781 280.184 33.2109C280.298 33.3411 280.452 33.4062 280.645 33.4062C280.829 33.4062 280.978 33.3424 281.09 33.2148C281.204 33.0872 281.262 32.9128 281.262 32.6914V32.4062C281.262 32.2031 281.206 32.0352 281.094 31.9023C280.982 31.7695 280.829 31.7031 280.637 31.7031C280.444 31.7031 280.292 31.7695 280.18 31.9023C280.068 32.0352 280.012 32.2083 280.012 32.4219V32.707ZM282.242 35.6055C282.242 35.2643 282.35 34.9844 282.566 34.7656C282.785 34.5443 283.065 34.4336 283.406 34.4336C283.747 34.4336 284.027 34.543 284.246 34.7617C284.465 34.9805 284.574 35.2708 284.574 35.6328V35.9102C284.574 36.2513 284.465 36.5326 284.246 36.7539C284.03 36.9727 283.753 37.082 283.414 37.082C283.076 37.082 282.796 36.974 282.574 36.7578C282.353 36.5391 282.242 36.2487 282.242 35.8867V35.6055ZM282.781 35.9102C282.781 36.1159 282.839 36.2852 282.953 36.418C283.068 36.5482 283.221 36.6133 283.414 36.6133C283.602 36.6133 283.751 36.5495 283.863 36.4219C283.975 36.2917 284.031 36.1159 284.031 35.8945V35.6055C284.031 35.3997 283.974 35.2318 283.859 35.1016C283.747 34.9714 283.596 34.9062 283.406 34.9062C283.221 34.9062 283.07 34.9714 282.953 35.1016C282.839 35.2292 282.781 35.4023 282.781 35.6211V35.9102ZM280.809 36.5703L280.398 36.3125L283.176 31.8672L283.586 32.125L280.809 36.5703Z" fill="#F8F8F8"/>
<path d="M418.145 64.7188L415.789 70H415.031L417.379 64.9062H414.301V64.3125H418.145V64.7188ZM419.297 67.1484L419.586 64.3125H422.5V64.9805H420.199L420.027 66.5312C420.306 66.3672 420.622 66.2852 420.977 66.2852C421.495 66.2852 421.906 66.457 422.211 66.8008C422.516 67.1419 422.668 67.6042 422.668 68.1875C422.668 68.7734 422.509 69.2357 422.191 69.5742C421.876 69.9102 421.435 70.0781 420.867 70.0781C420.365 70.0781 419.954 69.9388 419.637 69.6602C419.319 69.3815 419.138 68.9961 419.094 68.5039H419.777C419.822 68.8294 419.938 69.0755 420.125 69.2422C420.312 69.4062 420.56 69.4883 420.867 69.4883C421.203 69.4883 421.466 69.3737 421.656 69.1445C421.849 68.9154 421.945 68.599 421.945 68.1953C421.945 67.8151 421.841 67.5104 421.633 67.2812C421.427 67.0495 421.152 66.9336 420.809 66.9336C420.493 66.9336 420.246 67.0026 420.066 67.1406L419.875 67.2969L419.297 67.1484ZM423.395 65.4062C423.395 65.0651 423.503 64.7839 423.719 64.5625C423.938 64.3411 424.217 64.2305 424.559 64.2305C424.905 64.2305 425.185 64.3424 425.398 64.5664C425.615 64.7878 425.723 65.0755 425.723 65.4297V65.707C425.723 66.0508 425.613 66.332 425.395 66.5508C425.178 66.7669 424.902 66.875 424.566 66.875C424.228 66.875 423.948 66.7669 423.727 66.5508C423.505 66.332 423.395 66.0417 423.395 65.6797V65.4062ZM423.934 65.707C423.934 65.9102 423.991 66.0781 424.105 66.2109C424.22 66.3411 424.374 66.4062 424.566 66.4062C424.751 66.4062 424.9 66.3424 425.012 66.2148C425.126 66.0872 425.184 65.9128 425.184 65.6914V65.4062C425.184 65.2031 425.128 65.0352 425.016 64.9023C424.904 64.7695 424.751 64.7031 424.559 64.7031C424.366 64.7031 424.214 64.7695 424.102 64.9023C423.99 65.0352 423.934 65.2083 423.934 65.4219V65.707ZM426.164 68.6055C426.164 68.2643 426.272 67.9844 426.488 67.7656C426.707 67.5443 426.987 67.4336 427.328 67.4336C427.669 67.4336 427.949 67.543 428.168 67.7617C428.387 67.9805 428.496 68.2708 428.496 68.6328V68.9102C428.496 69.2513 428.387 69.5326 428.168 69.7539C427.952 69.9727 427.674 70.082 427.336 70.082C426.997 70.082 426.717 69.974 426.496 69.7578C426.275 69.5391 426.164 69.2487 426.164 68.8867V68.6055ZM426.703 68.9102C426.703 69.1159 426.76 69.2852 426.875 69.418C426.99 69.5482 427.143 69.6133 427.336 69.6133C427.523 69.6133 427.673 69.5495 427.785 69.4219C427.897 69.2917 427.953 69.1159 427.953 68.8945V68.6055C427.953 68.3997 427.896 68.2318 427.781 68.1016C427.669 67.9714 427.518 67.9062 427.328 67.9062C427.143 67.9062 426.992 67.9714 426.875 68.1016C426.76 68.2292 426.703 68.4023 426.703 68.6211V68.9102ZM424.73 69.5703L424.32 69.3125L427.098 64.8672L427.508 65.125L424.73 69.5703Z" fill="#F8F8F8"/>
<path d="M132.68 37H131.953V32.1836L130.496 32.7188V32.0625L132.566 31.2852H132.68V37ZM138.363 34.5742C138.363 35.4206 138.219 36.0495 137.93 36.4609C137.641 36.8724 137.189 37.0781 136.574 37.0781C135.967 37.0781 135.518 36.8776 135.227 36.4766C134.935 36.0729 134.784 35.4714 134.773 34.6719V33.707C134.773 32.8711 134.918 32.25 135.207 31.8438C135.496 31.4375 135.949 31.2344 136.566 31.2344C137.178 31.2344 137.629 31.431 137.918 31.8242C138.207 32.2148 138.355 32.819 138.363 33.6367V34.5742ZM137.641 33.5859C137.641 32.974 137.555 32.5286 137.383 32.25C137.211 31.9688 136.939 31.8281 136.566 31.8281C136.197 31.8281 135.927 31.9674 135.758 32.2461C135.589 32.5247 135.501 32.9531 135.496 33.5312V34.6875C135.496 35.3021 135.585 35.7565 135.762 36.0508C135.941 36.3424 136.212 36.4883 136.574 36.4883C136.931 36.4883 137.195 36.3503 137.367 36.0742C137.542 35.7982 137.633 35.3633 137.641 34.7695V33.5859ZM142.855 34.5742C142.855 35.4206 142.711 36.0495 142.422 36.4609C142.133 36.8724 141.681 37.0781 141.066 37.0781C140.46 37.0781 140.01 36.8776 139.719 36.4766C139.427 36.0729 139.276 35.4714 139.266 34.6719V33.707C139.266 32.8711 139.41 32.25 139.699 31.8438C139.988 31.4375 140.441 31.2344 141.059 31.2344C141.671 31.2344 142.121 31.431 142.41 31.8242C142.699 32.2148 142.848 32.819 142.855 33.6367V34.5742ZM142.133 33.5859C142.133 32.974 142.047 32.5286 141.875 32.25C141.703 31.9688 141.431 31.8281 141.059 31.8281C140.689 31.8281 140.419 31.9674 140.25 32.2461C140.081 32.5247 139.993 32.9531 139.988 33.5312V34.6875C139.988 35.3021 140.077 35.7565 140.254 36.0508C140.434 36.3424 140.704 36.4883 141.066 36.4883C141.423 36.4883 141.688 36.3503 141.859 36.0742C142.034 35.7982 142.125 35.3633 142.133 34.7695V33.5859ZM143.719 32.4062C143.719 32.0651 143.827 31.7839 144.043 31.5625C144.262 31.3411 144.542 31.2305 144.883 31.2305C145.229 31.2305 145.509 31.3424 145.723 31.5664C145.939 31.7878 146.047 32.0755 146.047 32.4297V32.707C146.047 33.0508 145.938 33.332 145.719 33.5508C145.503 33.7669 145.227 33.875 144.891 33.875C144.552 33.875 144.272 33.7669 144.051 33.5508C143.829 33.332 143.719 33.0417 143.719 32.6797V32.4062ZM144.258 32.707C144.258 32.9102 144.315 33.0781 144.43 33.2109C144.544 33.3411 144.698 33.4062 144.891 33.4062C145.076 33.4062 145.224 33.3424 145.336 33.2148C145.451 33.0872 145.508 32.9128 145.508 32.6914V32.4062C145.508 32.2031 145.452 32.0352 145.34 31.9023C145.228 31.7695 145.076 31.7031 144.883 31.7031C144.69 31.7031 144.538 31.7695 144.426 31.9023C144.314 32.0352 144.258 32.2083 144.258 32.4219V32.707ZM146.488 35.6055C146.488 35.2643 146.596 34.9844 146.812 34.7656C147.031 34.5443 147.311 34.4336 147.652 34.4336C147.993 34.4336 148.273 34.543 148.492 34.7617C148.711 34.9805 148.82 35.2708 148.82 35.6328V35.9102C148.82 36.2513 148.711 36.5326 148.492 36.7539C148.276 36.9727 147.999 37.082 147.66 37.082C147.322 37.082 147.042 36.974 146.82 36.7578C146.599 36.5391 146.488 36.2487 146.488 35.8867V35.6055ZM147.027 35.9102C147.027 36.1159 147.085 36.2852 147.199 36.418C147.314 36.5482 147.467 36.6133 147.66 36.6133C147.848 36.6133 147.997 36.5495 148.109 36.4219C148.221 36.2917 148.277 36.1159 148.277 35.8945V35.6055C148.277 35.3997 148.22 35.2318 148.105 35.1016C147.993 34.9714 147.842 34.9062 147.652 34.9062C147.467 34.9062 147.316 34.9714 147.199 35.1016C147.085 35.2292 147.027 35.4023 147.027 35.6211V35.9102ZM145.055 36.5703L144.645 36.3125L147.422 31.8672L147.832 32.125L145.055 36.5703Z" fill="#F8F8F8"/>
<path d="M308.363 34.5742C308.363 35.4206 308.219 36.0495 307.93 36.4609C307.641 36.8724 307.189 37.0781 306.574 37.0781C305.967 37.0781 305.518 36.8776 305.227 36.4766C304.935 36.0729 304.784 35.4714 304.773 34.6719V33.707C304.773 32.8711 304.918 32.25 305.207 31.8438C305.496 31.4375 305.949 31.2344 306.566 31.2344C307.178 31.2344 307.629 31.431 307.918 31.8242C308.207 32.2148 308.355 32.819 308.363 33.6367V34.5742ZM307.641 33.5859C307.641 32.974 307.555 32.5286 307.383 32.25C307.211 31.9688 306.939 31.8281 306.566 31.8281C306.197 31.8281 305.927 31.9674 305.758 32.2461C305.589 32.5247 305.501 32.9531 305.496 33.5312V34.6875C305.496 35.3021 305.585 35.7565 305.762 36.0508C305.941 36.3424 306.212 36.4883 306.574 36.4883C306.931 36.4883 307.195 36.3503 307.367 36.0742C307.542 35.7982 307.633 35.3633 307.641 34.7695V33.5859ZM309.227 32.4062C309.227 32.0651 309.335 31.7839 309.551 31.5625C309.77 31.3411 310.049 31.2305 310.391 31.2305C310.737 31.2305 311.017 31.3424 311.23 31.5664C311.447 31.7878 311.555 32.0755 311.555 32.4297V32.707C311.555 33.0508 311.445 33.332 311.227 33.5508C311.01 33.7669 310.734 33.875 310.398 33.875C310.06 33.875 309.78 33.7669 309.559 33.5508C309.337 33.332 309.227 33.0417 309.227 32.6797V32.4062ZM309.766 32.707C309.766 32.9102 309.823 33.0781 309.938 33.2109C310.052 33.3411 310.206 33.4062 310.398 33.4062C310.583 33.4062 310.732 33.3424 310.844 33.2148C310.958 33.0872 311.016 32.9128 311.016 32.6914V32.4062C311.016 32.2031 310.96 32.0352 310.848 31.9023C310.736 31.7695 310.583 31.7031 310.391 31.7031C310.198 31.7031 310.046 31.7695 309.934 31.9023C309.822 32.0352 309.766 32.2083 309.766 32.4219V32.707ZM311.996 35.6055C311.996 35.2643 312.104 34.9844 312.32 34.7656C312.539 34.5443 312.819 34.4336 313.16 34.4336C313.501 34.4336 313.781 34.543 314 34.7617C314.219 34.9805 314.328 35.2708 314.328 35.6328V35.9102C314.328 36.2513 314.219 36.5326 314 36.7539C313.784 36.9727 313.507 37.082 313.168 37.082C312.829 37.082 312.549 36.974 312.328 36.7578C312.107 36.5391 311.996 36.2487 311.996 35.8867V35.6055ZM312.535 35.9102C312.535 36.1159 312.592 36.2852 312.707 36.418C312.822 36.5482 312.975 36.6133 313.168 36.6133C313.355 36.6133 313.505 36.5495 313.617 36.4219C313.729 36.2917 313.785 36.1159 313.785 35.8945V35.6055C313.785 35.3997 313.728 35.2318 313.613 35.1016C313.501 34.9714 313.35 34.9062 313.16 34.9062C312.975 34.9062 312.824 34.9714 312.707 35.1016C312.592 35.2292 312.535 35.4023 312.535 35.6211V35.9102ZM310.562 36.5703L310.152 36.3125L312.93 31.8672L313.34 32.125L310.562 36.5703Z" fill="#F8F8F8"/>
<path d="M415.848 54H415.121V49.1836L413.664 49.7188V49.0625L415.734 48.2852H415.848V54ZM421.531 51.5742C421.531 52.4206 421.387 53.0495 421.098 53.4609C420.809 53.8724 420.357 54.0781 419.742 54.0781C419.135 54.0781 418.686 53.8776 418.395 53.4766C418.103 53.0729 417.952 52.4714 417.941 51.6719V50.707C417.941 49.8711 418.086 49.25 418.375 48.8438C418.664 48.4375 419.117 48.2344 419.734 48.2344C420.346 48.2344 420.797 48.431 421.086 48.8242C421.375 49.2148 421.523 49.819 421.531 50.6367V51.5742ZM420.809 50.5859C420.809 49.974 420.723 49.5286 420.551 49.25C420.379 48.9688 420.107 48.8281 419.734 48.8281C419.365 48.8281 419.095 48.9674 418.926 49.2461C418.757 49.5247 418.669 49.9531 418.664 50.5312V51.6875C418.664 52.3021 418.753 52.7565 418.93 53.0508C419.109 53.3424 419.38 53.4883 419.742 53.4883C420.099 53.4883 420.363 53.3503 420.535 53.0742C420.71 52.7982 420.801 52.3633 420.809 51.7695V50.5859ZM426.023 51.5742C426.023 52.4206 425.879 53.0495 425.59 53.4609C425.301 53.8724 424.849 54.0781 424.234 54.0781C423.628 54.0781 423.178 53.8776 422.887 53.4766C422.595 53.0729 422.444 52.4714 422.434 51.6719V50.707C422.434 49.8711 422.578 49.25 422.867 48.8438C423.156 48.4375 423.609 48.2344 424.227 48.2344C424.839 48.2344 425.289 48.431 425.578 48.8242C425.867 49.2148 426.016 49.819 426.023 50.6367V51.5742ZM425.301 50.5859C425.301 49.974 425.215 49.5286 425.043 49.25C424.871 48.9688 424.599 48.8281 424.227 48.8281C423.857 48.8281 423.587 48.9674 423.418 49.2461C423.249 49.5247 423.161 49.9531 423.156 50.5312V51.6875C423.156 52.3021 423.245 52.7565 423.422 53.0508C423.602 53.3424 423.872 53.4883 424.234 53.4883C424.591 53.4883 424.855 53.3503 425.027 53.0742C425.202 52.7982 425.293 52.3633 425.301 51.7695V50.5859ZM426.887 49.4062C426.887 49.0651 426.995 48.7839 427.211 48.5625C427.43 48.3411 427.71 48.2305 428.051 48.2305C428.397 48.2305 428.677 48.3424 428.891 48.5664C429.107 48.7878 429.215 49.0755 429.215 49.4297V49.707C429.215 50.0508 429.105 50.332 428.887 50.5508C428.671 50.7669 428.395 50.875 428.059 50.875C427.72 50.875 427.44 50.7669 427.219 50.5508C426.997 50.332 426.887 50.0417 426.887 49.6797V49.4062ZM427.426 49.707C427.426 49.9102 427.483 50.0781 427.598 50.2109C427.712 50.3411 427.866 50.4062 428.059 50.4062C428.243 50.4062 428.392 50.3424 428.504 50.2148C428.618 50.0872 428.676 49.9128 428.676 49.6914V49.4062C428.676 49.2031 428.62 49.0352 428.508 48.9023C428.396 48.7695 428.243 48.7031 428.051 48.7031C427.858 48.7031 427.706 48.7695 427.594 48.9023C427.482 49.0352 427.426 49.2083 427.426 49.4219V49.707ZM429.656 52.6055C429.656 52.2643 429.764 51.9844 429.98 51.7656C430.199 51.5443 430.479 51.4336 430.82 51.4336C431.161 51.4336 431.441 51.543 431.66 51.7617C431.879 51.9805 431.988 52.2708 431.988 52.6328V52.9102C431.988 53.2513 431.879 53.5326 431.66 53.7539C431.444 53.9727 431.167 54.082 430.828 54.082C430.49 54.082 430.21 53.974 429.988 53.7578C429.767 53.5391 429.656 53.2487 429.656 52.8867V52.6055ZM430.195 52.9102C430.195 53.1159 430.253 53.2852 430.367 53.418C430.482 53.5482 430.635 53.6133 430.828 53.6133C431.016 53.6133 431.165 53.5495 431.277 53.4219C431.389 53.2917 431.445 53.1159 431.445 52.8945V52.6055C431.445 52.3997 431.388 52.2318 431.273 52.1016C431.161 51.9714 431.01 51.9062 430.82 51.9062C430.635 51.9062 430.484 51.9714 430.367 52.1016C430.253 52.2292 430.195 52.4023 430.195 52.6211V52.9102ZM428.223 53.5703L427.812 53.3125L430.59 48.8672L431 49.125L428.223 53.5703Z" fill="#F8F8F8"/>
<rect x="8" y="46" width="8" height="37" fill="#1B1D1E"/>
<rect x="8" y="82" width="8" height="1" fill="#F8F8F8"/>
<circle cx="12" cy="92" r="12" fill="#F1F2F3"/>
<path d="M24 92C24 98.6274 18.6274 104 12 104C5.37258 104 0 98.6274 0 92C0 85.3726 5.37258 80 12 80C18.6274 80 24 85.3726 24 92ZM2.0623 92C2.0623 97.4884 6.51156 101.938 12 101.938C17.4884 101.938 21.9377 97.4884 21.9377 92C21.9377 86.5116 17.4884 82.0623 12 82.0623C6.51156 82.0623 2.0623 86.5116 2.0623 92Z" fill="#BEC0C2"/>
<path d="M12 80C14.7459 80 17.4088 80.9417 19.5441 82.668C21.6795 84.3943 23.1583 86.8007 23.7336 89.4857C24.309 92.1706 23.9461 94.9717 22.7055 97.4214C21.465 99.8711 19.4218 101.821 16.917 102.946L16.0696 101.06C18.1428 100.129 19.8338 98.5146 20.8606 96.4871C21.8874 94.4596 22.1877 92.1412 21.7115 89.919C21.2353 87.6967 20.0114 85.705 18.244 84.2762C16.4766 82.8474 14.2727 82.068 12 82.068V80Z" fill="#9E3FFF"/>
<path d="M12.0928 93.3447H9.33887L8.7627 95H7.47852L10.1641 87.8906H11.2725L13.9629 95H12.6738L12.0928 93.3447ZM9.68555 92.3486H11.7461L10.7158 89.3994L9.68555 92.3486ZM15.9209 95H14.7344V87.5H15.9209V95Z" fill="#293137"/>
<rect x="72" y="46" width="8" height="37" fill="#1B1D1E"/>
<rect x="72" y="62" width="8" height="21" fill="#F8F8F8"/>
<circle cx="76" cy="92" r="12" fill="#F1F2F3"/>
<path d="M88 92C88 98.6274 82.6274 104 76 104C69.3726 104 64 98.6274 64 92C64 85.3726 69.3726 80 76 80C82.6274 80 88 85.3726 88 92ZM66.0623 92C66.0623 97.4884 70.5116 101.938 76 101.938C81.4884 101.938 85.9377 97.4884 85.9377 92C85.9377 86.5116 81.4884 82.0623 76 82.0623C70.5116 82.0623 66.0623 86.5116 66.0623 92Z" fill="#BEC0C2"/>
<path d="M76 80C78.7459 80 81.4088 80.9417 83.5441 82.668C85.6795 84.3943 87.1583 86.8007 87.7336 89.4857C88.309 92.1706 87.9461 94.9717 86.7055 97.4214C85.465 99.8711 83.4218 101.821 80.917 102.946L80.0696 101.06C82.1428 100.129 83.8338 98.5146 84.8606 96.4871C85.8874 94.4596 86.1877 92.1412 85.7115 89.919C85.2353 87.6967 84.0114 85.705 82.244 84.2762C80.4766 82.8474 78.2727 82.068 76 82.068V80Z" fill="#9E3FFF"/>
<path d="M76.0928 93.3447H73.3389L72.7627 95H71.4785L74.1641 87.8906H75.2725L77.9629 95H76.6738L76.0928 93.3447ZM73.6855 92.3486H75.7461L74.7158 89.3994L73.6855 92.3486ZM79.9209 95H78.7344V87.5H79.9209V95Z" fill="#293137"/>
<rect x="40" y="46" width="8" height="37" fill="#1B1D1E"/>
<rect x="40" y="70" width="8" height="13" fill="#F8F8F8"/>
<circle cx="44" cy="92" r="12" fill="#F1F2F3"/>
<path d="M56 92C56 98.6274 50.6274 104 44 104C37.3726 104 32 98.6274 32 92C32 85.3726 37.3726 80 44 80C50.6274 80 56 85.3726 56 92ZM34.0623 92C34.0623 97.4884 38.5116 101.938 44 101.938C49.4884 101.938 53.9377 97.4884 53.9377 92C53.9377 86.5116 49.4884 82.0623 44 82.0623C38.5116 82.0623 34.0623 86.5116 34.0623 92Z" fill="#BEC0C2"/>
<path d="M44 80C46.7459 80 49.4088 80.9417 51.5441 82.668C53.6795 84.3943 55.1583 86.8007 55.7336 89.4857C56.309 92.1706 55.9461 94.9717 54.7055 97.4214C53.465 99.8711 51.4218 101.821 48.917 102.946L48.0696 101.06C50.1428 100.129 51.8338 98.5146 52.8606 96.4871C53.8874 94.4596 54.1877 92.1412 53.7115 89.919C53.2353 87.6967 52.0114 85.705 50.244 84.2762C48.4766 82.8474 46.2727 82.068 44 82.068V80Z" fill="#9E3FFF"/>
<path d="M44.0928 93.3447H41.3389L40.7627 95H39.4785L42.1641 87.8906H43.2725L45.9629 95H44.6738L44.0928 93.3447ZM41.6855 92.3486H43.7461L42.7158 89.3994L41.6855 92.3486ZM47.9209 95H46.7344V87.5H47.9209V95Z" fill="#293137"/>
<rect x="208" y="46" width="8" height="37" fill="#1B1D1E"/>
<rect x="208" y="70" width="8" height="13" fill="#F8F8F8"/>
<circle cx="212" cy="92" r="12" fill="#F1F2F3"/>
<path d="M224 92C224 98.6274 218.627 104 212 104C205.373 104 200 98.6274 200 92C200 85.3726 205.373 80 212 80C218.627 80 224 85.3726 224 92ZM202.062 92C202.062 97.4884 206.512 101.938 212 101.938C217.488 101.938 221.938 97.4884 221.938 92C221.938 86.5116 217.488 82.0623 212 82.0623C206.512 82.0623 202.062 86.5116 202.062 92Z" fill="#BEC0C2"/>
<path d="M212 80C214.373 80 216.693 80.7038 218.667 82.0224C220.64 83.3409 222.178 85.2151 223.087 87.4078C223.995 89.6005 224.232 92.0133 223.769 94.3411C223.306 96.6689 222.164 98.8071 220.485 100.485C218.807 102.164 216.669 103.306 214.341 103.769C212.013 104.232 209.601 103.995 207.408 103.087C205.215 102.178 203.341 100.64 202.022 98.6668C200.704 96.6935 200 94.3734 200 92H202.068C202.068 93.9644 202.651 95.8846 203.742 97.5179C204.833 99.1512 206.384 100.424 208.199 101.176C210.014 101.928 212.011 102.124 213.938 101.741C215.864 101.358 217.634 100.412 219.023 99.023C220.412 97.634 221.358 95.8643 221.741 93.9376C222.124 92.011 221.928 90.014 221.176 88.1992C220.424 86.3844 219.151 84.8332 217.518 83.7418C215.885 82.6505 213.964 82.068 212 82.068V80Z" fill="#9E3FFF"/>
<path d="M212.093 93.3447H209.339L208.763 95H207.479L210.164 87.8906H211.272L213.963 95H212.674L212.093 93.3447ZM209.686 92.3486H211.746L210.716 89.3994L209.686 92.3486ZM215.921 95H214.734V87.5H215.921V95Z" fill="#293137"/>
<rect x="272" y="46" width="8" height="37" fill="#1B1D1E"/>
<rect x="272" y="70" width="8" height="13" fill="#F8F8F8"/>
<circle cx="276" cy="92" r="12" fill="#F1F2F3"/>
<path d="M288 92C288 98.6274 282.627 104 276 104C269.373 104 264 98.6274 264 92C264 85.3726 269.373 80 276 80C282.627 80 288 85.3726 288 92ZM266.062 92C266.062 97.4884 270.512 101.938 276 101.938C281.488 101.938 285.938 97.4884 285.938 92C285.938 86.5116 281.488 82.0623 276 82.0623C270.512 82.0623 266.062 86.5116 266.062 92Z" fill="#BEC0C2"/>
<path d="M276 80C277.576 80 279.136 80.3104 280.592 80.9134C282.048 81.5165 283.371 82.4004 284.485 83.5147C285.6 84.629 286.483 85.9519 287.087 87.4078C287.69 88.8637 288 90.4241 288 92H285.932C285.932 90.6957 285.675 89.4042 285.176 88.1992C284.677 86.9942 283.945 85.8993 283.023 84.977C282.101 84.0547 281.006 83.3232 279.801 82.824C278.596 82.3249 277.304 82.068 276 82.068V80Z" fill="#9E3FFF"/>
<path d="M276.093 93.3447H273.339L272.763 95H271.479L274.164 87.8906H275.272L277.963 95H276.674L276.093 93.3447ZM273.686 92.3486H275.746L274.716 89.3994L273.686 92.3486ZM279.921 95H278.734V87.5H279.921V95Z" fill="#293137"/>
<rect x="240" y="46" width="8" height="37" fill="#1B1D1E"/>
<rect x="240" y="70" width="8" height="13" fill="#F8F8F8"/>
<circle cx="244" cy="92" r="12" fill="#F1F2F3"/>
<path d="M256 92C256 98.6274 250.627 104 244 104C237.373 104 232 98.6274 232 92C232 85.3726 237.373 80 244 80C250.627 80 256 85.3726 256 92ZM234.062 92C234.062 97.4884 238.512 101.938 244 101.938C249.488 101.938 253.938 97.4884 253.938 92C253.938 86.5116 249.488 82.0623 244 82.0623C238.512 82.0623 234.062 86.5116 234.062 92Z" fill="#BEC0C2"/>
<path d="M244 80C245.576 80 247.136 80.3104 248.592 80.9134C250.048 81.5165 251.371 82.4004 252.485 83.5147C253.6 84.629 254.483 85.9519 255.087 87.4078C255.69 88.8637 256 90.4241 256 92C256 93.5759 255.69 95.1363 255.087 96.5922C254.483 98.0481 253.6 99.371 252.485 100.485C251.371 101.6 250.048 102.483 248.592 103.087C247.136 103.69 245.576 104 244 104V101.932C245.304 101.932 246.596 101.675 247.801 101.176C249.006 100.677 250.101 99.9453 251.023 99.023C251.945 98.1007 252.677 97.0058 253.176 95.8008C253.675 94.5958 253.932 93.3043 253.932 92C253.932 90.6957 253.675 89.4042 253.176 88.1992C252.677 86.9942 251.945 85.8993 251.023 84.977C250.101 84.0547 249.006 83.3232 247.801 82.824C246.596 82.3249 245.304 82.068 244 82.068V80Z" fill="#9E3FFF"/>
<path d="M244.093 93.3447H241.339L240.763 95H239.479L242.164 87.8906H243.272L245.963 95H244.674L244.093 93.3447ZM241.686 92.3486H243.746L242.716 89.3994L241.686 92.3486ZM247.921 95H246.734V87.5H247.921V95Z" fill="#293137"/>
<rect x="304" y="46" width="8" height="37" fill="#1B1D1E"/>
<rect x="304" y="70" width="8" height="13" fill="#F8F8F8"/>
<circle cx="308" cy="92" r="12" fill="#F1F2F3"/>
<path d="M320 92C320 98.6274 314.627 104 308 104C301.373 104 296 98.6274 296 92C296 85.3726 301.373 80 308 80C314.627 80 320 85.3726 320 92ZM298.062 92C298.062 97.4884 302.512 101.938 308 101.938C313.488 101.938 317.938 97.4884 317.938 92C317.938 86.5116 313.488 82.0623 308 82.0623C302.512 82.0623 298.062 86.5116 298.062 92Z" fill="#BEC0C2"/>
<path d="M308.093 93.3447H305.339L304.763 95H303.479L306.164 87.8906H307.272L309.963 95H308.674L308.093 93.3447ZM305.686 92.3486H307.746L306.716 89.3994L305.686 92.3486ZM311.921 95H310.734V87.5H311.921V95Z" fill="#293137"/>
<rect x="176" y="46" width="8" height="37" fill="#1B1D1E"/>
<rect x="176" y="70" width="8" height="13" fill="#F8F8F8"/>
<circle cx="180" cy="92" r="12" fill="#F1F2F3"/>
<path d="M192 92C192 98.6274 186.627 104 180 104C173.373 104 168 98.6274 168 92C168 85.3726 173.373 80 180 80C186.627 80 192 85.3726 192 92ZM170.062 92C170.062 97.4884 174.512 101.938 180 101.938C185.488 101.938 189.938 97.4884 189.938 92C189.938 86.5116 185.488 82.0623 180 82.0623C174.512 82.0623 170.062 86.5116 170.062 92Z" fill="#BEC0C2"/>
<path d="M192 92C192 98.6274 186.627 104 180 104C173.373 104 168 98.6274 168 92C168 85.3726 173.373 80 180 80C186.627 80 192 85.3726 192 92ZM170.068 92C170.068 97.4853 174.515 101.932 180 101.932C185.485 101.932 189.932 97.4853 189.932 92C189.932 86.5147 185.485 82.068 180 82.068C174.515 82.068 170.068 86.5147 170.068 92Z" fill="#9E3FFF"/>
<path d="M180.093 93.3447H177.339L176.763 95H175.479L178.164 87.8906H179.272L181.963 95H180.674L180.093 93.3447ZM177.686 92.3486H179.746L178.716 89.3994L177.686 92.3486ZM183.921 95H182.734V87.5H183.921V95Z" fill="#293137"/>
<rect x="104" y="46" width="8" height="37" fill="#1B1D1E"/>
<rect x="104" y="54" width="8" height="29" fill="#F8F8F8"/>
<circle cx="108" cy="92" r="12" fill="#F1F2F3"/>
<path d="M120 92C120 98.6274 114.627 104 108 104C101.373 104 96 98.6274 96 92C96 85.3726 101.373 80 108 80C114.627 80 120 85.3726 120 92ZM98.0623 92C98.0623 97.4884 102.512 101.938 108 101.938C113.488 101.938 117.938 97.4884 117.938 92C117.938 86.5116 113.488 82.0623 108 82.0623C102.512 82.0623 98.0623 86.5116 98.0623 92Z" fill="#BEC0C2"/>
<path d="M108 80C110.746 80 113.409 80.9417 115.544 82.668C117.68 84.3943 119.158 86.8007 119.734 89.4857C120.309 92.1706 119.946 94.9717 118.706 97.4214C117.465 99.8711 115.422 101.821 112.917 102.946L112.07 101.06C114.143 100.129 115.834 98.5146 116.861 96.4871C117.887 94.4596 118.188 92.1412 117.712 89.919C117.235 87.6967 116.011 85.705 114.244 84.2762C112.477 82.8474 110.273 82.068 108 82.068V80Z" fill="#9E3FFF"/>
<path d="M108.093 93.3447H105.339L104.763 95H103.479L106.164 87.8906H107.272L109.963 95H108.674L108.093 93.3447ZM105.686 92.3486H107.746L106.716 89.3994L105.686 92.3486ZM111.921 95H110.734V87.5H111.921V95Z" fill="#293137"/>
<rect x="136" y="47" width="8" height="36" fill="#1B1D1E"/>
<rect x="136" y="46" width="8" height="37" fill="#F8F8F8"/>
<circle cx="140" cy="92" r="12" fill="#F1F2F3"/>
<path d="M152 92C152 98.6274 146.627 104 140 104C133.373 104 128 98.6274 128 92C128 85.3726 133.373 80 140 80C146.627 80 152 85.3726 152 92ZM130.062 92C130.062 97.4884 134.512 101.938 140 101.938C145.488 101.938 149.938 97.4884 149.938 92C149.938 86.5116 145.488 82.0623 140 82.0623C134.512 82.0623 130.062 86.5116 130.062 92Z" fill="#BEC0C2"/>
<path d="M140 80C142.746 80 145.409 80.9417 147.544 82.668C149.68 84.3943 151.158 86.8007 151.734 89.4857C152.309 92.1706 151.946 94.9717 150.706 97.4214C149.465 99.8711 147.422 101.821 144.917 102.946L144.07 101.06C146.143 100.129 147.834 98.5146 148.861 96.4871C149.887 94.4596 150.188 92.1412 149.712 89.919C149.235 87.6967 148.011 85.705 146.244 84.2762C144.477 82.8474 142.273 82.068 140 82.068V80Z" fill="#9E3FFF"/>
<path d="M140.093 93.3447H137.339L136.763 95H135.479L138.164 87.8906H139.272L141.963 95H140.674L140.093 93.3447ZM137.686 92.3486H139.746L138.716 89.3994L137.686 92.3486ZM143.921 95H142.734V87.5H143.921V95Z" fill="#293137"/>
<line x1="160.5" y1="54.5" x2="160.5" y2="77.5" stroke="#444C50" stroke-linecap="round"/>
<line x1="324.5" y1="54.5" x2="324.5" y2="77.5" stroke="#444C50" stroke-linecap="round"/>
</svg>
