<svg width="128" height="111" viewBox="0 0 128 111" fill="none" xmlns="http://www.w3.org/2000/svg">
<g filter="url(#filter0_d)">
<rect x="4" y="4" width="120" height="103" rx="8" fill="#1B1D1E"/>
<path d="M15.1582 16.0332L14.1152 17.1172V20H12.9902V11.4688H14.1152V15.6875L17.9062 11.4688H19.2656L15.9082 15.2363L19.5293 20H18.1816L15.1582 16.0332ZM25.3359 16.0566H21.6387V19.0801H25.9336V20H20.5137V11.4688H25.875V12.3945H21.6387V15.1367H25.3359V16.0566ZM29.9355 15.752L32.1621 11.4688H33.4395L30.498 16.8184V20H29.373V16.8184L26.4316 11.4688H27.7207L29.9355 15.752Z" fill="#BEC0C2"/>
<path d="M12 96H49" stroke="#91BFDB" stroke-linecap="round"/>
<path d="M12 88H49" stroke="#FC8D59" stroke-linecap="round"/>
<path d="M12 79H49" stroke="#9E3FFF" stroke-width="2" stroke-linecap="round"/>
<path d="M12 48H49" stroke="#969696" stroke-linecap="round"/>
<path d="M4 26H124" stroke="#293137"/>
<path d="M4 57H124" stroke="#293137"/>
<path d="M53.5284 81H54.0568V79.5852L54.6023 78.9716L56.1193 81H56.7585L54.9261 78.6051L56.7585 76.6364H56.0682L54.108 78.8011H54.0568V76.6364H53.5284V81ZM59.7889 81L60.2279 79.7642H61.9921L62.431 81H62.985L61.3827 76.6364H60.8372L59.235 81H59.7889ZM60.3941 79.2955L61.0929 77.3267H61.127L61.8259 79.2955H60.3941ZM64.3393 76.6364H63.8365V81H64.3393V76.6364ZM65.5003 82.2273H66.0031V80.4972H66.0458C66.1566 80.6761 66.3696 81.0682 67.0003 81.0682C67.8185 81.0682 68.3895 80.4119 68.3895 79.3722C68.3895 78.3409 67.8185 77.6847 66.9918 77.6847C66.3526 77.6847 66.1566 78.0767 66.0458 78.2472H65.9861V77.7273H65.5003V82.2273ZM65.9946 79.3636C65.9946 78.6307 66.3185 78.1364 66.9321 78.1364C67.5713 78.1364 67.8867 78.6733 67.8867 79.3636C67.8867 80.0625 67.5628 80.6165 66.9321 80.6165C66.327 80.6165 65.9946 80.1051 65.9946 79.3636ZM69.8994 79.0312C69.8994 78.4602 70.2637 78.1364 70.7602 78.1364C71.2332 78.1364 71.5187 78.4347 71.5187 78.9545V81H72.0216V78.9205C72.0216 78.0788 71.5741 77.6847 70.9051 77.6847C70.3895 77.6847 70.0954 77.8999 69.942 78.2386H69.8994V76.6364H69.3966V81H69.8994V79.0312ZM74.1445 81.0767C74.7156 81.0767 75.0139 80.7699 75.1161 80.5568H75.1417V81H75.6445V78.8438C75.6445 77.804 74.8519 77.6847 74.4343 77.6847C73.94 77.6847 73.3775 77.8551 73.1218 78.4517L73.5991 78.6222C73.7099 78.3835 73.972 78.1278 74.4514 78.1278C74.9137 78.1278 75.1417 78.3729 75.1417 78.7926V78.8097C75.1417 79.0526 74.8945 79.0312 74.298 79.108C73.6907 79.1868 73.0281 79.321 73.0281 80.071C73.0281 80.7102 73.5224 81.0767 74.1445 81.0767ZM74.2213 80.625C73.8207 80.625 73.5309 80.446 73.5309 80.0966C73.5309 79.7131 73.8803 79.5938 74.2724 79.5426C74.4855 79.517 75.0565 79.4574 75.1417 79.3551V79.8153C75.1417 80.2244 74.8178 80.625 74.2213 80.625Z" fill="#BCBCBC"/>
<path d="M53.7074 49L54.1463 47.7642H55.9105L56.3494 49H56.9034L55.3011 44.6364H54.7557L53.1534 49H53.7074ZM54.3125 47.2955L55.0114 45.3267H55.0455L55.7443 47.2955H54.3125ZM58.2578 44.6364H57.7549V49H58.2578V44.6364ZM59.9216 44.6364H59.4187V49H59.9216V44.6364ZM63.0783 49H65.6351V48.5312H63.6067V44.6364H63.0783V49ZM66.6251 49H67.1279V45.7273H66.6251V49ZM66.8808 45.1818C67.0768 45.1818 67.2387 45.0284 67.2387 44.8409C67.2387 44.6534 67.0768 44.5 66.8808 44.5C66.6847 44.5 66.5228 44.6534 66.5228 44.8409C66.5228 45.0284 66.6847 45.1818 66.8808 45.1818ZM68.7917 47.0312C68.7917 46.4602 69.1454 46.1364 69.627 46.1364C70.0936 46.1364 70.377 46.4411 70.377 46.9545V49H70.8798V46.9205C70.8798 46.0852 70.4345 45.6847 69.7719 45.6847C69.2775 45.6847 68.9707 45.9062 68.8173 46.2386H68.7747V45.7273H68.2889V49H68.7917V47.0312ZM73.4108 49.0682C74.0756 49.0682 74.5614 48.7358 74.7148 48.2415L74.229 48.1051C74.1012 48.446 73.805 48.6165 73.4108 48.6165C72.8206 48.6165 72.4137 48.2351 72.3902 47.5341H74.7659V47.321C74.7659 46.1023 74.0415 45.6847 73.3597 45.6847C72.4733 45.6847 71.8853 46.3835 71.8853 47.3892C71.8853 48.3949 72.4648 49.0682 73.4108 49.0682ZM72.3902 47.0994C72.4243 46.5902 72.7844 46.1364 73.3597 46.1364C73.9051 46.1364 74.2546 46.5455 74.2546 47.0994H72.3902ZM78.089 46.4602C77.9314 45.9957 77.5777 45.6847 76.9299 45.6847C76.2396 45.6847 75.7282 46.0767 75.7282 46.6307C75.7282 47.0824 75.9967 47.3849 76.5976 47.5256L77.143 47.6534C77.4733 47.7301 77.6288 47.8878 77.6288 48.1136C77.6288 48.3949 77.3305 48.625 76.8618 48.625C76.4505 48.625 76.1927 48.4482 76.1032 48.0966L75.626 48.2159C75.7432 48.772 76.2013 49.0682 76.8703 49.0682C77.6309 49.0682 78.1487 48.6527 78.1487 48.0881C78.1487 47.6321 77.8632 47.3445 77.2794 47.2017L76.7936 47.0824C76.4058 46.9865 76.2311 46.8565 76.2311 46.6051C76.2311 46.3239 76.5294 46.1193 76.9299 46.1193C77.3689 46.1193 77.55 46.3622 77.6373 46.5881L78.089 46.4602Z" fill="#BCBCBC"/>
<path d="M53.5284 97H56.196V96.5312H54.0568V95.0483H56.0256V94.5795H54.0568V93.1051H56.1619V92.6364H53.5284V97ZM59.6043 94.4602C59.4467 93.9957 59.093 93.6847 58.4453 93.6847C57.7549 93.6847 57.2436 94.0767 57.2436 94.6307C57.2436 95.0824 57.512 95.3849 58.1129 95.5256L58.6583 95.6534C58.9886 95.7301 59.1441 95.8878 59.1441 96.1136C59.1441 96.3949 58.8458 96.625 58.3771 96.625C57.9659 96.625 57.708 96.4482 57.6186 96.0966L57.1413 96.2159C57.2585 96.772 57.7166 97.0682 58.3856 97.0682C59.1463 97.0682 59.664 96.6527 59.664 96.0881C59.664 95.6321 59.3785 95.3445 58.7947 95.2017L58.3089 95.0824C57.9211 94.9865 57.7464 94.8565 57.7464 94.6051C57.7464 94.3239 58.0447 94.1193 58.4453 94.1193C58.8842 94.1193 59.0653 94.3622 59.1526 94.5881L59.6043 94.4602ZM61.9905 97.0682C62.7149 97.0682 63.1922 96.625 63.2774 96.0455H62.7746C62.6808 96.4034 62.3825 96.6165 61.9905 96.6165C61.3939 96.6165 61.0104 96.1222 61.0104 95.3636C61.0104 94.6222 61.4024 94.1364 61.9905 94.1364C62.4337 94.1364 62.6979 94.4091 62.7746 94.7074H63.2774C63.1922 94.0938 62.6723 93.6847 61.982 93.6847C61.0956 93.6847 60.5075 94.3835 60.5075 95.3807C60.5075 96.3608 61.07 97.0682 61.9905 97.0682ZM65.2156 97.0767C65.7866 97.0767 66.0849 96.7699 66.1872 96.5568H66.2127V97H66.7156V94.8438C66.7156 93.804 65.9229 93.6847 65.5053 93.6847C65.011 93.6847 64.4485 93.8551 64.1928 94.4517L64.6701 94.6222C64.7809 94.3835 65.043 94.1278 65.5224 94.1278C65.9847 94.1278 66.2127 94.3729 66.2127 94.7926V94.8097C66.2127 95.0526 65.9656 95.0312 65.369 95.108C64.7617 95.1868 64.0991 95.321 64.0991 96.071C64.0991 96.7102 64.5934 97.0767 65.2156 97.0767ZM65.2923 96.625C64.8917 96.625 64.6019 96.446 64.6019 96.0966C64.6019 95.7131 64.9514 95.5938 65.3434 95.5426C65.5565 95.517 66.1275 95.4574 66.2127 95.3551V95.8153C66.2127 96.2244 65.8889 96.625 65.2923 96.625ZM67.8734 98.2273H68.3762V96.4972H68.4188C68.5296 96.6761 68.7427 97.0682 69.3734 97.0682C70.1915 97.0682 70.7626 96.4119 70.7626 95.3722C70.7626 94.3409 70.1915 93.6847 69.3648 93.6847C68.7256 93.6847 68.5296 94.0767 68.4188 94.2472H68.3591V93.7273H67.8734V98.2273ZM68.3677 95.3636C68.3677 94.6307 68.6915 94.1364 69.3052 94.1364C69.9444 94.1364 70.2597 94.6733 70.2597 95.3636C70.2597 96.0625 69.9359 96.6165 69.3052 96.6165C68.7001 96.6165 68.3677 96.1051 68.3677 95.3636ZM73.1418 97.0682C73.8065 97.0682 74.2923 96.7358 74.4457 96.2415L73.9599 96.1051C73.8321 96.446 73.5359 96.6165 73.1418 96.6165C72.5516 96.6165 72.1446 96.2351 72.1212 95.5341H74.4969V95.321C74.4969 94.1023 73.7724 93.6847 73.0906 93.6847C72.2043 93.6847 71.6162 94.3835 71.6162 95.3892C71.6162 96.3949 72.1957 97.0682 73.1418 97.0682ZM72.1212 95.0994C72.1553 94.5902 72.5153 94.1364 73.0906 94.1364C73.6361 94.1364 73.9855 94.5455 73.9855 95.0994H72.1212Z" fill="#BCBCBC"/>
<path d="M54.5284 89H55.0568V87.5852L55.6023 86.9716L57.1193 89H57.7585L55.9261 86.6051L57.7585 84.6364H57.0682L55.108 86.8011H55.0568V84.6364H54.5284V89ZM60.61 89H62.1867C63.2179 89 63.6441 88.4972 63.6441 87.8409C63.6441 87.1506 63.1668 86.7756 62.7662 86.75V86.7074C63.1412 86.6051 63.4736 86.358 63.4736 85.7955C63.4736 85.1562 63.0475 84.6364 62.1355 84.6364H60.61V89ZM61.1384 88.5312V87.0142H62.2122C62.7833 87.0142 63.1412 87.3977 63.1412 87.8409C63.1412 88.2244 62.877 88.5312 62.1867 88.5312H61.1384ZM61.1384 86.554V85.1051H62.1355C62.7151 85.1051 62.9708 85.4119 62.9708 85.7955C62.9708 86.2557 62.5958 86.554 62.1185 86.554H61.1384ZM66.0563 89.0682C66.7211 89.0682 67.2069 88.7358 67.3603 88.2415L66.8745 88.1051C66.7466 88.446 66.4505 88.6165 66.0563 88.6165C65.4661 88.6165 65.0591 88.2351 65.0357 87.5341H67.4114V87.321C67.4114 86.1023 66.687 85.6847 66.0052 85.6847C65.1188 85.6847 64.5307 86.3835 64.5307 87.3892C64.5307 88.3949 65.1103 89.0682 66.0563 89.0682ZM65.0357 87.0994C65.0698 86.5902 65.4299 86.1364 66.0052 86.1364C66.5506 86.1364 66.9 86.5455 66.9 87.0994H65.0357ZM69.8396 85.7273H69.1408V84.9432H68.6379V85.7273H68.1436V86.1534H68.6379V88.1989C68.6379 88.7699 69.0981 89.0426 69.5243 89.0426C69.7118 89.0426 69.8311 89.0085 69.8993 88.983L69.797 88.5312C69.7544 88.5398 69.6862 88.5568 69.5754 88.5568C69.3538 88.5568 69.1408 88.4886 69.1408 88.0625V86.1534H69.8396V85.7273ZM71.7991 89.0767C72.3701 89.0767 72.6684 88.7699 72.7707 88.5568H72.7962V89H73.2991V86.8438C73.2991 85.804 72.5065 85.6847 72.0889 85.6847C71.5945 85.6847 71.032 85.8551 70.7764 86.4517L71.2536 86.6222C71.3644 86.3835 71.6265 86.1278 72.1059 86.1278C72.5683 86.1278 72.7962 86.3729 72.7962 86.7926V86.8097C72.7962 87.0526 72.5491 87.0312 71.9525 87.108C71.3452 87.1868 70.6826 87.321 70.6826 88.071C70.6826 88.7102 71.1769 89.0767 71.7991 89.0767ZM71.8758 88.625C71.4752 88.625 71.1854 88.446 71.1854 88.0966C71.1854 87.7131 71.5349 87.5938 71.9269 87.5426C72.14 87.517 72.711 87.4574 72.7962 87.3551V87.8153C72.7962 88.2244 72.4724 88.625 71.8758 88.625Z" fill="#BCBCBC"/>
<path d="M15.8864 62.6364H16.5682C16.5369 61.7585 15.7273 61.1023 14.6023 61.1023C13.4886 61.1023 12.6136 61.75 12.6136 62.7273C12.6136 63.5114 13.1818 63.9773 14.0909 64.2386L14.8068 64.4432C15.4205 64.6136 15.9659 64.8295 15.9659 65.4091C15.9659 66.0455 15.3523 66.4659 14.5455 66.4659C13.8523 66.4659 13.2386 66.1591 13.1818 65.5H12.4545C12.5227 66.4545 13.2955 67.1023 14.5455 67.1023C15.8864 67.1023 16.6477 66.3636 16.6477 65.4205C16.6477 64.3295 15.6136 63.9773 15.0114 63.8182L14.4205 63.6591C13.9886 63.5455 13.2955 63.3182 13.2955 62.6932C13.2955 62.1364 13.8068 61.7273 14.5795 61.7273C15.2841 61.7273 15.8182 62.0625 15.8864 62.6364ZM19.8647 67.0909C20.7511 67.0909 21.3988 66.6477 21.6034 65.9886L20.9557 65.8068C20.7852 66.2614 20.3903 66.4886 19.8647 66.4886C19.0778 66.4886 18.5352 65.9801 18.5039 65.0455H21.6716V64.7614C21.6716 63.1364 20.7057 62.5795 19.7966 62.5795C18.6147 62.5795 17.8307 63.5114 17.8307 64.8523C17.8307 66.1932 18.6034 67.0909 19.8647 67.0909ZM18.5039 64.4659C18.5494 63.7869 19.0295 63.1818 19.7966 63.1818C20.5238 63.1818 20.9897 63.7273 20.9897 64.4659H18.5039ZM23.6819 61.1818H23.0114V67H23.6819V61.1818ZM27.0594 67.0909C27.9458 67.0909 28.5935 66.6477 28.7981 65.9886L28.1503 65.8068C27.9799 66.2614 27.585 66.4886 27.0594 66.4886C26.2725 66.4886 25.7299 65.9801 25.6986 65.0455H28.8663V64.7614C28.8663 63.1364 27.9003 62.5795 26.9913 62.5795C25.8094 62.5795 25.0253 63.5114 25.0253 64.8523C25.0253 66.1932 25.7981 67.0909 27.0594 67.0909ZM25.6986 64.4659C25.7441 63.7869 26.2242 63.1818 26.9913 63.1818C27.7185 63.1818 28.1844 63.7273 28.1844 64.4659H25.6986ZM31.9789 67.0909C32.9448 67.0909 33.5811 66.5 33.6948 65.7273H33.0243C32.8993 66.2045 32.5016 66.4886 31.9789 66.4886C31.1834 66.4886 30.672 65.8295 30.672 64.8182C30.672 63.8295 31.1948 63.1818 31.9789 63.1818C32.5698 63.1818 32.922 63.5455 33.0243 63.9432H33.6948C33.5811 63.125 32.888 62.5795 31.9675 62.5795C30.7857 62.5795 30.0016 63.5114 30.0016 64.8409C30.0016 66.1477 30.7516 67.0909 31.9789 67.0909ZM36.8926 62.6364H35.9608V61.5909H35.2903V62.6364H34.6313V63.2045H35.2903V65.9318C35.2903 66.6932 35.904 67.0568 36.4722 67.0568C36.7222 67.0568 36.8813 67.0114 36.9722 66.9773L36.8358 66.375C36.779 66.3864 36.6881 66.4091 36.5403 66.4091C36.2449 66.4091 35.9608 66.3182 35.9608 65.75V63.2045H36.8926V62.6364ZM40.0038 67.0909C40.8902 67.0909 41.5379 66.6477 41.7424 65.9886L41.0947 65.8068C40.9243 66.2614 40.5294 66.4886 40.0038 66.4886C39.2169 66.4886 38.6743 65.9801 38.643 65.0455H41.8106V64.7614C41.8106 63.1364 40.8447 62.5795 39.9356 62.5795C38.7538 62.5795 37.9697 63.5114 37.9697 64.8523C37.9697 66.1932 38.7424 67.0909 40.0038 67.0909ZM38.643 64.4659C38.6885 63.7869 39.1686 63.1818 39.9356 63.1818C40.6629 63.1818 41.1288 63.7273 41.1288 64.4659H38.643ZM44.7982 67.0909C45.6391 67.0909 45.9232 66.5682 46.071 66.3295H46.1505V67H46.7982V61.1818H46.1278V63.3295H46.071C45.9232 63.1023 45.6619 62.5795 44.8096 62.5795C43.7073 62.5795 42.946 63.4545 42.946 64.8295C42.946 66.2159 43.7073 67.0909 44.7982 67.0909ZM44.8891 66.4886C44.0482 66.4886 43.6164 65.75 43.6164 64.8182C43.6164 63.8977 44.0369 63.1818 44.8891 63.1818C45.7073 63.1818 46.1391 63.8409 46.1391 64.8182C46.1391 65.8068 45.696 66.4886 44.8891 66.4886ZM51.4411 61.1818H50.6115L52.4865 64.0909L50.6115 67H51.4411L52.9411 64.625H52.9865L54.4865 67H55.3161L53.4865 64.0909L55.3161 61.1818H54.4865L52.9865 63.6023H52.9411L51.4411 61.1818ZM56.553 67H57.2575V64.7273H58.5303C58.5814 64.7273 58.6297 64.7273 58.678 64.7244L59.9053 67H60.7234L59.4081 64.5966C60.1496 64.3438 60.4962 63.7386 60.4962 62.9659C60.4962 61.9375 59.8825 61.1818 58.5189 61.1818H56.553V67ZM57.2575 64.0909V61.8068H58.4962C59.4393 61.8068 59.803 62.267 59.803 62.9659C59.803 63.6648 59.4393 64.0909 58.5075 64.0909H57.2575ZM61.9902 67H62.6947V64.3977H65.2174V63.7727H62.6947V61.8068H65.4788V61.1818H61.9902V67ZM69.5755 67H72.9846V66.375H70.28V61.1818H69.5755V67ZM74.3046 67H74.975V62.6364H74.3046V67ZM74.6455 61.9091C74.9068 61.9091 75.1228 61.7045 75.1228 61.4545C75.1228 61.2045 74.9068 61 74.6455 61C74.3841 61 74.1682 61.2045 74.1682 61.4545C74.1682 61.7045 74.3841 61.9091 74.6455 61.9091ZM77.1935 64.375C77.1935 63.6136 77.6651 63.1818 78.3071 63.1818C78.9293 63.1818 79.3071 63.5881 79.3071 64.2727V67H79.9776V64.2273C79.9776 63.1136 79.3838 62.5795 78.5003 62.5795C77.8412 62.5795 77.4321 62.875 77.2276 63.3182H77.1707V62.6364H76.523V67H77.1935V64.375ZM83.3522 67.0909C84.2386 67.0909 84.8863 66.6477 85.0909 65.9886L84.4432 65.8068C84.2727 66.2614 83.8778 66.4886 83.3522 66.4886C82.5653 66.4886 82.0227 65.9801 81.9915 65.0455H85.1591V64.7614C85.1591 63.1364 84.1932 62.5795 83.2841 62.5795C82.1022 62.5795 81.3182 63.5114 81.3182 64.8523C81.3182 66.1932 82.0909 67.0909 83.3522 67.0909ZM81.9915 64.4659C82.0369 63.7869 82.517 63.1818 83.2841 63.1818C84.0113 63.1818 84.4772 63.7273 84.4772 64.4659H81.9915ZM89.5899 63.6136C89.3796 62.9943 88.908 62.5795 88.0444 62.5795C87.124 62.5795 86.4421 63.1023 86.4421 63.8409C86.4421 64.4432 86.8001 64.8466 87.6012 65.0341L88.3285 65.2045C88.7688 65.3068 88.9762 65.517 88.9762 65.8182C88.9762 66.1932 88.5785 66.5 87.9535 66.5C87.4052 66.5 87.0615 66.2642 86.9421 65.7955L86.3058 65.9545C86.462 66.696 87.0728 67.0909 87.9649 67.0909C88.9791 67.0909 89.6694 66.5369 89.6694 65.7841C89.6694 65.1761 89.2887 64.7926 88.5103 64.6023L87.8626 64.4432C87.3455 64.3153 87.1126 64.142 87.1126 63.8068C87.1126 63.4318 87.5103 63.1591 88.0444 63.1591C88.6296 63.1591 88.8711 63.483 88.9876 63.7841L89.5899 63.6136Z" fill="#F8F8F8"/>
<path d="M12.7045 37H13.4091V34.3977H16.5114V37H17.2159V31.1818H16.5114V33.7727H13.4091V31.1818H12.7045V37ZM20.6282 37.0909C21.8101 37.0909 22.6055 36.1932 22.6055 34.8409C22.6055 33.4773 21.8101 32.5795 20.6282 32.5795C19.4464 32.5795 18.651 33.4773 18.651 34.8409C18.651 36.1932 19.4464 37.0909 20.6282 37.0909ZM20.6282 36.4886C19.7305 36.4886 19.3214 35.7159 19.3214 34.8409C19.3214 33.9659 19.7305 33.1818 20.6282 33.1818C21.526 33.1818 21.9351 33.9659 21.9351 34.8409C21.9351 35.7159 21.526 36.4886 20.6282 36.4886ZM27.3609 32.6364H26.6336L25.4291 36.1136H25.3836L24.1791 32.6364H23.4518L25.0654 37H25.7472L27.3609 32.6364ZM30.2391 37.0909C31.1255 37.0909 31.7732 36.6477 31.9778 35.9886L31.33 35.8068C31.1596 36.2614 30.7647 36.4886 30.2391 36.4886C29.4522 36.4886 28.9096 35.9801 28.8783 35.0455H32.0459V34.7614C32.0459 33.1364 31.08 32.5795 30.1709 32.5795C28.9891 32.5795 28.205 33.5114 28.205 34.8523C28.205 36.1932 28.9778 37.0909 30.2391 37.0909ZM28.8783 34.4659C28.9238 33.7869 29.4039 33.1818 30.1709 33.1818C30.8982 33.1818 31.3641 33.7273 31.3641 34.4659H28.8783ZM33.3858 37H34.0563V34.2386C34.0563 33.6477 34.5222 33.2159 35.1586 33.2159C35.3375 33.2159 35.5222 33.25 35.5676 33.2614V32.5795C35.4909 32.5739 35.3148 32.5682 35.2154 32.5682C34.6926 32.5682 34.2381 32.8636 34.079 33.2955H34.0336V32.6364H33.3858V37ZM38.3791 37.0909C39.2655 37.0909 39.9132 36.6477 40.1178 35.9886L39.47 35.8068C39.2996 36.2614 38.9047 36.4886 38.3791 36.4886C37.5922 36.4886 37.0496 35.9801 37.0183 35.0455H40.1859V34.7614C40.1859 33.1364 39.22 32.5795 38.3109 32.5795C37.1291 32.5795 36.345 33.5114 36.345 34.8523C36.345 36.1932 37.1178 37.0909 38.3791 37.0909ZM37.0183 34.4659C37.0638 33.7869 37.5439 33.1818 38.3109 33.1818C39.0382 33.1818 39.5041 33.7273 39.5041 34.4659H37.0183ZM43.1736 37.0909C44.0145 37.0909 44.2986 36.5682 44.4463 36.3295H44.5258V37H45.1736V31.1818H44.5031V33.3295H44.4463C44.2986 33.1023 44.0372 32.5795 43.1849 32.5795C42.0826 32.5795 41.3213 33.4545 41.3213 34.8295C41.3213 36.2159 42.0826 37.0909 43.1736 37.0909ZM43.2645 36.4886C42.4236 36.4886 41.9917 35.75 41.9917 34.8182C41.9917 33.8977 42.4122 33.1818 43.2645 33.1818C44.0826 33.1818 44.5145 33.8409 44.5145 34.8182C44.5145 35.8068 44.0713 36.4886 43.2645 36.4886ZM49.8164 31.1818H48.9868L50.8618 34.0909L48.9868 37H49.8164L51.3164 34.625H51.3618L52.8618 37H53.6914L51.8618 34.0909L53.6914 31.1818H52.8618L51.3618 33.6023H51.3164L49.8164 31.1818ZM54.9283 37H55.6328V34.7273H56.9056C56.9567 34.7273 57.005 34.7273 57.0533 34.7244L58.2806 37H59.0988L57.7834 34.5966C58.5249 34.3438 58.8715 33.7386 58.8715 32.9659C58.8715 31.9375 58.2578 31.1818 56.8942 31.1818H54.9283V37ZM55.6328 34.0909V31.8068H56.8715C57.8147 31.8068 58.1783 32.267 58.1783 32.9659C58.1783 33.6648 57.8147 34.0909 56.8828 34.0909H55.6328ZM60.3655 37H61.07V34.3977H63.5928V33.7727H61.07V31.8068H63.8541V31.1818H60.3655V37ZM67.9508 37H71.3599V36.375H68.6553V31.1818H67.9508V37ZM72.6799 37H73.3503V32.6364H72.6799V37ZM73.0208 31.9091C73.2822 31.9091 73.4981 31.7045 73.4981 31.4545C73.4981 31.2045 73.2822 31 73.0208 31C72.7594 31 72.5435 31.2045 72.5435 31.4545C72.5435 31.7045 72.7594 31.9091 73.0208 31.9091ZM75.5688 34.375C75.5688 33.6136 76.0404 33.1818 76.6824 33.1818C77.3046 33.1818 77.6824 33.5881 77.6824 34.2727V37H78.3529V34.2273C78.3529 33.1136 77.7591 32.5795 76.8756 32.5795C76.2165 32.5795 75.8074 32.875 75.6029 33.3182H75.5461V32.6364H74.8983V37H75.5688V34.375ZM81.7276 37.0909C82.6139 37.0909 83.2617 36.6477 83.4662 35.9886L82.8185 35.8068C82.648 36.2614 82.2531 36.4886 81.7276 36.4886C80.9406 36.4886 80.398 35.9801 80.3668 35.0455H83.5344V34.7614C83.5344 33.1364 82.5685 32.5795 81.6594 32.5795C80.4776 32.5795 79.6935 33.5114 79.6935 34.8523C79.6935 36.1932 80.4662 37.0909 81.7276 37.0909ZM80.3668 34.4659C80.4122 33.7869 80.8923 33.1818 81.6594 33.1818C82.3867 33.1818 82.8526 33.7273 82.8526 34.4659H80.3668ZM87.9652 33.6136C87.7549 32.9943 87.2834 32.5795 86.4197 32.5795C85.4993 32.5795 84.8174 33.1023 84.8174 33.8409C84.8174 34.4432 85.1754 34.8466 85.9765 35.0341L86.7038 35.2045C87.1442 35.3068 87.3515 35.517 87.3515 35.8182C87.3515 36.1932 86.9538 36.5 86.3288 36.5C85.7805 36.5 85.4368 36.2642 85.3174 35.7955L84.6811 35.9545C84.8373 36.696 85.4481 37.0909 86.3402 37.0909C87.3544 37.0909 88.0447 36.5369 88.0447 35.7841C88.0447 35.1761 87.664 34.7926 86.8856 34.6023L86.2379 34.4432C85.7209 34.3153 85.4879 34.142 85.4879 33.8068C85.4879 33.4318 85.8856 33.1591 86.4197 33.1591C87.0049 33.1591 87.2464 33.483 87.3629 33.7841L87.9652 33.6136Z" fill="#F8F8F8"/>
<circle cx="48" cy="48" r="2" fill="#EBECEC"/>
<circle cx="48" cy="79" r="2" fill="#EBECEC"/>
<circle cx="48" cy="88" r="2" fill="#EBECEC"/>
<circle cx="48" cy="96" r="2" fill="#EBECEC"/>
</g>
<defs>
<filter id="filter0_d" x="0" y="0" width="128" height="111" filterUnits="userSpaceOnUse" color-interpolation-filters="sRGB">
<feFlood flood-opacity="0" result="BackgroundImageFix"/>
<feColorMatrix in="SourceAlpha" type="matrix" values="0 0 0 0 0 0 0 0 0 0 0 0 0 0 0 0 0 0 127 0"/>
<feOffset/>
<feGaussianBlur stdDeviation="2"/>
<feColorMatrix type="matrix" values="0 0 0 0 0 0 0 0 0 0 0 0 0 0 0 0 0 0 0.75 0"/>
<feBlend mode="normal" in2="BackgroundImageFix" result="effect1_dropShadow"/>
<feBlend mode="normal" in="SourceGraphic" in2="effect1_dropShadow" result="shape"/>
</filter>
</defs>
</svg>
