<svg width="99" height="19" viewBox="0 0 99 19" fill="none" xmlns="http://www.w3.org/2000/svg">
<g opacity="0.9">
<mask id="mask0" mask-type="alpha" maskUnits="userSpaceOnUse" x="18" y="6" width="81" height="6">
<path d="M18.3704 11.1168V6.98535L99 6.98535V11.1168L18.3704 11.1168Z" fill="url(#paint0_radial)"/>
</mask>
<g mask="url(#mask0)">
<rect x="18.4036" y="20.1259" width="22.0572" height="80.5933" transform="rotate(-90 18.4036 20.1259)" fill="url(#paint1_linear)" fill-opacity="0.9"/>
</g>
</g>
<path fill-rule="evenodd" clip-rule="evenodd" d="M13.9084 1.89161C13.9084 1.56807 14.1753 1.30579 14.5045 1.30579H16.3831C16.7123 1.30579 16.9792 1.56807 16.9792 1.89161V2.20963H17.8613C18.471 3.5471 18.9103 4.96148 19.1556 6.43174H20.3171V11.7042H19.1905C18.9532 13.2525 18.501 14.7405 17.8613 16.1439H16.9792V16.5372C16.9792 16.8607 16.7123 17.123 16.3831 17.123H14.5045C14.1753 17.123 13.9084 16.8607 13.9084 16.5372V1.89161Z" fill="#F8F8F8"/>
<path d="M6.23005 3.04944C6.91428 3.04944 7.50247 3.15147 7.99464 3.35554C8.4868 3.5476 8.88893 3.81169 9.20103 4.1478C9.52514 4.47191 9.75922 4.85603 9.90327 5.30018C10.0593 5.74433 10.1373 6.20648 10.1373 6.68664C10.1373 7.14279 10.0653 7.59894 9.92127 8.05509C9.78923 8.51124 9.56715 8.91937 9.25505 9.27949C8.94295 9.63961 8.53481 9.93371 8.03065 10.1618C7.53849 10.3899 6.93829 10.5039 6.23005 10.5039H2.44881C2.24474 10.5039 2.14271 10.6059 2.14271 10.81V15.2034H0.0180058V10.3959C0.0180058 9.71164 0.168055 9.21947 0.468154 8.91938C0.768253 8.61928 1.25441 8.46923 1.92664 8.46923H6.30208C6.60218 8.46923 6.86026 8.42121 7.07633 8.32518C7.29241 8.22915 7.46646 8.10311 7.59851 7.94705C7.73055 7.791 7.82658 7.61695 7.8866 7.42488C7.95863 7.22081 7.99464 7.01075 7.99464 6.79467C7.99464 6.35053 7.85659 5.9724 7.5805 5.6603C7.31641 5.33619 6.89627 5.17414 6.32008 5.17414H0V3.04944H6.23005Z" fill="#F8F8F8"/>
<g filter="url(#filter0_d)">
<path d="M26.4574 3.04944L30.1847 7.53292L34.092 3.04944H36.7208L31.5171 9.02741L36.7568 15.2034H34.164L30.1306 10.3779L25.9893 15.2034H23.3604L28.7982 8.86536L23.8646 3.04944H26.4574Z" fill="#F8F8F8"/>
<path d="M42.3696 3.04944V10.9901C42.3696 11.2782 42.4056 11.5542 42.4777 11.8183C42.5617 12.0704 42.6997 12.2925 42.8918 12.4846C43.0839 12.6646 43.3359 12.8087 43.648 12.9167C43.9721 13.0247 44.3743 13.0787 44.8544 13.0787H49.572V15.2034H44.7284C43.9241 15.2034 43.2339 15.1014 42.6577 14.8973C42.0935 14.6813 41.6314 14.3872 41.2713 14.0151C40.9111 13.6429 40.6471 13.2048 40.479 12.7006C40.3229 12.1845 40.2449 11.6203 40.2449 11.0081V3.04944H42.3696Z" fill="#F8F8F8"/>
<path d="M55.8573 3.04944V15.2034H53.7326V3.04944H55.8573Z" fill="#F8F8F8"/>
<path d="M70.3386 3.04944V5.17414H64.1086C63.5564 5.17414 63.1542 5.31218 62.9022 5.58828C62.6501 5.85236 62.524 6.19448 62.524 6.61461C62.524 6.79467 62.548 6.97473 62.5961 7.15479C62.6561 7.32285 62.7521 7.4789 62.8842 7.62295C63.0282 7.75499 63.2143 7.86303 63.4423 7.94705C63.6704 8.01908 63.9645 8.05509 64.3246 8.05509H67.1696C67.9978 8.05509 68.6761 8.16313 69.2042 8.3792C69.7324 8.58326 70.1465 8.85335 70.4466 9.18946C70.7587 9.52557 70.9688 9.9097 71.0769 10.3418C71.1969 10.774 71.2569 11.2061 71.2569 11.6383C71.2569 12.1544 71.1849 12.6286 71.0408 13.0607C70.8968 13.4929 70.6687 13.871 70.3566 14.1951C70.0445 14.5072 69.6424 14.7533 69.1502 14.9334C68.6701 15.1134 68.0819 15.2034 67.3856 15.2034H60.6154V13.0787H67.4577C68.0339 13.0787 68.454 12.9407 68.7181 12.6646C68.9942 12.3765 69.1322 12.0104 69.1322 11.5662C69.1322 11.3742 69.1022 11.1881 69.0422 11.0081C68.9822 10.816 68.8801 10.6539 68.7361 10.5219C68.592 10.3779 68.394 10.2638 68.1419 10.1798C67.9018 10.0958 67.5957 10.0537 67.2236 10.0537H64.3967C63.5804 10.0537 62.9142 9.95172 62.398 9.74765C61.8818 9.54358 61.4737 9.27349 61.1736 8.93738C60.8855 8.60127 60.6814 8.22315 60.5614 7.80301C60.4534 7.38287 60.3993 6.96273 60.3993 6.54259C60.3993 6.03842 60.4654 5.57627 60.5974 5.15613C60.7414 4.72399 60.9635 4.35187 61.2636 4.03977C61.5757 3.72766 61.9718 3.48758 62.452 3.31953C62.9322 3.13947 63.5084 3.04944 64.1806 3.04944H70.3386Z" fill="#F8F8F8"/>
<path d="M85.4839 3.04944V5.17414H79.3978C78.7496 5.17414 78.2815 5.31218 77.9934 5.58828C77.7053 5.86437 77.5612 6.23649 77.5612 6.70464C77.5612 7.66496 78.1794 8.14512 79.4159 8.14512H85.3938V10.0718H79.3618C78.1254 10.0718 77.5072 10.5639 77.5072 11.5482C77.5072 12.0284 77.6573 12.4065 77.9574 12.6826C78.2575 12.9467 78.7196 13.0787 79.3438 13.0787H85.5019V15.2034H79.3438C78.6236 15.2034 78.0054 15.1194 77.4892 14.9514C76.9851 14.7833 76.5649 14.5552 76.2288 14.2671C75.9047 13.967 75.6646 13.6129 75.5086 13.2048C75.3645 12.7967 75.2925 12.3585 75.2925 11.8904C75.2925 11.1941 75.4425 10.6179 75.7426 10.1618C76.0427 9.69363 76.4749 9.33951 77.0391 9.09943C75.8987 8.63128 75.3285 7.71898 75.3285 6.36253C75.3285 5.88237 75.4065 5.43823 75.5626 5.03009C75.7186 4.62196 75.9587 4.27384 76.2828 3.98575C76.6189 3.68565 77.0391 3.45757 77.5432 3.30152C78.0594 3.13347 78.6776 3.04944 79.3978 3.04944H85.4839Z" fill="#F8F8F8"/>
<path d="M70.4636 2.92444V3.04944V5.17414V5.29914H70.3386H64.1086C63.5746 5.29914 63.2135 5.4327 62.9945 5.67256L62.9926 5.67461C62.766 5.9119 62.649 6.2214 62.649 6.61461C62.649 6.78176 62.6711 6.94933 62.7155 7.11757C62.769 7.26516 62.854 7.4041 62.9726 7.53445C63.1011 7.65109 63.2699 7.74999 63.4828 7.82874C63.6939 7.89493 63.9731 7.93009 64.3246 7.93009H67.1696C68.0068 7.93009 68.7022 8.03902 69.2504 8.26302C69.7914 8.47222 70.2231 8.75179 70.5391 9.10533C70.8643 9.45579 71.0844 9.85776 71.1977 10.3099M70.4636 2.92444L69.1502 14.9334M70.4636 2.92444H70.3386H64.1806C63.4984 2.92444 62.9069 3.01565 62.4094 3.20201M70.4636 2.92444L70.2136 3.04944M71.1977 10.3099C71.3204 10.752 71.3819 11.1949 71.3819 11.6383C71.3819 12.1661 71.3082 12.6538 71.1594 13.1003C71.0096 13.5498 70.7718 13.9441 70.4467 14.2818L70.445 14.2835C70.118 14.6105 69.6995 14.8654 69.1936 15.0506M71.1977 10.3099C71.1979 10.3105 71.198 10.311 71.1981 10.3115L71.0769 10.3418L71.1973 10.3084C71.1974 10.3089 71.1976 10.3094 71.1977 10.3099ZM69.1936 15.0506C69.1935 15.0506 69.1933 15.0507 69.1932 15.0508L69.1502 14.9334M69.1936 15.0506C69.1938 15.0505 69.194 15.0505 69.1941 15.0504L69.1502 14.9334M69.1936 15.0506C68.6955 15.2373 68.0916 15.3284 67.3856 15.3284H60.6154H60.4904V15.2034V13.0787V12.9537H60.6154H67.4577C68.0169 12.9537 68.3969 12.8195 68.6277 12.5782L68.6278 12.5781C68.879 12.316 69.0072 11.9821 69.0072 11.5662C69.0072 11.3875 68.9793 11.2148 68.9236 11.0476L68.9228 11.0454C68.8692 10.8737 68.7789 10.7307 68.6516 10.614L68.6476 10.6104L68.6477 10.6103C68.5209 10.4835 68.3414 10.3781 68.1024 10.2984L68.1006 10.2978C67.8784 10.22 67.5875 10.1787 67.2236 10.1787H64.3967C63.5714 10.1787 62.888 10.0758 62.352 9.86389C61.8219 9.65429 61.3961 9.37426 61.0803 9.02063L61.0787 9.01875C60.779 8.66914 60.5662 8.27503 60.4412 7.83735L60.4403 7.83415L60.4403 7.83414C60.3298 7.40416 60.2743 6.97357 60.2743 6.54259C60.2743 6.02752 60.3418 5.55253 60.4781 5.11866L60.4788 5.1166C60.6284 4.66778 60.8599 4.27932 61.1735 3.95313L61.1752 3.95138C61.5022 3.6244 61.9148 3.3753 62.4094 3.20201M69.1502 14.9334C68.6701 15.1134 68.0819 15.2034 67.3856 15.2034H60.7404H60.6154V15.0784V13.2037V13.0787H60.7404H67.4577C68.0339 13.0787 68.454 12.9407 68.7181 12.6646C68.9942 12.3765 69.1322 12.0104 69.1322 11.5662C69.1322 11.3742 69.1022 11.1881 69.0422 11.0081C68.9822 10.816 68.8801 10.6539 68.7361 10.5219C68.592 10.3779 68.394 10.2638 68.1419 10.1798C67.9018 10.0958 67.5957 10.0537 67.2236 10.0537H64.3967C63.5804 10.0537 62.9142 9.95172 62.398 9.74765C61.8818 9.54358 61.4737 9.27349 61.1736 8.93738C60.8855 8.60127 60.6814 8.22315 60.5614 7.80301C60.4534 7.38287 60.3993 6.96273 60.3993 6.54259C60.3993 6.03842 60.4654 5.57627 60.5974 5.15613C60.7414 4.72399 60.9635 4.35187 61.2636 4.03977C61.5757 3.72766 61.9718 3.48758 62.452 3.31953M62.4094 3.20201C62.409 3.20217 62.4085 3.20233 62.4081 3.20249L62.452 3.31953M62.4094 3.20201C62.4098 3.20185 62.4103 3.2017 62.4107 3.20154L62.452 3.31953M62.452 3.31953C62.9322 3.13947 63.5084 3.04944 64.1806 3.04944H70.2136M70.2136 3.04944H70.3386V3.17444L70.2136 3.04944ZM85.6089 2.92444V3.04944V5.17414V5.29914H85.4839H79.3978C78.7627 5.29914 78.3338 5.43516 78.0799 5.67852C77.8206 5.92695 77.6862 6.26416 77.6862 6.70464C77.6862 7.15591 77.8299 7.47526 78.1016 7.68628C78.3793 7.90196 78.8104 8.02012 79.4159 8.02012H85.3938H85.5188V8.14512V10.0718V10.1968H85.3938H79.3618C78.7569 10.1968 78.3263 10.3177 78.0487 10.5387C77.7766 10.7553 77.6322 11.0839 77.6322 11.5482C77.6322 11.9996 77.7719 12.3416 78.041 12.5897C78.3085 12.8245 78.7345 12.9537 79.3438 12.9537H85.5019H85.6269V13.0787V15.2034V15.3284H85.5019H79.3438C78.6145 15.3284 77.9825 15.2434 77.4505 15.0702L77.4497 15.07C76.9332 14.8978 76.498 14.6625 76.1474 14.362L76.1438 14.3589L76.1439 14.3589C75.8058 14.0459 75.5548 13.6757 75.3918 13.2494L75.3907 13.2464L75.3907 13.2464C75.2416 12.8238 75.1675 12.3715 75.1675 11.8904C75.1675 11.1767 75.3213 10.5751 75.6378 10.0937C75.9067 9.67441 76.276 9.34386 76.742 9.10135C76.2728 8.86471 75.9072 8.54155 75.6501 8.13034C75.3498 7.64974 75.2035 7.05812 75.2035 6.36253C75.2035 5.86862 75.2838 5.40918 75.4458 4.98545C75.609 4.5588 75.8605 4.19395 76.1996 3.89245M85.6089 2.92444L76.2828 3.98575M85.6089 2.92444H85.4839H79.3978C78.6689 2.92444 78.0372 3.00937 77.5054 3.18239M85.6089 2.92444L77.5432 3.30152M76.1996 3.89245C76.1997 3.89241 76.1997 3.89236 76.1998 3.89232L76.2828 3.98575M76.1996 3.89245C76.1996 3.89247 76.1996 3.89249 76.1996 3.8925L76.2828 3.98575M76.1996 3.89245C76.551 3.57875 76.9874 3.34283 77.5054 3.18239M76.2828 3.98575C76.6189 3.68565 77.0391 3.45757 77.5432 3.30152M77.5054 3.18239C77.5051 3.18248 77.5048 3.18257 77.5045 3.18266L77.5432 3.30152M77.5054 3.18239C77.5057 3.1823 77.506 3.1822 77.5063 3.18211L77.5432 3.30152M26.5536 2.96953L26.5161 2.92444H26.4574H23.8646H23.5946L23.7693 3.1303L28.6339 8.8649L23.2655 15.1221L23.0885 15.3284H23.3604H25.9893H26.0467L26.0841 15.2849L30.1294 10.5713L34.0681 15.2836L34.1055 15.3284H34.164H36.7568H37.0268L36.8521 15.1226L31.6819 9.02846L36.8151 3.13151L36.9954 2.92444H36.7208H34.092H34.0351L33.9977 2.96731L30.1869 7.34008L26.5536 2.96953ZM42.4946 3.04944V2.92444H42.3696H40.2449H40.1199V3.04944V11.0081C40.1199 11.6309 40.1993 12.2074 40.3593 12.7368L40.3593 12.7368L40.3604 12.7402C40.5342 13.2616 40.808 13.7161 41.1814 14.102C41.5562 14.4892 42.0346 14.7926 42.613 15.0141L42.613 15.0141L42.616 15.0152C43.2091 15.2252 43.9141 15.3284 44.7284 15.3284H49.572H49.697V15.2034V13.0787V12.9537H49.572H44.8544C44.3831 12.9537 43.9955 12.9006 43.6883 12.7983C43.3898 12.6949 43.1549 12.5594 42.9787 12.3947C42.8017 12.2172 42.675 12.0134 42.5973 11.7821C42.529 11.5303 42.4946 11.2664 42.4946 10.9901V3.04944ZM55.9823 3.04944V2.92444H55.8573H53.7326H53.6076V3.04944V15.2034V15.3284H53.7326H55.8573H55.9823V15.2034V3.04944ZM77.0391 9.09943C76.9862 9.07774 76.9346 9.05509 76.8842 9.03148L77.0391 9.09943Z" stroke="black" stroke-width="0.25"/>
</g>
<defs>
<filter id="filter0_d" x="21.8165" y="1.79944" width="64.9353" height="14.654" filterUnits="userSpaceOnUse" color-interpolation-filters="sRGB">
<feFlood flood-opacity="0" result="BackgroundImageFix"/>
<feColorMatrix in="SourceAlpha" type="matrix" values="0 0 0 0 0 0 0 0 0 0 0 0 0 0 0 0 0 0 127 0"/>
<feOffset/>
<feGaussianBlur stdDeviation="0.5"/>
<feColorMatrix type="matrix" values="0 0 0 0 0 0 0 0 0 0 0 0 0 0 0 0 0 0 1 0"/>
<feBlend mode="normal" in2="BackgroundImageFix" result="effect1_dropShadow"/>
<feBlend mode="normal" in="SourceGraphic" in2="effect1_dropShadow" result="shape"/>
</filter>
<radialGradient id="paint0_radial" cx="0" cy="0" r="1" gradientUnits="userSpaceOnUse" gradientTransform="translate(58.6852 9.05108) scale(40.3148 2.06574)">
<stop offset="0.348958" stop-color="white"/>
<stop offset="0.864583" stop-color="white"/>
<stop offset="1" stop-color="white" stop-opacity="0"/>
</radialGradient>
<linearGradient id="paint1_linear" x1="29.4322" y1="20.1259" x2="29.4322" y2="100.719" gradientUnits="userSpaceOnUse">
<stop stop-color="#FF0000"/>
<stop offset="0.171875" stop-color="#FFAC2F"/>
<stop offset="0.328125" stop-color="#FBFF2F"/>
<stop offset="0.463542" stop-color="#70FF00"/>
<stop offset="0.604167" stop-color="#2FFFF3"/>
<stop offset="0.796875" stop-color="#130FB8"/>
<stop offset="0.932292" stop-color="#CC00FF"/>
</linearGradient>
</defs>
</svg>
