<svg width="36" height="36" viewBox="0 0 36 36" fill="none" xmlns="http://www.w3.org/2000/svg">
<path d="M0 5.68421C0 2.54491 2.54491 0 5.68421 0H30.3158C33.4551 0 36 2.54491 36 5.68421V30.3158C36 33.4551 33.4551 36 30.3158 36H5.68421C2.54491 36 0 33.4551 0 30.3158V5.68421Z" fill="#FC3D21"/>
<path d="M21.5204 5C23.0053 5 24.2818 5.21827 25.3499 5.65481C26.418 6.06568 27.2907 6.63062 27.968 7.34963C28.6714 8.04296 29.1794 8.86469 29.492 9.81482C29.8307 10.7649 30 11.7536 30 12.7807C30 13.7565 29.8437 14.7323 29.5311 15.7081C29.2445 16.684 28.7626 17.557 28.0853 18.3274C27.4079 19.0978 26.5222 19.7269 25.4281 20.2148C24.36 20.7027 23.0574 20.9467 21.5204 20.9467H13.3144C12.8715 20.9467 12.6501 21.1649 12.6501 21.6015V31H8.03908V20.7156C8.03908 19.2519 8.36471 18.199 9.01599 17.557C9.66726 16.9151 10.7223 16.5941 12.1812 16.5941H21.6767C22.328 16.5941 22.8881 16.4914 23.357 16.2859C23.8259 16.0805 24.2037 15.8109 24.4902 15.477C24.7768 15.1432 24.9852 14.7709 25.1155 14.36C25.2718 13.9235 25.3499 13.4741 25.3499 13.0119C25.3499 12.0617 25.0503 11.2528 24.4512 10.5852C23.878 9.89185 22.9663 9.54518 21.7158 9.54518H8V5H21.5204Z" fill="white"/>
</svg>
