<svg width="98" height="18" viewBox="0 0 98 18" fill="none" xmlns="http://www.w3.org/2000/svg">
    <g opacity="0.9">
        <mask id="mask0_363_228043" style="mask-type:alpha" maskUnits="userSpaceOnUse" x="18" y="6" width="80"
            height="5">
            <path d="M18.123 10.8894V6.81364L97.6654 6.81364V10.8894L18.123 10.8894Z"
                fill="url(#paint0_radial_363_228043)" />
        </mask>
        <g mask="url(#mask0_363_228043)">
            <rect x="18.1558" y="19.7769" width="21.7598" height="79.5067" transform="rotate(-90 18.1558 19.7769)"
                fill="#FC3D21" fill-opacity="0.9" />
        </g>
    </g>
    <path fill-rule="evenodd" clip-rule="evenodd"
        d="M13.7207 1.78862C13.7207 1.46944 13.984 1.21069 14.3088 1.21069H16.162C16.4868 1.21069 16.7501 1.46944 16.7501 1.78862V2.10235H17.6204C18.2218 3.42179 18.6552 4.8171 18.8972 6.26754H20.043V11.4689H18.9315C18.6975 12.9964 18.2514 14.4643 17.6204 15.8487H16.7501V16.2367C16.7501 16.5559 16.4868 16.8147 16.162 16.8147H14.3088C13.984 16.8147 13.7207 16.5559 13.7207 16.2367V1.78862Z"
        fill="#F8F8F8" />
    <path
        d="M6.14605 2.93091C6.82105 2.93091 7.40132 3.03157 7.88684 3.23288C8.37237 3.42236 8.76908 3.68288 9.07697 4.01446C9.39671 4.3342 9.62763 4.71315 9.76974 5.1513C9.92368 5.58946 10.0007 6.04538 10.0007 6.51907C10.0007 6.96907 9.92961 7.41907 9.7875 7.86907C9.65724 8.31907 9.43816 8.7217 9.13026 9.07696C8.82237 9.43222 8.41974 9.72236 7.92237 9.94736C7.43684 10.1724 6.84474 10.2849 6.14605 10.2849H2.41579C2.21447 10.2849 2.11382 10.3855 2.11382 10.5868V14.921H0.017763V10.1783C0.017763 9.50328 0.165789 9.01775 0.461842 8.7217C0.757895 8.42565 1.2375 8.27762 1.90066 8.27762H6.2171C6.51316 8.27762 6.76776 8.23025 6.98092 8.13551C7.19408 8.04078 7.36579 7.91643 7.49605 7.76249C7.62632 7.60854 7.72105 7.43683 7.78026 7.24736C7.85132 7.04604 7.88684 6.8388 7.88684 6.62565C7.88684 6.18749 7.75066 5.81446 7.47829 5.50657C7.21776 5.18683 6.80329 5.02696 6.23487 5.02696H0V2.93091H6.14605Z"
        fill="#F8F8F8" />
    <g filter="url(#filter0_d_363_228043)">
        <path
            d="M26.1012 2.93091L29.7781 7.35393L33.6327 2.93091H36.2262L31.0926 8.82828L36.2617 14.921H33.7038L29.7248 10.1605L25.6393 14.921H23.0459L28.4104 8.66841L23.5433 2.93091H26.1012Z"
            fill="#F8F8F8" />
        <path
            d="M41.7988 2.93091V10.7645C41.7988 11.0487 41.8343 11.321 41.9054 11.5816C41.9883 11.8303 42.1245 12.0493 42.3139 12.2388C42.5034 12.4164 42.7521 12.5585 43.06 12.6651C43.3797 12.7717 43.7764 12.825 44.2501 12.825H48.9041V14.921H44.1258C43.3323 14.921 42.6514 14.8204 42.083 14.6191C41.5264 14.4059 41.0705 14.1158 40.7152 13.7487C40.36 13.3816 40.0995 12.9493 39.9337 12.452C39.7797 11.9428 39.7027 11.3862 39.7027 10.7822V2.93091H41.7988Z"
            fill="#F8F8F8" />
        <path d="M55.1047 2.93091V14.921H53.0086V2.93091H55.1047Z" fill="#F8F8F8" />
        <path
            d="M69.3907 2.93091V5.02696H63.2446C62.6999 5.02696 62.3032 5.16314 62.0545 5.43551C61.8058 5.69604 61.6815 6.03354 61.6815 6.44801C61.6815 6.62565 61.7051 6.80328 61.7525 6.98091C61.8117 7.1467 61.9065 7.30065 62.0367 7.44275C62.1788 7.57301 62.3624 7.67959 62.5874 7.76249C62.8124 7.83354 63.1025 7.86907 63.4578 7.86907H66.2644C67.0815 7.86907 67.7505 7.97565 68.2716 8.1888C68.7926 8.39012 69.2012 8.65657 69.4972 8.98815C69.8051 9.31972 70.0124 9.69867 70.119 10.125C70.2374 10.5513 70.2966 10.9776 70.2966 11.4039C70.2966 11.9131 70.2255 12.3809 70.0834 12.8072C69.9413 13.2335 69.7163 13.6066 69.4084 13.9263C69.1005 14.2342 68.7038 14.477 68.2183 14.6546C67.7446 14.8322 67.1644 14.921 66.4775 14.921H59.7986V12.825H66.5486C67.117 12.825 67.5315 12.6888 67.792 12.4164C68.0644 12.1322 68.2005 11.771 68.2005 11.3329C68.2005 11.1434 68.1709 10.9599 68.1117 10.7822C68.0525 10.5928 67.9519 10.4329 67.8097 10.3026C67.6676 10.1605 67.4722 10.048 67.2236 9.96512C66.9867 9.88223 66.6847 9.84078 66.3176 9.84078H63.5288C62.7236 9.84078 62.0663 9.74012 61.5571 9.5388C61.0479 9.33749 60.6453 9.07104 60.3492 8.73946C60.065 8.40788 59.8637 8.03486 59.7453 7.62038C59.6387 7.20591 59.5854 6.79143 59.5854 6.37696C59.5854 5.87959 59.6505 5.42367 59.7808 5.0092C59.9229 4.58288 60.142 4.21578 60.438 3.90788C60.7459 3.59999 61.1367 3.36314 61.6104 3.19736C62.0841 3.01972 62.6525 2.93091 63.3157 2.93091H69.3907Z"
            fill="#F8F8F8" />
        <path
            d="M84.3317 2.93091V5.02696H78.3278C77.6883 5.02696 77.2264 5.16314 76.9422 5.43551C76.658 5.70788 76.5159 6.07499 76.5159 6.53683C76.5159 7.4842 77.1258 7.95788 78.3455 7.95788H84.2429V9.85854H78.2922C77.0725 9.85854 76.4626 10.3441 76.4626 11.3151C76.4626 11.7888 76.6107 12.1618 76.9067 12.4342C77.2028 12.6947 77.6587 12.825 78.2745 12.825H84.3495V14.921H78.2745C77.5639 14.921 76.9541 14.8381 76.4449 14.6724C75.9475 14.5066 75.533 14.2816 75.2014 13.9974C74.8817 13.7013 74.6449 13.352 74.4909 12.9493C74.3488 12.5467 74.2778 12.1145 74.2778 11.6526C74.2778 10.9658 74.4258 10.3974 74.7218 9.94736C75.0179 9.48551 75.4442 9.13617 76.0008 8.89933C74.8758 8.43749 74.3133 7.53749 74.3133 6.19933C74.3133 5.72565 74.3903 5.28749 74.5442 4.88486C74.6982 4.48222 74.935 4.1388 75.2547 3.85459C75.5863 3.55854 76.0008 3.33354 76.4982 3.17959C77.0074 3.0138 77.6172 2.93091 78.3278 2.93091H84.3317Z"
            fill="#F8F8F8" />
        <path
            d="M70.2398 10.0931C70.128 9.64672 69.9106 9.24992 69.5897 8.90399C69.2778 8.55499 68.8517 8.27907 68.3177 8.07263C67.7767 7.85154 67.0904 7.74407 66.2644 7.74407H63.4578C63.1111 7.74407 62.8358 7.70939 62.6278 7.64416C62.418 7.56655 62.2517 7.46911 62.1252 7.35425C62.0083 7.22584 61.9246 7.08901 61.872 6.94367C61.8282 6.77787 61.8065 6.61273 61.8065 6.44801C61.8065 6.06047 61.9218 5.75558 62.1449 5.52184L62.1468 5.5198C62.3624 5.28366 62.7181 5.15196 63.2446 5.15196H69.3907H69.5157V5.02696V2.93091V2.80591H69.3907H63.3157C62.6425 2.80591 62.0589 2.89591 61.5678 3.07983C61.0797 3.25086 60.6724 3.49673 60.3497 3.81949L60.3479 3.82124C60.0383 4.14323 59.8099 4.52667 59.6622 4.96966L59.6615 4.97172C59.527 5.39993 59.4604 5.86869 59.4604 6.37696C59.4604 6.80227 59.5151 7.2272 59.6242 7.65151L59.6242 7.65152L59.6251 7.65472C59.7485 8.08674 59.9586 8.47575 60.2543 8.82083L60.256 8.82271C60.5677 9.17181 60.988 9.4482 61.5112 9.65505C62.0402 9.8642 62.7146 9.96578 63.5288 9.96578H66.3176C66.6766 9.96578 66.9633 10.0065 67.1823 10.0831L67.184 10.0837C67.4197 10.1623 67.5965 10.2661 67.7214 10.391L67.7213 10.3911L67.7253 10.3948C67.8506 10.5097 67.9396 10.6504 67.9924 10.8195L67.9931 10.8218C68.048 10.9865 68.0755 11.1567 68.0755 11.3329C68.0755 11.7428 67.9492 12.0717 67.7017 12.3299L67.7017 12.33C67.4744 12.5676 67.1001 12.7 66.5486 12.7H59.7986H59.6736V12.825V14.921V15.046H59.7986H66.4775C67.1741 15.046 67.77 14.9561 68.2616 14.7719C68.7609 14.5891 69.174 14.3376 69.4968 14.0147L69.4985 14.013C69.8194 13.6797 70.0541 13.2905 70.202 12.8468C70.3489 12.4061 70.4216 11.9248 70.4216 11.4039C70.4216 10.9664 70.3609 10.5294 70.2398 10.0931ZM70.2398 10.0931C70.24 10.0936 70.2401 10.0941 70.2402 10.0947L70.119 10.125L70.2394 10.0915C70.2395 10.092 70.2397 10.0926 70.2398 10.0931ZM84.4567 2.80591V2.93091V5.02696V5.15196H84.3317H78.3278C77.7014 5.15196 77.2788 5.28612 77.0287 5.52576C76.7734 5.77046 76.6409 6.10266 76.6409 6.53683C76.6409 6.98162 76.7825 7.29612 77.05 7.5039C77.3235 7.71634 77.7484 7.83288 78.3455 7.83288H84.2429H84.3679V7.95788V9.85854V9.98354H84.2429H78.2922C77.6956 9.98354 77.2713 10.1028 76.9979 10.3205C76.7299 10.5338 76.5876 10.8574 76.5876 11.3151C76.5876 11.7601 76.7253 12.0969 76.9904 12.3413C77.2538 12.5725 77.6736 12.7 78.2745 12.7H84.3495H84.4745V12.825V14.921V15.046H84.3495H78.2745C77.5548 15.046 76.9312 14.9622 76.4062 14.7912L76.4053 14.7909C75.8956 14.621 75.4661 14.3889 75.1201 14.0923L75.1165 14.0891L75.1165 14.0891C74.7829 13.7801 74.535 13.4147 74.3742 12.994L74.373 12.9909L74.373 12.9909C74.2259 12.5739 74.1528 12.1275 74.1528 11.6526C74.1528 10.9483 74.3046 10.3545 74.617 9.87927C74.8819 9.46624 75.2455 9.14047 75.7041 8.90124C75.2423 8.6678 74.8824 8.3493 74.6292 7.9442C74.3326 7.46975 74.1883 6.88577 74.1883 6.19933C74.1883 5.7119 74.2675 5.25844 74.4275 4.84021C74.5885 4.41903 74.8368 4.05885 75.1716 3.76123C75.1716 3.76121 75.1717 3.76119 75.1717 3.76117L75.2547 3.85459C75.5863 3.55854 76.0008 3.33354 76.4982 3.17959L84.4567 2.80591ZM84.4567 2.80591H84.3317H78.3278C77.6085 2.80591 76.9852 2.8897 76.4604 3.06044L84.4567 2.80591ZM26.1973 2.851L26.1598 2.80591H26.1012H23.5433H23.2733L23.4479 3.01177L28.2461 8.66795L22.951 14.8396L22.774 15.046H23.0459H25.6393H25.6968L25.7342 15.0024L29.7236 10.3539L33.6079 15.0012L33.6454 15.046H33.7038H36.2617H36.5317L36.357 14.8402L31.2574 8.82932L36.3204 3.01298L36.5007 2.80591H36.2262H33.6327H33.5759L33.5385 2.84878L29.7804 7.1611L26.1973 2.851ZM41.9238 2.93091V2.80591H41.7988H39.7027H39.5777V2.93091V10.7822C39.5777 11.3968 39.6561 11.9657 39.814 12.4881L39.814 12.4882L39.8151 12.4915C39.9866 13.0061 40.2568 13.4547 40.6254 13.8356C40.9953 14.2178 41.4675 14.5172 42.0383 14.7358L42.0383 14.7358L42.0413 14.7369C42.6266 14.9442 43.3224 15.046 44.1258 15.046H48.9041H49.0291V14.921V12.825V12.7H48.9041H44.2501C43.7852 12.7 43.4031 12.6476 43.1002 12.5468C42.806 12.4448 42.5744 12.3112 42.4009 12.149C42.2264 11.9741 42.1016 11.7732 42.0251 11.5453C41.9577 11.2971 41.9238 11.0369 41.9238 10.7645V2.93091ZM55.2297 2.93091V2.80591H55.1047H53.0086H52.8836V2.93091V14.921V15.046H53.0086H55.1047H55.2297V14.921V2.93091Z"
            stroke="black" stroke-width="0.25" />
    </g>
    <defs>
        <filter id="filter0_d_363_228043" x="20.502" y="0.680908" width="66.0977" height="16.4901"
            filterUnits="userSpaceOnUse" color-interpolation-filters="sRGB">
            <feFlood flood-opacity="0" result="BackgroundImageFix" />
            <feColorMatrix in="SourceAlpha" type="matrix" values="0 0 0 0 0 0 0 0 0 0 0 0 0 0 0 0 0 0 127 0"
                result="hardAlpha" />
            <feOffset />
            <feGaussianBlur stdDeviation="1" />
            <feColorMatrix type="matrix" values="0 0 0 0 0 0 0 0 0 0 0 0 0 0 0 0 0 0 0.75 0" />
            <feBlend mode="normal" in2="BackgroundImageFix" result="effect1_dropShadow_363_228043" />
            <feBlend mode="normal" in="SourceGraphic" in2="effect1_dropShadow_363_228043" result="shape" />
        </filter>
        <radialGradient id="paint0_radial_363_228043" cx="0" cy="0" r="1" gradientUnits="userSpaceOnUse"
            gradientTransform="translate(57.8942 8.85152) scale(39.7712 2.03788)">
            <stop offset="0.348958" stop-color="white" />
            <stop offset="0.864583" stop-color="white" />
            <stop offset="1" stop-color="white" stop-opacity="0" />
        </radialGradient>
    </defs>
</svg>