<svg width="98" height="18" viewBox="0 0 98 18" fill="none" xmlns="http://www.w3.org/2000/svg">
    <g opacity="0.9">
        <mask id="mask0_363_228007" style="mask-type:alpha" maskUnits="userSpaceOnUse" x="18" y="6" width="80"
            height="5">
            <path d="M18.123 10.8894V6.81364L97.6654 6.81364V10.8894L18.123 10.8894Z"
                fill="url(#paint0_radial_363_228007)" />
        </mask>
        <g mask="url(#mask0_363_228007)">
            <rect x="18.1558" y="19.7769" width="21.7598" height="79.5067" transform="rotate(-90 18.1558 19.7769)"
                fill="url(#paint1_linear_363_228007)" fill-opacity="0.9" />
        </g>
    </g>
    <path fill-rule="evenodd" clip-rule="evenodd"
        d="M13.7207 1.78862C13.7207 1.46944 13.984 1.21069 14.3088 1.21069H16.162C16.4868 1.21069 16.7501 1.46944 16.7501 1.78862V2.10235H17.6204C18.2218 3.42179 18.6552 4.8171 18.8972 6.26754H20.043V11.4689H18.9315C18.6975 12.9964 18.2514 14.4643 17.6204 15.8487H16.7501V16.2367C16.7501 16.5559 16.4868 16.8147 16.162 16.8147H14.3088C13.984 16.8147 13.7207 16.5559 13.7207 16.2367V1.78862Z"
        fill="#F8F8F8" />
    <path
        d="M6.14605 2.93091C6.82105 2.93091 7.40132 3.03157 7.88684 3.23288C8.37237 3.42236 8.76908 3.68288 9.07697 4.01446C9.39671 4.3342 9.62763 4.71315 9.76974 5.1513C9.92368 5.58946 10.0007 6.04538 10.0007 6.51907C10.0007 6.96907 9.92961 7.41907 9.7875 7.86907C9.65724 8.31907 9.43816 8.7217 9.13026 9.07696C8.82237 9.43222 8.41974 9.72236 7.92237 9.94736C7.43684 10.1724 6.84474 10.2849 6.14605 10.2849H2.41579C2.21447 10.2849 2.11382 10.3855 2.11382 10.5868V14.921H0.017763V10.1783C0.017763 9.50328 0.165789 9.01775 0.461842 8.7217C0.757895 8.42565 1.2375 8.27762 1.90066 8.27762H6.2171C6.51316 8.27762 6.76776 8.23025 6.98092 8.13551C7.19408 8.04078 7.36579 7.91643 7.49605 7.76249C7.62632 7.60854 7.72105 7.43683 7.78026 7.24736C7.85132 7.04604 7.88684 6.8388 7.88684 6.62565C7.88684 6.18749 7.75066 5.81446 7.47829 5.50657C7.21776 5.18683 6.80329 5.02696 6.23487 5.02696H0V2.93091H6.14605Z"
        fill="#F8F8F8" />
    <defs>
        <radialGradient id="paint0_radial_363_228007" cx="0" cy="0" r="1" gradientUnits="userSpaceOnUse"
            gradientTransform="translate(57.8942 8.85152) scale(39.7712 2.03788)">
            <stop offset="0.348958" stop-color="white" />
            <stop offset="0.864583" stop-color="white" />
            <stop offset="1" stop-color="white" stop-opacity="0" />
        </radialGradient>
        <linearGradient id="paint1_linear_363_228007" x1="29.0357" y1="19.7769" x2="29.0357" y2="99.2835"
            gradientUnits="userSpaceOnUse">
            <stop stop-color="#FC3D21" />
            <stop offset="1" stop-color="#FC3D21" stop-opacity="0" />
        </linearGradient>
    </defs>
</svg>