<?xml version="1.0" encoding="UTF-8" standalone="no"?>
<!-- Created with Inkscape (http://www.inkscape.org/) -->

<svg
   width="223"
   height="22"
   viewBox="0 0 59.002083 5.8208334"
   version="1.1"
   id="svg1"
   inkscape:version="1.4.2 (ebf0e940d0, 2025-05-08)"
   sodipodi:docname="analyserocks.svg"
   xmlns:inkscape="http://www.inkscape.org/namespaces/inkscape"
   xmlns:sodipodi="http://sodipodi.sourceforge.net/DTD/sodipodi-0.dtd"
   xmlns="http://www.w3.org/2000/svg"
   xmlns:svg="http://www.w3.org/2000/svg">
  <sodipodi:namedview
     id="namedview1"
     pagecolor="#ffffff"
     bordercolor="#000000"
     borderopacity="0.25"
     inkscape:showpageshadow="2"
     inkscape:pageopacity="0.0"
     inkscape:pagecheckerboard="true"
     inkscape:deskcolor="#d1d1d1"
     inkscape:document-units="mm"
     inkscape:zoom="6.5067901"
     inkscape:cx="140.62233"
     inkscape:cy="60.782659"
     inkscape:window-width="2506"
     inkscape:window-height="1371"
     inkscape:window-x="0"
     inkscape:window-y="0"
     inkscape:window-maximized="1"
     inkscape:current-layer="layer1" />
  <defs
     id="defs1" />
  <g
     inkscape:label="Layer 1"
     inkscape:groupmode="layer"
     id="layer1">
    <text
       xml:space="preserve"
       style="font-size:3.175px;text-align:start;writing-mode:lr-tb;direction:ltr;text-anchor:start;fill:#030303;stroke-width:0.264583"
       x="24.072289"
       y="19.843372"
       id="text1"><tspan
         sodipodi:role="line"
         id="tspan1"
         style="stroke-width:0.264583"
         x="24.072289"
         y="19.843372" /></text>
    <path
       style="font-size:6.74268px;font-family:Nasalization;-inkscape-font-specification:Nasalization;fill:#ffffff;stroke-width:0.421417"
       d="M 2.4603129,1.5466686 C 2.5075117,1.4387858 2.5816812,1.391587 2.689564,1.391587 c 0.1078829,0 0.1820524,0.047199 0.2225085,0.1550816 L 4.2943219,5.2079439 H 5.177613 L 3.6402819,1.1623359 C 3.4784576,0.73754703 3.1682943,0.57572271 2.6963067,0.57572271 c -0.4787303,0 -0.7888935,0.16182432 -0.9574605,0.58661319 L 0.14083098,5.2079439 H 1.0173794 Z m 4.1804644,0.060684 c 0,-0.1618244 0.094398,-0.2629646 0.2764499,-0.2629646 0.1415963,0 0.2225085,0.060684 0.2831926,0.1955378 l 1.328308,2.9060951 c 0.188795,0.5191863 0.4787302,0.842835 1.1125422,0.842835 0.701239,0 1.045115,-0.3978181 1.045115,-0.9979167 V 0.65663487 H 9.8840064 V 4.257226 c 0,0.1550817 -0.1011402,0.2562219 -0.2697072,0.2562219 -0.1483389,0 -0.2359938,-0.080912 -0.2899352,-0.1887951 L 7.996056,1.4185577 C 7.807261,0.89937135 7.5240684,0.57572271 6.8902565,0.57572271 c -0.7079814,0 -1.0451154,0.39781812 -1.0451154,0.99117399 v 3.6410472 h 0.7956362 z m 6.7494217,-0.060684 c 0.0472,-0.1078828 0.121368,-0.1550816 0.229251,-0.1550816 0.107883,0 0.182052,0.047199 0.222508,0.1550816 l 1.38225,3.6612753 h 0.883291 L 14.570168,1.1623359 C 14.408343,0.73754703 14.09818,0.57572271 13.626193,0.57572271 c -0.478731,0 -0.788894,0.16182432 -0.957461,0.58661319 l -1.598015,4.045608 h 0.876548 z m 3.08141,-0.89003373 V 3.6368995 c 0,0.9102618 0.471988,1.5710444 1.678927,1.5710444 h 1.813781 V 4.4123077 h -1.766582 c -0.714724,0 -0.93049,-0.3438767 -0.93049,-0.7821509 V 0.65663487 Z m 3.101628,0 1.834009,2.58918913 v 1.9621199 h 0.802379 V 3.245824 L 24.043634,0.65663487 H 23.099659 L 21.811807,2.6052694 20.53744,0.65663487 Z m 6.068402,0 c -1.011402,0 -1.415963,0.55289973 -1.415963,1.30807993 0,0.6338119 0.283193,1.3148226 1.496875,1.3148226 h 1.058601 c 0.559643,0 0.714724,0.2697072 0.714724,0.5663851 0,0.3303914 -0.195538,0.5663852 -0.627069,0.5663852 h -2.562219 v 0.7956362 h 2.535248 c 1.038373,0 1.449676,-0.5663851 1.449676,-1.3350506 0,-0.65404 -0.289935,-1.3417934 -1.530588,-1.3417934 h -1.065343 c -0.532672,0 -0.674268,-0.2629645 -0.674268,-0.5394144 0,-0.3169059 0.182052,-0.5394144 0.593355,-0.5394144 h 2.332968 V 0.65663487 Z m 4.888438,0 c -1.072086,0 -1.523846,0.51244373 -1.523846,1.24065313 0,0.4989583 0.215766,0.8495777 0.640555,1.0248874 -0.418046,0.1753097 -0.65404,0.525929 -0.65404,1.0451154 0,0.7079814 0.438274,1.2406531 1.517103,1.2406531 h 2.305997 V 4.4123077 h -2.305997 c -0.465245,0 -0.687753,-0.2157658 -0.687753,-0.5731278 0,-0.3708474 0.235993,-0.5528998 0.694496,-0.5528998 H 32.77539 V 2.5648133 h -2.23857 c -0.458503,0 -0.694496,-0.168567 -0.694496,-0.5394144 0,-0.3506193 0.209023,-0.5731278 0.687753,-0.5731278 h 2.279026 V 0.65663487 Z m 3.196035,3.63430453 v 0.9170045 h 0.768665 V 4.2909394 Z M 35.465728,0.65663487 V 1.4522711 h 2.494791 c 0.438275,0 0.633812,0.2764499 0.633812,0.6000985 0,0.3236487 -0.182052,0.633812 -0.633812,0.633812 h -1.773324 c -0.498959,0 -0.714725,0.2090231 -0.714725,0.7214667 v 1.8002956 h 0.795637 V 3.56273 c 0,-0.080912 0.04046,-0.1146256 0.114625,-0.1146256 h 1.186712 l 1.038373,1.7598395 h 0.883291 L 38.432507,3.3874203 c 0.694496,-0.1955377 0.964203,-0.8023789 0.964203,-1.3687641 0,-0.7282094 -0.438274,-1.36202133 -1.463161,-1.36202133 z m 6.614578,0 c -1.321565,0 -2.056517,0.75518013 -2.056517,2.28576853 0,1.5238457 0.728209,2.2655405 2.056517,2.2655405 h 0.620326 c 1.328308,0 2.056518,-0.7416948 2.056518,-2.2655405 0,-1.5305884 -0.734952,-2.28576853 -2.056518,-2.28576853 z m 0.620326,0.79563623 c 0.876549,0 1.254139,0.4450169 1.254139,1.4833896 0,1.0451154 -0.37759,1.476647 -1.254139,1.476647 h -0.620326 c -0.883291,0 -1.260881,-0.4315316 -1.260881,-1.4699043 0,-1.0451154 0.384333,-1.4901323 1.260881,-1.4901323 z m 4.8817,-0.79563623 c -1.321566,0 -2.056518,0.74843753 -2.056518,2.27902583 0,1.5238457 0.72821,2.2722832 2.056518,2.2722832 h 1.759839 V 4.4123077 h -1.759839 c -0.883292,0 -1.260882,-0.4382742 -1.260882,-1.476647 0,-1.0451154 0.384333,-1.4833896 1.260882,-1.4833896 h 1.759839 V 0.65663487 Z m 2.710552,0 V 5.2079439 H 51.08852 V 3.3065081 h 0.438275 c 0.85632,0 1.018144,0.067427 1.267624,0.5528998 l 0.694496,1.348536 h 0.890033 L 53.643996,3.7784957 C 53.374289,3.2525667 53.165266,3.0165729 52.740477,2.9019473 53.111324,2.740123 53.32709,2.4771585 53.529371,2.0725977 L 54.244095,0.65663487 H 53.387774 L 52.693278,2.0186562 C 52.437056,2.5176146 52.308946,2.5850414 51.526795,2.5850414 H 51.08852 V 0.65663487 Z m 5.980759,0 c -1.011402,0 -1.415963,0.55289973 -1.415963,1.30807993 0,0.6338119 0.283193,1.3148226 1.496875,1.3148226 h 1.058601 c 0.559642,0 0.714724,0.2697072 0.714724,0.5663851 0,0.3303914 -0.195538,0.5663852 -0.627069,0.5663852 h -2.562219 v 0.7956362 h 2.535248 c 1.038373,0 1.449676,-0.5663851 1.449676,-1.3350506 0,-0.65404 -0.289935,-1.3417934 -1.530588,-1.3417934 h -1.065344 c -0.532671,0 -0.674268,-0.2629645 -0.674268,-0.5394144 0,-0.3169059 0.182053,-0.5394144 0.593356,-0.5394144 H 58.57964 V 0.65663487 Z"
       id="text2"
       aria-label="ANALYSE.ROCKS" />
  </g>
</svg>
