<svg width="123" height="22" viewBox="0 0 123 22" fill="none" xmlns="http://www.w3.org/2000/svg">
<path d="M0.517931 0.754958V4.4689H11.5654C13.5797 4.4689 14.4924 5.75934 14.4924 7.30158C14.4924 8.78086 13.6426 10.2287 11.5339 10.2287H3.88566C1.55658 10.2287 0.549405 11.2044 0.549405 13.5964V22H4.26335V14.3203C4.26335 13.9426 4.4522 13.7853 4.79841 13.7853H11.408C16.3809 13.7853 18.2379 10.3231 18.2379 7.11273C18.2379 3.71353 16.1921 0.754958 11.408 0.754958H0.517931ZM21.9427 0.754958V22H25.6567V0.754958H21.9427ZM29.6932 0.754958L38.3171 10.9211L28.812 22H33.4072L40.6462 13.5649L47.6964 22H52.2287L43.0697 11.2044L52.1658 0.754958H47.5705L40.7406 8.59202L34.2255 0.754958H29.6932ZM54.5489 0.754958V14.6665C54.5489 18.9155 56.7521 22 62.386 22H70.8525V18.2861H62.6063C59.2701 18.2861 58.2629 16.6809 58.2629 14.6351V0.754958H54.5489ZM74.3484 0.754958V22H78.0623V0.754958H74.3484ZM88.8344 0.754958C84.1132 0.754958 82.2248 3.33584 82.2248 6.86094C82.2248 9.81951 83.5467 12.9984 89.212 12.9984H94.1535C96.7658 12.9984 97.4897 14.2574 97.4897 15.6422C97.4897 17.1845 96.577 18.2861 94.5626 18.2861H82.6025V22H94.4368C99.2838 22 101.204 19.3562 101.204 15.7681C101.204 12.7151 99.8503 9.50477 94.0591 9.50477H89.0861C86.5997 9.50477 85.9387 8.27728 85.9387 6.98684C85.9387 5.50755 86.7885 4.4689 88.7085 4.4689H99.5985V0.754958H88.8344ZM111.657 0.754958C106.653 0.754958 104.544 3.14699 104.544 6.5462C104.544 8.87528 105.551 10.5119 107.534 11.3303C105.583 12.1486 104.481 13.7853 104.481 16.2088C104.481 19.5135 106.527 22 111.563 22H122.327V18.2861H111.563C109.391 18.2861 108.352 17.2789 108.352 15.6108C108.352 13.8797 109.454 13.0299 111.594 13.0299H122.138V9.66214H111.689C109.548 9.66214 108.447 8.87528 108.447 7.14421C108.447 5.50755 109.422 4.4689 111.657 4.4689H122.295V0.754958H111.657Z" fill="white"/>
</svg>
