<svg width="738" height="738" viewBox="0 0 738 738" fill="none" xmlns="http://www.w3.org/2000/svg">
    <path
        d="M360.242 669.5C521.233 669.5 651.742 538.991 651.742 378C651.742 217.009 521.233 86.5 360.242 86.5C199.251 86.5 68.7422 217.009 68.7422 378C68.7422 538.991 199.251 669.5 360.242 669.5Z"
        stroke="#F2F2F2" stroke-width="24" />
    <path
        d="M360.242 658.047C514.882 658.047 640.242 532.687 640.242 378.047C640.242 223.407 514.882 98.047 360.242 98.047C205.602 98.047 80.2422 223.407 80.2422 378.047C80.2422 532.687 205.602 658.047 360.242 658.047Z"
        stroke="#DA4E22" stroke-width="3" />
    <path d="M357.742 642.547V112.547" stroke="#DA4E22" stroke-dasharray="2 2" />
    <path d="M622.742 377.547H92.7422" stroke="#DA4E22" stroke-dasharray="2 2" />
    <path d="M170.358 564.938L545.125 190.172" stroke="#DA4E22" stroke-dasharray="2 2" />
    <path d="M545.126 564.938L170.359 190.172" stroke="#DA4E22" stroke-dasharray="2 2" />
    <path
        d="M171.879 543.906H105.556C103.071 543.906 101.056 545.921 101.056 548.406V592.72H176.379V548.406C176.379 545.921 174.364 543.906 171.879 543.906Z"
        fill="#F2F2F2" stroke="#272727" />
    <path
        d="M175.912 551.375C175.912 548.614 173.673 546.375 170.912 546.375H111.816C109.054 546.375 106.816 548.614 106.816 551.375V592.607H175.912V551.375Z"
        fill="#E4E480" />
    <path
        d="M95.9922 597.875H182.184C184.669 597.875 186.684 595.86 186.684 593.375V592.004H91.4922V593.375C91.4922 595.86 93.5072 597.875 95.9922 597.875Z"
        fill="#F2F2F2" stroke="#272727" />
    <path
        d="M204.513 569.672H162.982C160.497 569.672 158.482 571.687 158.482 574.172V597.873H209.013V574.172C209.013 571.687 206.999 569.672 204.513 569.672Z"
        fill="#F2F2F2" stroke="#272727" />
    <path
        d="M182.888 565.238C191.624 565.238 198.706 558.156 198.706 549.42C198.706 540.684 191.624 533.602 182.888 533.602C174.152 533.602 167.07 540.684 167.07 549.42C167.07 558.156 174.152 565.238 182.888 565.238Z"
        fill="#F2F2F2" stroke="black" />
    <path d="M132.217 593.219H145.958" stroke="black" stroke-width="2" />
    <path
        d="M112.447 553.25V554.43H115.957C116.597 554.43 116.887 554.84 116.887 555.33C116.887 555.8 116.617 556.26 115.947 556.26H113.517C112.777 556.26 112.457 556.57 112.457 557.33V560H113.637V557.56C113.637 557.44 113.697 557.39 113.807 557.39H115.907C117.487 557.39 118.077 556.29 118.077 555.27C118.077 554.19 117.427 553.25 115.907 553.25H112.447Z"
        fill="black" />
    <path
        d="M372.744 628.625H306.421C303.936 628.625 301.921 630.64 301.921 633.125V677.439H377.244V633.125C377.244 630.64 375.229 628.625 372.744 628.625Z"
        fill="#F2F2F2" stroke="#272727" />
    <path
        d="M376.777 636.078C376.777 633.317 374.539 631.078 371.777 631.078H312.681C309.92 631.078 307.681 633.317 307.681 636.078V677.31H376.777V636.078Z"
        fill="#E4E480" />
    <path
        d="M296.857 682.586H383.049C385.534 682.586 387.549 680.571 387.549 678.086V676.715H292.357V678.086C292.357 680.571 294.372 682.586 296.857 682.586Z"
        fill="#F2F2F2" stroke="#272727" />
    <path
        d="M405.379 654.383H363.847C361.362 654.383 359.347 656.398 359.347 658.883V682.584H409.879V658.883C409.879 656.398 407.864 654.383 405.379 654.383Z"
        fill="#F2F2F2" stroke="#272727" />
    <path
        d="M383.754 649.949C392.49 649.949 399.573 642.867 399.573 634.131C399.573 625.395 392.49 618.313 383.754 618.313C375.018 618.313 367.936 625.395 367.936 634.131C367.936 642.867 375.018 649.949 383.754 649.949Z"
        fill="#F2F2F2" stroke="black" />
    <path d="M333.082 677.938H346.824" stroke="black" stroke-width="2" />
    <path
        d="M313.312 637.961V639.141H316.822C317.462 639.141 317.752 639.551 317.752 640.041C317.752 640.511 317.482 640.971 316.812 640.971H314.382C313.642 640.971 313.322 641.281 313.322 642.041V644.711H314.502V642.271C314.502 642.151 314.562 642.101 314.672 642.101H316.772C318.352 642.101 318.942 641.001 318.942 639.981C318.942 638.901 318.292 637.961 316.772 637.961H313.312Z"
        fill="black" />
    <path
        d="M575.347 544.297H509.025C506.539 544.297 504.525 546.312 504.525 548.797V593.111H579.847V548.797C579.847 546.312 577.833 544.297 575.347 544.297Z"
        fill="#F2F2F2" stroke="#272727" />
    <path
        d="M579.381 551.75C579.381 548.989 577.142 546.75 574.381 546.75H515.285C512.523 546.75 510.285 548.989 510.285 551.75V592.982H579.381V551.75Z"
        fill="#E4E480" />
    <path
        d="M499.461 598.258H585.653C588.138 598.258 590.153 596.243 590.153 593.758V592.387H494.961V593.758C494.961 596.243 496.975 598.258 499.461 598.258Z"
        fill="#F2F2F2" stroke="#272727" />
    <path
        d="M607.982 570.055H566.451C563.966 570.055 561.951 572.069 561.951 574.555V598.256H612.482V574.555C612.482 572.069 610.468 570.055 607.982 570.055Z"
        fill="#F2F2F2" stroke="#272727" />
    <path
        d="M586.357 565.621C595.093 565.621 602.175 558.539 602.175 549.803C602.175 541.067 595.093 533.985 586.357 533.985C577.621 533.985 570.539 541.067 570.539 549.803C570.539 558.539 577.621 565.621 586.357 565.621Z"
        fill="#F2F2F2" stroke="black" />
    <path d="M535.687 593.609H549.429" stroke="black" stroke-width="2" />
    <path
        d="M515.915 553.633V554.813H519.425C520.065 554.813 520.355 555.223 520.355 555.713C520.355 556.183 520.085 556.643 519.415 556.643H516.985C516.245 556.643 515.925 556.953 515.925 557.713V560.383H517.105V557.943C517.105 557.823 517.165 557.773 517.275 557.773H519.375C520.955 557.773 521.545 556.673 521.545 555.653C521.545 554.573 520.895 553.633 519.375 553.633H515.915Z"
        fill="black" />
    <path
        d="M677.234 347.547H610.911C608.426 347.547 606.411 349.562 606.411 352.047V396.361H681.734V352.047C681.734 349.562 679.719 347.547 677.234 347.547Z"
        fill="#F2F2F2" stroke="#272727" />
    <path
        d="M681.267 355C681.267 352.239 679.029 350 676.267 350H617.171C614.41 350 612.171 352.239 612.171 355V396.232H681.267V355Z"
        fill="#E4E480" />
    <path
        d="M601.347 401.508H687.539C690.025 401.508 692.039 399.493 692.039 397.008V395.637H596.847V397.008C596.847 399.493 598.862 401.508 601.347 401.508Z"
        fill="#F2F2F2" stroke="#272727" />
    <path
        d="M709.871 373.305H668.339C665.854 373.305 663.839 375.319 663.839 377.805V401.506H714.371V377.805C714.371 375.319 712.356 373.305 709.871 373.305Z"
        fill="#F2F2F2" stroke="#272727" />
    <path
        d="M688.246 368.871C696.982 368.871 704.065 361.789 704.065 353.053C704.065 344.317 696.982 337.235 688.246 337.235C679.51 337.235 672.428 344.317 672.428 353.053C672.428 361.789 679.51 368.871 688.246 368.871Z"
        fill="#F2F2F2" stroke="black" />
    <path d="M637.574 396.859H651.316" stroke="black" stroke-width="2" />
    <path
        d="M617.802 356.883V358.063H621.312C621.952 358.063 622.242 358.473 622.242 358.963C622.242 359.433 621.972 359.893 621.302 359.893H618.872C618.132 359.893 617.812 360.203 617.812 360.963V363.633H618.992V361.193C618.992 361.073 619.052 361.023 619.162 361.023H621.262C622.842 361.023 623.432 359.923 623.432 358.903C623.432 357.823 622.782 356.883 621.262 356.883H617.802Z"
        fill="black" />
    <path
        d="M575.347 147.281H509.025C506.539 147.281 504.525 149.296 504.525 151.781V196.095H579.847V151.781C579.847 149.296 577.833 147.281 575.347 147.281Z"
        fill="#F2F2F2" stroke="#272727" />
    <path
        d="M579.381 154.75C579.381 151.989 577.142 149.75 574.381 149.75H515.285C512.523 149.75 510.285 151.989 510.285 154.75V195.982H579.381V154.75Z"
        fill="#E4E480" />
    <path
        d="M499.461 201.25H585.653C588.138 201.25 590.153 199.235 590.153 196.75V195.379H494.961V196.75C494.961 199.235 496.975 201.25 499.461 201.25Z"
        fill="#F2F2F2" stroke="#272727" />
    <path
        d="M607.982 173.047H566.451C563.966 173.047 561.951 175.062 561.951 177.547V201.248H612.482V177.547C612.482 175.062 610.468 173.047 607.982 173.047Z"
        fill="#F2F2F2" stroke="#272727" />
    <path
        d="M586.357 168.613C595.093 168.613 602.175 161.531 602.175 152.795C602.175 144.059 595.093 136.977 586.357 136.977C577.621 136.977 570.539 144.059 570.539 152.795C570.539 161.531 577.621 168.613 586.357 168.613Z"
        fill="#F2F2F2" stroke="black" />
    <path d="M535.685 196.594H549.427" stroke="black" stroke-width="2" />
    <path
        d="M515.915 156.625V157.805H519.425C520.065 157.805 520.355 158.215 520.355 158.705C520.355 159.175 520.085 159.635 519.415 159.635H516.985C516.245 159.635 515.925 159.945 515.925 160.705V163.375H517.105V160.935C517.105 160.815 517.165 160.765 517.275 160.765H519.375C520.955 160.765 521.545 159.665 521.545 158.645C521.545 157.565 520.895 156.625 519.375 156.625H515.915Z"
        fill="black" />
    <path
        d="M377.43 65.3047H311.107C308.621 65.3047 306.607 67.3194 306.607 69.8047V114.118H381.93V69.8047C381.93 67.3194 379.915 65.3047 377.43 65.3047Z"
        fill="#F2F2F2" stroke="#272727" />
    <path
        d="M381.463 72.7656C381.463 70.0042 379.224 67.7656 376.463 67.7656H317.367C314.605 67.7656 312.367 70.0042 312.367 72.7656V113.997H381.463V72.7656Z"
        fill="#E4E480" />
    <path
        d="M301.543 119.273H387.735C390.22 119.273 392.235 117.259 392.235 114.773V113.403H297.043V114.773C297.043 117.259 299.058 119.273 301.543 119.273Z"
        fill="#F2F2F2" stroke="#272727" />
    <path
        d="M410.066 91.0703H368.535C366.05 91.0703 364.035 93.085 364.035 95.5703V119.271H414.566V95.5703C414.566 93.085 412.551 91.0703 410.066 91.0703Z"
        fill="#F2F2F2" stroke="#272727" />
    <path
        d="M388.441 86.6366C397.177 86.6366 404.26 79.5545 404.26 70.8183C404.26 62.0821 397.177 55 388.441 55C379.705 55 372.623 62.0821 372.623 70.8183C372.623 79.5545 379.705 86.6366 388.441 86.6366Z"
        fill="#F2F2F2" stroke="black" />
    <path d="M337.769 114.625H351.511" stroke="black" stroke-width="2" />
    <path
        d="M317.997 74.6406V75.8206H321.507C322.147 75.8206 322.437 76.2306 322.437 76.7206C322.437 77.1906 322.167 77.6506 321.497 77.6506H319.067C318.327 77.6506 318.007 77.9606 318.007 78.7206V81.3906H319.187V78.9506C319.187 78.8306 319.247 78.7806 319.357 78.7806H321.457C323.037 78.7806 323.627 77.6806 323.627 76.6606C323.627 75.5806 322.977 74.6406 321.457 74.6406H317.997Z"
        fill="black" />
    <path
        d="M181.849 154.312H115.527C113.041 154.312 111.027 156.327 111.027 158.812V203.126H186.349V158.812C186.349 156.327 184.335 154.312 181.849 154.312Z"
        fill="#F2F2F2" stroke="#272727" />
    <path
        d="M185.885 161.766C185.885 159.004 183.646 156.766 180.885 156.766H121.789C119.027 156.766 116.789 159.004 116.789 161.766V202.997H185.885V161.766Z"
        fill="#E4E480" />
    <path
        d="M105.965 208.273H192.157C194.642 208.273 196.657 206.259 196.657 203.773V202.403H101.465V203.773C101.465 206.259 103.479 208.273 105.965 208.273Z"
        fill="#F2F2F2" stroke="#272727" />
    <path
        d="M214.488 180.07H172.957C170.471 180.07 168.457 182.085 168.457 184.57V208.271H218.988V184.57C218.988 182.085 216.973 180.07 214.488 180.07Z"
        fill="#F2F2F2" stroke="#272727" />
    <path
        d="M192.863 175.636C201.599 175.636 208.682 168.554 208.682 159.818C208.682 151.082 201.599 144 192.863 144C184.127 144 177.045 151.082 177.045 159.818C177.045 168.554 184.127 175.636 192.863 175.636Z"
        fill="#F2F2F2" stroke="black" />
    <path d="M142.189 203.625H155.931" stroke="black" stroke-width="2" />
    <path
        d="M122.419 163.641V164.821H125.929C126.569 164.821 126.859 165.231 126.859 165.721C126.859 166.191 126.589 166.651 125.919 166.651H123.489C122.749 166.651 122.429 166.961 122.429 167.721V170.391H123.609V167.951C123.609 167.831 123.669 167.781 123.779 167.781H125.879C127.459 167.781 128.049 166.681 128.049 165.661C128.049 164.581 127.399 163.641 125.879 163.641H122.419Z"
        fill="black" />
    <path
        d="M103.387 351.055H37.0639C34.5786 351.055 32.5639 353.069 32.5639 355.555V399.868H107.887V355.555C107.887 353.069 105.872 351.055 103.387 351.055Z"
        fill="#F2F2F2" stroke="#272727" />
    <path
        d="M107.42 358.516C107.42 355.754 105.181 353.516 102.42 353.516H43.3239C40.5625 353.516 38.3239 355.754 38.3239 358.516V399.747H107.42V358.516Z"
        fill="#E4E480" />
    <path
        d="M27.5 405.023H113.692C116.177 405.023 118.192 403.009 118.192 400.523V399.153H23V400.523C23 403.009 25.0147 405.023 27.5 405.023Z"
        fill="#F2F2F2" stroke="#272727" />
    <path
        d="M136.021 376.82H94.4902C92.0052 376.82 89.9902 378.835 89.9902 381.32V405.021H140.521V381.32C140.521 378.835 138.507 376.82 136.021 376.82Z"
        fill="#F2F2F2" stroke="#272727" />
    <path
        d="M114.396 372.386C123.132 372.386 130.215 365.304 130.215 356.568C130.215 347.832 123.132 340.75 114.396 340.75C105.66 340.75 98.5779 347.832 98.5779 356.568C98.5779 365.304 105.66 372.386 114.396 372.386Z"
        fill="#F2F2F2" stroke="black" />
    <path d="M63.7242 400.375H77.4662" stroke="black" stroke-width="2" />
    <path
        d="M43.9547 360.391V361.571H47.4652C48.1052 361.571 48.3952 361.981 48.3952 362.471C48.3952 362.941 48.1252 363.401 47.4552 363.401H45.0252C44.2847 363.401 43.9647 363.711 43.9647 364.471V367.141H45.1452V364.701C45.1452 364.581 45.2052 364.531 45.3152 364.531H47.4152C48.9952 364.531 49.5852 363.431 49.5852 362.411C49.5852 361.331 48.9352 360.391 47.4152 360.391H43.9547Z"
        fill="black" />
    <path
        d="M358.242 480.547C415.956 480.547 462.742 433.761 462.742 376.047C462.742 318.333 415.956 271.547 358.242 271.547C300.528 271.547 253.742 318.333 253.742 376.047C253.742 433.761 300.528 480.547 358.242 480.547Z"
        fill="#E0E0E0" />
    <path
        d="M372.935 326.047H287.935C285.45 326.047 283.435 328.062 283.435 330.547V415.047H377.435V330.547C377.435 328.062 375.421 326.047 372.935 326.047Z"
        fill="#F2F2F2" stroke="#272727" />
    <path
        d="M322.644 441.547V438.225L320.224 433.847H321.324L322.633 436.377C322.67 436.436 322.703 436.498 322.732 436.564C322.769 436.63 322.802 436.696 322.831 436.762C322.941 436.96 323.047 437.162 323.15 437.367C323.421 436.868 323.597 436.542 323.678 436.388L325.053 433.847H326.131L323.656 438.225V441.547H322.644ZM329.757 441.712C329.178 441.712 328.675 441.554 328.25 441.239C327.832 440.924 327.509 440.465 327.282 439.864C327.062 439.263 326.952 438.54 326.952 437.697C326.952 436.854 327.062 436.131 327.282 435.53C327.509 434.921 327.832 434.459 328.25 434.144C328.675 433.829 329.178 433.671 329.757 433.671C330.336 433.671 330.835 433.829 331.253 434.144C331.678 434.459 332.001 434.921 332.221 435.53C332.448 436.131 332.562 436.854 332.562 437.697C332.562 438.54 332.448 439.263 332.221 439.864C332.001 440.465 331.678 440.924 331.253 441.239C330.835 441.554 330.336 441.712 329.757 441.712ZM329.757 440.876C330.109 440.876 330.417 440.751 330.681 440.502C330.945 440.253 331.147 439.89 331.286 439.413C331.433 438.936 331.506 438.364 331.506 437.697C331.506 437.03 331.433 436.458 331.286 435.981C331.147 435.504 330.945 435.141 330.681 434.892C330.417 434.643 330.109 434.518 329.757 434.518C329.398 434.518 329.086 434.643 328.822 434.892C328.558 435.141 328.353 435.504 328.206 435.981C328.067 436.458 327.997 437.03 327.997 437.697C327.997 438.364 328.067 438.936 328.206 439.413C328.353 439.89 328.558 440.253 328.822 440.502C329.086 440.751 329.398 440.876 329.757 440.876ZM336.353 441.712C335.781 441.712 335.297 441.602 334.901 441.382C334.505 441.162 334.204 440.836 333.999 440.403C333.801 439.97 333.702 439.439 333.702 438.808V433.847H334.703V438.665C334.703 439.142 334.765 439.545 334.89 439.875C335.014 440.205 335.198 440.454 335.44 440.623C335.689 440.792 335.993 440.876 336.353 440.876C336.888 440.876 337.295 440.689 337.574 440.315C337.852 439.934 337.992 439.384 337.992 438.665V433.847H339.004V438.808C339.004 439.754 338.776 440.476 338.322 440.975C337.874 441.466 337.218 441.712 336.353 441.712ZM340.385 441.547V433.847H343.311C344.052 433.847 344.639 434.027 345.071 434.386C345.504 434.738 345.72 435.233 345.72 435.871C345.72 436.326 345.577 436.722 345.291 437.059C345.005 437.396 344.672 437.624 344.29 437.741C344.672 437.8 344.976 437.987 345.203 438.302C345.431 438.61 345.544 439.01 345.544 439.501V441.547H344.543V439.776C344.543 439.175 344.419 438.76 344.169 438.533C343.927 438.298 343.513 438.181 342.926 438.181H341.386V441.547H340.385ZM343.058 437.334C343.403 437.334 343.696 437.283 343.938 437.18C344.188 437.077 344.375 436.927 344.499 436.729C344.631 436.524 344.697 436.278 344.697 435.992C344.697 435.559 344.554 435.233 344.268 435.013C343.99 434.793 343.586 434.683 343.058 434.683H341.386V437.334H343.058ZM353.126 441.547L355.502 437.554L353.302 433.847H354.446L355.799 436.223C355.865 436.333 355.923 436.439 355.975 436.542C356.004 436.593 356.033 436.645 356.063 436.696C356.092 436.74 356.121 436.788 356.151 436.839C356.18 436.788 356.209 436.736 356.239 436.685C356.268 436.634 356.297 436.582 356.327 436.531C356.356 436.48 356.385 436.428 356.415 436.377C356.444 436.326 356.473 436.274 356.503 436.223L357.878 433.847H358.967L356.8 437.554L359.154 441.547H358.01L356.415 438.753C356.356 438.665 356.305 438.581 356.261 438.5C356.217 438.419 356.173 438.339 356.129 438.258C356.107 438.302 356.081 438.346 356.052 438.39C356.03 438.434 356.008 438.478 355.986 438.522C355.964 438.559 355.942 438.599 355.92 438.643C355.898 438.68 355.872 438.716 355.843 438.753L354.237 441.547H353.126ZM360.172 441.547V433.847H363.098C363.839 433.847 364.426 434.027 364.858 434.386C365.291 434.738 365.507 435.233 365.507 435.871C365.507 436.326 365.364 436.722 365.078 437.059C364.792 437.396 364.459 437.624 364.077 437.741C364.459 437.8 364.763 437.987 364.99 438.302C365.218 438.61 365.331 439.01 365.331 439.501V441.547H364.33V439.776C364.33 439.175 364.206 438.76 363.956 438.533C363.714 438.298 363.3 438.181 362.713 438.181H361.173V441.547H360.172ZM362.845 437.334C363.19 437.334 363.483 437.283 363.725 437.18C363.975 437.077 364.162 436.927 364.286 436.729C364.418 436.524 364.484 436.278 364.484 435.992C364.484 435.559 364.341 435.233 364.055 435.013C363.777 434.793 363.373 434.683 362.845 434.683H361.173V437.334H362.845ZM367.12 441.547V433.847H372.136V434.683H368.132V437.158H371.949V437.994H368.132V441.547H367.12ZM380.102 441.547V433.847H381.103V440.7H385.536V441.547H380.102ZM386.027 441.547L388.48 433.847H389.745L392.209 441.547H391.164L389.371 435.684C389.203 435.127 389.111 434.819 389.096 434.76C388.994 435.141 388.902 435.449 388.821 435.684L387.028 441.547H386.027ZM387.402 439.259V438.423H390.867V439.259H387.402ZM393.272 441.547V433.847H395.934C396.682 433.847 397.276 434.008 397.716 434.331C398.156 434.654 398.376 435.138 398.376 435.783C398.376 436.186 398.251 436.542 398.002 436.85C397.76 437.151 397.456 437.36 397.089 437.477C397.551 437.624 397.91 437.862 398.167 438.192C398.431 438.515 398.563 438.911 398.563 439.38C398.563 439.923 398.431 440.355 398.167 440.678C397.903 440.993 397.555 441.217 397.122 441.349C396.689 441.481 396.198 441.547 395.648 441.547H393.272ZM395.813 440.7C396.407 440.7 396.843 440.586 397.122 440.359C397.401 440.132 397.54 439.787 397.54 439.325C397.54 438.892 397.404 438.555 397.133 438.313C396.862 438.064 396.407 437.939 395.769 437.939H394.284V440.7H395.813ZM395.791 437.092C396.121 437.092 396.403 437.044 396.638 436.949C396.873 436.854 397.049 436.714 397.166 436.531C397.291 436.34 397.353 436.117 397.353 435.86C397.353 435.493 397.232 435.207 396.99 435.002C396.755 434.789 396.381 434.683 395.868 434.683H394.284V437.092H395.791Z"
        fill="black" />
    <path d="M363.742 407.5H445.242" stroke="#272727" stroke-width="2" />
    <path d="M334.522 354.547L322.935 379.416H338.935L327.901 406.547" stroke="black" />
    <path d="M282.935 413.547H377.935" stroke="black" stroke-width="2" />
    <path d="M385.935 413.547H423.935" stroke="black" stroke-width="2" />
    <path d="M323.935 333.547H335.935" stroke="black" stroke-width="2" />
    <path d="M300.935 406.547H357.935" stroke="black" />
    <path d="M404.935 413.547V406.547" stroke="black" stroke-width="2" />
    <path
        d="M353.935 326.047H305.935C303.45 326.047 301.435 328.062 301.435 330.547V415.047H358.435V330.547C358.435 328.062 356.421 326.047 353.935 326.047Z"
        stroke="#272727" />
    <path
        d="M441.17 352.781H369.033C366.548 352.781 364.533 354.796 364.533 357.281V406.05H445.67V357.281C445.67 354.796 443.655 352.781 441.17 352.781Z"
        fill="#F2F2F2" stroke="#272727" />
    <path d="M391.901 361.078L372.834 381.612" stroke="black" />
    <path d="M399.235 361.078L380.168 381.612" stroke="black" />
    <path d="M365.5 398.219H446.17" stroke="black" />
</svg>