<?xml version="1.0" encoding="UTF-8" standalone="no"?>
<svg
   width="738"
   height="738"
   viewBox="0 0 738 738"
   fill="none"
   version="1.1"
   id="svg77"
   sodipodi:docname="collaboration-auscope.svg"
   inkscape:version="1.4.2 (ebf0e940d0, 2025-05-08)"
   xmlns:inkscape="http://www.inkscape.org/namespaces/inkscape"
   xmlns:sodipodi="http://sodipodi.sourceforge.net/DTD/sodipodi-0.dtd"
   xmlns="http://www.w3.org/2000/svg"
   xmlns:svg="http://www.w3.org/2000/svg">
  <defs
     id="defs77" />
  <sodipodi:namedview
     id="namedview77"
     pagecolor="#ffffff"
     bordercolor="#000000"
     borderopacity="0.25"
     inkscape:showpageshadow="2"
     inkscape:pageopacity="0.0"
     inkscape:pagecheckerboard="0"
     inkscape:deskcolor="#d1d1d1"
     inkscape:zoom="9.277241"
     inkscape:cx="368.85967"
     inkscape:cy="442.96575"
     inkscape:window-width="1920"
     inkscape:window-height="1163"
     inkscape:window-x="0"
     inkscape:window-y="0"
     inkscape:window-maximized="1"
     inkscape:current-layer="svg77" />
  <path
     d="M360.242 669.5C521.233 669.5 651.742 538.991 651.742 378C651.742 217.009 521.233 86.5 360.242 86.5C199.251 86.5 68.7422 217.009 68.7422 378C68.7422 538.991 199.251 669.5 360.242 669.5Z"
     stroke="#F2F2F2"
     stroke-width="24"
     id="path1" />
  <path
     d="M360.242 658.047C514.882 658.047 640.242 532.687 640.242 378.047C640.242 223.407 514.882 98.047 360.242 98.047C205.602 98.047 80.2422 223.407 80.2422 378.047C80.2422 532.687 205.602 658.047 360.242 658.047Z"
     stroke="#DA4E22"
     stroke-width="3"
     id="path2" />
  <path
     d="M357.742 642.547V112.547"
     stroke="#DA4E22"
     stroke-dasharray="2 2"
     id="path3" />
  <path
     d="M622.742 377.547H92.7422"
     stroke="#DA4E22"
     stroke-dasharray="2 2"
     id="path4" />
  <path
     d="M170.358 564.938L545.125 190.172"
     stroke="#DA4E22"
     stroke-dasharray="2 2"
     id="path5" />
  <path
     d="M545.126 564.938L170.359 190.172"
     stroke="#DA4E22"
     stroke-dasharray="2 2"
     id="path6" />
  <path
     d="M171.879 543.906H105.556C103.071 543.906 101.056 545.921 101.056 548.406V592.72H176.379V548.406C176.379 545.921 174.364 543.906 171.879 543.906Z"
     fill="#F2F2F2"
     stroke="#272727"
     id="path7" />
  <path
     d="M175.912 551.375C175.912 548.614 173.673 546.375 170.912 546.375H111.816C109.054 546.375 106.816 548.614 106.816 551.375V592.607H175.912V551.375Z"
     fill="#E4E480"
     id="path8" />
  <path
     d="M95.9922 597.875H182.184C184.669 597.875 186.684 595.86 186.684 593.375V592.004H91.4922V593.375C91.4922 595.86 93.5072 597.875 95.9922 597.875Z"
     fill="#F2F2F2"
     stroke="#272727"
     id="path9" />
  <path
     d="M204.513 569.672H162.982C160.497 569.672 158.482 571.687 158.482 574.172V597.873H209.013V574.172C209.013 571.687 206.999 569.672 204.513 569.672Z"
     fill="#F2F2F2"
     stroke="#272727"
     id="path10" />
  <path
     d="M182.888 565.238C191.624 565.238 198.706 558.156 198.706 549.42C198.706 540.684 191.624 533.602 182.888 533.602C174.152 533.602 167.07 540.684 167.07 549.42C167.07 558.156 174.152 565.238 182.888 565.238Z"
     fill="#F2F2F2"
     stroke="black"
     id="path11" />
  <path
     d="M132.217 593.219H145.958"
     stroke="black"
     stroke-width="2"
     id="path12" />
  <path
     d="M112.447 553.25V554.43H115.957C116.597 554.43 116.887 554.84 116.887 555.33C116.887 555.8 116.617 556.26 115.947 556.26H113.517C112.777 556.26 112.457 556.57 112.457 557.33V560H113.637V557.56C113.637 557.44 113.697 557.39 113.807 557.39H115.907C117.487 557.39 118.077 556.29 118.077 555.27C118.077 554.19 117.427 553.25 115.907 553.25H112.447Z"
     fill="black"
     id="path13" />
  <path
     d="M372.744 628.625H306.421C303.936 628.625 301.921 630.64 301.921 633.125V677.439H377.244V633.125C377.244 630.64 375.229 628.625 372.744 628.625Z"
     fill="#F2F2F2"
     stroke="#272727"
     id="path14" />
  <path
     d="M376.777 636.078C376.777 633.317 374.539 631.078 371.777 631.078H312.681C309.92 631.078 307.681 633.317 307.681 636.078V677.31H376.777V636.078Z"
     fill="#E4E480"
     id="path15" />
  <path
     d="M296.857 682.586H383.049C385.534 682.586 387.549 680.571 387.549 678.086V676.715H292.357V678.086C292.357 680.571 294.372 682.586 296.857 682.586Z"
     fill="#F2F2F2"
     stroke="#272727"
     id="path16" />
  <path
     d="M405.379 654.383H363.847C361.362 654.383 359.347 656.398 359.347 658.883V682.584H409.879V658.883C409.879 656.398 407.864 654.383 405.379 654.383Z"
     fill="#F2F2F2"
     stroke="#272727"
     id="path17" />
  <path
     d="M383.754 649.949C392.49 649.949 399.573 642.867 399.573 634.131C399.573 625.395 392.49 618.313 383.754 618.313C375.018 618.313 367.936 625.395 367.936 634.131C367.936 642.867 375.018 649.949 383.754 649.949Z"
     fill="#F2F2F2"
     stroke="black"
     id="path18" />
  <path
     d="M333.082 677.938H346.824"
     stroke="black"
     stroke-width="2"
     id="path19" />
  <path
     d="M313.312 637.961V639.141H316.822C317.462 639.141 317.752 639.551 317.752 640.041C317.752 640.511 317.482 640.971 316.812 640.971H314.382C313.642 640.971 313.322 641.281 313.322 642.041V644.711H314.502V642.271C314.502 642.151 314.562 642.101 314.672 642.101H316.772C318.352 642.101 318.942 641.001 318.942 639.981C318.942 638.901 318.292 637.961 316.772 637.961H313.312Z"
     fill="black"
     id="path20" />
  <path
     d="M575.347 544.297H509.025C506.539 544.297 504.525 546.312 504.525 548.797V593.111H579.847V548.797C579.847 546.312 577.833 544.297 575.347 544.297Z"
     fill="#F2F2F2"
     stroke="#272727"
     id="path21" />
  <path
     d="M579.381 551.75C579.381 548.989 577.142 546.75 574.381 546.75H515.285C512.523 546.75 510.285 548.989 510.285 551.75V592.982H579.381V551.75Z"
     fill="#E4E480"
     id="path22" />
  <path
     d="M499.461 598.258H585.653C588.138 598.258 590.153 596.243 590.153 593.758V592.387H494.961V593.758C494.961 596.243 496.975 598.258 499.461 598.258Z"
     fill="#F2F2F2"
     stroke="#272727"
     id="path23" />
  <path
     d="M607.982 570.055H566.451C563.966 570.055 561.951 572.069 561.951 574.555V598.256H612.482V574.555C612.482 572.069 610.468 570.055 607.982 570.055Z"
     fill="#F2F2F2"
     stroke="#272727"
     id="path24" />
  <path
     d="M586.357 565.621C595.093 565.621 602.175 558.539 602.175 549.803C602.175 541.067 595.093 533.985 586.357 533.985C577.621 533.985 570.539 541.067 570.539 549.803C570.539 558.539 577.621 565.621 586.357 565.621Z"
     fill="#F2F2F2"
     stroke="black"
     id="path25" />
  <path
     d="M535.687 593.609H549.429"
     stroke="black"
     stroke-width="2"
     id="path26" />
  <path
     d="M515.915 553.633V554.813H519.425C520.065 554.813 520.355 555.223 520.355 555.713C520.355 556.183 520.085 556.643 519.415 556.643H516.985C516.245 556.643 515.925 556.953 515.925 557.713V560.383H517.105V557.943C517.105 557.823 517.165 557.773 517.275 557.773H519.375C520.955 557.773 521.545 556.673 521.545 555.653C521.545 554.573 520.895 553.633 519.375 553.633H515.915Z"
     fill="black"
     id="path27" />
  <path
     d="M677.234 347.547H610.911C608.426 347.547 606.411 349.562 606.411 352.047V396.361H681.734V352.047C681.734 349.562 679.719 347.547 677.234 347.547Z"
     fill="#F2F2F2"
     stroke="#272727"
     id="path28" />
  <path
     d="M681.267 355C681.267 352.239 679.029 350 676.267 350H617.171C614.41 350 612.171 352.239 612.171 355V396.232H681.267V355Z"
     fill="#E4E480"
     id="path29" />
  <path
     d="M601.347 401.508H687.539C690.025 401.508 692.039 399.493 692.039 397.008V395.637H596.847V397.008C596.847 399.493 598.862 401.508 601.347 401.508Z"
     fill="#F2F2F2"
     stroke="#272727"
     id="path30" />
  <path
     d="M709.871 373.305H668.339C665.854 373.305 663.839 375.319 663.839 377.805V401.506H714.371V377.805C714.371 375.319 712.356 373.305 709.871 373.305Z"
     fill="#F2F2F2"
     stroke="#272727"
     id="path31" />
  <path
     d="M688.246 368.871C696.982 368.871 704.065 361.789 704.065 353.053C704.065 344.317 696.982 337.235 688.246 337.235C679.51 337.235 672.428 344.317 672.428 353.053C672.428 361.789 679.51 368.871 688.246 368.871Z"
     fill="#F2F2F2"
     stroke="black"
     id="path32" />
  <path
     d="M637.574 396.859H651.316"
     stroke="black"
     stroke-width="2"
     id="path33" />
  <path
     d="M617.802 356.883V358.063H621.312C621.952 358.063 622.242 358.473 622.242 358.963C622.242 359.433 621.972 359.893 621.302 359.893H618.872C618.132 359.893 617.812 360.203 617.812 360.963V363.633H618.992V361.193C618.992 361.073 619.052 361.023 619.162 361.023H621.262C622.842 361.023 623.432 359.923 623.432 358.903C623.432 357.823 622.782 356.883 621.262 356.883H617.802Z"
     fill="black"
     id="path34" />
  <path
     d="M575.347 147.281H509.025C506.539 147.281 504.525 149.296 504.525 151.781V196.095H579.847V151.781C579.847 149.296 577.833 147.281 575.347 147.281Z"
     fill="#F2F2F2"
     stroke="#272727"
     id="path35" />
  <path
     d="M579.381 154.75C579.381 151.989 577.142 149.75 574.381 149.75H515.285C512.523 149.75 510.285 151.989 510.285 154.75V195.982H579.381V154.75Z"
     fill="#E4E480"
     id="path36" />
  <path
     d="M499.461 201.25H585.653C588.138 201.25 590.153 199.235 590.153 196.75V195.379H494.961V196.75C494.961 199.235 496.975 201.25 499.461 201.25Z"
     fill="#F2F2F2"
     stroke="#272727"
     id="path37" />
  <path
     d="M607.982 173.047H566.451C563.966 173.047 561.951 175.062 561.951 177.547V201.248H612.482V177.547C612.482 175.062 610.468 173.047 607.982 173.047Z"
     fill="#F2F2F2"
     stroke="#272727"
     id="path38" />
  <path
     d="M586.357 168.613C595.093 168.613 602.175 161.531 602.175 152.795C602.175 144.059 595.093 136.977 586.357 136.977C577.621 136.977 570.539 144.059 570.539 152.795C570.539 161.531 577.621 168.613 586.357 168.613Z"
     fill="#F2F2F2"
     stroke="black"
     id="path39" />
  <path
     d="M535.685 196.594H549.427"
     stroke="black"
     stroke-width="2"
     id="path40" />
  <path
     d="M515.915 156.625V157.805H519.425C520.065 157.805 520.355 158.215 520.355 158.705C520.355 159.175 520.085 159.635 519.415 159.635H516.985C516.245 159.635 515.925 159.945 515.925 160.705V163.375H517.105V160.935C517.105 160.815 517.165 160.765 517.275 160.765H519.375C520.955 160.765 521.545 159.665 521.545 158.645C521.545 157.565 520.895 156.625 519.375 156.625H515.915Z"
     fill="black"
     id="path41" />
  <path
     d="M377.43 65.3047H311.107C308.621 65.3047 306.607 67.3194 306.607 69.8047V114.118H381.93V69.8047C381.93 67.3194 379.915 65.3047 377.43 65.3047Z"
     fill="#F2F2F2"
     stroke="#272727"
     id="path42" />
  <path
     d="M381.463 72.7656C381.463 70.0042 379.224 67.7656 376.463 67.7656H317.367C314.605 67.7656 312.367 70.0042 312.367 72.7656V113.997H381.463V72.7656Z"
     fill="#E4E480"
     id="path43" />
  <path
     d="M301.543 119.273H387.735C390.22 119.273 392.235 117.259 392.235 114.773V113.403H297.043V114.773C297.043 117.259 299.058 119.273 301.543 119.273Z"
     fill="#F2F2F2"
     stroke="#272727"
     id="path44" />
  <path
     d="M410.066 91.0703H368.535C366.05 91.0703 364.035 93.085 364.035 95.5703V119.271H414.566V95.5703C414.566 93.085 412.551 91.0703 410.066 91.0703Z"
     fill="#F2F2F2"
     stroke="#272727"
     id="path45" />
  <path
     d="M388.441 86.6366C397.177 86.6366 404.26 79.5545 404.26 70.8183C404.26 62.0821 397.177 55 388.441 55C379.705 55 372.623 62.0821 372.623 70.8183C372.623 79.5545 379.705 86.6366 388.441 86.6366Z"
     fill="#F2F2F2"
     stroke="black"
     id="path46" />
  <path
     d="M337.769 114.625H351.511"
     stroke="black"
     stroke-width="2"
     id="path47" />
  <path
     d="M317.997 74.6406V75.8206H321.507C322.147 75.8206 322.437 76.2306 322.437 76.7206C322.437 77.1906 322.167 77.6506 321.497 77.6506H319.067C318.327 77.6506 318.007 77.9606 318.007 78.7206V81.3906H319.187V78.9506C319.187 78.8306 319.247 78.7806 319.357 78.7806H321.457C323.037 78.7806 323.627 77.6806 323.627 76.6606C323.627 75.5806 322.977 74.6406 321.457 74.6406H317.997Z"
     fill="black"
     id="path48" />
  <path
     d="M181.849 154.312H115.527C113.041 154.312 111.027 156.327 111.027 158.812V203.126H186.349V158.812C186.349 156.327 184.335 154.312 181.849 154.312Z"
     fill="#F2F2F2"
     stroke="#272727"
     id="path49" />
  <path
     d="M185.885 161.766C185.885 159.004 183.646 156.766 180.885 156.766H121.789C119.027 156.766 116.789 159.004 116.789 161.766V202.997H185.885V161.766Z"
     fill="#E4E480"
     id="path50" />
  <path
     d="M105.965 208.273H192.157C194.642 208.273 196.657 206.259 196.657 203.773V202.403H101.465V203.773C101.465 206.259 103.479 208.273 105.965 208.273Z"
     fill="#F2F2F2"
     stroke="#272727"
     id="path51" />
  <path
     d="M214.488 180.07H172.957C170.471 180.07 168.457 182.085 168.457 184.57V208.271H218.988V184.57C218.988 182.085 216.973 180.07 214.488 180.07Z"
     fill="#F2F2F2"
     stroke="#272727"
     id="path52" />
  <path
     d="M192.863 175.636C201.599 175.636 208.682 168.554 208.682 159.818C208.682 151.082 201.599 144 192.863 144C184.127 144 177.045 151.082 177.045 159.818C177.045 168.554 184.127 175.636 192.863 175.636Z"
     fill="#F2F2F2"
     stroke="black"
     id="path53" />
  <path
     d="M142.189 203.625H155.931"
     stroke="black"
     stroke-width="2"
     id="path54" />
  <path
     d="M122.419 163.641V164.821H125.929C126.569 164.821 126.859 165.231 126.859 165.721C126.859 166.191 126.589 166.651 125.919 166.651H123.489C122.749 166.651 122.429 166.961 122.429 167.721V170.391H123.609V167.951C123.609 167.831 123.669 167.781 123.779 167.781H125.879C127.459 167.781 128.049 166.681 128.049 165.661C128.049 164.581 127.399 163.641 125.879 163.641H122.419Z"
     fill="black"
     id="path55" />
  <path
     d="M103.387 351.055H37.0639C34.5786 351.055 32.5639 353.069 32.5639 355.555V399.868H107.887V355.555C107.887 353.069 105.872 351.055 103.387 351.055Z"
     fill="#F2F2F2"
     stroke="#272727"
     id="path56" />
  <path
     d="M107.42 358.516C107.42 355.754 105.181 353.516 102.42 353.516H43.3239C40.5625 353.516 38.3239 355.754 38.3239 358.516V399.747H107.42V358.516Z"
     fill="#E4E480"
     id="path57" />
  <path
     d="M27.5 405.023H113.692C116.177 405.023 118.192 403.009 118.192 400.523V399.153H23V400.523C23 403.009 25.0147 405.023 27.5 405.023Z"
     fill="#F2F2F2"
     stroke="#272727"
     id="path58" />
  <path
     d="M136.021 376.82H94.4902C92.0052 376.82 89.9902 378.835 89.9902 381.32V405.021H140.521V381.32C140.521 378.835 138.507 376.82 136.021 376.82Z"
     fill="#F2F2F2"
     stroke="#272727"
     id="path59" />
  <path
     d="M114.396 372.386C123.132 372.386 130.215 365.304 130.215 356.568C130.215 347.832 123.132 340.75 114.396 340.75C105.66 340.75 98.5779 347.832 98.5779 356.568C98.5779 365.304 105.66 372.386 114.396 372.386Z"
     fill="#F2F2F2"
     stroke="black"
     id="path60" />
  <path
     d="M63.7242 400.375H77.4662"
     stroke="black"
     stroke-width="2"
     id="path61" />
  <path
     d="M43.9547 360.391V361.571H47.4652C48.1052 361.571 48.3952 361.981 48.3952 362.471C48.3952 362.941 48.1252 363.401 47.4552 363.401H45.0252C44.2847 363.401 43.9647 363.711 43.9647 364.471V367.141H45.1452V364.701C45.1452 364.581 45.2052 364.531 45.3152 364.531H47.4152C48.9952 364.531 49.5852 363.431 49.5852 362.411C49.5852 361.331 48.9352 360.391 47.4152 360.391H43.9547Z"
     fill="black"
     id="path62" />
  <path
     d="M358.242 480.547C415.956 480.547 462.742 433.761 462.742 376.047C462.742 318.333 415.956 271.547 358.242 271.547C300.528 271.547 253.742 318.333 253.742 376.047C253.742 433.761 300.528 480.547 358.242 480.547Z"
     fill="#E0E0E0"
     id="path63" />
  <path
     d="M372.935 326.047H287.935C285.45 326.047 283.435 328.062 283.435 330.547V415.047H377.435V330.547C377.435 328.062 375.421 326.047 372.935 326.047Z"
     fill="#F2F2F2"
     stroke="#272727"
     id="path64" />
  <path
     d="m 334.644,441.547 v -3.322 l -2.42,-4.378 h 1.1 l 1.309,2.53 c 0.037,0.059 0.07,0.121 0.099,0.187 0.037,0.066 0.07,0.132 0.099,0.198 0.11,0.198 0.216,0.4 0.319,0.605 0.271,-0.499 0.447,-0.825 0.528,-0.979 l 1.375,-2.541 h 1.078 l -2.475,4.378 v 3.322 z m 7.113,0.165 c -0.579,0 -1.082,-0.158 -1.507,-0.473 -0.418,-0.315 -0.741,-0.774 -0.968,-1.375 -0.22,-0.601 -0.33,-1.324 -0.33,-2.167 0,-0.843 0.11,-1.566 0.33,-2.167 0.227,-0.609 0.55,-1.071 0.968,-1.386 0.425,-0.315 0.928,-0.473 1.507,-0.473 0.579,0 1.078,0.158 1.496,0.473 0.425,0.315 0.748,0.777 0.968,1.386 0.227,0.601 0.341,1.324 0.341,2.167 0,0.843 -0.114,1.566 -0.341,2.167 -0.22,0.601 -0.543,1.06 -0.968,1.375 -0.418,0.315 -0.917,0.473 -1.496,0.473 z m 0,-0.836 c 0.352,0 0.66,-0.125 0.924,-0.374 0.264,-0.249 0.466,-0.612 0.605,-1.089 0.147,-0.477 0.22,-1.049 0.22,-1.716 0,-0.667 -0.073,-1.239 -0.22,-1.716 -0.139,-0.477 -0.341,-0.84 -0.605,-1.089 -0.264,-0.249 -0.572,-0.374 -0.924,-0.374 -0.359,0 -0.671,0.125 -0.935,0.374 -0.264,0.249 -0.469,0.612 -0.616,1.089 -0.139,0.477 -0.209,1.049 -0.209,1.716 0,0.667 0.07,1.239 0.209,1.716 0.147,0.477 0.352,0.84 0.616,1.089 0.264,0.249 0.576,0.374 0.935,0.374 z m 6.596,0.836 c -0.572,0 -1.056,-0.11 -1.452,-0.33 -0.396,-0.22 -0.697,-0.546 -0.902,-0.979 -0.198,-0.433 -0.297,-0.964 -0.297,-1.595 v -4.961 h 1.001 v 4.818 c 0,0.477 0.062,0.88 0.187,1.21 0.124,0.33 0.308,0.579 0.55,0.748 0.249,0.169 0.553,0.253 0.913,0.253 0.535,0 0.942,-0.187 1.221,-0.561 0.278,-0.381 0.418,-0.931 0.418,-1.65 v -4.818 h 1.012 v 4.961 c 0,0.946 -0.228,1.668 -0.682,2.167 -0.448,0.491 -1.104,0.737 -1.969,0.737 z m 4.032,-0.165 v -7.7 h 2.926 c 0.741,0 1.328,0.18 1.76,0.539 0.433,0.352 0.649,0.847 0.649,1.485 0,0.455 -0.143,0.851 -0.429,1.188 -0.286,0.337 -0.619,0.565 -1.001,0.682 0.382,0.059 0.686,0.246 0.913,0.561 0.228,0.308 0.341,0.708 0.341,1.199 v 2.046 h -1.001 v -1.771 c 0,-0.601 -0.124,-1.016 -0.374,-1.243 -0.242,-0.235 -0.656,-0.352 -1.243,-0.352 h -1.54 v 3.366 z m 2.673,-4.213 c 0.345,0 0.638,-0.051 0.88,-0.154 0.25,-0.103 0.437,-0.253 0.561,-0.451 0.132,-0.205 0.198,-0.451 0.198,-0.737 0,-0.433 -0.143,-0.759 -0.429,-0.979 -0.278,-0.22 -0.682,-0.33 -1.21,-0.33 h -1.672 v 2.651 z"
     fill="#000000"
     id="path65"
     sodipodi:nodetypes="ccccccccccccccsccsccsccsccssscscssscscsssscsccsccscsccscsccscssccsccscscccsccscsccs" />
  <path
     d="M363.742 407.5H445.242"
     stroke="#272727"
     stroke-width="2"
     id="path66" />
  <path
     d="M334.522 354.547L322.935 379.416H338.935L327.901 406.547"
     stroke="black"
     id="path67" />
  <path
     d="M282.935 413.547H377.935"
     stroke="black"
     stroke-width="2"
     id="path68" />
  <path
     d="M385.935 413.547H423.935"
     stroke="black"
     stroke-width="2"
     id="path69" />
  <path
     d="M323.935 333.547H335.935"
     stroke="black"
     stroke-width="2"
     id="path70" />
  <path
     d="M300.935 406.547H357.935"
     stroke="black"
     id="path71" />
  <path
     d="M404.935 413.547V406.547"
     stroke="black"
     stroke-width="2"
     id="path72" />
  <path
     d="M353.935 326.047H305.935C303.45 326.047 301.435 328.062 301.435 330.547V415.047H358.435V330.547C358.435 328.062 356.421 326.047 353.935 326.047Z"
     stroke="#272727"
     id="path73" />
  <path
     d="M441.17 352.781H369.033C366.548 352.781 364.533 354.796 364.533 357.281V406.05H445.67V357.281C445.67 354.796 443.655 352.781 441.17 352.781Z"
     fill="#F2F2F2"
     stroke="#272727"
     id="path74" />
  <path
     d="M391.901 361.078L372.834 381.612"
     stroke="black"
     id="path75" />
  <path
     d="M399.235 361.078L380.168 381.612"
     stroke="black"
     id="path76" />
  <path
     d="M365.5 398.219H446.17"
     stroke="black"
     id="path77" />
  <path
     d="m 368.102,441.547 v -7.7 h 1.001 v 6.853 h 4.433 v 0.847 z m 5.925,0 2.453,-7.7 h 1.265 l 2.464,7.7 h -1.045 l -1.793,-5.863 c -0.168,-0.557 -0.26,-0.865 -0.275,-0.924 -0.102,0.381 -0.194,0.689 -0.275,0.924 l -1.793,5.863 z m 1.375,-2.288 v -0.836 h 3.465 v 0.836 z m 5.87,2.288 v -7.7 h 2.662 c 0.748,0 1.342,0.161 1.782,0.484 0.44,0.323 0.66,0.807 0.66,1.452 0,0.403 -0.125,0.759 -0.374,1.067 -0.242,0.301 -0.546,0.51 -0.913,0.627 0.462,0.147 0.821,0.385 1.078,0.715 0.264,0.323 0.396,0.719 0.396,1.188 0,0.543 -0.132,0.975 -0.396,1.298 -0.264,0.315 -0.612,0.539 -1.045,0.671 -0.433,0.132 -0.924,0.198 -1.474,0.198 z m 2.541,-0.847 c 0.594,0 1.03,-0.114 1.309,-0.341 0.279,-0.227 0.418,-0.572 0.418,-1.034 0,-0.433 -0.136,-0.77 -0.407,-1.012 -0.271,-0.249 -0.726,-0.374 -1.364,-0.374 h -1.485 v 2.761 z m -0.022,-3.608 c 0.33,0 0.612,-0.048 0.847,-0.143 0.235,-0.095 0.411,-0.235 0.528,-0.418 0.125,-0.191 0.187,-0.414 0.187,-0.671 0,-0.367 -0.121,-0.653 -0.363,-0.858 -0.235,-0.213 -0.609,-0.319 -1.122,-0.319 h -1.584 v 2.409 z"
     style="fill:#000000"
     id="path1-2" />
</svg>
