<svg width="777" height="645" viewBox="0 0 777 645" fill="none" xmlns="http://www.w3.org/2000/svg">
<circle cx="415.5" cy="323.5" r="291.5" stroke="#F2F2F2" stroke-width="24"/>
<circle cx="415.5" cy="323.547" r="280" stroke="#DA4E22" stroke-width="3"/>
<path d="M413 588.047L413 58.0469" stroke="#DA4E22" stroke-dasharray="2 2"/>
<path d="M678 323.047L148 323.047" stroke="#DA4E22" stroke-dasharray="2 2"/>
<path d="M225.616 510.438L600.383 135.672" stroke="#DA4E22" stroke-dasharray="2 2"/>
<path d="M600.384 510.438L225.617 135.672" stroke="#DA4E22" stroke-dasharray="2 2"/>
<path d="M227.137 489.406H160.814C158.329 489.406 156.314 491.421 156.314 493.906V538.22H231.637V493.906C231.637 491.421 229.622 489.406 227.137 489.406Z" fill="#F2F2F2" stroke="#272727"/>
<path d="M231.17 496.875C231.17 494.114 228.931 491.875 226.17 491.875H167.074C164.312 491.875 162.074 494.114 162.074 496.875V538.107H231.17V496.875Z" fill="#E4E480"/>
<path d="M151.25 543.375L237.442 543.375C239.927 543.375 241.942 541.36 241.942 538.875L241.942 537.504L146.75 537.504L146.75 538.875C146.75 541.36 148.765 543.375 151.25 543.375Z" fill="#F2F2F2" stroke="#272727"/>
<path d="M259.771 515.172H218.24C215.755 515.172 213.74 517.187 213.74 519.672V543.373H264.271V519.672C264.271 517.187 262.257 515.172 259.771 515.172Z" fill="#F2F2F2" stroke="#272727"/>
<circle cx="238.146" cy="494.92" r="15.8183" fill="#F2F2F2" stroke="black"/>
<path d="M187.475 538.719H201.216" stroke="black" stroke-width="2"/>
<path d="M167.705 498.75V499.93H171.215C171.855 499.93 172.145 500.34 172.145 500.83C172.145 501.3 171.875 501.76 171.205 501.76H168.775C168.035 501.76 167.715 502.07 167.715 502.83V505.5H168.895V503.06C168.895 502.94 168.955 502.89 169.065 502.89H171.165C172.745 502.89 173.335 501.79 173.335 500.77C173.335 499.69 172.685 498.75 171.165 498.75H167.705Z" fill="black"/>
<path d="M428.002 574.125H361.679C359.194 574.125 357.179 576.14 357.179 578.625V622.939H432.502V578.625C432.502 576.14 430.487 574.125 428.002 574.125Z" fill="#F2F2F2" stroke="#272727"/>
<path d="M432.035 581.578C432.035 578.817 429.797 576.578 427.035 576.578H367.939C365.178 576.578 362.939 578.817 362.939 581.578V622.81H432.035V581.578Z" fill="#E4E480"/>
<path d="M352.115 628.086L438.307 628.086C440.792 628.086 442.807 626.071 442.807 623.586L442.807 622.215L347.615 622.215L347.615 623.586C347.615 626.071 349.63 628.086 352.115 628.086Z" fill="#F2F2F2" stroke="#272727"/>
<path d="M460.637 599.883H419.105C416.62 599.883 414.605 601.898 414.605 604.383V628.084H465.137V604.383C465.137 601.898 463.122 599.883 460.637 599.883Z" fill="#F2F2F2" stroke="#272727"/>
<circle cx="439.012" cy="579.631" r="15.8183" fill="#F2F2F2" stroke="black"/>
<path d="M388.34 623.438H402.082" stroke="black" stroke-width="2"/>
<path d="M368.57 583.461V584.641H372.08C372.72 584.641 373.01 585.051 373.01 585.541C373.01 586.011 372.74 586.471 372.07 586.471H369.64C368.9 586.471 368.58 586.781 368.58 587.541V590.211H369.76V587.771C369.76 587.651 369.82 587.601 369.93 587.601H372.03C373.61 587.601 374.2 586.501 374.2 585.481C374.2 584.401 373.55 583.461 372.03 583.461H368.57Z" fill="black"/>
<path d="M630.605 489.797H564.283C561.797 489.797 559.783 491.812 559.783 494.297V538.611H635.105V494.297C635.105 491.812 633.091 489.797 630.605 489.797Z" fill="#F2F2F2" stroke="#272727"/>
<path d="M634.639 497.25C634.639 494.489 632.4 492.25 629.639 492.25H570.543C567.781 492.25 565.543 494.489 565.543 497.25V538.482H634.639V497.25Z" fill="#E4E480"/>
<path d="M554.719 543.758L640.911 543.758C643.396 543.758 645.411 541.743 645.411 539.258L645.411 537.887L550.219 537.887L550.219 539.258C550.219 541.743 552.233 543.758 554.719 543.758Z" fill="#F2F2F2" stroke="#272727"/>
<path d="M663.24 515.555H621.709C619.224 515.555 617.209 517.569 617.209 520.055V543.756H667.74V520.055C667.74 517.569 665.726 515.555 663.24 515.555Z" fill="#F2F2F2" stroke="#272727"/>
<circle cx="641.615" cy="495.303" r="15.8183" fill="#F2F2F2" stroke="black"/>
<path d="M590.945 539.109H604.687" stroke="black" stroke-width="2"/>
<path d="M571.173 499.133V500.313H574.683C575.323 500.313 575.613 500.723 575.613 501.213C575.613 501.683 575.343 502.143 574.673 502.143H572.243C571.503 502.143 571.183 502.453 571.183 503.213V505.883H572.363V503.443C572.363 503.323 572.423 503.273 572.533 503.273H574.633C576.213 503.273 576.803 502.173 576.803 501.153C576.803 500.073 576.153 499.133 574.633 499.133H571.173Z" fill="black"/>
<path d="M732.492 293.047H666.169C663.684 293.047 661.669 295.062 661.669 297.547V341.861H736.992V297.547C736.992 295.062 734.977 293.047 732.492 293.047Z" fill="#F2F2F2" stroke="#272727"/>
<path d="M736.525 300.5C736.525 297.739 734.287 295.5 731.525 295.5H672.429C669.668 295.5 667.429 297.739 667.429 300.5V341.732H736.525V300.5Z" fill="#E4E480"/>
<path d="M656.605 347.008L742.797 347.008C745.283 347.008 747.297 344.993 747.297 342.508L747.297 341.137L652.105 341.137L652.105 342.508C652.105 344.993 654.12 347.008 656.605 347.008Z" fill="#F2F2F2" stroke="#272727"/>
<path d="M765.129 318.805H723.597C721.112 318.805 719.097 320.819 719.097 323.305V347.006H769.629V323.305C769.629 320.819 767.614 318.805 765.129 318.805Z" fill="#F2F2F2" stroke="#272727"/>
<circle cx="743.504" cy="298.553" r="15.8183" fill="#F2F2F2" stroke="black"/>
<path d="M692.832 342.359H706.574" stroke="black" stroke-width="2"/>
<path d="M673.06 302.383V303.563H676.57C677.21 303.563 677.5 303.973 677.5 304.463C677.5 304.933 677.23 305.393 676.56 305.393H674.13C673.39 305.393 673.07 305.703 673.07 306.463V309.133H674.25V306.693C674.25 306.573 674.31 306.523 674.42 306.523H676.52C678.1 306.523 678.69 305.423 678.69 304.403C678.69 303.323 678.04 302.383 676.52 302.383H673.06Z" fill="black"/>
<path d="M630.605 92.7812H564.283C561.797 92.7812 559.783 94.796 559.783 97.2812V141.595H635.105V97.2812C635.105 94.796 633.091 92.7812 630.605 92.7812Z" fill="#F2F2F2" stroke="#272727"/>
<path d="M634.639 100.25C634.639 97.4886 632.4 95.25 629.639 95.25H570.543C567.781 95.25 565.543 97.4886 565.543 100.25V141.482H634.639V100.25Z" fill="#E4E480"/>
<path d="M554.719 146.75L640.911 146.75C643.396 146.75 645.411 144.735 645.411 142.25L645.411 140.879L550.219 140.879L550.219 142.25C550.219 144.735 552.233 146.75 554.719 146.75Z" fill="#F2F2F2" stroke="#272727"/>
<path d="M663.24 118.547H621.709C619.224 118.547 617.209 120.562 617.209 123.047V146.748H667.74V123.047C667.74 120.562 665.726 118.547 663.24 118.547Z" fill="#F2F2F2" stroke="#272727"/>
<circle cx="641.615" cy="98.2948" r="15.8183" fill="#F2F2F2" stroke="black"/>
<path d="M590.943 142.094H604.685" stroke="black" stroke-width="2"/>
<path d="M571.173 102.125V103.305H574.683C575.323 103.305 575.613 103.715 575.613 104.205C575.613 104.675 575.343 105.135 574.673 105.135H572.243C571.503 105.135 571.183 105.445 571.183 106.205V108.875H572.363V106.435C572.363 106.315 572.423 106.265 572.533 106.265H574.633C576.213 106.265 576.803 105.165 576.803 104.145C576.803 103.065 576.153 102.125 574.633 102.125H571.173Z" fill="black"/>
<path d="M432.688 10.8047H366.365C363.879 10.8047 361.865 12.8194 361.865 15.3047V59.6184H437.188V15.3047C437.188 12.8194 435.173 10.8047 432.688 10.8047Z" fill="#F2F2F2" stroke="#272727"/>
<path d="M436.721 18.2656C436.721 15.5042 434.482 13.2656 431.721 13.2656H372.625C369.863 13.2656 367.625 15.5042 367.625 18.2656V59.4973H436.721V18.2656Z" fill="#E4E480"/>
<path d="M356.801 64.7734L442.993 64.7734C445.478 64.7734 447.493 62.7587 447.493 60.2734L447.493 58.9026L352.301 58.9026L352.301 60.2734C352.301 62.7587 354.316 64.7734 356.801 64.7734Z" fill="#F2F2F2" stroke="#272727"/>
<path d="M465.324 36.5703H423.793C421.308 36.5703 419.293 38.585 419.293 41.0703V64.7714H469.824V41.0703C469.824 38.585 467.809 36.5703 465.324 36.5703Z" fill="#F2F2F2" stroke="#272727"/>
<circle cx="443.699" cy="16.3183" r="15.8183" fill="#F2F2F2" stroke="black"/>
<path d="M393.027 60.125H406.769" stroke="black" stroke-width="2"/>
<path d="M373.255 20.1406V21.3206H376.765C377.405 21.3206 377.695 21.7306 377.695 22.2206C377.695 22.6906 377.425 23.1506 376.755 23.1506H374.325C373.585 23.1506 373.265 23.4606 373.265 24.2206V26.8906H374.445V24.4506C374.445 24.3306 374.505 24.2806 374.615 24.2806H376.715C378.295 24.2806 378.885 23.1806 378.885 22.1606C378.885 21.0806 378.235 20.1406 376.715 20.1406H373.255Z" fill="black"/>
<path d="M237.107 99.8125H170.785C168.299 99.8125 166.285 101.827 166.285 104.312V148.626H241.607V104.312C241.607 101.827 239.593 99.8125 237.107 99.8125Z" fill="#F2F2F2" stroke="#272727"/>
<path d="M241.143 107.266C241.143 104.504 238.904 102.266 236.143 102.266H177.047C174.285 102.266 172.047 104.504 172.047 107.266V148.497H241.143V107.266Z" fill="#E4E480"/>
<path d="M161.223 153.773L247.415 153.773C249.9 153.773 251.915 151.759 251.915 149.273L251.915 147.903L156.723 147.903L156.723 149.273C156.723 151.759 158.737 153.773 161.223 153.773Z" fill="#F2F2F2" stroke="#272727"/>
<path d="M269.746 125.57H228.215C225.729 125.57 223.715 127.585 223.715 130.07V153.771H274.246V130.07C274.246 127.585 272.231 125.57 269.746 125.57Z" fill="#F2F2F2" stroke="#272727"/>
<circle cx="248.121" cy="105.318" r="15.8183" fill="#F2F2F2" stroke="black"/>
<path d="M197.447 149.125H211.189" stroke="black" stroke-width="2"/>
<path d="M177.677 109.141V110.321H181.187C181.827 110.321 182.117 110.731 182.117 111.221C182.117 111.691 181.847 112.151 181.177 112.151H178.747C178.007 112.151 177.687 112.461 177.687 113.221V115.891H178.867V113.451C178.867 113.331 178.927 113.281 179.037 113.281H181.137C182.717 113.281 183.307 112.181 183.307 111.161C183.307 110.081 182.657 109.141 181.137 109.141H177.677Z" fill="black"/>
<path d="M158.645 296.555H92.3217C89.8364 296.555 87.8217 298.569 87.8217 301.055V345.368H163.145V301.055C163.145 298.569 161.13 296.555 158.645 296.555Z" fill="#F2F2F2" stroke="#272727"/>
<path d="M162.678 304.016C162.678 301.254 160.439 299.016 157.678 299.016H98.5817C95.8203 299.016 93.5817 301.254 93.5817 304.016V345.247H162.678V304.016Z" fill="#E4E480"/>
<path d="M82.7578 350.523L168.95 350.523C171.435 350.523 173.45 348.509 173.45 346.023L173.45 344.653L78.2578 344.653L78.2578 346.023C78.2578 348.509 80.2725 350.523 82.7578 350.523Z" fill="#F2F2F2" stroke="#272727"/>
<path d="M191.279 322.32H149.748C147.263 322.32 145.248 324.335 145.248 326.82V350.521H195.779V326.82C195.779 324.335 193.765 322.32 191.279 322.32Z" fill="#F2F2F2" stroke="#272727"/>
<circle cx="169.654" cy="302.068" r="15.8183" fill="#F2F2F2" stroke="black"/>
<path d="M118.982 345.875H132.724" stroke="black" stroke-width="2"/>
<path d="M99.2125 305.891V307.071H102.723C103.363 307.071 103.653 307.481 103.653 307.971C103.653 308.441 103.383 308.901 102.713 308.901H100.283C99.5425 308.901 99.2225 309.211 99.2225 309.971V312.641H100.403V310.201C100.403 310.081 100.463 310.031 100.573 310.031H102.673C104.253 310.031 104.843 308.931 104.843 307.911C104.843 306.831 104.193 305.891 102.673 305.891H99.2125Z" fill="black"/>
<circle cx="413.5" cy="321.547" r="104.5" fill="#E0E0E0"/>
<path d="M428.193 271.547H343.193C340.708 271.547 338.693 273.562 338.693 276.047V360.547H432.693V276.047C432.693 273.562 430.679 271.547 428.193 271.547Z" fill="#F2F2F2" stroke="#272727"/>
<path d="M377.902 387.047V383.725L375.482 379.347H376.582L377.891 381.877C377.928 381.936 377.961 381.998 377.99 382.064C378.027 382.13 378.06 382.196 378.089 382.262C378.199 382.46 378.305 382.662 378.408 382.867C378.679 382.368 378.855 382.042 378.936 381.888L380.311 379.347H381.389L378.914 383.725V387.047H377.902ZM385.015 387.212C384.436 387.212 383.933 387.054 383.508 386.739C383.09 386.424 382.767 385.965 382.54 385.364C382.32 384.763 382.21 384.04 382.21 383.197C382.21 382.354 382.32 381.631 382.54 381.03C382.767 380.421 383.09 379.959 383.508 379.644C383.933 379.329 384.436 379.171 385.015 379.171C385.594 379.171 386.093 379.329 386.511 379.644C386.936 379.959 387.259 380.421 387.479 381.03C387.706 381.631 387.82 382.354 387.82 383.197C387.82 384.04 387.706 384.763 387.479 385.364C387.259 385.965 386.936 386.424 386.511 386.739C386.093 387.054 385.594 387.212 385.015 387.212ZM385.015 386.376C385.367 386.376 385.675 386.251 385.939 386.002C386.203 385.753 386.405 385.39 386.544 384.913C386.691 384.436 386.764 383.864 386.764 383.197C386.764 382.53 386.691 381.958 386.544 381.481C386.405 381.004 386.203 380.641 385.939 380.392C385.675 380.143 385.367 380.018 385.015 380.018C384.656 380.018 384.344 380.143 384.08 380.392C383.816 380.641 383.611 381.004 383.464 381.481C383.325 381.958 383.255 382.53 383.255 383.197C383.255 383.864 383.325 384.436 383.464 384.913C383.611 385.39 383.816 385.753 384.08 386.002C384.344 386.251 384.656 386.376 385.015 386.376ZM391.611 387.212C391.039 387.212 390.555 387.102 390.159 386.882C389.763 386.662 389.462 386.336 389.257 385.903C389.059 385.47 388.96 384.939 388.96 384.308V379.347H389.961V384.165C389.961 384.642 390.023 385.045 390.148 385.375C390.272 385.705 390.456 385.954 390.698 386.123C390.947 386.292 391.251 386.376 391.611 386.376C392.146 386.376 392.553 386.189 392.832 385.815C393.11 385.434 393.25 384.884 393.25 384.165V379.347H394.262V384.308C394.262 385.254 394.034 385.976 393.58 386.475C393.132 386.966 392.476 387.212 391.611 387.212ZM395.643 387.047V379.347H398.569C399.31 379.347 399.897 379.527 400.329 379.886C400.762 380.238 400.978 380.733 400.978 381.371C400.978 381.826 400.835 382.222 400.549 382.559C400.263 382.896 399.93 383.124 399.548 383.241C399.93 383.3 400.234 383.487 400.461 383.802C400.689 384.11 400.802 384.51 400.802 385.001V387.047H399.801V385.276C399.801 384.675 399.677 384.26 399.427 384.033C399.185 383.798 398.771 383.681 398.184 383.681H396.644V387.047H395.643ZM398.316 382.834C398.661 382.834 398.954 382.783 399.196 382.68C399.446 382.577 399.633 382.427 399.757 382.229C399.889 382.024 399.955 381.778 399.955 381.492C399.955 381.059 399.812 380.733 399.526 380.513C399.248 380.293 398.844 380.183 398.316 380.183H396.644V382.834H398.316ZM408.384 387.047L410.76 383.054L408.56 379.347H409.704L411.057 381.723C411.123 381.833 411.181 381.939 411.233 382.042C411.262 382.093 411.291 382.145 411.321 382.196C411.35 382.24 411.379 382.288 411.409 382.339C411.438 382.288 411.467 382.236 411.497 382.185C411.526 382.134 411.555 382.082 411.585 382.031C411.614 381.98 411.643 381.928 411.673 381.877C411.702 381.826 411.731 381.774 411.761 381.723L413.136 379.347H414.225L412.058 383.054L414.412 387.047H413.268L411.673 384.253C411.614 384.165 411.563 384.081 411.519 384C411.475 383.919 411.431 383.839 411.387 383.758C411.365 383.802 411.339 383.846 411.31 383.89C411.288 383.934 411.266 383.978 411.244 384.022C411.222 384.059 411.2 384.099 411.178 384.143C411.156 384.18 411.13 384.216 411.101 384.253L409.495 387.047H408.384ZM415.43 387.047V379.347H418.356C419.097 379.347 419.684 379.527 420.116 379.886C420.549 380.238 420.765 380.733 420.765 381.371C420.765 381.826 420.622 382.222 420.336 382.559C420.05 382.896 419.717 383.124 419.335 383.241C419.717 383.3 420.021 383.487 420.248 383.802C420.476 384.11 420.589 384.51 420.589 385.001V387.047H419.588V385.276C419.588 384.675 419.464 384.26 419.214 384.033C418.972 383.798 418.558 383.681 417.971 383.681H416.431V387.047H415.43ZM418.103 382.834C418.448 382.834 418.741 382.783 418.983 382.68C419.233 382.577 419.42 382.427 419.544 382.229C419.676 382.024 419.742 381.778 419.742 381.492C419.742 381.059 419.599 380.733 419.313 380.513C419.035 380.293 418.631 380.183 418.103 380.183H416.431V382.834H418.103ZM422.378 387.047V379.347H427.394V380.183H423.39V382.658H427.207V383.494H423.39V387.047H422.378ZM435.36 387.047V379.347H436.361V386.2H440.794V387.047H435.36ZM441.285 387.047L443.738 379.347H445.003L447.467 387.047H446.422L444.629 381.184C444.461 380.627 444.369 380.319 444.354 380.26C444.252 380.641 444.16 380.949 444.079 381.184L442.286 387.047H441.285ZM442.66 384.759V383.923H446.125V384.759H442.66ZM448.53 387.047V379.347H451.192C451.94 379.347 452.534 379.508 452.974 379.831C453.414 380.154 453.634 380.638 453.634 381.283C453.634 381.686 453.509 382.042 453.26 382.35C453.018 382.651 452.714 382.86 452.347 382.977C452.809 383.124 453.168 383.362 453.425 383.692C453.689 384.015 453.821 384.411 453.821 384.88C453.821 385.423 453.689 385.855 453.425 386.178C453.161 386.493 452.813 386.717 452.38 386.849C451.947 386.981 451.456 387.047 450.906 387.047H448.53ZM451.071 386.2C451.665 386.2 452.101 386.086 452.38 385.859C452.659 385.632 452.798 385.287 452.798 384.825C452.798 384.392 452.662 384.055 452.391 383.813C452.12 383.564 451.665 383.439 451.027 383.439H449.542V386.2H451.071ZM451.049 382.592C451.379 382.592 451.661 382.544 451.896 382.449C452.131 382.354 452.307 382.214 452.424 382.031C452.549 381.84 452.611 381.617 452.611 381.36C452.611 380.993 452.49 380.707 452.248 380.502C452.013 380.289 451.639 380.183 451.126 380.183H449.542V382.592H451.049Z" fill="black"/>
<path d="M419 353L500.5 353" stroke="#272727" stroke-width="2"/>
<path d="M389.78 300.047L378.193 324.916H394.193L383.159 352.047" stroke="black"/>
<path d="M338.193 359.047H433.193" stroke="black" stroke-width="2"/>
<path d="M441.193 359.047H479.193" stroke="black" stroke-width="2"/>
<path d="M379.193 279.047H391.193" stroke="black" stroke-width="2"/>
<path d="M356.193 352.047H413.193" stroke="black"/>
<path d="M460.193 359.047V352.047" stroke="black" stroke-width="2"/>
<path d="M409.193 271.547H361.193C358.708 271.547 356.693 273.562 356.693 276.047V360.547H413.693V276.047C413.693 273.562 411.679 271.547 409.193 271.547Z" stroke="#272727"/>
<path d="M496.428 298.281H424.291C421.806 298.281 419.791 300.296 419.791 302.781V351.55H500.928V302.781C500.928 300.296 498.913 298.281 496.428 298.281Z" fill="#F2F2F2" stroke="#272727"/>
<path d="M447.159 306.578L428.092 327.112" stroke="black"/>
<path d="M454.493 306.578L435.426 327.112" stroke="black"/>
<path d="M420.758 344.719H501.428" stroke="black"/>
</svg>
