<svg width="307" height="129" viewBox="0 0 307 129" fill="none" xmlns="http://www.w3.org/2000/svg">
<rect x="136.82" y="1.5" width="123.67" height="63.0826" rx="7.5" fill="#272727" stroke="#D5D1CE"/>
<path d="M144.477 42.9454H161.954C163.507 42.9454 166.614 42.2463 166.614 39.45C166.614 35.9546 167.197 13.2344 170.11 13.2344C172.44 13.2344 173.411 30.7114 173.605 39.45C173.799 42.7512 175.236 47.0234 179.431 47.0234C183.625 47.0234 185.839 42.9454 186.422 38.2848C186.422 33.0417 191.082 31.5019 191.082 38.2848C191.082 41.1977 196.325 38.8674 196.325 44.6931C196.325 53.797 224.867 48.4106 238.491 49.1196C239.994 49.1978 239.987 50.7076 238.517 51.0292V51.0292C236.751 51.4154 237.032 54.0142 238.839 54.0142H306.431" stroke="#D5D1CE"/>
<rect x="100.703" y="92.3828" width="12.9817" height="12.9817" rx="1.5" stroke="#D5D1CE"/>
<rect x="113.52" y="92.375" width="12.9817" height="12.9817" rx="1.5" stroke="#D5D1CE"/>
<rect x="126.336" y="92.375" width="12.9817" height="12.9817" rx="1.5" fill="#171717" stroke="#D5D1CE"/>
<rect x="139.152" y="92.375" width="12.9817" height="12.9817" rx="1.5" stroke="#D5D1CE"/>
<rect x="139.152" y="105.195" width="12.9817" height="12.9817" rx="1.5" fill="#171717" stroke="#D5D1CE"/>
<rect x="151.969" y="105.195" width="12.9817" height="12.9817" rx="1.5" stroke="#D5D1CE"/>
<rect x="163.619" y="92.375" width="12.9817" height="12.9817" rx="1.5" fill="#171717" stroke="#D5D1CE"/>
<rect x="175.27" y="105.195" width="12.9817" height="12.9817" rx="1.5" stroke="#D5D1CE"/>
<rect x="12.1523" y="64.4219" width="197.073" height="63.0826" rx="7.5" stroke="#D5D1CE"/>
<path fill-rule="evenodd" clip-rule="evenodd" d="M62.2485 24.303C62.2485 36.0682 52.7108 45.6059 40.9455 45.6059C35.5572 45.6059 30.636 43.6053 26.8844 40.3065L25.0649 41.3569C29.2266 45.234 34.8091 47.6059 40.9455 47.6059C53.8154 47.6059 64.2485 37.1728 64.2485 24.303C64.2485 22.5053 64.0449 20.7551 63.6596 19.0743L61.839 20.1254C62.1076 21.4763 62.2485 22.8732 62.2485 24.303ZM56.9042 7.32203L55.0875 8.3709C51.3259 5.02947 46.3727 3 40.9455 3C29.1802 3 19.6426 12.5377 19.6426 24.303C19.6426 25.7701 19.7909 27.2026 20.0734 28.5863L18.2556 29.6358C17.8546 27.9232 17.6426 26.1378 17.6426 24.303C17.6426 11.4331 28.0757 1 40.9455 1C47.1204 1 52.7344 3.40174 56.9042 7.32203Z" fill="#D5D1CE"/>
<path d="M26.8844 40.3065L27.2146 39.931L26.9451 39.6941L26.6344 39.8735L26.8844 40.3065ZM25.0649 41.3569L24.8149 40.9239L24.2295 41.262L24.7241 41.7228L25.0649 41.3569ZM63.6596 19.0743L64.1469 18.9626L63.9957 18.3029L63.4096 18.6413L63.6596 19.0743ZM61.839 20.1254L61.589 19.6924L61.2788 19.8715L61.3486 20.2229L61.839 20.1254ZM55.0875 8.3709L54.7554 8.74471L55.0251 8.98426L55.3375 8.80391L55.0875 8.3709ZM56.9042 7.32203L57.1542 7.75504L57.7369 7.41862L57.2467 6.95774L56.9042 7.32203ZM20.0734 28.5863L20.3234 29.0193L20.6353 28.8392L20.5632 28.4863L20.0734 28.5863ZM18.2556 29.6358L17.7688 29.7498L17.9223 30.4056L18.5056 30.0688L18.2556 29.6358ZM40.9455 46.1059C52.987 46.1059 62.7485 36.3444 62.7485 24.303H61.7485C61.7485 35.7921 52.4347 45.1059 40.9455 45.1059V46.1059ZM26.5542 40.6819C30.3936 44.058 35.431 46.1059 40.9455 46.1059V45.1059C35.6833 45.1059 30.8785 43.1527 27.2146 39.931L26.5542 40.6819ZM26.6344 39.8735L24.8149 40.9239L25.3149 41.79L27.1344 40.7395L26.6344 39.8735ZM24.7241 41.7228C28.9747 45.6826 34.6777 48.1059 40.9455 48.1059V47.1059C34.9405 47.1059 29.4785 44.7853 25.4058 40.9911L24.7241 41.7228ZM40.9455 48.1059C54.0915 48.1059 64.7485 37.449 64.7485 24.303H63.7485C63.7485 36.8967 53.5392 47.1059 40.9455 47.1059V48.1059ZM64.7485 24.303C64.7485 22.4674 64.5406 20.6798 64.1469 18.9626L63.1722 19.186C63.5492 20.8305 63.7485 22.5431 63.7485 24.303H64.7485ZM63.4096 18.6413L61.589 19.6924L62.089 20.5584L63.9096 19.5073L63.4096 18.6413ZM62.7485 24.303C62.7485 22.8403 62.6044 21.4107 62.3294 20.0279L61.3486 20.2229C61.6109 21.5419 61.7485 22.9061 61.7485 24.303H62.7485ZM55.3375 8.80391L57.1542 7.75504L56.6542 6.88901L54.8375 7.93788L55.3375 8.80391ZM55.4196 7.99708C51.5699 4.57751 46.4997 2.5 40.9455 2.5V3.5C46.2456 3.5 51.0818 5.48143 54.7554 8.74471L55.4196 7.99708ZM40.9455 2.5C28.9041 2.5 19.1426 12.2615 19.1426 24.303H20.1426C20.1426 12.8138 29.4564 3.5 40.9455 3.5V2.5ZM19.1426 24.303C19.1426 25.8039 19.2943 27.2699 19.5835 28.6863L20.5632 28.4863C20.2875 27.1353 20.1426 25.7363 20.1426 24.303H19.1426ZM18.5056 30.0688L20.3234 29.0193L19.8234 28.1533L18.0056 29.2028L18.5056 30.0688ZM17.1426 24.303C17.1426 26.1765 17.3591 28 17.7688 29.7498L18.7424 29.5218C18.3502 27.8463 18.1426 26.0992 18.1426 24.303H17.1426ZM40.9455 0.5C27.7995 0.5 17.1426 11.1569 17.1426 24.303H18.1426C18.1426 11.7092 28.3518 1.5 40.9455 1.5V0.5ZM57.2467 6.95774C52.9878 2.95375 47.2527 0.5 40.9455 0.5V1.5C46.9882 1.5 52.4809 3.84974 56.5617 7.68631L57.2467 6.95774Z" fill="black"/>
<path d="M18.6439 28.9596C19.2064 26.6293 21.3921 21.9687 25.6348 21.9688" stroke="#D5D1CE"/>
<path d="M62.9193 18.4779C63.4818 20.8082 65.6674 25.4688 69.9102 25.4688" stroke="#D5D1CE"/>
<path d="M18.6432 28.9596C18.0807 26.6293 15.8951 21.9688 11.6523 21.9688" stroke="#D5D1CE"/>
<path d="M62.9194 18.4779C62.4507 20.8082 60.6293 25.4687 57.0938 25.4688" stroke="#D5D1CE"/>
</svg>
