<svg width="292" height="180" viewBox="0 0 292 180" fill="none" xmlns="http://www.w3.org/2000/svg">
<path d="M15.5775 128.103C15.5775 131.823 12.4726 134.862 8.61296 134.862C4.75331 134.862 1.64844 131.823 1.64844 128.103C1.64844 124.383 4.75331 121.344 8.61296 121.344C12.4726 121.344 15.5775 124.383 15.5775 128.103Z" stroke="#252525"/>
<path d="M28.2103 128.103C28.2103 131.861 25.3251 134.862 21.82 134.862C18.315 134.862 15.4297 131.861 15.4297 128.103C15.4297 124.345 18.315 121.344 21.82 121.344C25.3251 121.344 28.2103 124.345 28.2103 128.103Z" stroke="#252525"/>
<path d="M41.9896 128.103C41.9896 131.823 38.8847 134.862 35.0251 134.862C31.1654 134.862 28.0605 131.823 28.0605 128.103C28.0605 124.383 31.1654 121.344 35.0251 121.344C38.8847 121.344 41.9896 124.383 41.9896 128.103Z" stroke="#252525"/>
<path d="M54.6225 128.103C54.6225 131.861 51.7372 134.862 48.2321 134.862C44.7271 134.862 41.8418 131.861 41.8418 128.103C41.8418 124.345 44.7271 121.344 48.2321 121.344C51.7372 121.344 54.6225 124.345 54.6225 128.103Z" stroke="#252525"/>
<path d="M68.4037 128.103C68.4037 131.823 65.2988 134.862 61.4391 134.862C57.5795 134.862 54.4746 131.823 54.4746 128.103C54.4746 124.383 57.5795 121.344 61.4391 121.344C65.2988 121.344 68.4037 124.383 68.4037 128.103Z" stroke="#252525"/>
<path d="M81.0365 128.103C81.0365 131.861 78.1512 134.862 74.6462 134.862C71.1411 134.862 68.2559 131.861 68.2559 128.103C68.2559 124.345 71.1411 121.344 74.6462 121.344C78.1512 121.344 81.0365 124.345 81.0365 128.103Z" stroke="#252525"/>
<path d="M94.8158 128.103C94.8158 131.823 91.7109 134.862 87.8512 134.862C83.9916 134.862 80.8867 131.823 80.8867 128.103C80.8867 124.383 83.9916 121.344 87.8512 121.344C91.7109 121.344 94.8158 124.383 94.8158 128.103Z" stroke="#252525"/>
<path d="M107.449 128.103C107.449 131.861 104.563 134.862 101.058 134.862C97.5533 134.862 94.668 131.861 94.668 128.103C94.668 124.345 97.5533 121.344 101.058 121.344C104.563 121.344 107.449 124.345 107.449 128.103Z" stroke="#252525"/>
<path d="M121.23 128.103C121.23 131.823 118.125 134.862 114.265 134.862C110.406 134.862 107.301 131.823 107.301 128.103C107.301 124.383 110.406 121.344 114.265 121.344C118.125 121.344 121.23 124.383 121.23 128.103Z" stroke="#252525"/>
<path d="M15.5775 114.697C15.5775 118.416 12.4726 121.456 8.61296 121.456C4.75331 121.456 1.64844 118.416 1.64844 114.697C1.64844 110.977 4.75331 107.938 8.61296 107.938C12.4726 107.938 15.5775 110.977 15.5775 114.697Z" stroke="#252525"/>
<path d="M28.2103 114.697C28.2103 118.454 25.3251 121.456 21.82 121.456C18.315 121.456 15.4297 118.454 15.4297 114.697C15.4297 110.939 18.315 107.938 21.82 107.938C25.3251 107.938 28.2103 110.939 28.2103 114.697Z" stroke="#252525"/>
<path d="M41.9896 114.697C41.9896 118.416 38.8847 121.456 35.0251 121.456C31.1654 121.456 28.0605 118.416 28.0605 114.697C28.0605 110.977 31.1654 107.938 35.0251 107.938C38.8847 107.938 41.9896 110.977 41.9896 114.697Z" stroke="#252525"/>
<path d="M54.6225 114.697C54.6225 118.454 51.7372 121.456 48.2321 121.456C44.7271 121.456 41.8418 118.454 41.8418 114.697C41.8418 110.939 44.7271 107.938 48.2321 107.938C51.7372 107.938 54.6225 110.939 54.6225 114.697Z" stroke="#252525"/>
<path d="M68.4037 114.697C68.4037 118.416 65.2988 121.456 61.4391 121.456C57.5795 121.456 54.4746 118.416 54.4746 114.697C54.4746 110.977 57.5795 107.938 61.4391 107.938C65.2988 107.938 68.4037 110.977 68.4037 114.697Z" stroke="#252525"/>
<path d="M81.0365 114.697C81.0365 118.454 78.1512 121.456 74.6462 121.456C71.1411 121.456 68.2559 118.454 68.2559 114.697C68.2559 110.939 71.1411 107.938 74.6462 107.938C78.1512 107.938 81.0365 110.939 81.0365 114.697Z" stroke="#252525"/>
<path d="M94.8158 114.697C94.8158 118.416 91.7109 121.456 87.8512 121.456C83.9916 121.456 80.8867 118.416 80.8867 114.697C80.8867 110.977 83.9916 107.938 87.8512 107.938C91.7109 107.938 94.8158 110.977 94.8158 114.697Z" stroke="#252525"/>
<path d="M107.449 114.697C107.449 118.454 104.563 121.456 101.058 121.456C97.5533 121.456 94.668 118.454 94.668 114.697C94.668 110.939 97.5533 107.938 101.058 107.938C104.563 107.938 107.449 110.939 107.449 114.697Z" stroke="#252525"/>
<path d="M121.23 114.697C121.23 118.416 118.125 121.456 114.265 121.456C110.406 121.456 107.301 118.416 107.301 114.697C107.301 110.977 110.406 107.938 114.265 107.938C118.125 107.938 121.23 110.977 121.23 114.697Z" stroke="#252525"/>
<path d="M15.5775 101.298C15.5775 105.018 12.4726 108.057 8.61296 108.057C4.75331 108.057 1.64844 105.018 1.64844 101.298C1.64844 97.5783 4.75331 94.5391 8.61296 94.5391C12.4726 94.5391 15.5775 97.5783 15.5775 101.298Z" stroke="#252525"/>
<path d="M28.2103 101.298C28.2103 105.056 25.3251 108.057 21.82 108.057C18.315 108.057 15.4297 105.056 15.4297 101.298C15.4297 97.5403 18.315 94.5391 21.82 94.5391C25.3251 94.5391 28.2103 97.5403 28.2103 101.298Z" stroke="#252525"/>
<path d="M41.9896 101.298C41.9896 105.018 38.8847 108.057 35.0251 108.057C31.1654 108.057 28.0605 105.018 28.0605 101.298C28.0605 97.5783 31.1654 94.5391 35.0251 94.5391C38.8847 94.5391 41.9896 97.5783 41.9896 101.298Z" stroke="#252525"/>
<path d="M54.6225 101.298C54.6225 105.056 51.7372 108.057 48.2321 108.057C44.7271 108.057 41.8418 105.056 41.8418 101.298C41.8418 97.5403 44.7271 94.5391 48.2321 94.5391C51.7372 94.5391 54.6225 97.5403 54.6225 101.298Z" stroke="#252525"/>
<path d="M68.4037 101.298C68.4037 105.018 65.2988 108.057 61.4391 108.057C57.5795 108.057 54.4746 105.018 54.4746 101.298C54.4746 97.5783 57.5795 94.5391 61.4391 94.5391C65.2988 94.5391 68.4037 97.5783 68.4037 101.298Z" stroke="#252525"/>
<path d="M81.0365 101.298C81.0365 105.056 78.1512 108.057 74.6462 108.057C71.1411 108.057 68.2559 105.056 68.2559 101.298C68.2559 97.5403 71.1411 94.5391 74.6462 94.5391C78.1512 94.5391 81.0365 97.5403 81.0365 101.298Z" stroke="#252525"/>
<path d="M94.8158 101.298C94.8158 105.018 91.7109 108.057 87.8512 108.057C83.9916 108.057 80.8867 105.018 80.8867 101.298C80.8867 97.5783 83.9916 94.5391 87.8512 94.5391C91.7109 94.5391 94.8158 97.5783 94.8158 101.298Z" stroke="#252525"/>
<path d="M107.449 101.298C107.449 105.056 104.563 108.057 101.058 108.057C97.5533 108.057 94.668 105.056 94.668 101.298C94.668 97.5403 97.5533 94.5391 101.058 94.5391C104.563 94.5391 107.449 97.5403 107.449 101.298Z" stroke="#252525"/>
<path d="M121.23 101.298C121.23 105.018 118.125 108.057 114.265 108.057C110.406 108.057 107.301 105.018 107.301 101.298C107.301 97.5783 110.406 94.5391 114.265 94.5391C118.125 94.5391 121.23 97.5783 121.23 101.298Z" stroke="#252525"/>
<path d="M15.5775 87.8997C15.5775 91.6196 12.4726 94.6588 8.61296 94.6588C4.75331 94.6588 1.64844 91.6196 1.64844 87.8997C1.64844 84.1798 4.75331 81.1406 8.61296 81.1406C12.4726 81.1406 15.5775 84.1798 15.5775 87.8997Z" stroke="#252525"/>
<path d="M28.2103 87.8997C28.2103 91.6575 25.3251 94.6588 21.82 94.6588C18.315 94.6588 15.4297 91.6575 15.4297 87.8997C15.4297 84.1419 18.315 81.1406 21.82 81.1406C25.3251 81.1406 28.2103 84.1419 28.2103 87.8997Z" stroke="#252525"/>
<path d="M41.9896 87.8997C41.9896 91.6196 38.8847 94.6588 35.0251 94.6588C31.1654 94.6588 28.0605 91.6196 28.0605 87.8997C28.0605 84.1798 31.1654 81.1406 35.0251 81.1406C38.8847 81.1406 41.9896 84.1798 41.9896 87.8997Z" stroke="#252525"/>
<path d="M54.6225 87.8997C54.6225 91.6575 51.7372 94.6588 48.2321 94.6588C44.7271 94.6588 41.8418 91.6575 41.8418 87.8997C41.8418 84.1419 44.7271 81.1406 48.2321 81.1406C51.7372 81.1406 54.6225 84.1419 54.6225 87.8997Z" stroke="#252525"/>
<path d="M68.4037 87.8997C68.4037 91.6196 65.2988 94.6588 61.4391 94.6588C57.5795 94.6588 54.4746 91.6196 54.4746 87.8997C54.4746 84.1798 57.5795 81.1406 61.4391 81.1406C65.2988 81.1406 68.4037 84.1798 68.4037 87.8997Z" stroke="#252525"/>
<path d="M81.0365 87.8997C81.0365 91.6575 78.1512 94.6588 74.6462 94.6588C71.1411 94.6588 68.2559 91.6575 68.2559 87.8997C68.2559 84.1419 71.1411 81.1406 74.6462 81.1406C78.1512 81.1406 81.0365 84.1419 81.0365 87.8997Z" stroke="#252525"/>
<path d="M94.8158 87.8997C94.8158 91.6196 91.7109 94.6588 87.8512 94.6588C83.9916 94.6588 80.8867 91.6196 80.8867 87.8997C80.8867 84.1798 83.9916 81.1406 87.8512 81.1406C91.7109 81.1406 94.8158 84.1798 94.8158 87.8997Z" stroke="#252525"/>
<path d="M107.449 87.8997C107.449 91.6575 104.563 94.6588 101.058 94.6588C97.5533 94.6588 94.668 91.6575 94.668 87.8997C94.668 84.1419 97.5533 81.1406 101.058 81.1406C104.563 81.1406 107.449 84.1419 107.449 87.8997Z" stroke="#252525"/>
<path d="M121.23 87.8997C121.23 91.6196 118.125 94.6588 114.265 94.6588C110.406 94.6588 107.301 91.6196 107.301 87.8997C107.301 84.1798 110.406 81.1406 114.265 81.1406C118.125 81.1406 121.23 84.1798 121.23 87.8997Z" stroke="#252525"/>
<path d="M15.5775 74.4935C15.5775 78.2133 12.4726 81.2525 8.61296 81.2525C4.75331 81.2525 1.64844 78.2133 1.64844 74.4935C1.64844 70.7736 4.75331 67.7344 8.61296 67.7344C12.4726 67.7344 15.5775 70.7736 15.5775 74.4935Z" stroke="#252525"/>
<path d="M28.2103 74.4935C28.2103 78.2513 25.3251 81.2525 21.82 81.2525C18.315 81.2525 15.4297 78.2513 15.4297 74.4935C15.4297 70.7356 18.315 67.7344 21.82 67.7344C25.3251 67.7344 28.2103 70.7356 28.2103 74.4935Z" stroke="#252525"/>
<path d="M41.9896 74.4935C41.9896 78.2133 38.8847 81.2525 35.0251 81.2525C31.1654 81.2525 28.0605 78.2133 28.0605 74.4935C28.0605 70.7736 31.1654 67.7344 35.0251 67.7344C38.8847 67.7344 41.9896 70.7736 41.9896 74.4935Z" stroke="#252525"/>
<path d="M54.6225 74.4935C54.6225 78.2513 51.7372 81.2525 48.2321 81.2525C44.7271 81.2525 41.8418 78.2513 41.8418 74.4935C41.8418 70.7356 44.7271 67.7344 48.2321 67.7344C51.7372 67.7344 54.6225 70.7356 54.6225 74.4935Z" stroke="#252525"/>
<path d="M68.4037 74.4935C68.4037 78.2133 65.2988 81.2525 61.4391 81.2525C57.5795 81.2525 54.4746 78.2133 54.4746 74.4935C54.4746 70.7736 57.5795 67.7344 61.4391 67.7344C65.2988 67.7344 68.4037 70.7736 68.4037 74.4935Z" stroke="#252525"/>
<path d="M81.0365 74.4935C81.0365 78.2513 78.1512 81.2525 74.6462 81.2525C71.1411 81.2525 68.2559 78.2513 68.2559 74.4935C68.2559 70.7356 71.1411 67.7344 74.6462 67.7344C78.1512 67.7344 81.0365 70.7356 81.0365 74.4935Z" stroke="#252525"/>
<path d="M94.8158 74.4935C94.8158 78.2133 91.7109 81.2525 87.8512 81.2525C83.9916 81.2525 80.8867 78.2133 80.8867 74.4935C80.8867 70.7736 83.9916 67.7344 87.8512 67.7344C91.7109 67.7344 94.8158 70.7736 94.8158 74.4935Z" stroke="#252525"/>
<path d="M107.449 74.4935C107.449 78.2513 104.563 81.2525 101.058 81.2525C97.5533 81.2525 94.668 78.2513 94.668 74.4935C94.668 70.7356 97.5533 67.7344 101.058 67.7344C104.563 67.7344 107.449 70.7356 107.449 74.4935Z" stroke="#252525"/>
<path d="M121.23 74.4935C121.23 78.2133 118.125 81.2525 114.265 81.2525C110.406 81.2525 107.301 78.2133 107.301 74.4935C107.301 70.7736 110.406 67.7344 114.265 67.7344C118.125 67.7344 121.23 70.7736 121.23 74.4935Z" stroke="#252525"/>
<path d="M15.5775 61.095C15.5775 64.8149 12.4726 67.8541 8.61296 67.8541C4.75331 67.8541 1.64844 64.8149 1.64844 61.095C1.64844 57.3751 4.75331 54.3359 8.61296 54.3359C12.4726 54.3359 15.5775 57.3751 15.5775 61.095Z" stroke="#252525"/>
<path d="M28.2103 61.095C28.2103 64.8528 25.3251 67.8541 21.82 67.8541C18.315 67.8541 15.4297 64.8528 15.4297 61.095C15.4297 57.3372 18.315 54.3359 21.82 54.3359C25.3251 54.3359 28.2103 57.3372 28.2103 61.095Z" stroke="#252525"/>
<path d="M41.9896 61.095C41.9896 64.8149 38.8847 67.8541 35.0251 67.8541C31.1654 67.8541 28.0605 64.8149 28.0605 61.095C28.0605 57.3751 31.1654 54.3359 35.0251 54.3359C38.8847 54.3359 41.9896 57.3751 41.9896 61.095Z" stroke="#252525"/>
<path d="M54.6225 61.095C54.6225 64.8528 51.7372 67.8541 48.2321 67.8541C44.7271 67.8541 41.8418 64.8528 41.8418 61.095C41.8418 57.3372 44.7271 54.3359 48.2321 54.3359C51.7372 54.3359 54.6225 57.3372 54.6225 61.095Z" stroke="#252525"/>
<path d="M68.4037 61.095C68.4037 64.8149 65.2988 67.8541 61.4391 67.8541C57.5795 67.8541 54.4746 64.8149 54.4746 61.095C54.4746 57.3751 57.5795 54.3359 61.4391 54.3359C65.2988 54.3359 68.4037 57.3751 68.4037 61.095Z" stroke="#252525"/>
<path d="M81.0365 61.095C81.0365 64.8528 78.1512 67.8541 74.6462 67.8541C71.1411 67.8541 68.2559 64.8528 68.2559 61.095C68.2559 57.3372 71.1411 54.3359 74.6462 54.3359C78.1512 54.3359 81.0365 57.3372 81.0365 61.095Z" stroke="#252525"/>
<path d="M94.8158 61.095C94.8158 64.8149 91.7109 67.8541 87.8512 67.8541C83.9916 67.8541 80.8867 64.8149 80.8867 61.095C80.8867 57.3751 83.9916 54.3359 87.8512 54.3359C91.7109 54.3359 94.8158 57.3751 94.8158 61.095Z" stroke="#252525"/>
<path d="M107.449 61.095C107.449 64.8528 104.563 67.8541 101.058 67.8541C97.5533 67.8541 94.668 64.8528 94.668 61.095C94.668 57.3372 97.5533 54.3359 101.058 54.3359C104.563 54.3359 107.449 57.3372 107.449 61.095Z" stroke="#252525"/>
<path d="M121.23 61.095C121.23 64.8149 118.125 67.8541 114.265 67.8541C110.406 67.8541 107.301 64.8149 107.301 61.095C107.301 57.3751 110.406 54.3359 114.265 54.3359C118.125 54.3359 121.23 57.3751 121.23 61.095Z" stroke="#252525"/>
<path d="M15.5775 47.6888C15.5775 51.4086 12.4726 54.4478 8.61296 54.4478C4.75331 54.4478 1.64844 51.4086 1.64844 47.6888C1.64844 43.9689 4.75331 40.9297 8.61296 40.9297C12.4726 40.9297 15.5775 43.9689 15.5775 47.6888Z" stroke="#252525"/>
<path d="M28.2103 47.6888C28.2103 51.4466 25.3251 54.4478 21.82 54.4478C18.315 54.4478 15.4297 51.4466 15.4297 47.6888C15.4297 43.9309 18.315 40.9297 21.82 40.9297C25.3251 40.9297 28.2103 43.9309 28.2103 47.6888Z" stroke="#252525"/>
<path d="M41.9896 47.6888C41.9896 51.4086 38.8847 54.4478 35.0251 54.4478C31.1654 54.4478 28.0605 51.4086 28.0605 47.6888C28.0605 43.9689 31.1654 40.9297 35.0251 40.9297C38.8847 40.9297 41.9896 43.9689 41.9896 47.6888Z" stroke="#252525"/>
<path d="M54.6225 47.6888C54.6225 51.4466 51.7372 54.4478 48.2321 54.4478C44.7271 54.4478 41.8418 51.4466 41.8418 47.6888C41.8418 43.9309 44.7271 40.9297 48.2321 40.9297C51.7372 40.9297 54.6225 43.9309 54.6225 47.6888Z" stroke="#252525"/>
<path d="M68.4037 47.6888C68.4037 51.4086 65.2988 54.4478 61.4391 54.4478C57.5795 54.4478 54.4746 51.4086 54.4746 47.6888C54.4746 43.9689 57.5795 40.9297 61.4391 40.9297C65.2988 40.9297 68.4037 43.9689 68.4037 47.6888Z" stroke="#252525"/>
<path d="M81.0365 47.6888C81.0365 51.4466 78.1512 54.4478 74.6462 54.4478C71.1411 54.4478 68.2559 51.4466 68.2559 47.6888C68.2559 43.9309 71.1411 40.9297 74.6462 40.9297C78.1512 40.9297 81.0365 43.9309 81.0365 47.6888Z" stroke="#252525"/>
<path d="M94.8158 47.6888C94.8158 51.4086 91.7109 54.4478 87.8512 54.4478C83.9916 54.4478 80.8867 51.4086 80.8867 47.6888C80.8867 43.9689 83.9916 40.9297 87.8512 40.9297C91.7109 40.9297 94.8158 43.9689 94.8158 47.6888Z" stroke="#252525"/>
<path d="M107.449 47.6888C107.449 51.4466 104.563 54.4478 101.058 54.4478C97.5533 54.4478 94.668 51.4466 94.668 47.6888C94.668 43.9309 97.5533 40.9297 101.058 40.9297C104.563 40.9297 107.449 43.9309 107.449 47.6888Z" stroke="#252525"/>
<path d="M121.23 47.6888C121.23 51.4086 118.125 54.4478 114.265 54.4478C110.406 54.4478 107.301 51.4086 107.301 47.6888C107.301 43.9689 110.406 40.9297 114.265 40.9297C118.125 40.9297 121.23 43.9689 121.23 47.6888Z" stroke="#252525"/>
<path d="M15.5775 34.2903C15.5775 38.0102 12.4726 41.0494 8.61296 41.0494C4.75331 41.0494 1.64844 38.0102 1.64844 34.2903C1.64844 30.5705 4.75331 27.5312 8.61296 27.5312C12.4726 27.5312 15.5775 30.5705 15.5775 34.2903Z" stroke="#252525"/>
<path d="M28.2103 34.2903C28.2103 38.0481 25.3251 41.0494 21.82 41.0494C18.315 41.0494 15.4297 38.0481 15.4297 34.2903C15.4297 30.5325 18.315 27.5312 21.82 27.5312C25.3251 27.5312 28.2103 30.5325 28.2103 34.2903Z" stroke="#252525"/>
<path d="M41.9896 34.2903C41.9896 38.0102 38.8847 41.0494 35.0251 41.0494C31.1654 41.0494 28.0605 38.0102 28.0605 34.2903C28.0605 30.5705 31.1654 27.5312 35.0251 27.5312C38.8847 27.5312 41.9896 30.5705 41.9896 34.2903Z" stroke="#252525"/>
<path d="M54.6225 34.2903C54.6225 38.0481 51.7372 41.0494 48.2321 41.0494C44.7271 41.0494 41.8418 38.0481 41.8418 34.2903C41.8418 30.5325 44.7271 27.5312 48.2321 27.5312C51.7372 27.5312 54.6225 30.5325 54.6225 34.2903Z" stroke="#252525"/>
<path d="M68.4037 34.2903C68.4037 38.0102 65.2988 41.0494 61.4391 41.0494C57.5795 41.0494 54.4746 38.0102 54.4746 34.2903C54.4746 30.5705 57.5795 27.5312 61.4391 27.5312C65.2988 27.5312 68.4037 30.5705 68.4037 34.2903Z" stroke="#252525"/>
<path d="M81.0365 34.2903C81.0365 38.0481 78.1512 41.0494 74.6462 41.0494C71.1411 41.0494 68.2559 38.0481 68.2559 34.2903C68.2559 30.5325 71.1411 27.5312 74.6462 27.5312C78.1512 27.5312 81.0365 30.5325 81.0365 34.2903Z" stroke="#252525"/>
<path d="M94.8158 34.2903C94.8158 38.0102 91.7109 41.0494 87.8512 41.0494C83.9916 41.0494 80.8867 38.0102 80.8867 34.2903C80.8867 30.5705 83.9916 27.5312 87.8512 27.5312C91.7109 27.5312 94.8158 30.5705 94.8158 34.2903Z" stroke="#252525"/>
<path d="M107.449 34.2903C107.449 38.0481 104.563 41.0494 101.058 41.0494C97.5533 41.0494 94.668 38.0481 94.668 34.2903C94.668 30.5325 97.5533 27.5312 101.058 27.5312C104.563 27.5312 107.449 30.5325 107.449 34.2903Z" stroke="#252525"/>
<path d="M121.23 34.2903C121.23 38.0102 118.125 41.0494 114.265 41.0494C110.406 41.0494 107.301 38.0102 107.301 34.2903C107.301 30.5705 110.406 27.5312 114.265 27.5312C118.125 27.5312 121.23 30.5705 121.23 34.2903Z" stroke="#252525"/>
<path d="M15.5775 20.8919C15.5775 24.6118 12.4726 27.651 8.61296 27.651C4.75331 27.651 1.64844 24.6118 1.64844 20.8919C1.64844 17.172 4.75331 14.1328 8.61296 14.1328C12.4726 14.1328 15.5775 17.172 15.5775 20.8919Z" stroke="#252525"/>
<path d="M28.2103 20.8919C28.2103 24.6497 25.3251 27.651 21.82 27.651C18.315 27.651 15.4297 24.6497 15.4297 20.8919C15.4297 17.1341 18.315 14.1328 21.82 14.1328C25.3251 14.1328 28.2103 17.1341 28.2103 20.8919Z" stroke="#252525"/>
<path d="M41.9896 20.8919C41.9896 24.6118 38.8847 27.651 35.0251 27.651C31.1654 27.651 28.0605 24.6118 28.0605 20.8919C28.0605 17.172 31.1654 14.1328 35.0251 14.1328C38.8847 14.1328 41.9896 17.172 41.9896 20.8919Z" stroke="#252525"/>
<path d="M54.6225 20.8919C54.6225 24.6497 51.7372 27.651 48.2321 27.651C44.7271 27.651 41.8418 24.6497 41.8418 20.8919C41.8418 17.1341 44.7271 14.1328 48.2321 14.1328C51.7372 14.1328 54.6225 17.1341 54.6225 20.8919Z" stroke="#252525"/>
<path d="M68.4037 20.8919C68.4037 24.6118 65.2988 27.651 61.4391 27.651C57.5795 27.651 54.4746 24.6118 54.4746 20.8919C54.4746 17.172 57.5795 14.1328 61.4391 14.1328C65.2988 14.1328 68.4037 17.172 68.4037 20.8919Z" stroke="#252525"/>
<path d="M81.0365 20.8919C81.0365 24.6497 78.1512 27.651 74.6462 27.651C71.1411 27.651 68.2559 24.6497 68.2559 20.8919C68.2559 17.1341 71.1411 14.1328 74.6462 14.1328C78.1512 14.1328 81.0365 17.1341 81.0365 20.8919Z" stroke="#252525"/>
<path d="M94.8158 20.8919C94.8158 24.6118 91.7109 27.651 87.8512 27.651C83.9916 27.651 80.8867 24.6118 80.8867 20.8919C80.8867 17.172 83.9916 14.1328 87.8512 14.1328C91.7109 14.1328 94.8158 17.172 94.8158 20.8919Z" stroke="#252525"/>
<path d="M107.449 20.8919C107.449 24.6497 104.563 27.651 101.058 27.651C97.5533 27.651 94.668 24.6497 94.668 20.8919C94.668 17.1341 97.5533 14.1328 101.058 14.1328C104.563 14.1328 107.449 17.1341 107.449 20.8919Z" stroke="#252525"/>
<path d="M121.23 20.8919C121.23 24.6118 118.125 27.651 114.265 27.651C110.406 27.651 107.301 24.6118 107.301 20.8919C107.301 17.172 110.406 14.1328 114.265 14.1328C118.125 14.1328 121.23 17.172 121.23 20.8919Z" stroke="#252525"/>
<path d="M94.8158 47.6966C94.8158 51.4164 91.7109 54.4557 87.8512 54.4557C83.9916 54.4557 80.8867 51.4164 80.8867 47.6966C80.8867 43.9767 83.9916 40.9375 87.8512 40.9375C91.7109 40.9375 94.8158 43.9767 94.8158 47.6966Z" stroke="#D5D1CE"/>
<path d="M68.4037 61.0872C68.4037 64.8071 65.2988 67.8463 61.4391 67.8463C57.5795 67.8463 54.4746 64.8071 54.4746 61.0872C54.4746 57.3673 57.5795 54.3281 61.4391 54.3281C65.2988 54.3281 68.4037 57.3673 68.4037 61.0872Z" stroke="#D5D1CE"/>
<path d="M68.4037 74.8606C68.4037 78.5805 65.2988 81.6197 61.4391 81.6197C57.5795 81.6197 54.4746 78.5805 54.4746 74.8606C54.4746 71.1408 57.5795 68.1016 61.4391 68.1016C65.2988 68.1016 68.4037 71.1408 68.4037 74.8606Z" stroke="#D5D1CE"/>
<path d="M41.9915 115.056C41.9915 118.776 38.8867 121.815 35.027 121.815C31.1674 121.815 28.0625 118.776 28.0625 115.056C28.0625 111.336 31.1674 108.297 35.027 108.297C38.8867 108.297 41.9915 111.336 41.9915 115.056Z" stroke="#D5D1CE"/>
<rect x="0.5" y="12.9844" width="121.878" height="121.878" rx="7.5" stroke="#D5D1CE"/>
<path d="M133.034 15.5469C135.921 10.5469 143.138 10.5469 146.025 15.5469L208.25 123.324C211.137 128.324 207.528 134.574 201.755 134.574H77.304C71.5305 134.574 67.9221 128.324 70.8088 123.324L133.034 15.5469Z" fill="#272727" stroke="#D5D1CE"/>
<path d="M127.471 111.246L165.368 39.4714C168.231 35.4521 176.08 29.825 184.569 39.4714C193.057 49.1179 204.949 62.6306 209.833 68.1811C212.865 72.0091 220.949 77.3682 229.034 68.1811C237.119 58.994 265.752 26.4564 279.058 11.3359" stroke="#D5D1CE" stroke-dasharray="6 6"/>
<path d="M280.138 9.57059C276.183 12.9494 266.524 18.4063 259.535 13.2031" stroke="#D5D1CE"/>
<path d="M280.141 9.57217C278.038 14.3306 275.581 25.1484 282.57 30.3516" stroke="#D5D1CE"/>
</svg>
