<svg width="1008" height="1002" viewBox="0 0 1008 1002" fill="none" xmlns="http://www.w3.org/2000/svg">
<circle cx="294" cy="501" r="500.5" fill="#2A2A2A" stroke="#424241"/>
<path d="M937.653 509.722C936.573 509.722 935.653 509.435 934.893 508.862C934.133 508.289 933.553 507.455 933.153 506.362C932.753 505.269 932.553 503.962 932.553 502.442C932.553 500.922 932.759 499.615 933.173 498.522C933.586 497.415 934.173 496.569 934.933 495.982C935.706 495.395 936.613 495.102 937.653 495.102C938.679 495.102 939.573 495.395 940.333 495.982C941.093 496.555 941.679 497.395 942.093 498.502C942.506 499.595 942.713 500.909 942.713 502.442C942.713 503.975 942.513 505.289 942.113 506.382C941.713 507.475 941.133 508.309 940.373 508.882C939.613 509.442 938.706 509.722 937.653 509.722ZM937.653 508.302C938.346 508.302 938.933 508.095 939.413 507.682C939.893 507.255 940.259 506.609 940.513 505.742C940.766 504.862 940.893 503.762 940.893 502.442C940.893 500.455 940.613 498.975 940.053 498.002C939.506 497.029 938.706 496.542 937.653 496.542C936.933 496.542 936.333 496.755 935.853 497.182C935.373 497.609 935.006 498.262 934.753 499.142C934.513 500.009 934.393 501.109 934.393 502.442C934.393 504.402 934.673 505.869 935.233 506.842C935.806 507.815 936.613 508.302 937.653 508.302ZM948.345 509.422V506.842H950.905V509.422H948.345ZM961.637 509.722C960.557 509.722 959.637 509.435 958.877 508.862C958.117 508.289 957.537 507.455 957.137 506.362C956.737 505.269 956.537 503.962 956.537 502.442C956.537 500.922 956.744 499.615 957.157 498.522C957.571 497.415 958.157 496.569 958.917 495.982C959.691 495.395 960.597 495.102 961.637 495.102C962.664 495.102 963.557 495.395 964.317 495.982C965.077 496.555 965.664 497.395 966.077 498.502C966.491 499.595 966.697 500.909 966.697 502.442C966.697 503.975 966.497 505.289 966.097 506.382C965.697 507.475 965.117 508.309 964.357 508.882C963.597 509.442 962.691 509.722 961.637 509.722ZM961.637 508.302C962.331 508.302 962.917 508.095 963.397 507.682C963.877 507.255 964.244 506.609 964.497 505.742C964.751 504.862 964.877 503.762 964.877 502.442C964.877 500.455 964.597 498.975 964.037 498.002C963.491 497.029 962.691 496.542 961.637 496.542C960.917 496.542 960.317 496.755 959.837 497.182C959.357 497.609 958.991 498.262 958.737 499.142C958.497 500.009 958.377 501.109 958.377 502.442C958.377 504.402 958.657 505.869 959.217 506.842C959.791 507.815 960.597 508.302 961.637 508.302ZM973.629 509.722C972.549 509.722 971.629 509.435 970.869 508.862C970.109 508.289 969.529 507.455 969.129 506.362C968.729 505.269 968.529 503.962 968.529 502.442C968.529 500.922 968.736 499.615 969.149 498.522C969.563 497.415 970.149 496.569 970.909 495.982C971.683 495.395 972.589 495.102 973.629 495.102C974.656 495.102 975.549 495.395 976.309 495.982C977.069 496.555 977.656 497.395 978.069 498.502C978.483 499.595 978.689 500.909 978.689 502.442C978.689 503.975 978.489 505.289 978.089 506.382C977.689 507.475 977.109 508.309 976.349 508.882C975.589 509.442 974.683 509.722 973.629 509.722ZM973.629 508.302C974.323 508.302 974.909 508.095 975.389 507.682C975.869 507.255 976.236 506.609 976.489 505.742C976.743 504.862 976.869 503.762 976.869 502.442C976.869 500.455 976.589 498.975 976.029 498.002C975.483 497.029 974.683 496.542 973.629 496.542C972.909 496.542 972.309 496.755 971.829 497.182C971.349 497.609 970.983 498.262 970.729 499.142C970.489 500.009 970.369 501.109 970.369 502.442C970.369 504.402 970.649 505.869 971.209 506.842C971.783 507.815 972.589 508.302 973.629 508.302ZM980.842 509.422C980.842 508.809 980.935 508.262 981.122 507.782C981.308 507.289 981.608 506.809 982.022 506.342C982.448 505.862 983.035 505.342 983.782 504.782L985.682 503.322C986.175 502.935 986.608 502.555 986.982 502.182C987.355 501.809 987.668 501.382 987.922 500.902C988.188 500.409 988.322 499.889 988.322 499.342C988.322 498.809 988.215 498.329 988.002 497.902C987.788 497.475 987.482 497.142 987.082 496.902C986.682 496.662 986.208 496.542 985.662 496.542C985.088 496.542 984.588 496.675 984.162 496.942C983.735 497.209 983.402 497.609 983.162 498.142C982.922 498.662 982.802 499.295 982.802 500.042V500.302H980.982V499.842C980.982 498.869 981.182 498.029 981.582 497.322C981.995 496.602 982.555 496.055 983.262 495.682C983.982 495.295 984.782 495.102 985.662 495.102C986.515 495.102 987.282 495.275 987.962 495.622C988.642 495.969 989.175 496.462 989.562 497.102C989.948 497.729 990.142 498.469 990.142 499.322C990.142 500.015 990.002 500.662 989.722 501.262C989.442 501.849 989.022 502.429 988.462 503.002C987.902 503.575 987.162 504.215 986.242 504.922L985.262 505.662C984.555 506.195 984.022 506.629 983.662 506.962C983.315 507.295 983.102 507.582 983.022 507.822H990.382V509.422H980.842ZM995.494 494.942C996.48 494.942 997.227 495.335 997.734 496.122C998.24 496.895 998.494 497.989 998.494 499.402C998.494 500.815 998.247 501.922 997.754 502.722C997.274 503.509 996.52 503.902 995.494 503.902C994.867 503.902 994.334 503.722 993.894 503.362C993.454 503.002 993.12 502.489 992.894 501.822C992.68 501.142 992.574 500.335 992.574 499.402C992.574 497.989 992.807 496.895 993.274 496.122C993.74 495.335 994.48 494.942 995.494 494.942ZM995.494 496.182C994.987 496.182 994.614 496.455 994.374 497.002C994.147 497.535 994.034 498.335 994.034 499.402C994.034 500.469 994.147 501.275 994.374 501.822C994.614 502.369 994.987 502.642 995.494 502.642C996.014 502.642 996.4 502.375 996.654 501.842C996.907 501.295 997.034 500.482 997.034 499.402C997.034 498.335 996.907 497.535 996.654 497.002C996.4 496.455 996.014 496.182 995.494 496.182ZM1004.63 495.142L996.714 509.422H995.174L1003.09 495.142H1004.63ZM1004.23 500.662C1004.89 500.662 1005.43 500.842 1005.87 501.202C1006.31 501.549 1006.65 502.055 1006.87 502.722C1007.11 503.375 1007.23 504.175 1007.23 505.122C1007.23 506.535 1006.99 507.642 1006.49 508.442C1006.01 509.229 1005.26 509.622 1004.23 509.622C1003.61 509.622 1003.07 509.442 1002.63 509.082C1002.19 508.722 1001.86 508.209 1001.63 507.542C1001.42 506.862 1001.31 506.055 1001.31 505.122C1001.31 503.709 1001.55 502.615 1002.01 501.842C1002.48 501.055 1003.22 500.662 1004.23 500.662ZM1004.23 501.922C1003.73 501.922 1003.35 502.189 1003.11 502.722C1002.89 503.255 1002.77 504.055 1002.77 505.122C1002.77 506.202 1002.89 507.015 1003.11 507.562C1003.35 508.095 1003.73 508.362 1004.23 508.362C1004.75 508.362 1005.14 508.095 1005.39 507.562C1005.65 507.029 1005.77 506.215 1005.77 505.122C1005.77 504.055 1005.65 503.255 1005.39 502.722C1005.14 502.189 1004.75 501.922 1004.23 501.922Z" fill="#FFFF8D"/>
<path d="M794.424 502.422H919.424" stroke="#FFFF8D" stroke-dasharray="2 2"/>
<path d="M795.242 502.117C795.24 504.286 795.225 506.455 795.195 508.623L294.275 501.809L795.242 502.117Z" fill="#FFFF8D"/>
</svg>
