<svg width="29" height="29" viewBox="0 0 29 29" fill="none" xmlns="http://www.w3.org/2000/svg">
<g opacity="0.4">
<path fill-rule="evenodd" clip-rule="evenodd" d="M4.70554 1.88222H23.5278C25.087 1.88222 26.3511 3.14627 26.3511 4.70555V23.5278C26.3511 25.0871 25.087 26.3511 23.5278 26.3511H4.70553C3.14624 26.3511 1.8822 25.0871 1.8822 23.5278V4.70555C1.8822 3.14626 3.14626 1.88222 4.70554 1.88222ZM4.70554 3.76444C4.18577 3.76444 3.76442 4.18579 3.76442 4.70555V15.7422L6.92995 12.5766C7.09236 12.4142 7.31377 12.3247 7.54343 12.3287C7.77308 12.3326 7.99129 12.4297 8.14802 12.5976L14.8198 19.7446L20.1055 14.4589C20.4363 14.1281 20.9726 14.1281 21.3033 14.4589L24.4689 17.6244V4.70555C24.4689 4.18579 24.0475 3.76444 23.5278 3.76444H4.70554ZM3.76442 23.5278V18.1378L7.50792 14.3943L14.1752 21.5366L16.8292 24.4689H4.70553C4.18577 24.4689 3.76442 24.0475 3.76442 23.5278ZM23.5278 24.4689H19.114L15.9675 20.9925L20.7044 16.2556L24.4689 20.0201V23.5278C24.4689 24.0475 24.0475 24.4689 23.5278 24.4689ZM12.5153 10.3522C12.5153 9.46781 13.2322 8.75086 14.1166 8.75086C15.0011 8.75086 15.718 9.46781 15.718 10.3522C15.718 11.2366 15.0011 11.9536 14.1166 11.9536C13.2322 11.9536 12.5153 11.2366 12.5153 10.3522ZM14.1166 7.05686C12.2967 7.05686 10.8213 8.53224 10.8213 10.3522C10.8213 12.1722 12.2967 13.6476 14.1166 13.6476C15.9366 13.6476 17.412 12.1722 17.412 10.3522C17.412 8.53224 15.9366 7.05686 14.1166 7.05686Z" fill="#909090"/>
</g>
</svg>
