<svg width="16" height="16" viewBox="0 0 16 16" fill="none" xmlns="http://www.w3.org/2000/svg">
<path fill-rule="evenodd" clip-rule="evenodd" d="M2 0C0.895431 0 0 0.895431 0 2V14C0 15.1046 0.895431 16 2 16H14C15.1046 16 16 15.1046 16 14V2C16 0.895431 15.1046 0 14 0H2ZM5.30769 12.1667C5.46154 11.75 5.84615 11.4167 6.23077 11.25L7 11L6.23077 10.75C5.76923 10.6667 5.46154 10.25 5.30769 9.83333L5 9L4.69231 9.83333C4.53846 10.25 4.15385 10.5833 3.76923 10.75L3 11L3.76923 11.25C4.23077 11.3333 4.53846 11.75 4.69231 12.1667L5 13L5.30769 12.1667ZM4.5 4.74192C4.2 4.83869 3.9 5.12903 3.8 5.41935L3.6 6L3.3 5.41935C3.2 5.12903 2.9 4.83869 2.6 4.74192L2 4.45161L2.6 4.25805C2.9 4.16128 3.2 3.87097 3.3 3.58065L3.5 3L3.7 3.58065C3.8 3.87097 4.1 4.16128 4.4 4.25805L5 4.45161L4.5 4.74192ZM9.70829 10.1941C10.086 9.22247 10.936 8.5158 11.9748 8.16247L13.958 7.54417C14.0525 7.54417 13.958 7.45583 13.958 7.45583L11.9748 6.8375C10.936 6.57251 10.086 5.77753 9.70829 4.80589L9.04722 3.03926C9.04722 2.95093 8.95278 3.03926 8.95278 3.03926L8.29171 4.80589C7.91396 5.77753 7.06401 6.48417 6.02518 6.8375L4.04197 7.45583C3.94753 7.45583 4.04197 7.54417 4.04197 7.54417L6.02518 8.16247C7.06401 8.42747 7.91396 9.22247 8.29171 10.1941L8.95278 11.9607C8.95278 12.0491 9.04722 11.9607 9.04722 11.9607L9.70829 10.1941Z" fill="#FFFF8D"/>
</svg>
