<svg width="14" height="14" viewBox="0 0 14 14" fill="none" xmlns="http://www.w3.org/2000/svg">
<rect x="6" width="8" height="8" rx="1" fill="#BCBCBC"/>
<path fill-rule="evenodd" clip-rule="evenodd" d="M5 3H4C3.44772 3 3 3.44772 3 4V10C3 10.5523 3.44772 11 4 11H10C10.5523 11 11 10.5523 11 10V9H6C5.44772 9 5 8.55228 5 8V3Z" fill="#BCBCBC"/>
<path fill-rule="evenodd" clip-rule="evenodd" d="M2 6H1C0.447715 6 0 6.44772 0 7V13C0 13.5523 0.447715 14 1 14H7C7.55228 14 8 13.5523 8 13V12H3C2.44772 12 2 11.5523 2 11V6Z" fill="#BCBCBC"/>
</svg>
