<svg width="20" height="11" viewBox="0 0 20 11" fill="none" xmlns="http://www.w3.org/2000/svg">
<path d="M8.27244 1.96153C9.0442 0.638515 10.9558 0.638517 11.7276 1.96153L15.2455 7.99226C16.0233 9.32557 15.0615 11 13.5179 11H6.48208C4.93849 11 3.97675 9.32557 4.75452 7.99226L8.27244 1.96153Z" fill="#BCBCBC"/>
<path d="M0.866028 3.23205C0.387735 2.95591 0.223859 2.34431 0.500001 1.86602C0.776144 1.38773 1.38773 1.22385 1.86603 1.5L5.88343 3.81944L4.88343 5.55149L0.866028 3.23205Z" fill="#BCBCBC"/>
<path d="M17.5981 4.9641L19.1962 1.73205L15.5981 1.5L16.0981 2.36603L13.9836 3.58683L14.9836 5.31888L17.0981 4.09808L17.5981 4.9641Z" fill="#BCBCBC"/>
</svg>
