<svg width="8" height="8" viewBox="0 0 8 8" fill="none" xmlns="http://www.w3.org/2000/svg">
<path d="M2 7C2 7.55228 1.55228 8 1 8C0.447715 8 0 7.55228 0 7C0 6.44771 0.447715 6 1 6C1.55228 6 2 6.44771 2 7Z" fill="white"/>
<path d="M5 7C5 7.55228 4.55228 8 4 8C3.44772 8 3 7.55228 3 7C3 6.44771 3.44772 6 4 6C4.55228 6 5 6.44771 5 7Z" fill="white"/>
<path d="M8 7C8 7.55228 7.55228 8 7 8C6.44772 8 6 7.55228 6 7C6 6.44771 6.44772 6 7 6C7.55228 6 8 6.44771 8 7Z" fill="white"/>
<path d="M0.5 5C0.5 4.44771 0.947715 4 1.5 4H6.5C7.05228 4 7.5 4.44772 7.5 5V5.16722C7.5 5.40299 7.3353 5.60672 7.10476 5.65612L5.98831 5.89536C5.66769 5.96407 5.3351 5.95289 5.01981 5.8628L4.54944 5.72841C4.19033 5.62581 3.80967 5.62581 3.45056 5.72841L2.98019 5.8628C2.6649 5.95289 2.33231 5.96407 2.01168 5.89536L0.895236 5.65612C0.6647 5.60672 0.5 5.40299 0.5 5.16722V5Z" fill="white"/>
<path d="M4.20577 2.97715C4.33033 3.02359 4.4737 2.99792 4.56904 2.91212L5.90237 1.71213C5.96488 1.65587 6 1.57956 6 1.5C6 1.42044 5.96488 1.34413 5.90237 1.28787L4.56904 0.0878762C4.4737 0.00207727 4.33033 -0.0235892 4.20577 0.0228447C4.08121 0.0692789 4 0.178669 4 0.300007L4 2.69999C4 2.82133 4.08121 2.93072 4.20577 2.97715Z" fill="white"/>
<path fill-rule="evenodd" clip-rule="evenodd" d="M2.5 1.5C2.5 1.77614 2.72386 2 3 2L4 2C4.27614 2 4.5 1.77614 4.5 1.5C4.5 1.22386 4.27614 1 4 1L3 1C2.72386 1 2.5 1.22386 2.5 1.5Z" fill="white"/>
</svg>
