<svg width="64" height="64" viewBox="0 0 64 64" fill="none" xmlns="http://www.w3.org/2000/svg">
<path fill-rule="evenodd" clip-rule="evenodd" d="M52.8 34.8C52 30.8 49.6 28 46 25.6C42.4 23.2 38.8 21.6 34 21.6H33.2V15.2C38.4 13.2 38 17.2 45.2 15.2V8C40 10.8 38.4 6 33.2 8V6H30V21.2C25.2 22 21.2 23.2 18 25.2C14.8 28 12 30.8 11.2 34.8C11.2 34.8 8 34 8 37.6H56.8C56.8 34.8 53.6 34.8 53.6 34.8H52.8ZM2 58H62V56H2V58Z" fill="#969696"/>
<path fill-rule="evenodd" clip-rule="evenodd" d="M62 38.7998H52.8H11.2H2V55.5998H62V38.7998ZM8 41.9998C8.8 41.9998 9.2 41.9998 10 41.9998C10.8 41.9998 10.8 42.7998 10.8 42.7998C10.8 45.9998 10.8 48.7998 10.8 51.9998C10.8 52.7998 10 52.7998 10 52.7998C9.2 52.7998 8.8 52.7998 8 52.7998C7.2 52.7998 7.2 51.9998 7.2 51.9998C7.2 48.7998 7.2 45.9998 7.2 42.7998C7.2 41.9998 8 41.9998 8 41.9998ZM53.2 41.9998C54 41.9998 54.4 41.9998 55.2 41.9998C56 41.9998 56 42.7998 56 42.7998C56 45.9998 56 48.7998 56 51.9998C56 52.7998 55.2 52.7998 55.2 52.7998C54.4 52.7998 54 52.7998 53.2 52.7998C52.4 52.7998 52.4 51.9998 52.4 51.9998C52.4 48.7998 52.4 45.9998 52.4 42.7998C52.8 41.9998 53.2 41.9998 53.2 41.9998ZM42 41.9998C42.8 41.9998 43.2 41.9998 44 41.9998C44.8 41.9998 44.8 42.7998 44.8 42.7998C44.8 45.9998 44.8 48.7998 44.8 51.9998C44.8 52.7998 44 52.7998 44 52.7998C43.2 52.7998 42.8 52.7998 42 52.7998C41.2 52.7998 41.2 51.9998 41.2 51.9998C41.2 48.7998 41.2 45.9998 41.2 42.7998C41.2 41.9998 42 41.9998 42 41.9998ZM30.8 41.9998C31.6 41.9998 32 41.9998 32.8 41.9998C33.6 41.9998 33.6 42.7998 33.6 42.7998C33.6 45.9998 33.6 48.7998 33.6 51.9998C33.6 52.7998 32.8 52.7998 32.8 52.7998C32 52.7998 31.6 52.7998 30.8 52.7998C30 52.7998 30 51.9998 30 51.9998C30 48.7998 30 45.9998 30 42.7998C30 41.9998 30.8 41.9998 30.8 41.9998ZM19.2 41.9998C20 41.9998 20.4 41.9998 21.2 41.9998C22 41.9998 22 42.7998 22 42.7998C22 45.9998 22 48.7998 22 51.9998C22 52.7998 21.2 52.7998 21.2 52.7998C20.4 52.7998 20 52.7998 19.2 52.7998C18.4 52.7998 18.4 51.9998 18.4 51.9998C18.4 48.7998 18.4 45.9998 18.4 42.7998C18.8 41.9998 19.2 41.9998 19.2 41.9998Z" fill="#969696"/>
</svg>
