<svg width="16" height="16" viewBox="0 0 16 16" fill="none" xmlns="http://www.w3.org/2000/svg">
<path d="M8.56045 0.132611C8.80304 0.253906 8.99974 0.45061 9.12104 0.693198L15.8674 14.1859C16.177 14.8051 15.926 15.5581 15.3068 15.8677C15.1327 15.9547 14.9408 16 14.7462 16H1.25351C0.561216 16 0 15.4388 0 14.7465C0 14.5519 0.0453083 14.36 0.132337 14.1859L6.87869 0.693198C7.18829 0.0739909 7.94124 -0.176992 8.56045 0.132611ZM7.95579 11.4217C7.378 11.4217 6.91283 11.8526 6.91283 12.3962C6.91283 12.9446 7.378 13.3755 7.95579 13.3755C8.52379 13.3755 8.99386 12.9446 8.99386 12.3962C8.99386 11.8526 8.52379 11.4217 7.95579 11.4217ZM8.98407 6.11391H6.92752L7.1038 10.8733H8.80779L8.98407 6.11391Z" fill="#293137"/>
</svg>
