<svg width="24" height="24" viewBox="0 0 24 24" fill="none" xmlns="http://www.w3.org/2000/svg">
<path d="M12.8407 0.198917C13.2046 0.380858 13.4996 0.675914 13.6816 1.0398L23.8011 21.2789C24.2655 22.2077 23.889 23.3371 22.9602 23.8015C22.6991 23.932 22.4112 24 22.1193 24H1.88027C0.841824 24 0 23.1582 0 22.1197C0 21.8278 0.0679624 21.5399 0.198505 21.2789L10.318 1.0398C10.7824 0.110986 11.9119 -0.265489 12.8407 0.198917ZM11.9337 17.1326C11.067 17.1326 10.3693 17.779 10.3693 18.5942C10.3693 19.4169 11.067 20.0632 11.9337 20.0632C12.7857 20.0632 13.4908 19.4169 13.4908 18.5942C13.4908 17.779 12.7857 17.1326 11.9337 17.1326ZM13.4761 9.17087H10.3913L10.6557 16.31H13.2117L13.4761 9.17087Z" fill="#FC8D59"/>
</svg>
