<svg width="18" height="18" viewBox="0 0 18 18" fill="none" xmlns="http://www.w3.org/2000/svg">
    <path fill-rule="evenodd" clip-rule="evenodd"
        d="M3.375 14.25C3.375 14.3495 3.41451 14.4448 3.48483 14.5152C3.55516 14.5855 3.65054 14.625 3.75 14.625L14.25 14.625C14.3495 14.625 14.4448 14.5855 14.5152 14.5152C14.5855 14.4448 14.625 14.3495 14.625 14.25L14.625 11.25C14.625 10.6287 15.1287 10.125 15.75 10.125C16.3713 10.125 16.875 10.6287 16.875 11.25L16.875 14.25C16.875 14.9462 16.5984 15.6139 16.1062 16.1062C15.6139 16.5984 14.9462 16.875 14.25 16.875L3.75 16.875C3.05381 16.875 2.38613 16.5984 1.89384 16.1062C1.40156 15.6139 1.125 14.9462 1.125 14.25L1.125 11.25C1.125 10.6287 1.62868 10.125 2.25 10.125C2.87132 10.125 3.375 10.6287 3.375 11.25L3.375 14.25Z"
        fill="#BCBCBC" />
    <path fill-rule="evenodd" clip-rule="evenodd"
        d="M12.9716 8.47162C13.213 8.23031 13.2851 7.8674 13.1545 7.55211C13.024 7.23682 12.7163 7.03125 12.375 7.03125L11 7.03125L11 2C11 1.44772 10.5523 1 10 1L8 1C7.44772 1 7 1.44771 7 2L7 7.03125L5.62502 7.03125C5.28376 7.03125 4.9761 7.23682 4.8455 7.55211C4.7149 7.8674 4.78709 8.23031 5.0284 8.47162L8.4034 11.8466C8.56164 12.0049 8.77625 12.0937 9.00002 12.0937C9.2238 12.0937 9.43841 12.0049 9.59665 11.8466L12.9716 8.47162Z"
        fill="#BCBCBC" />
</svg>