<svg width="15" height="15" viewBox="0 0 15 15" fill="none" xmlns="http://www.w3.org/2000/svg">
    <path fill-rule="evenodd" clip-rule="evenodd"
        d="M2 1C1.44771 1 1 1.44772 1 2V13C1 13.5523 1.44772 14 2 14H13C13.5523 14 14 13.5523 14 13V2C14 1.44771 13.5523 1 13 1H2ZM2 2L13 2V13H2V2ZM4.49999 3.99999C4.22385 3.99999 3.99999 4.22385 3.99999 4.49999V10.5C3.99999 10.7761 4.22385 11 4.49999 11H10.5C10.7761 11 11 10.7761 11 10.5V4.49999C11 4.22385 10.7761 3.99999 10.5 3.99999H4.49999ZM4.99999 9.99999V4.99999H9.99999V9.99999H4.99999Z"
        fill="white" />
</svg>