<svg width="13" height="13" viewBox="0 0 13 13" fill="none" xmlns="http://www.w3.org/2000/svg">
    <path fill-rule="evenodd" clip-rule="evenodd"
        d="M1.5 0H11.5C12.3284 0 13 0.671572 13 1.5V11.5C13 12.3284 12.3284 13 11.5 13H1.5C0.671574 13 0 12.3284 0 11.5V1.5C0 0.671574 0.671572 0 1.5 0ZM1.5 1C1.22386 1 1 1.22386 1 1.5V7.3636L2.6818 5.6818C2.76809 5.59551 2.88572 5.54797 3.00774 5.55007C3.12975 5.55216 3.24568 5.60372 3.32895 5.69293L6.87355 9.49005L9.6818 6.6818C9.85754 6.50607 10.1425 6.50607 10.3182 6.6818L12 8.3636V1.5C12 1.22386 11.7761 1 11.5 1H1.5ZM1 11.5V8.6364L2.98887 6.64753L6.5311 10.4421L7.94113 12H1.5C1.22386 12 1 11.7761 1 11.5ZM11.5 12H9.15503L7.48336 10.153L10 7.6364L12 9.6364V11.5C12 11.7761 11.7761 12 11.5 12ZM5.64922 4.5C5.64922 4.03013 6.03013 3.64922 6.5 3.64922C6.96987 3.64922 7.35078 4.03013 7.35078 4.5C7.35078 4.96987 6.96987 5.35078 6.5 5.35078C6.03013 5.35078 5.64922 4.96987 5.64922 4.5ZM6.5 2.74922C5.53307 2.74922 4.74922 3.53307 4.74922 4.5C4.74922 5.46693 5.53307 6.25078 6.5 6.25078C7.46693 6.25078 8.25078 5.46693 8.25078 4.5C8.25078 3.53307 7.46693 2.74922 6.5 2.74922Z"
        fill="white" />
</svg>