<svg width="16" height="16" viewBox="0 0 16 16" fill="none" xmlns="http://www.w3.org/2000/svg">
<path fill-rule="evenodd" clip-rule="evenodd" d="M2 0C0.895431 0 0 0.895431 0 2V14C0 15.1046 0.895431 16 2 16H14C15.1046 16 16 15.1046 16 14V2C16 0.895431 15.1046 0 14 0H2ZM8.84078 1.5199C8.74981 1.33796 8.60228 1.19043 8.42034 1.09946C7.95593 0.867256 7.39122 1.05549 7.15902 1.5199L2.09925 11.6394C2.03398 11.77 2 11.9139 2 12.0599C2 12.5791 2.42091 13 2.94013 13H13.0597C13.2056 13 13.3496 12.966 13.4801 12.9007C13.9445 12.6685 14.1327 12.1038 13.9005 11.6394L8.84078 1.5199ZM7.18463 10.2971C7.18463 9.88948 7.5335 9.56631 7.96685 9.56631C8.39284 9.56631 8.74539 9.88948 8.74539 10.2971C8.74539 10.7084 8.39284 11.0316 7.96685 11.0316C7.5335 11.0316 7.18463 10.7084 7.18463 10.2971ZM7.19564 5.58544H8.73805L8.60584 9.155H7.32785L7.19564 5.58544Z" fill="#FC8D59"/>
</svg>
