<svg width="18" height="19" viewBox="0 0 18 19" fill="none" xmlns="http://www.w3.org/2000/svg">
    <path d="M14.6064 3.5L15.3136 4.20711L4.70695 14.8137L3.99984 14.1066L14.6064 3.5Z" fill="#BCBCBC"/>
    <path d="M9.99023 11.1973L10.6973 10.4902L14.0567 13.8495L13.3496 14.5567L9.99023 11.1973Z" fill="#BCBCBC"/>
    <path d="M6 15.5C6 17.1569 4.65685 18.5 3 18.5C1.34315 18.5 0 17.1569 0 15.5C0 13.8431 1.34315 12.5 3 12.5C4.65685 12.5 6 13.8431 6 15.5Z" fill="#BCBCBC"/>
    <path d="M18 15.5C18 17.1569 16.6569 18.5 15 18.5C13.3431 18.5 12 17.1569 12 15.5C12 13.8431 13.3431 12.5 15 12.5C16.6569 12.5 18 13.8431 18 15.5Z" fill="#BCBCBC"/>
    <path d="M15 6.5C16.6569 6.5 18 5.15685 18 3.5C18 1.84315 16.6569 0.5 15 0.5C13.3431 0.5 12 1.84315 12 3.5C12 5.15685 13.3431 6.5 15 6.5Z" fill="#2B3136"/>
    <path d="M9 12.5C10.6569 12.5 12 11.1569 12 9.5C12 7.84315 10.6569 6.5 9 6.5C7.34315 6.5 6 7.84315 6 9.5C6 11.1569 7.34315 12.5 9 12.5Z" fill="#2B3136"/>
    <path fill-rule="evenodd" clip-rule="evenodd" d="M15 5.5C16.1046 5.5 17 4.60457 17 3.5C17 2.39543 16.1046 1.5 15 1.5C13.8954 1.5 13 2.39543 13 3.5C13 4.60457 13.8954 5.5 15 5.5ZM9 11.5C10.1046 11.5 11 10.6046 11 9.5C11 8.39543 10.1046 7.5 9 7.5C7.89543 7.5 7 8.39543 7 9.5C7 10.6046 7.89543 11.5 9 11.5ZM18 3.5C18 5.15685 16.6569 6.5 15 6.5C13.3431 6.5 12 5.15685 12 3.5C12 1.84315 13.3431 0.5 15 0.5C16.6569 0.5 18 1.84315 18 3.5ZM12 9.5C12 11.1569 10.6569 12.5 9 12.5C7.34315 12.5 6 11.1569 6 9.5C6 7.84315 7.34315 6.5 9 6.5C10.6569 6.5 12 7.84315 12 9.5Z" fill="#BCBCBC"/>
</svg>