<svg width="16" height="20" viewBox="0 0 16 20" fill="none" xmlns="http://www.w3.org/2000/svg">
<path d="M8.03347 8.36564L9.90519 0.878732C9.96084 0.656149 10.1608 0.5 10.3903 0.5H13.4999C13.776 0.5 13.9999 0.723858 13.9999 1V7.27003C13.9999 7.416 13.9361 7.55467 13.8253 7.64966L7.18467 13.3416C7.06802 13.4416 6.91187 13.4824 6.76122 13.4523L2.40182 12.5804C2.16811 12.5336 1.99988 12.3284 1.99988 12.0901V11.8385C1.99988 11.6341 2.12435 11.4502 2.31418 11.3743L6.90459 9.53812C6.96746 9.51297 7.02457 9.47531 7.07245 9.42743L7.90195 8.59793C7.96603 8.53385 8.01149 8.45356 8.03347 8.36564Z" fill="#BCBCBC"/>
<path d="M7.22755 0.42697L1.36995 0.580356C1.0939 0.587585 0.875977 0.817226 0.883206 1.09327L1.11255 9.85175C1.12181 10.2054 1.48529 10.4378 1.81017 10.2979L5.84302 8.56095C5.99047 8.49744 6.09846 8.36698 6.13331 8.21026L7.72872 1.03533C7.79932 0.717796 7.55272 0.418455 7.22755 0.42697Z" fill="#BCBCBC"/>
<path d="M13.8612 10.1275L9.19312 15.0484C9.09666 15.1501 9.04731 15.2876 9.05708 15.4274L9.32077 19.1982C9.34003 19.4737 9.57896 19.6814 9.85443 19.6621L14.8422 19.3134C15.1177 19.2941 15.3254 19.0552 15.3062 18.7797L14.7228 10.4367C14.6924 10.0027 14.1606 9.81182 13.8612 10.1275Z" fill="#BCBCBC"/>
<path d="M6.58406 14.4014L2.57723 13.6363C2.2673 13.5771 1.98072 13.8163 1.98347 14.1318L2.01742 18.0217C2.01983 18.2979 2.24563 18.5198 2.52176 18.5174L6.52161 18.4825C6.79774 18.48 7.01964 18.2542 7.01723 17.9781L6.99026 14.8881C6.98818 14.6498 6.81817 14.4461 6.58406 14.4014Z" fill="#BCBCBC"/>
</svg>
