<svg width="24" height="24" viewBox="0 0 24 24" fill="none" xmlns="http://www.w3.org/2000/svg">
    <rect width="24" height="24" rx="4" fill="#FC3D21"/>
    <path fill-rule="evenodd" clip-rule="evenodd" d="M8.52637 5.10028C8.52637 4.20191 9.25464 3.47363 10.153 3.47363C10.627 3.47363 11.0537 3.6764 11.351 3.99993C11.572 4.24044 11.8547 4.44811 12.1813 4.44811C12.5055 4.44811 12.801 4.63793 12.9251 4.93745C13.391 6.06203 13.7483 7.23427 13.9853 8.44383C14.048 8.76364 14.3246 9 14.6505 9C15.0179 9 15.3158 9.29787 15.3158 9.6653V14.0428C15.3158 14.397 15.0286 14.6842 14.6744 14.6842C14.357 14.6842 14.0886 14.9166 14.0319 15.2288C13.7943 16.5361 13.4166 17.8009 12.9131 19.0104C12.7959 19.292 12.518 19.4707 12.2129 19.4707C11.8903 19.4707 11.6144 19.6839 11.4094 19.9329C11.111 20.2952 10.659 20.5263 10.153 20.5263C9.25464 20.5263 8.52637 19.798 8.52637 18.8996V5.10028Z" fill="#F8F8F8"/>
</svg>
