<svg width="16" height="16" viewBox="0 0 16 16" fill="none" xmlns="http://www.w3.org/2000/svg">
    <g opacity="0.5">
        <path d="M13 7.00009L3 7.00009L3 6.00009L13 6.00009L13 7.00009Z" fill="white" />
        <path d="M13 10.0001L3 10.0001L3 9.00009L13 9.00009L13 10.0001Z" fill="white" />
        <path
            d="M0.999999 4.00009L15 4.00009L16 4.00009L16 2.00009C16 0.895525 15.1046 9.41937e-05 14 9.40006e-05L2 9.28561e-05C0.895431 9.2663e-05 -1.56562e-07 0.895523 -3.49691e-07 2.00009L-6.99382e-07 4.00009L0.999999 4.00009Z"
            fill="white" />
        <path d="M3.00007 13L8.00007 13.0001L8.00007 12.0001L3.00007 12.0001L3.00007 13Z" fill="white" />
        <path
            d="M1.00007 14.0001L0.999999 4.00009L-6.99382e-07 4.00009L7.06354e-05 14.0001C7.04423e-05 15.1046 0.8955 16 2.00007 16L14.0001 16.0001C15.1046 16.0001 16.0001 15.1046 16.0001 14.0001L16 4.00009L15 4.00009L15.0001 14.0001C15.0001 14.5523 14.5524 15.0001 14.0001 15.0001L2.00007 15.0001C1.44779 15.0001 1.00007 14.5523 1.00007 14.0001Z"
            fill="white" />
    </g>
</svg>