<svg width="19" height="10" viewBox="0 0 19 10" fill="none" xmlns="http://www.w3.org/2000/svg">
<path d="M4.58992 1.00195H0.998125V9H3.2657V6.28125H4.0157L5.31648 9H7.86531L6.28914 5.98242C6.78719 5.76562 7.69539 5.01562 7.69539 3.7207C7.69539 2.08594 6.62898 1.00195 4.58992 1.00195ZM3.2657 4.7168V2.67773H4.23836C4.80672 2.67773 5.31063 3.02344 5.31063 3.71484C5.31063 4.39453 4.83016 4.7168 4.2325 4.7168H3.2657ZM15.7246 5.42578V4.59961C15.7246 2.34375 14.4121 0.867188 12.0098 0.867188C9.61914 0.867188 8.28906 2.32617 8.28906 4.59961V5.42578C8.28906 7.67578 9.61914 9.14062 12.0098 9.14062C14.4121 9.14062 15.7246 7.67578 15.7246 5.42578ZM13.3574 4.57031V5.4375C13.3574 6.65625 12.8359 7.28906 12.0098 7.28906C11.1836 7.28906 10.6621 6.65625 10.6621 5.4375V4.57031C10.6621 3.35742 11.1836 2.71289 12.0098 2.71289C12.8359 2.71289 13.3574 3.35742 13.3574 4.57031ZM18.996 9V1.00195H16.6816V9H18.996Z" fill="#BCBCBC"/>
</svg>
