<svg width="24" height="19" viewBox="0 0 24 19" fill="none" xmlns="http://www.w3.org/2000/svg">
<path d="M0 2L1.78936 2.89468C1.92276 2.96138 2.01942 3.08414 2.05295 3.22947L3.5 9.5L6 6.5L6.39295 6.10705C6.46275 6.03725 6.55165 5.98967 6.64845 5.97031L8.76625 5.54675C8.89711 5.52058 9.02545 5.6018 9.05782 5.73126L10.5 11.5L13.4088 2.77346C13.457 2.62913 13.6217 2.56087 13.7578 2.62891L15.3047 3.40237C15.4292 3.46462 15.5222 3.57595 15.5611 3.70958L19 15.5L21.8444 1.27796C21.9166 0.917241 22.3404 0.755302 22.6347 0.976023L24 2V15C24 17.2091 22.2091 19 20 19H4C1.79086 19 0 17.2091 0 15V2Z" fill="#BCBCBC"/>
</svg>
