<svg width="16" height="16" viewBox="0 0 16 16" fill="none" xmlns="http://www.w3.org/2000/svg">
    <g clip-path="url(#clip0_422_76194)">
        <path fill-rule="evenodd" clip-rule="evenodd"
            d="M1.55296 8.93172C1.76425 9.51575 2.11423 10.0207 2.57056 10.4373C2.41993 10.707 2.33403 11.0182 2.33403 11.3496C2.33403 11.8033 2.49499 12.2191 2.76259 12.5424L1.49525 14.0619C1.27586 14.325 1.30996 14.7172 1.57143 14.9379C1.83289 15.1586 2.22271 15.1243 2.4421 14.8613L3.84225 13.1825C3.95428 13.2038 4.06988 13.2149 4.18807 13.2149C5.06317 13.2149 5.79666 12.6049 5.99143 11.7846C7.15168 11.8761 8.42652 11.7081 9.6909 11.2451C13.2515 9.9413 15.3808 6.79168 14.4469 4.21023C13.513 1.62878 9.86949 0.59304 6.30894 1.89684C2.74838 3.20064 0.619056 6.35026 1.55296 8.93172ZM12.7323 7.50743C13.4328 6.4713 13.5821 5.45556 13.2854 4.63554C12.9887 3.81553 12.2254 3.13397 11.0268 2.79324C9.83032 2.45311 8.29552 2.49273 6.73168 3.06537C5.16785 3.63802 3.9668 4.60021 3.26755 5.63452C2.56707 6.67065 2.41778 7.68639 2.71444 8.5064C2.86357 8.91862 3.13062 9.29584 3.51161 9.61237C3.72119 9.52971 3.94936 9.48432 4.18807 9.48432C4.91635 9.48432 5.54656 9.90678 5.84979 10.5214C6.87803 10.6423 8.06449 10.5173 9.26815 10.0766C10.832 9.50393 12.033 8.54174 12.7323 7.50743Z"
            fill="#BCBCBC" />
    </g>
    <defs>
        <clipPath id="clip0_422_76194">
            <rect width="16" height="16" fill="white" />
        </clipPath>
    </defs>
</svg>