<svg width="6" height="8" viewBox="0 0 6 8" fill="none" xmlns="http://www.w3.org/2000/svg">
<path fill-rule="evenodd" clip-rule="evenodd" d="M3 7.66671C3 7.66671 6 5.66671 6 3.33337C6 2.53772 5.68393 1.77466 5.12132 1.21205C4.55871 0.649444 3.79565 0.333374 3 0.333374C2.20435 0.333374 1.44129 0.649444 0.87868 1.21205C0.31607 1.77466 0 2.53772 0 3.33337C0 5.66671 3 7.66671 3 7.66671ZM4.5 3.33337C4.5 4.1618 3.82843 4.83337 3 4.83337C2.17158 4.83337 1.5 4.1618 1.5 3.33337C1.5 2.50495 2.17158 1.83337 3 1.83337C3.82843 1.83337 4.5 2.50495 4.5 3.33337Z" fill="white"/>
</svg>
