<svg width="8" height="8" viewBox="0 0 8 8" fill="none" xmlns="http://www.w3.org/2000/svg">
<path d="M3.86795 5.42864C4.66241 5.42864 5.30645 4.7846 5.30645 3.99014C5.30645 3.19568 4.66241 2.55164 3.86795 2.55164C3.07348 2.55164 2.42944 3.19568 2.42944 3.99014C2.42944 4.7846 3.07348 5.42864 3.86795 5.42864Z" fill="white"/>
<path d="M3.89999 2.1127C4.07654 2.1127 4.21966 1.96958 4.21966 1.79304V0.569668C4.21966 0.39312 4.07654 0.25 3.89999 0.25C3.72344 0.25 3.58032 0.39312 3.58032 0.569668V1.79304C3.58032 1.96958 3.72344 2.1127 3.89999 2.1127Z" fill="white"/>
<path d="M3.89999 5.87616C3.72344 5.87616 3.58032 6.01928 3.58032 6.19583V7.41856C3.58032 7.5951 3.72344 7.73822 3.89999 7.73822C4.07654 7.73822 4.21966 7.5951 4.21966 7.41856V6.19583C4.21966 6.01928 4.07654 5.87616 3.89999 5.87616Z" fill="white"/>
<path d="M1.98087 2.68432C2.10696 2.80603 2.30679 2.80603 2.43288 2.68432C2.55767 2.55949 2.55767 2.35714 2.43288 2.23231L1.56978 1.36697C1.44487 1.2418 1.24214 1.24158 1.11697 1.36649C0.991797 1.4914 0.991582 1.69413 1.11649 1.8193L1.98087 2.68432Z" fill="white"/>
<path d="M5.65637 5.45442C5.53094 5.33327 5.33156 5.33501 5.20825 5.45831C5.08495 5.58162 5.08321 5.781 5.20436 5.90643L6.06938 6.77177C6.1954 6.89365 6.39537 6.89365 6.52139 6.77177C6.64618 6.64694 6.64618 6.44459 6.52139 6.31976L5.65637 5.45442Z" fill="white"/>
<path d="M1.86238 4.14993C1.86238 3.97338 1.71926 3.83026 1.54272 3.83026H0.319668C0.14312 3.83026 0 3.97338 0 4.14993C0 4.32648 0.14312 4.4696 0.319668 4.4696H1.54272C1.71926 4.4696 1.86238 4.32648 1.86238 4.14993Z" fill="white"/>
<path d="M7.68029 3.83026H6.45724C6.28069 3.83026 6.13757 3.97338 6.13757 4.14993C6.13757 4.32648 6.28069 4.4696 6.45724 4.4696H7.68029C7.85684 4.4696 7.99996 4.32648 7.99996 4.14993C7.99996 3.97338 7.85684 3.83026 7.68029 3.83026Z" fill="white"/>
<path d="M1.97965 5.4541L1.11654 6.31944C0.991751 6.44427 0.991751 6.64662 1.11654 6.77145C1.24257 6.89333 1.44253 6.89333 1.56855 6.77145L2.43166 5.90643C2.5528 5.781 2.55107 5.58162 2.42776 5.45831C2.30446 5.33501 2.10508 5.33295 1.97965 5.4541Z" fill="white"/>
<path d="M5.43472 2.77561C5.51922 2.7761 5.60048 2.74312 5.66073 2.68387L6.52575 1.81885C6.65065 1.69403 6.65073 1.49158 6.52591 1.36668C6.40109 1.24177 6.19864 1.2417 6.07374 1.36652L5.20872 2.23186C5.11694 2.3228 5.08938 2.46027 5.13899 2.57957C5.18861 2.69886 5.30552 2.77656 5.43472 2.77561Z" fill="white"/>
</svg>
