<svg width="16" height="16" viewBox="0 0 16 16" fill="none" xmlns="http://www.w3.org/2000/svg">
<path fill-rule="evenodd" clip-rule="evenodd" d="M6.11371 9.6143L7.84698 15.2266C7.91955 15.4615 8.25215 15.4615 8.32472 15.2266L10.058 9.61431C9.44924 9.86304 8.78241 10 8.08585 10C7.38929 10 6.72246 9.86304 6.11371 9.6143ZM5.69444 8.25672L5.09747 6.32377C5.0478 6.16296 5.16803 6 5.33634 6H10.8354C11.0037 6 11.1239 6.16296 11.0742 6.32377L10.4773 8.25673C9.80312 8.72466 8.97759 9 8.08585 9C7.19411 9 6.36858 8.72466 5.69444 8.25672Z" fill="white"/>
<circle cx="8" cy="5" r="4" fill="white"/>
</svg>
