<svg width="14" height="10" viewBox="0 0 14 10" fill="none" xmlns="http://www.w3.org/2000/svg">
<path fill-rule="evenodd" clip-rule="evenodd" d="M1 0C0.447715 0 0 0.447715 0 1V9C0 9.55229 0.447716 10 1 10H13C13.5523 10 14 9.55228 14 9V2C14 0.895431 13.1046 0 12 0H1ZM7 9C9.20914 9 11 7.20914 11 5C11 2.79086 9.20914 1 7 1C4.79086 1 3 2.79086 3 5C3 7.20914 4.79086 9 7 9Z" fill="#BCBCBC"/>
<path fill-rule="evenodd" clip-rule="evenodd" d="M7.33333 3.33333C6.22876 3.33333 5.33333 4.22876 5.33333 5.33333C5.33333 5.70152 5.03486 6 4.66667 6C4.29848 6 4 5.70152 4 5.33333C4 3.49238 5.49238 2 7.33333 2C7.70152 2 8 2.29848 8 2.66667C8 3.03486 7.70152 3.33333 7.33333 3.33333Z" fill="#BCBCBC"/>
</svg>
