<svg width="15" height="15" viewBox="0 0 15 15" fill="none" xmlns="http://www.w3.org/2000/svg">
    <path d="M9.42466 9.36993C9.01682 9.60811 8.54231 9.74555 8.03577 9.74555C7.53332 9.74555 7.06235 9.61016 6.65674 9.3757L4.02663 13.9307C5.20621 14.6108 6.57462 15 8.03372 15C9.49822 15 10.8713 14.6076 12.0537 13.923L9.42466 9.36993Z" fill="#F8F8F8"/>
    <path d="M6.66662 4.57974L4.01882 0C1.61647 1.3889 0 3.97599 0 6.95044C0 6.95733 0.000186215 6.96161 0.000186215 6.96161H5.27735C5.27735 5.84424 5.83679 5.05556 6.66662 4.57974Z" fill="#F8F8F8"/>
    <path d="M12.0617 0.0137762L9.41499 4.58551C10.2392 5.06263 10.7944 5.84423 10.7944 6.9616H16.0671C16.0671 6.9616 16.0675 6.9603 16.0675 6.95341C16.0675 3.98474 14.4568 1.40453 12.0617 0.0137762Z" fill="#F8F8F8"/>
    <path d="M8.03579 8.3749C8.80244 8.3749 9.42394 7.7534 9.42394 6.98675C9.42394 6.22009 8.80244 5.5986 8.03579 5.5986C7.26913 5.5986 6.64763 6.22009 6.64763 6.98675C6.64763 7.7534 7.26913 8.3749 8.03579 8.3749Z" fill="#F8F8F8"/>
</svg>