<svg width="13" height="12" viewBox="0 0 13 12" fill="none" xmlns="http://www.w3.org/2000/svg">
    <path fill-rule="evenodd" clip-rule="evenodd" d="M5.15385 0C4.60156 0 4.15385 0.447715 4.15385 1V4.15385H1C0.447715 4.15385 0 4.60156 0 5.15385V6.84615C0 7.39844 0.447717 7.84615 1 7.84615H4.15385V11C4.15385 11.5523 4.60156 12 5.15385 12H6.84615C7.39844 12 7.84615 11.5523 7.84615 11V7.84615H11.1846C11.7369 7.84615 12.1846 7.39844 12.1846 6.84615V5.15385C12.1846 4.60156 11.7369 4.15385 11.1846 4.15385H7.84615V1C7.84615 0.447715 7.39844 0 6.84615 0H5.15385Z" fill="#D9D9D9"/>
</svg>