<svg width="156" height="44" viewBox="0 0 156 44" fill="none" xmlns="http://www.w3.org/2000/svg">
<path d="M17.8356 0.890625C17.8356 0.98236 17.8316 1.07605 17.8316 1.16778C17.8316 15.25 17.8316 29.3323 17.8316 43.4125V43.7151C17.494 43.6272 17.1719 43.5531 16.8538 43.4613C13.9612 42.6279 11.3302 41.2792 8.95681 39.425C7.81696 38.533 6.76494 37.5474 5.81051 36.4622C3.55618 33.8995 1.89129 31.001 0.901732 27.7279C0.60701 26.7559 0.382553 25.7683 0.236168 24.7611C0.144433 24.1268 0.0624576 23.4925 0.0429396 22.8503C0.0253734 22.2609 0.0078072 21.6734 0.0058554 21.084C0.0039036 15.9136 0.0058554 10.7433 0 5.57299C0 5.39538 0.0566022 5.30755 0.208843 5.22362C2.39681 4.0057 4.70774 3.09226 7.11236 2.40522C8.34199 2.0539 9.58529 1.76503 10.8442 1.54253C11.5898 1.41176 12.3432 1.30636 13.0946 1.21267C13.7699 1.12874 14.4472 1.07019 15.1245 1.01359C15.6242 0.972601 16.1277 0.956986 16.6293 0.925757C16.7133 0.919902 16.7972 0.902336 16.8811 0.890625C17.1993 0.890625 17.5174 0.890625 17.8336 0.890625H17.8356ZM11.0179 20.0554C11.8689 19.4191 12.7238 18.8042 13.565 18.1719L13.5455 18.1328H10.4011C10.0713 17.1159 9.74339 16.1108 9.41744 15.1036C9.40573 15.1036 9.39401 15.1075 9.3823 15.1095C9.05635 16.1166 8.7304 17.1257 8.3986 18.1465H5.26205C5.25815 18.1602 5.25229 18.1719 5.24839 18.1855C6.09547 18.8101 6.94255 19.4366 7.78573 20.0573C7.45588 21.084 7.13578 22.0852 6.81374 23.0865C6.8274 23.0943 6.84301 23.1041 6.85667 23.1119C7.7018 22.4912 8.54693 21.8686 9.39987 21.242C10.2587 21.8725 11.1136 22.499 11.9684 23.1275L11.9977 23.106C11.6718 22.0911 11.3458 21.0761 11.0179 20.0554Z" fill="#9C9C9C"/>
<path d="M19.2655 0.890625C19.4353 0.904288 19.6052 0.921854 19.7769 0.931613C19.9018 0.937468 20.0267 0.931613 20.1634 0.931613C20.1946 1.20291 20.2258 1.45665 20.2531 1.71233C20.3176 2.29007 20.38 2.86975 20.4405 3.44748C20.4991 3.99984 20.5537 4.5522 20.6142 5.10456C20.6728 5.65692 20.7372 6.20928 20.7957 6.75969C20.8543 7.30619 20.9109 7.85075 20.9695 8.39725C21.03 8.95546 21.0905 9.51368 21.151 10.0738C21.1959 10.4954 21.2408 10.9151 21.2857 11.3367C21.3462 11.9027 21.4086 12.4668 21.4691 13.0328C21.514 13.4544 21.5589 13.874 21.6038 14.2956C21.6643 14.8616 21.7268 15.4257 21.7873 15.9917C21.8322 16.4055 21.8751 16.8193 21.92 17.235C21.9824 17.8069 22.0449 18.3788 22.1054 18.9506C22.164 19.4971 22.2206 20.0417 22.2791 20.5882C22.3396 21.1464 22.4001 21.7046 22.4606 22.2648C22.5075 22.6922 22.5504 23.1197 22.5973 23.5471C22.6578 24.1053 22.7202 24.6636 22.7788 25.2237C22.8237 25.6453 22.8686 26.0649 22.9135 26.4865C22.974 27.0526 23.0364 27.6166 23.0969 28.1827C23.1418 28.5964 23.1848 29.0102 23.2296 29.4259C23.2921 29.9978 23.3526 30.5697 23.4151 31.1416C23.4736 31.6803 23.5302 32.219 23.5888 32.7596C23.6512 33.3315 23.7137 33.9034 23.7742 34.4753C23.8328 35.0218 23.8874 35.5663 23.946 36.1128C24.0065 36.671 24.0689 37.2292 24.1294 37.7894C24.188 38.3281 24.2446 38.8668 24.3031 39.4075C24.3519 39.8544 24.3968 40.3014 24.4495 40.7483C24.4768 40.9806 24.4827 40.9806 24.2895 41.0977C23.54 41.5447 22.7729 41.9526 21.9746 42.3059C21.9161 42.3332 21.8556 42.3586 21.7736 42.3937C21.7599 42.2805 21.7443 42.1849 21.7365 42.0873C21.7053 41.572 21.678 41.0567 21.6448 40.5415C21.5979 39.8017 21.5472 39.062 21.4984 38.3223C21.4672 37.8402 21.4398 37.3581 21.4086 36.876C21.3735 36.308 21.3364 35.74 21.2993 35.1721C21.2681 34.69 21.2408 34.2079 21.2095 33.7258C21.1744 33.1578 21.1373 32.5898 21.1002 32.0218C21.069 31.5202 21.0397 31.0186 21.0085 30.5151C20.9734 29.9666 20.9363 29.4181 20.9011 28.8716C20.8699 28.3895 20.8406 27.9074 20.8114 27.4254C20.7743 26.8515 20.7372 26.2757 20.7021 25.7019C20.6708 25.214 20.6435 24.7241 20.6123 24.2361C20.5771 23.674 20.5401 23.1138 20.5049 22.5517C20.4737 22.056 20.4464 21.5602 20.4151 21.0664C20.38 20.5121 20.3429 19.9578 20.3078 19.4015C20.2766 18.9136 20.2473 18.4237 20.2161 17.9357C20.1809 17.3677 20.1438 16.7998 20.1068 16.2318C20.0755 15.7497 20.0482 15.2676 20.017 14.7855C19.9818 14.2175 19.9448 13.6495 19.9077 13.0816C19.8765 12.5858 19.8472 12.0901 19.8159 11.5963C19.7808 11.0419 19.7437 10.4876 19.7086 9.93137C19.6774 9.44927 19.6481 8.96718 19.6188 8.48508C19.57 7.69851 19.5173 6.91388 19.4685 6.12731C19.4373 5.62569 19.41 5.12408 19.3787 4.62052C19.3436 4.07206 19.3065 3.5236 19.2714 2.9771C19.2402 2.49501 19.2128 2.01291 19.1816 1.53082C19.1679 1.32002 19.1523 1.10923 19.1367 0.898432C19.1758 0.898432 19.2167 0.898432 19.2558 0.898432L19.2655 0.890625Z" fill="#9C9C9C"/>
<path d="M35.6709 17.5775C35.4581 17.1383 35.2434 16.6992 35.0365 16.2581C32.8642 11.6596 30.6918 7.05924 28.5195 2.46079C28.4921 2.40224 28.4648 2.34173 28.4219 2.25C30.9924 2.97217 33.4146 3.96173 35.6728 5.3397V17.5755L35.6709 17.5775Z" fill="#9C9C9C"/>
<path d="M21.4629 1.03125C21.7479 1.05272 22.0055 1.07809 22.2612 1.0898C22.3802 1.09566 22.4173 1.15226 22.4388 1.25571C22.5442 1.76708 22.6515 2.2765 22.7608 2.78787C23.0868 4.31223 23.4127 5.83463 23.7367 7.35899C24.0744 8.9419 24.4082 10.5229 24.7439 12.1058C25.0932 13.7531 25.4446 15.3985 25.7959 17.0458C26.1199 18.5701 26.4439 20.0945 26.7679 21.6169C27.0919 23.1412 27.4159 24.6656 27.7418 26.19C28.0795 27.7787 28.4172 29.3675 28.7548 30.9563C29.0925 32.545 29.4321 34.1338 29.7717 35.7225C29.8068 35.8845 29.8244 36.0505 29.8752 36.2066C29.92 36.3471 29.8869 36.4428 29.7873 36.5423C29.356 36.9815 28.9344 37.4304 28.5011 37.8676C28.2786 38.092 28.0385 38.3009 27.7731 38.5488C25.6671 26.026 23.5669 13.5403 21.4629 1.03125Z" fill="#9C9C9C"/>
<path d="M23.707 1.27344C24.0427 1.32418 24.3414 1.36712 24.6576 1.41397C24.7239 1.61695 24.7942 1.82189 24.8586 2.02878C27.1207 9.1997 29.3829 16.3687 31.6431 23.5396C32.3418 25.7549 33.0386 27.9721 33.7393 30.1874C33.7705 30.285 33.7861 30.3728 33.7412 30.4724C33.3489 31.339 32.9059 32.1802 32.4121 32.9921C32.4023 33.0078 32.3867 33.0195 32.3555 33.0527C29.4746 22.4622 26.5976 11.8893 23.709 1.27344H23.707Z" fill="#9C9C9C"/>
<path d="M35.1422 26.167C32.1013 18.0182 29.0585 9.8714 26.0039 1.6875C26.1034 1.70311 26.1757 1.71287 26.2479 1.72849C26.4353 1.76752 26.6207 1.82022 26.808 1.84364C26.9544 1.86121 27.0227 1.93538 27.0754 2.0642C27.5985 3.33482 28.1275 4.60154 28.6545 5.87021C30.9556 11.4055 33.2568 16.9428 35.5619 22.4781C35.6595 22.7123 35.6263 22.9465 35.6107 23.1807C35.5853 23.5301 35.5463 23.8775 35.5053 24.2249C35.4291 24.8768 35.3179 25.5229 35.1442 26.1689L35.1422 26.167Z" fill="#9C9C9C"/>
<path d="M110.114 10.7903C110.573 10.9387 111.047 11.0499 111.485 11.2431C112.915 11.8755 113.733 12.9295 113.772 14.5495C113.813 16.2671 113.066 17.4811 111.541 18.2325C110.513 18.74 109.398 18.9098 108.27 18.9235C105.817 18.9489 103.361 18.9352 100.908 18.9293C100.291 18.9293 100.227 18.8669 100.205 18.3867C100.18 17.8637 100.262 17.7739 100.808 17.7504C101.089 17.7387 101.372 17.7641 101.651 17.7368C102.192 17.686 102.368 17.5084 102.426 16.9736C102.452 16.7472 102.444 16.515 102.444 16.2866C102.444 12.8182 102.444 9.35185 102.444 5.8835C102.444 5.70589 102.452 5.52437 102.432 5.34871C102.362 4.77293 102.177 4.59141 101.603 4.55433C101.296 4.53481 100.99 4.54652 100.683 4.55433C100.297 4.56408 100.209 4.32401 100.209 4.00977C100.209 3.68773 100.231 3.37739 100.678 3.38129C101.164 3.3852 101.65 3.3852 102.136 3.3852C104.181 3.3852 106.227 3.35397 108.27 3.40081C109.051 3.41838 109.855 3.53353 110.602 3.75604C112.125 4.21081 112.915 5.36627 112.991 6.94723C113.081 8.85024 112.037 9.79881 110.809 10.3785C110.567 10.4917 110.306 10.5639 110.054 10.6537C110.075 10.6986 110.097 10.7435 110.118 10.7884L110.114 10.7903ZM104.884 11.4169C104.884 13.4116 104.878 15.2697 104.888 17.1259C104.89 17.5318 105.18 17.7329 105.547 17.727C106.695 17.7075 107.852 17.7348 108.986 17.5884C110.126 17.4421 110.792 16.6789 110.958 15.5469C111.028 15.0726 111.042 14.5788 111.003 14.0986C110.897 12.7812 110.228 12.0083 108.945 11.6511C107.642 11.288 106.316 11.4481 104.882 11.4169H104.884ZM104.882 10.3317C106.182 10.2848 107.355 10.4351 108.51 10.1365C109.488 9.88274 110.173 9.33233 110.275 8.28422C110.335 7.66159 110.331 7.0214 110.257 6.39878C110.132 5.34676 109.427 4.76122 108.434 4.62069C107.53 4.49187 106.605 4.48601 105.688 4.48992C105.069 4.49382 104.888 4.72413 104.88 5.35261C104.868 6.3207 104.878 7.28685 104.878 8.25494C104.878 8.91074 104.878 9.56655 104.878 10.3317H104.882Z" fill="#9C9C9C"/>
<path d="M46.4665 17.824C46.2382 18.1929 46.0371 18.5149 45.84 18.8428C45.6526 19.1532 45.3696 19.2273 45.0456 19.1454C44.7021 19.0575 44.7763 18.7589 44.7763 18.513C44.7743 16.6822 44.7763 14.8494 44.7763 13.003C45.5394 12.7513 45.6097 12.8215 45.8498 13.5769C46.0937 14.3498 46.3455 15.1422 46.7398 15.8429C47.8914 17.8845 50.3018 18.7218 52.4976 17.9079C54.3479 17.2209 54.6114 15.3062 54.0649 14.0551C53.7058 13.2373 52.9348 12.9133 52.1326 12.679C50.7371 12.2672 49.3376 11.869 47.9421 11.4572C47.6981 11.385 47.4639 11.2776 47.2297 11.1742C45.2135 10.2744 44.5811 8.71103 44.8953 6.60503C45.1959 4.58297 46.7242 3.24403 48.754 3.07032C50.3701 2.93174 51.8555 3.24013 53.1475 4.27263C53.2041 4.31752 53.2861 4.33314 53.3779 4.37022C53.9478 4.0716 53.9654 2.84586 55.0662 3.35333C55.0876 3.4275 55.1364 3.52119 55.1403 3.61487C55.2106 5.19388 55.275 6.77094 55.3433 8.34994C55.355 8.59587 55.3511 8.83204 55.0408 8.86912C54.7656 8.9023 54.4572 8.95695 54.3245 8.60563C54.1879 8.24845 54.1039 7.86785 53.9302 7.53019C53.6179 6.92122 53.3252 6.28299 52.9055 5.75014C51.7832 4.32728 49.7983 3.78078 48.1353 4.35851C47.1633 4.69617 46.6207 5.43395 46.5661 6.49183C46.5114 7.54385 46.9096 8.25626 47.9031 8.66613C48.6077 8.955 49.3552 9.14433 50.091 9.35512C51.0474 9.62837 52.0292 9.82941 52.9699 10.1495C56.0245 11.1898 57.1351 15.0095 55.1403 17.5566C54.3928 18.511 53.3564 18.9834 52.1834 19.1668C50.2101 19.4772 48.3578 19.2234 46.7456 17.9333C46.689 17.8884 46.6071 17.8767 46.4685 17.824H46.4665Z" fill="#9C9C9C"/>
<path d="M53.733 23.6226V22.6467C54.0082 22.6291 54.2327 22.6037 54.4552 22.6018C55.9132 22.5979 57.3712 22.5998 58.8292 22.5979C59.6236 22.5979 59.6646 22.6506 59.4909 23.5835C59.2644 23.5952 59.0185 23.6109 58.7706 23.6206C57.7342 23.6557 57.2697 24.0929 57.2482 25.1274C57.2248 26.3004 57.2502 27.4754 57.2404 28.6485C57.2248 30.2548 57.2521 31.865 57.1506 33.4655C57.0999 34.2638 56.8911 35.0796 56.6041 35.8311C56.1552 37.0041 55.1949 37.7009 54.0063 38.0249C52.4039 38.4621 50.7683 38.5011 49.1483 38.1244C46.7476 37.5643 45.5062 35.9892 45.4925 33.5143C45.4789 30.7583 45.4906 28.0044 45.4906 25.2484C45.4906 25.1215 45.4945 24.9927 45.4906 24.8659C45.473 23.8802 45.2388 23.6401 44.2688 23.6206C43.9155 23.6148 43.5622 23.6206 43.1445 23.6206V22.754C43.6715 22.5803 48.9843 22.5178 49.9993 22.6798V23.6226C49.6245 23.6226 49.2751 23.6128 48.9277 23.6226C48.0592 23.6499 47.8113 23.8763 47.8093 24.7175C47.7996 27.6257 47.7918 30.5339 47.8171 33.4421C47.821 33.9671 47.9303 34.5117 48.0962 35.0113C48.4046 35.9365 49.0604 36.5591 50.0051 36.8519C51.2074 37.2247 52.4214 37.2598 53.6374 36.9358C55.0544 36.5591 55.9015 35.5695 56.0654 34.1233C56.1103 33.7192 56.1318 33.3093 56.1318 32.9014C56.1377 30.4773 56.1357 28.0532 56.1338 25.631C56.1338 25.428 56.1377 25.2211 56.1181 25.0201C56.0284 24.0363 55.6419 23.6675 54.6504 23.6206C54.3732 23.6069 54.0961 23.6187 53.7311 23.6187L53.733 23.6226Z" fill="#9C9C9C"/>
<path d="M154.127 8.95691V9.83131C152.144 9.79423 151.083 11.2717 149.75 12.3999C149.861 12.5951 149.929 12.7551 150.031 12.8898C150.993 14.178 151.967 15.4584 152.921 16.7524C153.335 17.3126 153.843 17.6873 154.545 17.8064C154.75 17.8415 155.014 17.9528 155.111 18.1148C155.359 18.5266 155.103 18.9208 154.6 18.9248C153.066 18.9384 151.53 18.9248 149.996 18.9326C149.656 18.9326 149.463 18.8174 149.451 18.4544C149.439 18.0894 149.576 17.8708 149.96 17.8337C150.234 17.8064 150.507 17.7595 150.776 17.7205C150.718 17.1545 149.012 14.7089 148.112 13.8754C147.78 14.1702 147.427 14.4551 147.111 14.7791C147.001 14.8923 146.943 15.0953 146.939 15.2612C146.919 15.8468 146.921 16.4343 146.939 17.0217C146.959 17.6249 147.054 17.7166 147.646 17.8025C147.944 17.8454 148.243 17.8825 148.579 17.9293V18.8877H143.254C143.236 18.5812 143.221 18.2963 143.201 17.9332C143.615 17.8825 143.963 17.8298 144.312 17.7966C144.718 17.7595 144.899 17.5331 144.909 17.1428C144.913 17.0159 144.909 16.8871 144.909 16.7602C144.909 12.9854 144.909 9.20869 144.909 5.43391C144.909 5.28167 144.919 5.12552 144.901 4.97523C144.845 4.47948 144.671 4.29796 144.183 4.2394C143.955 4.21208 143.722 4.22964 143.494 4.21598C143.236 4.20232 143.049 4.10863 143.057 3.80415C143.063 3.52504 143.121 3.28302 143.455 3.25765C144.57 3.17567 145.684 3.1015 146.925 3.01562C146.951 4.22769 146.933 5.34022 146.937 6.45275C146.941 7.6004 146.937 8.74806 146.937 9.89767C146.937 11.0473 146.937 12.1344 146.937 13.2743C147.548 13.042 150.079 10.6764 150.327 10.126C149.988 9.74153 149.525 9.92109 149.115 9.87815C148.705 9.83522 148.557 9.65565 148.616 9.28871C148.662 8.99789 148.86 8.92373 149.111 8.92177C149.597 8.91982 150.083 8.92177 150.569 8.92177C151.491 8.92177 152.412 8.91787 153.331 8.92177C153.579 8.92177 153.829 8.94519 154.124 8.95886L154.127 8.95691Z" fill="#9C9C9C"/>
<path d="M74.4141 17.9167C74.7108 17.8796 75.0348 17.8386 75.3588 17.7976C75.7198 17.7508 75.8897 17.5615 75.8877 17.1828C75.8799 14.989 75.8877 12.7952 75.876 10.6013C75.8721 10.0939 75.6945 9.93383 75.1753 9.88308C74.9723 9.86356 74.7654 9.86942 74.5624 9.87918C74.2053 9.89479 74.0472 9.73279 74.055 9.37757C74.0628 9.03015 74.2248 8.88962 74.5741 8.86815C75.4915 8.81545 76.4088 8.74518 77.3242 8.6593C77.7322 8.62222 77.8883 8.78812 77.8785 9.17653C77.8688 9.52005 77.8785 9.86552 77.8785 10.3964C78.1928 10.0919 78.3645 9.92212 78.5382 9.75426C79.6918 8.64954 81.3898 8.33726 82.801 8.95012C83.8179 9.39123 84.3507 10.1993 84.4776 11.2474C84.581 12.1042 84.5635 12.9767 84.5771 13.8433C84.5908 14.8387 84.5771 15.8322 84.5791 16.8276C84.5791 17.6922 84.5908 17.7039 85.4515 17.825C86.2381 17.9362 86.2771 17.9967 86.08 18.8809C85.8536 18.8965 85.6038 18.9297 85.3559 18.9316C84.1282 18.9375 82.9005 18.9375 81.6728 18.9316C80.8219 18.9297 80.7731 18.8594 80.9897 17.9265C81.2669 17.8894 81.5655 17.8289 81.8661 17.8113C82.3033 17.784 82.5199 17.5712 82.5199 17.134C82.5141 15.3735 82.5375 13.613 82.4965 11.8544C82.4594 10.3125 81.1185 9.83429 79.6898 10.2578C78.8271 10.5135 78.3645 11.1908 78.1655 12.0301C78.0542 12.4965 77.9956 12.9864 77.9839 13.4666C77.9586 14.5889 77.9761 15.7112 77.9761 16.8334C77.9761 17.702 77.9839 17.7098 78.8447 17.825C79.5102 17.9128 79.6117 18.0026 79.602 18.4437C79.5942 18.7521 79.4575 18.9277 79.1414 18.9277C77.658 18.9297 76.1746 18.9433 74.6913 18.9199C74.2599 18.9141 74.2131 18.7111 74.4121 17.9167H74.4141Z" fill="#9C9C9C"/>
<path d="M61.9935 27.8617V29.5754C62.0403 29.5851 62.0872 29.5949 62.134 29.6046C62.2804 29.4426 62.4268 29.2787 62.5732 29.1167C63.6272 27.9417 65.3896 27.5123 66.8554 28.0705C67.9875 28.5019 68.6589 29.5558 68.6745 30.9963C68.6921 32.5265 68.6765 34.0567 68.6765 35.585C68.6765 35.7879 68.6687 35.9929 68.6823 36.1959C68.7253 36.8165 68.8463 36.9415 69.4533 37.0195C69.7031 37.0508 69.9529 37.0839 70.2672 37.123C70.2828 37.3904 70.2984 37.6285 70.314 37.8998C70.111 37.9447 69.9666 38.0032 69.8241 38.0052C68.4696 38.013 67.115 38.0208 65.7605 38.0013C65.5633 37.9993 65.2862 37.9037 65.1886 37.7573C64.9895 37.4567 65.2081 37.1249 65.5907 37.0547C66.3519 36.9128 66.7312 36.4548 66.7286 35.6806C66.7266 34.2519 66.7286 32.8251 66.7286 31.3964C66.7286 30.159 66.305 29.4856 65.3974 29.2709C64.1893 28.984 62.9167 29.5149 62.5146 30.5942C62.2629 31.2754 62.134 32.0249 62.0891 32.7529C62.0189 33.844 62.0618 34.9448 62.0716 36.0417C62.0774 36.8185 62.2121 36.9434 63.0006 37.0371C63.2836 37.0722 63.6545 36.9766 63.7033 37.4372C63.7365 37.7593 63.6681 38.0052 63.2797 38.0052C61.8237 38.0052 60.3657 38.0052 58.9097 38.0032C58.6364 38.0032 58.4803 37.8725 58.4783 37.5856C58.4764 37.3006 58.5525 37.1035 58.8882 37.0566C59.2766 37.002 59.8016 37.1737 59.9949 36.7248C60.1451 36.3735 60.1159 35.9324 60.1178 35.5323C60.1295 33.7229 60.1256 31.9117 60.1217 30.1023C60.1217 29.1479 59.9675 28.9937 59.0229 28.9547C58.9214 28.9508 58.7886 28.9937 58.7223 28.9449C58.5778 28.8395 58.3944 28.7049 58.3573 28.5526C58.3026 28.3184 58.4119 28.0881 58.7106 28.0686C59.7528 27.9983 60.7951 27.9378 61.9935 27.8636V27.8617Z" fill="#9C9C9C"/>
<path d="M87.5475 22.1668C88.0881 22.2078 88.4082 21.9151 88.7069 21.6047C89.4856 20.8025 89.9482 19.8052 90.3815 18.7961C90.4479 18.6419 90.3874 18.3979 90.3152 18.2262C89.2827 15.8137 88.2306 13.4111 87.1962 11.0006C86.8839 10.2726 86.3803 9.84903 85.5859 9.90759C85.3712 9.00195 85.4239 8.92388 86.2203 8.92193C87.4226 8.91802 88.6229 8.91607 89.8253 8.92193C90.5689 8.92583 90.6079 8.98634 90.4537 9.86074C90.2507 9.88221 90.0302 9.90563 89.8116 9.93101C89.2319 9.99737 89.0914 10.1965 89.308 10.7449C89.6086 11.5022 89.9521 12.2419 90.2722 12.9914C90.6333 13.8346 90.9885 14.6797 91.3516 15.521C91.3886 15.6068 91.4628 15.6791 91.576 15.8333C91.699 15.6088 91.8024 15.4527 91.8746 15.2809C92.4192 13.9908 92.9618 12.6987 93.4927 11.4027C93.9377 10.3194 93.7894 10.0852 92.6085 9.92515C92.5363 9.91539 92.468 9.87636 92.347 9.83146V8.96877C92.7003 8.9512 93.0223 8.92388 93.3443 8.92193C94.2129 8.91412 95.0834 8.92193 95.952 8.91412C96.233 8.91217 96.4789 8.95901 96.516 9.28886C96.5512 9.61091 96.5199 9.87831 96.0925 9.96028C95.4211 10.0891 95.0932 10.6063 94.8414 11.1919C93.5844 14.1176 92.3431 17.0492 91.0393 19.9535C90.6899 20.7342 90.2078 21.4818 89.6633 22.1434C88.8162 23.174 87.6666 23.5292 86.353 23.2306C85.4552 23.0256 84.9848 22.3074 85.1097 21.4056C85.2092 20.6893 85.8221 20.256 86.6223 20.3361C87.3074 20.4063 87.6197 20.8474 87.5534 21.6418C87.5397 21.8077 87.5514 21.9775 87.5514 22.1649L87.5475 22.1668Z" fill="#9C9C9C"/>
<path d="M127.747 8.5625C130.446 8.57616 132.363 10.3113 132.694 12.7881C132.868 14.0822 132.788 15.3255 132.238 16.52C131.373 18.3937 129.683 19.3618 127.526 19.2252C125.619 19.1042 123.968 17.8375 123.4 15.9774C122.824 14.088 122.916 12.2436 124.044 10.5553C124.967 9.17146 126.33 8.58592 127.749 8.5625H127.747ZM130.532 13.8109C130.409 12.9931 130.341 12.0992 130.128 11.2423C129.849 10.1239 129.072 9.59305 127.942 9.59305C126.745 9.59305 125.965 10.1942 125.666 11.4492C125.285 13.0575 125.281 14.6912 125.654 16.2994C125.947 17.5623 126.759 18.2083 127.895 18.2181C129.111 18.2298 129.872 17.6481 130.198 16.3053C130.387 15.5207 130.419 14.699 130.53 13.8089L130.532 13.8109Z" fill="#9C9C9C"/>
<path d="M73.949 13.8975C73.9314 14.9047 73.7343 15.8493 73.2697 16.7218C72.288 18.5643 70.7051 19.3743 68.6479 19.222C66.6707 19.0776 65.2849 18.0392 64.6057 16.1928C63.9733 14.4733 64.0026 12.7225 64.8477 11.0655C65.7787 9.23858 67.551 8.35636 69.7955 8.62571C71.5912 8.84236 73.016 10.0017 73.6016 11.9516C73.7889 12.5781 73.8358 13.2456 73.949 13.8956V13.8975ZM71.6771 13.9112C71.5444 13.0251 71.478 12.1565 71.275 11.3211C71.0564 10.4253 70.504 9.77337 69.5184 9.62308C68.1795 9.42009 67.1879 10.0115 66.8347 11.3231C66.376 13.027 66.3916 14.7544 66.8249 16.4641C66.9752 17.0594 67.2758 17.6001 67.8496 17.9299C69.2198 18.7185 70.8339 18.0939 71.2613 16.5305C71.4936 15.6795 71.5463 14.7778 71.6771 13.9112Z" fill="#9C9C9C"/>
<path d="M143.355 13.9483C143.285 15.4648 142.889 16.8389 141.796 17.9319C139.618 20.1101 135.739 19.5617 134.315 16.835C133.29 14.8735 133.296 12.8436 134.367 10.8976C135.353 9.10979 137.184 8.31931 139.327 8.62769C141.099 8.88143 142.618 10.2887 143.066 12.1429C143.209 12.7343 143.262 13.3471 143.353 13.9483H143.355ZM141.081 13.9542C141.062 13.9503 141.04 13.9463 141.021 13.9424C140.986 13.4096 140.968 12.8729 140.91 12.342C140.873 12.0141 140.789 11.6901 140.701 11.3719C140.375 10.1989 139.645 9.61335 138.515 9.60359C137.316 9.59188 136.549 10.1423 136.233 11.3465C136.065 11.9828 135.968 12.6484 135.94 13.3062C135.89 14.5553 135.901 15.8084 136.432 16.9853C136.78 17.7543 137.379 18.1622 138.218 18.2208C139.51 18.3106 140.381 17.727 140.697 16.4407C140.896 15.6308 140.959 14.7856 141.081 13.9581V13.9542Z" fill="#9C9C9C"/>
<path d="M128.093 41.2705C128.587 41.5262 128.946 41.2412 129.194 40.9582C129.66 40.4253 130.101 39.8515 130.449 39.2387C131.241 37.8412 131.212 37.8295 130.572 36.3597C129.726 34.4197 128.883 32.4796 128.044 30.5375C127.511 29.304 127.468 29.261 126.174 28.941V28.209C126.387 28.1837 126.559 28.1466 126.73 28.1466C127.984 28.1407 129.237 28.1368 130.49 28.1466C131.165 28.1505 131.186 28.1915 131.069 28.9702C130.833 28.9956 130.583 29.0151 130.337 29.0503C129.81 29.1264 129.668 29.3294 129.869 29.8329C130.226 30.7327 130.622 31.6169 131.003 32.5088C131.323 33.2583 131.643 34.0098 131.971 34.7554C132.016 34.8569 132.114 34.9369 132.223 35.0696C132.318 34.9388 132.393 34.8705 132.428 34.7866C133.025 33.3501 133.616 31.9135 134.208 30.4751C134.622 29.4718 134.438 29.1791 133.322 29.0503C133.224 29.0385 133.128 29.0034 132.998 28.9722V28.1954H136.892C136.921 28.4452 136.946 28.6638 136.968 28.8434C136.903 28.9273 136.878 28.9917 136.841 29.0015C136.109 29.1947 135.691 29.6924 135.404 30.3677C134.208 33.1842 132.994 35.9928 131.78 38.7995C131.321 39.8593 130.773 40.8645 129.883 41.6413C129.049 42.3674 128.077 42.5782 127.017 42.342C126.09 42.1351 125.573 41.2841 125.805 40.441C125.993 39.7578 126.602 39.4104 127.365 39.5529C127.984 39.668 128.239 40.1287 128.12 40.8977C128.101 41.0167 128.101 41.1397 128.089 41.2744L128.093 41.2705Z" fill="#9C9C9C"/>
<path d="M94.7096 34.9222C94.8482 34.9808 94.9711 35.0179 95.0746 35.0842C95.178 35.1506 95.2639 35.2462 95.4122 35.379C94.6784 36.8896 93.6029 37.9631 91.8951 38.2422C89.0435 38.7107 86.9414 37.1902 86.3871 34.2508C86.0846 32.6406 86.2934 31.0869 87.2205 29.7031C88.3018 28.087 89.8828 27.5405 91.7526 27.8196C93.5522 28.089 94.694 29.1664 95.178 30.9015C95.3264 31.4344 95.3693 32.0062 95.3947 32.5625C95.422 33.1637 95.3615 33.2007 94.7369 33.2027C92.9471 33.2086 91.1573 33.2027 89.3675 33.2027C88.4912 33.2027 88.417 33.2866 88.4931 34.1766C88.5029 34.2781 88.5224 34.3777 88.538 34.4792C88.7234 35.6659 89.2328 36.6476 90.4527 37.0165C91.7409 37.4049 92.8827 37.038 93.8059 36.0699C94.1358 35.7244 94.4012 35.3145 94.7076 34.9183L94.7096 34.9222ZM88.5322 32.1643C88.6727 32.217 88.7429 32.2639 88.8113 32.2639C90.035 32.2717 91.2608 32.2873 92.4845 32.2717C92.9764 32.2658 93.2516 31.9848 93.197 31.489C93.1364 30.9386 93.0193 30.3843 92.8339 29.8632C92.5607 29.0903 91.9361 28.7057 91.1339 28.6452C90.3161 28.5847 89.6232 28.858 89.1548 29.5645C88.6278 30.3589 88.5458 31.2548 88.5302 32.1643H88.5322Z" fill="#9C9C9C"/>
<path d="M110.835 28.5079C111.02 28.3322 111.204 28.1175 111.426 27.9575C111.768 27.7115 112.119 27.8579 112.131 28.2697C112.16 29.2125 112.152 30.1571 112.131 31.0999C112.129 31.215 111.981 31.4102 111.883 31.4219C111.737 31.4375 111.532 31.3633 111.434 31.254C111.305 31.1096 111.262 30.891 111.169 30.7095C110.638 29.6653 109.927 28.8006 108.67 28.6913C108.184 28.6484 107.648 28.7479 107.189 28.9236C106.66 29.1246 106.367 29.5853 106.383 30.1962C106.4 30.8129 106.711 31.2248 107.281 31.3887C108.114 31.6268 108.965 31.8025 109.806 32.0133C110.152 32.0992 110.499 32.189 110.837 32.3061C112.24 32.7862 112.841 33.604 112.851 35.0288C112.861 36.5317 112.117 37.6852 110.819 38.1302C109.514 38.5792 108.253 38.4718 107.058 37.7614C106.886 37.6579 106.711 37.5584 106.498 37.4334C106.303 37.6657 106.153 37.9136 105.938 38.0717C105.756 38.2064 105.487 38.3098 105.274 38.2805C105.171 38.2669 105.046 37.9253 105.042 37.7301C105.019 36.7113 105.03 35.6905 105.03 34.6697C105.03 34.4121 105.001 34.1349 105.36 34.0861C105.692 34.0393 105.858 34.2071 105.991 34.5057C106.248 35.0835 106.492 35.6846 106.857 36.1941C107.808 37.5135 109.549 37.6345 110.568 37.1368C111.073 36.8889 111.438 36.5181 111.512 35.9267C111.616 35.1089 111.333 34.6033 110.517 34.3535C109.761 34.1212 108.973 33.9983 108.212 33.7894C107.673 33.6411 107.127 33.4791 106.627 33.2351C105.239 32.5598 105.007 31.338 105.264 29.9112C105.489 28.6777 106.559 27.8696 107.856 27.813C109.039 27.7603 109.207 27.7994 110.835 28.5118V28.5079Z" fill="#9C9C9C"/>
<path d="M59.0924 4.63281H60.002V8.91897C60.8315 8.91897 61.5634 8.91701 62.2934 8.91897C63.1229 8.92287 63.1483 8.95215 63.0585 9.89877H60.0078C59.9727 10.1935 59.9278 10.3867 59.9278 10.5819C59.922 12.3424 59.922 14.1029 59.9278 15.8635C59.9278 16.1172 59.9551 16.3729 59.9825 16.6266C60.0625 17.3625 60.2635 17.6377 60.7983 17.7587C61.4405 17.9031 62.1177 17.6669 62.3598 17.0873C62.5803 16.5564 62.676 15.9708 62.7911 15.4009C62.8477 15.1257 62.9004 14.9012 63.2342 14.8876C63.5269 14.8759 63.7455 14.9598 63.7533 15.2974C63.8178 18.1276 62.1119 19.7495 59.3481 19.1464C58.5674 18.9766 58.1419 18.395 57.9936 17.6396C57.9058 17.1926 57.8862 16.7281 57.8823 16.2694C57.8706 14.3567 57.8804 12.442 57.8784 10.5292C57.8784 10.3809 57.855 10.2325 57.8355 10.0042C57.2987 9.97099 56.7776 9.93585 56.2682 9.90462C56.0984 9.16099 56.1003 9.08097 56.6254 8.94044C57.8062 8.6262 58.3957 7.78107 58.6962 6.69587C58.8719 6.06153 58.9461 5.39987 59.0885 4.63672L59.0924 4.63281Z" fill="#9C9C9C"/>
<path d="M120.507 9.80539C120.045 9.79953 119.781 10.0279 119.53 10.2699C118.864 10.9121 118.524 11.7279 118.282 12.5984C117.943 13.8241 118.038 15.0792 118.035 16.3244C118.031 17.9112 117.863 17.7024 119.457 17.8702C119.606 17.8858 119.752 17.9229 119.887 17.9463C120.119 18.7915 120.045 18.9164 119.288 18.9203C117.832 18.9281 116.374 18.9242 114.918 18.9203C114.744 18.9203 114.568 18.8852 114.328 18.8617V17.921C114.675 17.878 114.999 17.8429 115.322 17.798C115.895 17.716 115.983 17.6399 115.985 17.0797C115.993 14.964 115.993 12.8482 115.985 10.7325C115.983 10.0825 115.827 9.9342 115.175 9.88151C114.972 9.86589 114.765 9.86589 114.562 9.87565C114.209 9.89127 114.033 9.72927 114.039 9.37989C114.043 9.04614 114.197 8.88023 114.554 8.86071C115.497 8.80802 116.44 8.7397 117.381 8.65187C117.791 8.61479 117.945 8.78655 117.941 9.1691C117.937 9.69999 117.941 10.2309 117.941 10.9589C118.14 10.6876 118.222 10.5568 118.323 10.4417C118.733 9.96153 119.087 9.40917 119.575 9.02467C120.437 8.34739 121.681 8.44108 122.395 9.13201C122.871 9.59264 123.051 10.1509 122.9 10.8008C122.723 11.564 122.102 11.9777 121.368 11.8294C120.64 11.683 120.232 11.0467 120.379 10.2738C120.406 10.1333 120.455 9.99861 120.511 9.80343L120.507 9.80539Z" fill="#9C9C9C"/>
<path d="M121.612 23.7969H122.352C122.375 24.0252 122.416 24.2438 122.418 24.4605C122.424 25.4559 122.413 26.4494 122.422 27.4448C122.428 28.083 122.479 28.1279 123.133 28.1357C123.695 28.1435 124.257 28.1318 124.821 28.1377C125.491 28.1455 125.504 28.1689 125.432 29.0218H122.385C122.352 29.3224 122.311 29.5176 122.311 29.7128C122.307 31.4987 122.307 33.2826 122.311 35.0685C122.311 35.3223 122.329 35.5779 122.36 35.8317C122.426 36.3704 122.621 36.8251 123.217 36.9676C123.792 37.1062 124.302 36.9501 124.661 36.4953C124.876 36.224 125.024 35.8824 125.127 35.5487C125.239 35.1876 125.231 34.7875 125.342 34.4264C125.385 34.2858 125.619 34.1121 125.756 34.1199C125.891 34.1278 126.101 34.3366 126.123 34.4791C126.42 36.5011 125.079 38.2207 123.039 38.3475C121.361 38.4529 120.431 37.8694 120.379 35.9878C120.322 33.9755 120.367 31.9593 120.365 29.945C120.365 29.6718 120.338 29.3985 120.32 29.0453H118.759C118.583 28.5417 118.63 28.2275 119.135 28.1006C120.15 27.8469 120.755 27.1384 121.058 26.1956C121.298 25.45 121.417 24.6654 121.614 23.7969H121.612Z" fill="#9C9C9C"/>
<path d="M86.4302 28.9838C85.4309 29.1302 84.982 29.8582 84.6345 30.7307C83.7133 33.0514 82.7608 35.3623 81.8201 37.6752C81.781 37.7689 81.7654 37.8879 81.6971 37.9523C81.5429 38.0968 81.3614 38.3134 81.1916 38.3115C81.0179 38.3115 80.77 38.1202 80.69 37.9504C80.2528 37.0291 79.8546 36.0903 79.4486 35.1554C78.7694 33.5881 78.0902 32.0208 77.4168 30.4516C76.8996 29.2473 76.8937 29.2356 75.6797 28.9331V28.1894H80.3933C80.4148 28.4334 80.4362 28.6715 80.4616 28.9487C80.2352 28.9916 80.0693 29.0287 79.8995 29.056C79.2105 29.1634 79.07 29.3917 79.3432 30.0358C79.9619 31.4899 80.5943 32.9382 81.2248 34.3884C81.3419 34.6577 81.4687 34.9232 81.6034 35.2159C81.7244 35.13 81.8181 35.1008 81.8396 35.0442C82.4251 33.5218 83.0107 31.9994 83.5806 30.473C83.9319 29.5323 83.7777 29.2571 82.7784 29.0541C82.468 28.9916 82.3295 28.857 82.3412 28.5486C82.3548 28.2011 82.5793 28.1406 82.8643 28.1426C83.8616 28.1445 84.859 28.1348 85.8564 28.1465C86.518 28.1543 86.5376 28.1914 86.4322 28.9858L86.4302 28.9838Z" fill="#9C9C9C"/>
<path d="M99.6167 30.2132C99.7397 29.9712 99.8588 29.7292 99.9837 29.4891C100.597 28.318 101.666 27.6876 102.829 27.8125C103.721 27.9081 104.393 28.5854 104.465 29.4618C104.514 30.0629 104.268 30.5606 103.774 30.8007C103.3 31.031 102.827 31.0017 102.398 30.6914C101.978 30.3889 101.877 29.8931 102.062 29.2451C102.09 29.1514 102.099 29.0519 102.135 28.8606C101.92 28.9094 101.752 28.9153 101.615 28.9855C100.893 29.3544 100.481 29.9966 100.155 30.6992C99.7182 31.64 99.5621 32.6471 99.5231 33.6698C99.4938 34.4837 99.5074 35.3016 99.5172 36.1155C99.527 36.8298 99.6577 36.9606 100.353 37.0191C100.706 37.0484 101.059 37.0738 101.389 37.0972C101.641 37.8545 101.588 37.995 100.987 38.0009C99.402 38.0165 97.8191 38.0048 96.2343 37.9989C96.1386 37.9989 96.043 37.954 95.8986 37.9189V37.1167C96.244 37.0816 96.568 37.0582 96.8901 37.0152C97.4171 36.9469 97.5654 36.8044 97.5674 36.2872C97.5752 34.1207 97.5752 31.9542 97.5654 29.7877C97.5635 29.2139 97.4307 29.0773 96.8569 28.9933C96.5817 28.9523 96.285 29.0031 96.0215 28.9328C95.8712 28.8918 95.6917 28.7064 95.6546 28.5542C95.598 28.318 95.7131 28.0897 96.0059 28.0682C96.9994 27.994 97.9928 27.9276 98.9844 27.8613C99.2869 27.8398 99.3942 28.0233 99.3962 28.2868C99.4001 28.7455 99.3903 29.2041 99.3903 29.6628C99.3903 29.8307 99.4059 29.9966 99.4157 30.1644C99.4801 30.18 99.5465 30.1976 99.6109 30.2132H99.6167Z" fill="#9C9C9C"/>
<path d="M117.148 27.8613C117.168 28.2087 117.195 28.48 117.197 28.7494C117.201 30.992 117.197 33.2327 117.197 35.4753C117.197 35.6529 117.191 35.8325 117.199 36.0101C117.24 36.8455 117.334 36.9313 118.187 37.0348C118.403 37.0602 118.679 37.0914 118.809 37.23C119.09 37.5266 118.827 37.9931 118.376 38.0009C117.33 38.0185 116.282 38.0068 115.234 38.0068C114.877 38.0068 114.517 38.0146 114.16 38.0068C113.461 37.9912 113.426 37.9326 113.62 37.1051C113.922 37.0758 114.25 37.0543 114.572 37.0114C115.081 36.945 115.247 36.785 115.249 36.2697C115.259 34.1051 115.257 31.9386 115.245 29.7721C115.242 29.2354 115.042 29.0383 114.521 28.966C114.32 28.9387 114.113 28.9465 113.91 28.9485C113.639 28.9485 113.463 28.8431 113.454 28.5562C113.444 28.2614 113.561 28.0721 113.891 28.0546C114.933 27.996 115.973 27.9296 117.148 27.8594V27.8613Z" fill="#9C9C9C"/>
<path d="M74.3301 27.8672C74.3477 28.2205 74.3711 28.4918 74.3731 28.7631C74.375 31.1326 74.3731 33.502 74.3731 35.8715C74.3731 36.8708 74.4316 36.9313 75.4309 37.0426C75.673 37.0699 75.9579 37.0192 76.0438 37.3666C76.1473 37.7862 75.9794 38.0009 75.4641 38.0068C74.2384 38.0205 73.0127 38.0107 71.785 38.0107C71.58 38.0107 71.3771 38.0107 71.1721 38.0107C70.8754 38.0107 70.6822 37.8994 70.6822 37.5657C70.6822 37.2671 70.7954 37.1148 71.1175 37.0582C72.4174 36.8318 72.4135 36.822 72.4135 35.5085C72.4135 33.6992 72.4174 31.8898 72.4135 30.0825C72.4096 29.1261 72.271 28.9992 71.3029 28.9485C71.1077 28.9387 70.8735 28.9251 70.7369 28.8158C70.6412 28.7396 70.6178 28.4683 70.6764 28.3337C70.731 28.2088 70.932 28.0819 71.0784 28.0702C72.1187 27.9882 73.161 27.9375 74.3321 27.8691L74.3301 27.8672Z" fill="#9C9C9C"/>
<path d="M74.645 23.8411C74.645 24.5184 74.0751 25.0942 73.3861 25.1098C72.6893 25.1254 72.055 24.4969 72.0706 23.8079C72.0862 23.1521 72.7049 22.5744 73.3803 22.5861C74.0829 22.5978 74.6431 23.1541 74.645 23.8431V23.8411Z" fill="#9C9C9C"/>
<path d="M117.48 23.8573C117.464 24.5522 116.9 25.1026 116.205 25.1006C115.481 25.0987 114.899 24.4975 114.927 23.7812C114.954 23.0844 115.52 22.5711 116.24 22.5945C116.957 22.616 117.495 23.1644 117.48 23.8593V23.8573Z" fill="#9C9C9C"/>
</svg>
