<svg width="106" height="46" viewBox="0 0 106 46" fill="none" xmlns="http://www.w3.org/2000/svg">
<path d="M6.57231 45.3916C4.68533 44.3807 2.79835 43.3698 0.91137 42.355C0.661623 42.2202 0.41584 42.0775 0.0273438 41.8555C2.28696 40.6662 4.42766 39.5404 6.62781 38.3828C7.85673 38.8387 9.10546 39.3501 10.382 39.7584C11.6148 40.1509 12.8675 40.4958 14.1361 40.7455C15.92 41.0983 17.6762 40.7693 19.3768 40.2222C21.0894 39.6712 22.7742 39.0369 24.57 38.4026C26.6591 39.5007 28.8315 40.6385 31.1546 41.8595C28.8593 43.0844 26.7027 44.238 24.5422 45.3876H24.3837C22.239 44.4124 20.0389 43.5641 17.7237 43.1161C16.6494 42.91 15.5038 42.8545 14.4176 42.9694C11.706 43.2628 9.22043 44.353 6.72692 45.3837H6.56835L6.57231 45.3916Z" fill="#9C9C9C"/>
<path d="M6.62822 36.7661C4.43599 35.6086 2.29133 34.4788 0 33.2736C2.30719 32.0606 4.45185 30.9308 6.61236 29.793C8.16238 30.348 9.70844 30.8911 11.2426 31.454C14.1761 32.5323 17.0978 32.5006 20.0194 31.4263C21.51 30.8792 23.0045 30.352 24.5585 29.7891C26.6873 30.907 28.8518 32.0487 31.1709 33.2697C28.8637 34.4827 26.719 35.6125 24.5466 36.7542C23.2027 36.2587 21.8747 35.7315 20.5229 35.2914C19.4446 34.9386 18.3426 34.6413 17.2286 34.4153C14.9056 33.9476 12.7094 34.562 10.5449 35.3152C9.24462 35.7671 7.9602 36.2627 6.62029 36.7582L6.62822 36.7661Z" fill="#9C9C9C"/>
<path d="M31.1828 24.6877C28.8597 25.9087 26.715 27.0385 24.5545 28.1723C23.1988 27.6728 21.8707 27.1455 20.515 26.7055C19.4367 26.3566 18.3307 26.0593 17.2207 25.8334C14.8976 25.3656 12.7014 25.9919 10.537 26.7412C9.23669 27.1891 7.95624 27.6886 6.63218 28.1723C4.48356 27.0425 2.33098 25.9126 0 24.6877C2.2953 23.4786 4.45185 22.3409 6.61236 21.2031C8.15049 21.7542 9.66879 22.2893 11.1792 22.8483C14.1642 23.9543 17.1335 23.9147 20.1106 22.8126C21.5734 22.2695 23.0442 21.7542 24.5585 21.2071C26.6873 22.325 28.8399 23.4548 31.1828 24.6877Z" fill="#9C9C9C"/>
<path d="M1.7793 16.2569V0.09071C2.02904 0.0550318 2.20744 0.00746083 2.38979 0.00746083C3.87638 0.00746083 5.35901 -0.0202889 6.84164 0.0312463C8.70483 0.0946742 9.78707 1.09366 10.0289 2.93704C10.124 3.67042 10.1954 4.4157 10.1875 5.15701C10.1637 7.86063 10.1716 10.5682 10.0289 13.2679C9.92582 15.2064 8.8634 16.2212 6.92885 16.3441C5.31937 16.4472 3.69799 16.3679 2.08058 16.3639C2.00922 16.3639 1.9339 16.3124 1.7793 16.2529V16.2569ZM4.32831 14.5047C5.02998 14.5047 5.63651 14.5404 6.23907 14.4928C6.78614 14.4532 7.1786 14.1241 7.3451 13.5969C7.45213 13.248 7.53538 12.8714 7.54331 12.5067C7.59088 10.5722 7.63052 8.63366 7.63845 6.69911C7.64242 5.69219 7.59881 4.68131 7.53538 3.67835C7.49177 3.00839 7.38474 2.29087 6.66325 2.01337C5.92193 1.73191 5.13305 1.72398 4.32831 1.92219V14.5047Z" fill="#9C9C9C"/>
<path d="M26.8014 0.062616H29.2632C29.287 0.379756 29.3267 0.661217 29.3267 0.938714C29.3267 4.65321 29.3306 8.36771 29.3227 12.0782C29.3227 12.6055 29.3108 13.1446 29.2157 13.66C28.9025 15.2893 28.0105 16.2566 26.3852 16.4548C25.3822 16.5777 24.3119 16.5222 23.3208 16.316C22.0483 16.0504 21.2911 15.1228 21.0691 13.8185C20.9938 13.3745 20.9225 12.9266 20.9185 12.4786C20.9066 8.57781 20.9066 4.68096 20.9106 0.780144C20.9106 0.574004 20.9423 0.363899 20.9661 0.0745087H23.3763C23.3962 0.447148 23.4279 0.784109 23.4318 1.11711C23.4358 4.64528 23.4279 8.17346 23.4398 11.7016C23.4398 12.3082 23.4913 12.9226 23.5904 13.5212C23.7252 14.326 24.3 14.7779 25.0849 14.7938C25.8817 14.8096 26.4684 14.3894 26.6429 13.6005C26.7459 13.1407 26.7895 12.657 26.7895 12.1813C26.8014 8.49457 26.7975 4.80782 26.7975 1.12107C26.7975 0.807894 26.7975 0.490754 26.7975 0.0546875L26.8014 0.062616Z" fill="#9C9C9C"/>
<path d="M16.8925 16.3315H14.2919C14.2602 16.0104 14.1968 15.6854 14.1968 15.3563C14.1889 11.2732 14.1968 7.18998 14.1889 3.10681C14.1889 2.76985 14.1532 2.43289 14.1294 1.97303H11.4258V0.078125H19.6556V1.94528H16.8925V16.3315Z" fill="#9C9C9C"/>
<path d="M69.1529 31.8999C69.1529 33.216 69.1529 34.5044 69.1529 35.7888C69.1529 35.876 69.1568 35.9632 69.1489 36.0465C69.1291 36.2169 69.0696 36.2843 68.9031 36.2883C68.6256 36.2962 68.3481 36.2962 68.0706 36.2883C67.8923 36.2843 67.8249 36.209 67.8209 36.0267C67.813 35.8205 67.8209 35.6104 67.8209 35.4043C67.8209 34.4885 67.8249 33.5728 67.8169 32.657C67.8169 32.4351 67.7773 32.2131 67.7416 31.9911C67.7139 31.8246 67.5949 31.7334 67.4324 31.6779C67.1747 31.5907 66.9329 31.6462 66.699 31.7334C66.1757 31.9316 66.1797 31.9356 66.1797 32.4906C66.1797 33.6045 66.1797 34.7185 66.1797 35.8364C66.1797 35.9038 66.1797 35.9751 66.1797 36.0425C66.1678 36.209 66.1044 36.2843 65.9418 36.2883C65.6564 36.2962 65.371 36.2923 65.0856 36.2883C64.9389 36.2883 64.8675 36.1971 64.8517 36.0623C64.8437 35.9949 64.8438 35.9236 64.8438 35.8562C64.8438 34.2388 64.8438 32.6253 64.8438 31.0079C64.8438 30.9485 64.8438 30.885 64.8438 30.8256C64.8636 30.6392 64.9191 30.5837 65.1094 30.5798C65.2996 30.5719 65.4899 30.5798 65.6802 30.5798C65.926 30.5798 66.0925 30.6974 66.1797 30.9326C66.2629 30.889 66.3422 30.8494 66.4215 30.8097C66.9765 30.5164 67.5593 30.3935 68.1737 30.5837C68.3362 30.6353 68.4948 30.7185 68.6256 30.8216C68.7485 30.9207 68.8397 30.9247 68.9705 30.8533C69.4542 30.5996 69.9695 30.4846 70.5205 30.4926C71.3927 30.5084 71.9516 30.9841 72.0745 31.8483C72.1181 32.1655 72.1459 32.4826 72.1459 32.8037C72.1538 33.8146 72.1459 34.8255 72.1459 35.8364C72.1459 35.9038 72.1499 35.9751 72.1459 36.0425C72.13 36.213 72.0507 36.2883 71.8763 36.2962C71.6067 36.3042 71.3411 36.3042 71.0716 36.2962C70.8971 36.2923 70.8218 36.2209 70.798 36.0465C70.7901 35.9712 70.7941 35.8919 70.7941 35.8126C70.7941 34.8017 70.7941 33.7908 70.7941 32.7799C70.7941 32.5897 70.7861 32.3994 70.7663 32.2091C70.7267 31.8285 70.5443 31.662 70.1558 31.6382C69.8466 31.6184 69.4225 31.7294 69.1529 31.8999Z" fill="#9C9C9C"/>
<path d="M46.3672 32.5289C46.3672 31.4308 46.3672 30.3367 46.3672 29.2386C46.3672 28.8739 46.4307 28.7907 46.7954 28.7669C47.5129 28.7233 48.2304 28.6638 48.944 28.6836C49.7487 28.7034 50.494 28.9453 51.0688 29.5558C51.4375 29.9442 51.6476 30.412 51.7388 30.9313C51.7943 31.2445 51.826 31.5656 51.826 31.8828C51.822 32.5725 51.8339 33.2663 51.7586 33.9481C51.6199 35.1929 50.7953 36.0809 49.4395 36.3029C48.7735 36.4099 48.1115 36.3663 47.4455 36.3306C47.2394 36.3187 47.0332 36.3029 46.8231 36.2831C46.4307 36.2474 46.3633 36.1721 46.3633 35.7875C46.3633 35.7796 46.3633 35.7717 46.3633 35.7598C46.3633 34.6815 46.3633 33.6032 46.3633 32.521L46.3672 32.5289ZM47.7825 35.1493C48.2503 35.1493 48.6982 35.2008 49.1264 35.1374C49.8003 35.0423 50.2443 34.6776 50.3592 33.8649C50.4861 32.9729 50.4782 32.073 50.3592 31.1771C50.276 30.5428 49.9271 30.0711 49.277 29.9363C48.9916 29.8769 48.6943 29.8769 48.4009 29.865C48.1987 29.857 47.9926 29.8729 47.7746 29.8808V35.1453L47.7825 35.1493Z" fill="#9C9C9C"/>
<path d="M50.6566 18.6933C50.6566 17.9084 50.6566 17.1195 50.6566 16.3346C50.6566 16.2553 50.6566 16.18 50.6646 16.1007C50.6804 15.9739 50.7478 15.8906 50.8826 15.8906C51.2037 15.8906 51.5248 15.8906 51.8419 15.8906C51.9767 15.8906 52.0481 15.9739 52.0679 16.1007C52.0758 16.1602 52.0758 16.2197 52.0758 16.2831C52.0758 17.7181 52.0758 19.1532 52.0758 20.5843C52.0758 21.0362 52.0322 21.4842 51.8935 21.9123C51.6279 22.7171 51.0768 23.2165 50.2483 23.4029C49.5427 23.5575 48.841 23.5535 48.1433 23.3593C47.3505 23.1373 46.847 22.614 46.6369 21.8291C46.5378 21.4485 46.4783 21.0481 46.4744 20.6556C46.4545 19.1889 46.4664 17.7181 46.4664 16.2514C46.4664 15.9501 46.5259 15.8946 46.8351 15.8906C47.0769 15.8906 47.3187 15.8906 47.5606 15.8906C47.8222 15.8906 47.8737 15.9501 47.8896 16.2117C47.8896 16.291 47.8896 16.3663 47.8896 16.4456C47.8896 17.7855 47.8896 19.1254 47.8896 20.4614C47.8896 20.838 47.8817 21.2186 48.0046 21.5912C48.1274 21.9638 48.3732 22.1938 48.7419 22.281C49.0908 22.3642 49.4515 22.3682 49.7964 22.281C50.2404 22.17 50.5219 21.8965 50.6051 21.2582C50.6408 20.9847 50.6447 20.7072 50.6487 20.4297C50.6566 19.8509 50.6487 19.2721 50.6487 18.6933H50.6566Z" fill="#9C9C9C"/>
<path d="M63.5175 5.24341C63.8743 5.14431 64.1835 5.03331 64.5007 4.96988C64.9843 4.8787 65.4719 4.89456 65.9238 5.10863C66.455 5.35838 66.7088 5.82616 66.7999 6.37719C66.8594 6.73397 66.8792 7.09868 66.8832 7.45943C66.8951 8.39895 66.8832 9.34244 66.8911 10.282C66.8911 10.6943 66.7999 10.7537 66.4233 10.7339C66.233 10.726 66.0428 10.7339 65.8525 10.7339C65.6146 10.7299 65.5472 10.6625 65.5353 10.4247C65.5314 10.3058 65.5353 10.1829 65.5353 10.0639C65.5353 9.15612 65.5353 8.25228 65.5353 7.34446C65.5353 7.1185 65.5274 6.8965 65.5036 6.67054C65.4679 6.32565 65.3133 6.14726 64.9803 6.09176C64.4888 6.00851 64.0408 6.16312 63.6127 6.38512C63.5691 6.4089 63.5374 6.47233 63.5255 6.52783C63.5096 6.59522 63.5215 6.66658 63.5215 6.73397C63.5215 7.91532 63.5215 9.10062 63.5215 10.282C63.5215 10.3494 63.5215 10.4207 63.5215 10.4881C63.5096 10.6546 63.4462 10.726 63.2797 10.7339C62.9943 10.7418 62.7088 10.7379 62.4234 10.7339C62.2926 10.7339 62.2133 10.6586 62.1974 10.5278C62.1855 10.4405 62.1855 10.3573 62.1855 10.2701C62.1855 8.00649 62.1855 5.74687 62.1855 3.48329C62.1855 3.45554 62.1855 3.43175 62.1855 3.404C62.1895 3.06308 62.2331 3.02344 62.582 3.02344C62.7881 3.02344 62.9982 3.02344 63.2044 3.02344C63.466 3.0274 63.5175 3.07894 63.5215 3.34851C63.5215 3.88368 63.5215 4.41885 63.5215 4.95402C63.5215 5.04917 63.5215 5.14034 63.5215 5.24341H63.5175Z" fill="#9C9C9C"/>
<path d="M84.2078 32.9072C84.2712 32.8279 84.3386 32.7526 84.3981 32.6733C84.8619 32.0589 85.3257 31.4484 85.7816 30.8299C85.9164 30.6436 86.0749 30.5564 86.3088 30.5683C86.5665 30.5841 86.8281 30.5683 87.0858 30.5762C87.181 30.5762 87.3197 30.5921 87.3633 30.6515C87.4466 30.7625 87.3157 30.8537 87.2484 30.933C86.6815 31.6307 86.1106 32.3245 85.5437 33.0182C85.5199 33.0459 85.5001 33.0697 85.4763 33.0975C85.3257 33.2838 85.3257 33.2838 85.4644 33.4701C85.8847 34.041 86.3088 34.6079 86.729 35.1747C86.9154 35.4245 87.0977 35.6742 87.2801 35.924C87.3316 35.9914 87.3752 36.0667 87.4149 36.1301C87.3792 36.2649 87.288 36.2808 87.1889 36.2808C86.8321 36.2808 86.4793 36.2808 86.1225 36.2808C85.9084 36.2808 85.7974 36.146 85.6904 35.9953C85.3138 35.4483 84.9372 34.9012 84.5566 34.3541C84.4417 34.1876 84.3227 34.0251 84.2038 33.8626C84.184 33.8705 84.1642 33.8784 84.1444 33.8864C84.1444 33.9696 84.1444 34.0529 84.1444 34.1361C84.1444 34.7308 84.1444 35.3294 84.1444 35.924C84.1444 36.2332 84.0928 36.2808 83.7757 36.2808C83.5497 36.2808 83.3238 36.2847 83.1018 36.2808C82.8877 36.2768 82.8243 36.2134 82.8084 36.0033C82.8044 35.9359 82.8084 35.8645 82.8084 35.7971C82.8084 33.5415 82.8084 31.2898 82.8084 29.0341C82.8084 28.5862 82.8243 28.5703 83.2762 28.5703C83.4665 28.5703 83.6567 28.5703 83.847 28.5703C84.077 28.5743 84.1325 28.6337 84.1444 28.8637C84.1444 28.9311 84.1444 29.0024 84.1444 29.0698C84.1444 30.2432 84.1444 31.4206 84.1444 32.594C84.1444 32.6892 84.1444 32.7803 84.1444 32.8755C84.1642 32.8834 84.184 32.8913 84.2038 32.8953L84.2078 32.9072Z" fill="#9C9C9C"/>
<path d="M90.8774 23.4478C90.8457 23.4399 90.8139 23.424 90.7822 23.428C90.3144 23.432 90.0726 23.1505 89.9458 22.7501C89.7634 22.1753 89.5969 21.5965 89.4304 21.0177C89.1807 20.1575 88.9389 19.2933 88.6891 18.433C88.6495 18.2903 88.6019 18.1555 88.5662 18.0128C88.5147 17.8027 88.5741 17.7195 88.7922 17.7155C89.0855 17.7076 89.3789 17.7155 89.6762 17.7155C89.8308 17.7155 89.918 17.7869 89.9537 17.9296C90.037 18.2467 90.1202 18.5639 90.1995 18.881C90.3581 19.5153 90.5127 20.1535 90.6712 20.7878C90.7703 21.1882 90.8734 21.5886 90.9765 21.989C90.9884 22.0326 90.9844 22.0801 91.0082 22.1119C91.0399 22.1555 91.0914 22.211 91.139 22.2149C91.1707 22.2149 91.2302 22.1475 91.2421 22.1C91.361 21.652 91.476 21.2001 91.5909 20.7482C91.8248 19.8205 92.0548 18.8929 92.2926 17.9653C92.3402 17.7789 92.4155 17.7195 92.6018 17.7155C92.8952 17.7116 93.1885 17.7076 93.4858 17.7155C93.6999 17.7195 93.7633 17.8067 93.7039 18.0168C93.5096 18.7066 93.3154 19.3924 93.1172 20.0822C92.8397 21.0494 92.5622 22.0207 92.2807 22.988C92.1539 23.424 92.0151 23.8601 91.8724 24.2962C91.6306 25.0295 91.0795 25.3507 90.3462 25.4101C89.8942 25.4458 89.4463 25.4141 89.0023 25.3229C88.697 25.2595 88.6534 25.2 88.6495 24.8868C88.6495 24.8075 88.6495 24.7322 88.6495 24.6529C88.6495 24.3279 88.701 24.2843 89.034 24.2962C89.2917 24.3081 89.5533 24.3239 89.811 24.3398C89.8903 24.3437 89.9656 24.3517 90.0449 24.3437C90.5919 24.3041 90.8457 24.0345 90.8734 23.4518L90.8774 23.4478Z" fill="#9C9C9C"/>
<path d="M68.7109 20.9914C68.6593 21.8001 69.1232 22.2917 69.7178 22.3234C69.9755 22.3353 70.2371 22.3432 70.4948 22.3313C70.8912 22.3155 71.2876 22.2798 71.6841 22.252C71.9259 22.2362 71.9814 22.2798 71.9853 22.5176C71.9853 22.7079 71.9853 22.8982 71.9853 23.0885C71.9853 23.2352 71.91 23.3026 71.7713 23.3303C71.03 23.477 70.2768 23.5563 69.5275 23.481C68.3541 23.366 67.5057 22.6604 67.3868 21.3759C67.3353 20.8051 67.3313 20.2144 67.3947 19.6436C67.5018 18.6921 68.0607 17.935 69.0914 17.6971C69.7931 17.5346 70.4631 17.5861 71.0973 17.9508C71.5929 18.2402 71.9021 18.6723 72.0646 19.2115C72.2073 19.6792 72.2272 20.1629 72.2192 20.6465C72.2113 20.9319 72.1518 20.9874 71.8625 20.9874C70.911 20.9874 69.9596 20.9874 69.0082 20.9874C68.9131 20.9874 68.8219 20.9874 68.7109 20.9874V20.9914ZM70.8278 20.0241C70.8714 19.5326 70.6771 19.1005 70.3283 18.9141C69.9279 18.704 69.5275 18.712 69.1549 18.9736C68.8021 19.2234 68.7069 19.596 68.7069 20.0241H70.8317H70.8278Z" fill="#9C9C9C"/>
<path d="M52.7886 8.30025C52.6895 8.94642 53.0741 9.50934 53.6727 9.61241C53.8352 9.64016 54.0017 9.65602 54.1642 9.64809C54.6915 9.62827 55.2187 9.59259 55.746 9.56088C56.0036 9.54502 56.0552 9.58466 56.0591 9.83838C56.0591 10.0207 56.0591 10.1991 56.0591 10.3815C56.0591 10.5361 55.9799 10.6074 55.8292 10.6392C55.1117 10.7819 54.3902 10.8493 53.6608 10.7938C52.4477 10.6986 51.5558 9.96127 51.4527 8.64514C51.4091 8.08618 51.4051 7.51929 51.4646 6.9643C51.5597 6.08424 52.0434 5.3231 53.0265 5.04164C53.7638 4.83153 54.4774 4.86721 55.1553 5.25174C55.6548 5.53717 55.964 5.96927 56.1305 6.50841C56.2772 6.98412 56.301 7.47569 56.2851 7.96725C56.2772 8.23682 56.2177 8.29628 55.9402 8.29628C54.9809 8.29628 54.0215 8.29628 53.0582 8.29628C52.967 8.29628 52.8719 8.29628 52.7886 8.29628V8.30025ZM54.9174 7.32901C54.9214 6.89294 54.8223 6.50445 54.4536 6.25866C54.077 6.00892 53.6608 6.00892 53.2762 6.24281C52.8838 6.48066 52.7807 6.87312 52.7649 7.32901H54.9174Z" fill="#9C9C9C"/>
<path d="M54.2201 33.8674C54.1725 34.7316 54.6799 35.1597 55.1794 35.1954C55.3182 35.2033 55.4569 35.2271 55.5917 35.2192C56.1189 35.1954 56.6462 35.1676 57.1734 35.132C57.443 35.1161 57.4985 35.1557 57.5025 35.4214C57.5025 35.5958 57.5025 35.7662 57.5025 35.9407C57.5025 36.0913 57.439 36.1785 57.2844 36.2102C56.5431 36.3569 55.7899 36.4362 55.0407 36.3609C54.0813 36.2657 53.3598 35.8099 53.0268 34.8584C52.9475 34.6325 52.896 34.3906 52.8881 34.1528C52.8683 33.6374 52.8484 33.1142 52.9 32.5988C52.9832 31.7029 53.4669 30.9061 54.4579 30.6167C55.1953 30.4026 55.9088 30.4343 56.5907 30.8149C57.1021 31.1003 57.4113 31.5404 57.5817 32.0874C57.7284 32.5631 57.7403 33.0547 57.7284 33.5502C57.7245 33.8119 57.665 33.8674 57.3994 33.8674C56.44 33.8674 55.4807 33.8674 54.5174 33.8674C54.4222 33.8674 54.3311 33.8674 54.224 33.8674H54.2201ZM54.228 32.8842C54.5451 32.9437 56.1665 32.9278 56.3449 32.8684C56.4004 32.1786 55.9643 31.6553 55.3182 31.6514C54.672 31.6474 54.1963 32.1033 54.232 32.8842H54.228Z" fill="#9C9C9C"/>
<path d="M76.3792 35.9606C76.2722 36.0122 76.1929 36.0518 76.1057 36.0914C75.4516 36.3967 74.7856 36.4839 74.0998 36.2104C73.6479 36.032 73.3704 35.6911 73.2832 35.2193C73.2356 34.9696 73.2118 34.704 73.2316 34.4503C73.2911 33.5979 73.7985 33.1619 74.5755 33.0033C74.9799 32.9201 75.4001 32.9201 75.8123 32.8883C75.967 32.8764 76.1216 32.8883 76.3158 32.8883C76.3396 32.5474 76.3872 32.2263 76.2326 31.9211C76.1176 31.6991 75.8956 31.6198 75.6657 31.6198C75.1305 31.6198 74.5914 31.6198 74.0602 31.6713C73.4774 31.7228 73.5448 31.592 73.5527 31.2273C73.5527 31.2115 73.5527 31.1916 73.5527 31.1758C73.5527 30.6842 73.5527 30.6763 74.0324 30.601C74.6231 30.5098 75.2177 30.4503 75.8163 30.5058C76.3277 30.5574 76.8193 30.6842 77.1998 31.0727C77.4377 31.3145 77.5764 31.6079 77.628 31.9369C77.6636 32.1748 77.6874 32.4166 77.6914 32.6584C77.6993 33.7208 77.6914 34.7832 77.6914 35.8417C77.6914 35.921 77.6954 36.0003 77.6835 36.0756C77.6597 36.2064 77.5844 36.2936 77.4377 36.2936C77.18 36.2936 76.9184 36.2936 76.6607 36.2936C76.4546 36.2936 76.4228 36.1351 76.3832 35.9646L76.3792 35.9606ZM76.3317 33.7803C76.0304 33.7803 75.7648 33.7684 75.4992 33.7803C74.7658 33.812 74.5081 34.1173 74.5834 34.8387C74.5834 34.8546 74.5834 34.8744 74.5874 34.8903C74.6191 35.0766 74.7222 35.2035 74.9085 35.255C75.3763 35.3858 75.8123 35.2669 76.2326 35.0647C76.2801 35.0409 76.3237 34.9577 76.3237 34.9022C76.3317 34.5414 76.3277 34.1807 76.3277 33.7763L76.3317 33.7803Z" fill="#9C9C9C"/>
<path d="M84.5793 10.4327C84.2383 10.5476 83.9212 10.6824 83.5882 10.7617C83.1125 10.8727 82.6368 10.8251 82.1968 10.6071C81.7448 10.3851 81.507 9.99263 81.4396 9.50106C81.3524 8.87868 81.4118 8.28801 81.9153 7.83608C82.1571 7.61805 82.4544 7.4793 82.7755 7.43569C83.1958 7.38019 83.616 7.35641 84.0401 7.32469C84.1868 7.3128 84.3295 7.32469 84.5158 7.32469C84.5277 6.99566 84.5793 6.69041 84.4485 6.39706C84.3375 6.14335 84.1075 6.05614 83.8538 6.05614C83.3266 6.05614 82.7993 6.07992 82.2721 6.09974C82.2285 6.09974 82.1849 6.11163 82.1452 6.1156C81.8043 6.15128 81.7528 6.10371 81.7528 5.75882C81.7528 5.62007 81.7528 5.48132 81.7528 5.34257C81.7528 5.19986 81.8202 5.11661 81.9589 5.08886C82.8033 4.93425 83.6556 4.81929 84.5079 5.02543C85.2572 5.20382 85.7408 5.66764 85.8439 6.48427C85.8756 6.72213 85.8875 6.96791 85.8875 7.20577C85.8914 8.22458 85.8875 9.24339 85.8875 10.2622C85.8875 10.3494 85.8875 10.4366 85.8756 10.5199C85.8518 10.6428 85.7804 10.7221 85.6457 10.7221C85.3761 10.7221 85.1105 10.73 84.8409 10.7221C84.6823 10.7181 84.6467 10.6626 84.5832 10.4287L84.5793 10.4327ZM84.5238 8.21665C84.2185 8.21665 83.9529 8.20476 83.6873 8.21665C82.9579 8.25233 82.7002 8.56154 82.7795 9.28303C82.8073 9.51692 82.9064 9.63981 83.1363 9.69928C83.5882 9.8182 84.0084 9.70324 84.4128 9.51296C84.4643 9.48917 84.5198 9.41385 84.5198 9.36232C84.5277 8.99364 84.5238 8.62497 84.5238 8.21665Z" fill="#9C9C9C"/>
<path d="M96.9941 20.5641C97.0457 20.14 97.0576 19.7118 97.1567 19.3075C97.3628 18.4551 97.9138 17.912 98.7701 17.7019C99.4639 17.5315 100.142 17.587 100.776 17.9477C101.268 18.2292 101.597 18.6494 101.739 19.1806C101.985 20.0963 101.997 21.0319 101.739 21.9437C101.513 22.7405 100.95 23.24 100.13 23.4303C99.5669 23.5611 99.0119 23.5452 98.4728 23.3351C97.7751 23.0616 97.3152 22.5502 97.1567 21.8208C97.0655 21.4125 97.0457 20.9883 96.9941 20.5681V20.5641ZM100.586 20.5641C100.586 20.5641 100.554 20.5641 100.538 20.5602C100.538 20.3342 100.554 20.1082 100.538 19.8862C100.502 19.5057 100.384 19.1489 100.035 18.9388C99.5233 18.6296 98.6829 18.7366 98.453 19.581C98.3301 20.0408 98.3777 20.5086 98.3777 20.9724C98.3777 21.1786 98.4133 21.3847 98.4649 21.5829C98.5917 22.0586 98.9644 22.3401 99.452 22.348C99.9435 22.356 100.328 22.0943 100.451 21.6067C100.534 21.2698 100.546 20.909 100.59 20.5602L100.586 20.5641Z" fill="#9C9C9C"/>
<path d="M60.1894 30.9193C60.3519 30.84 60.4947 30.7647 60.6413 30.7013C61.2003 30.4674 61.7751 30.4119 62.3658 30.5546C62.893 30.6814 63.2339 31.0184 63.3767 31.5258C63.4639 31.839 63.5233 32.168 63.5313 32.4931C63.5511 33.6427 63.5471 34.7924 63.5471 35.938C63.5471 36.2234 63.4797 36.2829 63.1903 36.2829C62.9644 36.2829 62.7384 36.2829 62.5164 36.2829C62.2865 36.2789 62.2112 36.2036 62.1993 35.9697C62.1953 35.8905 62.1993 35.8151 62.1993 35.7358C62.1993 34.7408 62.1993 33.7498 62.1993 32.7547C62.1993 32.5803 62.1953 32.4098 62.1834 32.2354C62.1596 31.8826 62.0209 31.7082 61.68 31.6408C61.1646 31.5377 60.7087 31.7161 60.2727 31.9619C60.229 31.9857 60.2013 32.0768 60.1973 32.1403C60.1854 32.279 60.1934 32.4178 60.1934 32.5565C60.1934 33.6467 60.1934 34.7329 60.1934 35.8231C60.1934 35.9023 60.1934 35.9777 60.1894 36.0569C60.1775 36.1997 60.0943 36.2789 59.9516 36.2829C59.6661 36.2869 59.3807 36.2829 59.0953 36.2829C58.9486 36.2829 58.8733 36.1997 58.8614 36.0569C58.8574 35.9896 58.8574 35.9182 58.8574 35.8508C58.8574 34.2334 58.8574 32.6199 58.8574 31.0025C58.8574 30.9431 58.8574 30.8796 58.8574 30.8202C58.8733 30.6339 58.9288 30.5784 59.1191 30.5704C59.3093 30.5625 59.4996 30.5704 59.6899 30.5704C59.9357 30.5704 60.1035 30.6867 60.1934 30.9193H60.1894Z" fill="#9C9C9C"/>
<path d="M54.7985 18.0448C55.0125 17.9536 55.2187 17.8466 55.4367 17.7712C55.9838 17.577 56.5388 17.5532 57.0938 17.7237C57.5536 17.8664 57.8628 18.1954 57.9897 18.6553C58.0769 18.9684 58.1403 19.2975 58.1443 19.6225C58.1641 20.7801 58.1562 21.9377 58.1562 23.0952C58.1562 23.3529 58.0848 23.4242 57.8351 23.4282C57.6012 23.4282 57.3673 23.4282 57.1334 23.4282C56.8876 23.4282 56.8083 23.3489 56.8044 23.1031C56.7964 22.8177 56.8044 22.5323 56.8044 22.2469C56.8044 21.3827 56.8044 20.5185 56.7964 19.6542C56.7964 19.4759 56.7608 19.2935 56.7211 19.1191C56.6815 18.9565 56.5546 18.8693 56.396 18.8178C56.0472 18.7108 55.7102 18.7544 55.3772 18.8773C54.7905 19.0913 54.7905 19.0953 54.7905 19.7177C54.7905 20.8078 54.7905 21.894 54.7905 22.9842C54.7905 23.0437 54.7905 23.1071 54.7905 23.1666C54.7786 23.3529 54.7231 23.4242 54.5408 23.4282C54.2633 23.4361 53.9858 23.4361 53.7083 23.4282C53.5378 23.4242 53.4823 23.3569 53.4625 23.1864C53.4546 23.119 53.4625 23.0476 53.4625 22.9803C53.4625 21.3747 53.4625 19.7652 53.4625 18.1597C53.4625 18.1003 53.4625 18.0368 53.4625 17.9774C53.4784 17.7752 53.5299 17.7237 53.736 17.7157C53.9541 17.7078 54.1681 17.7157 54.3862 17.7157C54.6597 17.7157 54.6597 17.7157 54.7509 17.9813C54.7588 18.0051 54.7786 18.021 54.7985 18.0527V18.0448Z" fill="#9C9C9C"/>
<path d="M69.5076 5.35962C69.6701 5.28033 69.8128 5.20501 69.9635 5.14158C70.5304 4.89976 71.1171 4.84823 71.7157 4.99887C72.231 5.12573 72.564 5.46665 72.7067 5.96218C72.8019 6.29121 72.8613 6.64007 72.8653 6.98099C72.8851 8.1108 72.8772 9.24458 72.8772 10.3744C72.8772 10.6598 72.8098 10.7232 72.5244 10.7272C72.2905 10.7272 72.0566 10.7312 71.8227 10.7272C71.6245 10.7232 71.5452 10.644 71.5254 10.4457C71.5175 10.3783 71.5254 10.307 71.5254 10.2396C71.5254 9.23665 71.5254 8.23369 71.5254 7.2347C71.5254 7.05235 71.5254 6.86999 71.5095 6.6916C71.4778 6.29914 71.3034 6.12075 70.907 6.07318C70.5423 6.02957 70.2053 6.12472 69.8763 6.26743C69.8446 6.27932 69.8168 6.29914 69.7811 6.31103C69.571 6.37843 69.5076 6.51718 69.5076 6.73917C69.5195 7.92448 69.5116 9.10583 69.5116 10.2911C69.5116 10.3585 69.5116 10.4299 69.5116 10.4973C69.5076 10.644 69.4243 10.7232 69.2816 10.7272C68.9962 10.7351 68.7108 10.7272 68.4254 10.7272C68.2787 10.7272 68.1994 10.6479 68.1915 10.5052C68.1875 10.4259 68.1875 10.3506 68.1875 10.2713C68.1875 8.6658 68.1875 7.05631 68.1875 5.45079C68.1875 5.03058 68.2034 5.01473 68.6275 5.01473C68.7663 5.01473 68.905 5.01473 69.0438 5.01473C69.2763 5.01473 69.4336 5.13101 69.5155 5.36358L69.5076 5.35962Z" fill="#9C9C9C"/>
<path d="M49.3719 4.37666C49.3719 4.51937 49.3719 4.62244 49.3719 4.72551C49.3719 6.56492 49.3719 8.40433 49.3719 10.2437C49.3719 10.323 49.3719 10.3983 49.3719 10.4776C49.36 10.66 49.2966 10.7274 49.1142 10.7313C48.8209 10.7393 48.5236 10.7393 48.2302 10.7313C48.032 10.7274 47.9765 10.6639 47.9725 10.4578C47.9686 10.1882 47.9725 9.92264 47.9725 9.65307C47.9725 7.99601 47.9725 6.33499 47.9725 4.67794C47.9725 4.37666 47.9725 4.37666 47.6673 4.37666C47.2273 4.37666 46.7833 4.37666 46.3432 4.37666C46.0221 4.37666 45.9825 4.33305 45.9785 4.01988C45.9785 3.84545 45.9785 3.67499 45.9785 3.50056C45.9825 3.25478 46.038 3.20324 46.2917 3.19531C46.3353 3.19531 46.3789 3.19531 46.4225 3.19531C47.921 3.19531 49.4195 3.19531 50.914 3.19531C50.9735 3.19531 51.0369 3.19531 51.0964 3.19531C51.2946 3.20721 51.358 3.27063 51.362 3.46885C51.3659 3.67499 51.3659 3.88509 51.362 4.09123C51.358 4.30927 51.3065 4.36873 51.0805 4.37269C50.7277 4.38062 50.3709 4.37269 50.0141 4.37269C49.808 4.37269 49.6058 4.37269 49.3719 4.37269V4.37666Z" fill="#9C9C9C"/>
<path d="M62.3914 17.7049C62.5222 17.7049 62.653 17.7049 62.7799 17.7049C63.0058 17.7089 63.0693 17.7604 63.1208 17.9784C63.2397 18.4819 63.3507 18.9853 63.4657 19.4928C63.6718 20.3847 63.874 21.2727 64.0801 22.1647C64.0881 22.1964 64.092 22.236 64.1158 22.2598C64.1594 22.3074 64.2189 22.3827 64.2625 22.3787C64.322 22.3708 64.4052 22.3074 64.425 22.2519C64.4924 22.0497 64.54 21.8356 64.5915 21.6255C64.7541 20.9199 64.9166 20.2143 65.0791 19.5086C65.1822 19.0646 65.2813 18.6167 65.3844 18.1727C65.3923 18.141 65.3963 18.1053 65.4042 18.0696C65.4914 17.7247 65.5192 17.7049 65.8839 17.7049C66.1178 17.7049 66.3517 17.7009 66.5855 17.7049C66.8075 17.7128 66.867 17.7881 66.8075 18.0022C66.5538 18.9338 66.2962 19.8654 66.0345 20.793C65.8759 21.3678 65.7134 21.9387 65.5548 22.5096C65.4478 22.8901 65.2615 23.2192 64.8809 23.3777C64.2665 23.6394 63.2833 23.5482 63.0177 22.5571C62.7482 21.5423 62.4508 20.5314 62.1694 19.5205C62.0386 19.0488 61.9038 18.5731 61.773 18.1013C61.7571 18.0418 61.7373 17.9824 61.7333 17.9269C61.7254 17.7762 61.769 17.7207 61.9236 17.7089C62.0782 17.697 62.2368 17.7089 62.3914 17.7089V17.7049Z" fill="#9C9C9C"/>
<path d="M78.8081 23.5332C78.3166 23.4658 77.8052 23.3984 77.2898 23.3231C77.0678 23.2914 77.0123 23.2121 77.0084 22.9941C77.0084 22.8315 77.0084 22.665 77.0084 22.5025C77.0084 22.3638 77.0876 22.2964 77.2224 22.3003C77.3096 22.3003 77.3929 22.3202 77.4801 22.3241C77.9796 22.3519 78.483 22.3757 78.9825 22.3994C79.0856 22.4034 79.1926 22.3994 79.2918 22.3757C79.6287 22.3003 79.7595 21.896 79.5138 21.6502C79.3948 21.5273 79.2442 21.4361 79.0975 21.345C78.7169 21.1071 78.3324 20.8772 77.9479 20.6393C77.5673 20.4054 77.2264 20.1319 77.0559 19.6958C76.7864 18.9862 76.9608 17.9238 78.1263 17.6978C78.8636 17.5512 79.5891 17.6265 80.3185 17.7494C80.4216 17.7652 80.5246 17.7851 80.6237 17.8049C80.7744 17.8406 80.8695 17.9278 80.8735 18.0903C80.8735 18.2528 80.8854 18.4193 80.8735 18.5819C80.8576 18.7959 80.8061 18.8356 80.596 18.8237C80.2432 18.7999 79.8904 18.7523 79.5375 18.7365C79.2442 18.7246 78.9469 18.7206 78.6575 18.7484C78.4117 18.7722 78.2967 18.9307 78.3086 19.1488C78.3166 19.2875 78.4077 19.3668 78.5108 19.4342C78.7883 19.6126 79.0698 19.7791 79.3473 19.9535C79.6763 20.1596 80.0133 20.3579 80.3304 20.5799C81.1629 21.1586 81.1431 22.1814 80.7704 22.7364C80.5207 23.109 80.1639 23.3231 79.7358 23.4143C79.4424 23.4777 79.1371 23.4936 78.8081 23.5332Z" fill="#9C9C9C"/>
<path d="M103.447 17.6824C103.447 17.4961 103.436 17.3375 103.447 17.1869C103.475 16.9213 103.499 16.6517 103.57 16.398C103.661 16.065 103.887 15.8272 104.212 15.7003C104.728 15.4981 105.259 15.4862 105.794 15.6171C105.929 15.6488 106.004 15.7241 106 15.8708C105.996 16.0095 106 16.1483 106 16.287C105.992 16.4932 105.945 16.5407 105.735 16.5526C105.56 16.5606 105.39 16.5566 105.215 16.5685C104.942 16.5883 104.819 16.6993 104.799 16.9689C104.783 17.1988 104.799 17.4327 104.799 17.7023C104.958 17.7023 105.1 17.7023 105.243 17.7023C105.398 17.7023 105.556 17.6983 105.711 17.7023C105.881 17.7102 105.953 17.7657 105.969 17.9322C105.985 18.1106 105.981 18.2929 105.969 18.4753C105.961 18.6299 105.854 18.7012 105.707 18.7052C105.509 18.7052 105.311 18.7052 105.108 18.7052C105.017 18.7052 104.922 18.7052 104.791 18.7052C104.791 18.836 104.791 18.9351 104.791 19.0342C104.791 20.3385 104.791 21.6427 104.791 22.947C104.791 23.0262 104.791 23.1016 104.791 23.1808C104.779 23.3196 104.7 23.4068 104.557 23.4108C104.272 23.4147 103.987 23.4108 103.701 23.4108C103.558 23.4108 103.479 23.3275 103.463 23.1888C103.455 23.1016 103.455 23.0183 103.455 22.9311C103.455 21.6269 103.455 20.3226 103.455 19.0184C103.455 18.6973 103.443 18.6894 103.13 18.6497C102.94 18.6259 102.754 18.5902 102.567 18.5585C102.429 18.5347 102.353 18.4555 102.357 18.3088C102.357 18.1899 102.353 18.067 102.357 17.948C102.369 17.7617 102.421 17.7102 102.619 17.7023C102.801 17.6943 102.984 17.7023 103.166 17.7023C103.249 17.7023 103.336 17.6943 103.463 17.6864L103.447 17.6824Z" fill="#9C9C9C"/>
<path d="M85.4968 17.7049C85.4968 17.4314 85.4968 17.2054 85.4968 16.9834C85.5008 16.7574 85.5444 16.7019 85.7505 16.6623C86.0201 16.6068 86.2936 16.5592 86.5672 16.5156C86.7535 16.4839 86.8248 16.5473 86.8328 16.7337C86.8407 16.9596 86.8328 17.1816 86.8328 17.4076C86.8328 17.4908 86.8328 17.578 86.8328 17.7049C87.0468 17.7049 87.2332 17.7049 87.4234 17.7049C87.5106 17.7049 87.5979 17.7049 87.6811 17.7049C87.8872 17.7168 87.9467 17.7683 87.9546 17.9705C87.9626 18.1251 87.9626 18.2797 87.9546 18.4383C87.9467 18.6365 87.8873 18.6999 87.6851 18.7118C87.4869 18.7237 87.2886 18.7118 87.0865 18.7158C86.8407 18.7158 86.8328 18.7277 86.8288 18.9616C86.8288 19.9645 86.8288 20.9635 86.8288 21.9665C86.8288 22.0338 86.8288 22.1052 86.8447 22.1726C86.8843 22.3867 86.9557 22.4501 87.1737 22.458C87.356 22.4659 87.5384 22.458 87.7208 22.462C87.9309 22.4699 87.9824 22.5135 87.9903 22.7236C87.9983 22.8782 87.9943 23.0328 87.9903 23.1914C87.9864 23.3262 87.9229 23.4094 87.7763 23.4372C87.3283 23.5204 86.8843 23.5284 86.4363 23.453C85.8496 23.3539 85.5999 22.9972 85.5246 22.4184C85.4928 22.1885 85.4968 21.9546 85.4968 21.7207C85.4968 20.8129 85.4968 19.905 85.4968 19.0012C85.4968 18.7158 85.473 18.6999 85.1955 18.6642C84.9894 18.6405 84.7832 18.6087 84.5811 18.5691C84.4066 18.5374 84.3472 18.466 84.3313 18.2916C84.2838 17.7762 84.3472 17.7089 84.8625 17.7089C85.0607 17.7089 85.259 17.7089 85.4968 17.7089V17.7049Z" fill="#9C9C9C"/>
<path d="M58.5104 7.85994C58.5501 8.23654 58.558 8.62107 58.6452 8.98578C58.7522 9.45356 59.0694 9.67953 59.553 9.67556C59.9257 9.67556 60.2943 9.64385 60.667 9.61213C60.9881 9.58438 61.0555 9.63195 61.0555 9.95306C61.0555 10.0997 61.0555 10.2464 61.0515 10.3931C61.0475 10.5358 60.9841 10.6428 60.8335 10.6706C60.001 10.8331 59.1685 10.9322 58.3677 10.5398C57.8325 10.2781 57.4876 9.84206 57.3449 9.27121C57.1071 8.31582 57.0952 7.35251 57.3608 6.40506C57.555 5.69942 58.0466 5.23957 58.7562 5.03343C59.4301 4.83918 60.112 4.91054 60.7859 5.04532C61 5.08893 61.0436 5.15632 61.0515 5.36643C61.0594 5.52896 61.0594 5.69546 61.0515 5.85799C61.0436 6.07603 60.9801 6.13549 60.7621 6.1236C60.3895 6.10378 60.0208 6.07206 59.6482 6.0562C58.9584 6.02449 58.6373 6.42092 58.5699 7.05123C58.5421 7.31684 58.5659 7.5864 58.5659 7.85201C58.5461 7.85201 58.5302 7.85201 58.5104 7.85201V7.85994Z" fill="#9C9C9C"/>
<path d="M78.0061 7.88848C78.0061 8.1303 77.9902 8.37212 78.01 8.61394C78.0219 8.7844 78.0615 8.95883 78.121 9.11343C78.2637 9.48211 78.5571 9.66843 78.9456 9.67239C79.3063 9.67239 79.671 9.64068 80.0357 9.62482C80.1031 9.62482 80.1745 9.605 80.2419 9.605C80.4084 9.605 80.4837 9.66446 80.4916 9.83096C80.4996 10.0212 80.4956 10.2115 80.4916 10.4018C80.4916 10.5485 80.4163 10.6476 80.2657 10.6753C80.0873 10.711 79.9089 10.7507 79.7305 10.7665C79.0724 10.8339 78.4144 10.8537 77.7999 10.5406C77.2964 10.2829 76.9714 9.8706 76.797 9.34336C76.678 8.97865 76.6265 8.60204 76.6384 8.22148C76.6542 7.74577 76.6424 7.27006 76.7058 6.80228C76.8525 5.71211 77.6572 4.99855 78.7632 4.93115C79.2231 4.9034 79.679 4.93908 80.1348 5.02233C80.4401 5.07783 80.4956 5.14126 80.4996 5.45047C80.4996 5.5694 80.4996 5.69229 80.4996 5.81518C80.4956 6.09268 80.4322 6.14421 80.1507 6.12439C79.7979 6.10061 79.4451 6.07682 79.0883 6.06096C78.4064 6.02925 78.0814 6.42964 78.014 7.06392C77.9862 7.33745 78.01 7.61495 78.01 7.89244L78.0061 7.88848Z" fill="#9C9C9C"/>
<path d="M88.5743 6.88263C88.5743 8.00451 88.5743 9.12639 88.5743 10.2522C88.5743 10.3315 88.5782 10.4068 88.5703 10.4861C88.5505 10.6645 88.4831 10.7319 88.3047 10.7359C88.0351 10.7438 87.7695 10.7438 87.5 10.7359C87.3136 10.7319 87.2383 10.6526 87.2225 10.4663C87.2185 10.4068 87.2225 10.3474 87.2225 10.284C87.2225 8.01244 87.2225 5.74093 87.2225 3.46941C87.2225 3.40202 87.2185 3.33067 87.2264 3.26327C87.2462 3.10867 87.3216 3.03335 87.4841 3.02938C87.7616 3.02146 88.0391 3.02146 88.3166 3.02938C88.4871 3.02938 88.5505 3.09678 88.5703 3.25931C88.5822 3.33463 88.5743 3.41392 88.5743 3.4932C88.5743 4.62301 88.5743 5.75678 88.5743 6.88659V6.88263Z" fill="#9C9C9C"/>
<path d="M74.6619 18.0019C75.0068 17.883 75.3279 17.764 75.653 17.661C75.7561 17.6292 75.875 17.6213 75.986 17.6174C76.208 17.6134 76.2794 17.6808 76.2873 17.9067C76.2952 18.0772 76.2912 18.2516 76.2873 18.4261C76.2833 18.6956 76.2397 18.7392 75.9741 18.767C75.6292 18.7987 75.2923 18.8661 74.9672 18.9929C74.7412 19.0802 74.6619 19.207 74.6659 19.4528C74.6818 20.6183 74.6738 21.7838 74.6738 22.9493C74.6738 23.0167 74.6738 23.088 74.6738 23.1554C74.6619 23.3378 74.6025 23.4131 74.4241 23.417C74.1466 23.425 73.8691 23.425 73.5956 23.417C73.4251 23.4131 73.3696 23.3497 73.3458 23.1792C73.3379 23.1039 73.3379 23.0246 73.3379 22.9453C73.3379 21.3477 73.3379 19.7541 73.3379 18.1565C73.3379 18.1208 73.3379 18.0891 73.3379 18.0534C73.3458 17.7561 73.3934 17.7085 73.6867 17.7046C73.8493 17.7046 74.0158 17.7046 74.1783 17.7046C74.4188 17.7046 74.58 17.8037 74.6619 18.0019Z" fill="#9C9C9C"/>
<path d="M80.3044 30.8788C80.6532 30.7599 80.9783 30.6132 81.3192 30.5339C81.9416 30.3952 81.9495 30.5458 81.9376 31.0097C81.9376 31.1207 81.9376 31.2356 81.9376 31.3466C81.9257 31.5646 81.8782 31.6162 81.6562 31.636C81.2915 31.6677 80.9386 31.7351 80.5977 31.8739C80.3995 31.9531 80.3123 32.0641 80.3123 32.2941C80.3242 33.4754 80.3202 34.6568 80.3162 35.8421C80.3162 35.9214 80.3162 35.9967 80.3162 36.076C80.3083 36.2107 80.229 36.2861 80.1022 36.29C79.8088 36.298 79.5155 36.294 79.2221 36.29C79.0913 36.29 79.012 36.2147 79.0001 36.0839C78.9922 36.0086 78.9922 35.9293 78.9922 35.85C78.9922 34.2365 78.9922 32.6231 78.9922 31.0097C78.9922 30.5934 79.008 30.5776 79.4322 30.5776C79.571 30.5776 79.7097 30.5776 79.8485 30.5776C80.0784 30.5776 80.2304 30.678 80.3044 30.8788Z" fill="#9C9C9C"/>
<path d="M74.1895 7.85975C74.1895 7.03915 74.1895 6.22252 74.1895 5.40192C74.1895 5.05703 74.2291 5.01739 74.5779 5.01739C74.8039 5.01739 75.0259 5.01342 75.2519 5.01739C75.4541 5.02532 75.5095 5.08081 75.5254 5.28299C75.5294 5.35038 75.5254 5.42174 75.5254 5.48913C75.5254 7.07483 75.5254 8.66449 75.5254 10.2502C75.5254 10.2938 75.5254 10.3374 75.5254 10.381C75.5175 10.6744 75.4659 10.7299 75.1766 10.7299C74.9704 10.7299 74.7603 10.7299 74.5542 10.7299C74.241 10.7299 74.1895 10.6783 74.1895 10.3691C74.1895 9.53266 74.1895 8.69621 74.1895 7.85975Z" fill="#9C9C9C"/>
<path d="M59.4766 20.5263C59.4766 19.7295 59.4766 18.9366 59.4766 18.1398C59.4766 18.0724 59.4766 18.0011 59.4766 17.9337C59.4845 17.787 59.5638 17.7077 59.7065 17.7077C59.992 17.7037 60.2774 17.6998 60.5628 17.7077C60.7333 17.7117 60.7848 17.7751 60.8046 17.9495C60.8126 18.0169 60.8046 18.0883 60.8046 18.1557C60.8046 19.7533 60.8046 21.3508 60.8046 22.9524C60.8046 23.0039 60.8046 23.0555 60.8046 23.107C60.7928 23.3528 60.7372 23.4123 60.4915 23.4162C60.2576 23.4202 60.0237 23.4162 59.7898 23.4162C59.5321 23.4123 59.4727 23.3528 59.4727 23.0872C59.4727 22.2309 59.4727 21.3746 59.4727 20.5223L59.4766 20.5263Z" fill="#9C9C9C"/>
<path d="M82.1328 20.5335C82.1328 19.7129 82.1328 18.8923 82.1328 18.0717C82.1328 17.7545 82.1764 17.7149 82.4936 17.7109C82.7116 17.7109 82.9257 17.7109 83.1437 17.7109C83.4053 17.7149 83.4569 17.7664 83.4648 18.036C83.4648 18.0796 83.4648 18.1232 83.4648 18.1668C83.4648 19.7644 83.4648 21.362 83.4648 22.9636C83.4648 23.0151 83.4648 23.0666 83.4648 23.1182C83.4529 23.3679 83.3974 23.4234 83.1516 23.4274C82.9177 23.4313 82.6838 23.4274 82.45 23.4274C82.1923 23.4234 82.1328 23.364 82.1328 23.0983C82.1328 22.2421 82.1328 21.3858 82.1328 20.5335Z" fill="#9C9C9C"/>
<path d="M74.8673 2.93321C75.014 2.93321 75.1607 2.92528 75.3074 2.93321C75.4778 2.94114 75.5571 3.02042 75.565 3.19089C75.573 3.44856 75.573 3.70624 75.565 3.96391C75.5571 4.1542 75.4857 4.22159 75.2875 4.22555C75.0021 4.23348 74.7206 4.23348 74.4352 4.22555C74.2449 4.22159 74.1775 4.16213 74.1696 3.98374C74.1577 3.71813 74.1617 3.45253 74.1696 3.18296C74.1775 3.00457 74.2449 2.94114 74.4313 2.93321C74.5779 2.92528 74.7246 2.93321 74.8713 2.93321H74.8673Z" fill="#9C9C9C"/>
<path d="M82.7829 16.9193C82.6363 16.9193 82.4896 16.9193 82.3429 16.9193C82.1962 16.9193 82.113 16.8321 82.113 16.6934C82.105 16.4159 82.1011 16.1384 82.113 15.8648C82.1209 15.7023 82.1962 15.6349 82.3627 15.6309C82.6561 15.623 82.9534 15.623 83.2467 15.6309C83.4212 15.6349 83.5005 15.7142 83.5084 15.8847C83.5163 16.1423 83.5163 16.404 83.5084 16.6617C83.5044 16.84 83.4291 16.9114 83.2507 16.9193C83.0961 16.9273 82.9375 16.9193 82.7829 16.9193Z" fill="#9C9C9C"/>
<path d="M60.1308 16.9233C59.992 16.9233 59.8533 16.9273 59.7145 16.9233C59.5242 16.9154 59.4568 16.8559 59.4489 16.6775C59.437 16.4119 59.441 16.1423 59.4489 15.8728C59.4568 15.7102 59.5282 15.6349 59.6947 15.6309C59.996 15.623 60.3012 15.623 60.6025 15.6309C60.7611 15.6349 60.8404 15.7182 60.8443 15.8807C60.8523 16.1463 60.8523 16.4159 60.8443 16.6854C60.8364 16.844 60.7571 16.9154 60.5946 16.9233C60.44 16.9312 60.2814 16.9233 60.1268 16.9233H60.1308Z" fill="#9C9C9C"/>
</svg>
