<svg width="223" height="35" viewBox="0 0 223 35" fill="none" xmlns="http://www.w3.org/2000/svg">
<path d="M53.0351 0.78125H52.1797V34.9971H53.0351V0.78125Z" fill="#9C9C9C"/>
<path d="M37.3085 11.9062H33.6888H33.4695L33.3842 12.1134L30.7517 17.9272L28.1314 12.1134L28.0339 11.9062H27.8267H24.329H23.9999V12.2688V14.2499V14.5995H24.329H24.9262V22.9123H24.2802H23.9512V23.2619V25.243V25.5926H24.2802H28.2045H28.5336V25.243V23.2619V22.9123H28.2045H27.5221V17.0208L30.4592 23.4432L30.7517 24.1036L31.0564 23.4432L34.0301 16.9949V22.9123H33.372H33.0429V23.2619V25.243V25.5926H33.372H37.3085H37.6375V25.243V23.2619V22.9123H37.3085H36.626V14.5995H37.3085H37.6375V14.2499V12.2688V11.9062H37.3085Z" fill="#9C9C9C"/>
<path d="M14.1909 22.907H13.0733L9.44759 14.579H10.1883V11.9062H4.34043V14.579H5.13315L1.50746 22.907H0V25.5926H5.28909V22.907H4.50937L5.12015 21.5125H9.47358L10.0714 22.8941H9.26566V25.5797H14.5418V22.907H14.1909ZM8.304 18.8398H6.28973L7.30337 16.5157L8.304 18.8398Z" fill="#9C9C9C"/>
<path d="M32.9604 2.49219H4.27734V10.8428H9.95889V7.64547H15.9908V27.6066H12.7871V33.2865H24.8511V27.6066H21.6474V7.64547H27.6543V10.8177H33.3609V2.49219H32.9604ZM22.4733 29.9262L23.7248 28.6724V32.0577L22.4733 30.9167V29.9262ZM20.471 28.7852L19.2196 29.9638V5.28825L20.471 6.54209V28.7852ZM6.70514 4.84941L5.4537 3.59557H31.6088L30.0696 4.84941H6.70514ZM32.222 9.7143L30.9706 8.57331V5.57663L32.222 4.32279V9.7143Z" fill="#9C9C9C"/>
<path d="M85.4023 7.08014H84.0529C84.021 6.19634 83.752 5.33398 83.2702 4.57143C82.9568 4.10914 82.4795 3.7631 81.9208 3.59303C81.3973 3.46232 80.857 3.39901 80.315 3.40488H77.913V16.5882C77.8922 17.0126 77.9516 17.4371 78.0884 17.8425C78.1653 17.9979 78.2757 18.1371 78.4126 18.2514C78.5495 18.3657 78.7101 18.4528 78.8846 18.5073C79.4752 18.6916 80.0975 18.7725 80.7198 18.7456V20H71.0444V18.7456C71.8454 18.8388 72.6563 18.6703 73.3384 18.269C73.732 17.8038 73.9159 17.2146 73.8512 16.6258V3.45505H71.8001C71.1248 3.44098 70.4501 3.49992 69.7894 3.63066C69.2268 3.79382 68.7472 4.14155 68.44 4.60906C67.9647 5.36976 67.7264 6.23838 67.7518 7.11777H66.4023V2H85.4023V7.08014Z" fill="#9C9C9C"/>
<path d="M102.402 14.1331L102.253 20H86.4023V18.7517C87.1421 18.8465 87.8917 18.6787 88.5207 18.2774C88.8842 17.8144 89.054 17.2281 88.9942 16.6422V5.40777C89.015 4.98621 88.9644 4.56417 88.8447 4.1595C88.7778 4.00495 88.6804 3.86556 88.5584 3.74972C88.4363 3.63387 88.2921 3.54398 88.1344 3.48544C87.5769 3.2988 86.9894 3.21836 86.4023 3.24827V2H101.169L101.405 6.63107H100.159C99.9965 5.84 99.6789 5.08908 99.2248 4.42164C98.9199 4.0079 98.4783 3.71596 97.9787 3.59778C97.3209 3.4802 96.6528 3.43001 95.9849 3.44799H92.745V9.75173H94.5519C95.0228 9.77268 95.4939 9.7179 95.9475 9.58946C96.0954 9.54097 96.2305 9.45967 96.3427 9.3516C96.4549 9.24353 96.5413 9.1115 96.5955 8.96533C96.7483 8.49735 96.8323 8.00957 96.8447 7.51734H98.0908V13.4466H96.8447C96.8421 12.9524 96.7535 12.4624 96.583 11.9986C96.5231 11.8538 96.4333 11.7233 96.3195 11.6157C96.2057 11.5082 96.0704 11.426 95.9226 11.3745C95.4729 11.248 95.0061 11.1932 94.5394 11.2122H92.745V15.5811C92.745 16.2802 92.745 16.8294 92.745 17.1165C92.7688 17.4073 92.8676 17.6868 93.0316 17.9279C93.2166 18.1676 93.4824 18.3318 93.7793 18.3897C94.2608 18.5034 94.7551 18.5538 95.2497 18.5395H96.6827C97.3016 18.5501 97.9187 18.4702 98.5145 18.3024C99.1581 18.0798 99.7188 17.6662 100.122 17.1165C100.745 16.2312 101.127 15.1988 101.231 14.1207L102.402 14.1331Z" fill="#9C9C9C"/>
<path d="M139.072 18.4702C138.75 18.2829 138.487 18.0093 138.314 17.6806C138.128 17.3352 137.842 16.6813 137.457 15.719L132.038 2H130.795L125.674 15.3119C125.403 16.0572 125.07 16.7793 124.68 17.4709C124.448 17.8941 124.11 18.251 123.698 18.5072C123.522 18.5983 123.334 18.6648 123.139 18.7046C122.824 18.6697 122.515 18.595 122.219 18.4825C121.746 18.2611 121.323 17.9462 120.976 17.5572C120.412 16.9442 119.881 16.3018 119.386 15.6326L115.06 10.0192L118.23 6.40439C118.926 5.6148 119.473 5.04729 119.808 4.70185C120.171 4.35313 120.591 4.0693 121.051 3.86292C121.597 3.63371 122.186 3.5243 122.779 3.54215V2.30843H115.458V3.54215H116.067C116.49 3.50675 116.916 3.57013 117.31 3.72721C117.417 3.78946 117.504 3.88036 117.561 3.98947C117.618 4.09859 117.643 4.22149 117.633 4.34407C117.64 4.51941 117.602 4.69359 117.521 4.8499C117.447 4.98561 117.273 5.22001 117.024 5.54078L114.215 8.78547L111.73 5.6148C111.373 5.20334 111.102 4.72514 110.934 4.20836C110.916 4.08188 110.944 3.95317 111.012 3.84485C111.08 3.73654 111.185 3.65556 111.307 3.61617C111.673 3.53045 112.049 3.49312 112.426 3.50514H113.109V2.27142H103.415V3.50514C103.965 3.48473 104.514 3.55136 105.043 3.70253C105.426 3.83184 105.772 4.05206 106.05 4.34407C106.335 4.64016 106.808 5.20767 107.454 6.04661L111.73 11.6354L108.573 15.3365C107.904 16.1369 107.182 16.8912 106.41 17.5942C105.977 17.9948 105.471 18.3089 104.919 18.5195C104.429 18.6778 103.917 18.761 103.402 18.7663V20H111.208V18.7663C110.794 18.7915 110.379 18.7915 109.965 18.7663C109.681 18.7413 109.41 18.6388 109.182 18.4702C109.073 18.3861 108.987 18.2769 108.931 18.1522C108.874 18.0275 108.85 17.891 108.859 17.7546C108.994 17.1072 109.333 16.5195 109.828 16.0768L112.575 12.7457L115.446 16.4469C115.772 16.7985 116.01 17.2211 116.142 17.6806C116.16 17.8552 116.114 18.0304 116.014 18.1751C115.914 18.3197 115.765 18.4243 115.595 18.4702C115.192 18.5917 114.773 18.65 114.352 18.6429H113.532V19.8766H128.533V18.6429C128.052 18.6514 127.573 18.5806 127.116 18.4332C126.917 18.3619 126.748 18.2253 126.637 18.0459C126.526 17.8664 126.48 17.6549 126.507 17.4462C126.556 16.9649 126.682 16.4943 126.88 16.0521L127.315 14.9047H133.069L133.902 16.9897C134.005 17.2407 134.06 17.5084 134.064 17.7793C134.078 17.9343 134.038 18.0894 133.949 18.2179C133.861 18.3463 133.73 18.44 133.579 18.4825C133.074 18.5991 132.556 18.6489 132.038 18.6306V19.8643H140.402V18.6306C139.953 18.6869 139.496 18.6318 139.072 18.4702ZM127.887 13.7327L130.223 7.56408L132.709 13.7327H127.887Z" fill="#9C9C9C"/>
<path d="M154.401 14.7037C154.392 15.288 154.278 15.8654 154.065 16.4065C153.826 17.0376 153.484 17.6219 153.055 18.1341C152.584 18.7011 152.002 19.1586 151.347 19.4765C150.596 19.8397 149.773 20.0183 148.943 19.9985C148.027 19.9939 147.121 19.7907 146.286 19.4019C145.41 19.0032 144.642 18.3886 144.049 17.6121C143.806 18.1703 143.636 18.7597 143.545 19.3646H142.402V13.4235H143.545C143.74 14.258 144.026 15.0669 144.398 15.8347C144.779 16.572 145.312 17.213 145.961 17.7115C146.649 18.2603 147.497 18.5497 148.366 18.5319C149.108 18.5709 149.835 18.3127 150.398 17.811C150.77 17.4506 151.023 16.9769 151.118 16.4585C151.213 15.9401 151.146 15.4039 150.927 14.9274C150.755 14.608 150.522 14.3287 150.241 14.1071C149.866 13.8068 149.463 13.5446 149.039 13.324C148.522 13.0506 147.933 12.7523 147.272 12.4416C146.393 12.03 145.555 11.5304 144.771 10.9501C144.212 10.538 143.713 10.044 143.292 9.48343C142.988 9.07515 142.753 8.61725 142.595 8.12866C142.471 7.72651 142.406 7.30762 142.402 6.88574C142.411 6.07743 142.623 5.2853 143.016 4.58634C143.437 3.81164 144.051 3.16784 144.795 2.72197C145.616 2.23078 146.552 1.98146 147.5 2.00107C148.281 1.99767 149.051 2.18506 149.748 2.54796C150.463 2.90639 151.097 3.41428 151.612 4.03946C151.797 3.54948 151.934 3.04146 152.021 2.5231H153.223V7.37048H152.021C151.219 4.73549 149.78 3.418 147.704 3.418C147.055 3.3854 146.417 3.60233 145.913 4.02703C145.694 4.21849 145.519 4.45888 145.402 4.73013C145.286 5.00138 145.23 5.29643 145.24 5.5931C145.232 6.06493 145.381 6.52524 145.661 6.89817C145.964 7.28643 146.341 7.60766 146.767 7.84278C147.224 8.1038 147.969 8.4891 148.991 8.98627C149.986 9.46151 150.957 9.98835 151.9 10.5648C152.589 11.0065 153.188 11.5803 153.668 12.2551C154.164 12.967 154.421 13.8267 154.401 14.7037Z" fill="#9C9C9C"/>
<path d="M183.016 20.4387H174.309V19.1497C174.852 19.1685 175.394 19.1165 175.923 18.995C176.081 18.9506 176.218 18.8528 176.311 18.7186C176.404 18.5844 176.446 18.4222 176.431 18.2603C176.426 17.9774 176.369 17.6977 176.262 17.4354L175.377 15.2571H169.351L168.895 16.4558C168.692 16.9183 168.565 17.41 168.518 17.9123C168.49 18.1304 168.538 18.3514 168.654 18.5388C168.77 18.7263 168.947 18.869 169.156 18.9435C169.634 19.0982 170.136 19.1722 170.639 19.1626V20.4516H164.236V19.1626C164.687 19.1759 165.134 19.0785 165.538 18.879C165.968 18.6113 166.323 18.2385 166.566 17.7963C166.974 17.0737 167.322 16.3193 167.607 15.5406L172.969 1.63281H174.27L179.932 15.966C180.348 16.9714 180.647 17.6674 180.83 18.0154C181.01 18.3592 181.285 18.6452 181.623 18.8404C182.067 19.0603 182.56 19.1624 183.055 19.1368L183.016 20.4387ZM174.843 13.9939L172.24 7.54912L169.806 13.9939H174.843Z" fill="#9C9C9C"/>
<path d="M222.365 20.4555H213.137V19.202C213.731 19.2349 214.325 19.1583 214.89 18.9763C215.051 18.9161 215.197 18.8252 215.321 18.709C215.445 18.5927 215.544 18.4534 215.612 18.2994C215.746 17.895 215.802 17.4702 215.779 17.0459V5.76395L208.832 20.3176H208.007L200.97 5.76395V16.4316C200.943 16.8491 200.943 17.2677 200.97 17.6852C201 17.9625 201.107 18.2266 201.279 18.4499C201.488 18.6832 201.768 18.8457 202.078 18.9137C202.572 19.0268 203.079 19.0773 203.586 19.0641V20.3176H196.807V19.0641C197.315 19.0784 197.822 19.0235 198.315 18.9011C198.623 18.8298 198.899 18.6626 199.101 18.4248C199.269 18.2008 199.372 17.9364 199.397 17.6601C199.421 17.2426 199.421 16.8241 199.397 16.4066V6.40326C199.411 5.85722 199.368 5.31125 199.268 4.77364C199.226 4.60409 199.143 4.44658 199.027 4.31378C198.91 4.18097 198.764 4.07658 198.598 4.00898C198.004 3.79926 197.373 3.70969 196.742 3.74574V2.49219H203.457L209.696 15.1781L215.818 2.54233H222.404V3.79588C221.639 3.70174 220.864 3.87021 220.213 4.27223C219.84 4.73392 219.665 5.31758 219.723 5.90184V17.1838C219.712 17.5829 219.768 17.981 219.891 18.3621C219.96 18.5208 220.062 18.664 220.191 18.7826C220.319 18.9013 220.472 18.9928 220.638 19.0516C221.206 19.2382 221.805 19.319 222.404 19.2897L222.365 20.4555Z" fill="#9C9C9C"/>
<path d="M76.9857 26.1C76.7489 26.0823 76.5114 26.1219 76.2914 26.2157C76.2279 26.2479 76.172 26.2946 76.1278 26.3524C76.0836 26.4102 76.0521 26.4776 76.0355 26.5499C76.0141 26.7721 76.0141 26.996 76.0355 27.2182V30.0072C76.0569 30.3924 76.0569 30.7786 76.0355 31.1639C75.9959 31.4413 75.9049 31.7077 75.7676 31.9479C75.5284 32.4317 75.1298 32.8065 74.6469 33.0018C74.2043 33.1848 73.7336 33.2807 73.2582 33.2845C72.9169 33.2818 72.5773 33.2343 72.2472 33.1431C71.9044 33.0523 71.5789 32.9001 71.2848 32.6933C70.9901 32.4906 70.754 32.2059 70.6027 31.8708C70.5193 31.6899 70.454 31.5004 70.4078 31.3053C70.362 31.1288 70.3334 30.948 70.3225 30.7654C70.3225 30.6112 70.3225 30.3927 70.3225 30.1228V26.9997C70.3464 26.7524 70.2812 26.5046 70.1398 26.3057C69.8895 26.1281 69.5857 26.0548 69.2871 26.1V25.5859H72.9415V26.1C72.7061 26.0894 72.4708 26.1243 72.2472 26.2029C72.1827 26.2264 72.1235 26.2637 72.0732 26.3123C72.023 26.3609 71.9827 26.4199 71.9548 26.4856C71.9008 26.6508 71.876 26.8251 71.8817 26.9997V30.1485C71.8642 30.431 71.8642 30.7143 71.8817 30.9968C71.9068 31.2162 71.9559 31.4319 72.0279 31.6394C72.1512 31.9429 72.3651 32.1956 72.637 32.3591C72.9253 32.5367 73.2533 32.6299 73.5871 32.629C73.9497 32.6315 74.3066 32.534 74.6225 32.3463C74.9171 32.1819 75.1525 31.92 75.2925 31.6009C75.3899 31.3631 75.4555 31.1122 75.4874 30.8554C75.5029 30.5515 75.5029 30.2468 75.4874 29.9429V27.231C75.497 27.0513 75.497 26.871 75.4874 26.6912C75.4462 26.5705 75.3746 26.4639 75.2803 26.3828C75.2007 26.2774 75.0886 26.2047 74.9636 26.1771C74.7613 26.1511 74.5568 26.1511 74.3545 26.1771V25.663H76.9857V26.1Z" fill="#9C9C9C"/>
<path d="M94.8957 26.0914C94.6264 26.0776 94.357 26.1173 94.1037 26.208C94.0314 26.2361 93.9666 26.2798 93.914 26.3359C93.8615 26.392 93.8225 26.4591 93.8001 26.5321C93.7733 26.7646 93.7733 26.9994 93.8001 27.2319V33.2845H93.1928L88.0974 27.3486V31.5608C88.0692 31.7932 88.0692 32.0282 88.0974 32.2606C88.1181 32.336 88.1562 32.4056 88.2089 32.4641C88.2616 32.5226 88.3274 32.5683 88.401 32.5976C88.6583 32.6908 88.9325 32.7305 89.2063 32.7142V33.2327H86.3945V32.7142C86.651 32.7295 86.9078 32.6897 87.147 32.5976C87.2182 32.5667 87.2813 32.5203 87.3316 32.4619C87.3819 32.4035 87.4181 32.3347 87.4374 32.2606C87.463 32.028 87.463 31.7934 87.4374 31.5608V27.6726C87.4374 27.3615 87.4374 27.1153 87.4374 26.9598C87.4247 26.8154 87.3844 26.6747 87.3186 26.545C87.2461 26.4197 87.1352 26.3199 87.0018 26.2599C86.8108 26.1718 86.605 26.1191 86.3945 26.1044V25.5859H88.665L93.1004 30.7702V27.2319C93.1251 27.0166 93.1251 26.7992 93.1004 26.5839C93.0781 26.5077 93.0394 26.4371 92.9871 26.3768C92.9347 26.3164 92.8699 26.2677 92.7968 26.234C92.5595 26.1345 92.302 26.0901 92.0444 26.1044V25.5859H94.9485L94.8957 26.0914Z" fill="#9C9C9C"/>
<path d="M107.781 33.2845H104.359V32.7626C104.576 32.7701 104.792 32.7348 104.998 32.6582C105.06 32.638 105.117 32.6032 105.166 32.556C105.215 32.5088 105.255 32.4502 105.283 32.3842C105.334 32.2121 105.357 32.0308 105.352 31.8492V27.0213C105.374 26.7681 105.309 26.5148 105.169 26.3167C104.928 26.142 104.642 26.0682 104.359 26.1079V25.5859H107.781V26.1079C107.561 26.0954 107.341 26.1263 107.131 26.1992C107.069 26.2201 107.012 26.2552 106.963 26.3024C106.914 26.3495 106.874 26.4076 106.846 26.4732C106.794 26.6452 106.771 26.8266 106.777 27.0082V31.8361C106.771 32.0135 106.795 32.1905 106.846 32.3581C106.871 32.4252 106.909 32.4855 106.956 32.5349C107.003 32.5844 107.059 32.6219 107.119 32.6451C107.332 32.7293 107.557 32.7648 107.781 32.7495V33.2845Z" fill="#9C9C9C"/>
<path d="M125.743 26.1111C125.583 26.1139 125.424 26.1398 125.272 26.188C125.132 26.2217 125.005 26.2926 124.905 26.3929C124.803 26.5108 124.715 26.6397 124.643 26.7772C124.551 26.9438 124.433 27.2 124.276 27.5458L121.761 33.2845H121.237L118.617 27.264C118.508 26.9958 118.381 26.7348 118.237 26.4826C118.152 26.3474 118.023 26.2437 117.871 26.188C117.651 26.1189 117.42 26.0886 117.189 26.0983V25.5859H121.119V26.0983C120.859 26.1019 120.6 26.1319 120.346 26.188C120.277 26.2111 120.219 26.257 120.181 26.3177C120.142 26.3785 120.127 26.4504 120.137 26.521C120.144 26.7085 120.193 26.8922 120.281 27.059L122.049 31.0941L123.687 27.328C123.794 27.1145 123.865 26.8851 123.896 26.6491C123.896 26.4058 123.805 26.2648 123.634 26.2008C123.383 26.1291 123.123 26.0946 122.862 26.0983V25.5859H125.717L125.743 26.1111Z" fill="#9C9C9C"/>
<path d="M141.996 30.7488L141.931 33.2845H135.152V32.7617C135.468 32.7984 135.787 32.7246 136.056 32.5526C136.205 32.3497 136.274 32.0982 136.25 31.8468V27.0106C136.276 26.8417 136.276 26.6698 136.25 26.5009C136.222 26.4332 136.179 26.3724 136.126 26.3228C136.072 26.2732 136.009 26.2358 135.94 26.2133C135.703 26.1323 135.454 26.0968 135.204 26.1088V25.5859H141.492L141.582 27.5857H141.066C140.997 27.2438 140.861 26.9194 140.666 26.6316C140.538 26.4581 140.356 26.3336 140.149 26.2787C139.868 26.2251 139.583 26.2032 139.297 26.2133H137.864V28.932H138.638C138.839 28.9419 139.039 28.9198 139.232 28.8667C139.295 28.8447 139.352 28.8085 139.399 28.761C139.446 28.7134 139.482 28.6557 139.504 28.5922C139.568 28.3891 139.602 28.1778 139.607 27.9648H140.201V30.5789H139.684C139.682 30.3645 139.643 30.1521 139.568 29.9515C139.543 29.8895 139.504 29.8339 139.455 29.7888C139.406 29.7436 139.347 29.7099 139.284 29.6901C139.091 29.6354 138.89 29.6133 138.69 29.6247H137.903V31.4285C137.903 31.7291 137.903 31.9513 137.903 32.0951C137.915 32.222 137.959 32.3435 138.032 32.448C138.113 32.5527 138.227 32.6264 138.354 32.6571C138.565 32.6834 138.777 32.6834 138.987 32.6571H139.594C139.843 32.6584 140.091 32.6232 140.33 32.5526C140.604 32.4581 140.843 32.28 141.014 32.0428C141.282 31.656 141.446 31.2058 141.492 30.7358L141.996 30.7488Z" fill="#9C9C9C"/>
<path d="M159.96 33.2456H157.865C157.758 33.1324 157.659 33.011 157.572 32.8827C157.451 32.7272 157.331 32.5458 157.198 32.3254L156.864 31.7941L156.33 30.9387C156.167 30.6632 155.984 30.399 155.783 30.1481C155.678 30.0175 155.533 29.9222 155.37 29.8759C155.104 29.8469 154.835 29.8469 154.569 29.8759H154.275V31.8718C154.266 32.0428 154.289 32.214 154.342 32.3773C154.37 32.4449 154.414 32.5055 154.469 32.5548C154.525 32.6042 154.591 32.6409 154.662 32.6624C154.903 32.7424 155.156 32.7776 155.41 32.7661V33.2845H151.406V32.7661C151.733 32.8117 152.066 32.7378 152.34 32.5587C152.498 32.3593 152.569 32.1085 152.541 31.8589V27.0246C152.565 26.7752 152.494 26.5258 152.34 26.3247C152.066 26.1456 151.733 26.0717 151.406 26.1173V25.5859H153.221H154.796L155.89 25.6507C156.16 25.6741 156.428 25.7175 156.691 25.7803C156.985 25.8505 157.265 25.9689 157.518 26.1303C157.779 26.2969 157.998 26.5184 158.159 26.7783C158.324 27.0627 158.407 27.3851 158.399 27.7115C158.402 27.9662 158.348 28.2185 158.239 28.4502C158.116 28.7078 157.928 28.9309 157.692 29.0983C157.39 29.3053 157.05 29.4548 156.691 29.5389C156.966 29.6943 157.21 29.8963 157.411 30.1351C157.598 30.3684 157.918 30.809 158.346 31.4312C158.528 31.7154 158.728 31.9881 158.946 32.2477C159.067 32.3991 159.216 32.5266 159.386 32.6235C159.547 32.6937 159.718 32.7375 159.893 32.7531L159.96 33.2456ZM156.731 27.7115C156.756 27.479 156.716 27.2442 156.615 27.032C156.514 26.8198 156.356 26.6381 156.157 26.5061C155.691 26.2893 155.178 26.1869 154.662 26.208H154.289V29.2797H154.662C155.166 29.2949 155.668 29.2019 156.13 29.0075C156.504 28.7613 156.731 28.3206 156.731 27.7115Z" fill="#9C9C9C"/>
<path d="M174.502 31.0129C174.495 31.2639 174.445 31.5117 174.355 31.7448C174.253 32.0158 174.109 32.2675 173.927 32.4893C173.723 32.7289 173.474 32.9222 173.194 33.0572C172.877 33.211 172.53 33.2886 172.18 33.2843C171.787 33.2786 171.4 33.1883 171.043 33.0193C170.669 32.847 170.342 32.5827 170.09 32.2496C169.986 32.4912 169.912 32.7457 169.87 33.0067H169.381V30.4829H169.87C169.955 30.8406 170.078 31.1876 170.237 31.5177C170.392 31.8436 170.618 32.1284 170.897 32.3505C171.193 32.5877 171.56 32.7125 171.935 32.7039C172.252 32.7229 172.563 32.6143 172.803 32.401C172.968 32.2447 173.08 32.0374 173.122 31.8099C173.164 31.5825 173.133 31.3471 173.035 31.1391C172.962 31.0017 172.862 30.8814 172.742 30.7858C172.576 30.6576 172.4 30.5436 172.216 30.445L171.459 30.0791C171.08 29.9029 170.72 29.6872 170.383 29.4355C170.142 29.259 169.928 29.0463 169.748 28.8045C169.623 28.6273 169.524 28.4316 169.455 28.2241C169.399 28.0445 169.371 27.8573 169.369 27.6688C169.371 27.3233 169.459 26.9841 169.626 26.6845C169.81 26.3543 170.076 26.0801 170.396 25.8895C170.748 25.6809 171.15 25.5761 171.557 25.5867C171.891 25.5833 172.222 25.6611 172.522 25.8138C172.826 25.9652 173.096 26.18 173.316 26.4448C173.395 26.237 173.452 26.0213 173.487 25.8012H173.988V27.8833H173.487C173.137 26.7476 172.522 26.1798 171.642 26.1798C171.362 26.166 171.088 26.2605 170.872 26.4448C170.778 26.5263 170.702 26.6288 170.652 26.7446C170.601 26.8604 170.576 26.9865 170.579 27.1136C170.574 27.3191 170.639 27.52 170.762 27.6814C170.894 27.8469 171.056 27.9841 171.239 28.0853C171.434 28.1988 171.752 28.3629 172.192 28.5774C172.611 28.7818 173.019 29.0093 173.414 29.2588C173.708 29.4475 173.965 29.6915 174.172 29.9781C174.387 30.2773 174.502 30.6403 174.502 31.0129Z" fill="#9C9C9C"/>
<path d="M188.187 33.2845H183.91V32.7626C184.186 32.7716 184.461 32.7363 184.723 32.6582C184.8 32.638 184.872 32.6032 184.933 32.556C184.994 32.5088 185.044 32.4502 185.079 32.3842C185.144 32.2122 185.173 32.0308 185.165 31.8492V27.0213C185.193 26.7681 185.111 26.5148 184.937 26.3167C184.632 26.139 184.268 26.0651 183.91 26.1079V25.5859H188.187V26.1079C187.917 26.0969 187.647 26.1278 187.389 26.1992C187.312 26.2201 187.241 26.2552 187.179 26.3024C187.118 26.3495 187.068 26.4076 187.032 26.4732C186.971 26.6459 186.942 26.8268 186.947 27.0082V31.8361C186.941 32.0134 186.97 32.1902 187.032 32.3581C187.065 32.4248 187.112 32.4847 187.171 32.534C187.23 32.5834 187.299 32.6212 187.375 32.6451C187.636 32.7273 187.911 32.7627 188.187 32.7495V33.2845Z" fill="#9C9C9C"/>
<path d="M205.296 27.7687H204.757C204.742 27.3951 204.634 27.0311 204.441 26.71C204.319 26.5143 204.133 26.3665 203.914 26.2918C203.705 26.2344 203.487 26.208 203.27 26.2133H202.296V31.8468C202.289 32.0234 202.311 32.2001 202.362 32.3696C202.39 32.4373 202.433 32.498 202.488 32.5477C202.542 32.5973 202.607 32.6346 202.677 32.6571C202.914 32.7384 203.164 32.7739 203.414 32.7617V33.2845H199.466V32.7617C199.789 32.8077 200.117 32.7331 200.388 32.5526C200.549 32.3541 200.624 32.1004 200.598 31.8468V26.2003H199.782C199.513 26.1968 199.243 26.2231 198.979 26.2787C198.746 26.3452 198.545 26.4939 198.414 26.6969C198.224 27.0172 198.128 27.384 198.137 27.7557H197.598V25.5859H205.257L205.296 27.7687Z" fill="#9C9C9C"/>
<path d="M222.391 26.1572C222.211 26.1679 222.035 26.2166 221.875 26.3C221.717 26.4014 221.581 26.5339 221.475 26.6894C221.333 26.8712 221.127 27.1568 220.869 27.5722L219.27 30.0649V31.8694C219.262 32.0364 219.284 32.2034 219.335 32.3628C219.361 32.4291 219.401 32.489 219.452 32.5383C219.503 32.5876 219.564 32.6252 219.631 32.6484C219.865 32.7398 220.116 32.7797 220.366 32.7652V33.2845H216.498V32.7652C216.742 32.7732 216.987 32.7381 217.22 32.6614C217.289 32.6413 217.354 32.6066 217.41 32.5597C217.465 32.5127 217.51 32.4544 217.542 32.3887C217.6 32.2176 217.626 32.0372 217.619 31.8564V30.1558L215.711 26.9621V26.8842C215.603 26.6784 215.453 26.4972 215.272 26.3519C215.098 26.2569 214.903 26.2077 214.705 26.2091V25.6898H218.264V26.2091H217.839C217.746 26.2167 217.658 26.248 217.581 26.3C217.522 26.3301 217.476 26.3809 217.452 26.4428C217.454 26.5331 217.476 26.6217 217.516 26.7024C217.609 26.8982 217.713 27.0888 217.826 27.2737L219.012 29.2859L220.147 27.4944C220.334 27.2423 220.458 26.9483 220.508 26.6375C220.508 26.4038 220.431 26.261 220.276 26.1961C220.072 26.1283 219.858 26.0975 219.644 26.1052V25.5859H222.404L222.391 26.1572Z" fill="#9C9C9C"/>
<path d="M196.551 15.3065H195.805L195.742 15.4071C195.62 15.6388 195.439 15.8349 195.217 15.976C194.995 16.1172 194.741 16.1985 194.478 16.2121C194.07 16.2081 193.673 16.0809 193.34 15.8473C192.754 15.356 192.247 14.7792 191.835 14.1367C192.194 13.5753 192.499 12.9815 192.746 12.3632C193.006 11.6114 193.414 10.9187 193.947 10.3256C194.304 9.98935 194.738 9.74347 195.211 9.60867H195.3H195.464V8.53955H190.406V9.6464H190.609H190.71C191.86 9.78476 191.974 10.2627 191.974 10.6652C191.943 11.0995 191.836 11.525 191.658 11.923C191.487 12.3409 191.275 12.7411 191.026 13.1179L188.105 9.09297C189.951 8.09932 190.9 7.03019 190.9 5.93592C190.904 5.5559 190.811 5.181 190.63 4.84653C190.448 4.51205 190.184 4.22901 189.863 4.02407C189.218 3.57628 188.449 3.33892 187.663 3.34487C187.233 3.33342 186.806 3.41017 186.408 3.57032C186.01 3.73047 185.65 3.97057 185.349 4.27563C185.06 4.55079 184.83 4.88061 184.671 5.24567C184.513 5.61073 184.429 6.00365 184.426 6.4013C184.495 7.45865 184.873 8.47295 185.513 9.31938C184.58 9.8991 183.729 10.6014 182.985 11.4073C182.454 12.0807 182.177 12.917 182.201 13.772C182.188 14.5381 182.404 15.2907 182.82 15.9354C183.216 16.5329 183.755 17.0235 184.388 17.3637C185.021 17.7039 185.729 17.8829 186.449 17.8849C187.176 17.8459 187.888 17.6596 188.54 17.3373C189.192 17.015 189.771 16.5637 190.242 16.0108C190.65 16.57 191.181 17.0294 191.795 17.3541C192.408 17.6788 193.088 17.8604 193.782 17.8849C194.441 17.8977 195.085 17.6944 195.616 17.3064C196.14 16.9317 196.512 16.383 196.665 15.7593V15.6209L196.741 15.3316L196.551 15.3065ZM187.422 8.07416C186.89 7.43265 186.545 6.65834 186.424 5.83529C186.408 5.47098 186.535 5.11479 186.778 4.84164C186.902 4.71766 187.05 4.6193 187.213 4.5522C187.375 4.48509 187.55 4.45055 187.726 4.45055C187.902 4.45055 188.077 4.48509 188.239 4.5522C188.402 4.6193 188.55 4.71766 188.674 4.84164C188.931 5.15209 189.062 5.54694 189.041 5.94849C189.117 6.69059 188.497 7.44527 187.435 8.07416H187.422ZM186.234 10.2753C187.17 11.5331 188.295 13.1179 189.572 15.0423C189.302 15.3685 188.968 15.6354 188.589 15.8259C188.21 16.0165 187.796 16.1266 187.372 16.1492C186.978 16.1385 186.591 16.0431 186.237 15.8694C185.883 15.6957 185.572 15.4478 185.324 15.143C184.748 14.5705 184.413 13.8014 184.388 12.9921C184.409 12.4474 184.594 11.9215 184.919 11.4828C185.28 10.9999 185.731 10.5901 186.247 10.2753H186.234Z" fill="#9C9C9C"/>
</svg>
