<svg width="178" height="33" viewBox="0 0 178 33" fill="none" xmlns="http://www.w3.org/2000/svg">
<path d="M0 5.95792V0.125C0.259476 0.135591 0.516305 0.151477 0.775781 0.151477C5.89911 0.151477 11.0251 0.151477 16.1484 0.151477C16.4026 0.151477 16.6568 0.151477 16.9374 0.151477V5.91555H12.7302C14.1256 11.5393 15.4944 17.0571 16.8633 22.575C16.9136 22.5723 16.9613 22.5697 17.0116 22.567C19.0185 15.1084 21.0255 7.64981 23.0351 0.180602H28.8945C30.7665 7.64981 32.596 15.1243 34.4812 22.5829C34.5289 22.5776 34.5739 22.5723 34.6215 22.5697C36.1069 17.0466 37.5923 11.5261 39.1068 5.89702H35.0955V0.188545H47.6483V5.89437H43.9918C43.8965 6.20416 43.8144 6.44775 43.7482 6.69398C41.7492 14.2744 39.7502 21.8575 37.7591 29.4405C37.5234 30.3328 37.3275 31.2357 37.113 32.1332H27.899C27.8937 32.0273 27.9043 31.9161 27.8805 31.8155C26.7631 27.3223 25.6431 22.8318 24.5205 18.3413C24.3113 17.5099 24.0863 16.6838 23.8665 15.8551C23.705 16.0537 23.6362 16.2496 23.5832 16.4508C23.1225 18.1771 22.6618 19.9034 22.209 21.6324C21.2929 25.1327 20.3795 28.633 19.466 32.1306H10.3817C10.3526 32.0723 10.3155 32.0167 10.2996 31.9558C8.21057 23.5996 6.12417 15.2408 4.03247 6.88462C3.95039 6.55895 3.84448 6.23858 3.75976 5.95527H0V5.95792Z" fill="#9C9C9C"/>
<path d="M164.854 4.30653L164.459 4.68515L164.504 4.83078H165.714C165.524 6.1414 165.349 7.27727 165.073 9.11213C164.682 11.8366 164.345 12.7978 164.07 13.0308C163.983 13.1181 163.837 13.1605 163.705 13.1605C163.53 13.1605 163.254 13.0308 163.064 12.9434C162.889 12.856 162.743 12.9593 162.656 13.044C162.54 13.1764 162.407 13.3803 162.407 13.5391C162.407 13.8304 162.786 13.976 163.035 13.976C163.31 13.976 164.009 13.743 164.637 12.9725C165.132 12.3609 165.802 10.947 166.371 7.65589C166.474 7.04427 166.591 6.43264 166.837 4.83078L168.322 4.68515L168.643 4.30653H166.924C167.361 1.61115 167.726 0.795656 168.351 0.795656C168.788 0.795656 169.151 0.970406 169.474 1.27754C169.577 1.37815 169.736 1.37815 169.882 1.26165C169.998 1.16104 170.173 0.928042 170.173 0.724168C170.186 0.432919 169.794 0.112545 169.299 0.112545C168.455 0.112545 167.565 0.607668 166.953 1.33579C166.384 2.02155 166.005 3.12829 165.804 4.30653H164.859H164.854ZM158.306 8.12189C158.306 5.96665 159.399 4.80165 159.849 4.61102C159.982 4.55277 160.186 4.49452 160.331 4.49452C161.059 4.49452 161.483 5.04789 161.483 6.17052C161.512 8.06364 160.522 9.78201 159.91 9.98588C159.794 10.0309 159.603 10.0891 159.458 10.0891C158.642 10.0891 158.306 9.21539 158.306 8.12189ZM160.797 3.95703C160.419 3.95703 159.82 4.13178 159.225 4.48128C158.218 5.07966 157.128 6.43264 157.128 8.47139C157.128 9.49076 157.609 10.6266 158.962 10.6266C159.603 10.6266 160.522 10.203 161.134 9.65227C162.095 8.77852 162.664 7.27727 162.664 5.97989C162.664 4.76988 162.023 3.95438 160.8 3.95438L160.797 3.95703ZM145.059 0.957167L147.678 5.68599V9.6761L146.852 10.5022H149.645L148.819 9.6761V5.68599L151.491 0.975701L152.351 0.131079H149.785L150.593 0.938633L148.414 4.82283L146.341 0.938633L147.151 0.131079H144.215L145.059 0.957167ZM139.152 9.6761V0.90686H141.122L142.229 2.01361V0.133727H134.934V2.01361L136.06 0.90686H138.008V9.67874L137.201 10.5048H139.978L139.152 9.67874V9.6761ZM129.311 0.133727L130.137 0.959815V9.67874L129.311 10.5048H132.104L131.278 9.67874V0.959815L132.104 0.133727H129.311ZM125.866 7.62147C125.866 6.6021 125.392 5.96929 124.9 5.63568L122.789 4.1053C122.032 3.55987 121.648 2.85823 121.648 2.32868C121.648 1.23782 122.58 0.853906 123.142 0.853906C123.441 0.853906 123.653 0.975701 123.809 0.975701L124.722 1.96065L125.689 0.517646L123.631 0.131079C123.491 0.096659 123.404 0.078125 123.139 0.078125C121.328 0.078125 120.502 1.62439 120.502 2.62788C120.502 3.4169 120.907 4.31447 121.836 5.00023L123.962 6.53061C124.542 6.93571 124.701 7.53145 124.701 8.04246C124.701 8.9215 124.156 9.86938 122.977 9.86938C122.697 9.86938 122.45 9.81643 122.257 9.72905L121.272 8.56935L120.375 10.1871L122.363 10.5737C122.363 10.5737 122.697 10.6452 122.977 10.6452C124.224 10.6452 125.861 9.59137 125.861 7.62147H125.866ZM112.106 0.90686H113.371C114.481 0.90686 115.357 1.85739 115.357 2.98002C115.357 4.10265 114.46 4.89697 113.371 4.89697H112.106V0.90686ZM112.106 9.67874V5.6701H113.671L116.186 10.5048H117.91L117.102 9.67874L114.783 5.42386C115.942 5.07172 116.734 3.98351 116.734 2.99856C116.734 1.24047 115.098 0.133727 113.377 0.133727H110.16L110.967 0.959815V9.67874L110.16 10.5048H112.937L112.111 9.67874H112.106ZM107.009 10.5048V8.60642L105.902 9.7317H102.757V5.37091H105.095L105.921 6.197V3.77169L105.095 4.59778H102.757V0.90686H105.902L107.009 2.01361V0.133727H100.805L101.613 0.959815V9.67874L100.805 10.5048H107.009ZM93.1217 0.133727H90.1854L91.03 0.959815L93.9478 10.5048H94.4747L97.4799 0.959815L98.3245 0.133727H95.8277L96.6352 0.941281L94.4376 8.1113L92.3115 0.941281L93.1191 0.133727H93.1217ZM84.6331 0.133727L85.4592 0.959815V9.67874L84.6331 10.5048H87.4265L86.6004 9.67874V0.959815L87.4265 0.133727H84.6331ZM74.5453 9.60726V1.83886L80.1347 10.5234H80.4683V1.02866L81.3632 0.133727H78.6572L79.5522 1.02866V7.62147L74.879 0.133727H72.7343L73.6133 1.02866V9.60726L72.7343 10.5048H75.4403L74.5427 9.60726H74.5453ZM62.4347 7.72738C62.4347 9.43251 63.8777 10.7325 65.6517 10.7325C67.4256 10.7325 69.009 9.48546 69.009 7.72738V1.02866L69.888 0.133727H67.182L68.077 1.02866V7.72738C68.077 8.9215 67.1264 9.87203 65.9323 9.87203C64.7382 9.87203 63.6473 8.94003 63.6473 7.72738V1.02866L64.5423 0.133727H61.5371L62.4347 1.02866V7.72738Z" fill="#9C9C9C"/>
<path d="M168.24 30.9202V20.4776L175.617 32.1302H176.202V19.3894L177.407 18.1847H173.769L174.974 19.3894V28.2486L168.691 18.1847H165.807L166.988 19.3894V30.9175L165.807 32.1222H169.445L168.24 30.9175V30.9202ZM157.628 31.3703C154.843 31.3703 153.871 28.0395 153.871 25.1587C153.871 22.278 154.84 18.9445 157.628 18.9445C160.416 18.9445 161.409 22.2754 161.409 25.1587C161.409 28.0421 160.44 31.3703 157.628 31.3703ZM152.052 25.1587C152.052 28.7014 154.059 32.4347 157.628 32.4347C161.198 32.4347 163.228 28.7014 163.228 25.1587C163.228 21.6161 161.219 17.8828 157.628 17.8828C154.038 17.8828 152.052 21.6161 152.052 25.1587ZM146.516 31.0155V19.2279H149.161L150.649 20.7159V18.1873H140.845V20.7159L142.356 19.2279H144.978V31.0155L143.892 32.1249H147.625L146.516 31.0155ZM136.351 25.7942V30.2821C136.023 30.613 135.358 31.275 134.061 31.275C130.966 31.275 129.406 28.156 129.406 25.1561C129.406 22.1562 131.366 19.0372 134.061 19.0372C134.768 19.0372 135.287 19.2014 135.761 19.6991L137.297 21.211V18.8016C136.471 18.3753 135.642 17.9993 134.061 17.9993C130.256 17.9993 127.587 21.4016 127.587 25.1587C127.587 28.9158 130.259 32.3155 134.061 32.3155C136.211 32.3155 137.13 31.7966 137.887 31.2988V25.7942L138.973 24.6848H135.239L136.349 25.7942H136.351ZM116.451 30.9202V20.4776L123.865 32.1169H124.413V19.3894L125.618 18.1847H121.98L123.184 19.3894V28.2486L116.901 18.1847H114.018L115.199 19.3894V30.9175L114.018 32.1222H117.656L116.451 30.9175V30.9202ZM94.1786 25.1323H100.038V31.0155L98.9286 32.1249H102.686L101.576 31.0155V19.2993L102.686 18.1899H98.9286L100.038 19.2993V24.0944H94.1786V19.2993L95.288 18.1899H91.5547L92.6403 19.2993V31.0155L91.5547 32.1249H95.288L94.1786 31.0155V25.1323ZM88.2503 28.2513C88.2503 26.8798 87.6122 26.0298 86.9503 25.5797L84.1146 23.5251C83.1005 22.7943 82.5789 21.8464 82.5789 21.1395C82.5789 19.6753 83.8313 19.1537 84.5859 19.1537C84.9883 19.1537 85.2716 19.3205 85.4835 19.3205L86.712 20.6444L88.012 18.7063L85.2478 18.1873C85.0598 18.1396 84.9433 18.1158 84.5859 18.1158C82.1526 18.1158 81.0432 20.1943 81.0432 21.542C81.0432 22.6063 81.586 23.811 82.8384 24.7325L85.6979 26.7871C86.4764 27.3299 86.6908 28.1348 86.6908 28.8179C86.6908 29.9988 85.9574 31.275 84.3767 31.275C83.9981 31.275 83.6698 31.2035 83.4077 31.0843L82.0838 29.5248L80.8791 31.6986L83.548 32.2175C83.548 32.2175 83.9955 32.3129 84.3741 32.3129C86.0501 32.3129 88.2477 30.8963 88.2477 28.2486L88.2503 28.2513ZM73.0074 21.2798L74.9217 27.0439H71.0243L73.0074 21.2798ZM69.6528 31.0367L70.6695 28.0845H75.2765L76.2456 31.0367L75.1574 32.1222H79.1025L77.9904 30.989L73.6455 18.1847H72.9359L68.5196 30.989L67.3863 32.1222H70.741L69.6554 31.0367H69.6528ZM55.7973 32.1222L58.9851 22.0344L62.0803 32.1222H62.7899L66.8303 19.294L67.9635 18.1847H64.6089L65.6944 19.2702L62.7422 28.9079L59.8827 19.2702L60.9683 18.1847H57.0232L58.1352 19.294L58.4185 20.2155L55.7496 28.9106L52.8927 19.2729L53.9783 18.1873H50.0332L51.1664 19.2967L55.0877 32.1249H55.7973V32.1222Z" fill="#9C9C9C"/>
<path d="M106.445 18.1953L107.557 19.3074V31.0235L106.445 32.1329H110.202L109.09 31.0235V19.3074L110.202 18.1953H106.445Z" fill="#9C9C9C"/>
</svg>
