<svg width="301" height="84" viewBox="0 0 301 84" fill="none" xmlns="http://www.w3.org/2000/svg">
<path d="M87.5442 36.2789C87.5442 37.8376 87.1267 40.3774 83.6064 40.3774C81.635 40.3774 79.7178 39.2742 79.7178 36.6352V35.5864H82.0661V36.1256C82.0661 37.2963 82.349 38.1421 83.5748 38.1421C84.9442 38.1421 84.9442 37.0076 84.9442 36.1618V28.0012H87.5442V36.2789Z" fill="#969696"/>
<path d="M95.3397 34.7726C95.1242 33.5567 94.6123 32.9115 93.4717 32.9115C91.9809 32.9115 91.5542 34.098 91.5185 34.7726H95.3397ZM91.5185 36.2974C91.5858 37.8197 92.3132 38.5122 93.6199 38.5122C94.5628 38.5122 95.3263 37.9214 95.47 37.3801H97.5399C96.88 39.446 95.47 40.3257 93.5347 40.3257C90.8403 40.3257 89.1699 38.4287 89.1699 35.7244C89.1699 33.0966 90.9392 31.1006 93.5347 31.1006C96.449 31.1006 97.8543 33.6064 97.688 36.2974H91.5185Z" fill="#969696"/>
<path d="M102.061 31.3393H103.785V32.9476H102.061V37.2783C102.061 38.0924 102.258 38.293 103.053 38.293C103.305 38.293 103.534 38.2751 103.785 38.2256V40.1067C103.385 40.1744 102.874 40.1924 102.406 40.1924C100.97 40.1924 99.7125 39.8494 99.7125 38.1103V32.9476H98.2891V31.3393H99.7125V28.7138H102.061V31.3393Z" fill="#969696"/>
<path d="M112.357 33.6918H114.378C115.581 33.6918 116.659 33.419 116.659 31.8809C116.659 30.3379 115.581 30.0695 114.378 30.0695H112.357V33.6918ZM109.762 28.0013H115.087C118.028 28.0013 119.173 29.9162 119.173 31.8809C119.173 33.8409 118.028 35.7535 115.087 35.7535H112.357V40.0889H109.762V28.0013Z" fill="#969696"/>
<path d="M120.552 31.3393H122.783V32.9657H122.819C123.246 31.8625 124.404 31.1004 125.545 31.1004C125.711 31.1004 125.908 31.134 126.061 31.1837V33.419C125.846 33.367 125.495 33.3355 125.217 33.3355C123.497 33.3355 122.9 34.6032 122.9 36.1439V40.0889H120.552V31.3393Z" fill="#969696"/>
<path d="M130.843 38.5122C132.451 38.5122 132.926 37.1092 132.926 35.7244C132.926 34.3169 132.451 32.9115 130.843 32.9115C129.254 32.9115 128.778 34.3169 128.778 35.7244C128.778 37.1092 129.254 38.5122 130.843 38.5122ZM130.843 31.1006C133.542 31.1006 135.275 32.9297 135.275 35.7244C135.275 38.4966 133.542 40.3257 130.843 40.3257C128.163 40.3257 126.425 38.4966 126.425 35.7244C126.425 32.9297 128.163 31.1006 130.843 31.1006Z" fill="#969696"/>
<path d="M143.156 35.7375C143.156 34.3504 142.608 32.9112 141.104 32.9112C139.568 32.9112 139.074 34.3165 139.074 35.7375C139.074 37.1609 139.595 38.5119 141.122 38.5119C142.658 38.5119 143.156 37.1609 143.156 35.7375ZM136.807 31.3392H139.038V32.4557H139.074C139.631 31.5242 140.556 31.1003 141.62 31.1003C144.297 31.1003 145.5 33.3195 145.5 35.8052C145.5 38.142 144.252 40.3253 141.751 40.3253C140.722 40.3253 139.748 39.8675 139.187 39.0035H139.151V43.1694H136.807V31.3392Z" fill="#969696"/>
<path d="M154.938 40.0891H152.702V38.8685H152.657C152.06 39.8497 151.036 40.3257 150.044 40.3257C147.543 40.3257 146.919 38.8844 146.919 36.7193V31.3396H149.263V36.2792C149.263 37.7208 149.68 38.4287 150.772 38.4287C152.042 38.4287 152.59 37.7025 152.59 35.925V31.3396H154.938V40.0891Z" fill="#969696"/>
<path d="M156.797 28.0013H159.145V40.0889H156.797V28.0013Z" fill="#969696"/>
<path d="M162.824 37.2424C162.842 38.2933 163.699 38.7176 164.624 38.7176C165.302 38.7176 166.164 38.4466 166.164 37.601C166.164 36.8702 165.19 36.6176 163.502 36.2454C162.141 35.943 160.789 35.4516 160.789 33.9111C160.789 31.6756 162.671 31.1006 164.512 31.1006C166.376 31.1006 168.1 31.7435 168.279 33.8927H166.048C165.98 32.9659 165.284 32.7088 164.445 32.7088C163.915 32.7088 163.138 32.8103 163.138 33.5208C163.138 34.3825 164.463 34.5019 165.801 34.8244C167.17 35.1445 168.513 35.6523 168.513 37.2786C168.513 39.5814 166.564 40.3257 164.611 40.3257C162.626 40.3257 160.686 39.5657 160.592 37.2424H162.824Z" fill="#969696"/>
<path d="M169.958 31.3393H172.306V40.0889H169.958V31.3393ZM172.306 29.9839H169.958V28.0013H172.306V29.9839Z" fill="#969696"/>
<path d="M178.315 38.5122C179.918 38.5122 180.394 37.1092 180.394 35.7244C180.394 34.3169 179.918 32.9115 178.315 32.9115C176.725 32.9115 176.245 34.3169 176.245 35.7244C176.245 37.1092 176.725 38.5122 178.315 38.5122ZM178.315 31.1006C181.009 31.1006 182.747 32.9297 182.747 35.7244C182.747 38.4966 181.009 40.3257 178.315 40.3257C175.634 40.3257 173.896 38.4966 173.896 35.7244C173.896 32.9297 175.634 31.1006 178.315 31.1006Z" fill="#969696"/>
<path d="M184.273 31.3393H186.505V32.5573H186.559C187.152 31.5738 188.176 31.1004 189.172 31.1004C191.669 31.1004 192.298 32.5394 192.298 34.7047V40.0889H189.945V35.1443C189.945 33.7077 189.536 32.9951 188.445 32.9951C187.17 32.9951 186.622 33.7259 186.622 35.5008V40.0889H184.273V31.3393Z" fill="#969696"/>
<path d="M198.938 28.0013H201.538V37.8533H207.295V40.0889H198.938V28.0013Z" fill="#969696"/>
<path d="M213.832 35.8056C213.437 36.1621 212.61 36.18 211.878 36.3154C211.156 36.4666 210.491 36.7193 210.491 37.601C210.491 38.4966 211.169 38.7176 211.928 38.7176C213.769 38.7176 213.832 37.2289 213.832 36.7032V35.8056ZM208.403 34.028C208.542 31.775 210.509 31.1006 212.426 31.1006C214.133 31.1006 216.185 31.4905 216.185 33.5884V38.1424C216.185 38.9385 216.265 39.7346 216.481 40.0891H214.097C214.016 39.8182 213.944 39.5295 213.931 39.2432C213.19 40.037 212.099 40.3257 211.052 40.3257C209.431 40.3257 208.143 39.4957 208.143 37.7026C208.143 35.7244 209.597 35.2463 211.052 35.0433C212.489 34.8244 213.832 34.8741 213.832 33.8927C213.832 32.8576 213.14 32.7088 212.309 32.7088C211.416 32.7088 210.837 33.0809 210.756 34.028H208.403Z" fill="#969696"/>
<path d="M222.273 32.9115C220.886 32.9115 220.271 34.2492 220.271 35.7244C220.271 37.1769 220.886 38.5122 222.273 38.5122C223.666 38.5122 224.276 37.1769 224.276 35.7244C224.276 34.2492 223.666 32.9115 222.273 32.9115ZM218.008 28.0015H220.356V32.4019H220.387C220.971 31.5064 222.026 31.1006 223.086 31.1006C224.792 31.1006 226.625 32.5034 226.625 35.7064C226.625 38.9206 224.792 40.3257 223.086 40.3257C221.829 40.3257 220.783 39.9376 220.271 38.9747H220.24V40.0891H218.008V28.0015Z" fill="#969696"/>
<path d="M232.274 38.5122C233.876 38.5122 234.357 37.1092 234.357 35.7244C234.357 34.3169 233.876 32.9115 232.274 32.9115C230.684 32.9115 230.204 34.3169 230.204 35.7244C230.204 37.1092 230.684 38.5122 232.274 38.5122ZM232.274 31.1006C234.973 31.1006 236.705 32.9297 236.705 35.7244C236.705 38.4966 234.973 40.3257 232.274 40.3257C229.593 40.3257 227.855 38.4966 227.855 35.7244C227.855 32.9297 229.593 31.1006 232.274 31.1006Z" fill="#969696"/>
<path d="M238.235 31.3393H240.467V32.9657H240.5C240.932 31.8625 242.088 31.1004 243.229 31.1004C243.396 31.1004 243.593 31.134 243.742 31.1837V33.419C243.526 33.367 243.18 33.3355 242.901 33.3355C241.178 33.3355 240.581 34.6032 240.581 36.1439V40.0889H238.235V31.3393Z" fill="#969696"/>
<path d="M250.002 35.8056C249.602 36.1621 248.775 36.18 248.048 36.3154C247.322 36.4666 246.657 36.7193 246.657 37.601C246.657 38.4966 247.338 38.7176 248.097 38.7176C249.93 38.7176 250.002 37.2289 250.002 36.7032V35.8056ZM244.576 34.028C244.706 31.775 246.674 31.1006 248.592 31.1006C250.292 31.1006 252.345 31.4905 252.345 33.5884V38.1424C252.345 38.9385 252.431 39.7346 252.642 40.0891H250.262C250.181 39.8182 250.118 39.5295 250.099 39.2432C249.354 40.037 248.26 40.3257 247.222 40.3257C245.601 40.3257 244.312 39.4957 244.312 37.7026C244.312 35.7244 245.768 35.2463 247.222 35.0433C248.659 34.8244 250.002 34.8741 250.002 33.8927C250.002 32.8576 249.305 32.7088 248.476 32.7088C247.586 32.7088 247.006 33.0809 246.927 34.028H244.576Z" fill="#969696"/>
<path d="M257.151 31.3393H258.874V32.9476H257.151V37.2783C257.151 38.0924 257.353 38.293 258.147 38.293C258.389 38.293 258.623 38.2751 258.874 38.2256V40.1067C258.475 40.1744 257.964 40.1924 257.497 40.1924C256.059 40.1924 254.803 39.8494 254.803 38.1103V32.9476H253.379V31.3393H254.803V28.7138H257.151V31.3393Z" fill="#969696"/>
<path d="M264.15 38.5122C265.753 38.5122 266.238 37.1092 266.238 35.7244C266.238 34.3169 265.753 32.9115 264.15 32.9115C262.564 32.9115 262.083 34.3169 262.083 35.7244C262.083 37.1092 262.564 38.5122 264.15 38.5122ZM264.15 31.1006C266.849 31.1006 268.582 32.9297 268.582 35.7244C268.582 38.4966 266.849 40.3257 264.15 40.3257C261.475 40.3257 259.735 38.4966 259.735 35.7244C259.735 32.9297 261.475 31.1006 264.15 31.1006Z" fill="#969696"/>
<path d="M269.553 31.3393H271.782V32.9657H271.82C272.247 31.8625 273.403 31.1004 274.548 31.1004C274.711 31.1004 274.913 31.134 275.062 31.1837V33.419C274.846 33.367 274.495 33.3355 274.216 33.3355C272.498 33.3355 271.901 34.6032 271.901 36.1439V40.0889H269.553V31.3393Z" fill="#969696"/>
<path d="M281.051 41.1894C280.536 42.5968 279.727 43.1694 278.106 43.1694C277.626 43.1694 277.149 43.1358 276.664 43.0861V41.1035C277.112 41.1394 277.579 41.2052 278.039 41.1894C278.847 41.1035 279.117 40.2397 278.847 39.5472L275.842 31.3392H278.352L280.292 37.3298H280.324L282.192 31.3392H284.621L281.051 41.1894Z" fill="#969696"/>
<path d="M87.176 49.5793C86.9069 48.2122 85.8336 47.522 84.5225 47.522C82.2683 47.522 81.3163 49.4167 81.3163 51.4332C81.3163 53.6347 82.2683 55.4752 84.5358 55.4752C86.1927 55.4752 87.1491 54.2843 87.2659 52.6873H88.5275C88.2853 55.0963 86.817 56.5576 84.428 56.5576C81.487 56.5576 80.0547 54.3384 80.0547 51.5232C80.0547 48.7265 81.6217 46.4438 84.5358 46.4438C86.5116 46.4438 88.1417 47.522 88.4334 49.5793H87.176Z" fill="#969696"/>
<path d="M94.4678 52.7142C94.0277 53.0387 93.1835 53.0525 92.4249 53.1878C91.6838 53.3229 91.046 53.5936 91.046 54.4418C91.046 55.2043 91.6838 55.475 92.3755 55.475C93.8572 55.475 94.4678 54.5276 94.4678 53.8913V52.7142ZM96.2952 56.3003C96.0978 56.4221 95.8463 56.4897 95.4872 56.4897C94.9035 56.4897 94.5352 56.1607 94.5352 55.4026C93.9109 56.147 93.0759 56.4897 92.1193 56.4897C90.8756 56.4897 89.8564 55.9213 89.8564 54.5276C89.8564 52.9487 91.0103 52.6059 92.1734 52.3758C93.4215 52.132 94.4813 52.2179 94.4813 51.3473C94.4813 50.3503 93.6731 50.1879 92.9545 50.1879C92.0027 50.1879 91.3022 50.4856 91.2483 51.5139H90.1212C90.1886 49.7816 91.4999 49.1729 93.0218 49.1729C94.2523 49.1729 95.595 49.4571 95.595 51.0946V54.6898C95.595 55.2311 95.595 55.475 95.9496 55.475C96.0441 55.475 96.1517 55.4612 96.2952 55.4026V56.3003Z" fill="#969696"/>
<path d="M97.7324 46.6737H98.8596V56.3276H97.7324V46.6737Z" fill="#969696"/>
<path d="M101.001 49.3353H102.128V56.3276H101.001V49.3353ZM102.128 48.0767H101.001V46.6737H102.128V48.0767Z" fill="#969696"/>
<path d="M104.67 50.3503H103.521V49.3353H104.67V48.2933C104.67 47.1609 105.335 46.561 106.57 46.561C106.78 46.561 107.081 46.606 107.297 46.6737V47.6707C107.095 47.6031 106.857 47.576 106.659 47.576C106.116 47.576 105.797 47.7517 105.797 48.3609V49.3353H107.126V50.3503H105.797V56.3276H104.67V50.3503Z" fill="#969696"/>
<path d="M111.414 55.475C112.595 55.475 113.547 54.5276 113.547 52.836C113.547 51.1352 112.595 50.1879 111.414 50.1879C110.233 50.1879 109.281 51.1352 109.281 52.836C109.281 54.5276 110.233 55.475 111.414 55.475ZM111.414 49.1729C113.587 49.1729 114.741 50.7831 114.741 52.836C114.741 54.8795 113.587 56.4897 111.414 56.4897C109.241 56.4897 108.087 54.8795 108.087 52.836C108.087 50.7831 109.241 49.1729 111.414 49.1729Z" fill="#969696"/>
<path d="M116.35 49.3353H117.409V50.8107H117.436C117.98 49.6872 118.739 49.1323 119.955 49.1729V50.3909C118.141 50.3909 117.477 51.4421 117.477 53.215V56.3276H116.35V49.3353Z" fill="#969696"/>
<path d="M121.369 49.3353H122.429V50.4451H122.456C122.932 49.5792 123.7 49.1729 124.683 49.1729C126.484 49.1729 127.041 50.2285 127.041 51.7307V56.3276H125.913V51.5954C125.913 50.743 125.384 50.1879 124.522 50.1879C123.156 50.1879 122.492 51.1217 122.492 52.3759V56.3276H121.369V49.3353Z" fill="#969696"/>
<path d="M129.129 49.3353H130.251V56.3276H129.129V49.3353ZM130.251 48.0767H129.129V46.6737H130.251V48.0767Z" fill="#969696"/>
<path d="M136.573 52.7142C136.133 53.0387 135.284 53.0525 134.53 53.1878C133.789 53.3229 133.151 53.5936 133.151 54.4418C133.151 55.2043 133.789 55.475 134.476 55.475C135.962 55.475 136.573 54.5276 136.573 53.8913V52.7142ZM138.4 56.3003C138.203 56.4221 137.947 56.4897 137.588 56.4897C137.008 56.4897 136.636 56.1607 136.636 55.4026C136.016 56.147 135.177 56.4897 134.225 56.4897C132.981 56.4897 131.957 55.9213 131.957 54.5276C131.957 52.9487 133.116 52.6059 134.278 52.3758C135.527 52.132 136.586 52.2179 136.586 51.3473C136.586 50.3503 135.774 50.1879 135.06 50.1879C134.108 50.1879 133.403 50.4856 133.353 51.5139H132.226C132.289 49.7816 133.6 49.1729 135.127 49.1729C136.357 49.1729 137.7 49.4571 137.7 51.0946V54.6898C137.7 55.2311 137.7 55.475 138.055 55.475C138.149 55.475 138.257 55.4612 138.4 55.4026V56.3003Z" fill="#969696"/>
<path d="M144.022 46.6737H145.284V56.3276H144.022V46.6737Z" fill="#969696"/>
<path d="M147.543 49.3353H148.607V50.4451H148.634C149.105 49.5792 149.878 49.1729 150.857 49.1729C152.662 49.1729 153.219 50.2285 153.219 51.7307V56.3276H152.092V51.5954C152.092 50.743 151.562 50.1879 150.695 50.1879C149.335 50.1879 148.67 51.1217 148.67 52.3759V56.3276H147.543V49.3353Z" fill="#969696"/>
<path d="M155.926 54.1214C155.966 55.1502 156.838 55.475 157.767 55.475C158.468 55.475 159.424 55.3126 159.424 54.4327C159.424 53.5397 158.31 53.3906 157.183 53.1335C156.069 52.8766 154.943 52.4974 154.943 51.1623C154.943 49.7548 156.312 49.1729 157.502 49.1729C159.015 49.1729 160.219 49.6601 160.313 51.3606H159.186C159.105 50.4721 158.337 50.1879 157.596 50.1879C156.923 50.1879 156.137 50.3773 156.137 51.0766C156.137 51.9022 157.332 52.0373 158.378 52.2944C159.5 52.5518 160.618 52.9351 160.618 54.284C160.618 55.9486 159.092 56.4897 157.7 56.4897C156.164 56.4897 154.866 55.8537 154.799 54.1214H155.926Z" fill="#969696"/>
<path d="M163.752 49.3353H165.118V50.3503H163.752V54.6899C163.752 55.2179 163.901 55.3126 164.601 55.3126H165.118V56.3276H164.255C163.088 56.3276 162.625 56.084 162.625 54.7984V50.3503H161.458V49.3353H162.625V47.2377H163.752V49.3353Z" fill="#969696"/>
<path d="M166.757 49.3353H167.884V56.3276H166.757V49.3353ZM167.884 48.0767H166.757V46.6737H167.884V48.0767Z" fill="#969696"/>
<path d="M171.52 49.3353H172.89V50.3503H171.52V54.6899C171.52 55.2179 171.673 55.3126 172.373 55.3126H172.89V56.3276H172.028C170.86 56.3276 170.398 56.084 170.398 54.7984V50.3503H169.23V49.3353H170.398V47.2377H171.52V49.3353Z" fill="#969696"/>
<path d="M180.138 56.3276H179.074V55.2178H179.047C178.571 56.084 177.808 56.4897 176.824 56.4897C175.024 56.4897 174.467 55.4344 174.467 53.9319V49.3353H175.59V54.0675C175.59 54.9154 176.124 55.475 176.981 55.475C178.342 55.475 179.011 54.5412 179.011 53.2826V49.3353H180.138V56.3276Z" fill="#969696"/>
<path d="M183.716 49.3353H185.085V50.3503H183.716V54.6899C183.716 55.2179 183.864 55.3126 184.569 55.3126H185.085V56.3276H184.223C183.056 56.3276 182.594 56.084 182.594 54.7984V50.3503H181.426V49.3353H182.594V47.2377H183.716V49.3353Z" fill="#969696"/>
<path d="M191.417 52.1637C191.363 51.0629 190.554 50.1879 189.441 50.1879C188.265 50.1879 187.555 51.0946 187.479 52.1637H191.417ZM192.503 54.1081C192.202 55.6462 191.111 56.4897 189.576 56.4897C187.389 56.4897 186.352 54.9472 186.284 52.8089C186.284 50.7154 187.64 49.1729 189.508 49.1729C191.933 49.1729 192.678 51.4871 192.607 53.1743H187.479C187.438 54.3921 188.116 55.475 189.612 55.475C190.541 55.475 191.192 55.0148 191.39 54.1081H192.503Z" fill="#969696"/>
<path d="M201.067 55.475C202.248 55.475 203.204 54.5276 203.204 52.836C203.204 51.1352 202.248 50.1879 201.067 50.1879C199.89 50.1879 198.934 51.1352 198.934 52.836C198.934 54.5276 199.89 55.475 201.067 55.475ZM201.067 49.1729C203.244 49.1729 204.394 50.7831 204.394 52.836C204.394 54.8795 203.244 56.4897 201.067 56.4897C198.893 56.4897 197.739 54.8795 197.739 52.836C197.739 50.7831 198.893 49.1729 201.067 49.1729Z" fill="#969696"/>
<path d="M206.509 50.3503H205.354V49.3353H206.509V48.2933C206.509 47.1609 207.169 46.561 208.403 46.561C208.614 46.561 208.92 46.606 209.131 46.6737V47.6707C208.933 47.6031 208.695 47.576 208.498 47.576C207.955 47.576 207.635 47.7517 207.635 48.3609V49.3353H208.96V50.3503H207.635V56.3276H206.509V50.3503Z" fill="#969696"/>
<path d="M216.639 47.7517H213.482V46.6737H221.053V47.7517H217.896V56.3276H216.639V47.7517Z" fill="#969696"/>
<path d="M225.529 52.1637C225.475 51.0629 224.662 50.1879 223.549 50.1879C222.372 50.1879 221.672 51.0946 221.591 52.1637H225.529ZM226.616 54.1081C226.306 55.6462 225.219 56.4897 223.683 56.4897C221.497 56.4897 220.464 54.9472 220.396 52.8089C220.396 50.7154 221.748 49.1729 223.616 49.1729C226.045 49.1729 226.786 51.4871 226.719 53.1743H221.591C221.551 54.3921 222.224 55.475 223.724 55.475C224.649 55.475 225.3 55.0148 225.502 54.1081H226.616Z" fill="#969696"/>
<path d="M232.861 51.5818C232.691 50.6975 232.094 50.1879 231.164 50.1879C229.534 50.1879 229.027 51.5006 229.027 52.9216C229.027 54.2028 229.602 55.475 231.034 55.475C232.121 55.475 232.768 54.8251 232.914 53.7695H234.064C233.813 55.475 232.768 56.4897 231.048 56.4897C228.951 56.4897 227.837 55.0011 227.837 52.9216C227.837 50.8239 228.901 49.1729 231.07 49.1729C232.624 49.1729 233.867 49.9172 234.029 51.5818H232.861Z" fill="#969696"/>
<path d="M235.65 46.6737H236.777V50.3639H236.805C237.172 49.5248 238.142 49.1729 238.965 49.1729C240.765 49.1729 241.322 50.2285 241.322 51.7307V56.3276H240.193V51.5954C240.193 50.743 239.664 50.1879 238.807 50.1879C237.436 50.1879 236.777 51.1217 236.777 52.3759V56.3276H235.65V46.6737Z" fill="#969696"/>
<path d="M243.343 49.3353H244.402V50.4451H244.43C244.908 49.5792 245.677 49.1729 246.657 49.1729C248.457 49.1729 249.014 50.2285 249.014 51.7307V56.3276H247.886V51.5954C247.886 50.743 247.361 50.1879 246.499 50.1879C245.129 50.1879 244.469 51.1217 244.469 52.3759V56.3276H243.343V49.3353Z" fill="#969696"/>
<path d="M253.99 55.475C255.174 55.475 256.126 54.5276 256.126 52.836C256.126 51.1352 255.174 50.1879 253.99 50.1879C252.812 50.1879 251.86 51.1352 251.86 52.836C251.86 54.5276 252.812 55.475 253.99 55.475ZM253.99 49.1729C256.161 49.1729 257.315 50.7831 257.315 52.836C257.315 54.8795 256.161 56.4897 253.99 56.4897C251.82 56.4897 250.666 54.8795 250.666 52.836C250.666 50.7831 251.82 49.1729 253.99 49.1729Z" fill="#969696"/>
<path d="M259.036 46.6737H260.163V56.3276H259.036V46.6737Z" fill="#969696"/>
<path d="M265.196 55.475C266.373 55.475 267.33 54.5276 267.33 52.836C267.33 51.1352 266.373 50.1879 265.196 50.1879C264.016 50.1879 263.059 51.1352 263.059 52.836C263.059 54.5276 264.016 55.475 265.196 55.475ZM265.196 49.1729C267.37 49.1729 268.524 50.7831 268.524 52.836C268.524 54.8795 267.37 56.4897 265.196 56.4897C263.02 56.4897 261.865 54.8795 261.865 52.836C261.865 50.7831 263.02 49.1729 265.196 49.1729Z" fill="#969696"/>
<path d="M274.966 52.6872C274.966 51.4557 274.442 50.188 273.018 50.188C271.576 50.188 270.993 51.3925 270.993 52.7276C270.993 53.9864 271.446 55.3895 272.927 55.3895C274.414 55.3895 274.966 53.9997 274.966 52.6872ZM276.086 55.732C276.086 58.0012 275.062 59.165 272.902 59.165C271.617 59.165 270.131 58.6372 270.064 57.108H271.19C271.243 57.947 272.224 58.2494 272.964 58.2494C274.442 58.2494 275.02 57.1668 275.02 55.5969V55.1368H274.994C274.62 55.9847 273.729 56.4089 272.86 56.4089C270.818 56.4089 269.799 54.7714 269.799 52.8629C269.799 51.2165 270.593 49.173 272.964 49.173C273.831 49.173 274.595 49.5655 275.008 50.3369H275.02V49.3354H276.086V55.732Z" fill="#969696"/>
<path d="M280.796 57.2611C280.278 58.6238 279.811 59.1245 278.806 59.1245C278.541 59.1245 278.276 59.0972 278.025 59.0025V57.9469C278.237 58.019 278.46 58.1093 278.685 58.1093C279.152 58.1093 279.398 57.8792 279.609 57.4732L280.076 56.2867L277.356 49.3352H278.636L280.634 55.0552H280.661L282.582 49.3352H283.776L280.796 57.2611Z" fill="#969696"/>
<g clip-path="url(#clip0_37_934)">
<path d="M28.2777 60.0284C32.7863 64.1555 38.5689 66.4446 44.6214 66.4446C51.088 66.4446 57.1987 63.8889 61.8292 59.251C66.4555 54.6089 69.0048 48.4829 69.0048 41.9973C69.0048 38.71 68.3664 35.57 67.0869 32.5562L67.5453 32.1675C68.8788 35.2729 69.5448 38.6059 69.5448 41.9986C69.5448 48.63 66.9402 54.8935 62.2086 59.6328C57.4812 64.3762 51.2348 66.9874 44.6201 66.9874C38.4166 66.9874 32.4277 64.6524 27.818 60.4185L28.2777 60.0284ZM20.9679 47.8512C22.0299 52.1282 24.2468 56.0776 27.4123 59.2524C27.4801 59.319 27.6768 59.5328 27.6768 59.5328L27.2891 59.9215L27.0301 59.6314C23.8051 56.4011 21.5287 52.4114 20.4375 48.0622L20.9679 47.8498V47.8512ZM20.2963 47.4265C19.9072 45.6676 19.6953 43.8116 19.6953 41.9986C19.6953 35.3715 22.2999 29.1093 27.0287 24.3659C31.7603 19.6239 38.0081 17.0127 44.6214 17.0127C51.2348 17.0127 57.4812 19.6239 62.21 24.3645C63.6003 25.7569 64.823 27.3033 65.8476 28.9553L65.3865 29.2384C64.3826 27.6184 63.1862 26.1081 61.8306 24.7491C57.1987 20.1097 51.088 17.5555 44.6214 17.5555C38.1549 17.5555 32.0414 20.1097 27.4123 24.7504C22.786 29.3898 20.2367 35.5144 20.2367 41.9986C20.2367 43.7575 20.4251 45.5052 20.7934 47.1919L20.2977 47.4265H20.2963Z" fill="#9C9C9C"/>
<path d="M44.9611 19.5294C44.9611 19.6405 44.8711 19.7307 44.7604 19.7307C44.6496 19.7307 44.5596 19.6405 44.5596 19.5294C44.5596 19.4184 44.6496 19.3281 44.7604 19.3281C44.8711 19.3281 44.9611 19.4184 44.9611 19.5294Z" fill="#9C9C9C"/>
<path d="M46.3512 22.5791C46.3512 22.7152 46.239 22.8276 46.1033 22.8276C45.9676 22.8276 45.8555 22.7152 45.8555 22.5791C45.8555 22.4431 45.9662 22.332 46.1033 22.332C46.2404 22.332 46.3512 22.4445 46.3512 22.5791Z" fill="#9C9C9C"/>
<path d="M49.9637 27.5682C49.9637 27.7029 49.8529 27.8139 49.7186 27.8139C49.5843 27.8139 49.4707 27.7029 49.4707 27.5682C49.4707 27.4336 49.5815 27.3184 49.7186 27.3184C49.8557 27.3184 49.9637 27.4308 49.9637 27.5682Z" fill="#9C9C9C"/>
<path d="M44.1574 24.2994C44.1574 24.4105 44.0674 24.5007 43.9566 24.5007C43.8459 24.5007 43.7559 24.4105 43.7559 24.2994C43.7559 24.1884 43.8459 24.0981 43.9566 24.0981C44.0674 24.0981 44.1574 24.1898 44.1574 24.2994Z" fill="#9C9C9C"/>
<path d="M46.3205 25.4459C46.3205 25.557 46.2305 25.6472 46.1197 25.6472C46.009 25.6472 45.9189 25.557 45.9189 25.4459C45.9189 25.3349 46.009 25.2446 46.1197 25.2446C46.2305 25.2446 46.3205 25.3349 46.3205 25.4459Z" fill="#9C9C9C"/>
<path d="M43.5084 22.2392C43.5084 22.3739 43.3963 22.4877 43.2606 22.4877C43.1249 22.4877 43.0127 22.3753 43.0127 22.2392C43.0127 22.1032 43.1235 21.9907 43.2606 21.9907C43.3976 21.9907 43.5084 22.1018 43.5084 22.2392Z" fill="#9C9C9C"/>
<path d="M40.2336 24.2383C40.2336 24.348 40.1436 24.4382 40.0328 24.4382C39.922 24.4382 39.832 24.348 39.832 24.2383C39.832 24.1287 39.922 24.0356 40.0328 24.0356C40.1436 24.0356 40.2336 24.1273 40.2336 24.2383Z" fill="#9C9C9C"/>
<path d="M40.8205 24.6393C40.8205 24.7503 40.7305 24.842 40.6197 24.842C40.509 24.842 40.4189 24.7503 40.4189 24.6393C40.4189 24.5282 40.509 24.438 40.6197 24.438C40.7305 24.438 40.8205 24.5282 40.8205 24.6393Z" fill="#9C9C9C"/>
<path d="M41.4074 25.0422C41.4074 25.1532 41.3174 25.2449 41.2066 25.2449C41.0959 25.2449 41.0059 25.1546 41.0059 25.0422C41.0059 24.9297 41.0959 24.8423 41.2066 24.8423C41.3174 24.8423 41.4074 24.9325 41.4074 25.0422Z" fill="#9C9C9C"/>
<path d="M40.5119 25.8151C40.5119 25.9262 40.4219 26.0192 40.3111 26.0192C40.2004 26.0192 40.1104 25.9262 40.1104 25.8151C40.1104 25.7041 40.2004 25.6152 40.3111 25.6152C40.4219 25.6152 40.5119 25.7055 40.5119 25.8151Z" fill="#9C9C9C"/>
<path d="M35.8459 29.0997C35.8459 29.2108 35.7559 29.301 35.6451 29.301C35.5343 29.301 35.4443 29.2108 35.4443 29.0997C35.4443 28.9887 35.5343 28.8984 35.6451 28.8984C35.7559 28.8984 35.8459 28.9914 35.8459 29.0997Z" fill="#9C9C9C"/>
<path d="M36.7111 30.152C36.7111 30.263 36.6211 30.3533 36.5104 30.3533C36.3996 30.3533 36.3096 30.263 36.3096 30.152C36.3096 30.0409 36.3996 29.9507 36.5104 29.9507C36.6211 29.9507 36.7111 30.0409 36.7111 30.152Z" fill="#9C9C9C"/>
<path d="M36.0314 47.156C36.0314 47.267 35.9414 47.36 35.8307 47.36C35.7199 47.36 35.6299 47.267 35.6299 47.156C35.6299 47.0449 35.7199 46.9561 35.8307 46.9561C35.9414 46.9561 36.0314 47.0463 36.0314 47.156Z" fill="#9C9C9C"/>
<path d="M36.1545 51.8491C36.1545 51.9865 36.0437 52.0976 35.908 52.0976C35.7723 52.0976 35.6602 51.9865 35.6602 51.8491C35.6602 51.7116 35.7723 51.6006 35.908 51.6006C36.0437 51.6006 36.1545 51.713 36.1545 51.8491Z" fill="#9C9C9C"/>
<path d="M33.4973 54.2496C33.4973 54.3607 33.4073 54.4509 33.2993 54.4509C33.1912 54.4509 33.0957 54.3607 33.0957 54.2496C33.0957 54.1386 33.1857 54.0483 33.2993 54.0483C33.4128 54.0483 33.4973 54.1386 33.4973 54.2496Z" fill="#9C9C9C"/>
<path d="M30.318 55.225C30.318 55.3597 30.2058 55.4735 30.0701 55.4735C29.9344 55.4735 29.8223 55.3611 29.8223 55.225C29.8223 55.089 29.933 54.9766 30.0701 54.9766C30.2072 54.9766 30.318 55.0876 30.318 55.225Z" fill="#9C9C9C"/>
<path d="M29.6686 53.0572C29.6686 53.1946 29.5564 53.3056 29.4207 53.3056C29.285 53.3056 29.1729 53.1946 29.1729 53.0572C29.1729 52.9197 29.2836 52.8101 29.4207 52.8101C29.5578 52.8101 29.6686 52.9225 29.6686 53.0572Z" fill="#9C9C9C"/>
<path d="M29.2971 54.4352C29.2971 54.5462 29.2071 54.6365 29.0963 54.6365C28.9855 54.6365 28.8955 54.5462 28.8955 54.4352C28.8955 54.3241 28.9855 54.2339 29.0963 54.2339C29.2071 54.2339 29.2971 54.3241 29.2971 54.4352Z" fill="#9C9C9C"/>
<path d="M26.9182 53.2887C26.9182 53.3997 26.8282 53.49 26.7174 53.49C26.6066 53.49 26.5166 53.3997 26.5166 53.2887C26.5166 53.1776 26.6066 53.0874 26.7174 53.0874C26.8282 53.0874 26.9182 53.1776 26.9182 53.2887Z" fill="#9C9C9C"/>
<path d="M35.2277 57.1617C35.2277 57.2728 35.1377 57.363 35.027 57.363C34.9162 57.363 34.8262 57.2728 34.8262 57.1617C34.8262 57.0507 34.9162 56.9604 35.027 56.9604C35.1377 56.9604 35.2277 57.0507 35.2277 57.1617Z" fill="#9C9C9C"/>
<path d="M37.7311 55.3183C37.7311 55.4557 37.6203 55.5668 37.4832 55.5668C37.3461 55.5668 37.2354 55.4557 37.2354 55.3183C37.2354 55.1809 37.3475 55.0698 37.4832 55.0698C37.6189 55.0698 37.7311 55.1809 37.7311 55.3183Z" fill="#9C9C9C"/>
<path d="M38.008 57.6881C38.008 57.7992 37.918 57.8894 37.8072 57.8894C37.6965 57.8894 37.6064 57.7992 37.6064 57.6881C37.6064 57.5771 37.6965 57.4868 37.8072 57.4868C37.918 57.4868 38.008 57.5771 38.008 57.6881Z" fill="#9C9C9C"/>
<path d="M48.298 55.4264C48.298 55.5374 48.2053 55.6277 48.0973 55.6277C47.9893 55.6277 47.8965 55.5374 47.8965 55.4264C47.8965 55.3153 47.9865 55.2251 48.0973 55.2251C48.208 55.2251 48.298 55.3153 48.298 55.4264Z" fill="#9C9C9C"/>
<path d="M43.508 57.13C43.508 57.2411 43.418 57.3313 43.3072 57.3313C43.1965 57.3313 43.1064 57.2411 43.1064 57.13C43.1064 57.0189 43.1965 56.9287 43.3072 56.9287C43.418 56.9287 43.508 57.0189 43.508 57.13Z" fill="#9C9C9C"/>
<path d="M56.3918 59.5773C56.3918 59.6883 56.3018 59.7785 56.191 59.7785C56.0802 59.7785 55.9902 59.6883 55.9902 59.5773C55.9902 59.4662 56.0802 59.376 56.191 59.376C56.3018 59.376 56.3918 59.4662 56.3918 59.5773Z" fill="#9C9C9C"/>
<path d="M57.441 50.0517C57.441 50.1891 57.3303 50.3002 57.1932 50.3002C57.0561 50.3002 56.9453 50.1891 56.9453 50.0517C56.9453 49.9143 57.0575 49.8032 57.1932 49.8032C57.3289 49.8032 57.441 49.9157 57.441 50.0517Z" fill="#9C9C9C"/>
<path d="M55.4641 51.3995C55.4641 51.5106 55.3741 51.6008 55.2633 51.6008C55.1525 51.6008 55.0625 51.5106 55.0625 51.3995C55.0625 51.2885 55.1525 51.1982 55.2633 51.1982C55.3741 51.1982 55.4641 51.2885 55.4641 51.3995Z" fill="#9C9C9C"/>
<path d="M57.4108 51.7866C57.4108 51.9212 57.2986 52.0351 57.1629 52.0351C57.0272 52.0351 56.915 51.9226 56.915 51.7866C56.915 51.6505 57.0272 51.5381 57.1629 51.5381C57.2986 51.5381 57.4108 51.6505 57.4108 51.7866Z" fill="#9C9C9C"/>
<path d="M55.4641 54.1871C55.4641 54.2982 55.3741 54.3884 55.2633 54.3884C55.1525 54.3884 55.0625 54.2982 55.0625 54.1871C55.0625 54.0761 55.1525 53.9858 55.2633 53.9858C55.3741 53.9858 55.4641 54.0761 55.4641 54.1871Z" fill="#9C9C9C"/>
<path d="M60.5002 48.7052C60.5002 48.8162 60.4102 48.9065 60.2994 48.9065C60.1886 48.9065 60.0986 48.8149 60.0986 48.7052C60.0986 48.5955 60.1886 48.5039 60.2994 48.5039C60.4102 48.5039 60.5002 48.5941 60.5002 48.7052Z" fill="#9C9C9C"/>
<path d="M60.9947 49.9282C60.9947 50.0656 60.8826 50.1767 60.7469 50.1767C60.6112 50.1767 60.499 50.0656 60.499 49.9282C60.499 49.7907 60.6098 49.6797 60.7469 49.6797C60.884 49.6797 60.9947 49.7921 60.9947 49.9282Z" fill="#9C9C9C"/>
<path d="M64.4567 51.3844C64.4567 51.519 64.3445 51.6329 64.2088 51.6329C64.0731 51.6329 63.9609 51.5204 63.9609 51.3844C63.9609 51.2483 64.0717 51.1387 64.2088 51.1387C64.3459 51.1387 64.4567 51.2497 64.4567 51.3844Z" fill="#9C9C9C"/>
<path d="M60.9338 53.9703C60.9338 54.0814 60.8438 54.1716 60.733 54.1716C60.6222 54.1716 60.5322 54.0814 60.5322 53.9703C60.5322 53.8593 60.6222 53.769 60.733 53.769C60.8438 53.769 60.9338 53.8593 60.9338 53.9703Z" fill="#9C9C9C"/>
<path d="M63.1584 51.8644C63.1584 51.9754 63.0684 52.0657 62.9576 52.0657C62.8468 52.0657 62.7568 51.9754 62.7568 51.8644C62.7568 51.7533 62.8468 51.6631 62.9576 51.6631C63.0684 51.6631 63.1584 51.7533 63.1584 51.8644Z" fill="#9C9C9C"/>
<path d="M62.7561 55.1168C62.7561 55.2279 62.666 55.3181 62.5553 55.3181C62.4445 55.3181 62.3545 55.2279 62.3545 55.1168C62.3545 55.0058 62.4445 54.9155 62.5553 54.9155C62.666 54.9155 62.7561 55.0058 62.7561 55.1168Z" fill="#9C9C9C"/>
<path d="M49.2894 22.006C49.3226 21.8797 49.4237 21.7811 49.5525 21.752L49.6231 21.2217L49.7269 21.7575C49.8502 21.7922 49.9457 21.8936 49.9748 22.0213L50.5107 22.0976L49.9693 22.1934C49.9346 22.3156 49.8363 22.4114 49.7131 22.4419L49.6231 22.9875L49.5303 22.4377C49.4112 22.403 49.3157 22.3045 49.288 22.1823L48.7715 22.0976L49.2907 22.006H49.2894Z" fill="#9C9C9C"/>
<path d="M35.4382 59.9992C35.4714 59.8728 35.5725 59.7757 35.7013 59.7465L35.7719 59.2148L35.8758 59.7507C35.999 59.7868 36.0946 59.8881 36.1236 60.0144L36.6581 60.0922L36.1195 60.188C36.0835 60.3101 35.9866 60.4045 35.8633 60.4364L35.7733 60.9806L35.6805 60.4323C35.5587 60.3962 35.4659 60.299 35.4354 60.1782L34.9189 60.0936L35.4396 60.0006L35.4382 59.9992Z" fill="#9C9C9C"/>
<path d="M60.911 55.1017C60.9443 54.9754 61.0453 54.8782 61.1741 54.8491L61.242 54.3174L61.3486 54.8532C61.4718 54.8893 61.5674 54.9907 61.5965 55.1184L62.1323 55.1933L61.5923 55.2891C61.5563 55.4113 61.4594 55.5057 61.3361 55.5376L61.2434 56.0818L61.1533 55.5334C61.0315 55.4973 60.9387 55.4002 60.9083 55.2794L60.3945 55.1947L60.9138 55.1017H60.911Z" fill="#9C9C9C"/>
<path d="M62.9261 49.6378C62.9593 49.5115 63.0632 49.4143 63.1892 49.3852L63.2598 48.8535L63.3637 49.3894C63.4869 49.4254 63.5838 49.5268 63.6129 49.6545L64.1474 49.7295L63.606 49.8252C63.5727 49.9474 63.473 50.0418 63.3526 50.0723L63.2598 50.6193L63.1698 50.0682C63.0479 50.0349 62.9552 49.9377 62.9247 49.8141L62.4082 49.7295L62.9275 49.6365L62.9261 49.6378Z" fill="#9C9C9C"/>
<path d="M37.9075 29.4621C37.9435 29.3358 38.0446 29.2359 38.172 29.2081L38.2426 28.6792L38.3465 29.215C38.4697 29.2511 38.5653 29.3525 38.5943 29.4788L39.1288 29.5538L38.5902 29.6509C38.5542 29.7731 38.4573 29.8675 38.334 29.8994L38.244 30.4436L38.1512 29.8952C38.0294 29.8592 37.9366 29.762 37.9061 29.6384L37.3896 29.5538L37.9089 29.4635L37.9075 29.4621Z" fill="#9C9C9C"/>
<path d="M41.9147 48.6839C40.5701 46.9431 38.975 45.1302 37.4726 42.8896L36.9561 43.016C37.0114 43.102 37.0668 43.1909 37.1208 43.277C38.518 45.4425 39.9083 47.2624 41.3456 48.9991C41.3456 48.9991 41.358 49.0213 41.3788 49.0518L41.9147 48.6839Z" fill="#9C9C9C"/>
<path d="M41.9731 49.949C42.8787 51.2455 44.5362 53.3361 45.3628 52.5935C46.2546 51.7953 44.2135 50.9568 42.6543 49.4937L41.9717 49.949H41.9731Z" fill="#9C9C9C"/>
<path d="M40.4791 43.1507L39.2038 39.9121L38.2677 43.1507H40.4791ZM45.0805 46.5796H40.36L41.4152 45.5204L41.0399 44.5473H37.8731L37.5491 45.6606L38.3037 46.581H35.3086L36.3637 45.5218L38.3937 38.4656L37.477 37.5425H41.8846L45.0445 45.5204L45.6981 46.177L45.0805 46.5796Z" fill="#9C9C9C"/>
<path d="M61.1211 43.1507L59.8458 39.9121L58.9097 43.1507H61.1211ZM60.7057 37.5425H62.5266L65.6865 45.5204L66.7389 46.5796H61.0006L62.053 45.5204L61.6805 44.5473H58.5137L58.1869 45.6606L58.9443 46.581H55.9492L57.0044 45.5218L58.9416 38.7849L60.7043 37.5439L60.7057 37.5425ZM58.3129 37.852L57.9515 37.5425H58.7616L58.3143 37.852H58.3129Z" fill="#9C9C9C"/>
<path d="M31.499 43.17V38.4641L30.5837 37.5409H33.6314L32.7175 38.4641V45.5202L33.7699 46.5794H29.764L26.3146 40.7268V45.5188L27.2022 46.578H24.0146L25.067 45.5188V38.4627L24.1531 37.5396H28.1438L31.499 43.1686V43.17Z" fill="#9C9C9C"/>
<path d="M48.0642 44.6291C47.9036 44.5056 47.7554 44.3681 47.6211 44.2085L47.6654 44.8915L48.0642 44.6277V44.6291Z" fill="#9C9C9C"/>
<path d="M51.4525 43.7697C52.0881 44.0182 52.5451 44.2695 52.534 44.7123C52.5202 45.2051 51.7046 45.5605 51.069 45.5397C50.738 45.5286 49.9834 45.48 49.2107 45.219L47.7471 46.1644L47.8094 47.1666L48.8604 46.3948C50.1385 46.846 51.688 47.0361 53.1197 46.5697C54.5432 46.1033 56.0415 44.9108 55.2093 42.8216C55.05 42.419 54.7606 42.0845 54.4435 41.8193L51.4525 43.7711V43.7697Z" fill="#9C9C9C"/>
<path d="M53.3759 41.1684C53.3426 41.1545 53.3094 41.1392 53.2789 41.1268C52.7403 40.9074 51.1008 40.2591 50.6411 40.0204C50.1066 39.7413 50.1661 38.8543 51.4525 38.6724C52.6198 38.5114 54.2358 39.447 54.5819 39.8607L54.4864 37.0469L53.542 37.7021C52.2113 37.2357 50.6618 37.2523 49.5762 37.7687C48.5626 38.249 47.4729 39.2624 47.6058 40.702C47.7387 42.1401 48.852 42.6982 49.8573 43.1535C49.9501 43.1979 50.0512 43.2396 50.1467 43.2771L51.7668 42.2262L53.3759 41.1684Z" fill="#9C9C9C"/>
<path d="M23.8326 63.2059C41.5071 45.122 67.8498 36.7679 76.579 19.5225C71.3212 36.289 43.1729 45.5357 23.7842 64.0555L23.8326 63.2059Z" fill="url(#paint0_linear_37_934)"/>
<path d="M35.8038 41.1242C35.5989 40.7675 35.3912 40.4024 35.1807 40.029C30.4685 31.5305 31.1484 22.8585 39.6768 26.6357C46.9133 29.8438 53.8258 38.8407 56.6077 45.2277C57.8968 48.1887 61.3503 59.8064 50.2269 55.1005L50.2048 55.0325C60.7105 59.3692 58.8938 48.3789 53.2733 39.9554C50.0912 35.187 45.9413 31.2181 43.3242 29.2997C34.6102 22.921 29.2984 26.8218 35.4147 39.3362C35.693 39.9026 35.9797 40.4426 36.276 40.9604L35.8052 41.1242H35.8038Z" fill="#9C9C9C"/>
<path opacity="0.7" d="M58.3317 36.3778C65.8645 32.9212 72.4987 27.8544 76.5794 19.5225C72.633 25.2001 65.7732 29.5438 57.8291 33.0809C56.5219 33.6611 55.1857 34.2206 53.8273 34.7606C41.1766 39.7969 25.8188 43.5353 17.0176 49.331L17.6518 49.5545C27.3032 43.6644 44.3656 42.7857 58.3317 36.3792V36.3778Z" fill="#9C9C9C"/>
</g>
<defs>
<linearGradient id="paint0_linear_37_934" x1="26.3237" y1="67.1469" x2="75.5945" y2="17.9996" gradientUnits="userSpaceOnUse">
<stop offset="0.6" stop-color="#9C9C9C" stop-opacity="0.7"/>
<stop offset="0.87" stop-color="#9C9C9C" stop-opacity="0"/>
</linearGradient>
<clipPath id="clip0_37_934">
<rect width="59.5618" height="49.9747" fill="white" transform="translate(17.0176 17.0127)"/>
</clipPath>
</defs>
</svg>
