<svg width="119" height="39" viewBox="0 0 119 39" fill="none" xmlns="http://www.w3.org/2000/svg">
<path d="M38.3 38.8235H0V0.625H38.3V38.8235ZM7.11685 11.5463C7.24603 11.7063 7.30139 11.7831 7.36598 11.8508C9.41738 13.9852 11.4749 16.1166 13.5233 18.2572C13.6924 18.4325 13.8677 18.4633 14.0892 18.4633C15.2117 18.4571 16.3343 18.4633 17.4569 18.4602C17.5307 18.4602 17.6076 18.4479 17.7798 18.4325C16.7464 17.3807 15.7715 16.3903 14.7842 15.3846C14.858 15.2555 14.9257 15.1447 14.9872 15.034C15.7653 13.5916 16.116 12.063 15.8638 10.4237C15.2333 6.32094 11.4319 3.60215 7.33522 4.32183C3.61686 4.97385 0.821176 8.54765 1.49472 12.5766C2.24516 17.0731 6.69243 19.7735 11.0167 18.3372C11.3273 18.2326 11.6195 18.0696 11.9147 17.9343C11.8748 17.8297 11.8686 17.7928 11.8501 17.7713C11.0443 16.9009 10.2324 16.0305 9.42968 15.157C9.29128 15.0063 9.14673 14.9879 8.95297 15.0094C7.78425 15.1294 6.76316 14.7787 5.92661 13.9576C4.78558 12.835 4.51185 11.1034 5.21923 9.67946C5.95122 8.20934 7.42441 7.40662 8.98065 7.62806C10.6691 7.86795 11.9639 9.06742 12.2284 10.6852C12.3299 11.3034 12.3392 11.9369 12.0347 12.5582C11.7394 12.266 11.4872 11.9923 11.2074 11.7462C11.0966 11.6478 10.9336 11.5586 10.7922 11.5586C9.60499 11.5433 8.41782 11.5494 7.11993 11.5494L7.11685 11.5463ZM16.608 4.29415C16.5957 4.45408 16.5804 4.58018 16.5804 4.70627C16.5804 7.91409 16.5804 11.1188 16.5834 14.3266C16.5834 14.505 16.5957 14.6865 16.6296 14.8587C16.9279 16.3165 17.7675 17.3868 19.0931 17.9989C21.0215 18.8877 23.0175 18.9154 24.9551 18.0481C26.4375 17.3837 27.3571 16.1843 27.4156 14.5204C27.4802 12.6843 27.4279 10.842 27.434 9.00284C27.434 8.79062 27.3725 8.63684 27.2249 8.48614C26.2069 7.4343 25.1981 6.37323 24.1832 5.31524C24.1124 5.24142 24.0263 5.17683 23.8787 5.04766C23.8787 5.31216 23.8787 5.48439 23.8787 5.6597C23.8787 8.44308 23.8664 11.2265 23.8848 14.0099C23.891 14.8372 23.4942 15.0863 22.9406 15.2216C22.3501 15.3662 21.7412 15.357 21.1507 15.2155C20.434 15.0432 20.1942 14.708 20.1942 13.9606C20.1942 10.9343 20.1942 7.90486 20.1942 4.8785C20.1942 4.6909 20.1942 4.50329 20.1942 4.29415H16.608ZM36.5377 4.3003H24.257C24.3523 4.40794 24.3984 4.46946 24.4538 4.52174C25.2904 5.38597 26.1638 6.22253 26.9512 7.12982C27.391 7.63729 27.8523 7.84642 28.5043 7.78491C28.9964 7.7357 29.5008 7.77569 30.036 7.77569V18.3833H33.7451V7.77876H36.5377V4.3003Z" fill="#9C9C9C"/>
<path d="M48.2614 11.2307C48.5228 11.4768 48.7965 11.732 49.0826 12.0027C48.7873 12.2856 48.4982 12.5624 48.1937 12.8546C47.8892 12.5778 47.5786 12.2979 47.2587 12.0088C46.5083 12.3933 45.7271 12.5932 44.8998 12.5255C43.6726 12.4271 42.6331 11.9688 41.9411 10.8985C41.5905 10.3572 41.4244 9.75136 41.3383 9.11472C41.2245 8.24741 41.2614 7.38933 41.5228 6.55893C41.9472 5.22106 42.8668 4.39681 44.2447 4.12923C45.6841 3.84936 46.9942 4.09848 48.0522 5.19338C48.5167 5.67317 48.7658 6.26675 48.9134 6.91262C49.1441 7.91525 49.1318 8.91789 48.8457 9.89899C48.7166 10.3419 48.4736 10.754 48.2583 11.2307H48.2614ZM46.1146 10.8955C45.8317 10.6156 45.5856 10.3696 45.3334 10.1235C45.6287 9.84978 45.9116 9.58836 46.2069 9.31463C46.4591 9.53915 46.7297 9.77597 47.0435 10.0528C47.5325 8.82254 47.5817 7.66613 47.0373 6.54047C46.6559 5.75313 45.9609 5.37791 45.0874 5.41482C44.2324 5.44865 43.5927 5.87308 43.2574 6.65735C42.8176 7.68458 42.8299 8.73643 43.2082 9.79135C43.6204 10.9355 45.0013 11.486 46.1146 10.8985V10.8955Z" fill="#9C9C9C"/>
<path d="M105.709 35.7297H107.262C107.687 36.271 108.28 36.4555 108.966 36.2556C109.308 36.1572 109.535 35.9327 109.64 35.6036C109.781 35.1546 109.778 34.6932 109.744 34.2227C109.68 34.238 109.637 34.2319 109.621 34.2503C108.692 35.3514 106.967 35.2684 106.106 34.0873C105.632 33.4353 105.518 32.6818 105.522 31.9129C105.522 31.3286 105.608 30.7473 105.872 30.2091C106.401 29.1357 107.585 28.6159 108.699 28.9696C109.157 29.1142 109.48 29.4186 109.778 29.8277V29.068H111.236C111.254 29.1111 111.288 29.1541 111.288 29.1972C111.285 31.1686 111.285 33.137 111.27 35.1084C111.264 35.8373 111.067 36.5232 110.421 36.9292C110.046 37.1629 109.594 37.3259 109.157 37.3997C108.4 37.5258 107.628 37.5227 106.896 37.2306C106.312 36.9999 105.854 36.6339 105.694 35.985C105.681 35.9388 105.678 35.8896 105.678 35.8404C105.678 35.8097 105.697 35.782 105.712 35.7266L105.709 35.7297ZM109.781 32.1282C109.741 31.55 109.67 31.0887 109.375 30.695C108.831 29.9692 107.761 30.0368 107.361 30.8457C107.013 31.5469 107.007 32.2851 107.305 33.0109C107.511 33.5184 107.899 33.7675 108.446 33.749C108.985 33.7306 109.381 33.4753 109.575 32.9709C109.689 32.6726 109.732 32.3466 109.784 32.1251L109.781 32.1282Z" fill="#9C9C9C"/>
<path d="M41.6016 15.5859H43.2747C43.287 15.7151 43.3085 15.8381 43.3085 15.9612C43.3085 17.3944 43.3085 18.8276 43.3085 20.2608C43.3085 20.4392 43.3177 20.6206 43.3085 20.799C43.2562 22.1338 44.2219 22.7335 45.446 22.4075C45.9412 22.2753 46.2733 21.9554 46.3687 21.4418C46.4179 21.1865 46.4425 20.9251 46.4456 20.6668C46.4517 19.169 46.4487 17.6712 46.4487 16.1734C46.4487 15.9981 46.4487 15.8197 46.4487 15.6105H48.1002C48.1064 15.7305 48.1187 15.8381 48.1187 15.9489C48.1187 17.5943 48.1248 19.2366 48.1187 20.8821C48.1187 21.1896 48.0787 21.5002 48.0172 21.7986C47.8265 22.6936 47.2975 23.321 46.4302 23.6224C45.3661 23.9915 44.2896 24.0007 43.2316 23.5855C42.3243 23.2287 41.783 22.5613 41.6785 21.5771C41.6354 21.1896 41.6108 20.799 41.6077 20.4084C41.5985 18.9752 41.6046 17.542 41.6077 16.1088C41.6077 15.9489 41.6077 15.792 41.6077 15.5859H41.6016Z" fill="#9C9C9C"/>
<path d="M103.431 6.9998V4.26562H104.941V12.3051H103.492V11.6316C103.4 11.6685 103.348 11.6747 103.323 11.7023C102.29 12.8741 100.463 12.7388 99.6938 11.3671C98.9649 10.0692 98.9403 8.68829 99.6262 7.35657C100.143 6.35701 101.345 5.90798 102.385 6.31087C102.748 6.45235 103.049 6.74145 103.431 6.9998ZM100.703 9.31262C100.783 9.67247 100.829 10.0446 100.955 10.3891C101.133 10.8781 101.481 11.1918 102.047 11.2072C102.631 11.2225 103.065 10.9734 103.298 10.4537C103.649 9.66631 103.609 8.85744 103.206 8.107C102.782 7.31351 101.585 7.29813 101.084 8.04857C100.832 8.42686 100.749 8.85129 100.703 9.31262Z" fill="#9C9C9C"/>
<path d="M76.4562 34.9848H74.9492V26.9453H76.4347V29.7133C76.5362 29.6703 76.5916 29.6641 76.6162 29.6364C77.3266 28.7845 78.5938 28.6 79.5195 29.2059C80.0762 29.5688 80.3192 30.1101 80.3315 30.7375C80.3561 32.1338 80.3407 33.5332 80.3407 34.9695H78.8029C78.8029 34.7972 78.8029 34.6404 78.8029 34.4804C78.8029 33.487 78.8029 32.4936 78.8029 31.5002C78.8029 31.4203 78.8029 31.3372 78.8029 31.2573C78.7783 30.6298 78.5599 30.3131 78.0678 30.1993C77.4681 30.0578 76.893 30.2731 76.6592 30.7898C76.5362 31.0604 76.4716 31.3803 76.4655 31.6817C76.4409 32.6074 76.4562 33.5362 76.4562 34.4651C76.4562 34.625 76.4562 34.7849 76.4562 34.9879V34.9848Z" fill="#9C9C9C"/>
<path d="M67.5548 32.4412H63.4059C63.492 33.4654 63.938 33.9328 64.7745 33.939C65.1713 33.939 65.5127 33.819 65.7433 33.4807C65.8448 33.3331 65.9555 33.2593 66.1401 33.2654C66.5614 33.2778 66.9828 33.2685 67.4349 33.2685C67.1458 34.2681 66.4968 34.8371 65.5434 35.08C64.9806 35.2246 64.4116 35.1846 63.8519 35.0523C62.8369 34.8094 62.2249 34.1604 61.985 33.1486C61.8035 32.3766 61.7697 31.6108 61.985 30.8358C62.2987 29.7101 63.0614 29.0181 64.2178 28.8858C64.5685 28.8459 64.9406 28.8489 65.2851 28.9105C66.5214 29.138 67.275 29.9592 67.4441 31.2294C67.4933 31.5985 67.5118 31.9706 67.5518 32.4412H67.5548ZM65.894 31.3924C65.8356 30.5774 65.3435 30.0945 64.6207 30.1191C63.941 30.1407 63.4982 30.6266 63.4828 31.3924H65.894Z" fill="#9C9C9C"/>
<path d="M91.5424 12.2728C91.4101 12.3036 91.3517 12.3282 91.2963 12.3282C90.8104 12.3313 90.3244 12.3282 89.817 12.3282C89.7524 12.1068 89.6939 11.9068 89.6232 11.67C89.5125 11.7561 89.4141 11.8238 89.3249 11.9007C88.6636 12.4697 87.8947 12.5804 87.0797 12.3836C86.3385 12.2052 85.9079 11.6639 85.8741 10.8581C85.8341 9.96002 86.194 9.32952 86.9198 9.04657C87.3381 8.88357 87.7994 8.83128 88.2423 8.74209C88.5129 8.68981 88.7897 8.67136 89.0635 8.62522C89.4233 8.56371 89.6017 8.38533 89.614 8.10853C89.6263 7.81635 89.4295 7.52109 89.1157 7.47189C88.799 7.42575 88.4637 7.41345 88.15 7.46881C87.7748 7.5334 87.6333 7.86863 87.5411 8.21925H86.1201C86.1786 7.10589 86.7137 6.46925 87.7902 6.26626C88.516 6.13094 89.2449 6.12171 89.9584 6.36776C90.6443 6.60458 91.1456 7.09051 91.121 7.97013C91.0964 8.86512 91.1149 9.7601 91.1179 10.6551C91.1179 11.2148 91.041 11.7961 91.5485 12.2698L91.5424 12.2728ZM89.5709 9.46793C89.1004 9.57557 88.6267 9.67091 88.1623 9.79701C87.5595 9.96002 87.295 10.3691 87.4457 10.8612C87.5841 11.3133 88.0424 11.5009 88.6144 11.3379C88.6298 11.3348 88.6452 11.3256 88.6606 11.3194C89.4664 11.0611 89.7708 10.4398 89.574 9.46793H89.5709Z" fill="#9C9C9C"/>
<path d="M71.2624 21.0711H67.2088C67.2088 21.8676 67.5102 22.3443 68.0976 22.5227C68.7681 22.7288 69.2387 22.5596 69.6631 21.9507H71.207C71.044 22.615 70.6811 23.1286 70.1091 23.4269C68.9742 24.0175 67.8301 23.9805 66.729 23.307C66.3538 23.0794 66.1047 22.7319 65.9478 22.3351C65.5572 21.3509 65.4988 20.3452 65.8248 19.3334C66.157 18.3061 66.8828 17.7125 67.9408 17.5618C68.3221 17.5065 68.7281 17.5096 69.1033 17.5803C70.3705 17.8171 71.1148 18.6906 71.2593 20.0623C71.2901 20.3668 71.2655 20.6743 71.2655 21.0741L71.2624 21.0711ZM69.7031 20.0469C69.62 19.1242 68.9803 18.7275 68.3375 18.7828C67.6947 18.8382 67.2795 19.318 67.2703 20.0838C67.9808 20.0838 68.6912 20.0838 69.4017 20.0838C69.497 20.0838 69.5893 20.0623 69.7062 20.0469H69.7031Z" fill="#9C9C9C"/>
<path d="M41.1819 31.973C41.1635 31.4594 41.2588 30.9365 41.4987 30.4444C42.0708 29.2696 43.4578 28.6391 44.8388 28.9036C46.6933 29.2572 47.3761 30.6597 47.29 32.2867C47.2746 32.5758 47.2131 32.868 47.1331 33.1448C46.8102 34.2304 46.0536 34.8486 44.971 35.0916C44.4389 35.2115 43.9038 35.1869 43.3748 35.0547C41.957 34.701 41.1881 33.6215 41.185 31.9668L41.1819 31.973ZM45.7553 32.0007C45.6722 31.6408 45.6261 31.284 45.5031 30.958C45.2878 30.3891 44.8142 30.1522 44.2329 30.1522C43.6516 30.1522 43.181 30.3983 42.9534 30.958C42.6736 31.647 42.6705 32.3574 42.9473 33.0494C43.1718 33.6061 43.6116 33.8614 44.2083 33.8675C44.8049 33.8737 45.2663 33.6461 45.4908 33.0863C45.6261 32.748 45.6692 32.3728 45.7553 32.0007Z" fill="#9C9C9C"/>
<path d="M62.4615 9.73905H58.4172C58.3495 10.4157 58.6386 10.9385 59.1738 11.1538C59.8258 11.4183 60.364 11.2461 60.8776 10.6064H62.3908C62.2524 11.1292 61.9879 11.529 61.6096 11.8643C60.6224 12.7377 58.6571 12.5932 57.8174 11.9073C57.3715 11.5413 57.1008 11.0677 56.9594 10.5202C56.7625 9.75135 56.7318 8.97016 56.9378 8.20435C57.2208 7.14328 57.8759 6.4482 58.9923 6.23599C60.2164 6.00224 61.4189 6.41744 61.9695 7.32166C62.4062 8.03827 62.52 8.83176 62.4615 9.73598V9.73905ZM60.8684 8.73027C60.8623 7.946 60.2902 7.37087 59.4936 7.45083C58.857 7.51234 58.4602 7.97983 58.451 8.73027H60.8653H60.8684Z" fill="#9C9C9C"/>
<path d="M98.5393 31.9401C98.5331 31.0789 98.7453 30.2916 99.3973 29.6887C100.382 28.7815 101.541 28.6554 102.759 29.0706C103.909 29.4642 104.503 30.3377 104.592 31.531C104.629 32.0262 104.604 32.5429 104.5 33.0257C104.174 34.5143 102.817 35.2524 101.323 35.1632C101.114 35.1509 100.901 35.111 100.698 35.0587C99.4281 34.7357 98.6131 33.7423 98.5393 32.4291C98.53 32.2661 98.5393 32.1031 98.5393 31.9401ZM103.097 32.0016C103.02 31.6694 102.98 31.3096 102.857 30.9836C102.648 30.4269 102.153 30.1224 101.553 30.1501C100.972 30.1747 100.511 30.4177 100.289 30.9805C100.019 31.6725 100.012 32.3799 100.302 33.0719C100.535 33.6285 100.978 33.8777 101.627 33.8684C102.23 33.8592 102.664 33.5886 102.87 33.0257C102.983 32.712 103.02 32.3676 103.097 32.0046V32.0016Z" fill="#9C9C9C"/>
<path d="M68.6993 10.614C68.3856 11.632 67.712 12.2379 66.7002 12.4101C66.245 12.487 65.7529 12.4747 65.2946 12.3978C64.1874 12.2133 63.5077 11.5459 63.2525 10.4417C63.0741 9.66668 63.0464 8.89779 63.2617 8.1289C63.5723 7.02785 64.2951 6.36968 65.4207 6.22205C65.879 6.16362 66.368 6.20667 66.8232 6.29587C67.629 6.4558 68.1764 6.97864 68.4871 7.73215C68.7393 8.34112 68.7977 8.98391 68.8008 9.70667H64.7164C64.6642 10.4263 64.944 10.9369 65.4669 11.146C66.082 11.3921 66.6079 11.2598 67.0477 10.7708C67.1215 10.6878 67.2476 10.6078 67.3553 10.6017C67.6967 10.5801 68.038 10.5924 68.3794 10.5924C68.4748 10.5924 68.5701 10.6047 68.6962 10.6109L68.6993 10.614ZM67.1646 8.72249C67.1062 7.87055 66.6294 7.41845 65.8605 7.4492C65.1839 7.47688 64.7533 7.9659 64.7595 8.72249H67.1646Z" fill="#9C9C9C"/>
<path d="M94.5347 31.9936C94.5501 32.8117 94.3871 33.5775 93.8212 34.208C93.1507 34.9553 92.2741 35.2106 91.3146 35.1706C90.5334 35.1368 89.8199 34.8815 89.254 34.3002C88.8695 33.9035 88.6142 33.4329 88.5281 32.8916C88.359 31.8398 88.3836 30.8095 89.0971 29.9237C89.8783 28.9549 91.2777 28.6105 92.6125 29.0441C93.7689 29.4193 94.4793 30.3974 94.5378 31.6983C94.5408 31.7967 94.5378 31.8921 94.5378 31.9905L94.5347 31.9936ZM93.0154 32.0889C92.9538 31.7291 92.9323 31.4369 92.8524 31.1601C92.674 30.5327 92.1542 30.1575 91.5145 30.1544C90.8502 30.1544 90.3458 30.4989 90.152 31.1263C89.9644 31.7291 89.9706 32.3442 90.1705 32.947C90.2197 33.0977 90.3027 33.2484 90.3981 33.3745C91.0039 34.1649 92.3541 34.0204 92.7478 33.1069C92.8923 32.7717 92.9385 32.3934 93.0154 32.0889Z" fill="#9C9C9C"/>
<path d="M90.1594 26.0564V24.8784C90.2732 24.8723 90.3655 24.8661 90.4578 24.863C91.2759 24.8415 91.6234 24.3371 91.3497 23.5682C90.6854 21.7014 90.0241 19.8345 89.3629 17.9676C89.3352 17.8938 89.3198 17.8169 89.2891 17.7062H90.9929C91.4143 19.1486 91.8356 20.588 92.257 22.0274C92.2908 22.0274 92.3216 22.0304 92.3554 22.0335C92.7583 20.5942 93.1612 19.1548 93.5702 17.7031H95.188C95.0896 17.9861 95.0004 18.2506 94.9081 18.5181C94.2038 20.5234 93.5118 22.5348 92.7952 24.537C92.297 25.9272 91.9802 26.1579 90.3901 26.0933C90.3286 26.0933 90.264 26.0717 90.1564 26.0533L90.1594 26.0564Z" fill="#9C9C9C"/>
<path d="M113.018 37.4188V36.2347C113.128 36.2224 113.251 36.204 113.375 36.1978C114.1 36.164 114.454 35.6596 114.214 34.9768C113.79 33.7681 113.362 32.5625 112.935 31.3538C112.67 30.6064 112.409 29.856 112.129 29.0687H113.842C114.257 30.4865 114.679 31.9351 115.103 33.3837C115.134 33.3837 115.168 33.3837 115.198 33.3837C115.601 31.9443 116.004 30.508 116.407 29.0625H118.031C117.711 29.9698 117.407 30.8433 117.102 31.7136C116.579 33.1961 116.056 34.6816 115.527 36.164C115.469 36.3301 115.386 36.4931 115.306 36.6499C115.075 37.1051 114.706 37.3819 114.196 37.4157C113.811 37.4434 113.424 37.4219 113.012 37.4219L113.018 37.4188Z" fill="#9C9C9C"/>
<path d="M81.7254 8.11527H80.2799C79.9262 7.39251 79.4034 7.16184 78.6406 7.38328C78.3946 7.4571 78.1793 7.58935 78.1547 7.86615C78.127 8.1614 78.3454 8.30595 78.5883 8.37362C79.0558 8.50586 79.5325 8.60121 80.0031 8.7273C80.3014 8.80727 80.6028 8.88416 80.8827 9.00411C82.0207 9.49004 82.2975 10.7664 81.4732 11.6952C81.3871 11.7906 81.2918 11.8828 81.1872 11.9566C80.1907 12.6948 78.0286 12.6363 77.0875 11.8459C76.6723 11.4953 76.4354 11.0524 76.4631 10.4588H77.9701C78.0563 10.7633 78.1854 11.074 78.5484 11.197C78.9759 11.3415 79.4126 11.3569 79.8432 11.2523C79.9908 11.2154 80.1384 11.1109 80.243 10.9971C80.4552 10.7633 80.4214 10.5019 80.1538 10.3358C79.9785 10.2282 79.7724 10.1544 79.5694 10.1021C79.145 9.99136 78.7144 9.90832 78.29 9.8099C78.1332 9.773 77.9732 9.73301 77.8225 9.67458C77.1951 9.43468 76.7061 9.06562 76.6538 8.33056C76.5954 7.52783 76.8814 6.86044 77.6103 6.50982C78.6652 5.99928 79.7601 6.04234 80.8058 6.55903C81.3994 6.85429 81.6824 7.39866 81.7254 8.11527Z" fill="#9C9C9C"/>
<path d="M80.0936 19.4407C79.7553 18.7148 79.1248 18.4719 78.3897 18.7548C78.156 18.844 77.996 18.9793 77.996 19.25C77.996 19.5083 78.1591 19.6406 78.3713 19.699C78.8572 19.8343 79.3493 19.9389 79.8352 20.0681C80.1489 20.1511 80.4688 20.2311 80.761 20.3603C81.8743 20.8585 82.1081 22.3102 81.2039 23.1406C81.007 23.322 80.7579 23.4727 80.5057 23.5681C79.5031 23.9433 78.4881 23.9095 77.504 23.5281C76.7658 23.2421 76.3168 22.7008 76.2676 21.8273H77.7715C78.1744 22.5685 78.7895 22.8299 79.6261 22.6023C79.7491 22.5685 79.8752 22.5131 79.9736 22.4363C80.3058 22.1779 80.2873 21.7935 79.8998 21.6212C79.5769 21.4767 79.2201 21.4152 78.8757 21.3229C78.4666 21.2153 78.0483 21.1445 77.6516 21.003C76.9996 20.7724 76.5013 20.3664 76.4736 19.6067C76.446 18.8102 76.7504 18.1551 77.4947 17.8137C78.5466 17.3339 79.623 17.3954 80.6533 17.8875C81.2254 18.1612 81.5206 18.7456 81.5237 19.4345H80.0997L80.0936 19.4407Z" fill="#9C9C9C"/>
<path d="M75.2619 12.3138H73.7733C73.7641 12.1538 73.7487 12.0124 73.7487 11.8709C73.7456 10.7637 73.7333 9.65647 73.7426 8.54926C73.7487 7.91877 73.4811 7.59892 72.9583 7.48512C72.4016 7.36517 71.7865 7.65428 71.5866 8.17097C71.4912 8.42009 71.4574 8.70919 71.4513 8.97984C71.4359 10.0686 71.4451 11.1604 71.4451 12.2922H69.9258V6.36561H71.3559V7.20217C71.4943 7.05762 71.5712 6.98995 71.6327 6.90999C72.1679 6.23644 73.1182 5.99655 74.0286 6.3041C74.819 6.57168 75.268 7.19602 75.2773 8.08793C75.2896 9.40735 75.2834 10.7237 75.2834 12.0431C75.2834 12.12 75.2711 12.2 75.2619 12.3138Z" fill="#9C9C9C"/>
<path d="M54.1953 6.34683H55.7146V12.295H54.2999C54.2876 12.0428 54.2753 11.8029 54.263 11.5445C54.1984 11.5722 54.143 11.5784 54.1184 11.6091C53.4695 12.4241 52.4576 12.7071 51.5011 12.3196C50.7907 12.0305 50.4185 11.4461 50.3939 10.7264C50.3447 9.28091 50.3785 7.83232 50.3785 6.35298H51.8733C51.8825 6.47292 51.904 6.59287 51.904 6.71589C51.9071 7.77389 51.9071 8.83188 51.9102 9.88987C51.9102 9.92371 51.9102 9.95446 51.9102 9.98829C51.9163 10.7849 52.2208 11.157 52.879 11.1755C53.6109 11.197 54.1399 10.7418 54.1799 10.016C54.2076 9.4962 54.1922 8.97336 54.1922 8.45359C54.1922 7.77081 54.1922 7.08804 54.1922 6.34375L54.1953 6.34683Z" fill="#9C9C9C"/>
<path d="M81.8848 29.0566H83.3118V29.8501C83.4072 29.8009 83.4656 29.7947 83.4841 29.7609C84.0592 28.7859 85.3356 28.6783 86.2152 29.075C86.8918 29.3826 87.2363 29.9546 87.2547 30.662C87.2916 32.0891 87.267 33.5192 87.267 34.9801H85.7661C85.7569 34.8356 85.7384 34.6941 85.7384 34.5526C85.7384 33.6084 85.7384 32.6642 85.7384 31.72C85.7384 31.557 85.7415 31.394 85.7323 31.231C85.6954 30.5728 85.4401 30.2622 84.8742 30.1669C84.3145 30.0715 83.767 30.3422 83.564 30.865C83.4625 31.1295 83.4041 31.4309 83.401 31.7139C83.3826 32.7872 83.3949 33.8606 83.3949 34.9709H81.8909V29.0535L81.8848 29.0566Z" fill="#9C9C9C"/>
<path d="M55.1202 23.6502H53.6317C53.6194 23.5241 53.5947 23.4011 53.5947 23.2781C53.5917 22.2693 53.5947 21.2605 53.5947 20.2548C53.5947 20.1256 53.6009 19.9934 53.5917 19.8642C53.5548 19.2737 53.3364 18.9753 52.8566 18.8462C52.3491 18.7108 51.7771 18.88 51.5341 19.326C51.3773 19.612 51.2758 19.9626 51.2635 20.2886C51.2296 21.2482 51.2481 22.2078 51.2481 23.1673C51.2481 23.3119 51.2481 23.4564 51.2481 23.6348H49.7441V17.7297H51.1589C51.1681 17.9666 51.1804 18.2126 51.1927 18.4925C51.2665 18.4556 51.3219 18.4433 51.3404 18.4125C51.9093 17.4499 53.1734 17.3299 54.0684 17.7328C54.745 18.0373 55.0956 18.6032 55.111 19.3106C55.1479 20.7376 55.1202 22.1678 55.1202 23.6502Z" fill="#9C9C9C"/>
<path d="M97.9863 12.3071H96.5008C96.4885 12.1626 96.4639 12.0242 96.4639 11.8858C96.4608 10.8924 96.4639 9.89897 96.4608 8.90864C96.4608 8.74564 96.4454 8.58571 96.4331 8.4227C96.3993 7.95522 96.2025 7.61998 95.7165 7.50003C95.2244 7.38009 94.6924 7.55539 94.4094 7.94292C94.188 8.24432 94.1234 8.58878 94.1234 8.95478C94.1265 9.97894 94.1234 11.0062 94.1234 12.0303C94.1234 12.1103 94.1142 12.1872 94.1049 12.2979H92.6133V6.35592H94.0373V7.11251C94.0649 7.12789 94.0895 7.14327 94.1172 7.15865C94.2249 7.03255 94.3325 6.90645 94.4371 6.77728C95.2091 5.82693 97.4388 5.95918 97.8694 7.43237C97.9186 7.60153 97.9432 7.77991 97.9617 7.95829C97.9801 8.11822 97.9801 8.2843 97.9801 8.44423C97.9801 9.71136 97.9801 10.9816 97.9801 12.3071H97.9863Z" fill="#9C9C9C"/>
<path d="M57.257 34.9739V28.3092H54.8242V26.9375H61.369V28.2723H58.9578V34.9709H57.257V34.9739Z" fill="#9C9C9C"/>
<path d="M73.7712 31.1004H72.2335C72.1965 31.0081 72.1627 30.922 72.1289 30.8359C71.972 30.4453 71.7045 30.1746 71.2647 30.15C70.8156 30.1254 70.4281 30.2669 70.1821 30.6729C70.0898 30.8236 70.0098 30.9866 69.9637 31.1557C69.8068 31.7463 69.813 32.3491 69.9637 32.9365C70.1267 33.5854 70.5173 33.9022 71.077 33.9115C71.603 33.9207 71.969 33.6131 72.175 32.9857C72.1842 32.958 72.2058 32.9334 72.2335 32.8811H73.7159C73.6636 34.136 72.6579 34.9325 71.7352 35.0986C71.2493 35.1878 70.7664 35.194 70.2835 35.0894C69.4654 34.9141 68.8626 34.4558 68.552 33.6685C68.1184 32.5736 68.1676 31.4695 68.5981 30.3899C68.9118 29.5934 69.5239 29.1197 70.3635 28.9383C71.034 28.7906 71.6891 28.8275 72.3226 29.0797C73.2053 29.4334 73.6667 30.1039 73.7743 31.0942L73.7712 31.1004Z" fill="#9C9C9C"/>
<path d="M59.2266 17.7031H60.9427C61.3487 19.1486 61.7547 20.5911 62.1606 22.0335C62.1914 22.0335 62.2252 22.0366 62.256 22.0397C62.6712 20.6065 63.0864 19.1732 63.5108 17.7124H65.1439C64.4304 19.693 63.7261 21.6521 63.0126 23.639H61.3549C60.6567 21.6921 59.9493 19.7176 59.2266 17.7062V17.7031Z" fill="#9C9C9C"/>
<path d="M48.7328 30.1411C48.3914 30.1257 48.1362 30.1104 47.8594 30.0981V29.0677C48.1239 29.0462 48.3884 29.0247 48.7144 29.0001C48.7144 28.7571 48.7052 28.5326 48.7144 28.3112C48.7513 27.4285 49.2557 26.8964 50.1414 26.8257C50.4798 26.798 50.8211 26.8226 51.2025 26.8226V28.019C50.5443 28.1276 50.2409 28.4598 50.2921 29.0155C50.4398 29.0216 50.5935 29.0308 50.7504 29.0339C50.895 29.037 51.0395 29.0339 51.2271 29.0339V30.1011H50.2798V34.9759H48.7328V30.1411Z" fill="#9C9C9C"/>
<path d="M85.4727 18.7477C85.4727 18.4617 85.4727 18.2187 85.4727 17.9788C85.4727 17.9019 85.4911 17.822 85.5034 17.7236C85.7679 17.6928 86.0201 17.662 86.3123 17.6282V16.0781H87.8531V17.6436C88.1976 17.6651 88.4867 17.6836 88.8066 17.7051V18.7416C88.5021 18.76 88.2007 18.7754 87.8531 18.7938C87.8531 19.3874 87.8531 19.9503 87.8531 20.5162C87.8531 21.0052 87.8531 21.4911 87.8531 21.9801C87.8562 22.4599 87.927 22.5307 88.4129 22.5768C88.539 22.5891 88.6651 22.5922 88.8158 22.5983V23.6748C88.1699 23.7732 87.5333 23.7793 86.9089 23.5671C86.4845 23.4226 86.3215 23.0812 86.3184 22.6537C86.3154 21.5649 86.3123 20.4762 86.3123 19.3874C86.3123 19.1967 86.3123 19.0061 86.3123 18.7969C86.014 18.7785 85.7771 18.7631 85.4727 18.7446V18.7477Z" fill="#9C9C9C"/>
<path d="M84.6914 12.3099H83.209V4.27344H84.6914V12.313V12.3099Z" fill="#9C9C9C"/>
<path d="M73.9242 23.652H72.4141V17.7254H73.8657V18.6665C74.1702 18.3313 74.4009 18.0083 74.7023 17.7684C75.0129 17.5193 75.4097 17.4732 75.8341 17.5716V19.0632C75.6772 19.0725 75.5204 19.0817 75.3666 19.0879C74.4562 19.1186 73.9857 19.5553 73.9365 20.4657C73.9057 21.0162 73.9272 21.5698 73.9242 22.1234C73.9242 22.6217 73.9242 23.123 73.9242 23.6551V23.652Z" fill="#9C9C9C"/>
<path d="M95.8125 26.9219H97.2057C97.3134 27.2817 97.3441 34.3432 97.2426 34.9675C97.1873 34.9768 97.1258 35.0014 97.0673 35.0014C96.6614 35.0045 96.2585 35.0014 95.8125 35.0014V26.9219Z" fill="#9C9C9C"/>
<path d="M58.1992 23.6454H56.7383V17.7188H58.1992V23.6454Z" fill="#9C9C9C"/>
<path d="M83.0352 17.7188H84.5268V23.6331H83.0352V17.7188Z" fill="#9C9C9C"/>
<path d="M83.0312 15.5H84.5198V16.8932H83.0312V15.5Z" fill="#9C9C9C"/>
<path d="M58.1958 16.9041H56.7441V15.5078H58.1958V16.9041Z" fill="#9C9C9C"/>
</svg>
