<svg width="34" height="34" viewBox="0 0 34 34" fill="none" xmlns="http://www.w3.org/2000/svg">
<path fill-rule="evenodd" clip-rule="evenodd" d="M6.41591 6.41558H27.5848L27.5848 27.5845L6.41591 27.5845L6.41591 6.41558ZM4.53369 6.41558C4.53369 5.37605 5.37639 4.53336 6.41591 4.53336H27.5848C28.6243 4.53336 29.467 5.37606 29.467 6.41558V27.5845C29.467 28.624 28.6243 29.4667 27.5848 29.4667H6.41591C5.37639 29.4667 4.53369 28.624 4.53369 27.5845V6.41558ZM23.3009 12.3829C23.595 11.9544 23.486 11.3686 23.0574 11.0745C22.6289 10.7803 22.0431 10.8893 21.749 11.3179L15.0662 21.0553L11.6326 16.9162C11.3007 16.5162 10.7074 16.4609 10.3074 16.7927C9.90735 17.1246 9.85207 17.7179 10.1839 18.1179L14.4129 23.2158C14.6013 23.4429 14.8853 23.5685 15.18 23.5551C15.4748 23.5417 15.7462 23.3908 15.9132 23.1475L23.3009 12.3829Z" fill="#F2F2F2"/>
</svg>
