<svg width="29" height="29" viewBox="0 0 29 29" fill="none" xmlns="http://www.w3.org/2000/svg">
<path fill-rule="evenodd" clip-rule="evenodd" d="M18.446 1.88223L18.3513 1.88217C17.9213 1.88176 17.5506 1.88141 17.2222 1.96024C16.1899 2.20808 15.3839 3.01412 15.136 4.04647C15.0572 4.37483 15.0575 4.7455 15.0579 5.1755L15.058 5.27023V9.78756L15.0579 9.88229C15.0575 10.3123 15.0572 10.683 15.136 11.0113C15.3839 12.0437 16.1899 12.8497 17.2222 13.0976C17.5506 13.1764 17.9213 13.176 18.3513 13.1756L18.446 13.1756H22.9633L23.0581 13.1756C23.4881 13.176 23.8587 13.1764 24.1871 13.0976C25.2194 12.8497 26.0255 12.0437 26.2733 11.0113C26.3522 10.683 26.3518 10.3123 26.3514 9.88229L26.3513 9.78756V5.27023L26.3514 5.1755C26.3518 4.7455 26.3522 4.37483 26.2733 4.04647C26.0255 3.01412 25.2194 2.20808 24.1871 1.96024C23.8587 1.88141 23.4881 1.88176 23.0581 1.88217L22.9633 1.88223H18.446ZM17.6616 3.79045C17.7426 3.77101 17.8667 3.76445 18.446 3.76445H22.9633C23.5426 3.76445 23.6667 3.77101 23.7477 3.79045C24.0918 3.87307 24.3605 4.14175 24.4431 4.48586C24.4626 4.56687 24.4691 4.69091 24.4691 5.27023V9.78756C24.4691 10.3669 24.4626 10.4909 24.4431 10.5719C24.3605 10.916 24.0918 11.1847 23.7477 11.2673C23.6667 11.2868 23.5426 11.2933 22.9633 11.2933H18.446C17.8667 11.2933 17.7426 11.2868 17.6616 11.2673C17.3175 11.1847 17.0488 10.916 16.9662 10.5719C16.9468 10.4909 16.9402 10.3669 16.9402 9.78756V5.27023C16.9402 4.69091 16.9468 4.56687 16.9662 4.48586C17.0488 4.14175 17.3175 3.87307 17.6616 3.79045ZM5.27054 1.88223L5.17581 1.88217C4.74582 1.88176 4.37514 1.88141 4.04678 1.96024C3.01443 2.20809 2.2084 3.01412 1.96055 4.04647C1.88172 4.37483 1.88207 4.74551 1.88248 5.1755L1.88254 5.27023V9.78757L1.88248 9.8823C1.88207 10.3123 1.88172 10.683 1.96055 11.0113C2.2084 12.0437 3.01443 12.8497 4.04678 13.0976C4.37514 13.1764 4.74582 13.176 5.17581 13.1756L5.27054 13.1756H9.78788L9.88261 13.1756C10.3126 13.176 10.6833 13.1764 11.0116 13.0976C12.044 12.8497 12.85 12.0437 13.0979 11.0113C13.1767 10.683 13.1763 10.3123 13.1759 9.88229L13.1759 9.78757V5.27023L13.1759 5.1755C13.1763 4.74551 13.1767 4.37483 13.0979 4.04647C12.85 3.01412 12.044 2.20809 11.0116 1.96024C10.6833 1.88141 10.3126 1.88176 9.88261 1.88217L9.78788 1.88223H5.27054ZM4.48618 3.79046C4.56719 3.77101 4.69123 3.76445 5.27054 3.76445H9.78788C10.3672 3.76445 10.4912 3.77101 10.5722 3.79046C10.9164 3.87307 11.185 4.14175 11.2677 4.48587C11.2871 4.56688 11.2937 4.69091 11.2937 5.27023V9.78757C11.2937 10.3669 11.2871 10.4909 11.2677 10.5719C11.185 10.916 10.9164 11.1847 10.5722 11.2673C10.4912 11.2868 10.3672 11.2933 9.78788 11.2933H5.27054C4.69123 11.2933 4.56719 11.2868 4.48618 11.2673C4.14206 11.1847 3.87338 10.916 3.79077 10.5719C3.77132 10.4909 3.76477 10.3669 3.76477 9.78757V5.27023C3.76477 4.69091 3.77132 4.56688 3.79077 4.48587C3.87338 4.14175 4.14206 3.87307 4.48618 3.79046ZM5.17571 15.0577L5.27044 15.0578H9.78778L9.88251 15.0577C10.3125 15.0573 10.6832 15.057 11.0115 15.1358C12.0439 15.3836 12.8499 16.1897 13.0978 17.222C13.1766 17.5504 13.1762 17.9211 13.1758 18.3511L13.1758 18.4458V22.9631L13.1758 23.0578C13.1762 23.4878 13.1766 23.8585 13.0978 24.1869C12.8499 25.2192 12.0439 26.0253 11.0115 26.2731C10.6832 26.3519 10.3125 26.3516 9.88251 26.3512L9.78778 26.3511H5.27044L5.17571 26.3512C4.74572 26.3516 4.37504 26.3519 4.04668 26.2731C3.01433 26.0253 2.2083 25.2192 1.96045 24.1869C1.88162 23.8585 1.88197 23.4878 1.88238 23.0579L1.88244 22.9631V18.4458L1.88238 18.3511C1.88197 17.9211 1.88162 17.5504 1.96045 17.222C2.2083 16.1897 3.01433 15.3836 4.04668 15.1358C4.37504 15.057 4.74572 15.0573 5.17571 15.0577ZM5.27044 16.94C4.69112 16.94 4.56709 16.9466 4.48608 16.966C4.14196 17.0486 3.87328 17.3173 3.79067 17.6614C3.77122 17.7424 3.76466 17.8665 3.76466 18.4458V22.9631C3.76466 23.5424 3.77122 23.6665 3.79067 23.7475C3.87328 24.0916 4.14196 24.3603 4.48608 24.4429C4.56709 24.4623 4.69112 24.4689 5.27044 24.4689H9.78778C10.3671 24.4689 10.4911 24.4623 10.5721 24.4429C10.9163 24.3603 11.1849 24.0916 11.2676 23.7475C11.287 23.6665 11.2936 23.5424 11.2936 22.9631V18.4458C11.2936 17.8665 11.287 17.7424 11.2676 17.6614C11.1849 17.3173 10.9163 17.0486 10.5721 16.966C10.4911 16.9466 10.3671 16.94 9.78778 16.94H5.27044ZM18.446 15.0578L18.3513 15.0577C17.9213 15.0573 17.5506 15.057 17.2222 15.1358C16.1899 15.3836 15.3839 16.1897 15.136 17.222C15.0572 17.5504 15.0575 17.9211 15.0579 18.3511L15.058 18.4458V22.9631L15.0579 23.0579C15.0575 23.4878 15.0572 23.8585 15.136 24.1869C15.3839 25.2192 16.1899 26.0253 17.2222 26.2731C17.5506 26.3519 17.9213 26.3516 18.3513 26.3512L18.446 26.3511H22.9633L23.0581 26.3512C23.4881 26.3516 23.8587 26.3519 24.1871 26.2731C25.2194 26.0253 26.0255 25.2192 26.2733 24.1869C26.3522 23.8585 26.3518 23.4878 26.3514 23.0578L26.3513 22.9631V18.4458L26.3514 18.3511C26.3518 17.9211 26.3522 17.5504 26.2733 17.222C26.0255 16.1897 25.2194 15.3836 24.1871 15.1358C23.8587 15.057 23.4881 15.0573 23.0581 15.0577L22.9633 15.0578H18.446ZM17.6616 16.966C17.7426 16.9466 17.8667 16.94 18.446 16.94H22.9633C23.5426 16.94 23.6667 16.9466 23.7477 16.966C24.0918 17.0486 24.3605 17.3173 24.4431 17.6614C24.4626 17.7424 24.4691 17.8665 24.4691 18.4458V22.9631C24.4691 23.5424 24.4626 23.6665 24.4431 23.7475C24.3605 24.0916 24.0918 24.3603 23.7477 24.4429C23.6667 24.4623 23.5426 24.4689 22.9633 24.4689H18.446C17.8667 24.4689 17.7426 24.4623 17.6616 24.4429C17.3175 24.3603 17.0488 24.0916 16.9662 23.7475C16.9468 23.6665 16.9402 23.5424 16.9402 22.9631V18.4458C16.9402 17.8665 16.9468 17.7424 16.9662 17.6614C17.0488 17.3173 17.3175 17.0486 17.6616 16.966Z" fill="#F2F2F2"/>
</svg>
