<svg width="22" height="24" viewBox="0 0 22 24" fill="none" xmlns="http://www.w3.org/2000/svg">
<path fill-rule="evenodd" clip-rule="evenodd" d="M4.74226 0.882897C5.0774 0.729831 5.47103 0.786403 5.74949 1.02765L18.9953 12.5034C19.2866 12.7557 19.3946 13.1601 19.2679 13.524C19.1412 13.888 18.8055 14.1379 18.4206 14.1549L13.8375 14.357L16.5429 20.3014C16.7582 20.7744 16.5494 21.3323 16.0765 21.5477L12.9197 22.9857C12.4469 23.2011 11.8889 22.9925 11.6733 22.5197L8.96364 16.5764L5.8161 19.8951C5.55103 20.1746 5.14242 20.2643 4.78464 20.1217C4.42686 19.979 4.19214 19.6327 4.19214 19.2475V1.73895C4.19214 1.37051 4.40713 1.03596 4.74226 0.882897ZM6.07436 3.79948V16.8876L8.55822 14.2686C8.77352 14.0416 9.08758 13.9364 9.39618 13.988C9.70479 14.0396 9.96758 14.2412 10.0974 14.5258L12.9956 20.8828L14.4401 20.2248L11.547 13.8681C11.4175 13.5835 11.4378 13.2531 11.6011 12.9865C11.7645 12.7199 12.0497 12.5518 12.3621 12.538L15.9768 12.3786L6.07436 3.79948Z" fill="#F2F2F2"/>
</svg>
