<svg width="1317" height="505" viewBox="0 0 1317 505" fill="none" xmlns="http://www.w3.org/2000/svg">
<path d="M445 154V344C445 346.209 446.791 348 449 348H465" stroke="#FFFF8D" stroke-dasharray="2 2"/>
<path d="M3.816 21.192C3.12 21.192 2.52 21.008 2.016 20.64C1.52 20.272 1.14 19.756 0.876 19.092C0.62 18.428 0.492 17.652 0.492 16.764C0.492 15.916 0.624 15.164 0.888 14.508C1.16 13.844 1.548 13.328 2.052 12.96C2.564 12.584 3.172 12.396 3.876 12.396C4.444 12.396 4.94 12.524 5.364 12.78C5.796 13.028 6.132 13.38 6.372 13.836C6.62 14.284 6.764 14.804 6.804 15.396H5.436C5.372 14.788 5.2 14.316 4.92 13.98C4.64 13.644 4.264 13.476 3.792 13.476C3.368 13.476 3.004 13.612 2.7 13.884C2.404 14.148 2.18 14.528 2.028 15.024C1.884 15.52 1.812 16.1 1.812 16.764C1.812 17.436 1.888 18.024 2.04 18.528C2.2 19.032 2.428 19.424 2.724 19.704C3.02 19.984 3.376 20.124 3.792 20.124C4.296 20.124 4.68 19.96 4.944 19.632C5.216 19.304 5.4 18.816 5.496 18.168H6.816C6.728 19.128 6.424 19.872 5.904 20.4C5.392 20.928 4.696 21.192 3.816 21.192ZM10.7953 21.192C10.1393 21.192 9.57131 21.012 9.09131 20.652C8.61931 20.292 8.25931 19.784 8.01131 19.128C7.76331 18.472 7.63931 17.696 7.63931 16.8C7.63931 15.904 7.76331 15.128 8.01131 14.472C8.25931 13.808 8.61931 13.296 9.09131 12.936C9.56331 12.576 10.1313 12.396 10.7953 12.396C11.4513 12.396 12.0153 12.576 12.4873 12.936C12.9673 13.296 13.3273 13.808 13.5673 14.472C13.8153 15.128 13.9393 15.904 13.9393 16.8C13.9393 17.696 13.8153 18.472 13.5673 19.128C13.3193 19.784 12.9593 20.292 12.4873 20.652C12.0153 21.012 11.4513 21.192 10.7953 21.192ZM10.7953 20.124C11.1633 20.124 11.4833 19.992 11.7553 19.728C12.0353 19.456 12.2473 19.072 12.3913 18.576C12.5433 18.072 12.6193 17.48 12.6193 16.8C12.6193 16.112 12.5473 15.52 12.4033 15.024C12.2593 14.528 12.0473 14.148 11.7673 13.884C11.4953 13.612 11.1713 13.476 10.7953 13.476C10.4033 13.476 10.0713 13.612 9.79931 13.884C9.52731 14.148 9.31931 14.528 9.17531 15.024C9.03131 15.52 8.95931 16.112 8.95931 16.8C8.95931 17.48 9.03131 18.072 9.17531 18.576C9.32731 19.072 9.53931 19.456 9.81131 19.728C10.0913 19.992 10.4193 20.124 10.7953 20.124ZM15.0506 21V12.6H16.7426L17.7626 16.632C17.7866 16.72 17.8106 16.812 17.8346 16.908C17.8586 16.996 17.8786 17.084 17.8946 17.172C17.9186 17.244 17.9386 17.32 17.9546 17.4C17.9706 17.48 17.9906 17.56 18.0146 17.64C18.0786 17.352 18.1586 17.016 18.2546 16.632L19.2506 12.6H20.9306V21H19.8266L19.8866 15.132C19.8866 14.884 19.8866 14.652 19.8866 14.436C19.8946 14.212 19.9026 14.008 19.9106 13.824L18.6146 18.996H17.3666L16.0466 13.848C16.0546 13.96 16.0586 14.072 16.0586 14.184C16.0666 14.288 16.0746 14.396 16.0826 14.508C16.0826 14.604 16.0826 14.704 16.0826 14.808C16.0906 14.912 16.0946 15.02 16.0946 15.132L16.1426 21H15.0506ZM22.5099 21V12.6H25.4379C25.9979 12.6 26.4979 12.68 26.9379 12.84C27.3779 13 27.7299 13.26 27.9939 13.62C28.2579 13.98 28.3899 14.452 28.3899 15.036C28.3899 15.62 28.2579 16.092 27.9939 16.452C27.7379 16.812 27.3899 17.072 26.9499 17.232C26.5099 17.392 26.0059 17.472 25.4379 17.472H23.7819V21H22.5099ZM25.4259 16.392C25.9939 16.392 26.4099 16.276 26.6739 16.044C26.9459 15.804 27.0819 15.468 27.0819 15.036C27.0819 14.596 26.9499 14.26 26.6859 14.028C26.4219 13.788 26.0019 13.668 25.4259 13.668H23.7819V16.392H25.4259ZM29.7653 21V12.6H35.2973V13.668H31.0373V16.152H35.0933V17.232H31.0373V19.92H35.4533V21H29.7653ZM38.9406 21V13.668H36.2406V12.6H42.9006V13.668H40.2126V21H38.9406ZM46.1359 21V12.6H47.4079V21H46.1359ZM43.8679 21V19.92H49.6759V21H43.8679ZM43.8679 13.668V12.6H49.6759V13.668H43.8679ZM53.3312 21V13.668H50.6312V12.6H57.2912V13.668H54.6032V21H53.3312ZM61.1625 21.192C60.5065 21.192 59.9385 21.012 59.4585 20.652C58.9865 20.292 58.6265 19.784 58.3785 19.128C58.1305 18.472 58.0065 17.696 58.0065 16.8C58.0065 15.904 58.1305 15.128 58.3785 14.472C58.6265 13.808 58.9865 13.296 59.4585 12.936C59.9305 12.576 60.4985 12.396 61.1625 12.396C61.8185 12.396 62.3825 12.576 62.8545 12.936C63.3345 13.296 63.6945 13.808 63.9345 14.472C64.1825 15.128 64.3065 15.904 64.3065 16.8C64.3065 17.696 64.1825 18.472 63.9345 19.128C63.6865 19.784 63.3265 20.292 62.8545 20.652C62.3825 21.012 61.8185 21.192 61.1625 21.192ZM61.1625 20.124C61.5305 20.124 61.8505 19.992 62.1225 19.728C62.4025 19.456 62.6145 19.072 62.7585 18.576C62.9105 18.072 62.9865 17.48 62.9865 16.8C62.9865 16.112 62.9145 15.52 62.7705 15.024C62.6265 14.528 62.4145 14.148 62.1345 13.884C61.8625 13.612 61.5385 13.476 61.1625 13.476C60.7705 13.476 60.4385 13.612 60.1665 13.884C59.8945 14.148 59.6865 14.528 59.5425 15.024C59.3985 15.52 59.3265 16.112 59.3265 16.8C59.3265 17.48 59.3985 18.072 59.5425 18.576C59.6945 19.072 59.9065 19.456 60.1785 19.728C60.4585 19.992 60.7865 20.124 61.1625 20.124ZM65.5138 21V12.6H68.7778C69.5858 12.6 70.2298 12.792 70.7098 13.176C71.1898 13.56 71.4298 14.104 71.4298 14.808C71.4298 15.32 71.2738 15.756 70.9618 16.116C70.6578 16.476 70.2898 16.72 69.8578 16.848C70.2978 16.92 70.6418 17.128 70.8898 17.472C71.1378 17.808 71.2618 18.244 71.2618 18.78V21H69.9898V19.02C69.9898 18.428 69.8658 18.016 69.6178 17.784C69.3778 17.544 68.9618 17.424 68.3698 17.424H66.7858V21H65.5138ZM68.4898 16.344C68.8418 16.344 69.1378 16.292 69.3778 16.188C69.6258 16.084 69.8098 15.932 69.9298 15.732C70.0578 15.532 70.1218 15.288 70.1218 15C70.1218 14.56 69.9818 14.228 69.7018 14.004C69.4298 13.78 69.0258 13.668 68.4898 13.668H66.7858V16.344H68.4898ZM82.7964 21.192C82.1484 21.192 81.5804 21.072 81.0924 20.832C80.6044 20.592 80.2244 20.248 79.9524 19.8C79.6804 19.352 79.5324 18.828 79.5084 18.228H80.8164C80.8324 18.628 80.9284 18.972 81.1044 19.26C81.2804 19.54 81.5164 19.756 81.8124 19.908C82.1084 20.052 82.4484 20.124 82.8324 20.124C83.1924 20.124 83.5124 20.068 83.7924 19.956C84.0724 19.844 84.2884 19.684 84.4404 19.476C84.6004 19.26 84.6804 19.012 84.6804 18.732C84.6804 18.38 84.5484 18.108 84.2844 17.916C84.0284 17.716 83.6284 17.548 83.0844 17.412L82.1124 17.172C81.4164 16.996 80.8564 16.712 80.4324 16.32C80.0084 15.928 79.7964 15.424 79.7964 14.808C79.7964 14.344 79.9244 13.932 80.1804 13.572C80.4444 13.204 80.8004 12.916 81.2484 12.708C81.7044 12.5 82.2084 12.396 82.7604 12.396C83.3444 12.396 83.8604 12.504 84.3084 12.72C84.7564 12.936 85.1124 13.244 85.3764 13.644C85.6404 14.036 85.7884 14.496 85.8204 15.024H84.5124C84.4884 14.72 84.4004 14.452 84.2484 14.22C84.0964 13.988 83.8884 13.808 83.6244 13.68C83.3604 13.544 83.0564 13.476 82.7124 13.476C82.4164 13.476 82.1444 13.528 81.8964 13.632C81.6564 13.728 81.4644 13.872 81.3204 14.064C81.1764 14.248 81.1044 14.452 81.1044 14.676C81.1044 15.02 81.2204 15.292 81.4524 15.492C81.6844 15.684 82.0564 15.848 82.5684 15.984L83.6604 16.26C84.1324 16.38 84.5404 16.544 84.8844 16.752C85.2284 16.952 85.4964 17.208 85.6884 17.52C85.8884 17.824 85.9884 18.192 85.9884 18.624C85.9884 19.096 85.8564 19.528 85.5924 19.92C85.3284 20.312 84.9524 20.624 84.4644 20.856C83.9844 21.08 83.4284 21.192 82.7964 21.192ZM89.9438 21.192C89.2878 21.192 88.7198 21.012 88.2398 20.652C87.7678 20.292 87.4078 19.784 87.1598 19.128C86.9118 18.472 86.7878 17.696 86.7878 16.8C86.7878 15.904 86.9118 15.128 87.1598 14.472C87.4078 13.808 87.7678 13.296 88.2398 12.936C88.7118 12.576 89.2798 12.396 89.9438 12.396C90.5998 12.396 91.1638 12.576 91.6358 12.936C92.1158 13.296 92.4758 13.808 92.7158 14.472C92.9638 15.128 93.0878 15.904 93.0878 16.8C93.0878 17.696 92.9638 18.472 92.7158 19.128C92.4678 19.784 92.1078 20.292 91.6358 20.652C91.1638 21.012 90.5998 21.192 89.9438 21.192ZM89.9438 20.124C90.3118 20.124 90.6318 19.992 90.9038 19.728C91.1838 19.456 91.3958 19.072 91.5398 18.576C91.6918 18.072 91.7678 17.48 91.7678 16.8C91.7678 16.112 91.6958 15.52 91.5518 15.024C91.4078 14.528 91.1958 14.148 90.9158 13.884C90.6438 13.612 90.3198 13.476 89.9438 13.476C89.5518 13.476 89.2198 13.612 88.9478 13.884C88.6758 14.148 88.4678 14.528 88.3238 15.024C88.1798 15.52 88.1077 16.112 88.1077 16.8C88.1077 17.48 88.1798 18.072 88.3238 18.576C88.4758 19.072 88.6878 19.456 88.9598 19.728C89.2398 19.992 89.5678 20.124 89.9438 20.124ZM94.6671 21V12.6H100.271V13.668H95.9391V16.188H100.055V17.256H95.9391V21H94.6671ZM103.698 21V13.668H100.998V12.6H107.658V13.668H104.97V21H103.698ZM109.322 21L108.278 12.6H109.478L110.042 18.564C110.05 18.66 110.058 18.76 110.066 18.864C110.074 18.96 110.082 19.06 110.09 19.164C110.098 19.244 110.102 19.324 110.102 19.404C110.11 19.476 110.118 19.548 110.126 19.62C110.142 19.524 110.158 19.428 110.174 19.332C110.19 19.228 110.206 19.132 110.222 19.044L110.294 18.564L110.942 14.532H112.178L112.826 18.564C112.858 18.74 112.886 18.916 112.91 19.092C112.942 19.268 112.97 19.444 112.994 19.62C113.034 19.18 113.062 18.828 113.078 18.564L113.642 12.6H114.782L113.738 21H112.322L111.686 17.076C111.654 16.916 111.626 16.76 111.602 16.608C111.578 16.448 111.554 16.284 111.53 16.116C111.514 16.196 111.502 16.276 111.494 16.356C111.486 16.436 111.474 16.512 111.458 16.584C111.45 16.672 111.438 16.756 111.422 16.836C111.414 16.916 111.402 16.996 111.386 17.076L110.738 21H109.322ZM115.305 21L117.909 12.6H119.529L122.157 21H120.801L118.989 14.736C118.837 14.24 118.741 13.88 118.701 13.656C118.613 14.008 118.517 14.368 118.413 14.736L116.577 21H115.305ZM116.769 18.576V17.508H120.681V18.576H116.769ZM123.076 21V12.6H126.34C127.148 12.6 127.792 12.792 128.272 13.176C128.752 13.56 128.992 14.104 128.992 14.808C128.992 15.32 128.836 15.756 128.524 16.116C128.22 16.476 127.852 16.72 127.42 16.848C127.86 16.92 128.204 17.128 128.452 17.472C128.7 17.808 128.824 18.244 128.824 18.78V21H127.552V19.02C127.552 18.428 127.428 18.016 127.18 17.784C126.94 17.544 126.524 17.424 125.932 17.424H124.348V21H123.076ZM126.052 16.344C126.404 16.344 126.7 16.292 126.94 16.188C127.188 16.084 127.372 15.932 127.492 15.732C127.62 15.532 127.684 15.288 127.684 15C127.684 14.56 127.544 14.228 127.264 14.004C126.992 13.78 126.588 13.668 126.052 13.668H124.348V16.344H126.052ZM130.5 21V12.6H136.032V13.668H131.772V16.152H135.828V17.232H131.772V19.92H136.188V21H130.5Z" fill="#EDEAE8"/>
<path d="M458.062 504.322C457.368 504.322 456.774 504.142 456.28 503.782C455.787 503.414 455.41 502.887 455.151 502.201C454.892 501.515 454.762 500.692 454.762 499.73C454.762 498.776 454.896 497.956 455.163 497.27C455.431 496.576 455.812 496.045 456.305 495.677C456.807 495.309 457.393 495.125 458.062 495.125C458.731 495.125 459.308 495.309 459.793 495.677C460.287 496.045 460.667 496.576 460.935 497.27C461.203 497.956 461.337 498.784 461.337 499.755C461.337 500.708 461.207 501.528 460.948 502.214C460.688 502.9 460.312 503.423 459.818 503.782C459.333 504.142 458.748 504.322 458.062 504.322ZM458.062 503.268C458.48 503.268 458.836 503.142 459.128 502.891C459.421 502.632 459.643 502.243 459.793 501.725C459.944 501.198 460.019 500.545 460.019 499.767C460.019 498.563 459.852 497.668 459.517 497.082C459.183 496.488 458.698 496.191 458.062 496.191C457.635 496.191 457.276 496.321 456.983 496.58C456.69 496.84 456.464 497.237 456.305 497.772C456.155 498.299 456.079 498.968 456.079 499.78C456.079 500.934 456.251 501.804 456.594 502.39C456.945 502.975 457.434 503.268 458.062 503.268ZM465.585 504.322C464.891 504.322 464.297 504.142 463.803 503.782C463.31 503.414 462.934 502.887 462.674 502.201C462.415 501.515 462.285 500.692 462.285 499.73C462.285 498.776 462.419 497.956 462.687 497.27C462.954 496.576 463.335 496.045 463.829 495.677C464.33 495.309 464.916 495.125 465.585 495.125C466.254 495.125 466.831 495.309 467.317 495.677C467.81 496.045 468.191 496.576 468.458 497.27C468.726 497.956 468.86 498.784 468.86 499.755C468.86 500.708 468.73 501.528 468.471 502.214C468.212 502.9 467.835 503.423 467.342 503.782C466.857 504.142 466.271 504.322 465.585 504.322ZM465.585 503.268C466.003 503.268 466.359 503.142 466.652 502.891C466.944 502.632 467.166 502.243 467.317 501.725C467.467 501.198 467.542 500.545 467.542 499.767C467.542 498.563 467.375 497.668 467.041 497.082C466.706 496.488 466.221 496.191 465.585 496.191C465.159 496.191 464.799 496.321 464.506 496.58C464.213 496.84 463.987 497.237 463.829 497.772C463.678 498.299 463.603 498.968 463.603 499.78C463.603 500.934 463.774 501.804 464.117 502.39C464.468 502.975 464.958 503.268 465.585 503.268ZM470.047 503.243C470.047 502.858 470.152 502.59 470.361 502.44C470.57 502.281 470.825 502.201 471.126 502.201C471.419 502.201 471.67 502.281 471.879 502.44C472.088 502.59 472.192 502.858 472.192 503.243C472.192 503.611 472.088 503.879 471.879 504.046C471.67 504.205 471.419 504.284 471.126 504.284C470.825 504.284 470.57 504.205 470.361 504.046C470.152 503.879 470.047 503.611 470.047 503.243ZM470.047 498.186C470.047 497.802 470.152 497.534 470.361 497.383C470.57 497.224 470.825 497.145 471.126 497.145C471.419 497.145 471.67 497.224 471.879 497.383C472.088 497.534 472.192 497.802 472.192 498.186C472.192 498.554 472.088 498.822 471.879 498.989C471.67 499.148 471.419 499.228 471.126 499.228C470.825 499.228 470.57 499.148 470.361 498.989C470.152 498.822 470.047 498.554 470.047 498.186ZM476.686 504.322C475.992 504.322 475.398 504.142 474.905 503.782C474.411 503.414 474.035 502.887 473.775 502.201C473.516 501.515 473.386 500.692 473.386 499.73C473.386 498.776 473.52 497.956 473.788 497.27C474.056 496.576 474.436 496.045 474.93 495.677C475.432 495.309 476.017 495.125 476.686 495.125C477.355 495.125 477.933 495.309 478.418 495.677C478.911 496.045 479.292 496.576 479.56 497.27C479.827 497.956 479.961 498.784 479.961 499.755C479.961 500.708 479.831 501.528 479.572 502.214C479.313 502.9 478.936 503.423 478.443 503.782C477.958 504.142 477.372 504.322 476.686 504.322ZM476.686 503.268C477.105 503.268 477.46 503.142 477.753 502.891C478.046 502.632 478.267 502.243 478.418 501.725C478.568 501.198 478.644 500.545 478.644 499.767C478.644 498.563 478.476 497.668 478.142 497.082C477.807 496.488 477.322 496.191 476.686 496.191C476.26 496.191 475.9 496.321 475.607 496.58C475.314 496.84 475.089 497.237 474.93 497.772C474.779 498.299 474.704 498.968 474.704 499.78C474.704 500.934 474.875 501.804 475.218 502.39C475.57 502.975 476.059 503.268 476.686 503.268ZM484.21 504.322C483.515 504.322 482.921 504.142 482.428 503.782C481.934 503.414 481.558 502.887 481.299 502.201C481.039 501.515 480.91 500.692 480.91 499.73C480.91 498.776 481.044 497.956 481.311 497.27C481.579 496.576 481.96 496.045 482.453 495.677C482.955 495.309 483.54 495.125 484.21 495.125C484.879 495.125 485.456 495.309 485.941 495.677C486.435 496.045 486.815 496.576 487.083 497.27C487.351 497.956 487.484 498.784 487.484 499.755C487.484 500.708 487.355 501.528 487.095 502.214C486.836 502.9 486.46 503.423 485.966 503.782C485.481 504.142 484.896 504.322 484.21 504.322ZM484.21 503.268C484.628 503.268 484.983 503.142 485.276 502.891C485.569 502.632 485.791 502.243 485.941 501.725C486.092 501.198 486.167 500.545 486.167 499.767C486.167 498.563 486 497.668 485.665 497.082C485.33 496.488 484.845 496.191 484.21 496.191C483.783 496.191 483.423 496.321 483.131 496.58C482.838 496.84 482.612 497.237 482.453 497.772C482.302 498.299 482.227 498.968 482.227 499.78C482.227 500.934 482.399 501.804 482.742 502.39C483.093 502.975 483.582 503.268 484.21 503.268ZM488.671 503.243C488.671 502.858 488.776 502.59 488.985 502.44C489.194 502.281 489.449 502.201 489.75 502.201C490.043 502.201 490.294 502.281 490.503 502.44C490.712 502.59 490.817 502.858 490.817 503.243C490.817 503.611 490.712 503.879 490.503 504.046C490.294 504.205 490.043 504.284 489.75 504.284C489.449 504.284 489.194 504.205 488.985 504.046C488.776 503.879 488.671 503.611 488.671 503.243ZM488.671 498.186C488.671 497.802 488.776 497.534 488.985 497.383C489.194 497.224 489.449 497.145 489.75 497.145C490.043 497.145 490.294 497.224 490.503 497.383C490.712 497.534 490.817 497.802 490.817 498.186C490.817 498.554 490.712 498.822 490.503 498.989C490.294 499.148 490.043 499.228 489.75 499.228C489.449 499.228 489.194 499.148 488.985 498.989C488.776 498.822 488.671 498.554 488.671 498.186ZM495.311 504.322C494.617 504.322 494.023 504.142 493.529 503.782C493.036 503.414 492.659 502.887 492.4 502.201C492.141 501.515 492.011 500.692 492.011 499.73C492.011 498.776 492.145 497.956 492.412 497.27C492.68 496.576 493.061 496.045 493.554 495.677C494.056 495.309 494.642 495.125 495.311 495.125C495.98 495.125 496.557 495.309 497.042 495.677C497.536 496.045 497.916 496.576 498.184 497.27C498.452 497.956 498.586 498.784 498.586 499.755C498.586 500.708 498.456 501.528 498.197 502.214C497.937 502.9 497.561 503.423 497.067 503.782C496.582 504.142 495.997 504.322 495.311 504.322ZM495.311 503.268C495.729 503.268 496.085 503.142 496.377 502.891C496.67 502.632 496.892 502.243 497.042 501.725C497.193 501.198 497.268 500.545 497.268 499.767C497.268 498.563 497.101 497.668 496.766 497.082C496.432 496.488 495.946 496.191 495.311 496.191C494.884 496.191 494.524 496.321 494.232 496.58C493.939 496.84 493.713 497.237 493.554 497.772C493.404 498.299 493.328 498.968 493.328 499.78C493.328 500.934 493.5 501.804 493.843 502.39C494.194 502.975 494.683 503.268 495.311 503.268ZM502.834 504.322C502.14 504.322 501.546 504.142 501.052 503.782C500.559 503.414 500.182 502.887 499.923 502.201C499.664 501.515 499.534 500.692 499.534 499.73C499.534 498.776 499.668 497.956 499.936 497.27C500.203 496.576 500.584 496.045 501.078 495.677C501.579 495.309 502.165 495.125 502.834 495.125C503.503 495.125 504.08 495.309 504.566 495.677C505.059 496.045 505.44 496.576 505.707 497.27C505.975 497.956 506.109 498.784 506.109 499.755C506.109 500.708 505.979 501.528 505.72 502.214C505.461 502.9 505.084 503.423 504.591 503.782C504.106 504.142 503.52 504.322 502.834 504.322ZM502.834 503.268C503.252 503.268 503.608 503.142 503.901 502.891C504.193 502.632 504.415 502.243 504.566 501.725C504.716 501.198 504.791 500.545 504.791 499.767C504.791 498.563 504.624 497.668 504.29 497.082C503.955 496.488 503.47 496.191 502.834 496.191C502.407 496.191 502.048 496.321 501.755 496.58C501.462 496.84 501.236 497.237 501.078 497.772C500.927 498.299 500.852 498.968 500.852 499.78C500.852 500.934 501.023 501.804 501.366 502.39C501.717 502.975 502.207 503.268 502.834 503.268Z" fill="#808080"/>
<path d="M555.65 504.322C554.955 504.322 554.362 504.142 553.868 503.782C553.375 503.414 552.998 502.887 552.739 502.201C552.479 501.515 552.35 500.692 552.35 499.73C552.35 498.776 552.484 497.956 552.751 497.27C553.019 496.576 553.4 496.045 553.893 495.677C554.395 495.309 554.981 495.125 555.65 495.125C556.319 495.125 556.896 495.309 557.381 495.677C557.875 496.045 558.255 496.576 558.523 497.27C558.791 497.956 558.924 498.784 558.924 499.755C558.924 500.708 558.795 501.528 558.536 502.214C558.276 502.9 557.9 503.423 557.406 503.782C556.921 504.142 556.336 504.322 555.65 504.322ZM555.65 503.268C556.068 503.268 556.423 503.142 556.716 502.891C557.009 502.632 557.231 502.243 557.381 501.725C557.532 501.198 557.607 500.545 557.607 499.767C557.607 498.563 557.44 497.668 557.105 497.082C556.771 496.488 556.285 496.191 555.65 496.191C555.223 496.191 554.863 496.321 554.571 496.58C554.278 496.84 554.052 497.237 553.893 497.772C553.743 498.299 553.667 498.968 553.667 499.78C553.667 500.934 553.839 501.804 554.182 502.39C554.533 502.975 555.022 503.268 555.65 503.268ZM563.073 504.322C562.429 504.322 561.868 504.209 561.391 503.983C560.923 503.749 560.563 503.418 560.312 502.992C560.061 502.557 559.936 502.051 559.936 501.474H561.241C561.241 501.833 561.312 502.147 561.454 502.415C561.605 502.682 561.818 502.891 562.094 503.042C562.37 503.193 562.692 503.268 563.06 503.268C563.428 503.268 563.754 503.205 564.039 503.08C564.323 502.946 564.545 502.758 564.704 502.515C564.863 502.272 564.942 501.984 564.942 501.649C564.942 501.331 564.863 501.06 564.704 500.834C564.545 500.6 564.323 500.42 564.039 500.294C563.763 500.169 563.449 500.106 563.098 500.106H562.546V499.002H563.11C563.42 499.002 563.696 498.948 563.938 498.839C564.181 498.73 564.373 498.567 564.516 498.349C564.658 498.132 564.729 497.873 564.729 497.572C564.729 497.145 564.587 496.81 564.302 496.568C564.018 496.317 563.629 496.191 563.135 496.191C562.6 496.191 562.178 496.338 561.868 496.631C561.567 496.923 561.404 497.325 561.379 497.835H560.049C560.066 497.3 560.199 496.827 560.45 496.417C560.71 496.007 561.069 495.689 561.529 495.464C561.989 495.238 562.537 495.125 563.173 495.125C563.717 495.125 564.206 495.225 564.641 495.426C565.076 495.627 565.415 495.911 565.657 496.279C565.908 496.639 566.034 497.049 566.034 497.509C566.034 497.977 565.892 498.387 565.607 498.738C565.331 499.09 564.942 499.345 564.44 499.504C565.009 499.663 565.452 499.935 565.77 500.319C566.088 500.704 566.247 501.173 566.247 501.725C566.247 502.226 566.109 502.674 565.833 503.067C565.565 503.46 565.189 503.77 564.704 503.996C564.227 504.213 563.683 504.322 563.073 504.322ZM567.635 503.243C567.635 502.858 567.739 502.59 567.949 502.44C568.158 502.281 568.413 502.201 568.714 502.201C569.007 502.201 569.258 502.281 569.467 502.44C569.676 502.59 569.78 502.858 569.78 503.243C569.78 503.611 569.676 503.879 569.467 504.046C569.258 504.205 569.007 504.284 568.714 504.284C568.413 504.284 568.158 504.205 567.949 504.046C567.739 503.879 567.635 503.611 567.635 503.243ZM567.635 498.186C567.635 497.802 567.739 497.534 567.949 497.383C568.158 497.224 568.413 497.145 568.714 497.145C569.007 497.145 569.258 497.224 569.467 497.383C569.676 497.534 569.78 497.802 569.78 498.186C569.78 498.554 569.676 498.822 569.467 498.989C569.258 499.148 569.007 499.228 568.714 499.228C568.413 499.228 568.158 499.148 567.949 498.989C567.739 498.822 567.635 498.554 567.635 498.186ZM574.274 504.322C573.58 504.322 572.986 504.142 572.493 503.782C571.999 503.414 571.623 502.887 571.363 502.201C571.104 501.515 570.974 500.692 570.974 499.73C570.974 498.776 571.108 497.956 571.376 497.27C571.643 496.576 572.024 496.045 572.518 495.677C573.019 495.309 573.605 495.125 574.274 495.125C574.943 495.125 575.521 495.309 576.006 495.677C576.499 496.045 576.88 496.576 577.147 497.27C577.415 497.956 577.549 498.784 577.549 499.755C577.549 500.708 577.419 501.528 577.16 502.214C576.901 502.9 576.524 503.423 576.031 503.782C575.546 504.142 574.96 504.322 574.274 504.322ZM574.274 503.268C574.692 503.268 575.048 503.142 575.341 502.891C575.633 502.632 575.855 502.243 576.006 501.725C576.156 501.198 576.232 500.545 576.232 499.767C576.232 498.563 576.064 497.668 575.73 497.082C575.395 496.488 574.91 496.191 574.274 496.191C573.848 496.191 573.488 496.321 573.195 496.58C572.902 496.84 572.677 497.237 572.518 497.772C572.367 498.299 572.292 498.968 572.292 499.78C572.292 500.934 572.463 501.804 572.806 502.39C573.157 502.975 573.647 503.268 574.274 503.268ZM581.797 504.322C581.103 504.322 580.509 504.142 580.016 503.782C579.522 503.414 579.146 502.887 578.887 502.201C578.627 501.515 578.498 500.692 578.498 499.73C578.498 498.776 578.631 497.956 578.899 497.27C579.167 496.576 579.547 496.045 580.041 495.677C580.543 495.309 581.128 495.125 581.797 495.125C582.467 495.125 583.044 495.309 583.529 495.677C584.022 496.045 584.403 496.576 584.671 497.27C584.938 497.956 585.072 498.784 585.072 499.755C585.072 500.708 584.943 501.528 584.683 502.214C584.424 502.9 584.048 503.423 583.554 503.782C583.069 504.142 582.483 504.322 581.797 504.322ZM581.797 503.268C582.216 503.268 582.571 503.142 582.864 502.891C583.157 502.632 583.378 502.243 583.529 501.725C583.68 501.198 583.755 500.545 583.755 499.767C583.755 498.563 583.588 497.668 583.253 497.082C582.918 496.488 582.433 496.191 581.797 496.191C581.371 496.191 581.011 496.321 580.718 496.58C580.426 496.84 580.2 497.237 580.041 497.772C579.89 498.299 579.815 498.968 579.815 499.78C579.815 500.934 579.987 501.804 580.329 502.39C580.681 502.975 581.17 503.268 581.797 503.268ZM586.259 503.243C586.259 502.858 586.364 502.59 586.573 502.44C586.782 502.281 587.037 502.201 587.338 502.201C587.631 502.201 587.882 502.281 588.091 502.44C588.3 502.59 588.405 502.858 588.405 503.243C588.405 503.611 588.3 503.879 588.091 504.046C587.882 504.205 587.631 504.284 587.338 504.284C587.037 504.284 586.782 504.205 586.573 504.046C586.364 503.879 586.259 503.611 586.259 503.243ZM586.259 498.186C586.259 497.802 586.364 497.534 586.573 497.383C586.782 497.224 587.037 497.145 587.338 497.145C587.631 497.145 587.882 497.224 588.091 497.383C588.3 497.534 588.405 497.802 588.405 498.186C588.405 498.554 588.3 498.822 588.091 498.989C587.882 499.148 587.631 499.228 587.338 499.228C587.037 499.228 586.782 499.148 586.573 498.989C586.364 498.822 586.259 498.554 586.259 498.186ZM592.899 504.322C592.204 504.322 591.611 504.142 591.117 503.782C590.623 503.414 590.247 502.887 589.988 502.201C589.728 501.515 589.599 500.692 589.599 499.73C589.599 498.776 589.733 497.956 590 497.27C590.268 496.576 590.649 496.045 591.142 495.677C591.644 495.309 592.229 495.125 592.899 495.125C593.568 495.125 594.145 495.309 594.63 495.677C595.124 496.045 595.504 496.576 595.772 497.27C596.04 497.956 596.173 498.784 596.173 499.755C596.173 500.708 596.044 501.528 595.784 502.214C595.525 502.9 595.149 503.423 594.655 503.782C594.17 504.142 593.585 504.322 592.899 504.322ZM592.899 503.268C593.317 503.268 593.672 503.142 593.965 502.891C594.258 502.632 594.48 502.243 594.63 501.725C594.781 501.198 594.856 500.545 594.856 499.767C594.856 498.563 594.689 497.668 594.354 497.082C594.02 496.488 593.534 496.191 592.899 496.191C592.472 496.191 592.112 496.321 591.82 496.58C591.527 496.84 591.301 497.237 591.142 497.772C590.992 498.299 590.916 498.968 590.916 499.78C590.916 500.934 591.088 501.804 591.431 502.39C591.782 502.975 592.271 503.268 592.899 503.268ZM600.422 504.322C599.728 504.322 599.134 504.142 598.64 503.782C598.147 503.414 597.77 502.887 597.511 502.201C597.252 501.515 597.122 500.692 597.122 499.73C597.122 498.776 597.256 497.956 597.524 497.27C597.791 496.576 598.172 496.045 598.665 495.677C599.167 495.309 599.753 495.125 600.422 495.125C601.091 495.125 601.668 495.309 602.153 495.677C602.647 496.045 603.028 496.576 603.295 497.27C603.563 497.956 603.697 498.784 603.697 499.755C603.697 500.708 603.567 501.528 603.308 502.214C603.048 502.9 602.672 503.423 602.179 503.782C601.693 504.142 601.108 504.322 600.422 504.322ZM600.422 503.268C600.84 503.268 601.196 503.142 601.488 502.891C601.781 502.632 602.003 502.243 602.153 501.725C602.304 501.198 602.379 500.545 602.379 499.767C602.379 498.563 602.212 497.668 601.877 497.082C601.543 496.488 601.058 496.191 600.422 496.191C599.995 496.191 599.636 496.321 599.343 496.58C599.05 496.84 598.824 497.237 598.665 497.772C598.515 498.299 598.44 498.968 598.44 499.78C598.44 500.934 598.611 501.804 598.954 502.39C599.305 502.975 599.795 503.268 600.422 503.268Z" fill="#808080"/>
<path d="M661.603 504.322C660.909 504.322 660.315 504.142 659.821 503.782C659.328 503.414 658.951 502.887 658.692 502.201C658.433 501.515 658.303 500.692 658.303 499.73C658.303 498.776 658.437 497.956 658.704 497.27C658.972 496.576 659.353 496.045 659.846 495.677C660.348 495.309 660.934 495.125 661.603 495.125C662.272 495.125 662.849 495.309 663.334 495.677C663.828 496.045 664.208 496.576 664.476 497.27C664.744 497.956 664.878 498.784 664.878 499.755C664.878 500.708 664.748 501.528 664.489 502.214C664.229 502.9 663.853 503.423 663.359 503.782C662.874 504.142 662.289 504.322 661.603 504.322ZM661.603 503.268C662.021 503.268 662.377 503.142 662.669 502.891C662.962 502.632 663.184 502.243 663.334 501.725C663.485 501.198 663.56 500.545 663.56 499.767C663.56 498.563 663.393 497.668 663.058 497.082C662.724 496.488 662.239 496.191 661.603 496.191C661.176 496.191 660.817 496.321 660.524 496.58C660.231 496.84 660.005 497.237 659.846 497.772C659.696 498.299 659.62 498.968 659.62 499.78C659.62 500.934 659.792 501.804 660.135 502.39C660.486 502.975 660.975 503.268 661.603 503.268ZM669.339 504.322C668.704 504.322 668.156 504.184 667.696 503.908C667.244 503.623 666.884 503.205 666.617 502.653C666.357 502.16 666.186 501.553 666.102 500.834C666.027 500.106 666.044 499.383 666.152 498.663C666.261 497.935 666.454 497.325 666.73 496.831C667.031 496.279 667.428 495.857 667.922 495.564C668.424 495.271 669.001 495.125 669.653 495.125C670.188 495.125 670.657 495.229 671.058 495.439C671.468 495.639 671.786 495.92 672.012 496.279C672.238 496.639 672.363 497.061 672.388 497.546H671.083C671.058 497.128 670.916 496.798 670.657 496.555C670.398 496.304 670.05 496.179 669.615 496.179C668.921 496.179 668.386 496.442 668.009 496.969C667.633 497.496 667.42 498.249 667.37 499.228C667.361 499.378 667.353 499.529 667.344 499.679C667.554 499.311 667.863 499.002 668.273 498.751C668.683 498.492 669.147 498.362 669.666 498.362C670.201 498.362 670.674 498.487 671.083 498.738C671.502 498.981 671.828 499.324 672.062 499.767C672.296 500.202 672.413 500.7 672.413 501.26C672.413 501.838 672.28 502.36 672.012 502.829C671.744 503.297 671.376 503.665 670.908 503.933C670.439 504.192 669.917 504.322 669.339 504.322ZM669.327 503.293C669.67 503.293 669.975 503.214 670.243 503.055C670.519 502.887 670.728 502.653 670.87 502.352C671.021 502.051 671.096 501.704 671.096 501.311C671.096 500.767 670.937 500.319 670.619 499.968C670.31 499.608 669.896 499.429 669.377 499.429C669.026 499.429 668.712 499.508 668.436 499.667C668.16 499.826 667.943 500.047 667.784 500.332C667.633 500.608 667.558 500.922 667.558 501.273C667.558 501.708 667.633 502.076 667.784 502.377C667.934 502.678 668.139 502.908 668.398 503.067C668.666 503.218 668.976 503.293 669.327 503.293ZM673.588 503.243C673.588 502.858 673.693 502.59 673.902 502.44C674.111 502.281 674.366 502.201 674.667 502.201C674.96 502.201 675.211 502.281 675.42 502.44C675.629 502.59 675.734 502.858 675.734 503.243C675.734 503.611 675.629 503.879 675.42 504.046C675.211 504.205 674.96 504.284 674.667 504.284C674.366 504.284 674.111 504.205 673.902 504.046C673.693 503.879 673.588 503.611 673.588 503.243ZM673.588 498.186C673.588 497.802 673.693 497.534 673.902 497.383C674.111 497.224 674.366 497.145 674.667 497.145C674.96 497.145 675.211 497.224 675.42 497.383C675.629 497.534 675.734 497.802 675.734 498.186C675.734 498.554 675.629 498.822 675.42 498.989C675.211 499.148 674.96 499.228 674.667 499.228C674.366 499.228 674.111 499.148 673.902 498.989C673.693 498.822 673.588 498.554 673.588 498.186ZM680.227 504.322C679.533 504.322 678.939 504.142 678.446 503.782C677.952 503.414 677.576 502.887 677.316 502.201C677.057 501.515 676.927 500.692 676.927 499.73C676.927 498.776 677.061 497.956 677.329 497.27C677.597 496.576 677.977 496.045 678.471 495.677C678.973 495.309 679.558 495.125 680.227 495.125C680.896 495.125 681.474 495.309 681.959 495.677C682.452 496.045 682.833 496.576 683.101 497.27C683.368 497.956 683.502 498.784 683.502 499.755C683.502 500.708 683.372 501.528 683.113 502.214C682.854 502.9 682.477 503.423 681.984 503.782C681.499 504.142 680.913 504.322 680.227 504.322ZM680.227 503.268C680.646 503.268 681.001 503.142 681.294 502.891C681.587 502.632 681.808 502.243 681.959 501.725C682.109 501.198 682.185 500.545 682.185 499.767C682.185 498.563 682.017 497.668 681.683 497.082C681.348 496.488 680.863 496.191 680.227 496.191C679.801 496.191 679.441 496.321 679.148 496.58C678.855 496.84 678.63 497.237 678.471 497.772C678.32 498.299 678.245 498.968 678.245 499.78C678.245 500.934 678.416 501.804 678.759 502.39C679.111 502.975 679.6 503.268 680.227 503.268ZM687.751 504.322C687.056 504.322 686.462 504.142 685.969 503.782C685.475 503.414 685.099 502.887 684.84 502.201C684.58 501.515 684.451 500.692 684.451 499.73C684.451 498.776 684.585 497.956 684.852 497.27C685.12 496.576 685.501 496.045 685.994 495.677C686.496 495.309 687.081 495.125 687.751 495.125C688.42 495.125 688.997 495.309 689.482 495.677C689.976 496.045 690.356 496.576 690.624 497.27C690.892 497.956 691.025 498.784 691.025 499.755C691.025 500.708 690.896 501.528 690.636 502.214C690.377 502.9 690.001 503.423 689.507 503.782C689.022 504.142 688.437 504.322 687.751 504.322ZM687.751 503.268C688.169 503.268 688.524 503.142 688.817 502.891C689.11 502.632 689.332 502.243 689.482 501.725C689.633 501.198 689.708 500.545 689.708 499.767C689.708 498.563 689.541 497.668 689.206 497.082C688.871 496.488 688.386 496.191 687.751 496.191C687.324 496.191 686.964 496.321 686.672 496.58C686.379 496.84 686.153 497.237 685.994 497.772C685.843 498.299 685.768 498.968 685.768 499.78C685.768 500.934 685.94 501.804 686.283 502.39C686.634 502.975 687.123 503.268 687.751 503.268ZM692.212 503.243C692.212 502.858 692.317 502.59 692.526 502.44C692.735 502.281 692.99 502.201 693.291 502.201C693.584 502.201 693.835 502.281 694.044 502.44C694.253 502.59 694.358 502.858 694.358 503.243C694.358 503.611 694.253 503.879 694.044 504.046C693.835 504.205 693.584 504.284 693.291 504.284C692.99 504.284 692.735 504.205 692.526 504.046C692.317 503.879 692.212 503.611 692.212 503.243ZM692.212 498.186C692.212 497.802 692.317 497.534 692.526 497.383C692.735 497.224 692.99 497.145 693.291 497.145C693.584 497.145 693.835 497.224 694.044 497.383C694.253 497.534 694.358 497.802 694.358 498.186C694.358 498.554 694.253 498.822 694.044 498.989C693.835 499.148 693.584 499.228 693.291 499.228C692.99 499.228 692.735 499.148 692.526 498.989C692.317 498.822 692.212 498.554 692.212 498.186ZM698.852 504.322C698.158 504.322 697.564 504.142 697.07 503.782C696.577 503.414 696.2 502.887 695.941 502.201C695.682 501.515 695.552 500.692 695.552 499.73C695.552 498.776 695.686 497.956 695.953 497.27C696.221 496.576 696.602 496.045 697.095 495.677C697.597 495.309 698.183 495.125 698.852 495.125C699.521 495.125 700.098 495.309 700.583 495.677C701.077 496.045 701.457 496.576 701.725 497.27C701.993 497.956 702.127 498.784 702.127 499.755C702.127 500.708 701.997 501.528 701.738 502.214C701.478 502.9 701.102 503.423 700.608 503.782C700.123 504.142 699.538 504.322 698.852 504.322ZM698.852 503.268C699.27 503.268 699.626 503.142 699.918 502.891C700.211 502.632 700.433 502.243 700.583 501.725C700.734 501.198 700.809 500.545 700.809 499.767C700.809 498.563 700.642 497.668 700.307 497.082C699.973 496.488 699.488 496.191 698.852 496.191C698.425 496.191 698.066 496.321 697.773 496.58C697.48 496.84 697.254 497.237 697.095 497.772C696.945 498.299 696.869 498.968 696.869 499.78C696.869 500.934 697.041 501.804 697.384 502.39C697.735 502.975 698.224 503.268 698.852 503.268ZM706.375 504.322C705.681 504.322 705.087 504.142 704.593 503.782C704.1 503.414 703.723 502.887 703.464 502.201C703.205 501.515 703.075 500.692 703.075 499.73C703.075 498.776 703.209 497.956 703.477 497.27C703.744 496.576 704.125 496.045 704.619 495.677C705.12 495.309 705.706 495.125 706.375 495.125C707.044 495.125 707.621 495.309 708.107 495.677C708.6 496.045 708.981 496.576 709.248 497.27C709.516 497.956 709.65 498.784 709.65 499.755C709.65 500.708 709.52 501.528 709.261 502.214C709.002 502.9 708.625 503.423 708.132 503.782C707.647 504.142 707.061 504.322 706.375 504.322ZM706.375 503.268C706.793 503.268 707.149 503.142 707.442 502.891C707.734 502.632 707.956 502.243 708.107 501.725C708.257 501.198 708.332 500.545 708.332 499.767C708.332 498.563 708.165 497.668 707.831 497.082C707.496 496.488 707.011 496.191 706.375 496.191C705.949 496.191 705.589 496.321 705.296 496.58C705.003 496.84 704.777 497.237 704.619 497.772C704.468 498.299 704.393 498.968 704.393 499.78C704.393 500.934 704.564 501.804 704.907 502.39C705.258 502.975 705.748 503.268 706.375 503.268Z" fill="#808080"/>
<path d="M759.191 504.322C758.496 504.322 757.903 504.142 757.409 503.782C756.916 503.414 756.539 502.887 756.28 502.201C756.021 501.515 755.891 500.692 755.891 499.73C755.891 498.776 756.025 497.956 756.292 497.27C756.56 496.576 756.941 496.045 757.434 495.677C757.936 495.309 758.522 495.125 759.191 495.125C759.86 495.125 760.437 495.309 760.922 495.677C761.416 496.045 761.796 496.576 762.064 497.27C762.332 497.956 762.465 498.784 762.465 499.755C762.465 500.708 762.336 501.528 762.077 502.214C761.817 502.9 761.441 503.423 760.947 503.782C760.462 504.142 759.877 504.322 759.191 504.322ZM759.191 503.268C759.609 503.268 759.964 503.142 760.257 502.891C760.55 502.632 760.772 502.243 760.922 501.725C761.073 501.198 761.148 500.545 761.148 499.767C761.148 498.563 760.981 497.668 760.646 497.082C760.312 496.488 759.826 496.191 759.191 496.191C758.764 496.191 758.404 496.321 758.112 496.58C757.819 496.84 757.593 497.237 757.434 497.772C757.284 498.299 757.208 498.968 757.208 499.78C757.208 500.934 757.38 501.804 757.723 502.39C758.074 502.975 758.563 503.268 759.191 503.268ZM766.476 504.322C765.614 504.322 764.941 504.1 764.456 503.657C763.97 503.214 763.715 502.624 763.69 501.888H765.008C765.024 502.331 765.162 502.678 765.422 502.929C765.689 503.172 766.057 503.293 766.526 503.293C767.228 503.293 767.751 502.992 768.094 502.39C768.437 501.787 768.604 501.039 768.596 500.144C768.596 500.127 768.596 500.114 768.596 500.106C768.596 500.089 768.596 500.077 768.596 500.068C768.596 500.018 768.596 499.968 768.596 499.918C768.596 499.868 768.596 499.817 768.596 499.767C768.37 500.094 768.057 500.374 767.655 500.608C767.254 500.834 766.802 500.947 766.3 500.947C765.798 500.947 765.338 500.83 764.92 500.595C764.502 500.353 764.167 500.014 763.916 499.579C763.673 499.136 763.552 498.634 763.552 498.073C763.552 497.505 763.686 496.999 763.954 496.555C764.221 496.104 764.585 495.752 765.045 495.501C765.514 495.25 766.036 495.125 766.614 495.125C767.216 495.125 767.747 495.271 768.207 495.564C768.667 495.857 769.031 496.279 769.299 496.831C769.558 497.35 769.725 497.981 769.801 498.726C769.884 499.462 769.872 500.194 769.763 500.922C769.663 501.649 769.474 502.26 769.198 502.753C768.914 503.272 768.542 503.665 768.082 503.933C767.63 504.192 767.095 504.322 766.476 504.322ZM766.614 499.905C766.94 499.905 767.237 499.826 767.504 499.667C767.781 499.508 767.994 499.286 768.144 499.002C768.295 498.709 768.37 498.379 768.37 498.011C768.37 497.651 768.295 497.333 768.144 497.057C768.002 496.773 767.797 496.551 767.53 496.392C767.262 496.233 766.957 496.154 766.614 496.154C766.287 496.154 765.986 496.233 765.71 496.392C765.443 496.551 765.233 496.773 765.083 497.057C764.932 497.342 764.857 497.659 764.857 498.011C764.857 498.387 764.932 498.718 765.083 499.002C765.233 499.286 765.443 499.508 765.71 499.667C765.978 499.826 766.279 499.905 766.614 499.905ZM771.176 503.243C771.176 502.858 771.28 502.59 771.49 502.44C771.699 502.281 771.954 502.201 772.255 502.201C772.548 502.201 772.799 502.281 773.008 502.44C773.217 502.59 773.321 502.858 773.321 503.243C773.321 503.611 773.217 503.879 773.008 504.046C772.799 504.205 772.548 504.284 772.255 504.284C771.954 504.284 771.699 504.205 771.49 504.046C771.28 503.879 771.176 503.611 771.176 503.243ZM771.176 498.186C771.176 497.802 771.28 497.534 771.49 497.383C771.699 497.224 771.954 497.145 772.255 497.145C772.548 497.145 772.799 497.224 773.008 497.383C773.217 497.534 773.321 497.802 773.321 498.186C773.321 498.554 773.217 498.822 773.008 498.989C772.799 499.148 772.548 499.228 772.255 499.228C771.954 499.228 771.699 499.148 771.49 498.989C771.28 498.822 771.176 498.554 771.176 498.186ZM777.815 504.322C777.121 504.322 776.527 504.142 776.034 503.782C775.54 503.414 775.164 502.887 774.904 502.201C774.645 501.515 774.515 500.692 774.515 499.73C774.515 498.776 774.649 497.956 774.917 497.27C775.185 496.576 775.565 496.045 776.059 495.677C776.56 495.309 777.146 495.125 777.815 495.125C778.484 495.125 779.062 495.309 779.547 495.677C780.04 496.045 780.421 496.576 780.688 497.27C780.956 497.956 781.09 498.784 781.09 499.755C781.09 500.708 780.96 501.528 780.701 502.214C780.442 502.9 780.065 503.423 779.572 503.782C779.087 504.142 778.501 504.322 777.815 504.322ZM777.815 503.268C778.233 503.268 778.589 503.142 778.882 502.891C779.174 502.632 779.396 502.243 779.547 501.725C779.697 501.198 779.773 500.545 779.773 499.767C779.773 498.563 779.605 497.668 779.271 497.082C778.936 496.488 778.451 496.191 777.815 496.191C777.389 496.191 777.029 496.321 776.736 496.58C776.443 496.84 776.218 497.237 776.059 497.772C775.908 498.299 775.833 498.968 775.833 499.78C775.833 500.934 776.004 501.804 776.347 502.39C776.699 502.975 777.188 503.268 777.815 503.268ZM785.339 504.322C784.644 504.322 784.05 504.142 783.557 503.782C783.063 503.414 782.687 502.887 782.428 502.201C782.168 501.515 782.039 500.692 782.039 499.73C782.039 498.776 782.172 497.956 782.44 497.27C782.708 496.576 783.088 496.045 783.582 495.677C784.084 495.309 784.669 495.125 785.339 495.125C786.008 495.125 786.585 495.309 787.07 495.677C787.564 496.045 787.944 496.576 788.212 497.27C788.479 497.956 788.613 498.784 788.613 499.755C788.613 500.708 788.484 501.528 788.224 502.214C787.965 502.9 787.589 503.423 787.095 503.782C786.61 504.142 786.024 504.322 785.339 504.322ZM785.339 503.268C785.757 503.268 786.112 503.142 786.405 502.891C786.698 502.632 786.919 502.243 787.07 501.725C787.221 501.198 787.296 500.545 787.296 499.767C787.296 498.563 787.129 497.668 786.794 497.082C786.459 496.488 785.974 496.191 785.339 496.191C784.912 496.191 784.552 496.321 784.259 496.58C783.967 496.84 783.741 497.237 783.582 497.772C783.431 498.299 783.356 498.968 783.356 499.78C783.356 500.934 783.528 501.804 783.871 502.39C784.222 502.975 784.711 503.268 785.339 503.268ZM789.8 503.243C789.8 502.858 789.905 502.59 790.114 502.44C790.323 502.281 790.578 502.201 790.879 502.201C791.172 502.201 791.423 502.281 791.632 502.44C791.841 502.59 791.946 502.858 791.946 503.243C791.946 503.611 791.841 503.879 791.632 504.046C791.423 504.205 791.172 504.284 790.879 504.284C790.578 504.284 790.323 504.205 790.114 504.046C789.905 503.879 789.8 503.611 789.8 503.243ZM789.8 498.186C789.8 497.802 789.905 497.534 790.114 497.383C790.323 497.224 790.578 497.145 790.879 497.145C791.172 497.145 791.423 497.224 791.632 497.383C791.841 497.534 791.946 497.802 791.946 498.186C791.946 498.554 791.841 498.822 791.632 498.989C791.423 499.148 791.172 499.228 790.879 499.228C790.578 499.228 790.323 499.148 790.114 498.989C789.905 498.822 789.8 498.554 789.8 498.186ZM796.44 504.322C795.745 504.322 795.152 504.142 794.658 503.782C794.164 503.414 793.788 502.887 793.529 502.201C793.269 501.515 793.14 500.692 793.14 499.73C793.14 498.776 793.274 497.956 793.541 497.27C793.809 496.576 794.19 496.045 794.683 495.677C795.185 495.309 795.771 495.125 796.44 495.125C797.109 495.125 797.686 495.309 798.171 495.677C798.665 496.045 799.045 496.576 799.313 497.27C799.581 497.956 799.714 498.784 799.714 499.755C799.714 500.708 799.585 501.528 799.325 502.214C799.066 502.9 798.69 503.423 798.196 503.782C797.711 504.142 797.126 504.322 796.44 504.322ZM796.44 503.268C796.858 503.268 797.213 503.142 797.506 502.891C797.799 502.632 798.021 502.243 798.171 501.725C798.322 501.198 798.397 500.545 798.397 499.767C798.397 498.563 798.23 497.668 797.895 497.082C797.561 496.488 797.075 496.191 796.44 496.191C796.013 496.191 795.653 496.321 795.361 496.58C795.068 496.84 794.842 497.237 794.683 497.772C794.533 498.299 794.457 498.968 794.457 499.78C794.457 500.934 794.629 501.804 794.972 502.39C795.323 502.975 795.812 503.268 796.44 503.268ZM803.963 504.322C803.269 504.322 802.675 504.142 802.181 503.782C801.688 503.414 801.311 502.887 801.052 502.201C800.793 501.515 800.663 500.692 800.663 499.73C800.663 498.776 800.797 497.956 801.065 497.27C801.332 496.576 801.713 496.045 802.206 495.677C802.708 495.309 803.294 495.125 803.963 495.125C804.632 495.125 805.209 495.309 805.694 495.677C806.188 496.045 806.569 496.576 806.836 497.27C807.104 497.956 807.238 498.784 807.238 499.755C807.238 500.708 807.108 501.528 806.849 502.214C806.589 502.9 806.213 503.423 805.72 503.782C805.234 504.142 804.649 504.322 803.963 504.322ZM803.963 503.268C804.381 503.268 804.737 503.142 805.029 502.891C805.322 502.632 805.544 502.243 805.694 501.725C805.845 501.198 805.92 500.545 805.92 499.767C805.92 498.563 805.753 497.668 805.418 497.082C805.084 496.488 804.599 496.191 803.963 496.191C803.536 496.191 803.177 496.321 802.884 496.58C802.591 496.84 802.365 497.237 802.206 497.772C802.056 498.299 801.981 498.968 801.981 499.78C801.981 500.934 802.152 501.804 802.495 502.39C802.846 502.975 803.336 503.268 803.963 503.268Z" fill="#808080"/>
<path d="M864.666 497.973C864.666 497.906 864.666 497.843 864.666 497.785C864.666 497.718 864.666 497.651 864.666 497.584C864.674 497.526 864.679 497.463 864.679 497.396C864.679 497.329 864.679 497.266 864.679 497.208C864.47 497.559 864.181 497.848 863.813 498.073C863.453 498.291 863.052 498.408 862.608 498.425V497.183C863.144 497.107 863.62 496.902 864.039 496.568C864.457 496.225 864.733 495.815 864.867 495.338H865.933V504.121H864.666V497.973ZM862.056 504.121V502.979H868.443V504.121H862.056ZM869.592 504.121C869.601 503.644 869.684 503.226 869.843 502.866C870.002 502.507 870.228 502.18 870.521 501.888C870.813 501.587 871.215 501.248 871.725 500.871L872.679 500.156C873.005 499.905 873.285 499.667 873.519 499.441C873.754 499.215 873.946 498.964 874.097 498.688C874.247 498.404 874.322 498.103 874.322 497.785C874.322 497.475 874.26 497.199 874.134 496.957C874.009 496.714 873.829 496.526 873.595 496.392C873.36 496.258 873.08 496.191 872.754 496.191C872.403 496.191 872.097 496.275 871.838 496.442C871.579 496.601 871.378 496.84 871.236 497.157C871.102 497.467 871.035 497.839 871.035 498.274V498.412H869.693V498.199C869.693 497.58 869.822 497.04 870.081 496.58C870.341 496.112 870.7 495.752 871.161 495.501C871.629 495.25 872.16 495.125 872.754 495.125C873.323 495.125 873.825 495.238 874.26 495.464C874.695 495.681 875.033 495.991 875.276 496.392C875.519 496.794 875.64 497.258 875.64 497.785C875.64 498.245 875.544 498.667 875.351 499.052C875.159 499.437 874.891 499.801 874.548 500.144C874.205 500.478 873.754 500.851 873.193 501.26L872.591 501.712C872.173 502.013 871.859 502.26 871.65 502.452C871.441 502.645 871.311 502.808 871.261 502.942H875.728V504.121H869.592ZM877.128 503.243C877.128 502.858 877.233 502.59 877.442 502.44C877.651 502.281 877.906 502.201 878.207 502.201C878.5 502.201 878.751 502.281 878.96 502.44C879.169 502.59 879.274 502.858 879.274 503.243C879.274 503.611 879.169 503.879 878.96 504.046C878.751 504.205 878.5 504.284 878.207 504.284C877.906 504.284 877.651 504.205 877.442 504.046C877.233 503.879 877.128 503.611 877.128 503.243ZM877.128 498.186C877.128 497.802 877.233 497.534 877.442 497.383C877.651 497.224 877.906 497.145 878.207 497.145C878.5 497.145 878.751 497.224 878.96 497.383C879.169 497.534 879.274 497.802 879.274 498.186C879.274 498.554 879.169 498.822 878.96 498.989C878.751 499.148 878.5 499.228 878.207 499.228C877.906 499.228 877.651 499.148 877.442 498.989C877.233 498.822 877.128 498.554 877.128 498.186ZM883.767 504.322C883.073 504.322 882.479 504.142 881.986 503.782C881.492 503.414 881.116 502.887 880.856 502.201C880.597 501.515 880.467 500.692 880.467 499.73C880.467 498.776 880.601 497.956 880.869 497.27C881.137 496.576 881.517 496.045 882.011 495.677C882.513 495.309 883.098 495.125 883.767 495.125C884.437 495.125 885.014 495.309 885.499 495.677C885.992 496.045 886.373 496.576 886.641 497.27C886.908 497.956 887.042 498.784 887.042 499.755C887.042 500.708 886.912 501.528 886.653 502.214C886.394 502.9 886.017 503.423 885.524 503.782C885.039 504.142 884.453 504.322 883.767 504.322ZM883.767 503.268C884.186 503.268 884.541 503.142 884.834 502.891C885.127 502.632 885.348 502.243 885.499 501.725C885.649 501.198 885.725 500.545 885.725 499.767C885.725 498.563 885.557 497.668 885.223 497.082C884.888 496.488 884.403 496.191 883.767 496.191C883.341 496.191 882.981 496.321 882.688 496.58C882.396 496.84 882.17 497.237 882.011 497.772C881.86 498.299 881.785 498.968 881.785 499.78C881.785 500.934 881.956 501.804 882.299 502.39C882.651 502.975 883.14 503.268 883.767 503.268ZM891.291 504.322C890.596 504.322 890.002 504.142 889.509 503.782C889.015 503.414 888.639 502.887 888.38 502.201C888.12 501.515 887.991 500.692 887.991 499.73C887.991 498.776 888.125 497.956 888.392 497.27C888.66 496.576 889.041 496.045 889.534 495.677C890.036 495.309 890.621 495.125 891.291 495.125C891.96 495.125 892.537 495.309 893.022 495.677C893.516 496.045 893.896 496.576 894.164 497.27C894.432 497.956 894.565 498.784 894.565 499.755C894.565 500.708 894.436 501.528 894.176 502.214C893.917 502.9 893.541 503.423 893.047 503.782C892.562 504.142 891.977 504.322 891.291 504.322ZM891.291 503.268C891.709 503.268 892.064 503.142 892.357 502.891C892.65 502.632 892.872 502.243 893.022 501.725C893.173 501.198 893.248 500.545 893.248 499.767C893.248 498.563 893.081 497.668 892.746 497.082C892.412 496.488 891.926 496.191 891.291 496.191C890.864 496.191 890.504 496.321 890.212 496.58C889.919 496.84 889.693 497.237 889.534 497.772C889.384 498.299 889.308 498.968 889.308 499.78C889.308 500.934 889.48 501.804 889.823 502.39C890.174 502.975 890.663 503.268 891.291 503.268ZM895.752 503.243C895.752 502.858 895.857 502.59 896.066 502.44C896.275 502.281 896.53 502.201 896.832 502.201C897.124 502.201 897.375 502.281 897.584 502.44C897.793 502.59 897.898 502.858 897.898 503.243C897.898 503.611 897.793 503.879 897.584 504.046C897.375 504.205 897.124 504.284 896.832 504.284C896.53 504.284 896.275 504.205 896.066 504.046C895.857 503.879 895.752 503.611 895.752 503.243ZM895.752 498.186C895.752 497.802 895.857 497.534 896.066 497.383C896.275 497.224 896.53 497.145 896.832 497.145C897.124 497.145 897.375 497.224 897.584 497.383C897.793 497.534 897.898 497.802 897.898 498.186C897.898 498.554 897.793 498.822 897.584 498.989C897.375 499.148 897.124 499.228 896.832 499.228C896.53 499.228 896.275 499.148 896.066 498.989C895.857 498.822 895.752 498.554 895.752 498.186ZM902.392 504.322C901.698 504.322 901.104 504.142 900.61 503.782C900.117 503.414 899.74 502.887 899.481 502.201C899.222 501.515 899.092 500.692 899.092 499.73C899.092 498.776 899.226 497.956 899.493 497.27C899.761 496.576 900.142 496.045 900.635 495.677C901.137 495.309 901.723 495.125 902.392 495.125C903.061 495.125 903.638 495.309 904.123 495.677C904.617 496.045 904.997 496.576 905.265 497.27C905.533 497.956 905.667 498.784 905.667 499.755C905.667 500.708 905.537 501.528 905.278 502.214C905.018 502.9 904.642 503.423 904.148 503.782C903.663 504.142 903.078 504.322 902.392 504.322ZM902.392 503.268C902.81 503.268 903.166 503.142 903.458 502.891C903.751 502.632 903.973 502.243 904.123 501.725C904.274 501.198 904.349 500.545 904.349 499.767C904.349 498.563 904.182 497.668 903.847 497.082C903.513 496.488 903.028 496.191 902.392 496.191C901.965 496.191 901.606 496.321 901.313 496.58C901.02 496.84 900.794 497.237 900.635 497.772C900.485 498.299 900.409 498.968 900.409 499.78C900.409 500.934 900.581 501.804 900.924 502.39C901.275 502.975 901.764 503.268 902.392 503.268ZM909.915 504.322C909.221 504.322 908.627 504.142 908.133 503.782C907.64 503.414 907.264 502.887 907.004 502.201C906.745 501.515 906.615 500.692 906.615 499.73C906.615 498.776 906.749 497.956 907.017 497.27C907.284 496.576 907.665 496.045 908.159 495.677C908.66 495.309 909.246 495.125 909.915 495.125C910.584 495.125 911.161 495.309 911.647 495.677C912.14 496.045 912.521 496.576 912.788 497.27C913.056 497.956 913.19 498.784 913.19 499.755C913.19 500.708 913.06 501.528 912.801 502.214C912.542 502.9 912.165 503.423 911.672 503.782C911.187 504.142 910.601 504.322 909.915 504.322ZM909.915 503.268C910.333 503.268 910.689 503.142 910.982 502.891C911.274 502.632 911.496 502.243 911.647 501.725C911.797 501.198 911.872 500.545 911.872 499.767C911.872 498.563 911.705 497.668 911.371 497.082C911.036 496.488 910.551 496.191 909.915 496.191C909.489 496.191 909.129 496.321 908.836 496.58C908.543 496.84 908.317 497.237 908.159 497.772C908.008 498.299 907.933 498.968 907.933 499.78C907.933 500.934 908.104 501.804 908.447 502.39C908.798 502.975 909.288 503.268 909.915 503.268Z" fill="#808080"/>
<path d="M966.437 497.973C966.437 497.906 966.437 497.843 966.437 497.785C966.437 497.718 966.437 497.651 966.437 497.584C966.445 497.526 966.449 497.463 966.449 497.396C966.449 497.329 966.449 497.266 966.449 497.208C966.24 497.559 965.951 497.848 965.583 498.073C965.224 498.291 964.822 498.408 964.379 498.425V497.183C964.914 497.107 965.391 496.902 965.809 496.568C966.227 496.225 966.504 495.815 966.637 495.338H967.704V504.121H966.437V497.973ZM963.827 504.121V502.979H970.213V504.121H963.827ZM974.474 504.322C973.855 504.322 973.316 504.213 972.856 503.996C972.404 503.77 972.053 503.46 971.802 503.067C971.559 502.666 971.438 502.214 971.438 501.712H972.743C972.743 502.172 972.893 502.549 973.195 502.841C973.504 503.126 973.918 503.268 974.437 503.268C974.813 503.268 975.143 503.188 975.428 503.03C975.721 502.862 975.942 502.624 976.093 502.314C976.252 502.005 976.331 501.649 976.331 501.248C976.331 500.671 976.172 500.202 975.854 499.843C975.545 499.475 975.114 499.29 974.562 499.29C974.152 499.29 973.788 499.399 973.471 499.617C973.161 499.826 972.944 500.073 972.818 500.357H971.551L972.216 495.338H977.147V496.53H973.182L972.893 498.625C972.885 498.684 972.877 498.743 972.868 498.801C972.868 498.851 972.864 498.91 972.856 498.977C972.847 499.019 972.839 499.065 972.831 499.115C972.822 499.157 972.814 499.194 972.806 499.228C973.04 498.927 973.333 498.688 973.684 498.513C974.044 498.329 974.445 498.237 974.888 498.237C975.424 498.237 975.901 498.366 976.319 498.625C976.737 498.876 977.059 499.232 977.285 499.692C977.519 500.144 977.636 500.646 977.636 501.198C977.636 501.825 977.502 502.377 977.235 502.854C976.967 503.322 976.595 503.686 976.118 503.945C975.641 504.196 975.093 504.322 974.474 504.322ZM978.899 503.243C978.899 502.858 979.003 502.59 979.212 502.44C979.421 502.281 979.676 502.201 979.978 502.201C980.27 502.201 980.521 502.281 980.73 502.44C980.94 502.59 981.044 502.858 981.044 503.243C981.044 503.611 980.94 503.879 980.73 504.046C980.521 504.205 980.27 504.284 979.978 504.284C979.676 504.284 979.421 504.205 979.212 504.046C979.003 503.879 978.899 503.611 978.899 503.243ZM978.899 498.186C978.899 497.802 979.003 497.534 979.212 497.383C979.421 497.224 979.676 497.145 979.978 497.145C980.27 497.145 980.521 497.224 980.73 497.383C980.94 497.534 981.044 497.802 981.044 498.186C981.044 498.554 980.94 498.822 980.73 498.989C980.521 499.148 980.27 499.228 979.978 499.228C979.676 499.228 979.421 499.148 979.212 498.989C979.003 498.822 978.899 498.554 978.899 498.186ZM985.538 504.322C984.844 504.322 984.25 504.142 983.756 503.782C983.263 503.414 982.886 502.887 982.627 502.201C982.368 501.515 982.238 500.692 982.238 499.73C982.238 498.776 982.372 497.956 982.639 497.27C982.907 496.576 983.288 496.045 983.781 495.677C984.283 495.309 984.869 495.125 985.538 495.125C986.207 495.125 986.784 495.309 987.269 495.677C987.763 496.045 988.143 496.576 988.411 497.27C988.679 497.956 988.813 498.784 988.813 499.755C988.813 500.708 988.683 501.528 988.424 502.214C988.164 502.9 987.788 503.423 987.294 503.782C986.809 504.142 986.224 504.322 985.538 504.322ZM985.538 503.268C985.956 503.268 986.312 503.142 986.604 502.891C986.897 502.632 987.119 502.243 987.269 501.725C987.42 501.198 987.495 500.545 987.495 499.767C987.495 498.563 987.328 497.668 986.993 497.082C986.659 496.488 986.174 496.191 985.538 496.191C985.111 496.191 984.752 496.321 984.459 496.58C984.166 496.84 983.94 497.237 983.781 497.772C983.631 498.299 983.555 498.968 983.555 499.78C983.555 500.934 983.727 501.804 984.07 502.39C984.421 502.975 984.911 503.268 985.538 503.268ZM993.061 504.322C992.367 504.322 991.773 504.142 991.279 503.782C990.786 503.414 990.41 502.887 990.15 502.201C989.891 501.515 989.761 500.692 989.761 499.73C989.761 498.776 989.895 497.956 990.163 497.27C990.43 496.576 990.811 496.045 991.305 495.677C991.806 495.309 992.392 495.125 993.061 495.125C993.73 495.125 994.307 495.309 994.793 495.677C995.286 496.045 995.667 496.576 995.934 497.27C996.202 497.956 996.336 498.784 996.336 499.755C996.336 500.708 996.206 501.528 995.947 502.214C995.688 502.9 995.311 503.423 994.818 503.782C994.333 504.142 993.747 504.322 993.061 504.322ZM993.061 503.268C993.479 503.268 993.835 503.142 994.128 502.891C994.42 502.632 994.642 502.243 994.793 501.725C994.943 501.198 995.018 500.545 995.018 499.767C995.018 498.563 994.851 497.668 994.517 497.082C994.182 496.488 993.697 496.191 993.061 496.191C992.635 496.191 992.275 496.321 991.982 496.58C991.689 496.84 991.464 497.237 991.305 497.772C991.154 498.299 991.079 498.968 991.079 499.78C991.079 500.934 991.25 501.804 991.593 502.39C991.944 502.975 992.434 503.268 993.061 503.268ZM997.523 503.243C997.523 502.858 997.628 502.59 997.837 502.44C998.046 502.281 998.301 502.201 998.602 502.201C998.895 502.201 999.146 502.281 999.355 502.44C999.564 502.59 999.669 502.858 999.669 503.243C999.669 503.611 999.564 503.879 999.355 504.046C999.146 504.205 998.895 504.284 998.602 504.284C998.301 504.284 998.046 504.205 997.837 504.046C997.628 503.879 997.523 503.611 997.523 503.243ZM997.523 498.186C997.523 497.802 997.628 497.534 997.837 497.383C998.046 497.224 998.301 497.145 998.602 497.145C998.895 497.145 999.146 497.224 999.355 497.383C999.564 497.534 999.669 497.802 999.669 498.186C999.669 498.554 999.564 498.822 999.355 498.989C999.146 499.148 998.895 499.228 998.602 499.228C998.301 499.228 998.046 499.148 997.837 498.989C997.628 498.822 997.523 498.554 997.523 498.186ZM1004.16 504.322C1003.47 504.322 1002.87 504.142 1002.38 503.782C1001.89 503.414 1001.51 502.887 1001.25 502.201C1000.99 501.515 1000.86 500.692 1000.86 499.73C1000.86 498.776 1001 497.956 1001.26 497.27C1001.53 496.576 1001.91 496.045 1002.41 495.677C1002.91 495.309 1003.49 495.125 1004.16 495.125C1004.83 495.125 1005.41 495.309 1005.89 495.677C1006.39 496.045 1006.77 496.576 1007.04 497.27C1007.3 497.956 1007.44 498.784 1007.44 499.755C1007.44 500.708 1007.31 501.528 1007.05 502.214C1006.79 502.9 1006.41 503.423 1005.92 503.782C1005.43 504.142 1004.85 504.322 1004.16 504.322ZM1004.16 503.268C1004.58 503.268 1004.94 503.142 1005.23 502.891C1005.52 502.632 1005.74 502.243 1005.89 501.725C1006.04 501.198 1006.12 500.545 1006.12 499.767C1006.12 498.563 1005.95 497.668 1005.62 497.082C1005.28 496.488 1004.8 496.191 1004.16 496.191C1003.74 496.191 1003.38 496.321 1003.08 496.58C1002.79 496.84 1002.56 497.237 1002.41 497.772C1002.26 498.299 1002.18 498.968 1002.18 499.78C1002.18 500.934 1002.35 501.804 1002.69 502.39C1003.05 502.975 1003.53 503.268 1004.16 503.268ZM1011.69 504.322C1010.99 504.322 1010.4 504.142 1009.9 503.782C1009.41 503.414 1009.03 502.887 1008.77 502.201C1008.52 501.515 1008.39 500.692 1008.39 499.73C1008.39 498.776 1008.52 497.956 1008.79 497.27C1009.05 496.576 1009.44 496.045 1009.93 495.677C1010.43 495.309 1011.02 495.125 1011.69 495.125C1012.35 495.125 1012.93 495.309 1013.42 495.677C1013.91 496.045 1014.29 496.576 1014.56 497.27C1014.83 497.956 1014.96 498.784 1014.96 499.755C1014.96 500.708 1014.83 501.528 1014.57 502.214C1014.31 502.9 1013.94 503.423 1013.44 503.782C1012.96 504.142 1012.37 504.322 1011.69 504.322ZM1011.69 503.268C1012.1 503.268 1012.46 503.142 1012.75 502.891C1013.04 502.632 1013.27 502.243 1013.42 501.725C1013.57 501.198 1013.64 500.545 1013.64 499.767C1013.64 498.563 1013.48 497.668 1013.14 497.082C1012.81 496.488 1012.32 496.191 1011.69 496.191C1011.26 496.191 1010.9 496.321 1010.61 496.58C1010.31 496.84 1010.09 497.237 1009.93 497.772C1009.78 498.299 1009.7 498.968 1009.7 499.78C1009.7 500.934 1009.87 501.804 1010.22 502.39C1010.57 502.975 1011.06 503.268 1011.69 503.268Z" fill="#808080"/>
<path d="M1064.02 497.973C1064.02 497.906 1064.02 497.843 1064.02 497.785C1064.02 497.718 1064.02 497.651 1064.02 497.584C1064.03 497.526 1064.04 497.463 1064.04 497.396C1064.04 497.329 1064.04 497.266 1064.04 497.208C1063.83 497.559 1063.54 497.848 1063.17 498.073C1062.81 498.291 1062.41 498.408 1061.97 498.425V497.183C1062.5 497.107 1062.98 496.902 1063.4 496.568C1063.81 496.225 1064.09 495.815 1064.22 495.338H1065.29V504.121H1064.02V497.973ZM1061.41 504.121V502.979H1067.8V504.121H1061.41ZM1072 504.322C1071.34 504.322 1070.77 504.217 1070.29 504.008C1069.82 503.799 1069.45 503.506 1069.19 503.13C1068.94 502.753 1068.81 502.314 1068.81 501.812C1068.81 501.311 1068.98 500.859 1069.3 500.457C1069.64 500.047 1070.09 499.751 1070.66 499.567C1070.16 499.391 1069.77 499.132 1069.48 498.789C1069.18 498.437 1069.04 498.023 1069.04 497.546C1069.04 497.086 1069.16 496.672 1069.4 496.304C1069.65 495.936 1070 495.648 1070.46 495.439C1070.91 495.229 1071.43 495.125 1072.01 495.125C1072.6 495.125 1073.12 495.229 1073.57 495.439C1074.02 495.648 1074.37 495.936 1074.61 496.304C1074.86 496.664 1074.99 497.074 1074.99 497.534C1074.99 498.011 1074.84 498.429 1074.55 498.789C1074.26 499.148 1073.86 499.408 1073.35 499.567C1073.93 499.742 1074.38 500.031 1074.71 500.432C1075.04 500.825 1075.21 501.273 1075.21 501.775C1075.21 502.285 1075.08 502.733 1074.82 503.117C1074.57 503.502 1074.2 503.799 1073.72 504.008C1073.23 504.217 1072.66 504.322 1072 504.322ZM1072.01 503.293C1072.38 503.293 1072.71 503.23 1072.99 503.105C1073.28 502.971 1073.51 502.787 1073.67 502.553C1073.83 502.31 1073.91 502.03 1073.91 501.712C1073.91 501.26 1073.73 500.888 1073.37 500.595C1073.02 500.294 1072.56 500.144 1072.01 500.144C1071.65 500.144 1071.33 500.211 1071.03 500.344C1070.75 500.478 1070.52 500.666 1070.36 500.909C1070.2 501.143 1070.12 501.411 1070.12 501.712C1070.12 502.189 1070.29 502.574 1070.64 502.866C1071 503.151 1071.45 503.293 1072.01 503.293ZM1072.01 499.002C1072.34 499.002 1072.63 498.943 1072.88 498.826C1073.14 498.701 1073.34 498.533 1073.48 498.324C1073.62 498.107 1073.69 497.86 1073.69 497.584C1073.69 497.308 1073.62 497.061 1073.48 496.844C1073.35 496.626 1073.15 496.459 1072.89 496.342C1072.64 496.225 1072.35 496.166 1072.01 496.166C1071.68 496.166 1071.38 496.225 1071.12 496.342C1070.87 496.459 1070.67 496.626 1070.53 496.844C1070.4 497.053 1070.33 497.291 1070.33 497.559C1070.33 497.843 1070.4 498.094 1070.54 498.312C1070.69 498.529 1070.88 498.701 1071.13 498.826C1071.39 498.943 1071.69 499.002 1072.01 499.002ZM1076.49 503.243C1076.49 502.858 1076.59 502.59 1076.8 502.44C1077.01 502.281 1077.26 502.201 1077.56 502.201C1077.86 502.201 1078.11 502.281 1078.32 502.44C1078.53 502.59 1078.63 502.858 1078.63 503.243C1078.63 503.611 1078.53 503.879 1078.32 504.046C1078.11 504.205 1077.86 504.284 1077.56 504.284C1077.26 504.284 1077.01 504.205 1076.8 504.046C1076.59 503.879 1076.49 503.611 1076.49 503.243ZM1076.49 498.186C1076.49 497.802 1076.59 497.534 1076.8 497.383C1077.01 497.224 1077.26 497.145 1077.56 497.145C1077.86 497.145 1078.11 497.224 1078.32 497.383C1078.53 497.534 1078.63 497.802 1078.63 498.186C1078.63 498.554 1078.53 498.822 1078.32 498.989C1078.11 499.148 1077.86 499.228 1077.56 499.228C1077.26 499.228 1077.01 499.148 1076.8 498.989C1076.59 498.822 1076.49 498.554 1076.49 498.186ZM1083.13 504.322C1082.43 504.322 1081.84 504.142 1081.34 503.782C1080.85 503.414 1080.47 502.887 1080.21 502.201C1079.96 501.515 1079.83 500.692 1079.83 499.73C1079.83 498.776 1079.96 497.956 1080.23 497.27C1080.49 496.576 1080.88 496.045 1081.37 495.677C1081.87 495.309 1082.46 495.125 1083.13 495.125C1083.79 495.125 1084.37 495.309 1084.86 495.677C1085.35 496.045 1085.73 496.576 1086 497.27C1086.27 497.956 1086.4 498.784 1086.4 499.755C1086.4 500.708 1086.27 501.528 1086.01 502.214C1085.75 502.9 1085.38 503.423 1084.88 503.782C1084.4 504.142 1083.81 504.322 1083.13 504.322ZM1083.13 503.268C1083.54 503.268 1083.9 503.142 1084.19 502.891C1084.48 502.632 1084.71 502.243 1084.86 501.725C1085.01 501.198 1085.08 500.545 1085.08 499.767C1085.08 498.563 1084.92 497.668 1084.58 497.082C1084.25 496.488 1083.76 496.191 1083.13 496.191C1082.7 496.191 1082.34 496.321 1082.05 496.58C1081.75 496.84 1081.53 497.237 1081.37 497.772C1081.22 498.299 1081.14 498.968 1081.14 499.78C1081.14 500.934 1081.31 501.804 1081.66 502.39C1082.01 502.975 1082.5 503.268 1083.13 503.268ZM1090.65 504.322C1089.95 504.322 1089.36 504.142 1088.87 503.782C1088.37 503.414 1088 502.887 1087.74 502.201C1087.48 501.515 1087.35 500.692 1087.35 499.73C1087.35 498.776 1087.48 497.956 1087.75 497.27C1088.02 496.576 1088.4 496.045 1088.89 495.677C1089.39 495.309 1089.98 495.125 1090.65 495.125C1091.32 495.125 1091.89 495.309 1092.38 495.677C1092.87 496.045 1093.25 496.576 1093.52 497.27C1093.79 497.956 1093.92 498.784 1093.92 499.755C1093.92 500.708 1093.79 501.528 1093.53 502.214C1093.28 502.9 1092.9 503.423 1092.41 503.782C1091.92 504.142 1091.33 504.322 1090.65 504.322ZM1090.65 503.268C1091.07 503.268 1091.42 503.142 1091.72 502.891C1092.01 502.632 1092.23 502.243 1092.38 501.725C1092.53 501.198 1092.61 500.545 1092.61 499.767C1092.61 498.563 1092.44 497.668 1092.1 497.082C1091.77 496.488 1091.28 496.191 1090.65 496.191C1090.22 496.191 1089.86 496.321 1089.57 496.58C1089.28 496.84 1089.05 497.237 1088.89 497.772C1088.74 498.299 1088.67 498.968 1088.67 499.78C1088.67 500.934 1088.84 501.804 1089.18 502.39C1089.53 502.975 1090.02 503.268 1090.65 503.268ZM1095.11 503.243C1095.11 502.858 1095.21 502.59 1095.42 502.44C1095.63 502.281 1095.89 502.201 1096.19 502.201C1096.48 502.201 1096.73 502.281 1096.94 502.44C1097.15 502.59 1097.26 502.858 1097.26 503.243C1097.26 503.611 1097.15 503.879 1096.94 504.046C1096.73 504.205 1096.48 504.284 1096.19 504.284C1095.89 504.284 1095.63 504.205 1095.42 504.046C1095.21 503.879 1095.11 503.611 1095.11 503.243ZM1095.11 498.186C1095.11 497.802 1095.21 497.534 1095.42 497.383C1095.63 497.224 1095.89 497.145 1096.19 497.145C1096.48 497.145 1096.73 497.224 1096.94 497.383C1097.15 497.534 1097.26 497.802 1097.26 498.186C1097.26 498.554 1097.15 498.822 1096.94 498.989C1096.73 499.148 1096.48 499.228 1096.19 499.228C1095.89 499.228 1095.63 499.148 1095.42 498.989C1095.21 498.822 1095.11 498.554 1095.11 498.186ZM1101.75 504.322C1101.06 504.322 1100.46 504.142 1099.97 503.782C1099.47 503.414 1099.1 502.887 1098.84 502.201C1098.58 501.515 1098.45 500.692 1098.45 499.73C1098.45 498.776 1098.58 497.956 1098.85 497.27C1099.12 496.576 1099.5 496.045 1099.99 495.677C1100.5 495.309 1101.08 495.125 1101.75 495.125C1102.42 495.125 1103 495.309 1103.48 495.677C1103.97 496.045 1104.36 496.576 1104.62 497.27C1104.89 497.956 1105.02 498.784 1105.02 499.755C1105.02 500.708 1104.89 501.528 1104.64 502.214C1104.38 502.9 1104 503.423 1103.51 503.782C1103.02 504.142 1102.44 504.322 1101.75 504.322ZM1101.75 503.268C1102.17 503.268 1102.52 503.142 1102.82 502.891C1103.11 502.632 1103.33 502.243 1103.48 501.725C1103.63 501.198 1103.71 500.545 1103.71 499.767C1103.71 498.563 1103.54 497.668 1103.21 497.082C1102.87 496.488 1102.39 496.191 1101.75 496.191C1101.32 496.191 1100.96 496.321 1100.67 496.58C1100.38 496.84 1100.15 497.237 1099.99 497.772C1099.84 498.299 1099.77 498.968 1099.77 499.78C1099.77 500.934 1099.94 501.804 1100.28 502.39C1100.63 502.975 1101.12 503.268 1101.75 503.268ZM1109.27 504.322C1108.58 504.322 1107.98 504.142 1107.49 503.782C1107 503.414 1106.62 502.887 1106.36 502.201C1106.1 501.515 1105.97 500.692 1105.97 499.73C1105.97 498.776 1106.11 497.956 1106.37 497.27C1106.64 496.576 1107.02 496.045 1107.52 495.677C1108.02 495.309 1108.6 495.125 1109.27 495.125C1109.94 495.125 1110.52 495.309 1111 495.677C1111.5 496.045 1111.88 496.576 1112.15 497.27C1112.41 497.956 1112.55 498.784 1112.55 499.755C1112.55 500.708 1112.42 501.528 1112.16 502.214C1111.9 502.9 1111.52 503.423 1111.03 503.782C1110.54 504.142 1109.96 504.322 1109.27 504.322ZM1109.27 503.268C1109.69 503.268 1110.05 503.142 1110.34 502.891C1110.63 502.632 1110.85 502.243 1111 501.725C1111.16 501.198 1111.23 500.545 1111.23 499.767C1111.23 498.563 1111.06 497.668 1110.73 497.082C1110.39 496.488 1109.91 496.191 1109.27 496.191C1108.85 496.191 1108.49 496.321 1108.19 496.58C1107.9 496.84 1107.68 497.237 1107.52 497.772C1107.37 498.299 1107.29 498.968 1107.29 499.78C1107.29 500.934 1107.46 501.804 1107.81 502.39C1108.16 502.975 1108.65 503.268 1109.27 503.268Z" fill="#808080"/>
<path d="M1163.2 504.121C1163.21 503.644 1163.29 503.226 1163.45 502.866C1163.61 502.507 1163.83 502.18 1164.13 501.888C1164.42 501.587 1164.82 501.248 1165.33 500.871L1166.28 500.156C1166.61 499.905 1166.89 499.667 1167.12 499.441C1167.36 499.215 1167.55 498.964 1167.7 498.688C1167.85 498.404 1167.93 498.103 1167.93 497.785C1167.93 497.475 1167.87 497.199 1167.74 496.957C1167.61 496.714 1167.43 496.526 1167.2 496.392C1166.97 496.258 1166.69 496.191 1166.36 496.191C1166.01 496.191 1165.7 496.275 1165.44 496.442C1165.18 496.601 1164.98 496.84 1164.84 497.157C1164.71 497.467 1164.64 497.839 1164.64 498.274V498.412H1163.3V498.199C1163.3 497.58 1163.43 497.04 1163.69 496.58C1163.95 496.112 1164.31 495.752 1164.77 495.501C1165.23 495.25 1165.77 495.125 1166.36 495.125C1166.93 495.125 1167.43 495.238 1167.87 495.464C1168.3 495.681 1168.64 495.991 1168.88 496.392C1169.12 496.794 1169.25 497.258 1169.25 497.785C1169.25 498.245 1169.15 498.667 1168.96 499.052C1168.76 499.437 1168.5 499.801 1168.15 500.144C1167.81 500.478 1167.36 500.851 1166.8 501.26L1166.2 501.712C1165.78 502.013 1165.46 502.26 1165.26 502.452C1165.05 502.645 1164.92 502.808 1164.87 502.942H1169.33V504.121H1163.2ZM1173.32 497.973C1173.32 497.906 1173.32 497.843 1173.32 497.785C1173.32 497.718 1173.32 497.651 1173.32 497.584C1173.33 497.526 1173.33 497.463 1173.33 497.396C1173.33 497.329 1173.33 497.266 1173.33 497.208C1173.12 497.559 1172.83 497.848 1172.47 498.073C1172.11 498.291 1171.7 498.408 1171.26 498.425V497.183C1171.8 497.107 1172.27 496.902 1172.69 496.568C1173.11 496.225 1173.39 495.815 1173.52 495.338H1174.59V504.121H1173.32V497.973ZM1170.71 504.121V502.979H1177.09V504.121H1170.71ZM1178.26 503.243C1178.26 502.858 1178.36 502.59 1178.57 502.44C1178.78 502.281 1179.03 502.201 1179.34 502.201C1179.63 502.201 1179.88 502.281 1180.09 502.44C1180.3 502.59 1180.4 502.858 1180.4 503.243C1180.4 503.611 1180.3 503.879 1180.09 504.046C1179.88 504.205 1179.63 504.284 1179.34 504.284C1179.03 504.284 1178.78 504.205 1178.57 504.046C1178.36 503.879 1178.26 503.611 1178.26 503.243ZM1178.26 498.186C1178.26 497.802 1178.36 497.534 1178.57 497.383C1178.78 497.224 1179.03 497.145 1179.34 497.145C1179.63 497.145 1179.88 497.224 1180.09 497.383C1180.3 497.534 1180.4 497.802 1180.4 498.186C1180.4 498.554 1180.3 498.822 1180.09 498.989C1179.88 499.148 1179.63 499.228 1179.34 499.228C1179.03 499.228 1178.78 499.148 1178.57 498.989C1178.36 498.822 1178.26 498.554 1178.26 498.186ZM1184.9 504.322C1184.2 504.322 1183.61 504.142 1183.11 503.782C1182.62 503.414 1182.24 502.887 1181.99 502.201C1181.73 501.515 1181.6 500.692 1181.6 499.73C1181.6 498.776 1181.73 497.956 1182 497.27C1182.27 496.576 1182.65 496.045 1183.14 495.677C1183.64 495.309 1184.23 495.125 1184.9 495.125C1185.57 495.125 1186.14 495.309 1186.63 495.677C1187.12 496.045 1187.5 496.576 1187.77 497.27C1188.04 497.956 1188.17 498.784 1188.17 499.755C1188.17 500.708 1188.04 501.528 1187.78 502.214C1187.52 502.9 1187.15 503.423 1186.65 503.782C1186.17 504.142 1185.58 504.322 1184.9 504.322ZM1184.9 503.268C1185.31 503.268 1185.67 503.142 1185.96 502.891C1186.26 502.632 1186.48 502.243 1186.63 501.725C1186.78 501.198 1186.85 500.545 1186.85 499.767C1186.85 498.563 1186.69 497.668 1186.35 497.082C1186.02 496.488 1185.53 496.191 1184.9 496.191C1184.47 496.191 1184.11 496.321 1183.82 496.58C1183.52 496.84 1183.3 497.237 1183.14 497.772C1182.99 498.299 1182.91 498.968 1182.91 499.78C1182.91 500.934 1183.09 501.804 1183.43 502.39C1183.78 502.975 1184.27 503.268 1184.9 503.268ZM1192.42 504.322C1191.73 504.322 1191.13 504.142 1190.64 503.782C1190.14 503.414 1189.77 502.887 1189.51 502.201C1189.25 501.515 1189.12 500.692 1189.12 499.73C1189.12 498.776 1189.25 497.956 1189.52 497.27C1189.79 496.576 1190.17 496.045 1190.66 495.677C1191.16 495.309 1191.75 495.125 1192.42 495.125C1193.09 495.125 1193.67 495.309 1194.15 495.677C1194.64 496.045 1195.03 496.576 1195.29 497.27C1195.56 497.956 1195.69 498.784 1195.69 499.755C1195.69 500.708 1195.56 501.528 1195.31 502.214C1195.05 502.9 1194.67 503.423 1194.18 503.782C1193.69 504.142 1193.11 504.322 1192.42 504.322ZM1192.42 503.268C1192.84 503.268 1193.19 503.142 1193.49 502.891C1193.78 502.632 1194 502.243 1194.15 501.725C1194.3 501.198 1194.38 500.545 1194.38 499.767C1194.38 498.563 1194.21 497.668 1193.88 497.082C1193.54 496.488 1193.06 496.191 1192.42 496.191C1191.99 496.191 1191.63 496.321 1191.34 496.58C1191.05 496.84 1190.82 497.237 1190.66 497.772C1190.51 498.299 1190.44 498.968 1190.44 499.78C1190.44 500.934 1190.61 501.804 1190.95 502.39C1191.3 502.975 1191.79 503.268 1192.42 503.268ZM1196.88 503.243C1196.88 502.858 1196.99 502.59 1197.2 502.44C1197.4 502.281 1197.66 502.201 1197.96 502.201C1198.25 502.201 1198.5 502.281 1198.71 502.44C1198.92 502.59 1199.03 502.858 1199.03 503.243C1199.03 503.611 1198.92 503.879 1198.71 504.046C1198.5 504.205 1198.25 504.284 1197.96 504.284C1197.66 504.284 1197.4 504.205 1197.2 504.046C1196.99 503.879 1196.88 503.611 1196.88 503.243ZM1196.88 498.186C1196.88 497.802 1196.99 497.534 1197.2 497.383C1197.4 497.224 1197.66 497.145 1197.96 497.145C1198.25 497.145 1198.5 497.224 1198.71 497.383C1198.92 497.534 1199.03 497.802 1199.03 498.186C1199.03 498.554 1198.92 498.822 1198.71 498.989C1198.5 499.148 1198.25 499.228 1197.96 499.228C1197.66 499.228 1197.4 499.148 1197.2 498.989C1196.99 498.822 1196.88 498.554 1196.88 498.186ZM1203.52 504.322C1202.83 504.322 1202.23 504.142 1201.74 503.782C1201.25 503.414 1200.87 502.887 1200.61 502.201C1200.35 501.515 1200.22 500.692 1200.22 499.73C1200.22 498.776 1200.35 497.956 1200.62 497.27C1200.89 496.576 1201.27 496.045 1201.76 495.677C1202.27 495.309 1202.85 495.125 1203.52 495.125C1204.19 495.125 1204.77 495.309 1205.25 495.677C1205.75 496.045 1206.13 496.576 1206.39 497.27C1206.66 497.956 1206.8 498.784 1206.8 499.755C1206.8 500.708 1206.67 501.528 1206.41 502.214C1206.15 502.9 1205.77 503.423 1205.28 503.782C1204.79 504.142 1204.21 504.322 1203.52 504.322ZM1203.52 503.268C1203.94 503.268 1204.29 503.142 1204.59 502.891C1204.88 502.632 1205.1 502.243 1205.25 501.725C1205.4 501.198 1205.48 500.545 1205.48 499.767C1205.48 498.563 1205.31 497.668 1204.98 497.082C1204.64 496.488 1204.16 496.191 1203.52 496.191C1203.09 496.191 1202.73 496.321 1202.44 496.58C1202.15 496.84 1201.92 497.237 1201.76 497.772C1201.61 498.299 1201.54 498.968 1201.54 499.78C1201.54 500.934 1201.71 501.804 1202.05 502.39C1202.4 502.975 1202.89 503.268 1203.52 503.268ZM1211.04 504.322C1210.35 504.322 1209.76 504.142 1209.26 503.782C1208.77 503.414 1208.39 502.887 1208.13 502.201C1207.87 501.515 1207.74 500.692 1207.74 499.73C1207.74 498.776 1207.88 497.956 1208.15 497.27C1208.41 496.576 1208.79 496.045 1209.29 495.677C1209.79 495.309 1210.37 495.125 1211.04 495.125C1211.71 495.125 1212.29 495.309 1212.78 495.677C1213.27 496.045 1213.65 496.576 1213.92 497.27C1214.18 497.956 1214.32 498.784 1214.32 499.755C1214.32 500.708 1214.19 501.528 1213.93 502.214C1213.67 502.9 1213.29 503.423 1212.8 503.782C1212.32 504.142 1211.73 504.322 1211.04 504.322ZM1211.04 503.268C1211.46 503.268 1211.82 503.142 1212.11 502.891C1212.4 502.632 1212.62 502.243 1212.78 501.725C1212.93 501.198 1213 500.545 1213 499.767C1213 498.563 1212.83 497.668 1212.5 497.082C1212.16 496.488 1211.68 496.191 1211.04 496.191C1210.62 496.191 1210.26 496.321 1209.97 496.58C1209.67 496.84 1209.45 497.237 1209.29 497.772C1209.14 498.299 1209.06 498.968 1209.06 499.78C1209.06 500.934 1209.23 501.804 1209.58 502.39C1209.93 502.975 1210.42 503.268 1211.04 503.268Z" fill="#808080"/>
<path d="M1264.97 504.121C1264.98 503.644 1265.06 503.226 1265.22 502.866C1265.38 502.507 1265.6 502.18 1265.9 501.888C1266.19 501.587 1266.59 501.248 1267.1 500.871L1268.05 500.156C1268.38 499.905 1268.66 499.667 1268.89 499.441C1269.13 499.215 1269.32 498.964 1269.47 498.688C1269.62 498.404 1269.7 498.103 1269.7 497.785C1269.7 497.475 1269.64 497.199 1269.51 496.957C1269.38 496.714 1269.2 496.526 1268.97 496.392C1268.74 496.258 1268.46 496.191 1268.13 496.191C1267.78 496.191 1267.47 496.275 1267.21 496.442C1266.95 496.601 1266.75 496.84 1266.61 497.157C1266.48 497.467 1266.41 497.839 1266.41 498.274V498.412H1265.07V498.199C1265.07 497.58 1265.2 497.04 1265.46 496.58C1265.72 496.112 1266.08 495.752 1266.54 495.501C1267 495.25 1267.54 495.125 1268.13 495.125C1268.7 495.125 1269.2 495.238 1269.64 495.464C1270.07 495.681 1270.41 495.991 1270.65 496.392C1270.89 496.794 1271.02 497.258 1271.02 497.785C1271.02 498.245 1270.92 498.667 1270.73 499.052C1270.53 499.437 1270.27 499.801 1269.92 500.144C1269.58 500.478 1269.13 500.851 1268.57 501.26L1267.97 501.712C1267.55 502.013 1267.23 502.26 1267.03 502.452C1266.82 502.645 1266.69 502.808 1266.64 502.942H1271.1V504.121H1264.97ZM1276.14 504.121V501.913H1272.06V500.746L1275.74 495.338H1277.41V500.784H1279.04V501.913H1277.41V504.121H1276.14ZM1273.29 500.784H1276.14V496.53C1276.12 496.572 1276.09 496.618 1276.07 496.668C1276.04 496.71 1276.02 496.752 1275.99 496.794C1275.96 496.852 1275.92 496.911 1275.88 496.969C1275.85 497.019 1275.81 497.074 1275.77 497.132L1273.62 500.319C1273.59 500.361 1273.55 500.403 1273.52 500.445C1273.49 500.487 1273.47 500.528 1273.44 500.57C1273.41 500.604 1273.38 500.641 1273.36 500.683C1273.34 500.725 1273.32 500.758 1273.29 500.784ZM1280.03 503.243C1280.03 502.858 1280.13 502.59 1280.34 502.44C1280.55 502.281 1280.8 502.201 1281.11 502.201C1281.4 502.201 1281.65 502.281 1281.86 502.44C1282.07 502.59 1282.17 502.858 1282.17 503.243C1282.17 503.611 1282.07 503.879 1281.86 504.046C1281.65 504.205 1281.4 504.284 1281.11 504.284C1280.8 504.284 1280.55 504.205 1280.34 504.046C1280.13 503.879 1280.03 503.611 1280.03 503.243ZM1280.03 498.186C1280.03 497.802 1280.13 497.534 1280.34 497.383C1280.55 497.224 1280.8 497.145 1281.11 497.145C1281.4 497.145 1281.65 497.224 1281.86 497.383C1282.07 497.534 1282.17 497.802 1282.17 498.186C1282.17 498.554 1282.07 498.822 1281.86 498.989C1281.65 499.148 1281.4 499.228 1281.11 499.228C1280.8 499.228 1280.55 499.148 1280.34 498.989C1280.13 498.822 1280.03 498.554 1280.03 498.186ZM1286.67 504.322C1285.97 504.322 1285.38 504.142 1284.88 503.782C1284.39 503.414 1284.01 502.887 1283.76 502.201C1283.5 501.515 1283.37 500.692 1283.37 499.73C1283.37 498.776 1283.5 497.956 1283.77 497.27C1284.04 496.576 1284.42 496.045 1284.91 495.677C1285.41 495.309 1286 495.125 1286.67 495.125C1287.34 495.125 1287.91 495.309 1288.4 495.677C1288.89 496.045 1289.27 496.576 1289.54 497.27C1289.81 497.956 1289.94 498.784 1289.94 499.755C1289.94 500.708 1289.81 501.528 1289.55 502.214C1289.29 502.9 1288.92 503.423 1288.42 503.782C1287.94 504.142 1287.35 504.322 1286.67 504.322ZM1286.67 503.268C1287.08 503.268 1287.44 503.142 1287.73 502.891C1288.03 502.632 1288.25 502.243 1288.4 501.725C1288.55 501.198 1288.62 500.545 1288.62 499.767C1288.62 498.563 1288.46 497.668 1288.12 497.082C1287.79 496.488 1287.3 496.191 1286.67 496.191C1286.24 496.191 1285.88 496.321 1285.59 496.58C1285.29 496.84 1285.07 497.237 1284.91 497.772C1284.76 498.299 1284.68 498.968 1284.68 499.78C1284.68 500.934 1284.86 501.804 1285.2 502.39C1285.55 502.975 1286.04 503.268 1286.67 503.268ZM1294.19 504.322C1293.5 504.322 1292.9 504.142 1292.41 503.782C1291.91 503.414 1291.54 502.887 1291.28 502.201C1291.02 501.515 1290.89 500.692 1290.89 499.73C1290.89 498.776 1291.02 497.956 1291.29 497.27C1291.56 496.576 1291.94 496.045 1292.43 495.677C1292.93 495.309 1293.52 495.125 1294.19 495.125C1294.86 495.125 1295.44 495.309 1295.92 495.677C1296.41 496.045 1296.8 496.576 1297.06 497.27C1297.33 497.956 1297.46 498.784 1297.46 499.755C1297.46 500.708 1297.33 501.528 1297.08 502.214C1296.82 502.9 1296.44 503.423 1295.95 503.782C1295.46 504.142 1294.88 504.322 1294.19 504.322ZM1294.19 503.268C1294.61 503.268 1294.96 503.142 1295.26 502.891C1295.55 502.632 1295.77 502.243 1295.92 501.725C1296.07 501.198 1296.15 500.545 1296.15 499.767C1296.15 498.563 1295.98 497.668 1295.65 497.082C1295.31 496.488 1294.83 496.191 1294.19 496.191C1293.76 496.191 1293.4 496.321 1293.11 496.58C1292.82 496.84 1292.59 497.237 1292.43 497.772C1292.28 498.299 1292.21 498.968 1292.21 499.78C1292.21 500.934 1292.38 501.804 1292.72 502.39C1293.07 502.975 1293.56 503.268 1294.19 503.268ZM1298.65 503.243C1298.65 502.858 1298.76 502.59 1298.97 502.44C1299.17 502.281 1299.43 502.201 1299.73 502.201C1300.02 502.201 1300.27 502.281 1300.48 502.44C1300.69 502.59 1300.8 502.858 1300.8 503.243C1300.8 503.611 1300.69 503.879 1300.48 504.046C1300.27 504.205 1300.02 504.284 1299.73 504.284C1299.43 504.284 1299.17 504.205 1298.97 504.046C1298.76 503.879 1298.65 503.611 1298.65 503.243ZM1298.65 498.186C1298.65 497.802 1298.76 497.534 1298.97 497.383C1299.17 497.224 1299.43 497.145 1299.73 497.145C1300.02 497.145 1300.27 497.224 1300.48 497.383C1300.69 497.534 1300.8 497.802 1300.8 498.186C1300.8 498.554 1300.69 498.822 1300.48 498.989C1300.27 499.148 1300.02 499.228 1299.73 499.228C1299.43 499.228 1299.17 499.148 1298.97 498.989C1298.76 498.822 1298.65 498.554 1298.65 498.186ZM1305.29 504.322C1304.6 504.322 1304 504.142 1303.51 503.782C1303.02 503.414 1302.64 502.887 1302.38 502.201C1302.12 501.515 1301.99 500.692 1301.99 499.73C1301.99 498.776 1302.12 497.956 1302.39 497.27C1302.66 496.576 1303.04 496.045 1303.53 495.677C1304.04 495.309 1304.62 495.125 1305.29 495.125C1305.96 495.125 1306.54 495.309 1307.02 495.677C1307.52 496.045 1307.9 496.576 1308.16 497.27C1308.43 497.956 1308.57 498.784 1308.57 499.755C1308.57 500.708 1308.44 501.528 1308.18 502.214C1307.92 502.9 1307.54 503.423 1307.05 503.782C1306.56 504.142 1305.98 504.322 1305.29 504.322ZM1305.29 503.268C1305.71 503.268 1306.06 503.142 1306.36 502.891C1306.65 502.632 1306.87 502.243 1307.02 501.725C1307.17 501.198 1307.25 500.545 1307.25 499.767C1307.25 498.563 1307.08 497.668 1306.75 497.082C1306.41 496.488 1305.93 496.191 1305.29 496.191C1304.86 496.191 1304.5 496.321 1304.21 496.58C1303.92 496.84 1303.69 497.237 1303.53 497.772C1303.38 498.299 1303.31 498.968 1303.31 499.78C1303.31 500.934 1303.48 501.804 1303.82 502.39C1304.17 502.975 1304.66 503.268 1305.29 503.268ZM1312.81 504.322C1312.12 504.322 1311.53 504.142 1311.03 503.782C1310.54 503.414 1310.16 502.887 1309.9 502.201C1309.64 501.515 1309.51 500.692 1309.51 499.73C1309.51 498.776 1309.65 497.956 1309.92 497.27C1310.18 496.576 1310.56 496.045 1311.06 495.677C1311.56 495.309 1312.14 495.125 1312.81 495.125C1313.48 495.125 1314.06 495.309 1314.55 495.677C1315.04 496.045 1315.42 496.576 1315.69 497.27C1315.96 497.956 1316.09 498.784 1316.09 499.755C1316.09 500.708 1315.96 501.528 1315.7 502.214C1315.44 502.9 1315.06 503.423 1314.57 503.782C1314.09 504.142 1313.5 504.322 1312.81 504.322ZM1312.81 503.268C1313.23 503.268 1313.59 503.142 1313.88 502.891C1314.17 502.632 1314.39 502.243 1314.55 501.725C1314.7 501.198 1314.77 500.545 1314.77 499.767C1314.77 498.563 1314.6 497.668 1314.27 497.082C1313.93 496.488 1313.45 496.191 1312.81 496.191C1312.39 496.191 1312.03 496.321 1311.74 496.58C1311.44 496.84 1311.22 497.237 1311.06 497.772C1310.91 498.299 1310.83 498.968 1310.83 499.78C1310.83 500.934 1311 501.804 1311.35 502.39C1311.7 502.975 1312.19 503.268 1312.81 503.268Z" fill="#808080"/>
<path d="M3.816 158.251C3.12 158.251 2.52 158.067 2.016 157.699C1.52 157.331 1.14 156.815 0.876 156.151C0.62 155.487 0.492 154.711 0.492 153.823C0.492 152.975 0.624 152.223 0.888 151.567C1.16 150.903 1.548 150.387 2.052 150.019C2.564 149.643 3.172 149.455 3.876 149.455C4.444 149.455 4.94 149.583 5.364 149.839C5.796 150.087 6.132 150.439 6.372 150.895C6.62 151.343 6.764 151.863 6.804 152.455H5.436C5.372 151.847 5.2 151.375 4.92 151.039C4.64 150.703 4.264 150.535 3.792 150.535C3.368 150.535 3.004 150.671 2.7 150.943C2.404 151.207 2.18 151.587 2.028 152.083C1.884 152.579 1.812 153.159 1.812 153.823C1.812 154.495 1.888 155.083 2.04 155.587C2.2 156.091 2.428 156.483 2.724 156.763C3.02 157.043 3.376 157.183 3.792 157.183C4.296 157.183 4.68 157.019 4.944 156.691C5.216 156.363 5.4 155.875 5.496 155.227H6.816C6.728 156.187 6.424 156.931 5.904 157.459C5.392 157.987 4.696 158.251 3.816 158.251ZM8.14331 158.059V149.659H9.41531V156.979H14.1073V158.059H8.14331ZM17.9906 158.251C17.3346 158.251 16.7666 158.071 16.2866 157.711C15.8146 157.351 15.4546 156.843 15.2066 156.187C14.9586 155.531 14.8346 154.755 14.8346 153.859C14.8346 152.963 14.9586 152.187 15.2066 151.531C15.4546 150.867 15.8146 150.355 16.2866 149.995C16.7586 149.635 17.3266 149.455 17.9906 149.455C18.6466 149.455 19.2106 149.635 19.6826 149.995C20.1626 150.355 20.5226 150.867 20.7626 151.531C21.0106 152.187 21.1346 152.963 21.1346 153.859C21.1346 154.755 21.0106 155.531 20.7626 156.187C20.5146 156.843 20.1546 157.351 19.6826 157.711C19.2106 158.071 18.6466 158.251 17.9906 158.251ZM17.9906 157.183C18.3586 157.183 18.6786 157.051 18.9506 156.787C19.2306 156.515 19.4426 156.131 19.5866 155.635C19.7386 155.131 19.8146 154.539 19.8146 153.859C19.8146 153.171 19.7426 152.579 19.5986 152.083C19.4546 151.587 19.2426 151.207 18.9626 150.943C18.6906 150.671 18.3666 150.535 17.9906 150.535C17.5986 150.535 17.2666 150.671 16.9946 150.943C16.7226 151.207 16.5146 151.587 16.3706 152.083C16.2266 152.579 16.1546 153.171 16.1546 153.859C16.1546 154.539 16.2266 155.131 16.3706 155.635C16.5226 156.131 16.7346 156.515 17.0066 156.787C17.2866 157.051 17.6146 157.183 17.9906 157.183ZM25.1859 158.251C24.5379 158.251 23.9899 158.127 23.5419 157.879C23.0939 157.623 22.7539 157.255 22.5219 156.775C22.2979 156.287 22.1859 155.703 22.1859 155.023V149.659H23.4579V154.867C23.4579 155.371 23.5179 155.795 23.6379 156.139C23.7659 156.475 23.9579 156.735 24.2139 156.919C24.4699 157.095 24.7939 157.183 25.1859 157.183C25.7619 157.183 26.1939 156.987 26.4819 156.595C26.7699 156.195 26.9139 155.619 26.9139 154.867V149.659H28.1859V155.023C28.1859 156.055 27.9299 156.851 27.4179 157.411C26.9139 157.971 26.1699 158.251 25.1859 158.251ZM29.7053 158.059V149.659H31.6973C32.5133 149.659 33.2133 149.811 33.7973 150.115C34.3893 150.419 34.8413 150.887 35.1533 151.519C35.4733 152.143 35.6333 152.931 35.6333 153.883C35.6333 154.731 35.4893 155.471 35.2013 156.103C34.9213 156.727 34.4973 157.211 33.9293 157.555C33.3613 157.891 32.6733 158.059 31.8652 158.059H29.7053ZM31.7812 156.979C32.3093 156.979 32.7613 156.871 33.1373 156.655C33.5133 156.431 33.8013 156.087 34.0013 155.623C34.2093 155.159 34.3133 154.571 34.3133 153.859C34.3133 153.179 34.2213 152.611 34.0373 152.155C33.8533 151.691 33.5733 151.339 33.1973 151.099C32.8213 150.851 32.3373 150.727 31.7453 150.727H30.9773V156.979H31.7812ZM37.8846 155.503V154.399H41.2686V155.503H37.8846ZM44.0959 158.059V149.659H47.0239C47.5839 149.659 48.0839 149.739 48.5239 149.899C48.9639 150.059 49.3159 150.319 49.5799 150.679C49.8439 151.039 49.9759 151.511 49.9759 152.095C49.9759 152.679 49.8439 153.151 49.5799 153.511C49.3239 153.871 48.9759 154.131 48.5359 154.291C48.0959 154.451 47.5919 154.531 47.0239 154.531H45.3679V158.059H44.0959ZM47.0119 153.451C47.5799 153.451 47.9959 153.335 48.2599 153.103C48.5319 152.863 48.6679 152.527 48.6679 152.095C48.6679 151.655 48.5359 151.319 48.2719 151.087C48.0079 150.847 47.5879 150.727 47.0119 150.727H45.3679V153.451H47.0119ZM50.5472 158.059L53.1512 149.659H54.7712L57.3992 158.059H56.0432L54.2312 151.795C54.0792 151.299 53.9832 150.939 53.9432 150.715C53.8552 151.067 53.7592 151.427 53.6552 151.795L51.8192 158.059H50.5472ZM52.0112 155.635V154.567H55.9232V155.635H52.0112ZM58.3185 158.059V149.659H61.5825C62.3905 149.659 63.0345 149.851 63.5145 150.235C63.9945 150.619 64.2345 151.163 64.2345 151.867C64.2345 152.379 64.0785 152.815 63.7665 153.175C63.4625 153.535 63.0945 153.779 62.6625 153.907C63.1025 153.979 63.4465 154.187 63.6945 154.531C63.9425 154.867 64.0665 155.303 64.0665 155.839V158.059H62.7945V156.079C62.7945 155.487 62.6705 155.075 62.4225 154.843C62.1825 154.603 61.7665 154.483 61.1745 154.483H59.5905V158.059H58.3185ZM61.2945 153.403C61.6465 153.403 61.9425 153.351 62.1825 153.247C62.4305 153.143 62.6145 152.991 62.7345 152.791C62.8625 152.591 62.9265 152.347 62.9265 152.059C62.9265 151.619 62.7865 151.287 62.5065 151.063C62.2345 150.839 61.8305 150.727 61.2945 150.727H59.5905V153.403H61.2945ZM64.9378 158.059L67.5418 149.659H69.1618L71.7898 158.059H70.4338L68.6218 151.795C68.4698 151.299 68.3738 150.939 68.3338 150.715C68.2458 151.067 68.1498 151.427 68.0458 151.795L66.2098 158.059H64.9378ZM66.4018 155.635V154.567H70.3138V155.635H66.4018ZM72.9011 158.059V149.659H74.1731V156.979H78.8651V158.059H72.9011ZM80.0964 158.059V149.659H81.3684V156.979H86.0604V158.059H80.0964ZM87.3278 158.059V149.659H92.8598V150.727H88.5998V153.211H92.6558V154.291H88.5998V156.979H93.0158V158.059H87.3278ZM94.4871 158.059V149.659H95.7591V156.979H100.451V158.059H94.4871ZM103.698 158.059V149.659H104.97V158.059H103.698ZM101.43 158.059V156.979H107.238V158.059H101.43ZM101.43 150.727V149.659H107.238V150.727H101.43ZM108.506 158.059V156.895L112.334 151.615C112.39 151.535 112.442 151.463 112.49 151.399C112.538 151.327 112.59 151.259 112.646 151.195C112.702 151.115 112.758 151.035 112.814 150.955C112.878 150.875 112.938 150.799 112.994 150.727H108.71V149.659H114.398V150.775L110.558 156.055C110.446 156.207 110.33 156.363 110.21 156.523C110.09 156.675 109.97 156.827 109.85 156.979H114.566V158.059H108.506ZM116.109 158.059V149.659H121.641V150.727H117.381V153.211H121.437V154.291H117.381V156.979H121.797V158.059H116.109ZM123.244 158.059V149.659H125.236C126.052 149.659 126.752 149.811 127.336 150.115C127.928 150.419 128.38 150.887 128.692 151.519C129.012 152.143 129.172 152.931 129.172 153.883C129.172 154.731 129.028 155.471 128.74 156.103C128.46 156.727 128.036 157.211 127.468 157.555C126.9 157.891 126.212 158.059 125.404 158.059H123.244ZM125.32 156.979C125.848 156.979 126.3 156.871 126.676 156.655C127.052 156.431 127.34 156.087 127.54 155.623C127.748 155.159 127.852 154.571 127.852 153.859C127.852 153.179 127.76 152.611 127.576 152.155C127.392 151.691 127.112 151.339 126.736 151.099C126.36 150.851 125.876 150.727 125.284 150.727H124.516V156.979H125.32ZM137.635 158.059V149.659H140.563C141.123 149.659 141.623 149.739 142.063 149.899C142.503 150.059 142.855 150.319 143.119 150.679C143.383 151.039 143.515 151.511 143.515 152.095C143.515 152.679 143.383 153.151 143.119 153.511C142.863 153.871 142.515 154.131 142.075 154.291C141.635 154.451 141.131 154.531 140.563 154.531H138.907V158.059H137.635ZM140.551 153.451C141.119 153.451 141.535 153.335 141.799 153.103C142.071 152.863 142.207 152.527 142.207 152.095C142.207 151.655 142.075 151.319 141.811 151.087C141.547 150.847 141.127 150.727 140.551 150.727H138.907V153.451H140.551ZM146.87 158.059V149.659H148.142V158.059H146.87ZM144.602 158.059V156.979H150.41V158.059H144.602ZM144.602 150.727V149.659H150.41V150.727H144.602ZM156.802 158.851L154.51 155.707L155.374 155.119L157.654 158.251L156.802 158.851ZM154.702 158.251C154.046 158.251 153.478 158.071 152.998 157.711C152.526 157.351 152.166 156.843 151.918 156.187C151.67 155.531 151.546 154.755 151.546 153.859C151.546 152.963 151.67 152.187 151.918 151.531C152.166 150.867 152.526 150.355 152.998 149.995C153.47 149.635 154.038 149.455 154.702 149.455C155.358 149.455 155.922 149.635 156.394 149.995C156.874 150.355 157.234 150.867 157.474 151.531C157.722 152.187 157.846 152.963 157.846 153.859C157.846 154.755 157.722 155.531 157.474 156.187C157.226 156.843 156.866 157.351 156.394 157.711C155.922 158.071 155.358 158.251 154.702 158.251ZM154.702 157.183C155.07 157.183 155.39 157.051 155.662 156.787C155.942 156.515 156.154 156.131 156.298 155.635C156.45 155.131 156.526 154.539 156.526 153.859C156.526 153.171 156.454 152.579 156.31 152.083C156.166 151.587 155.954 151.207 155.674 150.943C155.402 150.671 155.078 150.535 154.702 150.535C154.31 150.535 153.978 150.671 153.706 150.943C153.434 151.207 153.226 151.587 153.082 152.083C152.938 152.579 152.866 153.171 152.866 153.859C152.866 154.539 152.938 155.131 153.082 155.635C153.234 156.131 153.446 156.515 153.718 156.787C153.998 157.051 154.326 157.183 154.702 157.183ZM161.897 158.251C161.249 158.251 160.701 158.127 160.253 157.879C159.805 157.623 159.465 157.255 159.233 156.775C159.009 156.287 158.897 155.703 158.897 155.023V149.659H160.169V154.867C160.169 155.371 160.229 155.795 160.349 156.139C160.477 156.475 160.669 156.735 160.925 156.919C161.181 157.095 161.505 157.183 161.897 157.183C162.473 157.183 162.905 156.987 163.193 156.595C163.481 156.195 163.625 155.619 163.625 154.867V149.659H164.897V155.023C164.897 156.055 164.641 156.851 164.129 157.411C163.625 157.971 162.881 158.251 161.897 158.251ZM165.672 158.059L168.276 149.659H169.896L172.524 158.059H171.168L169.356 151.795C169.204 151.299 169.108 150.939 169.068 150.715C168.98 151.067 168.884 151.427 168.78 151.795L166.944 158.059H165.672ZM167.136 155.635V154.567H171.048V155.635H167.136ZM173.444 158.059V149.659H175.328L177.956 156.691C177.948 156.507 177.944 156.315 177.944 156.115C177.944 155.915 177.944 155.715 177.944 155.515V149.659H179.132V158.059H177.296L174.608 150.907C174.616 151.091 174.62 151.279 174.62 151.471C174.628 151.663 174.632 151.851 174.632 152.035V158.059H173.444ZM182.847 158.059V150.727H180.147V149.659H186.807V150.727H184.119V158.059H182.847Z" fill="#FFFF8D"/>
<path d="M582.543 0V476.787" stroke="#424241" stroke-width="0.697057"/>
<path d="M786.085 0V476.787" stroke="#424241" stroke-width="0.697057"/>
<path d="M989.625 0V476.787" stroke="#424241" stroke-width="0.697057"/>
<path d="M1193.17 0V476.787" stroke="#424241" stroke-width="0.697057"/>
<path d="M480.773 0V476.787" stroke="#424241" stroke-width="0.697057"/>
<path d="M684.314 0V476.787" stroke="#424241" stroke-width="0.697057"/>
<path d="M887.854 0V476.787" stroke="#424241" stroke-width="0.697057"/>
<path d="M1091.4 0V476.787" stroke="#424241" stroke-width="0.697057"/>
<path d="M1294.94 0V476.787" stroke="#424241" stroke-width="0.697057"/>
<rect x="480.773" width="790.462" height="26.4882" rx="4" fill="#EDEAE8"/>
<rect x="480.773" y="139.414" width="18.1235" height="26.4882" rx="4" fill="#FFFF8D"/>
<rect x="480.773" y="171.48" width="18.1235" height="26.4882" rx="4" fill="#FFFF8D"/>
<rect x="480.773" y="203.539" width="18.1235" height="26.4882" rx="4" fill="#FFFF8D"/>
<rect x="480.773" y="238.395" width="18.1235" height="26.4882" rx="4" fill="#FFFF8D"/>
<rect x="480.773" y="270.457" width="18.1235" height="26.4882" rx="4" fill="#FFFF8D"/>
<rect x="480.773" y="302.523" width="18.1235" height="26.4882" rx="4" fill="#FFFF8D"/>
<rect x="480.773" y="334.59" width="18.1235" height="26.4882" rx="4" fill="#FFFF8D"/>
<path d="M203 154L465 154" stroke="#FFFF8D" stroke-dasharray="2 2"/>
<path d="M445 185L465 185" stroke="#FFFF8D" stroke-dasharray="2 2"/>
<path d="M445 217L465 217" stroke="#FFFF8D" stroke-dasharray="2 2"/>
<path d="M445 252L465 252" stroke="#FFFF8D" stroke-dasharray="2 2"/>
<path d="M445 284L465 284" stroke="#FFFF8D" stroke-dasharray="2 2"/>
<path d="M445 316L465 316" stroke="#FFFF8D" stroke-dasharray="2 2"/>
<path d="M155 16L465 16" stroke="#EDEAE8" stroke-dasharray="2 2"/>
<path d="M11.726 52V50.218H4.356C5.852 49.184 6.93 48.304 8.118 47.204C10.472 45.026 11.55 43.156 11.55 41C11.55 38.03 9.768 36.38 6.798 36.38C3.718 36.38 1.87 38.118 1.87 40.824C1.87 41.22 1.914 41.616 2.024 42.056L4.004 42.254C3.894 41.704 3.828 41.242 3.828 40.846C3.828 39.174 4.906 38.096 6.688 38.096C8.448 38.096 9.482 39.152 9.482 41.022C9.482 42.848 8.822 44.124 6.886 45.994C4.928 47.864 2.948 49.448 1.694 50.372V52H11.726ZM23.4986 52V48.128H26.0066V46.588H23.4986V36.71H21.3646L14.6766 46.786V48.128H21.6286V52H23.4986ZM16.6126 46.588C17.0086 46.17 17.1846 45.862 17.6466 45.158L20.5066 40.868C21.1666 39.856 21.3866 39.46 21.6506 38.756H21.6726C21.6286 39.878 21.6286 40.274 21.6286 40.978V46.588H16.6126ZM50.7397 36.38V43.156H44.7557V36.38H42.7097V52H44.7557V44.872H50.7397V52H52.7857V36.38H50.7397ZM61.3903 52.374C65.1963 52.374 67.0883 49.536 67.0883 44.894V43.486C67.0883 38.844 65.1963 36.006 61.3903 36.006C57.5843 36.006 55.6923 38.844 55.6923 43.486V44.894C55.6923 49.536 57.5843 52.374 61.3903 52.374ZM61.3903 50.614C58.9483 50.614 57.8263 48.81 57.8263 44.894V43.486C57.8263 39.57 58.9483 37.766 61.3903 37.766C63.8323 37.766 64.9543 39.57 64.9543 43.486V44.894C64.9543 48.81 63.8323 50.614 61.3903 50.614ZM69.7089 46.786C69.7089 50.02 71.4689 52.374 75.0989 52.374C78.7729 52.374 80.3569 50.02 80.3569 46.786V36.38H78.3109V46.786C78.3109 49.096 77.3649 50.614 75.0989 50.614C72.8769 50.614 71.7549 49.096 71.7549 46.786V36.38H69.7089V46.786ZM94.5055 52L90.6995 45.136C92.7895 44.586 94.0215 43.046 94.0215 40.934C94.0215 38.03 92.1075 36.38 88.7415 36.38H83.7255V52H85.7715V45.466H88.6315L92.2395 52H94.5055ZM88.6535 38.096C90.7435 38.096 91.8655 39.108 91.8655 40.978C91.8655 42.826 90.7435 43.838 88.6535 43.838H85.7715V38.096H88.6535ZM102.494 52.374C106.212 52.374 107.752 50.086 107.752 47.886C107.752 44.872 105.772 43.948 103.682 43.398L101.68 42.87C100.36 42.496 99.282 41.616 99.282 40.23C99.282 39.064 99.942 37.722 102.23 37.722C103.902 37.722 105.486 38.492 105.684 40.956L107.642 40.384C107.334 37.194 105.024 36.006 102.164 36.006C99.128 36.006 97.192 38.096 97.192 40.406C97.192 42.826 98.842 44.146 101.042 44.74L103.132 45.29C104.364 45.62 105.662 46.104 105.662 48.172C105.662 50.152 103.946 50.658 102.472 50.658C100.096 50.658 99.04 48.986 98.688 47.116L96.708 47.512C97.082 50.086 98.732 52.374 102.494 52.374Z" fill="#EDEAE8"/>
<path d="M6.82 189.33C10.076 189.33 12.144 187.438 12.144 184.666C12.144 182.598 10.978 181.19 8.976 180.838C10.56 180.42 11.616 179.078 11.616 177.56C11.616 175.03 9.9 173.38 6.93 173.38C3.806 173.38 1.76 175.228 1.76 178.176L3.608 178.572C3.608 176.35 4.796 175.03 6.82 175.03C8.668 175.03 9.636 175.998 9.636 177.56C9.636 179.056 8.734 180.244 6.754 180.244H5.874V181.872H6.82C9.02 181.872 10.164 183.038 10.164 184.666C10.164 186.58 8.954 187.68 6.886 187.68C4.708 187.68 3.498 186.338 3.41 184.402L1.474 184.644C1.562 187.372 3.542 189.33 6.82 189.33ZM36.4152 179.144C36.6352 178.22 36.9872 176.218 37.1192 175.118H37.2512C37.2292 176.108 37.2072 177.978 37.2072 179.298V189H39.1432V173.38H36.1732L34.4132 181.542C34.3252 182.026 34.2152 182.62 34.1712 182.928H34.0392C33.9952 182.62 33.8852 182.026 33.7972 181.542L32.0372 173.38H29.0672V189H31.0032V179.298C31.0032 177.978 30.9812 176.108 30.9592 175.118H31.0912C31.2232 176.218 31.5752 178.22 31.7952 179.144L33.1592 185.26H35.0512L36.4152 179.144ZM52.6757 173.38H42.8197V175.03H46.7137V187.35H42.8197V189H52.6757V187.35H48.7597V175.03H52.6757V173.38ZM59.0363 173.38H56.3523V189H58.3983V177.252C58.3983 176.79 58.3983 176.328 58.3543 175.91H58.4203C58.4203 175.91 58.7503 176.9 59.1243 177.758L64.0303 189H66.4283V173.38H64.3823V184.38C64.3823 184.952 64.3823 185.524 64.4263 186.052H64.3823C64.2943 185.722 64.0523 184.996 63.6343 184.006L59.0363 173.38ZM69.7089 183.786C69.7089 187.02 71.4689 189.374 75.0989 189.374C78.7729 189.374 80.3569 187.02 80.3569 183.786V173.38H78.3109V183.786C78.3109 186.096 77.3649 187.614 75.0989 187.614C72.8769 187.614 71.7549 186.096 71.7549 183.786V173.38H69.7089V183.786ZM82.7135 175.14H87.6195V189H89.6875V175.14H94.5935V173.38H82.7135V175.14ZM97.808 173.38V189H107.092V187.24H99.854V181.85H106.564V180.134H99.854V175.14H106.938V173.38H97.808ZM116.137 189.374C119.855 189.374 121.395 187.086 121.395 184.886C121.395 181.872 119.415 180.948 117.325 180.398L115.323 179.87C114.003 179.496 112.925 178.616 112.925 177.23C112.925 176.064 113.585 174.722 115.873 174.722C117.545 174.722 119.129 175.492 119.327 177.956L121.285 177.384C120.977 174.194 118.667 173.006 115.807 173.006C112.771 173.006 110.835 175.096 110.835 177.406C110.835 179.826 112.485 181.146 114.685 181.74L116.775 182.29C118.007 182.62 119.305 183.104 119.305 185.172C119.305 187.152 117.589 187.658 116.115 187.658C113.739 187.658 112.683 185.986 112.331 184.116L110.351 184.512C110.725 187.086 112.375 189.374 116.137 189.374Z" fill="#FFFF8D"/>
</svg>
