<svg width="29" height="29" viewBox="0 0 29 29" fill="none" xmlns="http://www.w3.org/2000/svg">
<path fill-rule="evenodd" clip-rule="evenodd" d="M15.0578 3.76445H23.5279C24.0476 3.76445 24.469 4.18581 24.469 4.70557V23.5278C24.469 24.0476 24.0476 24.4689 23.5279 24.4689H4.70566C4.1859 24.4689 3.76455 24.0475 3.76455 23.5278V18.8222H13.1756V24.4689H15.0578V18.8222H24.4689V16.94H15.0578V11.2933H24.4689V9.41111H15.0578V3.76445ZM13.1756 9.41111V3.76445H4.70566C4.1859 3.76445 3.76455 4.18581 3.76455 4.70557V9.41111H13.1756ZM3.76455 11.2933V16.94H13.1756V11.2933H3.76455ZM1.88232 4.70557C1.88232 3.14628 3.14637 1.88223 4.70566 1.88223H23.5279C25.0872 1.88223 26.3512 3.14628 26.3512 4.70557V23.5278C26.3512 25.0871 25.0872 26.3511 23.5279 26.3511H4.70566C3.14638 26.3511 1.88232 25.0871 1.88232 23.5278V4.70557Z" fill="#F2F2F2"/>
</svg>
