<svg width="14" height="14" viewBox="0 0 14 14" fill="none" xmlns="http://www.w3.org/2000/svg">
<path fill-rule="evenodd" clip-rule="evenodd" d="M4.375 4.375H3.625C3.07272 4.375 2.625 4.82272 2.625 5.375V10.375C2.625 10.9273 3.07272 11.375 3.625 11.375H8.625C9.17728 11.375 9.625 10.9273 9.625 10.375V9.625H5.375C4.82272 9.625 4.375 9.17729 4.375 8.625V4.375Z" fill="white"/>
<path fill-rule="evenodd" clip-rule="evenodd" d="M1.75 7H1C0.447715 7 0 7.44772 0 8V13C0 13.5523 0.447715 14 1 14H6C6.55228 14 7 13.5523 7 13V12.25H2.75C2.19772 12.25 1.75 11.8023 1.75 11.25V7Z" fill="white"/>
<path fill-rule="evenodd" clip-rule="evenodd" d="M6.25 0C5.69772 0 5.25 0.447715 5.25 1V7.75C5.25 8.30229 5.69772 8.75 6.25 8.75H13C13.5523 8.75 14 8.30229 14 7.75V1C14 0.447715 13.5523 0 13 0H6.25ZM10.2083 1.45833C10.2083 1.13617 9.94717 0.875 9.625 0.875C9.30283 0.875 9.04167 1.13617 9.04167 1.45833V3.79167H6.70833C6.38617 3.79167 6.125 4.05283 6.125 4.375C6.125 4.69717 6.38617 4.95833 6.70833 4.95833H9.04167V7.29167C9.04167 7.61383 9.30283 7.875 9.625 7.875C9.94717 7.875 10.2083 7.61383 10.2083 7.29167V4.95833H12.5417C12.8638 4.95833 13.125 4.69717 13.125 4.375C13.125 4.05283 12.8638 3.79167 12.5417 3.79167H10.2083V1.45833Z" fill="white"/>
</svg>
