<svg width="16" height="16" viewBox="0 0 16 16" fill="none" xmlns="http://www.w3.org/2000/svg">
    <path
        d="M8.00001 3.99999C8.3682 3.99999 8.66667 3.70151 8.66667 3.33332C8.66667 2.96513 8.3682 2.66666 8.00001 2.66666C7.63182 2.66666 7.33334 2.96513 7.33334 3.33332C7.33334 3.70151 7.63182 3.99999 8.00001 3.99999Z"
        stroke="#EBECEC" stroke-linecap="round" stroke-linejoin="round" />
    <path
        d="M3.33334 3.99999C3.70153 3.99999 4.00001 3.70151 4.00001 3.33332C4.00001 2.96513 3.70153 2.66666 3.33334 2.66666C2.96515 2.66666 2.66667 2.96513 2.66667 3.33332C2.66667 3.70151 2.96515 3.99999 3.33334 3.99999Z"
        stroke="#EBECEC" stroke-linecap="round" stroke-linejoin="round" />
    <path
        d="M12.6667 8.66666C13.0349 8.66666 13.3333 8.36818 13.3333 7.99999C13.3333 7.6318 13.0349 7.33332 12.6667 7.33332C12.2985 7.33332 12 7.6318 12 7.99999C12 8.36818 12.2985 8.66666 12.6667 8.66666Z"
        stroke="#EBECEC" stroke-linecap="round" stroke-linejoin="round" />
    <path
        d="M3.33334 8.66666C3.70153 8.66666 4.00001 8.36818 4.00001 7.99999C4.00001 7.6318 3.70153 7.33332 3.33334 7.33332C2.96515 7.33332 2.66667 7.6318 2.66667 7.99999C2.66667 8.36818 2.96515 8.66666 3.33334 8.66666Z"
        stroke="#EBECEC" stroke-linecap="round" stroke-linejoin="round" />
    <path
        d="M8.00001 13.3333C8.3682 13.3333 8.66667 13.0348 8.66667 12.6667C8.66667 12.2985 8.3682 12 8.00001 12C7.63182 12 7.33334 12.2985 7.33334 12.6667C7.33334 13.0348 7.63182 13.3333 8.00001 13.3333Z"
        stroke="#EBECEC" stroke-linecap="round" stroke-linejoin="round" />
    <path
        d="M12.6667 13.3333C13.0349 13.3333 13.3333 13.0348 13.3333 12.6667C13.3333 12.2985 13.0349 12 12.6667 12C12.2985 12 12 12.2985 12 12.6667C12 13.0348 12.2985 13.3333 12.6667 13.3333Z"
        stroke="#EBECEC" stroke-linecap="round" stroke-linejoin="round" />
    <path d="M14.3333 1.33338L1 14.6667" stroke="#EBECEC" stroke-linecap="round"
        stroke-linejoin="round" />
</svg>