<svg width="32" height="32" viewBox="0 0 32 32" fill="none" xmlns="http://www.w3.org/2000/svg">
    <rect x="4" y="4" width="24" height="24" rx="4" fill="#545F64"/>
    <path d="M13 19L22 10M22 10L15.5714 10M22 10L22 16.4286" stroke="#F8F8F8" stroke-width="1.5" stroke-linecap="round" stroke-linejoin="round"/>
    <path fill-rule="evenodd" clip-rule="evenodd" d="M11 24C12.6569 24 14 22.6569 14 21C14 19.3431 12.6569 18 11 18C9.34315 18 8 19.3431 8 21C8 22.6569 9.34315 24 11 24ZM11 19C12.1046 19 13 19.8954 13 21C13 22.1046 12.1046 23 11 23C9.89543 23 9 22.1046 9 21C9 19.8954 9.89543 19 11 19Z" fill="#F8F8F8"/>
</svg>