<svg width="15" height="16" viewBox="0 0 15 16" fill="none" xmlns="http://www.w3.org/2000/svg">
    <path fill-rule="evenodd" clip-rule="evenodd"
        d="M3.00002 3.23889C3.00002 3.44692 2.76075 3.56395 2.59654 3.43622L1.00374 2.19738C0.875055 2.09729 0.875055 1.9028 1.00374 1.80271L2.59654 0.563867C2.76075 0.436145 3.00002 0.553168 3.00002 0.761205V1.50006H8.99997V0.761235C8.99997 0.553198 9.23924 0.436174 9.40346 0.563897L10.9963 1.80274C11.1249 1.90283 11.1249 2.09732 10.9963 2.19741L9.40346 3.43625C9.23924 3.56398 8.99997 3.44695 8.99997 3.23892V2.50006H3.00002V3.23889ZM9.4999 5.49992H2.4999C2.22376 5.49992 1.9999 5.72378 1.9999 5.99992V12.9999C1.9999 13.2761 2.22376 13.4999 2.4999 13.4999H9.4999C9.77604 13.4999 9.9999 13.2761 9.9999 12.9999V5.99992C9.9999 5.72378 9.77604 5.49992 9.4999 5.49992ZM2.4999 4.49992C1.67147 4.49992 0.999899 5.1715 0.999899 5.99992V12.9999C0.999899 13.8284 1.67147 14.4999 2.4999 14.4999H9.4999C10.3283 14.4999 10.9999 13.8284 10.9999 12.9999V5.99992C10.9999 5.1715 10.3283 4.49992 9.4999 4.49992H2.4999ZM14.7388 6.49995H13.9999V12.5H14.7388C14.9468 12.5 15.0638 12.7392 14.9361 12.9034L13.6973 14.4962C13.5972 14.6249 13.4027 14.6249 13.3026 14.4962L12.0638 12.9034C11.936 12.7392 12.0531 12.5 12.2611 12.5H12.9999V6.49995H12.2611C12.053 6.49995 11.936 6.26068 12.0637 6.09647L13.3026 4.50367C13.4027 4.37499 13.5972 4.37499 13.6972 4.50367L14.9361 6.09647C15.0638 6.26068 14.9468 6.49995 14.7388 6.49995Z"
        fill="white" />
</svg>