<svg width="15" height="16" viewBox="0 0 15 16" fill="none" xmlns="http://www.w3.org/2000/svg">
<path fill-rule="evenodd" clip-rule="evenodd" d="M2.85714 2.5H12.1429C12.6162 2.5 13 2.88376 13 3.35714V12.6429C13 13.1162 12.6162 13.5 12.1429 13.5H2.85714C2.38376 13.5 2 13.1162 2 12.6429V3.35714C2 2.88376 2.38376 2.5 2.85714 2.5ZM1 3.35714C1 2.33147 1.83147 1.5 2.85714 1.5H12.1429C13.1685 1.5 14 2.33147 14 3.35714V12.6429C14 13.6685 13.1685 14.5 12.1429 14.5H2.85714C1.83147 14.5 1 13.6685 1 12.6429V3.35714ZM7.49988 5.50012C7.77602 5.50012 7.99988 5.27626 7.99988 5.00012C7.99988 4.72398 7.77602 4.50012 7.49988 4.50012C7.22374 4.50012 6.99988 4.72398 6.99988 5.00012C6.99988 5.27626 7.22374 5.50012 7.49988 5.50012ZM4.49988 11.5001C4.77602 11.5001 4.99988 11.2763 4.99988 11.0001C4.99988 10.724 4.77602 10.5001 4.49988 10.5001C4.22374 10.5001 3.99988 10.724 3.99988 11.0001C3.99988 11.2763 4.22374 11.5001 4.49988 11.5001ZM4.99988 8.00012C4.99988 8.27626 4.77602 8.50012 4.49988 8.50012C4.22374 8.50012 3.99988 8.27626 3.99988 8.00012C3.99988 7.72398 4.22374 7.50012 4.49988 7.50012C4.77602 7.50012 4.99988 7.72398 4.99988 8.00012ZM4.49988 5.50012C4.77602 5.50012 4.99988 5.27626 4.99988 5.00012C4.99988 4.72398 4.77602 4.50012 4.49988 4.50012C4.22374 4.50012 3.99988 4.72398 3.99988 5.00012C3.99988 5.27626 4.22374 5.50012 4.49988 5.50012ZM10.9999 11.0001C10.9999 11.2763 10.776 11.5001 10.4999 11.5001C10.2237 11.5001 9.99988 11.2763 9.99988 11.0001C9.99988 10.724 10.2237 10.5001 10.4999 10.5001C10.776 10.5001 10.9999 10.724 10.9999 11.0001ZM10.4999 8.50012C10.776 8.50012 10.9999 8.27626 10.9999 8.00012C10.9999 7.72398 10.776 7.50012 10.4999 7.50012C10.2237 7.50012 9.99988 7.72398 9.99988 8.00012C9.99988 8.27626 10.2237 8.50012 10.4999 8.50012ZM10.9999 5.00012C10.9999 5.27626 10.776 5.50012 10.4999 5.50012C10.2237 5.50012 9.99988 5.27626 9.99988 5.00012C9.99988 4.72398 10.2237 4.50012 10.4999 4.50012C10.776 4.50012 10.9999 4.72398 10.9999 5.00012ZM7.49988 11.5001C7.77602 11.5001 7.99988 11.2763 7.99988 11.0001C7.99988 10.724 7.77602 10.5001 7.49988 10.5001C7.22374 10.5001 6.99988 10.724 6.99988 11.0001C6.99988 11.2763 7.22374 11.5001 7.49988 11.5001Z" fill="#F7F7F7"/>
</svg>
