<svg width="17" height="15" viewBox="0 0 17 15" fill="none" xmlns="http://www.w3.org/2000/svg">
<path d="M5.84615 12.375C5.26923 12.625 4.69231 13.125 4.46154 13.75L4 15L3.53846 13.75C3.30769 13.125 2.84615 12.5 2.15385 12.375L1 12L2.15385 11.625C2.73077 11.375 3.30769 10.875 3.53846 10.25L4 9L4.46154 10.25C4.69231 10.875 5.15385 11.5 5.84615 11.625L7 12L5.84615 12.375Z" fill="#F8F8F8"/>
<path d="M3.33333 2.32256C2.93333 2.45159 2.53333 2.8387 2.4 3.2258L2.13333 4L1.73333 3.2258C1.6 2.8387 1.2 2.45159 0.8 2.32256L0 1.93548L0.8 1.6774C1.2 1.54837 1.6 1.1613 1.73333 0.7742L2 0L2.26667 0.7742C2.4 1.1613 2.8 1.54837 3.2 1.6774L4 1.93548L3.33333 2.32256Z" fill="#F8F8F8"/>
<path d="M14.1647 7.4569C12.7104 7.96726 11.5205 8.98801 10.9916 10.3915L10.0661 12.9433C10.0661 12.9433 9.93389 13.0709 9.93389 12.9433L9.00839 10.3915C8.47954 8.98801 7.28961 7.83967 5.83526 7.4569L3.05876 6.5638C3.05876 6.5638 2.92655 6.4362 3.05876 6.4362L5.83526 5.54306C7.28961 5.0327 8.47954 4.01199 9.00839 2.6085L9.93389 0.0567066C9.93389 0.0567066 10.0661 -0.0708833 10.0661 0.0567066L10.9916 2.6085C11.5205 4.01199 12.7104 5.16029 14.1647 5.54306L16.9412 6.4362C16.9412 6.4362 17.0735 6.5638 16.9412 6.5638L14.1647 7.4569Z" fill="#F8F8F8"/>
</svg>
