<svg width="16" height="16" viewBox="0 0 16 16" fill="none" xmlns="http://www.w3.org/2000/svg">
    <path fill-rule="evenodd" clip-rule="evenodd" d="M3.75736 12.2435C6.1005 14.5867 9.8995 14.5867 12.2426 12.2435C14.5858 9.9004 14.5858 6.10141 12.2426 3.75827C9.89949 1.41512 6.10051 1.41512 3.75736 3.75827C1.41421 6.10141 1.41421 9.9004 3.75736 12.2435ZM12.2426 6.58669C12.6332 6.19617 12.6332 5.563 12.2426 5.17248C11.8521 4.78195 11.219 4.78195 10.8284 5.17248L7.29289 8.70801L5.17157 6.58669C4.78105 6.19617 4.14788 6.19617 3.75736 6.58669C3.36684 6.97722 3.36683 7.61038 3.75736 8.00091L6.58579 10.8293L7.29289 11.5364L8 10.8293L12.2426 6.58669Z" fill="#91BFDB"/>
</svg>