<svg width="16" height="16" viewBox="0 0 16 16" fill="none" xmlns="http://www.w3.org/2000/svg">
    <path fill-rule="evenodd" clip-rule="evenodd"
        d="M9.26345 0.0736489C9.47538 0.164334 9.59785 0.388153 9.55995 0.615533L8.59032 6.43333H13.3334C13.5228 6.43333 13.6959 6.54033 13.7806 6.70973C13.8653 6.87912 13.8471 7.08182 13.7334 7.23333L7.33342 15.7667C7.19511 15.9511 6.94865 16.017 6.73672 15.9263C6.52479 15.8357 6.40232 15.6118 6.44022 15.3845L7.40986 9.56667H2.66675C2.47736 9.56667 2.30423 9.45966 2.21954 9.29027C2.13484 9.12088 2.15312 8.91817 2.26675 8.76667L8.66675 0.233333C8.80506 0.0489202 9.05152 -0.0170357 9.26345 0.0736489ZM3.66675 8.56667H8.00008C8.14706 8.56667 8.28659 8.63133 8.3816 8.74348C8.4766 8.85562 8.51744 9.00389 8.49328 9.14886L7.76371 13.5263L12.3334 7.43333H8.00008C7.85311 7.43333 7.71358 7.36867 7.61858 7.25652C7.52357 7.14437 7.48273 6.99611 7.50689 6.85113L8.23646 2.47373L3.66675 8.56667Z"
        fill="#EBFF00" />
</svg>