<svg width="9" height="8" viewBox="0 0 9 8" fill="none" xmlns="http://www.w3.org/2000/svg">
<path d="M7.87424 0.259846C7.72074 0.10447 7.51237 0.0171558 7.29508 0.0171558C7.07779 0.0171558 6.86942 0.10447 6.71592 0.259846L4.27742 2.7235C4.2135 2.78788 4.11007 2.78788 4.04615 2.7235L1.607 0.259846C1.40235 0.04053 1.09584 -0.0489985 0.806926 0.0261503C0.518012 0.101299 0.292404 0.329235 0.218022 0.621129C0.14364 0.913023 0.232255 1.22269 0.449332 1.42945L2.88783 3.8931C2.91864 3.92415 2.93595 3.9663 2.93595 4.01026C2.93595 4.05422 2.91864 4.09638 2.88783 4.12742L0.449332 6.5924C0.129772 6.91568 0.129772 7.43938 0.449332 7.76267C0.771917 8.07911 1.28507 8.07911 1.60765 7.76267L4.04615 5.29901C4.07677 5.26793 4.11838 5.25045 4.16179 5.25045C4.20519 5.25045 4.2468 5.26793 4.27742 5.29901L6.71723 7.76134C7.04023 8.07675 7.55255 8.07675 7.87555 7.76134C8.19511 7.43806 8.19511 6.91436 7.87555 6.59107L5.43705 4.12742C5.40624 4.09638 5.38893 4.05422 5.38893 4.01026C5.38893 3.9663 5.40624 3.92415 5.43705 3.8931L7.87424 1.42945C8.02783 1.27439 8.11412 1.06402 8.11412 0.844649C8.11412 0.625281 8.02783 0.414906 7.87424 0.259846Z" fill="#BCBCBC"/>
</svg>
