<svg width="16" height="9" viewBox="0 0 16 9" fill="none" xmlns="http://www.w3.org/2000/svg">
<path d="M2.76779 1C2.76779 6.5 12.7678 6.5 12.7678 1" stroke="#FFFF8D" stroke-width="2" stroke-linecap="round"/>
<path d="M7.26782 6.5H8.26782V8C8.26782 8.27614 8.04396 8.5 7.76782 8.5C7.49168 8.5 7.26782 8.27614 7.26782 8V6.5Z" fill="#FFFF8D" stroke="#FFFF8D"/>
<path d="M10.1823 5.80483L11.0886 5.38221L11.7225 6.74168C11.8392 6.99195 11.7309 7.28944 11.4807 7.40614C11.2304 7.52284 10.9329 7.41456 10.8162 7.16429L10.1823 5.80483Z" fill="#FFFF8D" stroke="#FFFF8D"/>
<path d="M4.50967 5.38248L5.41597 5.8051L4.78205 7.16456C4.66534 7.41483 4.36785 7.52311 4.11758 7.40641C3.86731 7.2897 3.75904 6.99221 3.87574 6.74194L4.50967 5.38248Z" fill="#FFFF8D" stroke="#FFFF8D"/>
<path d="M12.7071 4.14648L13.4142 3.43938L14.4749 4.50004C14.6701 4.6953 14.6701 5.01188 14.4749 5.20714C14.2796 5.40241 13.963 5.40241 13.7678 5.20714L12.7071 4.14648Z" fill="#FFFF8D" stroke="#FFFF8D"/>
<path d="M2.12134 3.43928L2.82844 4.14639L1.76778 5.20705C1.57252 5.40231 1.25594 5.40231 1.06068 5.20705C0.865416 5.01179 0.865416 4.69521 1.06068 4.49994L2.12134 3.43928Z" fill="#FFFF8D" stroke="#FFFF8D"/>
</svg>
