<svg width="18" height="14" viewBox="0 0 18 14" fill="none" xmlns="http://www.w3.org/2000/svg">
    <path fill-rule="evenodd" clip-rule="evenodd" d="M12.2972 2.28847C12.6902 1.90035 13.3233 1.90423 13.7114 2.29714L17.7114 6.34653C17.8978 6.53522 18.0016 6.79023 18 7.05545C17.9983 7.32068 17.8914 7.57439 17.7027 7.76077L13.7027 11.7114C13.3098 12.0995 12.6766 12.0955 12.2885 11.7026C11.9004 11.3097 11.9044 10.6765 12.2973 10.2884L15.5858 7.04055L12.2886 3.70265C11.9004 3.30974 11.9043 2.67659 12.2972 2.28847Z" fill="#F8F8F8"/>
    <path fill-rule="evenodd" clip-rule="evenodd" d="M5.70276 11.7113C5.30984 12.0995 4.67669 12.0956 4.28857 11.7027L0.288568 7.65327C0.102177 7.46458 -0.00161837 7.20957 1.9084e-05 6.94434C0.00165654 6.67912 0.108592 6.42541 0.297299 6.23903L4.2973 2.28841C4.69024 1.90032 5.32339 1.90426 5.71148 2.2972C6.09958 2.69014 6.09564 3.32329 5.7027 3.71138L2.41424 6.95925L5.71143 10.2971C6.09955 10.6901 6.09567 11.3232 5.70276 11.7113Z" fill="#F8F8F8"/>
    <path d="M8.91009 0.902202C9.006 0.358308 9.52465 -0.00486019 10.0685 0.0910431C10.6124 0.186946 10.9756 0.705605 10.8797 1.2495L8.89563 12.5018C8.79973 13.0456 8.28107 13.4088 7.73718 13.3129C7.19328 13.217 6.83011 12.6984 6.92602 12.1545L8.91009 0.902202Z" fill="#F8F8F8"/>
</svg>