<svg width="16" height="16" viewBox="0 0 16 16" fill="none" xmlns="http://www.w3.org/2000/svg">
    <path fill-rule="evenodd" clip-rule="evenodd"
        d="M1.09998 10.2C1.09998 11.0285 1.77155 11.7 2.59998 11.7H4.26664V10.7H2.59998C2.32383 10.7 2.09998 10.4762 2.09998 10.2L2.09998 2.60004C2.09998 2.32389 2.32383 2.10004 2.59998 2.10004L10.2 2.10004C10.4761 2.10004 10.7 2.32389 10.7 2.60004V4.2667H11.7V2.60004C11.7 1.77161 11.0284 1.10004 10.2 1.10004L2.59998 1.10004C1.77155 1.10004 1.09998 1.77161 1.09998 2.60004L1.09998 10.2ZM5.79998 4.29999C4.97155 4.29999 4.29998 4.97157 4.29998 5.79999V13.4C4.29998 14.2284 4.97155 14.9 5.79998 14.9H13.4C14.2284 14.9 14.9 14.2284 14.9 13.4V5.79999C14.9 4.97157 14.2284 4.29999 13.4 4.29999H5.79998ZM5.29998 5.79999C5.29998 5.52385 5.52384 5.29999 5.79998 5.29999H13.4C13.6761 5.29999 13.9 5.52385 13.9 5.79999V13.4C13.9 13.6761 13.6761 13.9 13.4 13.9H5.79998C5.52384 13.9 5.29998 13.6761 5.29998 13.4V5.79999Z"
        fill="#F8F8F8" />
</svg>