<svg width="14" height="13" viewBox="0 0 14 13" fill="none" xmlns="http://www.w3.org/2000/svg">
    <path fill-rule="evenodd" clip-rule="evenodd" d="M7.29289 12.5638C6.90237 12.1489 6.90237 11.4761 7.29289 11.0612L11.5858 6.5L7.29289 1.9388C6.90237 1.5239 6.90237 0.8511 7.29289 0.436201C7.68342 0.0213005 8.31658 0.0213006 8.70711 0.436201L13.7071 5.7487C14.0976 6.16363 14.0976 6.83637 13.7071 7.2513L8.70711 12.5638C8.31658 12.9787 7.68342 12.9787 7.29289 12.5638Z" fill="#F8F8F8"/>
    <path fill-rule="evenodd" clip-rule="evenodd" d="M0.292899 12.5638C-0.0976008 12.1489 -0.0976008 11.4761 0.292899 11.0612L4.5858 6.5L0.2929 1.9388C-0.0975999 1.5239 -0.0975998 0.8511 0.2929 0.436201C0.6834 0.0213005 1.3166 0.0213006 1.7071 0.436201L6.70711 5.7487C7.09763 6.16363 7.09763 6.83637 6.70711 7.2513L1.7071 12.5638C1.3166 12.9787 0.683399 12.9787 0.292899 12.5638Z" fill="#F8F8F8"/>
</svg>