<svg width="16" height="17" viewBox="0 0 16 17" fill="none" xmlns="http://www.w3.org/2000/svg">
    <path fill-rule="evenodd" clip-rule="evenodd" d="M7.70711 2.4362C8.09763 2.85113 8.09763 3.52387 7.70711 3.9388L3.41421 8.5L7.70711 13.0612C8.09763 13.4761 8.09763 14.1489 7.70711 14.5638C7.31658 14.9787 6.68342 14.9787 6.29289 14.5638L1.29289 9.2513C0.902369 8.83637 0.902369 8.16363 1.29289 7.7487L6.29289 2.4362C6.68342 2.02127 7.31658 2.02127 7.70711 2.4362Z" fill="#F8F8F8"/>
    <path fill-rule="evenodd" clip-rule="evenodd" d="M14.7071 2.4362C15.0976 2.85113 15.0976 3.52387 14.7071 3.9388L10.4142 8.5L14.7071 13.0612C15.0976 13.4761 15.0976 14.1489 14.7071 14.5638C14.3166 14.9787 13.6834 14.9787 13.2929 14.5638L8.29289 9.2513C7.90237 8.83637 7.90237 8.16363 8.29289 7.7487L13.2929 2.4362C13.6834 2.02127 14.3166 2.02127 14.7071 2.4362Z" fill="#F8F8F8"/>
</svg>