<svg width="16" height="17" viewBox="0 0 16 17" fill="none" xmlns="http://www.w3.org/2000/svg">
<path d="M7.76837 16.7087C7.86108 16.786 7.99575 16.786 8.08846 16.7087L12.7664 12.8105C12.946 12.6608 12.8401 12.3684 12.6063 12.3684H10.6126V8C10.6126 7.44772 10.1649 7 9.61262 7H6.24421C5.69192 7 5.24421 7.44772 5.24421 8V12.3684H3.25051C3.01669 12.3684 2.91084 12.6608 3.09047 12.8105L7.76837 16.7087Z" fill="#F8F8F8"/>
<path d="M2 11V2H14V11H15C15.5523 11 16 10.5523 16 10V1C16 0.447715 15.5523 0 15 0H1C0.447715 0 0 0.447715 0 1V10C0 10.5523 0.447715 11 1 11H2Z" fill="#F8F8F8"/>
</svg>
