<svg width="16" height="16" viewBox="0 0 16 16" fill="none" xmlns="http://www.w3.org/2000/svg">
    <g clip-path="url(#clip0_89_6363)">
        <path
            d="M14.116 4.54138C14.4685 4.189 14.6665 3.71103 14.6666 3.21262C14.6666 2.71421 14.4687 2.23619 14.1163 1.88372C13.7639 1.53124 13.286 1.33319 12.7876 1.33313C12.2892 1.33307 11.8111 1.531 11.4587 1.88338L2.56133 10.7827C2.40654 10.9371 2.29207 11.1271 2.228 11.3361L1.34733 14.2374C1.3301 14.295 1.3288 14.3563 1.34356 14.4146C1.35833 14.473 1.38861 14.5262 1.43119 14.5687C1.47378 14.6112 1.52708 14.6414 1.58544 14.6561C1.64379 14.6708 1.70504 14.6694 1.76266 14.6521L4.66466 13.7721C4.87344 13.7086 5.06345 13.5948 5.218 13.4407L14.116 4.54138Z"
            stroke="#969696" stroke-linecap="round" stroke-linejoin="round" />
    </g>
    <defs>
        <clipPath id="clip0_89_6363">
            <rect width="16" height="16" fill="white" />
        </clipPath>
    </defs>
</svg>