<svg width="16" height="16" viewBox="0 0 16 16" fill="none" xmlns="http://www.w3.org/2000/svg">
<path fill-rule="evenodd" clip-rule="evenodd" d="M9.18677 3H3C1.89543 3 1 3.89543 1 5V13C1 14.1046 1.89543 15 3 15H11C12.1046 15 13 14.1046 13 13V7.3311L11.1331 9.1849C10.5105 9.80315 9.77005 10.2901 8.95571 10.6167L8.04467 10.9822C8.03077 10.9878 8.0168 10.9932 8.00277 10.9984C7.23727 11.2844 6.37605 11.1083 5.78422 10.5455C5.77288 10.5347 5.76167 10.5238 5.75061 10.5127C5.14963 9.91179 4.96449 9.01095 5.27903 8.22199L5.27997 8.21964L5.64494 7.3078C5.9711 6.49293 6.45765 5.7519 7.07571 5.12868L9.18677 3ZM11.699 3.12553C12.3726 3.37683 12.8744 3.98088 12.9796 4.71303L9.81397 7.85645C9.66421 8.00516 9.5049 8.14323 9.33725 8.26987L7.65397 7.43922L7.66985 7.41135C7.76672 7.24271 7.87402 7.08027 7.99111 6.92497C8.11786 6.75686 8.25609 6.59713 8.40501 6.44697L11.699 3.12553ZM7.65397 7.43922L7.59397 9.14584L7.34765 9.24465C7.25337 9.27987 7.14729 9.2582 7.07434 9.18883C7.00263 9.11713 6.98049 9.00955 7.01806 8.91532L7.38303 8.00349C7.46082 7.80913 7.55139 7.62065 7.65397 7.43922ZM9.33725 8.26987L7.5951 9.14538L8.25868 8.87919C8.45261 8.80139 8.64067 8.71087 8.8217 8.6084L8.85163 8.59131C9.02001 8.49435 9.1822 8.387 9.33725 8.26987Z" fill="#BEC0C2"/>
<path d="M11.7529 3.0711C11.8537 2.9763 12.0107 2.9763 12.1114 3.0711L13.1874 4.14789C13.2864 4.24697 13.2864 4.40758 13.1874 4.50665L9.81397 7.85645C9.36924 8.29805 8.84036 8.64584 8.25868 8.87919L7.34764 9.24465C7.25337 9.27987 7.14729 9.2582 7.07434 9.18883C7.00263 9.11713 6.98049 9.00955 7.01806 8.91532L7.38303 8.00349C7.616 7.42144 7.96354 6.89213 8.40501 6.44697L11.7529 3.0711Z" fill="#BEC0C2"/>
<path d="M14.9515 1.30729C14.523 0.897568 13.8482 0.897568 13.4197 1.30729L12.8449 1.88192C12.7392 1.98776 12.7392 2.15934 12.8449 2.26518L13.9933 3.41498C14.0991 3.52079 14.2705 3.52079 14.3763 3.41498L14.951 2.84035C15.3739 2.41697 15.3739 1.73067 14.951 1.30729H14.9515Z" fill="#BEC0C2"/>
</svg>
