<svg width="18" height="18" viewBox="0 0 18 18" fill="none" xmlns="http://www.w3.org/2000/svg">
<path fill-rule="evenodd" clip-rule="evenodd" d="M10.3351 3.375H3.125C2.02043 3.375 1.125 4.27043 1.125 5.375V14.875C1.125 15.9796 2.02043 16.875 3.125 16.875H12.625C13.7296 16.875 14.625 15.9796 14.625 14.875V8.24749L12.5247 10.333C11.8243 11.0285 10.9913 11.5763 10.0752 11.9438L9.05026 12.355C9.03462 12.3612 9.0189 12.3673 9.00312 12.3732C8.14193 12.6949 7.17305 12.4968 6.50725 11.8637C6.49449 11.8515 6.48188 11.8392 6.46943 11.8268C5.79333 11.1508 5.58505 10.1373 5.93891 9.24974L5.93997 9.24709L6.35056 8.22128C6.71749 7.30455 7.26486 6.47088 7.96018 5.76976L10.3351 3.375ZM13.214 3.46313C14.0026 3.70579 14.5833 4.423 14.6229 5.28146L11.0407 8.8385C10.8722 9.0058 10.693 9.16113 10.5044 9.30361L8.61071 8.36912L8.62858 8.33777C8.73756 8.14805 8.85827 7.9653 8.99 7.79059C9.1326 7.60147 9.2881 7.42177 9.45563 7.25284L13.214 3.46313ZM8.61071 8.36912L8.54322 10.2891L8.2661 10.4002C8.16005 10.4399 8.0407 10.4155 7.95864 10.3374C7.87795 10.2568 7.85305 10.1357 7.89532 10.0297L8.30591 9.00392C8.39343 8.78527 8.49532 8.57323 8.61071 8.36912ZM10.5044 9.30361L8.54449 10.2886L9.29101 9.98908C9.50918 9.90156 9.72075 9.79973 9.92441 9.68445L9.95809 9.66523C10.1475 9.55615 10.33 9.43537 10.5044 9.30361Z" fill="#F8F8F8"/>
<path d="M13.2221 3.45498C13.3354 3.34834 13.512 3.34834 13.6254 3.45498L14.8358 4.66638C14.9472 4.77784 14.9472 4.95852 14.8358 5.06999L10.9565 8.92215C10.5118 9.36375 9.98287 9.71154 9.40119 9.94489L8.2661 10.4002C8.16004 10.4399 8.0407 10.4155 7.95863 10.3374C7.87795 10.2568 7.85305 10.1357 7.89532 10.0297L8.35003 8.89368C8.58301 8.31163 8.93054 7.78231 9.37201 7.33716L13.2221 3.45498Z" fill="#F8F8F8"/>
<path d="M16.8205 1.47071C16.3383 1.00976 15.5792 1.00976 15.0971 1.47071L14.4505 2.11716C14.3316 2.23623 14.3316 2.42926 14.4505 2.54833L15.7425 3.84185C15.8614 3.96089 16.0543 3.96089 16.1733 3.84185L16.8199 3.19539C17.2957 2.71909 17.2957 1.94701 16.8199 1.47071H16.8205Z" fill="#F8F8F8"/>
</svg>
