<svg width="16" height="16" viewBox="0 0 16 16" fill="none" xmlns="http://www.w3.org/2000/svg">
    <path
        d="M8.0009 8.66665C8.36909 8.66665 8.66757 8.36818 8.66757 7.99999C8.66757 7.6318 8.36909 7.33332 8.0009 7.33332C7.63271 7.33332 7.33423 7.6318 7.33423 7.99999C7.33423 8.36818 7.63271 8.66665 8.0009 8.66665Z"
        stroke="#BCBCBC" stroke-linecap="round" stroke-linejoin="round" />
    <path
        d="M13.4676 13.4667C14.8276 12.1133 13.4809 8.55999 10.4676 5.53332C7.4409 2.51999 3.88757 1.17332 2.53423 2.53332C1.17423 3.88665 2.5209 7.43999 5.53423 10.4667C8.5609 13.48 12.1142 14.8267 13.4676 13.4667Z"
        stroke="#BCBCBC" stroke-linecap="round" stroke-linejoin="round" />
    <path
        d="M10.4676 10.4667C13.4809 7.43999 14.8276 3.88665 13.4676 2.53332C12.1142 1.17332 8.5609 2.51999 5.53423 5.53332C2.5209 8.55999 1.17423 12.1133 2.53423 13.4667C3.88757 14.8267 7.4409 13.48 10.4676 10.4667Z"
        stroke="#BCBCBC" stroke-linecap="round" stroke-linejoin="round" />
</svg>