<svg width="16" height="16" viewBox="0 0 16 16" fill="none" xmlns="http://www.w3.org/2000/svg">
    <path
        d="M6.86667 14H3.33333C2.97971 14 2.64057 13.8595 2.39052 13.6095C2.14048 13.3594 2 13.0203 2 12.6667V3.33333C2 2.97971 2.14048 2.64057 2.39052 2.39052C2.64057 2.14048 2.97971 2 3.33333 2H12.6667C13.0203 2 13.3594 2.14048 13.6095 2.39052C13.8595 2.64057 14 2.97971 14 3.33333V10L11.9333 7.93333C11.6825 7.68745 11.3447 7.55051 10.9934 7.55225C10.6421 7.554 10.3057 7.6943 10.0573 7.94267L4 14M9.33333 12.6667L11.3333 14.6667M11.3333 14.6667V11M11.3333 14.6667L13.3333 12.6667M7.33333 6C7.33333 6.73638 6.73638 7.33333 6 7.33333C5.26362 7.33333 4.66667 6.73638 4.66667 6C4.66667 5.26362 5.26362 4.66667 6 4.66667C6.73638 4.66667 7.33333 5.26362 7.33333 6Z"
        stroke="#EBECEC" stroke-linecap="round" stroke-linejoin="round" />
</svg>