<svg width="16" height="17" viewBox="0 0 16 17" fill="none" xmlns="http://www.w3.org/2000/svg">
    <path fill-rule="evenodd" clip-rule="evenodd"
        d="M2.94899 2.88376C2.79278 2.72755 2.53951 2.72755 2.3833 2.88376L0.24997 5.01709C0.0937604 5.1733 0.0937603 5.42657 0.24997 5.58278C0.40618 5.73899 0.659446 5.73899 0.815655 5.58278L2.26615 4.13229L2.26615 12.8676L0.815655 11.4171C0.659446 11.2609 0.406179 11.2609 0.24997 11.4171C0.0937601 11.5733 0.0937601 11.8266 0.24997 11.9828L2.3833 14.1161C2.53951 14.2723 2.79278 14.2723 2.94899 14.1161L5.08232 11.9828C5.23853 11.8266 5.23853 11.5733 5.08232 11.4171C4.92611 11.2609 4.67285 11.2609 4.51664 11.4171L3.06615 12.8676L3.06615 4.13229L4.51664 5.58278C4.67285 5.73899 4.92611 5.73899 5.08232 5.58278C5.23853 5.42657 5.23853 5.1733 5.08232 5.01709L2.94899 2.88376ZM11.2 3.46666C11.4107 3.46666 11.5989 3.5988 11.6704 3.79705L14.8704 12.6713C14.964 12.931 14.8294 13.2176 14.5696 13.3112C14.3098 13.4049 14.0233 13.2702 13.9296 13.0105L12.8761 10.0888L9.52391 10.0888L8.47035 13.0105C8.37668 13.2702 8.09016 13.4049 7.83039 13.3112C7.57062 13.2176 7.43597 12.931 7.52964 12.6713L10.7296 3.79705C10.8011 3.5988 10.9893 3.46666 11.2 3.46666ZM11.2 5.44065L12.5696 9.23876L9.83042 9.23876L11.2 5.44065Z"
        fill="#BCBCBC" />
</svg>