<svg width="16" height="16" viewBox="0 0 16 16" fill="none" xmlns="http://www.w3.org/2000/svg">
    <path d="M13.0195 10.0389H11.6976V5.96109H13.0195C14.663 5.96109 16 4.62401 16 2.98055C16 1.33708 14.663 1.97732e-08 13.0195 1.97732e-08C11.3761 1.97732e-08 10.0389 1.33708 10.0389 2.98055V4.3024H5.96109V2.98055C5.96109 1.33708 4.62401 0 2.98055 0C1.33708 0 0 1.33708 0 2.98055C0 4.62401 1.33708 5.96109 2.98055 5.96109H4.3024V10.0389H2.98055C1.33708 10.0389 0 11.3761 0 13.0195C0 14.663 1.33708 16 2.98055 16C4.62401 16 5.96109 14.663 5.96109 13.0195V11.6976H10.0389V13.0195C10.0389 14.663 11.3761 16 13.0195 16C14.663 16 16 14.663 16 13.0195C16 11.3761 14.663 10.0389 13.0195 10.0389ZM11.6976 2.98055C11.6976 2.25171 12.2906 1.65869 13.0195 1.65869C13.7483 1.65869 14.3413 2.25171 14.3413 2.98055C14.3413 3.70938 13.7483 4.3024 13.0195 4.3024H11.6976V2.98055ZM2.98055 4.3024C2.25171 4.3024 1.65869 3.70938 1.65869 2.98055C1.65869 2.25171 2.25171 1.65869 2.98055 1.65869C3.70938 1.65869 4.3024 2.25171 4.3024 2.98055V4.3024H2.98055ZM4.3024 13.0195C4.3024 13.7483 3.70938 14.3413 2.98055 14.3413C2.25171 14.3413 1.65869 13.7483 1.65869 13.0195C1.65869 12.2906 2.25171 11.6976 2.98055 11.6976H4.3024V13.0195ZM5.96109 10.0389V5.96109H10.0389V10.0389H5.96109ZM13.0195 14.3413C12.2906 14.3413 11.6976 13.7483 11.6976 13.0195V11.6976H13.0195C13.7483 11.6976 14.3413 12.2906 14.3413 13.0195C14.3413 13.7483 13.7483 14.3413 13.0195 14.3413Z" fill="white"/>
</svg>
