<svg width="16" height="16" viewBox="0 0 16 16" fill="none" xmlns="http://www.w3.org/2000/svg">
    <g opacity="0.8">
        <path
            d="M14 3.33331C14 4.43788 11.3137 5.33331 8 5.33331C4.68629 5.33331 2 4.43788 2 3.33331M14 3.33331C14 2.22874 11.3137 1.33331 8 1.33331C4.68629 1.33331 2 2.22874 2 3.33331M14 3.33331V5.33331M2 3.33331L2 12.6666C1.99629 12.9873 2.22387 13.3035 2.66355 13.5886C3.10324 13.8738 3.74215 14.1195 4.52642 14.3051C5.3107 14.4907 6.21734 14.6108 7.16994 14.6551C8.12254 14.6995 9.09316 14.6669 10 14.56M14 7.99998L12 11.3333H14.6667L12.6667 14.6666M2 7.99998C2.00096 8.31167 2.22046 8.61896 2.64097 8.89735C3.06148 9.17574 3.67137 9.41752 4.42198 9.60339C5.17258 9.78926 6.04312 9.91408 6.96414 9.96789C7.88516 10.0217 8.83116 10.003 9.72667 9.91331"
            stroke="#fff" stroke-linecap="round" stroke-linejoin="round" />
    </g>
</svg>