<svg width="16" height="16" viewBox="0 0 16 16" fill="none" xmlns="http://www.w3.org/2000/svg">
    <path fill-rule="evenodd" clip-rule="evenodd" d="M8 3C6.96254 3 6 3.92694 6 5.22581V7C6 7.55228 5.55228 8 5 8C4.44772 8 4 7.55228 4 7V5.22581C4 2.96154 5.72375 1 8 1C10.2762 1 12 2.96154 12 5.22581V7C12 7.55228 11.5523 8 11 8C10.4477 8 10 7.55228 10 7V5.22581C10 3.92694 9.03746 3 8 3Z" fill="#FFFF8D"/>
    <path fill-rule="evenodd" clip-rule="evenodd" d="M2 10C2 8.11438 2 7.17157 2.58579 6.58579C3.17157 6 4.11438 6 6 6H10C11.8856 6 12.8284 6 13.4142 6.58579C14 7.17157 14 8.11438 14 10V11C14 12.8856 14 13.8284 13.4142 14.4142C12.8284 15 11.8856 15 10 15H6C4.11438 15 3.17157 15 2.58579 14.4142C2 13.8284 2 12.8856 2 11V10Z" fill="#FFFF8D"/>
</svg>