<svg width="13" height="16" viewBox="0 0 13 16" fill="none" xmlns="http://www.w3.org/2000/svg">
    <path fill-rule="evenodd" clip-rule="evenodd" d="M12.2105 12.2097V10.9116L10.7159 9.64111V5.87544C10.7159 4.19646 9.16201 2.54471 7.57989 2.21175V1.14405C7.58931 -0.348729 4.64063 -0.413624 4.63063 1.14405V2.21175C3.04851 2.54471 1.49464 4.19646 1.49464 5.87544V9.64111L0 10.9116V12.2097H12.2105ZM7.90962 13.1208C8.03495 13.3835 8.10517 13.678 8.10517 13.9891C8.10517 15.0996 7.20976 16 6.10526 16C5.00076 16 4.10535 15.0996 4.10535 13.9891C4.10535 13.678 4.17557 13.3835 4.30091 13.1208H7.90962Z" fill="#BEC0C2"/>
</svg>