<svg width="16" height="17" viewBox="0 0 16 17" fill="none" xmlns="http://www.w3.org/2000/svg">
<path d="M2 14V2H14V14H12V16H15C15.5523 16 16 15.5523 16 15V1C16 0.447715 15.5523 0 15 0H1C0.447715 0 0 0.447715 0 1V15C0 15.5523 0.447715 16 1 16H4V14H2Z" fill="#F8F8F8"/>
<path d="M8.16005 7.29126C8.06734 7.214 7.93267 7.214 7.83995 7.29126L3.16205 11.1895C2.98242 11.3392 3.08828 11.6316 3.3221 11.6316H5.31579V16C5.31579 16.5523 5.76351 17 6.31579 17H9.68421C10.2365 17 10.6842 16.5523 10.6842 16V11.6316H12.6779C12.9117 11.6316 13.0176 11.3392 12.8379 11.1895L8.16005 7.29126Z" fill="#F8F8F8"/>
</svg>
