<svg width="14" height="14" viewBox="0 0 14 14" fill="none" xmlns="http://www.w3.org/2000/svg">
<path fill-rule="evenodd" clip-rule="evenodd" d="M2.33333 4C2.24493 4 2.16014 4.03512 2.09763 4.09763C2.03512 4.16014 2 4.24493 2 4.33333V11.6667C2 11.7551 2.03512 11.8399 2.09763 11.9024C2.16014 11.9649 2.24493 12 2.33333 12H9.66667C9.75507 12 9.83986 11.9649 9.90237 11.9024C9.96488 11.8399 10 11.7551 10 11.6667V8.66667C10 8.11438 10.4477 7.66667 11 7.66667C11.5523 7.66667 12 8.11438 12 8.66667V11.6667C12 12.2855 11.7542 12.879 11.3166 13.3166C10.879 13.7542 10.2855 14 9.66667 14H2.33333C1.7145 14 1.121 13.7542 0.683417 13.3166C0.245832 12.879 0 12.2855 0 11.6667V4.33333C0 3.7145 0.245832 3.121 0.683417 2.68342C1.121 2.24583 1.7145 2 2.33333 2H5.33333C5.88562 2 6.33333 2.44772 6.33333 3C6.33333 3.55228 5.88562 4 5.33333 4H2.33333Z" fill="#BCBCBC"/>
<path fill-rule="evenodd" clip-rule="evenodd" d="M8 1C8 0.447715 8.44772 0 9 0H13C13.5523 0 14 0.447715 14 1V5C14 5.55228 13.5523 6 13 6C12.4477 6 12 5.55228 12 5V2H9C8.44772 2 8 1.55228 8 1Z" fill="#BCBCBC"/>
<path fill-rule="evenodd" clip-rule="evenodd" d="M13.7071 0.292893C14.0977 0.683417 14.0977 1.31658 13.7071 1.70711L6.37379 9.04044C5.98327 9.43096 5.3501 9.43096 4.95958 9.04044C4.56906 8.64992 4.56906 8.01675 4.95958 7.62623L12.2929 0.292893C12.6834 -0.0976311 13.3166 -0.0976311 13.7071 0.292893Z" fill="#BCBCBC"/>
</svg>
