<svg width="16" height="16" viewBox="0 0 16 16" fill="none" xmlns="http://www.w3.org/2000/svg">
    <path
        d="M6.78603 5.66807L3.31565 9.13846C2.31408 10.14 1.59639 11.3896 1.23591 12.7594L0.810717 14.3751C0.680785 14.8689 1.13135 15.3194 1.62509 15.1895L3.24083 14.7643C4.61063 14.4038 5.86017 13.6861 6.86174 12.6846L10.3321 9.21417C10.5925 8.95382 10.5925 8.53171 10.3321 8.27136L7.72883 5.66807C7.46848 5.40772 7.04638 5.40772 6.78603 5.66807Z"
        fill="#FEFF91" />
    <path
        d="M10.2517 2.20205L9.85617 2.59758C9.59582 2.85793 9.59582 3.28004 9.85617 3.54039L12.4595 6.14368C12.7198 6.40403 13.1419 6.40403 13.4023 6.14368L13.7978 5.74815C14.5788 4.9671 14.5788 3.70076 13.7978 2.91971L13.0801 2.20205C12.2991 1.421 11.0327 1.421 10.2517 2.20205Z"
        fill="#FEFF91" />
</svg>