<svg width="20" height="14" viewBox="0 0 20 14" fill="none" xmlns="http://www.w3.org/2000/svg">
<path d="M17 7.14583C17 7 17 6.85417 17 6.85417C17 3.0625 14 0 10.4286 0C7.28571 0 4.57143 2.1875 4 5.39583C1.71429 5.54167 0 7.29167 0 9.625V9.77083C0 12.1042 1.85714 14 4.14286 14H16.7143C18.4286 14 20 12.5417 20 10.6458V10.5C20 8.75 18.7143 7.29167 17 7.14583ZM13.2857 7.58333C13 7.875 12.7143 7.875 12.5714 7.58333L10.5714 5.6875V10.7917C10.5714 11.0833 10.2857 11.375 10 11.375C9.71429 11.375 9.42857 11.0833 9.42857 10.7917V5.6875L7.57143 7.58333C7.42857 7.72917 7.28571 7.72917 7.14286 7.72917C7 7.72917 6.85714 7.72917 6.71429 7.58333C6.57143 7.4375 6.57143 7 6.71429 6.85417L9.57143 3.9375C9.85714 3.64583 10.1429 3.64583 10.2857 3.9375L13.1429 6.85417C13.4286 7 13.4286 7.29167 13.2857 7.58333Z" fill="#F8F8F8"/>
</svg>
