<svg width="19" height="16" viewBox="0 0 19 16" fill="none" xmlns="http://www.w3.org/2000/svg">
    <path d="M14.9873 4.05063C14.2177 4.05063 13.5291 4.29367 12.962 4.65823V4.4557C12.962 1.98481 10.9772 0 8.50633 0C6.03544 0 4.05063 1.98481 4.05063 4.4557C4.05063 4.61772 4.05063 4.82025 4.09114 4.98228C3.8076 4.90127 3.52405 4.86076 3.24051 4.86076C1.45823 4.86076 0 6.31899 0 8.10127C0 9.88354 1.45823 11.3418 3.24051 11.3418H3.64557C3.64557 8.22278 6.19747 5.67089 9.31646 5.67089C12.4354 5.67089 14.9873 8.22278 14.9873 11.3418C17.0127 11.3418 18.6329 9.72152 18.6329 7.6962C18.6329 5.67089 17.0127 4.05063 14.9873 4.05063Z" fill="white"/>
    <path d="M9.72152 13.9749V15.6762C10.1266 15.4736 10.5316 14.9471 10.8152 14.2179C10.4911 14.0964 10.0861 14.0154 9.72152 13.9749Z" fill="white"/>
    <path d="M9.72152 9.72152V10.9367H11.3418C11.3013 10.3696 11.2608 9.84304 11.1392 9.39747C10.6937 9.5595 10.2076 9.68102 9.72152 9.72152Z" fill="white"/>
    <path d="M9.72152 7.00783V8.91163C10.1266 8.87112 10.5316 8.79011 10.8962 8.62808C10.5722 7.77745 10.1671 7.21036 9.72152 7.00783Z" fill="white"/>
    <path d="M8.91139 13.1648V11.7471H7.29114C7.33165 12.3952 7.41266 12.9623 7.53418 13.4483C7.97975 13.3268 8.42532 13.2053 8.91139 13.1648Z" fill="white"/>
    <path d="M9.72152 11.7468V13.1646C10.2076 13.2051 10.6532 13.2861 11.0987 13.4481C11.2203 12.9215 11.3013 12.3544 11.3418 11.7468H9.72152Z" fill="white"/>
    <path d="M8.91139 10.9367V9.72152C8.42532 9.68102 7.93924 9.6 7.49367 9.39747C7.37215 9.84304 7.33165 10.3696 7.29114 10.9367H8.91139Z" fill="white"/>
    <path d="M7.8175 14.2175C8.10104 14.9871 8.5061 15.4732 8.91117 15.6757V13.9745C8.54661 14.015 8.14155 14.096 7.8175 14.2175Z" fill="white"/>
    <path d="M8.91138 8.91139V7.00759C8.46581 7.25063 8.06075 7.81772 7.7367 8.62784C8.10125 8.74936 8.50632 8.87088 8.91138 8.91139Z" fill="white"/>
    <path d="M11.5441 14.5823C11.301 15.1899 10.977 15.6759 10.6124 16C11.22 15.838 11.8276 15.5139 12.3137 15.1494C12.1112 14.9468 11.8276 14.7443 11.5441 14.5823Z" fill="white"/>
    <path d="M13.0023 8.18228C12.6377 8.50633 12.2732 8.78988 11.8681 9.03291C12.0301 9.6 12.1111 10.2481 12.1517 10.8962H14.177C14.0554 9.88355 13.6504 8.9519 13.0023 8.18228Z" fill="white"/>
    <path d="M12.1519 11.7468C12.1114 12.476 12.0304 13.1646 11.8279 13.8127C12.2329 14.0152 12.5975 14.2987 12.9215 14.6228C13.6101 13.8532 14.0557 12.881 14.1367 11.7873H12.1519V11.7468Z" fill="white"/>
    <path d="M7.08884 14.5823C6.8053 14.7443 6.56226 14.9468 6.31922 15.1494C6.8053 15.5544 7.37239 15.838 8.02049 16C7.61543 15.6759 7.33188 15.1899 7.08884 14.5823Z" fill="white"/>
    <path d="M10.6534 6.68377C11.0585 7.04833 11.3825 7.61542 11.6255 8.26352C11.9091 8.10149 12.1926 7.85846 12.4357 7.61542C11.9091 7.16985 11.3015 6.8458 10.6534 6.68377Z" fill="white"/>
    <path d="M7.00735 8.26329C7.25038 7.61519 7.61494 7.0481 7.9795 6.68354C7.29089 6.88608 6.6833 7.21013 6.15671 7.6557C6.44026 7.85823 6.7238 8.10127 7.00735 8.26329Z" fill="white"/>
    <path d="M5.71114 14.5823C6.03519 14.2582 6.39975 14.0152 6.80481 13.7722C6.64279 13.1646 6.52127 12.476 6.48076 11.7063H4.45545C4.57697 12.8405 5.02254 13.8127 5.71114 14.5823Z" fill="white"/>
    <path d="M4.49644 10.9367H6.52176C6.56226 10.2481 6.64328 9.6405 6.8053 9.07342C6.40024 8.83038 5.99517 8.54683 5.67112 8.22278C4.98252 8.9519 4.57745 9.88354 4.49644 10.9367Z" fill="white"/>
</svg>