<svg width="16" height="16" viewBox="0 0 16 16" fill="none" xmlns="http://www.w3.org/2000/svg">
<path fill-rule="evenodd" clip-rule="evenodd" d="M3.75736 12.2426C6.1005 14.5857 9.8995 14.5857 12.2426 12.2426C14.5858 9.89942 14.5858 6.10043 12.2426 3.75729C9.89949 1.41414 6.10051 1.41414 3.75736 3.75729C1.41421 6.10043 1.41421 9.89942 3.75736 12.2426ZM12.2426 6.58572C12.6332 6.19519 12.6332 5.56203 12.2426 5.1715C11.8521 4.78098 11.219 4.78098 10.8284 5.1715L7.29289 8.70704L5.17157 6.58572C4.78105 6.19519 4.14788 6.19519 3.75736 6.58572C3.36684 6.97624 3.36683 7.60941 3.75736 7.99993L6.58579 10.8284L7.29289 11.5355L8 10.8284L12.2426 6.58572Z" fill="#FFFF8D"/>
</svg>
