<svg width="16" height="16" viewBox="0 0 16 16" fill="none" xmlns="http://www.w3.org/2000/svg">
    <path fill-rule="evenodd" clip-rule="evenodd" d="M3.75736 12.2435C6.1005 14.5867 9.8995 14.5867 12.2426 12.2435C14.5858 9.9004 14.5858 6.10141 12.2426 3.75827C9.89949 1.41512 6.10051 1.41512 3.75736 3.75827C1.41421 6.10141 1.41421 9.9004 3.75736 12.2435ZM10.8284 6.58669C11.219 6.19617 11.219 5.563 10.8284 5.17248C10.4379 4.78195 9.80474 4.78195 9.41421 5.17248L8 6.58669L6.58579 5.17248C6.19526 4.78195 5.5621 4.78195 5.17157 5.17248C4.78105 5.563 4.78105 6.19617 5.17157 6.58669L6.58579 8.00091L5.17157 9.41512C4.78105 9.80564 4.78105 10.4388 5.17157 10.8293C5.5621 11.2199 6.19526 11.2199 6.58579 10.8293L8 9.41512L9.41421 10.8293C9.80474 11.2199 10.4379 11.2199 10.8284 10.8293C11.219 10.4388 11.219 9.80564 10.8284 9.41512L9.41421 8.00091L10.8284 6.58669Z" fill="#FC8D59"/>
</svg>