<svg width="16" height="16" viewBox="0 0 16 16" fill="none" xmlns="http://www.w3.org/2000/svg">
    <path fill-rule="evenodd" clip-rule="evenodd" d="M8.20589 2.083C9.77801 0.621211 12.2631 0.641402 13.8097 2.13031C15.3767 3.63888 15.3996 6.09489 13.8589 7.63062L13.8465 7.64278L12.0364 9.38538C12.0363 9.38542 12.0363 9.38546 12.0362 9.3855C11.2095 10.1816 10.0737 10.5856 8.92464 10.5064C7.77531 10.4272 6.70711 9.87071 6.00336 8.96495C5.6645 8.52883 5.74335 7.9006 6.17947 7.56175C6.61559 7.22289 7.24382 7.30174 7.58267 7.73786C7.92759 8.18178 8.46526 8.46998 9.06221 8.51114C9.65941 8.55231 10.238 8.34067 10.649 7.94481L10.6491 7.94469L12.4525 6.2086C13.1929 5.46471 13.1813 4.30152 12.4226 3.57113C11.6432 2.82078 10.3684 2.80803 9.57254 3.54326L8.54042 4.53112C8.14144 4.913 7.50843 4.89913 7.12655 4.50014C6.74467 4.10116 6.75854 3.46815 7.15753 3.08627L8.19538 2.09291L8.20589 2.083Z" fill="#FC8D59"/>
    <path fill-rule="evenodd" clip-rule="evenodd" d="M3.96358 6.15413C4.79028 5.35804 5.92617 4.95401 7.07519 5.03323C8.22452 5.11247 9.29272 5.66892 9.99647 6.57468C10.3353 7.0108 10.2565 7.63903 9.82036 7.97788C9.38424 8.31674 8.75601 8.23789 8.41715 7.80177C8.07224 7.35785 7.53457 7.06965 6.93762 7.02849C6.34042 6.98732 5.76186 7.19896 5.35081 7.59482L3.54736 9.33104C2.80689 10.0749 2.81855 11.2381 3.57722 11.9685C4.35632 12.7186 5.63042 12.7316 6.42634 11.9972L7.45127 11.0105C7.84914 10.6275 8.48219 10.6395 8.86523 11.0374C9.24827 11.4353 9.23624 12.0683 8.83837 12.4513L7.80655 13.4447L7.79394 13.4566C6.22182 14.9184 3.73669 14.8982 2.19012 13.4093C0.623131 11.9007 0.600262 9.44474 2.14095 7.90901L2.15337 7.89685L3.96358 6.15413C3.96363 6.15408 3.96354 6.15417 3.96358 6.15413Z" fill="#FC8D59"/>
</svg>