<svg width="16" height="16" viewBox="0 0 16 16" fill="none" xmlns="http://www.w3.org/2000/svg">
    <path
        d="M6.00008 9.33335L2.66675 6.00002M2.66675 6.00002L6.00008 2.66669M2.66675 6.00002H9.66675C10.1483 6.00002 10.6251 6.09486 11.0699 6.27913C11.5148 6.4634 11.919 6.73348 12.2595 7.07396C12.6 7.41444 12.87 7.81865 13.0543 8.26351C13.2386 8.70838 13.3334 9.18517 13.3334 9.66669C13.3334 10.1482 13.2386 10.625 13.0543 11.0699C12.87 11.5147 12.6 11.9189 12.2595 12.2594C11.919 12.5999 11.5148 12.87 11.0699 13.0542C10.6251 13.2385 10.1483 13.3334 9.66675 13.3334H7.33342"
        stroke="#BCBCBC" stroke-linecap="round" stroke-linejoin="round" />
</svg>