<svg width="15" height="12" viewBox="0 0 15 12" fill="none" xmlns="http://www.w3.org/2000/svg">
<path fill-rule="evenodd" clip-rule="evenodd" d="M1.5 0C0.671573 0 0 0.671573 0 1.5C0 2.32843 0.671573 3 1.5 3H10V2.99926C10.2627 2.99926 10.5229 3.05101 10.7657 3.15156C11.0084 3.2521 11.229 3.39948 11.4147 3.58526C11.6005 3.77105 11.7479 3.99161 11.8484 4.23435C11.949 4.47709 12.0007 4.73726 12.0007 5C12.0007 5.26274 11.949 5.52291 11.8484 5.76565C11.7479 6.00839 11.6005 6.22895 11.4147 6.41474C11.229 6.60052 11.0084 6.7479 10.7656 6.84844C10.5229 6.94899 10.2627 7.00074 10 7.00074L10 7H5V5L1 8.5L5 12V10H10C10.6566 10 11.3068 9.87067 11.9134 9.6194C12.52 9.36812 13.0712 8.99983 13.5355 8.53553C13.9998 8.07124 14.3681 7.52005 14.6194 6.91342C14.8707 6.30679 15 5.65661 15 5C15 4.34339 14.8707 3.69321 14.6194 3.08658C14.3681 2.47996 13.9998 1.92876 13.5355 1.46447C13.0712 1.00017 12.52 0.631876 11.9134 0.380602C11.3068 0.129329 10.6566 0 10 0H1.5Z" fill="#FFFF8D"/>
</svg>
