<svg width="15" height="16" viewBox="0 0 15 16" fill="none" xmlns="http://www.w3.org/2000/svg">
<path fill-rule="evenodd" clip-rule="evenodd" d="M11.4998 3.54981C11.7483 3.54981 11.9498 3.75128 11.9498 3.99981L11.9498 7.9998C11.9498 8.24833 11.7483 8.4498 11.4998 8.4498C11.2513 8.4498 11.0498 8.24833 11.0498 7.9998V5.0862L4.5862 11.5498L7.4998 11.5498C7.74833 11.5498 7.9498 11.7513 7.9498 11.9998C7.9498 12.2483 7.74833 12.4498 7.4998 12.4498H3.4998C3.38046 12.4498 3.266 12.4024 3.18161 12.318C3.09722 12.2336 3.0498 12.1192 3.0498 11.9998L3.04981 7.9998C3.04981 7.75128 3.25128 7.54981 3.49981 7.5498C3.74833 7.5498 3.94981 7.75128 3.94981 7.9998L3.9498 10.9134L10.4134 4.44981L7.4998 4.4498C7.25128 4.4498 7.0498 4.24833 7.0498 3.9998C7.0498 3.75128 7.25128 3.5498 7.4998 3.5498L11.4998 3.54981Z" fill="#F7F7F7"/>
</svg>
