<svg width="16" height="16" viewBox="0 0 16 16" fill="none" xmlns="http://www.w3.org/2000/svg">
    <path
        d="M3.65262 4.573C5.29115 4.573 6.14808 5.44406 6.14808 6.75771C6.14808 7.79827 5.41828 8.40095 5.01806 8.57516L6.28463 11H4.23646L3.19119 8.81529H2.58851V11H0.76635V4.573H3.65262ZM2.58851 7.55814H3.3654C3.84566 7.55814 4.23175 7.29918 4.23175 6.753C4.23175 6.1974 3.82683 5.91961 3.37011 5.91961H2.58851V7.55814ZM12.6001 8.12786C12.6001 9.9359 11.5454 11.113 9.61499 11.113C7.69395 11.113 6.62514 9.9359 6.62514 8.12786V7.46397C6.62514 5.6371 7.69395 4.4647 9.61499 4.4647C11.5454 4.4647 12.6001 5.65123 12.6001 7.46397V8.12786ZM10.6979 7.44043C10.6979 6.46579 10.2789 5.94786 9.61499 5.94786C8.9511 5.94786 8.53205 6.46579 8.53205 7.44043V8.13728C8.53205 9.11663 8.9511 9.62514 9.61499 9.62514C10.2789 9.62514 10.6979 9.11663 10.6979 8.13728V7.44043ZM15.2289 11H13.3691V4.573H15.2289V11Z"
        fill="#BCBCBC" />
</svg>