<svg width="16" height="17" viewBox="0 0 16 17" fill="none" xmlns="http://www.w3.org/2000/svg">
<path fill-rule="evenodd" clip-rule="evenodd" d="M2 5C1.44772 5 1 5.44772 1 6V14C1 14.5523 1.44772 15 2 15H14C14.5523 15 15 14.5523 15 14V7C15 5.89543 14.1046 5 13 5H2ZM8 14C10.2091 14 12 12.2091 12 10C12 7.79086 10.2091 6 8 6C5.79086 6 4 7.79086 4 10C4 12.2091 5.79086 14 8 14Z" fill="#F8F8F8"/>
<path fill-rule="evenodd" clip-rule="evenodd" d="M8.33333 8.33333C7.22876 8.33333 6.33333 9.22876 6.33333 10.3333C6.33333 10.7015 6.03486 11 5.66667 11C5.29848 11 5 10.7015 5 10.3333C5 8.49238 6.49238 7 8.33333 7C8.70152 7 9 7.29848 9 7.66667C9 8.03486 8.70152 8.33333 8.33333 8.33333Z" fill="#F8F8F8"/>
<rect x="7.5" width="1" height="2" rx="0.5" fill="#F8F8F8"/>
<rect x="4.43933" y="1.64648" width="1" height="2" rx="0.5" transform="rotate(-45 4.43933 1.64648)" fill="#F8F8F8"/>
<rect x="10.8535" y="0.939453" width="1" height="2" rx="0.5" transform="rotate(45 10.8535 0.939453)" fill="#F8F8F8"/>
</svg>
