<svg width="17" height="16" viewBox="0 0 17 16" fill="none" xmlns="http://www.w3.org/2000/svg">
<path fill-rule="evenodd" clip-rule="evenodd" d="M13.6318 11.0534L15.545 12.8553C16.0675 13.3475 16.0675 14.1453 15.545 14.6375C15.0187 15.121 14.179 15.121 13.6527 14.6375L11.7394 12.8362C8.80504 14.6838 4.86109 14.1337 2.62124 11.5645C0.381401 8.99525 0.576249 5.24488 3.07172 2.89386C5.5672 0.542843 9.54933 0.358013 12.2782 2.46655C15.007 4.57508 15.5925 8.28923 13.6318 11.0534ZM12.7822 7.46715C12.7822 4.94385 10.6102 2.89832 7.93091 2.89832C5.25285 2.90109 3.08259 4.945 3.07964 7.46715C3.07964 9.99045 5.25163 12.036 7.93091 12.036C10.6102 12.036 12.7822 9.99045 12.7822 7.46715Z" fill="#BCBCBC"/>
</svg>
