<svg width="20" height="20" viewBox="0 0 20 20" fill="none" xmlns="http://www.w3.org/2000/svg">
<path fill-rule="evenodd" clip-rule="evenodd" d="M16.454 13.4L18.7049 15.6524C19.3195 16.2676 19.3195 17.2649 18.7049 17.8801C18.0857 18.4845 17.0978 18.4845 16.4786 17.8801L14.2277 15.6285C10.7755 17.938 6.13555 17.2504 3.50044 14.0389C0.865333 10.8273 1.09457 6.13936 4.03042 3.20058C6.96627 0.261806 11.6511 0.0307679 14.8615 2.66644C18.0719 5.3021 18.7607 9.94479 16.454 13.4ZM15.4545 8.91719C15.4545 5.76307 12.8992 3.20615 9.7471 3.20615C6.59644 3.20962 4.04319 5.76451 4.03972 8.91719C4.03972 12.0713 6.595 14.6282 9.7471 14.6282C12.8992 14.6282 15.4545 12.0713 15.4545 8.91719Z" fill="#FFFF8D"/>
</svg>
