<svg width="15" height="15" viewBox="0 0 15 15" fill="none" xmlns="http://www.w3.org/2000/svg">
<path d="M14.541 9.29808L13.7147 8.63835C13.3475 8.35561 13.1639 7.88438 13.1639 7.50739C13.1639 7.03616 13.3475 6.65917 13.7147 6.37643L14.541 5.7167C14.7246 5.52821 14.8164 5.24547 14.7246 5.05698C14.4492 4.20876 13.8984 3.36054 13.2557 2.60657C13.0721 2.41807 12.7967 2.32383 12.5213 2.41807L11.5115 2.79506C11.1442 2.98355 10.6852 2.88931 10.318 2.70081L10.1344 2.60657C9.7672 2.41807 9.49179 2.04109 9.39998 1.6641L9.21637 0.627386C9.12457 0.344646 8.94096 0.156153 8.66555 0.156153C7.83932 -0.0323403 6.92128 -0.0323403 5.91144 0.0619063C5.72784 0.156153 5.45243 0.344646 5.45243 0.627386L5.26882 1.56985C5.17702 1.94684 4.90161 2.32383 4.62619 2.51232L4.44259 2.60657C4.07537 2.88931 3.61636 2.88931 3.24914 2.79506L2.2393 2.41807C1.96389 2.32383 1.68848 2.41807 1.50487 2.60657C0.862247 3.26629 0.403229 4.11451 0.036015 5.05698C-0.0557886 5.33972 0.036015 5.52821 0.219622 5.7167L1.04585 6.37643C1.41307 6.65917 1.59668 7.03616 1.59668 7.50739C1.59668 7.97862 1.41307 8.35561 1.04585 8.63835L0.219622 9.29808C0.036015 9.48657 -0.0557886 9.76931 0.036015 9.9578C0.311426 10.806 0.862247 11.6542 1.50487 12.4082C1.68848 12.5967 1.96389 12.691 2.2393 12.5967L3.24914 12.2197C3.61636 12.1255 4.07537 12.1255 4.44259 12.314L4.62619 12.4082C4.99341 12.5967 5.26882 12.9737 5.36062 13.3507L5.54423 14.3874C5.63603 14.6701 5.81964 14.8586 6.09505 14.8586C7.01309 15.0471 8.02293 15.0471 8.94096 14.8586C9.21637 14.7644 9.39998 14.5759 9.49179 14.3874L9.67539 13.3507C9.7672 12.9737 10.0426 12.5967 10.4098 12.4082L10.5934 12.314C10.9606 12.1255 11.4197 12.0312 11.7869 12.2197L12.7967 12.5967C13.0721 12.691 13.3475 12.5967 13.5311 12.4082C14.1738 11.6542 14.6328 10.9003 15 9.9578C14.8164 9.76931 14.7246 9.48657 14.541 9.29808ZM7.3803 10.0521C5.91144 10.0521 4.8098 8.92109 4.8098 7.50739C4.8098 6.09369 5.91144 4.96273 7.3803 4.96273C8.84916 4.96273 9.9508 6.09369 9.9508 7.50739C9.9508 8.92109 8.84916 10.0521 7.3803 10.0521Z" fill="#BEC0C2"/>
</svg>
