<svg width="16" height="16" viewBox="0 0 16 16" fill="none" xmlns="http://www.w3.org/2000/svg">
<path d="M15.041 9.79808L14.2147 9.13835C13.8475 8.85561 13.6639 8.38438 13.6639 8.00739C13.6639 7.53616 13.8475 7.15917 14.2147 6.87643L15.041 6.2167C15.2246 6.02821 15.3164 5.74547 15.2246 5.55698C14.9492 4.70876 14.3984 3.86054 13.7557 3.10657C13.5721 2.91807 13.2967 2.82383 13.0213 2.91807L12.0115 3.29506C11.6442 3.48355 11.1852 3.38931 10.818 3.20081L10.6344 3.10657C10.2672 2.91807 9.99179 2.54109 9.89998 2.1641L9.71637 1.12739C9.62457 0.844646 9.44096 0.656153 9.16555 0.656153C8.33932 0.46766 7.42128 0.46766 6.41144 0.561906C6.22784 0.656153 5.95243 0.844646 5.95243 1.12739L5.76882 2.06985C5.67702 2.44684 5.40161 2.82383 5.12619 3.01232L4.94259 3.10657C4.57537 3.38931 4.11636 3.38931 3.74914 3.29506L2.7393 2.91807C2.46389 2.82383 2.18848 2.91807 2.00487 3.10657C1.36225 3.76629 0.903229 4.61451 0.536015 5.55698C0.444211 5.83972 0.536015 6.02821 0.719622 6.2167L1.54585 6.87643C1.91307 7.15917 2.09668 7.53616 2.09668 8.00739C2.09668 8.47862 1.91307 8.85561 1.54585 9.13835L0.719622 9.79808C0.536015 9.98657 0.444211 10.2693 0.536015 10.4578C0.811426 11.306 1.36225 12.1542 2.00487 12.9082C2.18848 13.0967 2.46389 13.191 2.7393 13.0967L3.74914 12.7197C4.11636 12.6255 4.57537 12.6255 4.94259 12.814L5.12619 12.9082C5.49341 13.0967 5.76882 13.4737 5.86062 13.8507L6.04423 14.8874C6.13603 15.1701 6.31964 15.3586 6.59505 15.3586C7.51309 15.5471 8.52293 15.5471 9.44096 15.3586C9.71637 15.2644 9.89998 15.0759 9.99179 14.8874L10.1754 13.8507C10.2672 13.4737 10.5426 13.0967 10.9098 12.9082L11.0934 12.814C11.4606 12.6255 11.9197 12.5312 12.2869 12.7197L13.2967 13.0967C13.5721 13.191 13.8475 13.0967 14.0311 12.9082C14.6738 12.1542 15.1328 11.4003 15.5 10.4578C15.3164 10.2693 15.2246 9.98657 15.041 9.79808ZM7.8803 10.5521C6.41144 10.5521 5.3098 9.42109 5.3098 8.00739C5.3098 6.59369 6.41144 5.46273 7.8803 5.46273C9.34916 5.46273 10.4508 6.59369 10.4508 8.00739C10.4508 9.42109 9.34916 10.5521 7.8803 10.5521Z" fill="#F8F8F8"/>
</svg>
