<svg width="8" height="9" viewBox="0 0 8 9" fill="none" xmlns="http://www.w3.org/2000/svg">
<path d="M5.56388 8.79188C4.77934 8.35589 4.50317 7.37774 4.94704 6.60713C5.39091 5.83652 6.38674 5.56526 7.17128 6.00125C7.95582 6.43724 8.23199 7.41538 7.78812 8.186C7.34424 8.95661 6.34842 9.22787 5.56388 8.79188Z" fill="#BCBCBC"/>
<path d="M0.828719 6.16046C0.0441776 5.72447 -0.23199 4.74633 0.211883 3.97572C0.655755 3.20511 1.65158 2.93384 2.43612 3.36983C3.22066 3.80582 3.49683 4.78397 3.05296 5.55458C2.60909 6.32519 1.61326 6.59646 0.828719 6.16046Z" fill="#BCBCBC"/>
<path d="M6.16195 6.66837L5.62614 7.59858L1.83804 5.49343L2.37384 4.56322L6.16195 6.66837Z" fill="#BCBCBC"/>
<path d="M7.08589 2.92451C6.34301 3.426 5.32691 3.24102 4.81635 2.51134C4.30579 1.78166 4.49411 0.783598 5.23698 0.282103C5.97985 -0.219392 6.99596 -0.034412 7.50652 0.695268C8.01708 1.42495 7.82875 2.42301 7.08589 2.92451Z" fill="#BCBCBC"/>
<path d="M2.60229 5.9513C1.85942 6.45279 0.843319 6.26781 0.332758 5.53813C-0.177803 4.80845 0.0105217 3.81039 0.753392 3.30889C1.49626 2.8074 2.51237 2.99238 3.02293 3.72206C3.53349 4.45174 3.34517 5.4498 2.60229 5.9513Z" fill="#BCBCBC"/>
<path d="M5.40499 1.46555L6.02129 2.34635L2.43439 4.76779L1.81809 3.88698L5.40499 1.46555Z" fill="#BCBCBC"/>
</svg>
