<svg width="15" height="17" viewBox="0 0 15 17" fill="none" xmlns="http://www.w3.org/2000/svg">
<path d="M10.2269 16.4523C8.78481 15.6364 8.2772 13.806 9.09307 12.364C9.90895 10.9219 11.7394 10.4143 13.1814 11.2302C14.6235 12.046 15.1311 13.8765 14.3152 15.3185C13.4993 16.7606 11.6689 17.2682 10.2269 16.4523Z" fill="#FFFF8D"/>
<path d="M1.52325 11.5281C0.0812021 10.7122 -0.426416 8.88183 0.389458 7.43978C1.20533 5.99772 3.03574 5.4901 4.4778 6.30598C5.91985 7.12185 6.42747 8.95226 5.61159 10.3943C4.79572 11.8364 2.96531 12.344 1.52325 11.5281Z" fill="#FFFF8D"/>
<path d="M11.3262 12.4786L10.3413 14.2193L3.37847 10.2799L4.36332 8.53917L11.3262 12.4786Z" fill="#FFFF8D"/>
<path d="M13.0244 5.47264C11.659 6.41109 9.7913 6.06493 8.85285 4.69948C7.91439 3.33402 8.26055 1.46633 9.62601 0.527879C10.9915 -0.410574 12.8592 -0.0644183 13.7976 1.30104C14.7361 2.6665 14.3899 4.53418 13.0244 5.47264Z" fill="#FFFF8D"/>
<path d="M4.78323 11.1367C3.41778 12.0752 1.55009 11.729 0.611637 10.3635C-0.326816 8.99808 0.0193397 7.13039 1.3848 6.19194C2.75025 5.25349 4.61794 5.59964 5.55639 6.9651C6.49485 8.33056 6.14869 10.1982 4.78323 11.1367Z" fill="#FFFF8D"/>
<path d="M9.93481 2.74248L11.0676 4.39073L4.47461 8.92198L3.3418 7.27373L9.93481 2.74248Z" fill="#FFFF8D"/>
</svg>
