<svg width="15" height="17" viewBox="0 0 15 17" fill="none" xmlns="http://www.w3.org/2000/svg">
<path d="M10.2269 16.4523C8.78482 15.6365 8.2772 13.806 9.09307 12.364C9.90895 10.9219 11.7394 10.4143 13.1814 11.2302C14.6235 12.0461 15.1311 13.8765 14.3152 15.3185C13.4993 16.7606 11.6689 17.2682 10.2269 16.4523Z" fill="#F8F8F8"/>
<path d="M1.52326 11.5281C0.0812021 10.7123 -0.426416 8.88185 0.389458 7.4398C1.20533 5.99775 3.03574 5.49013 4.4778 6.306C5.91985 7.12188 6.42747 8.95229 5.61159 10.3943C4.79572 11.8364 2.96531 12.344 1.52326 11.5281Z" fill="#F8F8F8"/>
<path d="M11.3262 12.4786L10.3413 14.2193L3.37847 10.2799L4.36332 8.5392L11.3262 12.4786Z" fill="#F8F8F8"/>
<path d="M13.0244 5.47266C11.659 6.41111 9.7913 6.06496 8.85285 4.6995C7.9144 3.33404 8.26055 1.46635 9.62601 0.527902C10.9915 -0.410551 12.8592 -0.0643954 13.7976 1.30106C14.7361 2.66652 14.3899 4.53421 13.0244 5.47266Z" fill="#F8F8F8"/>
<path d="M4.78323 11.1367C3.41778 12.0752 1.55009 11.729 0.611637 10.3636C-0.326816 8.9981 0.0193397 7.13042 1.3848 6.19196C2.75025 5.25351 4.61794 5.59967 5.55639 6.96512C6.49485 8.33058 6.14869 10.1983 4.78323 11.1367Z" fill="#F8F8F8"/>
<path d="M9.93481 2.7425L11.0676 4.39075L4.47461 8.922L3.3418 7.27375L9.93481 2.7425Z" fill="#F8F8F8"/>
</svg>
