<svg width="14" height="12" viewBox="0 0 14 12" fill="none" xmlns="http://www.w3.org/2000/svg">
<path fill-rule="evenodd" clip-rule="evenodd" d="M7.16934 0.292893C7.53262 0.683417 7.53262 1.31658 7.16934 1.70711L3.17596 6L7.16935 10.2929C7.53262 10.6834 7.53262 11.3166 7.16935 11.7071C6.80607 12.0976 6.21708 12.0976 5.8538 11.7071L1.20263 6.70711C0.839356 6.31658 0.839356 5.68342 1.20263 5.29289L5.8538 0.292893C6.21708 -0.0976311 6.80607 -0.0976311 7.16934 0.292893Z" fill="#F8F8F8"/>
<path fill-rule="evenodd" clip-rule="evenodd" d="M13.6809 0.292893C14.0442 0.683417 14.0442 1.31658 13.6809 1.70711L9.68755 6L13.6809 10.2929C14.0442 10.6834 14.0442 11.3166 13.6809 11.7071C13.3177 12.0976 12.7287 12.0976 12.3654 11.7071L7.71423 6.70711C7.35095 6.31658 7.35095 5.68342 7.71423 5.29289L12.3654 0.292893C12.7287 -0.0976311 13.3177 -0.0976311 13.6809 0.292893Z" fill="#F8F8F8"/>
</svg>
