<svg width="14" height="14" viewBox="0 0 14 14" fill="none" xmlns="http://www.w3.org/2000/svg">
<path d="M10.15 0.5875C10.0375 0.475 9.925 0.3625 9.8125 0.25C9.7 0.25 9.475 0.25 9.25 0.25H4.75C4.525 0.25 4.3 0.25 4.3 0.25C4.1875 0.25 3.9625 0.475 3.85 0.5875L0.5875 3.85C0.475 3.9625 0.3625 4.075 0.3625 4.1875C0.25 4.3 0.25 4.525 0.25 4.75V9.25C0.25 9.475 0.25 9.5875 0.25 9.7C0.25 9.8125 0.475 10.0375 0.5875 10.15L3.85 13.4125C3.9625 13.525 4.075 13.6375 4.1875 13.75C4.3 13.75 4.525 13.75 4.75 13.75H9.25C9.475 13.75 9.5875 13.75 9.7 13.75C9.8125 13.75 10.0375 13.525 10.15 13.4125L13.4125 10.15C13.525 10.0375 13.6375 9.925 13.75 9.8125C13.75 9.7 13.8625 9.475 13.8625 9.25V4.75C13.8625 4.525 13.8625 4.4125 13.8625 4.3C13.8625 4.1875 13.6375 3.9625 13.525 3.85L10.15 0.5875Z" fill="#F8F8F8"/>
</svg>
