<svg width="16" height="16" viewBox="0 0 16 16" fill="none" xmlns="http://www.w3.org/2000/svg">
    <path fill-rule="evenodd" clip-rule="evenodd" d="M0.478591 8.3261C0.0880669 8.71662 0.088067 9.34979 0.478591 9.74031L6.13545 15.3972C6.52597 15.7877 7.15913 15.7877 7.54966 15.3972L15.2932 7.6536C15.535 7.41184 15.6365 7.06332 15.5623 6.72956L14.431 1.63848C14.334 1.20232 13.9595 0.883378 13.5135 0.857141L8.70506 0.574292C8.41991 0.557519 8.1412 0.663483 7.93923 0.86546L0.478591 8.3261ZM12.4994 6.20478C13.2805 5.42373 13.2805 4.1574 12.4994 3.37635C11.7184 2.5953 10.452 2.5953 9.67098 3.37635C8.88993 4.1574 8.88993 5.42373 9.67098 6.20478C10.452 6.98582 11.7184 6.98582 12.4994 6.20478Z" fill="white"/>
</svg>