<svg width="22" height="21" viewBox="0 0 22 21" fill="none" xmlns="http://www.w3.org/2000/svg">
<path d="M10.4493 0.241087C10.7462 -0.0803623 11.2541 -0.0803622 11.5511 0.241087L15.0334 4.01079C15.4771 4.49115 15.1364 5.2697 14.4825 5.2697H12.5002V8.6447H15.8752V6.6624C15.8752 6.00845 16.6537 5.66775 17.1341 6.11149L20.9038 9.59379C21.2252 9.89073 21.2252 10.3987 20.9038 10.6956L17.1341 14.1779C16.6537 14.6217 15.8752 14.281 15.8752 13.627V11.6447H12.5002V15.0197H14.4825C15.1364 15.0197 15.4771 15.7983 15.0334 16.2786L11.5511 20.0483C11.2541 20.3698 10.7462 20.3698 10.4493 20.0483L6.96696 16.2786C6.52322 15.7983 6.86392 15.0197 7.51787 15.0197H9.50017V11.6447H6.12517V13.627C6.12517 14.281 5.34662 14.6217 4.86626 14.1779L1.09656 10.6956C0.775106 10.3987 0.775107 9.89073 1.09656 9.59379L4.86626 6.11149C5.34662 5.66775 6.12517 6.00845 6.12517 6.6624V8.6447H9.50017V5.2697H7.51787C6.86392 5.2697 6.52322 4.49115 6.96695 4.01079L10.4493 0.241087Z" fill="#F8F8F8"/>
</svg>
