<svg width="16" height="17" viewBox="0 0 16 17" fill="none" xmlns="http://www.w3.org/2000/svg">
<path fill-rule="evenodd" clip-rule="evenodd" d="M0.26365 9.11801C0.517196 9.81885 0.937172 10.4247 1.48477 10.9247C1.30402 11.2483 1.20093 11.6218 1.20093 12.0195C1.20093 12.5639 1.39409 13.0628 1.71521 13.4508L0.194403 15.2743C-0.0688722 15.5899 -0.0279469 16.0606 0.285812 16.3254C0.59957 16.5903 1.06735 16.5491 1.33062 16.2335L3.01079 14.219C3.14524 14.2445 3.28396 14.2578 3.42578 14.2578C4.4759 14.2578 5.35609 13.5259 5.58981 12.5414C6.98211 12.6512 8.51192 12.4497 10.0292 11.8941C14.3018 10.3295 16.857 6.54997 15.7364 3.45223C14.6157 0.354487 10.2435 -0.8884 5.97082 0.676161C1.69815 2.24072 -0.857035 6.02027 0.26365 9.11801ZM13.6788 7.40886C14.5194 6.16551 14.6986 4.94662 14.3426 3.9626C13.9866 2.97858 13.0706 2.16071 11.6323 1.75184C10.1965 1.34369 8.35472 1.39123 6.47812 2.0784C4.60151 2.76557 3.16026 3.92021 2.32116 5.16137C1.48058 6.40473 1.30144 7.62362 1.65743 8.60764C1.83638 9.10229 2.15685 9.55496 2.61403 9.9348C2.86552 9.8356 3.13933 9.78113 3.42578 9.78113C4.29972 9.78113 5.05597 10.2881 5.41984 11.0256C6.65373 11.1707 8.07749 11.0207 9.52188 10.4918C11.3985 9.80466 12.8397 8.65003 13.6788 7.40886Z" fill="#F8F8F8"/>
</svg>
