<svg width="16" height="16" viewBox="0 0 16 16" fill="none" xmlns="http://www.w3.org/2000/svg">
    <path
        d="M6.66667 1.33331V2.66665M9.33334 1.33331V3.99998M12 7.99998V1.99998C12 1.82317 11.9298 1.6536 11.8047 1.52858C11.6797 1.40355 11.5101 1.33331 11.3333 1.33331H4.66667C4.48986 1.33331 4.32029 1.40355 4.19526 1.52858C4.07024 1.6536 4 1.82317 4 1.99998V7.99998M12 7.99998H4M12 7.99998C12.1768 7.99998 12.3464 8.07022 12.4714 8.19524C12.5964 8.32027 12.6667 8.48984 12.6667 8.66665V9.33331C12.6667 9.68694 12.5262 10.0261 12.2761 10.2761C12.0261 10.5262 11.687 10.6666 11.3333 10.6666H10C9.82319 10.6666 9.65362 10.7369 9.5286 10.8619C9.40357 10.9869 9.33334 11.1565 9.33334 11.3333V13.2666C9.33334 13.6203 9.19286 13.9594 8.94281 14.2095C8.69276 14.4595 8.35362 14.6 8 14.6C7.64638 14.6 7.30724 14.4595 7.05719 14.2095C6.80715 13.9594 6.66667 13.6203 6.66667 13.2666V11.3333C6.66667 11.1565 6.59643 10.9869 6.47141 10.8619C6.34638 10.7369 6.17681 10.6666 6 10.6666H4.66667C4.31305 10.6666 3.97391 10.5262 3.72386 10.2761C3.47381 10.0261 3.33334 9.68694 3.33334 9.33331V8.66665C3.33334 8.48984 3.40357 8.32027 3.5286 8.19524C3.65362 8.07022 3.82319 7.99998 4 7.99998"
        stroke="#EBECEC" stroke-linecap="round" stroke-linejoin="round" />
</svg>