<svg width="18" height="16" viewBox="0 0 18 16" fill="none" xmlns="http://www.w3.org/2000/svg">
<path d="M17 6.43733C17 6.43733 17 3.59312 17 1.77067L12.1997 6.43733C14.0743 6.43733 17 6.43733 17 6.43733ZM17 6.43733L13.2877 3.04608C12.1829 1.97385 10.7496 1.27972 9.20371 1.06828C7.65782 0.856838 6.08311 1.13954 4.71686 1.87378C3.35061 2.60803 2.26683 3.75404 1.62881 5.13915C0.990795 6.52426 0.833105 8.07343 1.1795 9.55324C1.5259 11.0331 2.35762 12.3633 3.54934 13.3437C4.74107 14.324 6.22824 14.9012 7.78678 14.9884C9.34531 15.0756 10.8908 14.6681 12.1903 13.8271C13.4899 12.9862 14.1996 12.0762 14.7996 10.9095" stroke="#F8F8F8" stroke-width="2" stroke-linecap="round" stroke-linejoin="round"/>
</svg>
