<svg width="20" height="20" viewBox="0 0 20 20" fill="none" xmlns="http://www.w3.org/2000/svg">
<path d="M15.2616 5.7551L19.0397 5.7538C19.5691 5.75361 19.9985 5.32427 19.9987 4.79483L20 0.958301C20.0002 0.428862 19.5711 -0.00018305 19.0417 5.85885e-08L15.2051 0.001328C14.6757 0.00151121 14.2464 0.430856 14.2462 0.960294L14.2449 4.73831L4.73824 14.2449L0.960298 14.2462C0.430857 14.2464 0.00151162 14.6757 0.00132825 15.2052L5.86311e-08 19.0417C-0.000183116 19.5711 0.428866 20.0002 0.958307 20L4.79485 19.9987C5.32429 19.9985 5.75364 19.5691 5.75382 19.0397L5.75513 15.2616L15.2616 5.7551Z" fill="#F8F8F8"/>
</svg>
