<svg width="16" height="16" viewBox="0 0 16 16" fill="none" xmlns="http://www.w3.org/2000/svg">
    <g clip-path="url(#clip0_85_1919)">
        <path
            d="M9 4.66665C9.18409 4.66665 9.33333 4.51741 9.33333 4.33331C9.33333 4.14922 9.18409 3.99998 9 3.99998C8.8159 3.99998 8.66667 4.14922 8.66667 4.33331C8.66667 4.51741 8.8159 4.66665 9 4.66665Z"
            stroke="#EBECEC" stroke-linecap="round" stroke-linejoin="round" />
        <path
            d="M11.6667 7.33331C11.8508 7.33331 12 7.18407 12 6.99998C12 6.81589 11.8508 6.66665 11.6667 6.66665C11.4826 6.66665 11.3333 6.81589 11.3333 6.99998C11.3333 7.18407 11.4826 7.33331 11.6667 7.33331Z"
            stroke="#EBECEC" stroke-linecap="round" stroke-linejoin="round" />
        <path
            d="M5.66667 5.33331C5.85076 5.33331 6 5.18407 6 4.99998C6 4.81588 5.85076 4.66665 5.66667 4.66665C5.48257 4.66665 5.33333 4.81588 5.33333 4.99998C5.33333 5.18407 5.48257 5.33331 5.66667 5.33331Z"
            stroke="#EBECEC" stroke-linecap="round" stroke-linejoin="round" />
        <path
            d="M4.33333 8.66665C4.51743 8.66665 4.66667 8.51741 4.66667 8.33331C4.66667 8.14922 4.51743 7.99998 4.33333 7.99998C4.14924 7.99998 4 8.14922 4 8.33331C4 8.51741 4.14924 8.66665 4.33333 8.66665Z"
            stroke="#EBECEC" stroke-linecap="round" stroke-linejoin="round" />
        <path
            d="M8 1.33331C4.33333 1.33331 1.33333 4.33331 1.33333 7.99998C1.33333 11.6666 4.33333 14.6666 8 14.6666C8.61733 14.6666 9.09867 14.1693 9.09867 13.5413C9.09867 13.25 8.97867 12.9846 8.80733 12.7913C8.614 12.5986 8.51533 12.3566 8.51533 12.0413C8.51281 11.8946 8.53984 11.7489 8.59483 11.6128C8.64982 11.4767 8.73163 11.3531 8.8354 11.2494C8.93917 11.1456 9.06276 11.0638 9.19882 11.0088C9.33487 10.9538 9.48061 10.9268 9.62733 10.9293H10.958C12.992 10.9293 14.6613 9.26065 14.6613 7.22665C14.6433 4.00798 11.6407 1.33331 8 1.33331Z"
            stroke="#EBECEC" stroke-linecap="round" stroke-linejoin="round" />
    </g>
    <defs>
        <clipPath id="clip0_85_1919">
            <rect width="16" height="16" fill="white" />
        </clipPath>
    </defs>
</svg>