<svg width="16" height="16" viewBox="0 0 16 16" fill="none" xmlns="http://www.w3.org/2000/svg">
	<path
		d="M2 10.5H2.14593C2.96374 10.5 3.69916 10.0021 4.00289 9.24278L4.43553 8.16118C4.95211 6.86973 6.59654 6.48689 7.63041 7.41737L8.63336 8.32002C9.5887 9.17983 11.0954 8.92825 11.7196 7.80472L12.5144 6.37416C12.8141 5.83462 13.3828 5.5 14 5.5V5.5"
		stroke="#EBECEC" stroke-linecap="round" />
	<path
		d="M6 10.3333V12.6667C6 13.403 6.59695 14 7.33333 14H9.66667C10.403 14 11 13.403 11 12.6667V11M6 4.66667V3.33333C6 2.59695 6.59695 2 7.33333 2H9.66667C10.403 2 11 2.59695 11 3.33333V5.5"
		stroke="#EBECEC" stroke-linecap="round" stroke-linejoin="round" />
</svg>