<svg width="19" height="19" viewBox="0 0 19 19" fill="none" xmlns="http://www.w3.org/2000/svg">
<path fill-rule="evenodd" clip-rule="evenodd" d="M8.75014 6.50032C10.2175 6.47938 11.6805 7.5185 12.5622 8.50154C12.8128 8.7847 12.8132 9.21341 12.5632 9.49709C11.6908 10.47 10.2488 11.5 8.79916 11.5H8.69645C7.2518 11.5 5.80915 10.47 4.93776 9.49743C4.68741 9.2139 4.68741 8.78507 4.93776 8.50154C5.81982 7.51884 7.28281 6.47904 8.75014 6.50032ZM8.74933 7.44623C7.90211 7.44623 7.2153 8.14196 7.2153 9.00019C7.2153 9.85841 7.90211 10.5541 8.74933 10.5541C9.59655 10.5541 10.2834 9.85841 10.2834 9.00019C10.2834 8.14196 9.59655 7.44623 8.74933 7.44623Z" fill="#F8F8F8"/>
<path fill-rule="evenodd" clip-rule="evenodd" d="M15.4539 13.4003L17.7048 15.6526C18.3194 16.2678 18.3194 17.2651 17.7048 17.8803C17.0856 18.4847 16.0977 18.4847 15.4785 17.8803L13.2276 15.6288C9.77538 17.9382 5.13543 17.2506 2.50032 14.0391C-0.134789 10.8276 0.094444 6.1396 3.0303 3.20083C5.96615 0.26205 10.651 0.0310121 13.8614 2.66668C17.0718 5.30235 17.7606 9.94503 15.4539 13.4003ZM14.4544 8.91744C14.4544 5.76331 11.8991 3.20639 8.74698 3.20639C5.59632 3.20986 3.04307 5.76475 3.0396 8.91744C3.0396 12.0716 5.59488 14.6285 8.74698 14.6285C11.8991 14.6285 14.4544 12.0716 14.4544 8.91744Z" fill="#F8F8F8"/>
</svg>
