<svg width="16" height="16" viewBox="0 0 16 16" fill="none" xmlns="http://www.w3.org/2000/svg">
    <path
        d="M4.28607 11.7339C4.04404 11.4867 3.7066 11.3333 3.33333 11.3333C2.59695 11.3333 2 11.9303 2 12.6667C2 13.403 2.59695 14 3.33333 14C4.06971 14 4.66667 13.403 4.66667 12.6667C4.66667 12.3036 4.52151 11.9743 4.28607 11.7339ZM4.28607 11.7339L11.78 4.32911M11.78 4.32911C12.0156 4.53908 12.3262 4.66667 12.6667 4.66667C13.403 4.66667 14 4.06971 14 3.33333C14 2.59695 13.403 2 12.6667 2C11.9303 2 11.3333 2.59695 11.3333 3.33333C11.3333 3.72928 11.5059 4.08491 11.78 4.32911Z"
        stroke="#EBECEC" stroke-linecap="round" stroke-linejoin="round" />
</svg>