<svg width="19" height="18" viewBox="0 0 19 18" fill="none" xmlns="http://www.w3.org/2000/svg">
<path fill-rule="evenodd" clip-rule="evenodd" d="M15.4539 12.5668L17.7048 14.8191C18.3194 15.4343 18.3194 16.4316 17.7048 17.0468C17.0856 17.6512 16.0977 17.6512 15.4785 17.0468L13.2276 14.7953C9.77538 17.1047 5.13543 16.4171 2.50032 13.2056C-0.13479 9.99406 0.094444 5.30611 3.0303 2.36733C5.96615 -0.571446 10.651 -0.802484 13.8614 1.83318C17.0718 4.46885 17.7606 9.11154 15.4539 12.5668ZM14.4544 8.08394C14.4544 4.92982 11.8991 2.37289 8.74698 2.37289C5.59632 2.37637 3.04307 4.93126 3.0396 8.08394C3.0396 11.2381 5.59488 13.795 8.74698 13.795C11.8991 13.795 14.4544 11.2381 14.4544 8.08394Z" fill="#F8F8F8"/>
</svg>
