<svg width="16" height="21" viewBox="0 0 16 21" fill="none" xmlns="http://www.w3.org/2000/svg">
<path d="M0.841705 8.91005C0.706012 8.74721 0.821801 8.5 1.03376 8.5H14.9662C15.1782 8.5 15.294 8.74721 15.1583 8.91005L13.075 11.41C13.0275 11.467 12.9571 11.5 12.8829 11.5H3.11709C3.0429 11.5 2.97254 11.467 2.92504 11.41L0.841705 8.91005Z" fill="#F8F8F8"/>
<path fill-rule="evenodd" clip-rule="evenodd" d="M6.5 11.5H9.5L10.6465 16.0859C10.8721 16.5072 11 16.9887 11 17.5C11 19.1569 9.65685 20.5 8 20.5C6.34315 20.5 5 19.1569 5 17.5C5 16.9887 5.12793 16.5072 5.35353 16.0859L6.5 11.5ZM8 19C8.82843 19 9.5 18.3284 9.5 17.5C9.5 16.6716 8.82843 16 8 16C7.17157 16 6.5 16.6716 6.5 17.5C6.5 18.3284 7.17157 19 8 19Z" fill="#F8F8F8"/>
<path d="M6.78585 0.25L6.875 5.5L6.96415 0.25H15.25C15.3881 0.25 15.5 0.361929 15.5 0.5V7.5C15.5 7.63807 15.3881 7.75 15.25 7.75H0.75C0.611929 7.75 0.5 7.63807 0.5 7.5V0.5C0.5 0.361929 0.611929 0.25 0.75 0.25H3.65849L3.875 7L4.09151 0.25H6.78585Z" fill="#F8F8F8"/>
</svg>
