<?xml version="1.0" encoding="utf-8"?>
<!-- Generator: Adobe Illustrator 25.2.1, SVG Export Plug-In . SVG Version: 6.00 Build 0)  -->
<svg version="1.1" id="Layer_2" xmlns="http://www.w3.org/2000/svg" xmlns:xlink="http://www.w3.org/1999/xlink" x="0px" y="0px"
	 viewBox="0 0 40 40" style="enable-background:new 0 0 40 40;" xml:space="preserve">
<style type="text/css">
	.st0{fill:#F8F8F8;}
</style>
<path class="st0" d="M14.9,13.4c3.4,0,5,2.4,6.4,4.3c0.4,0.6,0.8,1.2,1.2,1.6V0.6H8.3v17.5c0.1-0.1,0.1-0.2,0.2-0.3
	C9.9,15.8,11.5,13.4,14.9,13.4z"/>
<path class="st0" d="M18.7,24.8c-1.3-1.9-2.2-3.1-3.8-3.1c-1.6,0-2.5,1.2-3.8,3.1c-0.7,1.1-1.6,2.3-2.8,3.2v11.4h14.2V28.6
	C20.8,27.7,19.6,26.2,18.7,24.8z"/>
<path class="st0" d="M35.3,15.7c-3.4,0-5,2.6-6.4,4.8c-1.3,2.1-2.2,3.3-3.8,3.3c-1.1,0-1.8-0.6-2.6-1.6c-0.4-0.5-0.8-1.1-1.2-1.8
	c-1.3-2.1-3-4.8-6.4-4.8c-3.4,0-5,2.6-6.4,4.8c-0.1,0.1-0.1,0.2-0.2,0.3c-1.2,1.9-2.1,3-3.6,3c-0.8,0-1.5,0.7-1.5,1.5
	c0,0.8,0.7,1.5,1.5,1.5c1.5,0,2.6-0.5,3.6-1.3c1.2-1,2-2.3,2.8-3.5c1.3-2.1,2.2-3.3,3.8-3.3c1.6,0,2.5,1.3,3.8,3.3
	c0.9,1.5,2,3.2,3.8,4.1c0.7,0.4,1.6,0.7,2.6,0.7c3.4,0,5-2.6,6.4-4.8c1.3-2.1,2.2-3.3,3.8-3.3c0.8,0,1.5-0.7,1.5-1.5
	S36.1,15.7,35.3,15.7z"/>
</svg>
