<svg width="18" height="18" viewBox="0 0 18 18" fill="none" xmlns="http://www.w3.org/2000/svg">
<path fill-rule="evenodd" clip-rule="evenodd" d="M15.1967 2.65574C15.9344 3.39344 16.6721 4.42623 17.1148 5.45902C17.5574 6.63934 17.8525 7.81967 18 9.14754C18 10.1803 17.7049 10.7705 17.4098 11.3607C17.1148 11.9508 16.5246 12.2459 16.082 12.3934C15.0492 12.6885 13.8689 12.3934 13.2787 12.2459C12.3934 12.0984 11.3607 12.0984 10.7705 12.3934C10.4754 12.541 10.3279 12.6885 10.3279 12.8361C10.3279 12.9836 10.3279 13.2787 10.623 13.7213C10.9152 14.2084 11.2075 14.8241 11.3298 15.4411C11.4518 16.0558 11.3472 16.7282 10.9704 17.229C10.8789 17.3506 10.7664 17.4617 10.623 17.5574C10.1803 17.8525 9.59016 18 8.85246 18C3.54098 18 0.147541 13.5738 0 9C0 7.81967 0.295082 6.63934 0.737705 5.45902C1.18033 4.42623 1.77049 3.54098 2.65574 2.65574C3.39344 1.91803 4.42623 1.18033 5.45902 0.737705C6.4918 0.295082 7.52459 0 8.85246 0C10.1803 0 11.3607 0.295082 12.3934 0.737705C13.4262 1.18033 14.459 1.91803 15.1967 2.65574ZM3.50004 6.00001C2.60004 6.00001 2.00004 6.75001 2.00004 7.50001C2.00004 8.40001 2.60004 9.00001 3.50004 9.00001C4.40004 9.00001 5.00004 8.25001 5.00004 7.50001C5.00004 6.60001 4.25004 6.00001 3.50004 6.00001ZM4.50005 14C3.75005 14 3.00005 13.4 3.00005 12.5C3.00005 11.75 3.60005 11 4.50005 11C5.25005 11 6.00005 11.6 6.00005 12.5C6.00005 13.25 5.25005 14 4.50005 14ZM4.99995 3.5C4.99995 4.4 5.74995 5 6.49995 5C6.95239 5 7.35025 4.78164 7.62766 4.4108C8.02357 3.88152 8.09413 3.09644 7.68396 2.57813C7.3958 2.21401 6.94787 2 6.49995 2C5.59995 2 4.99995 2.75 4.99995 3.5ZM11.5 5C10.75 5 10 4.4 10 3.5C10 2.75 10.6 2 11.5 2C11.8849 2 12.2698 2.158 12.5533 2.43348C13.1201 2.98415 13.0079 3.97067 12.4635 4.54348C12.2027 4.81792 11.8695 5 11.5 5ZM13.0001 7.50001C13.0001 8.40001 13.7501 9.00001 14.5001 9.00001C14.9525 9.00001 15.3504 8.78165 15.6278 8.4108C16.0237 7.88153 16.1084 7.09834 15.7181 6.56491C15.4576 6.20884 15.031 6.00001 14.5001 6.00001C13.6001 6.00001 13.0001 6.75001 13.0001 7.50001Z" fill="#F8F8F8"/>
</svg>
