<svg width="16" height="16" viewBox="0 0 16 16" fill="none" xmlns="http://www.w3.org/2000/svg">
    <g clip-path="url(#clip0_85_1922)">
        <path
            d="M4.66667 14.6666C4.25268 14.3562 3.91667 13.9535 3.68525 13.4907C3.45382 13.0278 3.33334 12.5175 3.33334 12M3.33334 12C3.68696 12 4.0261 11.8595 4.27615 11.6095C4.52619 11.3594 4.66667 11.0203 4.66667 10.6666C4.66667 10.313 4.52619 9.97389 4.27615 9.72384C4.0261 9.47379 3.68696 9.33331 3.33334 9.33331C2.97971 9.33331 2.64058 9.47379 2.39053 9.72384C2.14048 9.97389 2 10.313 2 10.6666C2 11.0203 2.14048 11.3594 2.39053 11.6095C2.64058 11.8595 2.97971 12 3.33334 12ZM2.2 9.33331C1.63657 8.55835 1.33316 7.62479 1.33334 6.66665C1.33334 3.73331 4.33334 1.33331 8 1.33331C11.6667 1.33331 14.6667 3.73331 14.6667 6.66665C14.6667 9.59998 11.6667 12 8 12C6.85396 12.0191 5.71719 11.7918 4.66667 11.3333"
            stroke="#EBECEC" stroke-linecap="round" stroke-linejoin="round" />
    </g>
    <defs>
        <clipPath id="clip0_85_1922">
            <rect width="16" height="16" fill="white" />
        </clipPath>
    </defs>
</svg>