<svg width="18" height="18" viewBox="0 0 18 18" fill="none" xmlns="http://www.w3.org/2000/svg">
    <path fill-rule="evenodd" clip-rule="evenodd" d="M3.375 14.25C3.375 14.3495 3.41451 14.4448 3.48483 14.5152C3.55516 14.5855 3.65054 14.625 3.75 14.625L14.25 14.625C14.3495 14.625 14.4448 14.5855 14.5152 14.5152C14.5855 14.4448 14.625 14.3495 14.625 14.25L14.625 11.25C14.625 10.6287 15.1287 10.125 15.75 10.125C16.3713 10.125 16.875 10.6287 16.875 11.25L16.875 14.25C16.875 14.9462 16.5984 15.6139 16.1062 16.1062C15.6139 16.5984 14.9462 16.875 14.25 16.875L3.75 16.875C3.05381 16.875 2.38613 16.5984 1.89384 16.1062C1.40156 15.6139 1.125 14.9462 1.125 14.25L1.125 11.25C1.125 10.6287 1.62868 10.125 2.25 10.125C2.87132 10.125 3.375 10.6287 3.375 11.25L3.375 14.25Z" fill="#F8F8F8"/>
    <path fill-rule="evenodd" clip-rule="evenodd" d="M5.02839 4.62213C4.78708 4.86344 4.71489 5.22635 4.84549 5.54164C4.97608 5.85693 5.28374 6.0625 5.62501 6.0625L7.00003 6.0625L7.00003 11.0937C7.00003 11.646 7.44775 12.0937 8.00003 12.0937L10 12.0937C10.5523 12.0937 11 11.646 11 11.0937L11 6.0625L12.375 6.0625C12.7163 6.0625 13.0239 5.85693 13.1545 5.54164C13.2851 5.22635 13.2129 4.86344 12.9716 4.62213L9.59663 1.24713C9.4384 1.08889 9.22379 0.999999 9.00001 0.999999C8.77623 0.999999 8.56162 1.08889 8.40339 1.24713L5.02839 4.62213Z" fill="#F8F8F8"/>
</svg>