<svg width="16" height="16" viewBox="0 0 16 16" fill="none" xmlns="http://www.w3.org/2000/svg">
    <!-- <rect width="16" height="16" fill="#EBECEC"/> -->
    <path fill-rule="evenodd" clip-rule="evenodd" d="M1.43393 12.5714C2.87958 11.017 5.28143 10 8 10C10.7186 10 13.1204 11.017 14.5661 12.5714C15.4699 11.2756 16 9.69971 16 8C16 3.58172 12.4183 0 8 0C3.58172 0 0 3.58172 0 8C0 9.69971 0.530074 11.2756 1.43393 12.5714ZM11 6C11 7.65685 9.65685 9 8 9C6.34315 9 5 7.65685 5 6C5 4.34315 6.34315 3 8 3C9.65685 3 11 4.34315 11 6Z" fill="#969696"/>
</svg>