<svg width="16" height="16" viewBox="0 0 16 16" fill="none" xmlns="http://www.w3.org/2000/svg">
    <g clip-path="url(#clip0_85_1862)">
        <path
            d="M1.33333 8C1.33301 8.12752 1.36927 8.25244 1.43781 8.35997C1.50634 8.4675 1.60428 8.55312 1.72 8.60667L7.45333 11.2133C7.62613 11.2916 7.81364 11.3321 8.00333 11.3321C8.19302 11.3321 8.38053 11.2916 8.55333 11.2133L14.2733 8.61334C14.3913 8.5603 14.4914 8.47407 14.5612 8.36516C14.631 8.25625 14.6677 8.12938 14.6667 8M1.33333 11.3333C1.33301 11.4608 1.36927 11.5858 1.43781 11.6933C1.50634 11.8008 1.60428 11.8864 1.72 11.94L7.45333 14.5467C7.62613 14.6249 7.81364 14.6654 8.00333 14.6654C8.19302 14.6654 8.38053 14.6249 8.55333 14.5467L14.2733 11.9467C14.3913 11.8936 14.4914 11.8074 14.5612 11.6985C14.631 11.5896 14.6677 11.4627 14.6667 11.3333M8.55333 1.45334C8.37962 1.3741 8.19092 1.3331 8 1.3331C7.80907 1.3331 7.62037 1.3741 7.44666 1.45334L1.73333 4.05334C1.61503 4.1055 1.51445 4.19094 1.44384 4.29924C1.37323 4.40755 1.33563 4.53405 1.33563 4.66334C1.33563 4.79263 1.37323 4.91913 1.44384 5.02743C1.51445 5.13574 1.61503 5.22117 1.73333 5.27334L7.45333 7.88C7.62704 7.95924 7.81574 8.00024 8.00666 8.00024C8.19759 8.00024 8.38629 7.95924 8.56 7.88L14.28 5.28C14.3983 5.22784 14.4989 5.14241 14.5695 5.0341C14.6401 4.92579 14.6777 4.79929 14.6777 4.67C14.6777 4.54071 14.6401 4.41421 14.5695 4.30591C14.4989 4.1976 14.3983 4.11217 14.28 4.06L8.55333 1.45334Z"
            stroke="#EBECEC" stroke-linecap="round" stroke-linejoin="round" />
    </g>
    <defs>
        <clipPath id="clip0_85_1862">
            <rect width="16" height="16" fill="white" />
        </clipPath>
    </defs>
</svg>