<svg width="16" height="16" viewBox="0 0 16 16" fill="none" xmlns="http://www.w3.org/2000/svg">
<path fill-rule="evenodd" clip-rule="evenodd" d="M8.00028 3.00064C10.9349 2.95875 13.8609 5.037 15.6244 7.00309C16.1255 7.56941 16.1264 8.42683 15.6264 8.99418C13.8816 10.94 10.9976 13 8.09832 13H7.8929C5.0036 13 2.1183 10.94 0.375514 8.99485C-0.125171 8.4278 -0.125171 7.57014 0.375514 7.00309C2.13964 5.03767 5.06563 2.95808 8.00028 3.00064ZM7.99866 4.89246C6.30422 4.89246 4.93061 6.28392 4.93061 8.00037C4.93061 9.71682 6.30422 11.1083 7.99866 11.1083C9.69309 11.1083 11.0667 9.71682 11.0667 8.00037C11.0667 6.28392 9.69309 4.89246 7.99866 4.89246Z" fill="#FFFF8D"/>
<path d="M7.99867 9.3517C8.73538 9.3517 9.3326 8.74672 9.3326 8.00043C9.3326 7.25415 8.73538 6.64917 7.99867 6.64917C7.26196 6.64917 6.66473 7.25415 6.66473 8.00043C6.66473 8.74672 7.26196 9.3517 7.99867 9.3517Z" fill="#FFFF8D"/>
</svg>
