<svg width="18" height="18" viewBox="0 0 18 18" fill="none" xmlns="http://www.w3.org/2000/svg">
<path d="M0.5 2C0.5 1.17157 1.17157 0.5 2 0.5H16C16.8284 0.5 17.5 1.17157 17.5 2V16C17.5 16.8284 16.8284 17.5 16 17.5H2C1.17157 17.5 0.5 16.8284 0.5 16V2Z" stroke="#F8F8F8"/>
<path d="M6 11C6 10.4477 6.44772 10 7 10H11C11.5523 10 12 10.4477 12 11V15C12 15.5523 11.5523 16 11 16H7C6.44772 16 6 15.5523 6 15V11Z" fill="#F8F8F8"/>
<path d="M5.55236 4.06359L2.82031 3.33154L2.08826 6.06359L2.95428 5.56359L4.70428 8.59468C4.84235 8.83383 5.14815 8.91577 5.3873 8.7777L6.25332 8.2777C6.49247 8.13962 6.5744 7.83383 6.43633 7.59468L4.68633 4.56359L5.55236 4.06359Z" fill="#F8F8F8"/>
<path d="M15.7739 6.02014L15.0419 3.28809L12.3098 4.02014L13.1758 4.52014L11.4258 7.55123C11.2878 7.79037 11.3697 8.09617 11.6089 8.23424L12.4749 8.73424C12.714 8.87231 13.0198 8.79037 13.1579 8.55123L14.9079 5.52014L15.7739 6.02014Z" fill="#F8F8F8"/>
</svg>
