<svg width="16" height="16" viewBox="0 0 18 17" fill="none" xmlns="http://www.w3.org/2000/svg">
    <path
        d="M2.3395 5.00044V0.636807H1.36152L0.285522 1.30584V2.21777L1.26137 1.62118H1.28694V5.00044H2.3395Z"
        fill="#EBECEC" />
    <path fill-rule="evenodd" clip-rule="evenodd"
        d="M4.12448 4.83638C4.40005 5.01678 4.72817 5.10698 5.10885 5.10698C5.49096 5.10698 5.81908 5.01749 6.09323 4.83851C6.3688 4.65811 6.58115 4.39746 6.7303 4.05655C6.87945 3.71564 6.95402 3.30513 6.95402 2.82502C6.95544 2.34774 6.88158 1.94149 6.73243 1.60627C6.58329 1.27104 6.37022 1.01607 6.09323 0.841353C5.81766 0.665217 5.48954 0.577148 5.10885 0.577148C4.72817 0.577148 4.40005 0.665217 4.12448 0.841353C3.85033 1.01607 3.63868 1.27104 3.48954 1.60627C3.34181 1.94007 3.26723 2.34632 3.26581 2.82502C3.26439 3.30371 3.33826 3.71351 3.4874 4.05442C3.63655 4.39391 3.84891 4.65456 4.12448 4.83638ZM5.6607 3.89675C5.52007 4.12828 5.33613 4.24405 5.10885 4.24405C4.95829 4.24405 4.82547 4.19292 4.71042 4.09064C4.59536 3.98695 4.50587 3.82999 4.44195 3.61976C4.37945 3.40953 4.34891 3.14462 4.35033 2.82502C4.35175 2.35343 4.42206 2.004 4.56127 1.77672C4.70047 1.54803 4.883 1.43368 5.10885 1.43368C5.26084 1.43368 5.39365 1.48411 5.50729 1.58496C5.62093 1.68581 5.70971 1.83922 5.77363 2.04519C5.83755 2.24973 5.86951 2.50968 5.86951 2.82502C5.87093 3.30655 5.80132 3.6638 5.6607 3.89675Z"
        fill="#EBECEC" />
    <path
        d="M8.33364 4.88965C8.59074 5.00328 8.88549 5.0601 9.21787 5.0601C9.55878 5.0601 9.86063 5.00471 10.1234 4.89391C10.3876 4.78169 10.5936 4.62828 10.7413 4.43368C10.8905 4.23766 10.965 4.01323 10.965 3.76039C10.9665 3.49192 10.8805 3.2682 10.7072 3.08922C10.5353 2.91024 10.2804 2.80087 9.94231 2.7611V2.72701C10.1951 2.69007 10.4018 2.59206 10.5623 2.43297C10.7243 2.27388 10.8045 2.07147 10.8031 1.82573C10.8031 1.58851 10.737 1.37615 10.6049 1.18865C10.4728 0.999734 10.2882 0.850586 10.051 0.741211C9.81375 0.631836 9.5389 0.577148 9.2264 0.577148C8.91248 0.577148 8.63265 0.633256 8.38691 0.745472C8.14259 0.857688 7.94941 1.01323 7.80736 1.21209C7.66532 1.40953 7.59287 1.63823 7.59003 1.89817H8.59785C8.60069 1.79874 8.6298 1.71138 8.6852 1.6361C8.7406 1.56081 8.81517 1.50257 8.90892 1.46138C9.0041 1.42019 9.10992 1.39959 9.2264 1.39959C9.33719 1.39959 9.43449 1.42019 9.5183 1.46138C9.60353 1.50257 9.66958 1.56081 9.71645 1.6361C9.76475 1.70996 9.78819 1.7959 9.78677 1.89391C9.78819 1.99476 9.7612 2.08425 9.7058 2.16238C9.6504 2.23908 9.57299 2.29874 9.47356 2.34135C9.37554 2.38397 9.26191 2.40527 9.13265 2.40527H8.70864V3.15527H9.13265C9.28037 3.15527 9.40821 3.17729 9.51617 3.22132C9.62554 3.26536 9.71006 3.32715 9.76972 3.40669C9.82938 3.48624 9.8585 3.57715 9.85708 3.67942C9.8585 3.78169 9.83222 3.8726 9.77824 3.95215C9.72427 4.03027 9.64898 4.09206 9.55239 4.13752C9.45722 4.18155 9.34713 4.20357 9.22213 4.20357C9.09713 4.20357 8.98563 4.18297 8.88762 4.14178C8.78961 4.10059 8.71219 4.04377 8.65537 3.97132C8.59855 3.89746 8.56802 3.81294 8.56375 3.71777H7.50267C7.50552 3.98056 7.5808 4.2128 7.72853 4.41451C7.87625 4.61621 8.07796 4.77459 8.33364 4.88965Z"
        fill="#EBECEC" />
    <path fill-rule="evenodd" clip-rule="evenodd"
        d="M0.770608 6.81863V17.0004H3.23155V13.5154H4.49201L6.3537 17.0004H9.03836L6.92779 13.1269C7.48858 12.8686 7.92199 12.4959 8.22799 12.009C8.53623 11.5151 8.69035 10.9152 8.69035 10.2093C8.69035 9.51323 8.53955 8.91166 8.23794 8.40456C7.93633 7.89415 7.50711 7.50305 6.9503 7.23127C6.39679 6.95617 5.73888 6.81863 4.97657 6.81863H0.770608ZM3.23155 11.5764H4.44461C4.81583 11.5764 5.12572 11.5284 5.3743 11.4323C5.62619 11.3328 5.81677 11.1837 5.94603 10.9848C6.0753 10.7826 6.13993 10.5241 6.13993 10.2093C6.13993 9.89438 6.0753 9.6342 5.94603 9.42871C5.81677 9.2199 5.62619 9.06413 5.3743 8.96138C5.12241 8.85532 4.81251 8.80229 4.44461 8.80229H3.23155V11.5764Z"
        fill="#EBECEC" />
    <path
        d="M12.4712 17.0004V12.6453C12.4746 12.3537 12.5292 12.1051 12.6353 11.8996C12.7447 11.6941 12.8955 11.5367 13.0877 11.4273C13.2833 11.3146 13.5087 11.2583 13.7639 11.2583C14.155 11.2583 14.4582 11.3776 14.6737 11.6162C14.8891 11.8548 14.9952 12.1863 14.9918 12.6105V17.0004H17.423V12.1333C17.4263 11.5566 17.3169 11.0528 17.0948 10.6219C16.8761 10.191 16.5678 9.85793 16.1701 9.6226C15.7724 9.38397 15.3051 9.26465 14.7681 9.26465C14.198 9.26465 13.7158 9.39722 13.3214 9.66238C12.9303 9.92753 12.6486 10.2954 12.4762 10.7661H12.3917V6.81863H10.0401V17.0004H12.4712Z"
        fill="#EBECEC" />
</svg>