<svg width="18" height="18" viewBox="0 0 18 18" fill="none" xmlns="http://www.w3.org/2000/svg">
<path fill-rule="evenodd" clip-rule="evenodd" d="M4.75736 13.2426C7.1005 15.5858 10.8995 15.5858 13.2426 13.2426C15.5858 10.8995 15.5858 7.1005 13.2426 4.75735C10.8995 2.4142 7.10051 2.4142 4.75736 4.75735C2.41421 7.1005 2.41421 10.8995 4.75736 13.2426ZM13.2426 7.58578C13.6332 7.19525 13.6332 6.56209 13.2426 6.17156C12.8521 5.78104 12.219 5.78104 11.8284 6.17156L8.29289 9.7071L6.17157 7.58578C5.78105 7.19525 5.14788 7.19525 4.75736 7.58578C4.36684 7.9763 4.36683 8.60947 4.75736 8.99999L7.58579 11.8284L8.29289 12.5355L9 11.8284L13.2426 7.58578Z" fill="#FFFF8D"/>
</svg>
