<svg width="19" height="18" viewBox="0 0 19 18" fill="none" xmlns="http://www.w3.org/2000/svg">
<path d="M12.5415 7.91667C12.5415 8.37691 12.1684 8.75 11.7082 8.75H5.87485C5.41461 8.75 5.04151 8.37691 5.04151 7.91667C5.04151 7.45643 5.41461 7.08334 5.87485 7.08334H11.7082C12.1684 7.08334 12.5415 7.45643 12.5415 7.91667Z" fill="#F8F8F8"/>
<path fill-rule="evenodd" clip-rule="evenodd" d="M17.7048 14.8191L15.4539 12.5668C17.7606 9.11154 17.0718 4.46885 13.8614 1.83318C10.651 -0.802484 5.96615 -0.571446 3.0303 2.36733C0.094444 5.30611 -0.13479 9.99406 2.50032 13.2056C5.13543 16.4171 9.77538 17.1047 13.2276 14.7953L15.4785 17.0468C16.0977 17.6512 17.0856 17.6512 17.7048 17.0468C18.3194 16.4316 18.3194 15.4343 17.7048 14.8191ZM8.74698 2.37289C11.8991 2.37289 14.4544 4.92982 14.4544 8.08394C14.4544 11.2381 11.8991 13.795 8.74698 13.795C5.59488 13.795 3.0396 11.2381 3.0396 8.08394C3.04307 4.93126 5.59632 2.37637 8.74698 2.37289Z" fill="#F8F8F8"/>
</svg>
