<svg width="19" height="19" viewBox="0 0 19 19" fill="none" xmlns="http://www.w3.org/2000/svg">
<path d="M9.41651 5.83325C9.41651 5.37302 9.04342 4.99992 8.58318 4.99992C8.12294 4.99992 7.74985 5.37302 7.74985 5.83325V7.91659H5.66651C5.20628 7.91659 4.83318 8.28968 4.83318 8.74992C4.83318 9.21016 5.20628 9.58325 5.66651 9.58325H7.74985V11.6666C7.74985 12.1268 8.12294 12.4999 8.58318 12.4999C9.04342 12.4999 9.41651 12.1268 9.41651 11.6666V9.58325H11.4998C11.9601 9.58325 12.3332 9.21016 12.3332 8.74992C12.3332 8.28968 11.9601 7.91659 11.4998 7.91659H9.41651V5.83325Z" fill="#F8F8F8"/>
<path fill-rule="evenodd" clip-rule="evenodd" d="M15.4539 13.4L17.7048 15.6524C18.3194 16.2676 18.3194 17.2649 17.7048 17.8801C17.0856 18.4845 16.0977 18.4845 15.4785 17.8801L13.2276 15.6285C9.77538 17.938 5.13543 17.2504 2.50032 14.0389C-0.13479 10.8273 0.094444 6.13936 3.0303 3.20058C5.96615 0.261806 10.651 0.0307679 13.8614 2.66644C17.0718 5.3021 17.7606 9.94479 15.4539 13.4ZM14.4544 8.91719C14.4544 5.76307 11.8991 3.20615 8.74698 3.20615C5.59632 3.20962 3.04307 5.76451 3.0396 8.91719C3.0396 12.0713 5.59488 14.6282 8.74698 14.6282C11.8991 14.6282 14.4544 12.0713 14.4544 8.91719Z" fill="#F8F8F8"/>
</svg>
