<svg width="18" height="18" viewBox="0 0 18 18" fill="none" xmlns="http://www.w3.org/2000/svg">
<path d="M6 0H0V6C0 6.55228 0.447715 7 1 7H2C2.55228 7 3 6.55228 3 6V3H6C6.55228 3 7 2.55228 7 2V1C7 0.447715 6.55228 0 6 0Z" fill="#F8F8F8"/>
<path d="M0 12V18H6C6.55228 18 7 17.5523 7 17V16C7 15.4477 6.55228 15 6 15H3V12C3 11.4477 2.55228 11 2 11H1C0.447715 11 0 11.4477 0 12Z" fill="#F8F8F8"/>
<path d="M18 6V0H12C11.4477 0 11 0.447715 11 1V2C11 2.55228 11.4477 3 12 3H15V6C15 6.55228 15.4477 7 16 7H17C17.5523 7 18 6.55228 18 6Z" fill="#F8F8F8"/>
<path d="M12 18H18V12C18 11.4477 17.5523 11 17 11H16C15.4477 11 15 11.4477 15 12V15H12C11.4477 15 11 15.4477 11 16V17C11 17.5523 11.4477 18 12 18Z" fill="#F8F8F8"/>
<path d="M2 4L4.12132 1.87868L8.36396 6.12132L6.24264 8.24264L2 4Z" fill="#F8F8F8"/>
<path d="M14.2426 1.87868L16.364 4L12.1213 8.24264L10 6.12132L14.2426 1.87868Z" fill="#F8F8F8"/>
<path d="M6.24261 10L8.36394 12.1213L4.12129 16.364L1.99997 14.2426L6.24261 10Z" fill="#F8F8F8"/>
<path d="M10 12.1213L12.1213 10L16.364 14.2426L14.2426 16.364L10 12.1213Z" fill="#F8F8F8"/>
</svg>
