<svg width="16" height="16" viewBox="0 0 16 16" fill="none" xmlns="http://www.w3.org/2000/svg">
    <path
        d="M2 2V12.6667C2 13.0203 2.14048 13.3594 2.39052 13.6095C2.64057 13.8595 2.97971 14 3.33333 14H14M5.33333 5C5.33333 5.18409 5.18409 5.33333 5 5.33333C4.81591 5.33333 4.66667 5.18409 4.66667 5C4.66667 4.81591 4.81591 4.66667 5 4.66667C5.18409 4.66667 5.33333 4.81591 5.33333 5ZM12.6667 3.66667C12.6667 3.85076 12.5174 4 12.3333 4C12.1492 4 12 3.85076 12 3.66667C12 3.48257 12.1492 3.33333 12.3333 3.33333C12.5174 3.33333 12.6667 3.48257 12.6667 3.66667ZM8 7.66667C8 7.85076 7.85076 8 7.66667 8C7.48257 8 7.33333 7.85076 7.33333 7.66667C7.33333 7.48257 7.48257 7.33333 7.66667 7.33333C7.85076 7.33333 8 7.48257 8 7.66667ZM5.33333 11C5.33333 11.1841 5.18409 11.3333 5 11.3333C4.81591 11.3333 4.66667 11.1841 4.66667 11C4.66667 10.8159 4.81591 10.6667 5 10.6667C5.18409 10.6667 5.33333 10.8159 5.33333 11ZM12 9.66667C12 9.85076 11.8508 10 11.6667 10C11.4826 10 11.3333 9.85076 11.3333 9.66667C11.3333 9.48257 11.4826 9.33333 11.6667 9.33333C11.8508 9.33333 12 9.48257 12 9.66667Z"
        stroke="#969696" stroke-linecap="round" stroke-linejoin="round" />
</svg>