<svg width="16" height="16" viewBox="0 0 16 16" fill="none" xmlns="http://www.w3.org/2000/svg">
    <g clip-path="url(#clip0_85_1771)">
        <path
            d="M6.79998 4.19998L4.19998 6.79998M9.19998 11.8L11.8 9.19998M4.15661 9.19998C4.47105 8.89683 4.66665 8.47125 4.66665 7.99998C4.66665 7.07951 3.92045 6.33331 2.99998 6.33331C2.07951 6.33331 1.33331 7.07951 1.33331 7.99998C1.33331 8.92045 2.07951 9.66665 2.99998 9.66665C3.44919 9.66665 3.85688 9.48893 4.15661 9.19998ZM4.15661 9.19998L6.79998 11.8434M6.79998 11.8434C6.51103 12.1431 6.33331 12.5508 6.33331 13C6.33331 13.9205 7.07951 14.6666 7.99998 14.6666C8.92045 14.6666 9.66665 13.9205 9.66665 13C9.66665 12.0795 8.92045 11.3333 7.99998 11.3333C7.52871 11.3333 7.10313 11.5289 6.79998 11.8434ZM9.66665 2.99998C9.66665 3.92045 8.92045 4.66665 7.99998 4.66665C7.07951 4.66665 6.33331 3.92045 6.33331 2.99998C6.33331 2.07951 7.07951 1.33331 7.99998 1.33331C8.92045 1.33331 9.66665 2.07951 9.66665 2.99998ZM11.3333 7.99998C11.3333 8.92045 12.0795 9.66665 13 9.66665C13.9205 9.66665 14.6666 8.92045 14.6666 7.99998C14.6666 7.07951 13.9205 6.33331 13 6.33331C12.0795 6.33331 11.3333 7.07951 11.3333 7.99998Z"
            stroke="#969696" stroke-linecap="round" stroke-linejoin="round" />
    </g>
    <defs>
        <clipPath id="clip0_85_1771">
            <rect width="16" height="16" fill="white" />
        </clipPath>
    </defs>
</svg>