<svg width="16" height="16" viewBox="0 0 16 16" fill="none" xmlns="http://www.w3.org/2000/svg">
    <path
        d="M6 3.33333V6M6 10V11.3333M11.3333 2V3.33333M11.3333 8.66667V10.6667M2 2V12.6667C2 13.0203 2.14048 13.3594 2.39052 13.6095C2.64057 13.8595 2.97971 14 3.33333 14H14M5.33333 6H6.66667C7.03486 6 7.33333 6.29848 7.33333 6.66667V9.33333C7.33333 9.70152 7.03486 10 6.66667 10H5.33333C4.96514 10 4.66667 9.70152 4.66667 9.33333V6.66667C4.66667 6.29848 4.96514 6 5.33333 6ZM10.6667 3.33333H12C12.3682 3.33333 12.6667 3.63181 12.6667 4V8C12.6667 8.36819 12.3682 8.66667 12 8.66667H10.6667C10.2985 8.66667 10 8.36819 10 8V4C10 3.63181 10.2985 3.33333 10.6667 3.33333Z"
        stroke="#969696" stroke-linecap="round" stroke-linejoin="round" />
</svg>