<svg width="15" height="16" viewBox="0 0 15 16" fill="none" xmlns="http://www.w3.org/2000/svg">
    <g opacity="0.5">
        <path fill-rule="evenodd" clip-rule="evenodd"
            d="M11.5 2C11.7761 2 12 2.22386 12 2.5V14.5C12 14.7761 11.7761 15 11.5 15C11.2239 15 11 14.7761 11 14.5V2.5C11 2.22386 11.2239 2 11.5 2ZM9.5 4C9.77614 4 10 4.22386 10 4.5V14.5C10 14.7761 9.77614 15 9.5 15C9.22386 15 9 14.7761 9 14.5V4.5C9 4.22386 9.22386 4 9.5 4ZM13.5 4C13.7761 4 14 4.22386 14 4.5V14.5C14 14.7761 13.7761 15 13.5 15C13.2239 15 13 14.7761 13 14.5V4.5C13 4.22386 13.2239 4 13.5 4ZM5.5 5C5.77614 5 6 5.22386 6 5.5V14.5C6 14.7761 5.77614 15 5.5 15C5.22386 15 5 14.7761 5 14.5V5.5C5 5.22386 5.22386 5 5.5 5ZM1.5 6C1.77614 6 2 6.22386 2 6.5V14.5C2 14.7761 1.77614 15 1.5 15C1.22386 15 1 14.7761 1 14.5V6.5C1 6.22386 1.22386 6 1.5 6ZM7.5 6C7.77614 6 8 6.22386 8 6.5V14.5C8 14.7761 7.77614 15 7.5 15C7.22386 15 7 14.7761 7 14.5V6.5C7 6.22386 7.22386 6 7.5 6ZM3.5 8C3.77614 8 4 8.22386 4 8.5V14.5C4 14.7761 3.77614 15 3.5 15C3.22386 15 3 14.7761 3 14.5V8.5C3 8.22386 3.22386 8 3.5 8Z"
            fill="white" />
    </g>
</svg>