<svg width="16" height="16" viewBox="0 0 16 16" fill="none" xmlns="http://www.w3.org/2000/svg">
    <g opacity="0.5">
        <path
            d="M1 12.5L1.97437 2.26907C1.9889 2.11649 2.11705 1.99997 2.27032 1.99997V1.99997C2.4056 1.99997 2.52383 2.09131 2.55798 2.22221L5.43823 13.2632C5.47461 13.4027 5.60058 13.5 5.74473 13.5V13.5C5.89373 13.5 6.02258 13.3961 6.05423 13.2505L8.44677 2.24484C8.47784 2.10191 8.60433 1.99997 8.75059 1.99997V1.99997C8.89632 1.99997 9.02249 2.10118 9.0541 2.24344L10.6945 9.62522C10.7966 10.0847 11.4193 10.1614 11.6298 9.74036L12.6147 7.7706C12.7864 7.42722 13.265 7.39742 13.4779 7.71686L15 9.99997"
            stroke="white" stroke-linecap="round" />
    </g>
</svg>