<svg width="16" height="16" viewBox="0 0 16 16" fill="none" xmlns="http://www.w3.org/2000/svg">
    <path
        d="M9.15335 2.66668C9.03614 2.46463 8.86791 2.29692 8.6655 2.18033C8.46309 2.06375 8.2336 2.00238 8.00002 2.00238C7.76643 2.00238 7.53694 2.06375 7.33453 2.18033C7.13212 2.29692 6.96389 2.46463 6.84668 2.66668L1.51335 12C1.39638 12.2026 1.33478 12.4324 1.33472 12.6663C1.33466 12.9003 1.39615 13.1301 1.51301 13.3328C1.62987 13.5354 1.79799 13.7038 2.0005 13.8209C2.203 13.938 2.43275 13.9998 2.66668 14H13.3334C13.5673 13.9998 13.797 13.938 13.9995 13.8209C14.202 13.7038 14.3702 13.5354 14.487 13.3328C14.6039 13.1301 14.6654 12.9003 14.6653 12.6663C14.6653 12.4324 14.6036 12.2026 14.4867 12L9.15335 2.66668Z"
        stroke="#969696" stroke-linecap="round" stroke-linejoin="round" />
    <path
        d="M5.33333 11.6667C5.51743 11.6667 5.66667 11.5174 5.66667 11.3333C5.66667 11.1492 5.51743 11 5.33333 11C5.14924 11 5 11.1492 5 11.3333C5 11.5174 5.14924 11.6667 5.33333 11.6667Z"
        fill="#969696" stroke="#969696" stroke-linecap="round" stroke-linejoin="round" />
    <path
        d="M6.33333 8.66667C6.51743 8.66667 6.66667 8.51743 6.66667 8.33333C6.66667 8.14924 6.51743 8 6.33333 8C6.14924 8 6 8.14924 6 8.33333C6 8.51743 6.14924 8.66667 6.33333 8.66667Z"
        fill="#969696" stroke="#969696" stroke-linecap="round" stroke-linejoin="round" />
    <path
        d="M9.33333 9.66667C9.51743 9.66667 9.66667 9.51743 9.66667 9.33333C9.66667 9.14924 9.51743 9 9.33333 9C9.14924 9 9 9.14924 9 9.33333C9 9.51743 9.14924 9.66667 9.33333 9.66667Z"
        fill="#969696" stroke="#969696" stroke-linecap="round" stroke-linejoin="round" />
    <path
        d="M8.33333 6.66667C8.51743 6.66667 8.66667 6.51743 8.66667 6.33333C8.66667 6.14924 8.51743 6 8.33333 6C8.14924 6 8 6.14924 8 6.33333C8 6.51743 8.14924 6.66667 8.33333 6.66667Z"
        fill="#969696" stroke="#969696" stroke-linecap="round" stroke-linejoin="round" />
</svg>