<svg width="16" height="16" viewBox="0 0 16 16" fill="none" xmlns="http://www.w3.org/2000/svg">
    <g clip-path="url(#clip0_85_1814)">
        <path
            d="M2 2V12.6667C2 13.0203 2.14048 13.3594 2.39052 13.6095C2.64057 13.8595 2.97971 14 3.33333 14H14M12.6667 6L9.33333 9.33333L6.66667 6.66667L4.66667 8.66667"
            stroke="#969696" stroke-linecap="round" stroke-linejoin="round" />
        <path
            d="M2 2V12.6667C2 13.0203 2.14048 13.3594 2.39052 13.6095C2.64057 13.8595 2.97971 14 3.33333 14H14M6.33333 3.83333C6.33333 4.01743 6.18409 4.16667 6 4.16667C5.81591 4.16667 5.66667 4.01743 5.66667 3.83333C5.66667 3.64924 5.81591 3.5 6 3.5C6.18409 3.5 6.33333 3.64924 6.33333 3.83333ZM12.6667 3.66667C12.6667 3.85076 12.5174 4 12.3333 4C12.1492 4 12 3.85076 12 3.66667C12 3.48257 12.1492 3.33333 12.3333 3.33333C12.5174 3.33333 12.6667 3.48257 12.6667 3.66667ZM5.33333 11C5.33333 11.1841 5.18409 11.3333 5 11.3333C4.81591 11.3333 4.66667 11.1841 4.66667 11C4.66667 10.8159 4.81591 10.6667 5 10.6667C5.18409 10.6667 5.33333 10.8159 5.33333 11ZM9.66667 5C9.66667 5.18409 9.51743 5.33333 9.33333 5.33333C9.14924 5.33333 9 5.18409 9 5C9 4.81591 9.14924 4.66667 9.33333 4.66667C9.51743 4.66667 9.66667 4.81591 9.66667 5Z"
            stroke="#969696" stroke-linecap="round" stroke-linejoin="round" />
    </g>
    <defs>
        <clipPath id="clip0_85_1814">
            <rect width="16" height="16" fill="white" />
        </clipPath>
    </defs>
</svg>